%FSLAX46Y46*%
G04 Gerber Fmt 4.6, Leading zero omitted, Abs format (unit mm)*
G04 Created by KiCad (PCBNEW (2014-09-02 BZR 5112)-product) date 2015-05-09 6:49:56 PM*
%MOMM*%
G01*
G04 APERTURE LIST*
%ADD10C,0.100000*%
%ADD11C,0.200000*%
%ADD12C,0.300000*%
%ADD13C,0.812800*%
%ADD14C,0.152400*%
%ADD15C,0.254000*%
%ADD16C,0.250000*%
%ADD17C,0.150000*%
%ADD18C,0.127000*%
%ADD19C,0.203200*%
%ADD20C,0.066040*%
%ADD21C,0.381000*%
%ADD22R,0.812800X1.143000*%
%ADD23R,1.400000X1.400000*%
%ADD24C,1.400000*%
%ADD25R,1.143000X0.812800*%
%ADD26R,1.727200X1.727200*%
%ADD27O,1.727200X1.727200*%
%ADD28R,0.701040X1.000760*%
%ADD29C,2.250000*%
%ADD30C,2.500000*%
%ADD31R,1.500000X0.450000*%
%ADD32R,1.450000X0.450000*%
%ADD33C,1.778000*%
%ADD34C,1.998980*%
%ADD35C,1.524000*%
%ADD36R,0.797560X0.398780*%
%ADD37R,1.300480X0.299720*%
%ADD38R,2.199640X0.599440*%
%ADD39R,1.143000X1.397000*%
%ADD40O,3.500000X5.000000*%
%ADD41O,2.000000X3.500000*%
%ADD42O,3.500000X3.500000*%
%ADD43R,1.200000X1.200000*%
%ADD44C,1.200000*%
%ADD45R,0.609600X0.762000*%
%ADD46R,0.762000X0.609600*%
G04 APERTURE END LIST*
D10*
D11*
X51353553Y-22500000D02*
G75*
G03X51353553Y-22500000I-353553J0D01*
G74*
G01*
D12*
X52178571Y-103107143D02*
X52035714Y-103178571D01*
X51749999Y-103178571D01*
X51607142Y-103107143D01*
X51535714Y-102964286D01*
X51535714Y-102892857D01*
X51607142Y-102750000D01*
X51749999Y-102678571D01*
X51964285Y-102678571D01*
X52107142Y-102607143D01*
X52178571Y-102464286D01*
X52178571Y-102392857D01*
X52107142Y-102250000D01*
X51964285Y-102178571D01*
X51749999Y-102178571D01*
X51607142Y-102250000D01*
X51035713Y-102178571D02*
X50678570Y-103178571D01*
X50321428Y-102178571D02*
X50678570Y-103178571D01*
X50821428Y-103535714D01*
X50892856Y-103607143D01*
X51035713Y-103678571D01*
X49821428Y-103107143D02*
X49678571Y-103178571D01*
X49392856Y-103178571D01*
X49249999Y-103107143D01*
X49178571Y-102964286D01*
X49178571Y-102892857D01*
X49249999Y-102750000D01*
X49392856Y-102678571D01*
X49607142Y-102678571D01*
X49749999Y-102607143D01*
X49821428Y-102464286D01*
X49821428Y-102392857D01*
X49749999Y-102250000D01*
X49607142Y-102178571D01*
X49392856Y-102178571D01*
X49249999Y-102250000D01*
X48749999Y-102178571D02*
X48178570Y-102178571D01*
X48535713Y-101678571D02*
X48535713Y-102964286D01*
X48464285Y-103107143D01*
X48321427Y-103178571D01*
X48178570Y-103178571D01*
X47107142Y-103107143D02*
X47249999Y-103178571D01*
X47535713Y-103178571D01*
X47678570Y-103107143D01*
X47749999Y-102964286D01*
X47749999Y-102392857D01*
X47678570Y-102250000D01*
X47535713Y-102178571D01*
X47249999Y-102178571D01*
X47107142Y-102250000D01*
X47035713Y-102392857D01*
X47035713Y-102535714D01*
X47749999Y-102678571D01*
X46392856Y-103178571D02*
X46392856Y-102178571D01*
X46392856Y-102321429D02*
X46321428Y-102250000D01*
X46178570Y-102178571D01*
X45964285Y-102178571D01*
X45821428Y-102250000D01*
X45749999Y-102392857D01*
X45749999Y-103178571D01*
X45749999Y-102392857D02*
X45678570Y-102250000D01*
X45535713Y-102178571D01*
X45321428Y-102178571D01*
X45178570Y-102250000D01*
X45107142Y-102392857D01*
X45107142Y-103178571D01*
X44535713Y-101678571D02*
X43535713Y-101678571D01*
X44178570Y-103178571D01*
X42892857Y-103178571D02*
X42607142Y-103178571D01*
X42464285Y-103107143D01*
X42392857Y-103035714D01*
X42249999Y-102821429D01*
X42178571Y-102535714D01*
X42178571Y-101964286D01*
X42249999Y-101821429D01*
X42321428Y-101750000D01*
X42464285Y-101678571D01*
X42749999Y-101678571D01*
X42892857Y-101750000D01*
X42964285Y-101821429D01*
X43035714Y-101964286D01*
X43035714Y-102321429D01*
X42964285Y-102464286D01*
X42892857Y-102535714D01*
X42749999Y-102607143D01*
X42464285Y-102607143D01*
X42321428Y-102535714D01*
X42249999Y-102464286D01*
X42178571Y-102321429D01*
X41535714Y-103035714D02*
X41464286Y-103107143D01*
X41535714Y-103178571D01*
X41607143Y-103107143D01*
X41535714Y-103035714D01*
X41535714Y-103178571D01*
X40178571Y-103107143D02*
X40321428Y-103178571D01*
X40607142Y-103178571D01*
X40750000Y-103107143D01*
X40821428Y-103035714D01*
X40892857Y-102892857D01*
X40892857Y-102464286D01*
X40821428Y-102321429D01*
X40750000Y-102250000D01*
X40607142Y-102178571D01*
X40321428Y-102178571D01*
X40178571Y-102250000D01*
X39321428Y-103178571D02*
X39464286Y-103107143D01*
X39535714Y-103035714D01*
X39607143Y-102892857D01*
X39607143Y-102464286D01*
X39535714Y-102321429D01*
X39464286Y-102250000D01*
X39321428Y-102178571D01*
X39107143Y-102178571D01*
X38964286Y-102250000D01*
X38892857Y-102321429D01*
X38821428Y-102464286D01*
X38821428Y-102892857D01*
X38892857Y-103035714D01*
X38964286Y-103107143D01*
X39107143Y-103178571D01*
X39321428Y-103178571D01*
X38178571Y-103178571D02*
X38178571Y-102178571D01*
X38178571Y-102321429D02*
X38107143Y-102250000D01*
X37964285Y-102178571D01*
X37750000Y-102178571D01*
X37607143Y-102250000D01*
X37535714Y-102392857D01*
X37535714Y-103178571D01*
X37535714Y-102392857D02*
X37464285Y-102250000D01*
X37321428Y-102178571D01*
X37107143Y-102178571D01*
X36964285Y-102250000D01*
X36892857Y-102392857D01*
X36892857Y-103178571D01*
X75357142Y-50978571D02*
X75357142Y-49478571D01*
X74857142Y-50550000D01*
X74357142Y-49478571D01*
X74357142Y-50978571D01*
X72999999Y-49978571D02*
X72999999Y-50978571D01*
X73642856Y-49978571D02*
X73642856Y-50764286D01*
X73571428Y-50907143D01*
X73428570Y-50978571D01*
X73214285Y-50978571D01*
X73071428Y-50907143D01*
X72999999Y-50835714D01*
X72071427Y-50978571D02*
X72214285Y-50907143D01*
X72285713Y-50764286D01*
X72285713Y-49478571D01*
X71714285Y-49978571D02*
X71142856Y-49978571D01*
X71499999Y-49478571D02*
X71499999Y-50764286D01*
X71428571Y-50907143D01*
X71285713Y-50978571D01*
X71142856Y-50978571D01*
X70642856Y-50978571D02*
X70642856Y-49978571D01*
X70642856Y-49478571D02*
X70714285Y-49550000D01*
X70642856Y-49621429D01*
X70571428Y-49550000D01*
X70642856Y-49478571D01*
X70642856Y-49621429D01*
X69928570Y-50978571D02*
X69928570Y-49978571D01*
X69928570Y-50121429D02*
X69857142Y-50050000D01*
X69714284Y-49978571D01*
X69499999Y-49978571D01*
X69357142Y-50050000D01*
X69285713Y-50192857D01*
X69285713Y-50978571D01*
X69285713Y-50192857D02*
X69214284Y-50050000D01*
X69071427Y-49978571D01*
X68857142Y-49978571D01*
X68714284Y-50050000D01*
X68642856Y-50192857D01*
X68642856Y-50978571D01*
X67714284Y-50978571D02*
X67857142Y-50907143D01*
X67928570Y-50835714D01*
X67999999Y-50692857D01*
X67999999Y-50264286D01*
X67928570Y-50121429D01*
X67857142Y-50050000D01*
X67714284Y-49978571D01*
X67499999Y-49978571D01*
X67357142Y-50050000D01*
X67285713Y-50121429D01*
X67214284Y-50264286D01*
X67214284Y-50692857D01*
X67285713Y-50835714D01*
X67357142Y-50907143D01*
X67499999Y-50978571D01*
X67714284Y-50978571D01*
X65928570Y-50978571D02*
X65928570Y-49478571D01*
X65928570Y-50907143D02*
X66071427Y-50978571D01*
X66357141Y-50978571D01*
X66499999Y-50907143D01*
X66571427Y-50835714D01*
X66642856Y-50692857D01*
X66642856Y-50264286D01*
X66571427Y-50121429D01*
X66499999Y-50050000D01*
X66357141Y-49978571D01*
X66071427Y-49978571D01*
X65928570Y-50050000D01*
X64642856Y-50907143D02*
X64785713Y-50978571D01*
X65071427Y-50978571D01*
X65214284Y-50907143D01*
X65285713Y-50764286D01*
X65285713Y-50192857D01*
X65214284Y-50050000D01*
X65071427Y-49978571D01*
X64785713Y-49978571D01*
X64642856Y-50050000D01*
X64571427Y-50192857D01*
X64571427Y-50335714D01*
X65285713Y-50478571D01*
X62285713Y-50192857D02*
X62785713Y-50192857D01*
X62785713Y-50978571D02*
X62785713Y-49478571D01*
X62071427Y-49478571D01*
X61499999Y-50978571D02*
X61499999Y-49978571D01*
X61499999Y-49478571D02*
X61571428Y-49550000D01*
X61499999Y-49621429D01*
X61428571Y-49550000D01*
X61499999Y-49478571D01*
X61499999Y-49621429D01*
X60571427Y-50978571D02*
X60714285Y-50907143D01*
X60785713Y-50764286D01*
X60785713Y-49478571D01*
X60214285Y-49978571D02*
X59642856Y-49978571D01*
X59999999Y-49478571D02*
X59999999Y-50764286D01*
X59928571Y-50907143D01*
X59785713Y-50978571D01*
X59642856Y-50978571D01*
X58571428Y-50907143D02*
X58714285Y-50978571D01*
X58999999Y-50978571D01*
X59142856Y-50907143D01*
X59214285Y-50764286D01*
X59214285Y-50192857D01*
X59142856Y-50050000D01*
X58999999Y-49978571D01*
X58714285Y-49978571D01*
X58571428Y-50050000D01*
X58499999Y-50192857D01*
X58499999Y-50335714D01*
X59214285Y-50478571D01*
X57857142Y-50978571D02*
X57857142Y-49978571D01*
X57857142Y-50264286D02*
X57785714Y-50121429D01*
X57714285Y-50050000D01*
X57571428Y-49978571D01*
X57428571Y-49978571D01*
X74071426Y-52378571D02*
X73714283Y-53378571D01*
X73357141Y-52378571D01*
X71999998Y-53378571D02*
X72857141Y-53378571D01*
X72428569Y-53378571D02*
X72428569Y-51878571D01*
X72571426Y-52092857D01*
X72714284Y-52235714D01*
X72857141Y-52307143D01*
X71357141Y-53235714D02*
X71285713Y-53307143D01*
X71357141Y-53378571D01*
X71428570Y-53307143D01*
X71357141Y-53235714D01*
X71357141Y-53378571D01*
X70357141Y-51878571D02*
X70214284Y-51878571D01*
X70071427Y-51950000D01*
X69999998Y-52021429D01*
X69928569Y-52164286D01*
X69857141Y-52450000D01*
X69857141Y-52807143D01*
X69928569Y-53092857D01*
X69999998Y-53235714D01*
X70071427Y-53307143D01*
X70214284Y-53378571D01*
X70357141Y-53378571D01*
X70499998Y-53307143D01*
X70571427Y-53235714D01*
X70642855Y-53092857D01*
X70714284Y-52807143D01*
X70714284Y-52450000D01*
X70642855Y-52164286D01*
X70571427Y-52021429D01*
X70499998Y-51950000D01*
X70357141Y-51878571D01*
X67785713Y-51878571D02*
X67642856Y-51878571D01*
X67499999Y-51950000D01*
X67428570Y-52021429D01*
X67357141Y-52164286D01*
X67285713Y-52450000D01*
X67285713Y-52807143D01*
X67357141Y-53092857D01*
X67428570Y-53235714D01*
X67499999Y-53307143D01*
X67642856Y-53378571D01*
X67785713Y-53378571D01*
X67928570Y-53307143D01*
X67999999Y-53235714D01*
X68071427Y-53092857D01*
X68142856Y-52807143D01*
X68142856Y-52450000D01*
X68071427Y-52164286D01*
X67999999Y-52021429D01*
X67928570Y-51950000D01*
X67785713Y-51878571D01*
X65928570Y-51878571D02*
X66642856Y-51878571D01*
X66714285Y-52592857D01*
X66642856Y-52521429D01*
X66499999Y-52450000D01*
X66142856Y-52450000D01*
X65999999Y-52521429D01*
X65928570Y-52592857D01*
X65857142Y-52735714D01*
X65857142Y-53092857D01*
X65928570Y-53235714D01*
X65999999Y-53307143D01*
X66142856Y-53378571D01*
X66499999Y-53378571D01*
X66642856Y-53307143D01*
X66714285Y-53235714D01*
X64142857Y-52021429D02*
X64071428Y-51950000D01*
X63928571Y-51878571D01*
X63571428Y-51878571D01*
X63428571Y-51950000D01*
X63357142Y-52021429D01*
X63285714Y-52164286D01*
X63285714Y-52307143D01*
X63357142Y-52521429D01*
X64214285Y-53378571D01*
X63285714Y-53378571D01*
X62357143Y-51878571D02*
X62214286Y-51878571D01*
X62071429Y-51950000D01*
X62000000Y-52021429D01*
X61928571Y-52164286D01*
X61857143Y-52450000D01*
X61857143Y-52807143D01*
X61928571Y-53092857D01*
X62000000Y-53235714D01*
X62071429Y-53307143D01*
X62214286Y-53378571D01*
X62357143Y-53378571D01*
X62500000Y-53307143D01*
X62571429Y-53235714D01*
X62642857Y-53092857D01*
X62714286Y-52807143D01*
X62714286Y-52450000D01*
X62642857Y-52164286D01*
X62571429Y-52021429D01*
X62500000Y-51950000D01*
X62357143Y-51878571D01*
X60428572Y-53378571D02*
X61285715Y-53378571D01*
X60857143Y-53378571D02*
X60857143Y-51878571D01*
X61000000Y-52092857D01*
X61142858Y-52235714D01*
X61285715Y-52307143D01*
X59071429Y-51878571D02*
X59785715Y-51878571D01*
X59857144Y-52592857D01*
X59785715Y-52521429D01*
X59642858Y-52450000D01*
X59285715Y-52450000D01*
X59142858Y-52521429D01*
X59071429Y-52592857D01*
X59000001Y-52735714D01*
X59000001Y-53092857D01*
X59071429Y-53235714D01*
X59142858Y-53307143D01*
X59285715Y-53378571D01*
X59642858Y-53378571D01*
X59785715Y-53307143D01*
X59857144Y-53235714D01*
D13*
X70104000Y-24250000D02*
X74500000Y-24250000D01*
D14*
X69290095Y-24322571D02*
X68516000Y-24322571D01*
X67500000Y-24709619D02*
X68080571Y-24709619D01*
X67790285Y-24709619D02*
X67790285Y-23693619D01*
X67887047Y-23838762D01*
X67983809Y-23935524D01*
X68080571Y-23983905D01*
X67112952Y-23790381D02*
X67064571Y-23742000D01*
X66967809Y-23693619D01*
X66725905Y-23693619D01*
X66629143Y-23742000D01*
X66580762Y-23790381D01*
X66532381Y-23887143D01*
X66532381Y-23983905D01*
X66580762Y-24129048D01*
X67161333Y-24709619D01*
X66532381Y-24709619D01*
X66242095Y-23693619D02*
X65903428Y-24709619D01*
X65564762Y-23693619D01*
X32503161Y-37222535D02*
X32774094Y-36835488D01*
X32967618Y-37222535D02*
X32967618Y-36409735D01*
X32657980Y-36409735D01*
X32580571Y-36448440D01*
X32541866Y-36487145D01*
X32503161Y-36564554D01*
X32503161Y-36680669D01*
X32541866Y-36758078D01*
X32580571Y-36796783D01*
X32657980Y-36835488D01*
X32967618Y-36835488D01*
X32154818Y-36796783D02*
X31883885Y-36796783D01*
X31767771Y-37222535D02*
X32154818Y-37222535D01*
X32154818Y-36409735D01*
X31767771Y-36409735D01*
X31458133Y-37183830D02*
X31342019Y-37222535D01*
X31148495Y-37222535D01*
X31071085Y-37183830D01*
X31032381Y-37145126D01*
X30993676Y-37067716D01*
X30993676Y-36990307D01*
X31032381Y-36912897D01*
X31071085Y-36874192D01*
X31148495Y-36835488D01*
X31303314Y-36796783D01*
X31380723Y-36758078D01*
X31419428Y-36719373D01*
X31458133Y-36641964D01*
X31458133Y-36564554D01*
X31419428Y-36487145D01*
X31380723Y-36448440D01*
X31303314Y-36409735D01*
X31109790Y-36409735D01*
X30993676Y-36448440D01*
X32909562Y-38280627D02*
X32522514Y-38280627D01*
X32986971Y-38512855D02*
X32716038Y-37700055D01*
X32445105Y-38512855D01*
X32174171Y-38512855D02*
X32174171Y-37700055D01*
X31980647Y-37700055D01*
X31864533Y-37738760D01*
X31787124Y-37816170D01*
X31748419Y-37893579D01*
X31709714Y-38048398D01*
X31709714Y-38164512D01*
X31748419Y-38319331D01*
X31787124Y-38396741D01*
X31864533Y-38474150D01*
X31980647Y-38512855D01*
X32174171Y-38512855D01*
X31129143Y-37700055D02*
X31129143Y-38280627D01*
X31167847Y-38396741D01*
X31245257Y-38474150D01*
X31361371Y-38512855D01*
X31438781Y-38512855D01*
D11*
X65853553Y-35500000D02*
G75*
G03X65853553Y-35500000I-353553J0D01*
G74*
G01*
X65853553Y-42000000D02*
G75*
G03X65853553Y-42000000I-353553J0D01*
G74*
G01*
D14*
X23583733Y-12796783D02*
X23854666Y-12796783D01*
X23854666Y-13222535D02*
X23854666Y-12409735D01*
X23467619Y-12409735D01*
X22693523Y-13222535D02*
X22964456Y-12835488D01*
X23157980Y-13222535D02*
X23157980Y-12409735D01*
X22848342Y-12409735D01*
X22770933Y-12448440D01*
X22732228Y-12487145D01*
X22693523Y-12564554D01*
X22693523Y-12680669D01*
X22732228Y-12758078D01*
X22770933Y-12796783D01*
X22848342Y-12835488D01*
X23157980Y-12835488D01*
X22345180Y-12796783D02*
X22074247Y-12796783D01*
X21958133Y-13222535D02*
X22345180Y-13222535D01*
X22345180Y-12409735D01*
X21958133Y-12409735D01*
X21067924Y-13299945D02*
X21145333Y-13261240D01*
X21222743Y-13183830D01*
X21338857Y-13067716D01*
X21416266Y-13029011D01*
X21493676Y-13029011D01*
X21454971Y-13222535D02*
X21532381Y-13183830D01*
X21609790Y-13106421D01*
X21648495Y-12951602D01*
X21648495Y-12680669D01*
X21609790Y-12525850D01*
X21532381Y-12448440D01*
X21454971Y-12409735D01*
X21300152Y-12409735D01*
X21222743Y-12448440D01*
X21145333Y-12525850D01*
X21106628Y-12680669D01*
X21106628Y-12951602D01*
X21145333Y-13106421D01*
X21222743Y-13183830D01*
X21300152Y-13222535D01*
X21454971Y-13222535D01*
X23409562Y-14280627D02*
X23022514Y-14280627D01*
X23486971Y-14512855D02*
X23216038Y-13700055D01*
X22945105Y-14512855D01*
X22674171Y-14512855D02*
X22674171Y-13700055D01*
X22480647Y-13700055D01*
X22364533Y-13738760D01*
X22287124Y-13816170D01*
X22248419Y-13893579D01*
X22209714Y-14048398D01*
X22209714Y-14164512D01*
X22248419Y-14319331D01*
X22287124Y-14396741D01*
X22364533Y-14474150D01*
X22480647Y-14512855D01*
X22674171Y-14512855D01*
X21629143Y-13700055D02*
X21629143Y-14280627D01*
X21667847Y-14396741D01*
X21745257Y-14474150D01*
X21861371Y-14512855D01*
X21938781Y-14512855D01*
D15*
X42400000Y-47900000D02*
X39600000Y-47900000D01*
X39600000Y-47900000D02*
X39600000Y-46100000D01*
X39600000Y-46100000D02*
X42400000Y-46100000D01*
X42400000Y-46100000D02*
X42400000Y-47900000D01*
X21600000Y-49600000D02*
X24400000Y-49600000D01*
X24400000Y-49600000D02*
X24400000Y-51400000D01*
X24400000Y-51400000D02*
X21600000Y-51400000D01*
X21600000Y-51400000D02*
X21600000Y-49600000D01*
X52900000Y-41900000D02*
X50100000Y-41900000D01*
X50100000Y-41900000D02*
X50100000Y-40100000D01*
X50100000Y-40100000D02*
X52900000Y-40100000D01*
X52900000Y-40100000D02*
X52900000Y-41900000D01*
X46600000Y-44100000D02*
X49400000Y-44100000D01*
X49400000Y-44100000D02*
X49400000Y-45900000D01*
X49400000Y-45900000D02*
X46600000Y-45900000D01*
X46600000Y-45900000D02*
X46600000Y-44100000D01*
X36400000Y-21900000D02*
X33600000Y-21900000D01*
X33600000Y-21900000D02*
X33600000Y-20100000D01*
X33600000Y-20100000D02*
X36400000Y-20100000D01*
X36400000Y-20100000D02*
X36400000Y-21900000D01*
X31600000Y-82600000D02*
X34400000Y-82600000D01*
X34400000Y-82600000D02*
X34400000Y-84400000D01*
X34400000Y-84400000D02*
X31600000Y-84400000D01*
X31600000Y-84400000D02*
X31600000Y-82600000D01*
X38900000Y-80400000D02*
X36100000Y-80400000D01*
X36100000Y-80400000D02*
X36100000Y-78600000D01*
X36100000Y-78600000D02*
X38900000Y-78600000D01*
X38900000Y-78600000D02*
X38900000Y-80400000D01*
D16*
X55500000Y-81000000D02*
X54500000Y-81000000D01*
X55000000Y-81500000D02*
X55000000Y-80500000D01*
X58000000Y-81000000D02*
X58000000Y-78000000D01*
X58500000Y-79500000D02*
G75*
G03X58500000Y-79500000I-2500000J0D01*
G74*
G01*
D15*
X52900000Y-84900000D02*
X50100000Y-84900000D01*
X50100000Y-84900000D02*
X50100000Y-83100000D01*
X50100000Y-83100000D02*
X52900000Y-83100000D01*
X52900000Y-83100000D02*
X52900000Y-84900000D01*
X60150000Y-31100000D02*
X60150000Y-33900000D01*
X60150000Y-33900000D02*
X58350000Y-33900000D01*
X58350000Y-33900000D02*
X58350000Y-31100000D01*
X58350000Y-31100000D02*
X60150000Y-31100000D01*
X68150000Y-31350000D02*
X68150000Y-34150000D01*
X68150000Y-34150000D02*
X66350000Y-34150000D01*
X66350000Y-34150000D02*
X66350000Y-31350000D01*
X66350000Y-31350000D02*
X68150000Y-31350000D01*
D16*
X73000000Y-42500000D02*
X74000000Y-42500000D01*
X73500000Y-42000000D02*
X73500000Y-43000000D01*
X70500000Y-42500000D02*
X70500000Y-45500000D01*
X75000000Y-44000000D02*
G75*
G03X75000000Y-44000000I-2500000J0D01*
G74*
G01*
X72000000Y-20000000D02*
X71000000Y-20000000D01*
X71500000Y-20500000D02*
X71500000Y-19500000D01*
X74500000Y-20000000D02*
X74500000Y-17000000D01*
X75000000Y-18500000D02*
G75*
G03X75000000Y-18500000I-2500000J0D01*
G74*
G01*
D17*
X69690000Y-25230000D02*
X69690000Y-37930000D01*
X69690000Y-37930000D02*
X74770000Y-37930000D01*
X74770000Y-37930000D02*
X74770000Y-27770000D01*
X69690000Y-25230000D02*
X72230000Y-25230000D01*
X73500000Y-24950000D02*
X75050000Y-24950000D01*
X72230000Y-25230000D02*
X72230000Y-27770000D01*
X72230000Y-27770000D02*
X74770000Y-27770000D01*
X75050000Y-24950000D02*
X75050000Y-26500000D01*
D18*
X49730000Y-66762000D02*
X52333500Y-66762000D01*
X52333500Y-66762000D02*
X52333500Y-65238000D01*
X52333500Y-65238000D02*
X49730000Y-65238000D01*
X49730000Y-65238000D02*
X49730000Y-66762000D01*
X36730000Y-66762000D02*
X39333500Y-66762000D01*
X39333500Y-66762000D02*
X39333500Y-65238000D01*
X39333500Y-65238000D02*
X36730000Y-65238000D01*
X36730000Y-65238000D02*
X36730000Y-66762000D01*
X36730000Y-96762000D02*
X39333500Y-96762000D01*
X39333500Y-96762000D02*
X39333500Y-95238000D01*
X39333500Y-95238000D02*
X36730000Y-95238000D01*
X36730000Y-95238000D02*
X36730000Y-96762000D01*
X49730000Y-96762000D02*
X52333500Y-96762000D01*
X52333500Y-96762000D02*
X52333500Y-95238000D01*
X52333500Y-95238000D02*
X49730000Y-95238000D01*
X49730000Y-95238000D02*
X49730000Y-96762000D01*
D15*
X24100000Y-32100000D02*
X26900000Y-32100000D01*
X26900000Y-32100000D02*
X26900000Y-33900000D01*
X26900000Y-33900000D02*
X24100000Y-33900000D01*
X24100000Y-33900000D02*
X24100000Y-32100000D01*
X21100000Y-30100000D02*
X23900000Y-30100000D01*
X23900000Y-30100000D02*
X23900000Y-31900000D01*
X23900000Y-31900000D02*
X21100000Y-31900000D01*
X21100000Y-31900000D02*
X21100000Y-30100000D01*
X21100000Y-28100000D02*
X23900000Y-28100000D01*
X23900000Y-28100000D02*
X23900000Y-29900000D01*
X23900000Y-29900000D02*
X21100000Y-29900000D01*
X21100000Y-29900000D02*
X21100000Y-28100000D01*
X21100000Y-26100000D02*
X23900000Y-26100000D01*
X23900000Y-26100000D02*
X23900000Y-27900000D01*
X23900000Y-27900000D02*
X21100000Y-27900000D01*
X21100000Y-27900000D02*
X21100000Y-26100000D01*
X20400000Y-27900000D02*
X17600000Y-27900000D01*
X17600000Y-27900000D02*
X17600000Y-26100000D01*
X17600000Y-26100000D02*
X20400000Y-26100000D01*
X20400000Y-26100000D02*
X20400000Y-27900000D01*
X20400000Y-25400000D02*
X17600000Y-25400000D01*
X17600000Y-25400000D02*
X17600000Y-23600000D01*
X17600000Y-23600000D02*
X20400000Y-23600000D01*
X20400000Y-23600000D02*
X20400000Y-25400000D01*
X39600000Y-38100000D02*
X42400000Y-38100000D01*
X42400000Y-38100000D02*
X42400000Y-39900000D01*
X42400000Y-39900000D02*
X39600000Y-39900000D01*
X39600000Y-39900000D02*
X39600000Y-38100000D01*
X39600000Y-48100000D02*
X42400000Y-48100000D01*
X42400000Y-48100000D02*
X42400000Y-49900000D01*
X42400000Y-49900000D02*
X39600000Y-49900000D01*
X39600000Y-49900000D02*
X39600000Y-48100000D01*
X27100000Y-41600000D02*
X29900000Y-41600000D01*
X29900000Y-41600000D02*
X29900000Y-43400000D01*
X29900000Y-43400000D02*
X27100000Y-43400000D01*
X27100000Y-43400000D02*
X27100000Y-41600000D01*
X21100000Y-32100000D02*
X23900000Y-32100000D01*
X23900000Y-32100000D02*
X23900000Y-33900000D01*
X23900000Y-33900000D02*
X21100000Y-33900000D01*
X21100000Y-33900000D02*
X21100000Y-32100000D01*
X26400000Y-43400000D02*
X23600000Y-43400000D01*
X23600000Y-43400000D02*
X23600000Y-41600000D01*
X23600000Y-41600000D02*
X26400000Y-41600000D01*
X26400000Y-41600000D02*
X26400000Y-43400000D01*
X27100000Y-39600000D02*
X29900000Y-39600000D01*
X29900000Y-39600000D02*
X29900000Y-41400000D01*
X29900000Y-41400000D02*
X27100000Y-41400000D01*
X27100000Y-41400000D02*
X27100000Y-39600000D01*
X23900000Y-25400000D02*
X21100000Y-25400000D01*
X21100000Y-25400000D02*
X21100000Y-23600000D01*
X21100000Y-23600000D02*
X23900000Y-23600000D01*
X23900000Y-23600000D02*
X23900000Y-25400000D01*
X42400000Y-45900000D02*
X39600000Y-45900000D01*
X39600000Y-45900000D02*
X39600000Y-44100000D01*
X39600000Y-44100000D02*
X42400000Y-44100000D01*
X42400000Y-44100000D02*
X42400000Y-45900000D01*
X26400000Y-41400000D02*
X23600000Y-41400000D01*
X23600000Y-41400000D02*
X23600000Y-39600000D01*
X23600000Y-39600000D02*
X26400000Y-39600000D01*
X26400000Y-39600000D02*
X26400000Y-41400000D01*
X27400000Y-23400000D02*
X24600000Y-23400000D01*
X24600000Y-23400000D02*
X24600000Y-21600000D01*
X24600000Y-21600000D02*
X27400000Y-21600000D01*
X27400000Y-21600000D02*
X27400000Y-23400000D01*
X27400000Y-21400000D02*
X24600000Y-21400000D01*
X24600000Y-21400000D02*
X24600000Y-19600000D01*
X24600000Y-19600000D02*
X27400000Y-19600000D01*
X27400000Y-19600000D02*
X27400000Y-21400000D01*
X45900000Y-47900000D02*
X43100000Y-47900000D01*
X43100000Y-47900000D02*
X43100000Y-46100000D01*
X43100000Y-46100000D02*
X45900000Y-46100000D01*
X45900000Y-46100000D02*
X45900000Y-47900000D01*
X24400000Y-53400000D02*
X21600000Y-53400000D01*
X21600000Y-53400000D02*
X21600000Y-51600000D01*
X21600000Y-51600000D02*
X24400000Y-51600000D01*
X24400000Y-51600000D02*
X24400000Y-53400000D01*
X24400000Y-49400000D02*
X21600000Y-49400000D01*
X21600000Y-49400000D02*
X21600000Y-47600000D01*
X21600000Y-47600000D02*
X24400000Y-47600000D01*
X24400000Y-47600000D02*
X24400000Y-49400000D01*
X49400000Y-47900000D02*
X46600000Y-47900000D01*
X46600000Y-47900000D02*
X46600000Y-46100000D01*
X46600000Y-46100000D02*
X49400000Y-46100000D01*
X49400000Y-46100000D02*
X49400000Y-47900000D01*
X27400000Y-19400000D02*
X24600000Y-19400000D01*
X24600000Y-19400000D02*
X24600000Y-17600000D01*
X24600000Y-17600000D02*
X27400000Y-17600000D01*
X27400000Y-17600000D02*
X27400000Y-19400000D01*
X50100000Y-38100000D02*
X52900000Y-38100000D01*
X52900000Y-38100000D02*
X52900000Y-39900000D01*
X52900000Y-39900000D02*
X50100000Y-39900000D01*
X50100000Y-39900000D02*
X50100000Y-38100000D01*
X27400000Y-17400000D02*
X24600000Y-17400000D01*
X24600000Y-17400000D02*
X24600000Y-15600000D01*
X24600000Y-15600000D02*
X27400000Y-15600000D01*
X27400000Y-15600000D02*
X27400000Y-17400000D01*
X52900000Y-43900000D02*
X50100000Y-43900000D01*
X50100000Y-43900000D02*
X50100000Y-42100000D01*
X50100000Y-42100000D02*
X52900000Y-42100000D01*
X52900000Y-42100000D02*
X52900000Y-43900000D01*
X33600000Y-18100000D02*
X36400000Y-18100000D01*
X36400000Y-18100000D02*
X36400000Y-19900000D01*
X36400000Y-19900000D02*
X33600000Y-19900000D01*
X33600000Y-19900000D02*
X33600000Y-18100000D01*
X33600000Y-22100000D02*
X36400000Y-22100000D01*
X36400000Y-22100000D02*
X36400000Y-23900000D01*
X36400000Y-23900000D02*
X33600000Y-23900000D01*
X33600000Y-23900000D02*
X33600000Y-22100000D01*
X50100000Y-54600000D02*
X52900000Y-54600000D01*
X52900000Y-54600000D02*
X52900000Y-56400000D01*
X52900000Y-56400000D02*
X50100000Y-56400000D01*
X50100000Y-56400000D02*
X50100000Y-54600000D01*
X52900000Y-58900000D02*
X50100000Y-58900000D01*
X50100000Y-58900000D02*
X50100000Y-57100000D01*
X50100000Y-57100000D02*
X52900000Y-57100000D01*
X52900000Y-57100000D02*
X52900000Y-58900000D01*
X24900000Y-68900000D02*
X22100000Y-68900000D01*
X22100000Y-68900000D02*
X22100000Y-67100000D01*
X22100000Y-67100000D02*
X24900000Y-67100000D01*
X24900000Y-67100000D02*
X24900000Y-68900000D01*
X47900000Y-54900000D02*
X45100000Y-54900000D01*
X45100000Y-54900000D02*
X45100000Y-53100000D01*
X45100000Y-53100000D02*
X47900000Y-53100000D01*
X47900000Y-53100000D02*
X47900000Y-54900000D01*
X33100000Y-55600000D02*
X35900000Y-55600000D01*
X35900000Y-55600000D02*
X35900000Y-57400000D01*
X35900000Y-57400000D02*
X33100000Y-57400000D01*
X33100000Y-57400000D02*
X33100000Y-55600000D01*
X27100000Y-70600000D02*
X29900000Y-70600000D01*
X29900000Y-70600000D02*
X29900000Y-72400000D01*
X29900000Y-72400000D02*
X27100000Y-72400000D01*
X27100000Y-72400000D02*
X27100000Y-70600000D01*
X27100000Y-72600000D02*
X29900000Y-72600000D01*
X29900000Y-72600000D02*
X29900000Y-74400000D01*
X29900000Y-74400000D02*
X27100000Y-74400000D01*
X27100000Y-74400000D02*
X27100000Y-72600000D01*
X29900000Y-76400000D02*
X27100000Y-76400000D01*
X27100000Y-76400000D02*
X27100000Y-74600000D01*
X27100000Y-74600000D02*
X29900000Y-74600000D01*
X29900000Y-74600000D02*
X29900000Y-76400000D01*
X38900000Y-57400000D02*
X36100000Y-57400000D01*
X36100000Y-57400000D02*
X36100000Y-55600000D01*
X36100000Y-55600000D02*
X38900000Y-55600000D01*
X38900000Y-55600000D02*
X38900000Y-57400000D01*
X36100000Y-53100000D02*
X38900000Y-53100000D01*
X38900000Y-53100000D02*
X38900000Y-54900000D01*
X38900000Y-54900000D02*
X36100000Y-54900000D01*
X36100000Y-54900000D02*
X36100000Y-53100000D01*
X41100000Y-53100000D02*
X43900000Y-53100000D01*
X43900000Y-53100000D02*
X43900000Y-54900000D01*
X43900000Y-54900000D02*
X41100000Y-54900000D01*
X41100000Y-54900000D02*
X41100000Y-53100000D01*
X38900000Y-71400000D02*
X36100000Y-71400000D01*
X36100000Y-71400000D02*
X36100000Y-69600000D01*
X36100000Y-69600000D02*
X38900000Y-69600000D01*
X38900000Y-69600000D02*
X38900000Y-71400000D01*
X47600000Y-15100000D02*
X50400000Y-15100000D01*
X50400000Y-15100000D02*
X50400000Y-16900000D01*
X50400000Y-16900000D02*
X47600000Y-16900000D01*
X47600000Y-16900000D02*
X47600000Y-15100000D01*
X38900000Y-73400000D02*
X36100000Y-73400000D01*
X36100000Y-73400000D02*
X36100000Y-71600000D01*
X36100000Y-71600000D02*
X38900000Y-71600000D01*
X38900000Y-71600000D02*
X38900000Y-73400000D01*
X56400000Y-56400000D02*
X53600000Y-56400000D01*
X53600000Y-56400000D02*
X53600000Y-54600000D01*
X53600000Y-54600000D02*
X56400000Y-54600000D01*
X56400000Y-54600000D02*
X56400000Y-56400000D01*
X38900000Y-76400000D02*
X36100000Y-76400000D01*
X36100000Y-76400000D02*
X36100000Y-74600000D01*
X36100000Y-74600000D02*
X38900000Y-74600000D01*
X38900000Y-74600000D02*
X38900000Y-76400000D01*
X34400000Y-86400000D02*
X31600000Y-86400000D01*
X31600000Y-86400000D02*
X31600000Y-84600000D01*
X31600000Y-84600000D02*
X34400000Y-84600000D01*
X34400000Y-84600000D02*
X34400000Y-86400000D01*
X36100000Y-76600000D02*
X38900000Y-76600000D01*
X38900000Y-76600000D02*
X38900000Y-78400000D01*
X38900000Y-78400000D02*
X36100000Y-78400000D01*
X36100000Y-78400000D02*
X36100000Y-76600000D01*
X50100000Y-78600000D02*
X52900000Y-78600000D01*
X52900000Y-78600000D02*
X52900000Y-80400000D01*
X52900000Y-80400000D02*
X50100000Y-80400000D01*
X50100000Y-80400000D02*
X50100000Y-78600000D01*
X38900000Y-86400000D02*
X36100000Y-86400000D01*
X36100000Y-86400000D02*
X36100000Y-84600000D01*
X36100000Y-84600000D02*
X38900000Y-84600000D01*
X38900000Y-84600000D02*
X38900000Y-86400000D01*
X31600000Y-80600000D02*
X34400000Y-80600000D01*
X34400000Y-80600000D02*
X34400000Y-82400000D01*
X34400000Y-82400000D02*
X31600000Y-82400000D01*
X31600000Y-82400000D02*
X31600000Y-80600000D01*
X32100000Y-94600000D02*
X34900000Y-94600000D01*
X34900000Y-94600000D02*
X34900000Y-96400000D01*
X34900000Y-96400000D02*
X32100000Y-96400000D01*
X32100000Y-96400000D02*
X32100000Y-94600000D01*
X52900000Y-82900000D02*
X50100000Y-82900000D01*
X50100000Y-82900000D02*
X50100000Y-81100000D01*
X50100000Y-81100000D02*
X52900000Y-81100000D01*
X52900000Y-81100000D02*
X52900000Y-82900000D01*
X36100000Y-86600000D02*
X38900000Y-86600000D01*
X38900000Y-86600000D02*
X38900000Y-88400000D01*
X38900000Y-88400000D02*
X36100000Y-88400000D01*
X36100000Y-88400000D02*
X36100000Y-86600000D01*
X31600000Y-86600000D02*
X34400000Y-86600000D01*
X34400000Y-86600000D02*
X34400000Y-88400000D01*
X34400000Y-88400000D02*
X31600000Y-88400000D01*
X31600000Y-88400000D02*
X31600000Y-86600000D01*
X67900000Y-99900000D02*
X65100000Y-99900000D01*
X65100000Y-99900000D02*
X65100000Y-98100000D01*
X65100000Y-98100000D02*
X67900000Y-98100000D01*
X67900000Y-98100000D02*
X67900000Y-99900000D01*
X18600000Y-67100000D02*
X21400000Y-67100000D01*
X21400000Y-67100000D02*
X21400000Y-68900000D01*
X21400000Y-68900000D02*
X18600000Y-68900000D01*
X18600000Y-68900000D02*
X18600000Y-67100000D01*
X41100000Y-84100000D02*
X43900000Y-84100000D01*
X43900000Y-84100000D02*
X43900000Y-85900000D01*
X43900000Y-85900000D02*
X41100000Y-85900000D01*
X41100000Y-85900000D02*
X41100000Y-84100000D01*
X34900000Y-98400000D02*
X32100000Y-98400000D01*
X32100000Y-98400000D02*
X32100000Y-96600000D01*
X32100000Y-96600000D02*
X34900000Y-96600000D01*
X34900000Y-96600000D02*
X34900000Y-98400000D01*
X62150000Y-31100000D02*
X62150000Y-33900000D01*
X62150000Y-33900000D02*
X60350000Y-33900000D01*
X60350000Y-33900000D02*
X60350000Y-31100000D01*
X60350000Y-31100000D02*
X62150000Y-31100000D01*
X64350000Y-34150000D02*
X64350000Y-31350000D01*
X64350000Y-31350000D02*
X66150000Y-31350000D01*
X66150000Y-31350000D02*
X66150000Y-34150000D01*
X66150000Y-34150000D02*
X64350000Y-34150000D01*
X16900000Y-74400000D02*
X14100000Y-74400000D01*
X14100000Y-74400000D02*
X14100000Y-72600000D01*
X14100000Y-72600000D02*
X16900000Y-72600000D01*
X16900000Y-72600000D02*
X16900000Y-74400000D01*
X64350000Y-30650000D02*
X64350000Y-27850000D01*
X64350000Y-27850000D02*
X66150000Y-27850000D01*
X66150000Y-27850000D02*
X66150000Y-30650000D01*
X66150000Y-30650000D02*
X64350000Y-30650000D01*
X14100000Y-70600000D02*
X16900000Y-70600000D01*
X16900000Y-70600000D02*
X16900000Y-72400000D01*
X16900000Y-72400000D02*
X14100000Y-72400000D01*
X14100000Y-72400000D02*
X14100000Y-70600000D01*
X43400000Y-98900000D02*
X40600000Y-98900000D01*
X40600000Y-98900000D02*
X40600000Y-97100000D01*
X40600000Y-97100000D02*
X43400000Y-97100000D01*
X43400000Y-97100000D02*
X43400000Y-98900000D01*
X60350000Y-30900000D02*
X60350000Y-28100000D01*
X60350000Y-28100000D02*
X62150000Y-28100000D01*
X62150000Y-28100000D02*
X62150000Y-30900000D01*
X62150000Y-30900000D02*
X60350000Y-30900000D01*
X40600000Y-99100000D02*
X43400000Y-99100000D01*
X43400000Y-99100000D02*
X43400000Y-100900000D01*
X43400000Y-100900000D02*
X40600000Y-100900000D01*
X40600000Y-100900000D02*
X40600000Y-99100000D01*
X47900000Y-85900000D02*
X45100000Y-85900000D01*
X45100000Y-85900000D02*
X45100000Y-84100000D01*
X45100000Y-84100000D02*
X47900000Y-84100000D01*
X47900000Y-84100000D02*
X47900000Y-85900000D01*
X45600000Y-97100000D02*
X48400000Y-97100000D01*
X48400000Y-97100000D02*
X48400000Y-98900000D01*
X48400000Y-98900000D02*
X45600000Y-98900000D01*
X45600000Y-98900000D02*
X45600000Y-97100000D01*
X50100000Y-74600000D02*
X52900000Y-74600000D01*
X52900000Y-74600000D02*
X52900000Y-76400000D01*
X52900000Y-76400000D02*
X50100000Y-76400000D01*
X50100000Y-76400000D02*
X50100000Y-74600000D01*
X50100000Y-70600000D02*
X52900000Y-70600000D01*
X52900000Y-70600000D02*
X52900000Y-72400000D01*
X52900000Y-72400000D02*
X50100000Y-72400000D01*
X50100000Y-72400000D02*
X50100000Y-70600000D01*
X50100000Y-72600000D02*
X52900000Y-72600000D01*
X52900000Y-72600000D02*
X52900000Y-74400000D01*
X52900000Y-74400000D02*
X50100000Y-74400000D01*
X50100000Y-74400000D02*
X50100000Y-72600000D01*
D17*
X33600000Y-40500000D02*
G75*
G03X33600000Y-40500000I-1600000J0D01*
G74*
G01*
X24100000Y-16500000D02*
G75*
G03X24100000Y-16500000I-1600000J0D01*
G74*
G01*
X50300000Y-17775000D02*
X54700000Y-17775000D01*
X48725000Y-23225000D02*
X54700000Y-23225000D01*
X66200000Y-46725000D02*
X61800000Y-46725000D01*
X67775000Y-41275000D02*
X61800000Y-41275000D01*
X66325000Y-34875000D02*
X66325000Y-35100000D01*
X61675000Y-34875000D02*
X61675000Y-35100000D01*
X61675000Y-40125000D02*
X61675000Y-39900000D01*
X66325000Y-40125000D02*
X66325000Y-39900000D01*
X66325000Y-34875000D02*
X61675000Y-34875000D01*
X66325000Y-40125000D02*
X61675000Y-40125000D01*
X66325000Y-35100000D02*
X67675000Y-35100000D01*
D19*
X13206000Y-13952000D02*
X13206000Y-13444000D01*
X13206000Y-13444000D02*
X12698000Y-13444000D01*
X12698000Y-13444000D02*
X12698000Y-13952000D01*
X15746000Y-13952000D02*
X15746000Y-13444000D01*
X15746000Y-13444000D02*
X13714000Y-13444000D01*
X13714000Y-13444000D02*
X13714000Y-13952000D01*
X18286000Y-13952000D02*
X18286000Y-13444000D01*
X18286000Y-13444000D02*
X16254000Y-13444000D01*
X16254000Y-13444000D02*
X16254000Y-13952000D01*
X19302000Y-13952000D02*
X19302000Y-13444000D01*
X19302000Y-13444000D02*
X18794000Y-13444000D01*
X18794000Y-13444000D02*
X18794000Y-13952000D01*
X19302000Y-20556000D02*
X19302000Y-13952000D01*
X19302000Y-13952000D02*
X12698000Y-13952000D01*
X12698000Y-13952000D02*
X12698000Y-20556000D01*
X12698000Y-20556000D02*
X19302000Y-20556000D01*
X15492000Y-15476000D02*
X15492000Y-16746000D01*
X15492000Y-16746000D02*
X14222000Y-16746000D01*
X17778000Y-16746000D02*
X16508000Y-16746000D01*
X16508000Y-16746000D02*
X16508000Y-15476000D01*
X16508000Y-19032000D02*
X16508000Y-17762000D01*
X16508000Y-17762000D02*
X17778000Y-17762000D01*
X14222000Y-17762000D02*
X15492000Y-17762000D01*
X15492000Y-17762000D02*
X15492000Y-19032000D01*
X17905000Y-17254000D02*
G75*
G03X17905000Y-17254000I-1905000J0D01*
G74*
G01*
X13206000Y-38452000D02*
X13206000Y-37944000D01*
X13206000Y-37944000D02*
X12698000Y-37944000D01*
X12698000Y-37944000D02*
X12698000Y-38452000D01*
X15746000Y-38452000D02*
X15746000Y-37944000D01*
X15746000Y-37944000D02*
X13714000Y-37944000D01*
X13714000Y-37944000D02*
X13714000Y-38452000D01*
X18286000Y-38452000D02*
X18286000Y-37944000D01*
X18286000Y-37944000D02*
X16254000Y-37944000D01*
X16254000Y-37944000D02*
X16254000Y-38452000D01*
X19302000Y-38452000D02*
X19302000Y-37944000D01*
X19302000Y-37944000D02*
X18794000Y-37944000D01*
X18794000Y-37944000D02*
X18794000Y-38452000D01*
X19302000Y-45056000D02*
X19302000Y-38452000D01*
X19302000Y-38452000D02*
X12698000Y-38452000D01*
X12698000Y-38452000D02*
X12698000Y-45056000D01*
X12698000Y-45056000D02*
X19302000Y-45056000D01*
X15492000Y-39976000D02*
X15492000Y-41246000D01*
X15492000Y-41246000D02*
X14222000Y-41246000D01*
X17778000Y-41246000D02*
X16508000Y-41246000D01*
X16508000Y-41246000D02*
X16508000Y-39976000D01*
X16508000Y-43532000D02*
X16508000Y-42262000D01*
X16508000Y-42262000D02*
X17778000Y-42262000D01*
X14222000Y-42262000D02*
X15492000Y-42262000D01*
X15492000Y-42262000D02*
X15492000Y-43532000D01*
X17905000Y-41754000D02*
G75*
G03X17905000Y-41754000I-1905000J0D01*
G74*
G01*
D17*
X49750000Y-91500000D02*
X49750000Y-93750000D01*
X49750000Y-93750000D02*
X57250000Y-93750000D01*
X57250000Y-93750000D02*
X57250000Y-89250000D01*
X57250000Y-89250000D02*
X49750000Y-89250000D01*
X49750000Y-89250000D02*
X49750000Y-91500000D01*
X39250000Y-91500000D02*
X39250000Y-89250000D01*
X39250000Y-89250000D02*
X31750000Y-89250000D01*
X31750000Y-89250000D02*
X31750000Y-93750000D01*
X31750000Y-93750000D02*
X39250000Y-93750000D01*
X39250000Y-93750000D02*
X39250000Y-91500000D01*
X39250000Y-61500000D02*
X39250000Y-59250000D01*
X39250000Y-59250000D02*
X31750000Y-59250000D01*
X31750000Y-59250000D02*
X31750000Y-63750000D01*
X31750000Y-63750000D02*
X39250000Y-63750000D01*
X39250000Y-63750000D02*
X39250000Y-61500000D01*
X49750000Y-61500000D02*
X49750000Y-63750000D01*
X49750000Y-63750000D02*
X57250000Y-63750000D01*
X57250000Y-63750000D02*
X57250000Y-59250000D01*
X57250000Y-59250000D02*
X49750000Y-59250000D01*
X49750000Y-59250000D02*
X49750000Y-61500000D01*
D20*
X28099820Y-48202440D02*
X28099820Y-48502160D01*
X28099820Y-48502160D02*
X27599440Y-48502160D01*
X27599440Y-48202440D02*
X27599440Y-48502160D01*
X28099820Y-48202440D02*
X27599440Y-48202440D01*
X28099820Y-48850140D02*
X28099820Y-49149860D01*
X28099820Y-49149860D02*
X27599440Y-49149860D01*
X27599440Y-48850140D02*
X27599440Y-49149860D01*
X28099820Y-48850140D02*
X27599440Y-48850140D01*
X28099820Y-49497840D02*
X28099820Y-49797560D01*
X28099820Y-49797560D02*
X27599440Y-49797560D01*
X27599440Y-49497840D02*
X27599440Y-49797560D01*
X28099820Y-49497840D02*
X27599440Y-49497840D01*
X26400560Y-49497840D02*
X26400560Y-49797560D01*
X26400560Y-49797560D02*
X25900180Y-49797560D01*
X25900180Y-49497840D02*
X25900180Y-49797560D01*
X26400560Y-49497840D02*
X25900180Y-49497840D01*
X26400560Y-48850140D02*
X26400560Y-49149860D01*
X26400560Y-49149860D02*
X25900180Y-49149860D01*
X25900180Y-48850140D02*
X25900180Y-49149860D01*
X26400560Y-48850140D02*
X25900180Y-48850140D01*
X26400560Y-48202440D02*
X26400560Y-48502160D01*
X26400560Y-48502160D02*
X25900180Y-48502160D01*
X25900180Y-48202440D02*
X25900180Y-48502160D01*
X26400560Y-48202440D02*
X25900180Y-48202440D01*
D19*
X26451360Y-48001780D02*
X26451360Y-49998220D01*
X26451360Y-49998220D02*
X27548640Y-49998220D01*
X27548640Y-49998220D02*
X27548640Y-48001780D01*
X27548640Y-48001780D02*
X26451360Y-48001780D01*
D14*
X27353091Y-48301500D02*
G75*
G03X27353091Y-48301500I-104171J0D01*
G74*
G01*
D20*
X29400180Y-23297560D02*
X29400180Y-22997840D01*
X29400180Y-22997840D02*
X29900560Y-22997840D01*
X29900560Y-23297560D02*
X29900560Y-22997840D01*
X29400180Y-23297560D02*
X29900560Y-23297560D01*
X29400180Y-22649860D02*
X29400180Y-22350140D01*
X29400180Y-22350140D02*
X29900560Y-22350140D01*
X29900560Y-22649860D02*
X29900560Y-22350140D01*
X29400180Y-22649860D02*
X29900560Y-22649860D01*
X29400180Y-22002160D02*
X29400180Y-21702440D01*
X29400180Y-21702440D02*
X29900560Y-21702440D01*
X29900560Y-22002160D02*
X29900560Y-21702440D01*
X29400180Y-22002160D02*
X29900560Y-22002160D01*
X31099440Y-22002160D02*
X31099440Y-21702440D01*
X31099440Y-21702440D02*
X31599820Y-21702440D01*
X31599820Y-22002160D02*
X31599820Y-21702440D01*
X31099440Y-22002160D02*
X31599820Y-22002160D01*
X31099440Y-22649860D02*
X31099440Y-22350140D01*
X31099440Y-22350140D02*
X31599820Y-22350140D01*
X31599820Y-22649860D02*
X31599820Y-22350140D01*
X31099440Y-22649860D02*
X31599820Y-22649860D01*
X31099440Y-23297560D02*
X31099440Y-22997840D01*
X31099440Y-22997840D02*
X31599820Y-22997840D01*
X31599820Y-23297560D02*
X31599820Y-22997840D01*
X31099440Y-23297560D02*
X31599820Y-23297560D01*
D19*
X31048640Y-23498220D02*
X31048640Y-21501780D01*
X31048640Y-21501780D02*
X29951360Y-21501780D01*
X29951360Y-21501780D02*
X29951360Y-23498220D01*
X29951360Y-23498220D02*
X31048640Y-23498220D01*
D14*
X30355251Y-23198500D02*
G75*
G03X30355251Y-23198500I-104171J0D01*
G74*
G01*
D11*
X46400000Y-82930000D02*
X46400000Y-80070000D01*
X46400000Y-80070000D02*
X42800000Y-80070000D01*
X42800000Y-80070000D02*
X42800000Y-82930000D01*
X42822000Y-82938000D02*
X46378000Y-82938000D01*
X43838000Y-82303000D02*
G75*
G03X43838000Y-82303000I-381000J0D01*
G74*
G01*
X46400000Y-43430000D02*
X46400000Y-40570000D01*
X46400000Y-40570000D02*
X42800000Y-40570000D01*
X42800000Y-40570000D02*
X42800000Y-43430000D01*
X42822000Y-43438000D02*
X46378000Y-43438000D01*
X43838000Y-42803000D02*
G75*
G03X43838000Y-42803000I-381000J0D01*
G74*
G01*
X25100000Y-44070000D02*
X25100000Y-46930000D01*
X25100000Y-46930000D02*
X28700000Y-46930000D01*
X28700000Y-46930000D02*
X28700000Y-44070000D01*
X28678000Y-44062000D02*
X25122000Y-44062000D01*
X28424000Y-44697000D02*
G75*
G03X28424000Y-44697000I-381000J0D01*
G74*
G01*
X32400000Y-27430000D02*
X32400000Y-24570000D01*
X32400000Y-24570000D02*
X28800000Y-24570000D01*
X28800000Y-24570000D02*
X28800000Y-27430000D01*
X28822000Y-27438000D02*
X32378000Y-27438000D01*
X29838000Y-26803000D02*
G75*
G03X29838000Y-26803000I-381000J0D01*
G74*
G01*
D21*
X45141421Y-56200000D02*
G75*
G03X45141421Y-56200000I-141421J0D01*
G74*
G01*
D20*
X47598800Y-55811160D02*
X47598800Y-56301380D01*
X47598800Y-56301380D02*
X46498980Y-56301380D01*
X46498980Y-55811160D02*
X46498980Y-56301380D01*
X47598800Y-55811160D02*
X46498980Y-55811160D01*
X47598800Y-57081160D02*
X47598800Y-57571380D01*
X47598800Y-57571380D02*
X46498980Y-57571380D01*
X46498980Y-57081160D02*
X46498980Y-57571380D01*
X47598800Y-57081160D02*
X46498980Y-57081160D01*
X47598800Y-58351160D02*
X47598800Y-58841380D01*
X47598800Y-58841380D02*
X46498980Y-58841380D01*
X46498980Y-58351160D02*
X46498980Y-58841380D01*
X47598800Y-58351160D02*
X46498980Y-58351160D01*
X47598800Y-59621160D02*
X47598800Y-60111380D01*
X47598800Y-60111380D02*
X46498980Y-60111380D01*
X46498980Y-59621160D02*
X46498980Y-60111380D01*
X47598800Y-59621160D02*
X46498980Y-59621160D01*
X42501020Y-62158620D02*
X42501020Y-62648840D01*
X42501020Y-62648840D02*
X41401200Y-62648840D01*
X41401200Y-62158620D02*
X41401200Y-62648840D01*
X42501020Y-62158620D02*
X41401200Y-62158620D01*
X42501020Y-60888620D02*
X42501020Y-61378840D01*
X42501020Y-61378840D02*
X41401200Y-61378840D01*
X41401200Y-60888620D02*
X41401200Y-61378840D01*
X42501020Y-60888620D02*
X41401200Y-60888620D01*
X42501020Y-59621160D02*
X42501020Y-60111380D01*
X42501020Y-60111380D02*
X41401200Y-60111380D01*
X41401200Y-59621160D02*
X41401200Y-60111380D01*
X42501020Y-59621160D02*
X41401200Y-59621160D01*
X42501020Y-58351160D02*
X42501020Y-58841380D01*
X42501020Y-58841380D02*
X41401200Y-58841380D01*
X41401200Y-58351160D02*
X41401200Y-58841380D01*
X42501020Y-58351160D02*
X41401200Y-58351160D01*
X47598800Y-60888620D02*
X47598800Y-61378840D01*
X47598800Y-61378840D02*
X46498980Y-61378840D01*
X46498980Y-60888620D02*
X46498980Y-61378840D01*
X47598800Y-60888620D02*
X46498980Y-60888620D01*
X47598800Y-62158620D02*
X47598800Y-62648840D01*
X47598800Y-62648840D02*
X46498980Y-62648840D01*
X46498980Y-62158620D02*
X46498980Y-62648840D01*
X47598800Y-62158620D02*
X46498980Y-62158620D01*
X47598800Y-63428620D02*
X47598800Y-63918840D01*
X47598800Y-63918840D02*
X46498980Y-63918840D01*
X46498980Y-63428620D02*
X46498980Y-63918840D01*
X47598800Y-63428620D02*
X46498980Y-63428620D01*
X47598800Y-64698620D02*
X47598800Y-65188840D01*
X47598800Y-65188840D02*
X46498980Y-65188840D01*
X46498980Y-64698620D02*
X46498980Y-65188840D01*
X47598800Y-64698620D02*
X46498980Y-64698620D01*
X42501020Y-64698620D02*
X42501020Y-65188840D01*
X42501020Y-65188840D02*
X41401200Y-65188840D01*
X41401200Y-64698620D02*
X41401200Y-65188840D01*
X42501020Y-64698620D02*
X41401200Y-64698620D01*
X42501020Y-63428620D02*
X42501020Y-63918840D01*
X42501020Y-63918840D02*
X41401200Y-63918840D01*
X41401200Y-63428620D02*
X41401200Y-63918840D01*
X42501020Y-63428620D02*
X41401200Y-63428620D01*
X42501020Y-57081160D02*
X42501020Y-57571380D01*
X42501020Y-57571380D02*
X41401200Y-57571380D01*
X41401200Y-57081160D02*
X41401200Y-57571380D01*
X42501020Y-57081160D02*
X41401200Y-57081160D01*
X42501020Y-55811160D02*
X42501020Y-56301380D01*
X42501020Y-56301380D02*
X41401200Y-56301380D01*
X41401200Y-55811160D02*
X41401200Y-56301380D01*
X42501020Y-55811160D02*
X41401200Y-55811160D01*
D19*
X46399920Y-65437760D02*
X46399920Y-55562240D01*
X46399920Y-55562240D02*
X45899540Y-55562240D01*
X45899540Y-55562240D02*
X42600080Y-55562240D01*
X42600080Y-55562240D02*
X42600080Y-65437760D01*
X45649540Y-65437760D02*
X45649540Y-55562240D01*
X42600080Y-65437760D02*
X45899540Y-65437760D01*
X45899540Y-65437760D02*
X46399920Y-65437760D01*
D21*
X22641421Y-70200000D02*
G75*
G03X22641421Y-70200000I-141421J0D01*
G74*
G01*
D20*
X25098800Y-69811160D02*
X25098800Y-70301380D01*
X25098800Y-70301380D02*
X23998980Y-70301380D01*
X23998980Y-69811160D02*
X23998980Y-70301380D01*
X25098800Y-69811160D02*
X23998980Y-69811160D01*
X25098800Y-71081160D02*
X25098800Y-71571380D01*
X25098800Y-71571380D02*
X23998980Y-71571380D01*
X23998980Y-71081160D02*
X23998980Y-71571380D01*
X25098800Y-71081160D02*
X23998980Y-71081160D01*
X25098800Y-72351160D02*
X25098800Y-72841380D01*
X25098800Y-72841380D02*
X23998980Y-72841380D01*
X23998980Y-72351160D02*
X23998980Y-72841380D01*
X25098800Y-72351160D02*
X23998980Y-72351160D01*
X25098800Y-73621160D02*
X25098800Y-74111380D01*
X25098800Y-74111380D02*
X23998980Y-74111380D01*
X23998980Y-73621160D02*
X23998980Y-74111380D01*
X25098800Y-73621160D02*
X23998980Y-73621160D01*
X20001020Y-76158620D02*
X20001020Y-76648840D01*
X20001020Y-76648840D02*
X18901200Y-76648840D01*
X18901200Y-76158620D02*
X18901200Y-76648840D01*
X20001020Y-76158620D02*
X18901200Y-76158620D01*
X20001020Y-74888620D02*
X20001020Y-75378840D01*
X20001020Y-75378840D02*
X18901200Y-75378840D01*
X18901200Y-74888620D02*
X18901200Y-75378840D01*
X20001020Y-74888620D02*
X18901200Y-74888620D01*
X20001020Y-73621160D02*
X20001020Y-74111380D01*
X20001020Y-74111380D02*
X18901200Y-74111380D01*
X18901200Y-73621160D02*
X18901200Y-74111380D01*
X20001020Y-73621160D02*
X18901200Y-73621160D01*
X20001020Y-72351160D02*
X20001020Y-72841380D01*
X20001020Y-72841380D02*
X18901200Y-72841380D01*
X18901200Y-72351160D02*
X18901200Y-72841380D01*
X20001020Y-72351160D02*
X18901200Y-72351160D01*
X25098800Y-74888620D02*
X25098800Y-75378840D01*
X25098800Y-75378840D02*
X23998980Y-75378840D01*
X23998980Y-74888620D02*
X23998980Y-75378840D01*
X25098800Y-74888620D02*
X23998980Y-74888620D01*
X25098800Y-76158620D02*
X25098800Y-76648840D01*
X25098800Y-76648840D02*
X23998980Y-76648840D01*
X23998980Y-76158620D02*
X23998980Y-76648840D01*
X25098800Y-76158620D02*
X23998980Y-76158620D01*
X25098800Y-77428620D02*
X25098800Y-77918840D01*
X25098800Y-77918840D02*
X23998980Y-77918840D01*
X23998980Y-77428620D02*
X23998980Y-77918840D01*
X25098800Y-77428620D02*
X23998980Y-77428620D01*
X25098800Y-78698620D02*
X25098800Y-79188840D01*
X25098800Y-79188840D02*
X23998980Y-79188840D01*
X23998980Y-78698620D02*
X23998980Y-79188840D01*
X25098800Y-78698620D02*
X23998980Y-78698620D01*
X20001020Y-78698620D02*
X20001020Y-79188840D01*
X20001020Y-79188840D02*
X18901200Y-79188840D01*
X18901200Y-78698620D02*
X18901200Y-79188840D01*
X20001020Y-78698620D02*
X18901200Y-78698620D01*
X20001020Y-77428620D02*
X20001020Y-77918840D01*
X20001020Y-77918840D02*
X18901200Y-77918840D01*
X18901200Y-77428620D02*
X18901200Y-77918840D01*
X20001020Y-77428620D02*
X18901200Y-77428620D01*
X20001020Y-71081160D02*
X20001020Y-71571380D01*
X20001020Y-71571380D02*
X18901200Y-71571380D01*
X18901200Y-71081160D02*
X18901200Y-71571380D01*
X20001020Y-71081160D02*
X18901200Y-71081160D01*
X20001020Y-69811160D02*
X20001020Y-70301380D01*
X20001020Y-70301380D02*
X18901200Y-70301380D01*
X18901200Y-69811160D02*
X18901200Y-70301380D01*
X20001020Y-69811160D02*
X18901200Y-69811160D01*
D19*
X23899920Y-79437760D02*
X23899920Y-69562240D01*
X23899920Y-69562240D02*
X23399540Y-69562240D01*
X23399540Y-69562240D02*
X20100080Y-69562240D01*
X20100080Y-69562240D02*
X20100080Y-79437760D01*
X23149540Y-79437760D02*
X23149540Y-69562240D01*
X20100080Y-79437760D02*
X23399540Y-79437760D01*
X23399540Y-79437760D02*
X23899920Y-79437760D01*
D21*
X45141421Y-87200000D02*
G75*
G03X45141421Y-87200000I-141421J0D01*
G74*
G01*
D20*
X47598800Y-86811160D02*
X47598800Y-87301380D01*
X47598800Y-87301380D02*
X46498980Y-87301380D01*
X46498980Y-86811160D02*
X46498980Y-87301380D01*
X47598800Y-86811160D02*
X46498980Y-86811160D01*
X47598800Y-88081160D02*
X47598800Y-88571380D01*
X47598800Y-88571380D02*
X46498980Y-88571380D01*
X46498980Y-88081160D02*
X46498980Y-88571380D01*
X47598800Y-88081160D02*
X46498980Y-88081160D01*
X47598800Y-89351160D02*
X47598800Y-89841380D01*
X47598800Y-89841380D02*
X46498980Y-89841380D01*
X46498980Y-89351160D02*
X46498980Y-89841380D01*
X47598800Y-89351160D02*
X46498980Y-89351160D01*
X47598800Y-90621160D02*
X47598800Y-91111380D01*
X47598800Y-91111380D02*
X46498980Y-91111380D01*
X46498980Y-90621160D02*
X46498980Y-91111380D01*
X47598800Y-90621160D02*
X46498980Y-90621160D01*
X42501020Y-93158620D02*
X42501020Y-93648840D01*
X42501020Y-93648840D02*
X41401200Y-93648840D01*
X41401200Y-93158620D02*
X41401200Y-93648840D01*
X42501020Y-93158620D02*
X41401200Y-93158620D01*
X42501020Y-91888620D02*
X42501020Y-92378840D01*
X42501020Y-92378840D02*
X41401200Y-92378840D01*
X41401200Y-91888620D02*
X41401200Y-92378840D01*
X42501020Y-91888620D02*
X41401200Y-91888620D01*
X42501020Y-90621160D02*
X42501020Y-91111380D01*
X42501020Y-91111380D02*
X41401200Y-91111380D01*
X41401200Y-90621160D02*
X41401200Y-91111380D01*
X42501020Y-90621160D02*
X41401200Y-90621160D01*
X42501020Y-89351160D02*
X42501020Y-89841380D01*
X42501020Y-89841380D02*
X41401200Y-89841380D01*
X41401200Y-89351160D02*
X41401200Y-89841380D01*
X42501020Y-89351160D02*
X41401200Y-89351160D01*
X47598800Y-91888620D02*
X47598800Y-92378840D01*
X47598800Y-92378840D02*
X46498980Y-92378840D01*
X46498980Y-91888620D02*
X46498980Y-92378840D01*
X47598800Y-91888620D02*
X46498980Y-91888620D01*
X47598800Y-93158620D02*
X47598800Y-93648840D01*
X47598800Y-93648840D02*
X46498980Y-93648840D01*
X46498980Y-93158620D02*
X46498980Y-93648840D01*
X47598800Y-93158620D02*
X46498980Y-93158620D01*
X47598800Y-94428620D02*
X47598800Y-94918840D01*
X47598800Y-94918840D02*
X46498980Y-94918840D01*
X46498980Y-94428620D02*
X46498980Y-94918840D01*
X47598800Y-94428620D02*
X46498980Y-94428620D01*
X47598800Y-95698620D02*
X47598800Y-96188840D01*
X47598800Y-96188840D02*
X46498980Y-96188840D01*
X46498980Y-95698620D02*
X46498980Y-96188840D01*
X47598800Y-95698620D02*
X46498980Y-95698620D01*
X42501020Y-95698620D02*
X42501020Y-96188840D01*
X42501020Y-96188840D02*
X41401200Y-96188840D01*
X41401200Y-95698620D02*
X41401200Y-96188840D01*
X42501020Y-95698620D02*
X41401200Y-95698620D01*
X42501020Y-94428620D02*
X42501020Y-94918840D01*
X42501020Y-94918840D02*
X41401200Y-94918840D01*
X41401200Y-94428620D02*
X41401200Y-94918840D01*
X42501020Y-94428620D02*
X41401200Y-94428620D01*
X42501020Y-88081160D02*
X42501020Y-88571380D01*
X42501020Y-88571380D02*
X41401200Y-88571380D01*
X41401200Y-88081160D02*
X41401200Y-88571380D01*
X42501020Y-88081160D02*
X41401200Y-88081160D01*
X42501020Y-86811160D02*
X42501020Y-87301380D01*
X42501020Y-87301380D02*
X41401200Y-87301380D01*
X41401200Y-86811160D02*
X41401200Y-87301380D01*
X42501020Y-86811160D02*
X41401200Y-86811160D01*
D19*
X46399920Y-96437760D02*
X46399920Y-86562240D01*
X46399920Y-86562240D02*
X45899540Y-86562240D01*
X45899540Y-86562240D02*
X42600080Y-86562240D01*
X42600080Y-86562240D02*
X42600080Y-96437760D01*
X45649540Y-96437760D02*
X45649540Y-86562240D01*
X42600080Y-96437760D02*
X45899540Y-96437760D01*
X45899540Y-96437760D02*
X46399920Y-96437760D01*
D21*
X44141421Y-78800000D02*
G75*
G03X44141421Y-78800000I-141421J0D01*
G74*
G01*
D20*
X41401200Y-79188840D02*
X41401200Y-78698620D01*
X41401200Y-78698620D02*
X42501020Y-78698620D01*
X42501020Y-79188840D02*
X42501020Y-78698620D01*
X41401200Y-79188840D02*
X42501020Y-79188840D01*
X41401200Y-77918840D02*
X41401200Y-77428620D01*
X41401200Y-77428620D02*
X42501020Y-77428620D01*
X42501020Y-77918840D02*
X42501020Y-77428620D01*
X41401200Y-77918840D02*
X42501020Y-77918840D01*
X41401200Y-76648840D02*
X41401200Y-76158620D01*
X41401200Y-76158620D02*
X42501020Y-76158620D01*
X42501020Y-76648840D02*
X42501020Y-76158620D01*
X41401200Y-76648840D02*
X42501020Y-76648840D01*
X41401200Y-75378840D02*
X41401200Y-74888620D01*
X41401200Y-74888620D02*
X42501020Y-74888620D01*
X42501020Y-75378840D02*
X42501020Y-74888620D01*
X41401200Y-75378840D02*
X42501020Y-75378840D01*
X46498980Y-72841380D02*
X46498980Y-72351160D01*
X46498980Y-72351160D02*
X47598800Y-72351160D01*
X47598800Y-72841380D02*
X47598800Y-72351160D01*
X46498980Y-72841380D02*
X47598800Y-72841380D01*
X46498980Y-74111380D02*
X46498980Y-73621160D01*
X46498980Y-73621160D02*
X47598800Y-73621160D01*
X47598800Y-74111380D02*
X47598800Y-73621160D01*
X46498980Y-74111380D02*
X47598800Y-74111380D01*
X46498980Y-75378840D02*
X46498980Y-74888620D01*
X46498980Y-74888620D02*
X47598800Y-74888620D01*
X47598800Y-75378840D02*
X47598800Y-74888620D01*
X46498980Y-75378840D02*
X47598800Y-75378840D01*
X46498980Y-76648840D02*
X46498980Y-76158620D01*
X46498980Y-76158620D02*
X47598800Y-76158620D01*
X47598800Y-76648840D02*
X47598800Y-76158620D01*
X46498980Y-76648840D02*
X47598800Y-76648840D01*
X41401200Y-74111380D02*
X41401200Y-73621160D01*
X41401200Y-73621160D02*
X42501020Y-73621160D01*
X42501020Y-74111380D02*
X42501020Y-73621160D01*
X41401200Y-74111380D02*
X42501020Y-74111380D01*
X41401200Y-72841380D02*
X41401200Y-72351160D01*
X41401200Y-72351160D02*
X42501020Y-72351160D01*
X42501020Y-72841380D02*
X42501020Y-72351160D01*
X41401200Y-72841380D02*
X42501020Y-72841380D01*
X41401200Y-71571380D02*
X41401200Y-71081160D01*
X41401200Y-71081160D02*
X42501020Y-71081160D01*
X42501020Y-71571380D02*
X42501020Y-71081160D01*
X41401200Y-71571380D02*
X42501020Y-71571380D01*
X41401200Y-70301380D02*
X41401200Y-69811160D01*
X41401200Y-69811160D02*
X42501020Y-69811160D01*
X42501020Y-70301380D02*
X42501020Y-69811160D01*
X41401200Y-70301380D02*
X42501020Y-70301380D01*
X46498980Y-70301380D02*
X46498980Y-69811160D01*
X46498980Y-69811160D02*
X47598800Y-69811160D01*
X47598800Y-70301380D02*
X47598800Y-69811160D01*
X46498980Y-70301380D02*
X47598800Y-70301380D01*
X46498980Y-71571380D02*
X46498980Y-71081160D01*
X46498980Y-71081160D02*
X47598800Y-71081160D01*
X47598800Y-71571380D02*
X47598800Y-71081160D01*
X46498980Y-71571380D02*
X47598800Y-71571380D01*
X46498980Y-77918840D02*
X46498980Y-77428620D01*
X46498980Y-77428620D02*
X47598800Y-77428620D01*
X47598800Y-77918840D02*
X47598800Y-77428620D01*
X46498980Y-77918840D02*
X47598800Y-77918840D01*
X46498980Y-79188840D02*
X46498980Y-78698620D01*
X46498980Y-78698620D02*
X47598800Y-78698620D01*
X47598800Y-79188840D02*
X47598800Y-78698620D01*
X46498980Y-79188840D02*
X47598800Y-79188840D01*
D19*
X42600080Y-69562240D02*
X42600080Y-79437760D01*
X42600080Y-79437760D02*
X43100460Y-79437760D01*
X43100460Y-79437760D02*
X46399920Y-79437760D01*
X46399920Y-79437760D02*
X46399920Y-69562240D01*
X43350460Y-69562240D02*
X43350460Y-79437760D01*
X46399920Y-69562240D02*
X43100460Y-69562240D01*
X43100460Y-69562240D02*
X42600080Y-69562240D01*
D18*
X29288800Y-17738000D02*
X28272800Y-17738000D01*
X28272800Y-17738000D02*
X28272800Y-19262000D01*
X28272800Y-19262000D02*
X29288800Y-19262000D01*
X30711200Y-19262000D02*
X31727200Y-19262000D01*
X31727200Y-19262000D02*
X31727200Y-17738000D01*
X31727200Y-17738000D02*
X30711200Y-17738000D01*
X73211200Y-23762000D02*
X74227200Y-23762000D01*
X74227200Y-23762000D02*
X74227200Y-22238000D01*
X74227200Y-22238000D02*
X73211200Y-22238000D01*
X71788800Y-22238000D02*
X70772800Y-22238000D01*
X70772800Y-22238000D02*
X70772800Y-23762000D01*
X70772800Y-23762000D02*
X71788800Y-23762000D01*
X73211200Y-40762000D02*
X74227200Y-40762000D01*
X74227200Y-40762000D02*
X74227200Y-39238000D01*
X74227200Y-39238000D02*
X73211200Y-39238000D01*
X71788800Y-39238000D02*
X70772800Y-39238000D01*
X70772800Y-39238000D02*
X70772800Y-40762000D01*
X70772800Y-40762000D02*
X71788800Y-40762000D01*
D11*
X72250000Y-71750000D02*
G75*
G03X72250000Y-71750000I-6000000J0D01*
G74*
G01*
D17*
X37508000Y-82008000D02*
X37508000Y-80992000D01*
X36492000Y-82008000D02*
X36492000Y-80992000D01*
X36492000Y-80992000D02*
X37508000Y-81500000D01*
X37508000Y-81500000D02*
X36492000Y-82008000D01*
X36492000Y-82492000D02*
X36492000Y-83508000D01*
X37508000Y-82492000D02*
X37508000Y-83508000D01*
X37508000Y-83508000D02*
X36492000Y-83000000D01*
X36492000Y-83000000D02*
X37508000Y-82492000D01*
X67758000Y-28742000D02*
X66742000Y-28742000D01*
X67758000Y-29758000D02*
X66742000Y-29758000D01*
X66742000Y-29758000D02*
X67250000Y-28742000D01*
X67250000Y-28742000D02*
X67758000Y-29758000D01*
D14*
X38851599Y-47217714D02*
X38880628Y-47246743D01*
X38967714Y-47275771D01*
X39025771Y-47275771D01*
X39112856Y-47246743D01*
X39170914Y-47188686D01*
X39199942Y-47130629D01*
X39228971Y-47014514D01*
X39228971Y-46927429D01*
X39199942Y-46811314D01*
X39170914Y-46753257D01*
X39112856Y-46695200D01*
X39025771Y-46666171D01*
X38967714Y-46666171D01*
X38880628Y-46695200D01*
X38851599Y-46724229D01*
X38271028Y-47275771D02*
X38619371Y-47275771D01*
X38445199Y-47275771D02*
X38445199Y-46666171D01*
X38503256Y-46753257D01*
X38561314Y-46811314D01*
X38619371Y-46840343D01*
X20851599Y-50717714D02*
X20880628Y-50746743D01*
X20967714Y-50775771D01*
X21025771Y-50775771D01*
X21112856Y-50746743D01*
X21170914Y-50688686D01*
X21199942Y-50630629D01*
X21228971Y-50514514D01*
X21228971Y-50427429D01*
X21199942Y-50311314D01*
X21170914Y-50253257D01*
X21112856Y-50195200D01*
X21025771Y-50166171D01*
X20967714Y-50166171D01*
X20880628Y-50195200D01*
X20851599Y-50224229D01*
X20619371Y-50224229D02*
X20590342Y-50195200D01*
X20532285Y-50166171D01*
X20387142Y-50166171D01*
X20329085Y-50195200D01*
X20300056Y-50224229D01*
X20271028Y-50282286D01*
X20271028Y-50340343D01*
X20300056Y-50427429D01*
X20648399Y-50775771D01*
X20271028Y-50775771D01*
X53851599Y-41217714D02*
X53880628Y-41246743D01*
X53967714Y-41275771D01*
X54025771Y-41275771D01*
X54112856Y-41246743D01*
X54170914Y-41188686D01*
X54199942Y-41130629D01*
X54228971Y-41014514D01*
X54228971Y-40927429D01*
X54199942Y-40811314D01*
X54170914Y-40753257D01*
X54112856Y-40695200D01*
X54025771Y-40666171D01*
X53967714Y-40666171D01*
X53880628Y-40695200D01*
X53851599Y-40724229D01*
X53648399Y-40666171D02*
X53271028Y-40666171D01*
X53474228Y-40898400D01*
X53387142Y-40898400D01*
X53329085Y-40927429D01*
X53300056Y-40956457D01*
X53271028Y-41014514D01*
X53271028Y-41159657D01*
X53300056Y-41217714D01*
X53329085Y-41246743D01*
X53387142Y-41275771D01*
X53561314Y-41275771D01*
X53619371Y-41246743D01*
X53648399Y-41217714D01*
X50351599Y-45217714D02*
X50380628Y-45246743D01*
X50467714Y-45275771D01*
X50525771Y-45275771D01*
X50612856Y-45246743D01*
X50670914Y-45188686D01*
X50699942Y-45130629D01*
X50728971Y-45014514D01*
X50728971Y-44927429D01*
X50699942Y-44811314D01*
X50670914Y-44753257D01*
X50612856Y-44695200D01*
X50525771Y-44666171D01*
X50467714Y-44666171D01*
X50380628Y-44695200D01*
X50351599Y-44724229D01*
X49829085Y-44869371D02*
X49829085Y-45275771D01*
X49974228Y-44637143D02*
X50119371Y-45072571D01*
X49741999Y-45072571D01*
X37351599Y-21217714D02*
X37380628Y-21246743D01*
X37467714Y-21275771D01*
X37525771Y-21275771D01*
X37612856Y-21246743D01*
X37670914Y-21188686D01*
X37699942Y-21130629D01*
X37728971Y-21014514D01*
X37728971Y-20927429D01*
X37699942Y-20811314D01*
X37670914Y-20753257D01*
X37612856Y-20695200D01*
X37525771Y-20666171D01*
X37467714Y-20666171D01*
X37380628Y-20695200D01*
X37351599Y-20724229D01*
X36800056Y-20666171D02*
X37090342Y-20666171D01*
X37119371Y-20956457D01*
X37090342Y-20927429D01*
X37032285Y-20898400D01*
X36887142Y-20898400D01*
X36829085Y-20927429D01*
X36800056Y-20956457D01*
X36771028Y-21014514D01*
X36771028Y-21159657D01*
X36800056Y-21217714D01*
X36829085Y-21246743D01*
X36887142Y-21275771D01*
X37032285Y-21275771D01*
X37090342Y-21246743D01*
X37119371Y-21217714D01*
X33101599Y-85117714D02*
X33130628Y-85146743D01*
X33217714Y-85175771D01*
X33275771Y-85175771D01*
X33362856Y-85146743D01*
X33420914Y-85088686D01*
X33449942Y-85030629D01*
X33478971Y-84914514D01*
X33478971Y-84827429D01*
X33449942Y-84711314D01*
X33420914Y-84653257D01*
X33362856Y-84595200D01*
X33275771Y-84566171D01*
X33217714Y-84566171D01*
X33130628Y-84595200D01*
X33101599Y-84624229D01*
X32753256Y-84827429D02*
X32811314Y-84798400D01*
X32840342Y-84769371D01*
X32869371Y-84711314D01*
X32869371Y-84682286D01*
X32840342Y-84624229D01*
X32811314Y-84595200D01*
X32753256Y-84566171D01*
X32637142Y-84566171D01*
X32579085Y-84595200D01*
X32550056Y-84624229D01*
X32521028Y-84682286D01*
X32521028Y-84711314D01*
X32550056Y-84769371D01*
X32579085Y-84798400D01*
X32637142Y-84827429D01*
X32753256Y-84827429D01*
X32811314Y-84856457D01*
X32840342Y-84885486D01*
X32869371Y-84943543D01*
X32869371Y-85059657D01*
X32840342Y-85117714D01*
X32811314Y-85146743D01*
X32753256Y-85175771D01*
X32637142Y-85175771D01*
X32579085Y-85146743D01*
X32550056Y-85117714D01*
X32521028Y-85059657D01*
X32521028Y-84943543D01*
X32550056Y-84885486D01*
X32579085Y-84856457D01*
X32637142Y-84827429D01*
X35351599Y-79717714D02*
X35380628Y-79746743D01*
X35467714Y-79775771D01*
X35525771Y-79775771D01*
X35612856Y-79746743D01*
X35670914Y-79688686D01*
X35699942Y-79630629D01*
X35728971Y-79514514D01*
X35728971Y-79427429D01*
X35699942Y-79311314D01*
X35670914Y-79253257D01*
X35612856Y-79195200D01*
X35525771Y-79166171D01*
X35467714Y-79166171D01*
X35380628Y-79195200D01*
X35351599Y-79224229D01*
X35061314Y-79775771D02*
X34945199Y-79775771D01*
X34887142Y-79746743D01*
X34858114Y-79717714D01*
X34800056Y-79630629D01*
X34771028Y-79514514D01*
X34771028Y-79282286D01*
X34800056Y-79224229D01*
X34829085Y-79195200D01*
X34887142Y-79166171D01*
X35003256Y-79166171D01*
X35061314Y-79195200D01*
X35090342Y-79224229D01*
X35119371Y-79282286D01*
X35119371Y-79427429D01*
X35090342Y-79485486D01*
X35061314Y-79514514D01*
X35003256Y-79543543D01*
X34887142Y-79543543D01*
X34829085Y-79514514D01*
X34800056Y-79485486D01*
X34771028Y-79427429D01*
X59272514Y-77290286D02*
X59311219Y-77328990D01*
X59427333Y-77367695D01*
X59504743Y-77367695D01*
X59620857Y-77328990D01*
X59698266Y-77251581D01*
X59736971Y-77174171D01*
X59775676Y-77019352D01*
X59775676Y-76903238D01*
X59736971Y-76748419D01*
X59698266Y-76671010D01*
X59620857Y-76593600D01*
X59504743Y-76554895D01*
X59427333Y-76554895D01*
X59311219Y-76593600D01*
X59272514Y-76632305D01*
X58498419Y-77367695D02*
X58962876Y-77367695D01*
X58730647Y-77367695D02*
X58730647Y-76554895D01*
X58808057Y-76671010D01*
X58885466Y-76748419D01*
X58962876Y-76787124D01*
X57995257Y-76554895D02*
X57917848Y-76554895D01*
X57840438Y-76593600D01*
X57801733Y-76632305D01*
X57763029Y-76709714D01*
X57724324Y-76864533D01*
X57724324Y-77058057D01*
X57763029Y-77212876D01*
X57801733Y-77290286D01*
X57840438Y-77328990D01*
X57917848Y-77367695D01*
X57995257Y-77367695D01*
X58072667Y-77328990D01*
X58111371Y-77290286D01*
X58150076Y-77212876D01*
X58188781Y-77058057D01*
X58188781Y-76864533D01*
X58150076Y-76709714D01*
X58111371Y-76632305D01*
X58072667Y-76593600D01*
X57995257Y-76554895D01*
X51891885Y-85967714D02*
X51920914Y-85996743D01*
X52008000Y-86025771D01*
X52066057Y-86025771D01*
X52153142Y-85996743D01*
X52211200Y-85938686D01*
X52240228Y-85880629D01*
X52269257Y-85764514D01*
X52269257Y-85677429D01*
X52240228Y-85561314D01*
X52211200Y-85503257D01*
X52153142Y-85445200D01*
X52066057Y-85416171D01*
X52008000Y-85416171D01*
X51920914Y-85445200D01*
X51891885Y-85474229D01*
X51311314Y-86025771D02*
X51659657Y-86025771D01*
X51485485Y-86025771D02*
X51485485Y-85416171D01*
X51543542Y-85503257D01*
X51601600Y-85561314D01*
X51659657Y-85590343D01*
X50730743Y-86025771D02*
X51079086Y-86025771D01*
X50904914Y-86025771D02*
X50904914Y-85416171D01*
X50962971Y-85503257D01*
X51021029Y-85561314D01*
X51079086Y-85590343D01*
X59641885Y-34967714D02*
X59670914Y-34996743D01*
X59758000Y-35025771D01*
X59816057Y-35025771D01*
X59903142Y-34996743D01*
X59961200Y-34938686D01*
X59990228Y-34880629D01*
X60019257Y-34764514D01*
X60019257Y-34677429D01*
X59990228Y-34561314D01*
X59961200Y-34503257D01*
X59903142Y-34445200D01*
X59816057Y-34416171D01*
X59758000Y-34416171D01*
X59670914Y-34445200D01*
X59641885Y-34474229D01*
X59409657Y-34474229D02*
X59380628Y-34445200D01*
X59322571Y-34416171D01*
X59177428Y-34416171D01*
X59119371Y-34445200D01*
X59090342Y-34474229D01*
X59061314Y-34532286D01*
X59061314Y-34590343D01*
X59090342Y-34677429D01*
X59438685Y-35025771D01*
X59061314Y-35025771D01*
X58480743Y-35025771D02*
X58829086Y-35025771D01*
X58654914Y-35025771D02*
X58654914Y-34416171D01*
X58712971Y-34503257D01*
X58771029Y-34561314D01*
X58829086Y-34590343D01*
X69141885Y-30967714D02*
X69170914Y-30996743D01*
X69258000Y-31025771D01*
X69316057Y-31025771D01*
X69403142Y-30996743D01*
X69461200Y-30938686D01*
X69490228Y-30880629D01*
X69519257Y-30764514D01*
X69519257Y-30677429D01*
X69490228Y-30561314D01*
X69461200Y-30503257D01*
X69403142Y-30445200D01*
X69316057Y-30416171D01*
X69258000Y-30416171D01*
X69170914Y-30445200D01*
X69141885Y-30474229D01*
X68909657Y-30474229D02*
X68880628Y-30445200D01*
X68822571Y-30416171D01*
X68677428Y-30416171D01*
X68619371Y-30445200D01*
X68590342Y-30474229D01*
X68561314Y-30532286D01*
X68561314Y-30590343D01*
X68590342Y-30677429D01*
X68938685Y-31025771D01*
X68561314Y-31025771D01*
X68329086Y-30474229D02*
X68300057Y-30445200D01*
X68242000Y-30416171D01*
X68096857Y-30416171D01*
X68038800Y-30445200D01*
X68009771Y-30474229D01*
X67980743Y-30532286D01*
X67980743Y-30590343D01*
X68009771Y-30677429D01*
X68358114Y-31025771D01*
X67980743Y-31025771D01*
X73022514Y-47540286D02*
X73061219Y-47578990D01*
X73177333Y-47617695D01*
X73254743Y-47617695D01*
X73370857Y-47578990D01*
X73448266Y-47501581D01*
X73486971Y-47424171D01*
X73525676Y-47269352D01*
X73525676Y-47153238D01*
X73486971Y-46998419D01*
X73448266Y-46921010D01*
X73370857Y-46843600D01*
X73254743Y-46804895D01*
X73177333Y-46804895D01*
X73061219Y-46843600D01*
X73022514Y-46882305D01*
X72712876Y-46882305D02*
X72674171Y-46843600D01*
X72596762Y-46804895D01*
X72403238Y-46804895D01*
X72325828Y-46843600D01*
X72287124Y-46882305D01*
X72248419Y-46959714D01*
X72248419Y-47037124D01*
X72287124Y-47153238D01*
X72751581Y-47617695D01*
X72248419Y-47617695D01*
X71977486Y-46804895D02*
X71474324Y-46804895D01*
X71745257Y-47114533D01*
X71629143Y-47114533D01*
X71551733Y-47153238D01*
X71513029Y-47191943D01*
X71474324Y-47269352D01*
X71474324Y-47462876D01*
X71513029Y-47540286D01*
X71551733Y-47578990D01*
X71629143Y-47617695D01*
X71861371Y-47617695D01*
X71938781Y-47578990D01*
X71977486Y-47540286D01*
X73022514Y-15540286D02*
X73061219Y-15578990D01*
X73177333Y-15617695D01*
X73254743Y-15617695D01*
X73370857Y-15578990D01*
X73448266Y-15501581D01*
X73486971Y-15424171D01*
X73525676Y-15269352D01*
X73525676Y-15153238D01*
X73486971Y-14998419D01*
X73448266Y-14921010D01*
X73370857Y-14843600D01*
X73254743Y-14804895D01*
X73177333Y-14804895D01*
X73061219Y-14843600D01*
X73022514Y-14882305D01*
X72712876Y-14882305D02*
X72674171Y-14843600D01*
X72596762Y-14804895D01*
X72403238Y-14804895D01*
X72325828Y-14843600D01*
X72287124Y-14882305D01*
X72248419Y-14959714D01*
X72248419Y-15037124D01*
X72287124Y-15153238D01*
X72751581Y-15617695D01*
X72248419Y-15617695D01*
X71551733Y-15075829D02*
X71551733Y-15617695D01*
X71745257Y-14766190D02*
X71938781Y-15346762D01*
X71435619Y-15346762D01*
X52577410Y-64945105D02*
X52654819Y-64906400D01*
X52732229Y-64828990D01*
X52848343Y-64712876D01*
X52925752Y-64674171D01*
X53003162Y-64674171D01*
X52964457Y-64867695D02*
X53041867Y-64828990D01*
X53119276Y-64751581D01*
X53157981Y-64596762D01*
X53157981Y-64325829D01*
X53119276Y-64171010D01*
X53041867Y-64093600D01*
X52964457Y-64054895D01*
X52809638Y-64054895D01*
X52732229Y-64093600D01*
X52654819Y-64171010D01*
X52616114Y-64325829D01*
X52616114Y-64596762D01*
X52654819Y-64751581D01*
X52732229Y-64828990D01*
X52809638Y-64867695D01*
X52964457Y-64867695D01*
X52345181Y-64054895D02*
X51842019Y-64054895D01*
X52112952Y-64364533D01*
X51996838Y-64364533D01*
X51919428Y-64403238D01*
X51880724Y-64441943D01*
X51842019Y-64519352D01*
X51842019Y-64712876D01*
X51880724Y-64790286D01*
X51919428Y-64828990D01*
X51996838Y-64867695D01*
X52229066Y-64867695D01*
X52306476Y-64828990D01*
X52345181Y-64790286D01*
X39577410Y-64945105D02*
X39654819Y-64906400D01*
X39732229Y-64828990D01*
X39848343Y-64712876D01*
X39925752Y-64674171D01*
X40003162Y-64674171D01*
X39964457Y-64867695D02*
X40041867Y-64828990D01*
X40119276Y-64751581D01*
X40157981Y-64596762D01*
X40157981Y-64325829D01*
X40119276Y-64171010D01*
X40041867Y-64093600D01*
X39964457Y-64054895D01*
X39809638Y-64054895D01*
X39732229Y-64093600D01*
X39654819Y-64171010D01*
X39616114Y-64325829D01*
X39616114Y-64596762D01*
X39654819Y-64751581D01*
X39732229Y-64828990D01*
X39809638Y-64867695D01*
X39964457Y-64867695D01*
X38919428Y-64325829D02*
X38919428Y-64867695D01*
X39112952Y-64016190D02*
X39306476Y-64596762D01*
X38803314Y-64596762D01*
X39577410Y-94945105D02*
X39654819Y-94906400D01*
X39732229Y-94828990D01*
X39848343Y-94712876D01*
X39925752Y-94674171D01*
X40003162Y-94674171D01*
X39964457Y-94867695D02*
X40041867Y-94828990D01*
X40119276Y-94751581D01*
X40157981Y-94596762D01*
X40157981Y-94325829D01*
X40119276Y-94171010D01*
X40041867Y-94093600D01*
X39964457Y-94054895D01*
X39809638Y-94054895D01*
X39732229Y-94093600D01*
X39654819Y-94171010D01*
X39616114Y-94325829D01*
X39616114Y-94596762D01*
X39654819Y-94751581D01*
X39732229Y-94828990D01*
X39809638Y-94867695D01*
X39964457Y-94867695D01*
X38880724Y-94054895D02*
X39267771Y-94054895D01*
X39306476Y-94441943D01*
X39267771Y-94403238D01*
X39190362Y-94364533D01*
X38996838Y-94364533D01*
X38919428Y-94403238D01*
X38880724Y-94441943D01*
X38842019Y-94519352D01*
X38842019Y-94712876D01*
X38880724Y-94790286D01*
X38919428Y-94828990D01*
X38996838Y-94867695D01*
X39190362Y-94867695D01*
X39267771Y-94828990D01*
X39306476Y-94790286D01*
X52577410Y-94945105D02*
X52654819Y-94906400D01*
X52732229Y-94828990D01*
X52848343Y-94712876D01*
X52925752Y-94674171D01*
X53003162Y-94674171D01*
X52964457Y-94867695D02*
X53041867Y-94828990D01*
X53119276Y-94751581D01*
X53157981Y-94596762D01*
X53157981Y-94325829D01*
X53119276Y-94171010D01*
X53041867Y-94093600D01*
X52964457Y-94054895D01*
X52809638Y-94054895D01*
X52732229Y-94093600D01*
X52654819Y-94171010D01*
X52616114Y-94325829D01*
X52616114Y-94596762D01*
X52654819Y-94751581D01*
X52732229Y-94828990D01*
X52809638Y-94867695D01*
X52964457Y-94867695D01*
X51919428Y-94054895D02*
X52074247Y-94054895D01*
X52151657Y-94093600D01*
X52190362Y-94132305D01*
X52267771Y-94248419D01*
X52306476Y-94403238D01*
X52306476Y-94712876D01*
X52267771Y-94790286D01*
X52229066Y-94828990D01*
X52151657Y-94867695D01*
X51996838Y-94867695D01*
X51919428Y-94828990D01*
X51880724Y-94790286D01*
X51842019Y-94712876D01*
X51842019Y-94519352D01*
X51880724Y-94441943D01*
X51919428Y-94403238D01*
X51996838Y-94364533D01*
X52151657Y-94364533D01*
X52229066Y-94403238D01*
X52267771Y-94441943D01*
X52306476Y-94519352D01*
X27851599Y-33275771D02*
X28054799Y-32985486D01*
X28199942Y-33275771D02*
X28199942Y-32666171D01*
X27967714Y-32666171D01*
X27909656Y-32695200D01*
X27880628Y-32724229D01*
X27851599Y-32782286D01*
X27851599Y-32869371D01*
X27880628Y-32927429D01*
X27909656Y-32956457D01*
X27967714Y-32985486D01*
X28199942Y-32985486D01*
X27271028Y-33275771D02*
X27619371Y-33275771D01*
X27445199Y-33275771D02*
X27445199Y-32666171D01*
X27503256Y-32753257D01*
X27561314Y-32811314D01*
X27619371Y-32840343D01*
X24851599Y-31275771D02*
X25054799Y-30985486D01*
X25199942Y-31275771D02*
X25199942Y-30666171D01*
X24967714Y-30666171D01*
X24909656Y-30695200D01*
X24880628Y-30724229D01*
X24851599Y-30782286D01*
X24851599Y-30869371D01*
X24880628Y-30927429D01*
X24909656Y-30956457D01*
X24967714Y-30985486D01*
X25199942Y-30985486D01*
X24619371Y-30724229D02*
X24590342Y-30695200D01*
X24532285Y-30666171D01*
X24387142Y-30666171D01*
X24329085Y-30695200D01*
X24300056Y-30724229D01*
X24271028Y-30782286D01*
X24271028Y-30840343D01*
X24300056Y-30927429D01*
X24648399Y-31275771D01*
X24271028Y-31275771D01*
X24851599Y-29275771D02*
X25054799Y-28985486D01*
X25199942Y-29275771D02*
X25199942Y-28666171D01*
X24967714Y-28666171D01*
X24909656Y-28695200D01*
X24880628Y-28724229D01*
X24851599Y-28782286D01*
X24851599Y-28869371D01*
X24880628Y-28927429D01*
X24909656Y-28956457D01*
X24967714Y-28985486D01*
X25199942Y-28985486D01*
X24648399Y-28666171D02*
X24271028Y-28666171D01*
X24474228Y-28898400D01*
X24387142Y-28898400D01*
X24329085Y-28927429D01*
X24300056Y-28956457D01*
X24271028Y-29014514D01*
X24271028Y-29159657D01*
X24300056Y-29217714D01*
X24329085Y-29246743D01*
X24387142Y-29275771D01*
X24561314Y-29275771D01*
X24619371Y-29246743D01*
X24648399Y-29217714D01*
X24851599Y-27275771D02*
X25054799Y-26985486D01*
X25199942Y-27275771D02*
X25199942Y-26666171D01*
X24967714Y-26666171D01*
X24909656Y-26695200D01*
X24880628Y-26724229D01*
X24851599Y-26782286D01*
X24851599Y-26869371D01*
X24880628Y-26927429D01*
X24909656Y-26956457D01*
X24967714Y-26985486D01*
X25199942Y-26985486D01*
X24329085Y-26869371D02*
X24329085Y-27275771D01*
X24474228Y-26637143D02*
X24619371Y-27072571D01*
X24241999Y-27072571D01*
X16851599Y-27275771D02*
X17054799Y-26985486D01*
X17199942Y-27275771D02*
X17199942Y-26666171D01*
X16967714Y-26666171D01*
X16909656Y-26695200D01*
X16880628Y-26724229D01*
X16851599Y-26782286D01*
X16851599Y-26869371D01*
X16880628Y-26927429D01*
X16909656Y-26956457D01*
X16967714Y-26985486D01*
X17199942Y-26985486D01*
X16300056Y-26666171D02*
X16590342Y-26666171D01*
X16619371Y-26956457D01*
X16590342Y-26927429D01*
X16532285Y-26898400D01*
X16387142Y-26898400D01*
X16329085Y-26927429D01*
X16300056Y-26956457D01*
X16271028Y-27014514D01*
X16271028Y-27159657D01*
X16300056Y-27217714D01*
X16329085Y-27246743D01*
X16387142Y-27275771D01*
X16532285Y-27275771D01*
X16590342Y-27246743D01*
X16619371Y-27217714D01*
X16851599Y-24775771D02*
X17054799Y-24485486D01*
X17199942Y-24775771D02*
X17199942Y-24166171D01*
X16967714Y-24166171D01*
X16909656Y-24195200D01*
X16880628Y-24224229D01*
X16851599Y-24282286D01*
X16851599Y-24369371D01*
X16880628Y-24427429D01*
X16909656Y-24456457D01*
X16967714Y-24485486D01*
X17199942Y-24485486D01*
X16329085Y-24166171D02*
X16445199Y-24166171D01*
X16503256Y-24195200D01*
X16532285Y-24224229D01*
X16590342Y-24311314D01*
X16619371Y-24427429D01*
X16619371Y-24659657D01*
X16590342Y-24717714D01*
X16561314Y-24746743D01*
X16503256Y-24775771D01*
X16387142Y-24775771D01*
X16329085Y-24746743D01*
X16300056Y-24717714D01*
X16271028Y-24659657D01*
X16271028Y-24514514D01*
X16300056Y-24456457D01*
X16329085Y-24427429D01*
X16387142Y-24398400D01*
X16503256Y-24398400D01*
X16561314Y-24427429D01*
X16590342Y-24456457D01*
X16619371Y-24514514D01*
X38851599Y-39275771D02*
X39054799Y-38985486D01*
X39199942Y-39275771D02*
X39199942Y-38666171D01*
X38967714Y-38666171D01*
X38909656Y-38695200D01*
X38880628Y-38724229D01*
X38851599Y-38782286D01*
X38851599Y-38869371D01*
X38880628Y-38927429D01*
X38909656Y-38956457D01*
X38967714Y-38985486D01*
X39199942Y-38985486D01*
X38648399Y-38666171D02*
X38241999Y-38666171D01*
X38503256Y-39275771D01*
X38851599Y-49275771D02*
X39054799Y-48985486D01*
X39199942Y-49275771D02*
X39199942Y-48666171D01*
X38967714Y-48666171D01*
X38909656Y-48695200D01*
X38880628Y-48724229D01*
X38851599Y-48782286D01*
X38851599Y-48869371D01*
X38880628Y-48927429D01*
X38909656Y-48956457D01*
X38967714Y-48985486D01*
X39199942Y-48985486D01*
X38503256Y-48927429D02*
X38561314Y-48898400D01*
X38590342Y-48869371D01*
X38619371Y-48811314D01*
X38619371Y-48782286D01*
X38590342Y-48724229D01*
X38561314Y-48695200D01*
X38503256Y-48666171D01*
X38387142Y-48666171D01*
X38329085Y-48695200D01*
X38300056Y-48724229D01*
X38271028Y-48782286D01*
X38271028Y-48811314D01*
X38300056Y-48869371D01*
X38329085Y-48898400D01*
X38387142Y-48927429D01*
X38503256Y-48927429D01*
X38561314Y-48956457D01*
X38590342Y-48985486D01*
X38619371Y-49043543D01*
X38619371Y-49159657D01*
X38590342Y-49217714D01*
X38561314Y-49246743D01*
X38503256Y-49275771D01*
X38387142Y-49275771D01*
X38329085Y-49246743D01*
X38300056Y-49217714D01*
X38271028Y-49159657D01*
X38271028Y-49043543D01*
X38300056Y-48985486D01*
X38329085Y-48956457D01*
X38387142Y-48927429D01*
X30851599Y-43025771D02*
X31054799Y-42735486D01*
X31199942Y-43025771D02*
X31199942Y-42416171D01*
X30967714Y-42416171D01*
X30909656Y-42445200D01*
X30880628Y-42474229D01*
X30851599Y-42532286D01*
X30851599Y-42619371D01*
X30880628Y-42677429D01*
X30909656Y-42706457D01*
X30967714Y-42735486D01*
X31199942Y-42735486D01*
X30561314Y-43025771D02*
X30445199Y-43025771D01*
X30387142Y-42996743D01*
X30358114Y-42967714D01*
X30300056Y-42880629D01*
X30271028Y-42764514D01*
X30271028Y-42532286D01*
X30300056Y-42474229D01*
X30329085Y-42445200D01*
X30387142Y-42416171D01*
X30503256Y-42416171D01*
X30561314Y-42445200D01*
X30590342Y-42474229D01*
X30619371Y-42532286D01*
X30619371Y-42677429D01*
X30590342Y-42735486D01*
X30561314Y-42764514D01*
X30503256Y-42793543D01*
X30387142Y-42793543D01*
X30329085Y-42764514D01*
X30300056Y-42735486D01*
X30271028Y-42677429D01*
X20391885Y-33275771D02*
X20595085Y-32985486D01*
X20740228Y-33275771D02*
X20740228Y-32666171D01*
X20508000Y-32666171D01*
X20449942Y-32695200D01*
X20420914Y-32724229D01*
X20391885Y-32782286D01*
X20391885Y-32869371D01*
X20420914Y-32927429D01*
X20449942Y-32956457D01*
X20508000Y-32985486D01*
X20740228Y-32985486D01*
X19811314Y-33275771D02*
X20159657Y-33275771D01*
X19985485Y-33275771D02*
X19985485Y-32666171D01*
X20043542Y-32753257D01*
X20101600Y-32811314D01*
X20159657Y-32840343D01*
X19433943Y-32666171D02*
X19375886Y-32666171D01*
X19317829Y-32695200D01*
X19288800Y-32724229D01*
X19259771Y-32782286D01*
X19230743Y-32898400D01*
X19230743Y-33043543D01*
X19259771Y-33159657D01*
X19288800Y-33217714D01*
X19317829Y-33246743D01*
X19375886Y-33275771D01*
X19433943Y-33275771D01*
X19492000Y-33246743D01*
X19521029Y-33217714D01*
X19550057Y-33159657D01*
X19579086Y-33043543D01*
X19579086Y-32898400D01*
X19550057Y-32782286D01*
X19521029Y-32724229D01*
X19492000Y-32695200D01*
X19433943Y-32666171D01*
X22891885Y-42775771D02*
X23095085Y-42485486D01*
X23240228Y-42775771D02*
X23240228Y-42166171D01*
X23008000Y-42166171D01*
X22949942Y-42195200D01*
X22920914Y-42224229D01*
X22891885Y-42282286D01*
X22891885Y-42369371D01*
X22920914Y-42427429D01*
X22949942Y-42456457D01*
X23008000Y-42485486D01*
X23240228Y-42485486D01*
X22311314Y-42775771D02*
X22659657Y-42775771D01*
X22485485Y-42775771D02*
X22485485Y-42166171D01*
X22543542Y-42253257D01*
X22601600Y-42311314D01*
X22659657Y-42340343D01*
X21730743Y-42775771D02*
X22079086Y-42775771D01*
X21904914Y-42775771D02*
X21904914Y-42166171D01*
X21962971Y-42253257D01*
X22021029Y-42311314D01*
X22079086Y-42340343D01*
X28891885Y-39275771D02*
X29095085Y-38985486D01*
X29240228Y-39275771D02*
X29240228Y-38666171D01*
X29008000Y-38666171D01*
X28949942Y-38695200D01*
X28920914Y-38724229D01*
X28891885Y-38782286D01*
X28891885Y-38869371D01*
X28920914Y-38927429D01*
X28949942Y-38956457D01*
X29008000Y-38985486D01*
X29240228Y-38985486D01*
X28311314Y-39275771D02*
X28659657Y-39275771D01*
X28485485Y-39275771D02*
X28485485Y-38666171D01*
X28543542Y-38753257D01*
X28601600Y-38811314D01*
X28659657Y-38840343D01*
X28079086Y-38724229D02*
X28050057Y-38695200D01*
X27992000Y-38666171D01*
X27846857Y-38666171D01*
X27788800Y-38695200D01*
X27759771Y-38724229D01*
X27730743Y-38782286D01*
X27730743Y-38840343D01*
X27759771Y-38927429D01*
X28108114Y-39275771D01*
X27730743Y-39275771D01*
X25391885Y-24775771D02*
X25595085Y-24485486D01*
X25740228Y-24775771D02*
X25740228Y-24166171D01*
X25508000Y-24166171D01*
X25449942Y-24195200D01*
X25420914Y-24224229D01*
X25391885Y-24282286D01*
X25391885Y-24369371D01*
X25420914Y-24427429D01*
X25449942Y-24456457D01*
X25508000Y-24485486D01*
X25740228Y-24485486D01*
X24811314Y-24775771D02*
X25159657Y-24775771D01*
X24985485Y-24775771D02*
X24985485Y-24166171D01*
X25043542Y-24253257D01*
X25101600Y-24311314D01*
X25159657Y-24340343D01*
X24608114Y-24166171D02*
X24230743Y-24166171D01*
X24433943Y-24398400D01*
X24346857Y-24398400D01*
X24288800Y-24427429D01*
X24259771Y-24456457D01*
X24230743Y-24514514D01*
X24230743Y-24659657D01*
X24259771Y-24717714D01*
X24288800Y-24746743D01*
X24346857Y-24775771D01*
X24521029Y-24775771D01*
X24579086Y-24746743D01*
X24608114Y-24717714D01*
X38891885Y-45275771D02*
X39095085Y-44985486D01*
X39240228Y-45275771D02*
X39240228Y-44666171D01*
X39008000Y-44666171D01*
X38949942Y-44695200D01*
X38920914Y-44724229D01*
X38891885Y-44782286D01*
X38891885Y-44869371D01*
X38920914Y-44927429D01*
X38949942Y-44956457D01*
X39008000Y-44985486D01*
X39240228Y-44985486D01*
X38311314Y-45275771D02*
X38659657Y-45275771D01*
X38485485Y-45275771D02*
X38485485Y-44666171D01*
X38543542Y-44753257D01*
X38601600Y-44811314D01*
X38659657Y-44840343D01*
X37788800Y-44869371D02*
X37788800Y-45275771D01*
X37933943Y-44637143D02*
X38079086Y-45072571D01*
X37701714Y-45072571D01*
X22891885Y-40775771D02*
X23095085Y-40485486D01*
X23240228Y-40775771D02*
X23240228Y-40166171D01*
X23008000Y-40166171D01*
X22949942Y-40195200D01*
X22920914Y-40224229D01*
X22891885Y-40282286D01*
X22891885Y-40369371D01*
X22920914Y-40427429D01*
X22949942Y-40456457D01*
X23008000Y-40485486D01*
X23240228Y-40485486D01*
X22311314Y-40775771D02*
X22659657Y-40775771D01*
X22485485Y-40775771D02*
X22485485Y-40166171D01*
X22543542Y-40253257D01*
X22601600Y-40311314D01*
X22659657Y-40340343D01*
X21759771Y-40166171D02*
X22050057Y-40166171D01*
X22079086Y-40456457D01*
X22050057Y-40427429D01*
X21992000Y-40398400D01*
X21846857Y-40398400D01*
X21788800Y-40427429D01*
X21759771Y-40456457D01*
X21730743Y-40514514D01*
X21730743Y-40659657D01*
X21759771Y-40717714D01*
X21788800Y-40746743D01*
X21846857Y-40775771D01*
X21992000Y-40775771D01*
X22050057Y-40746743D01*
X22079086Y-40717714D01*
X23891885Y-22775771D02*
X24095085Y-22485486D01*
X24240228Y-22775771D02*
X24240228Y-22166171D01*
X24008000Y-22166171D01*
X23949942Y-22195200D01*
X23920914Y-22224229D01*
X23891885Y-22282286D01*
X23891885Y-22369371D01*
X23920914Y-22427429D01*
X23949942Y-22456457D01*
X24008000Y-22485486D01*
X24240228Y-22485486D01*
X23311314Y-22775771D02*
X23659657Y-22775771D01*
X23485485Y-22775771D02*
X23485485Y-22166171D01*
X23543542Y-22253257D01*
X23601600Y-22311314D01*
X23659657Y-22340343D01*
X22788800Y-22166171D02*
X22904914Y-22166171D01*
X22962971Y-22195200D01*
X22992000Y-22224229D01*
X23050057Y-22311314D01*
X23079086Y-22427429D01*
X23079086Y-22659657D01*
X23050057Y-22717714D01*
X23021029Y-22746743D01*
X22962971Y-22775771D01*
X22846857Y-22775771D01*
X22788800Y-22746743D01*
X22759771Y-22717714D01*
X22730743Y-22659657D01*
X22730743Y-22514514D01*
X22759771Y-22456457D01*
X22788800Y-22427429D01*
X22846857Y-22398400D01*
X22962971Y-22398400D01*
X23021029Y-22427429D01*
X23050057Y-22456457D01*
X23079086Y-22514514D01*
X28891885Y-21025771D02*
X29095085Y-20735486D01*
X29240228Y-21025771D02*
X29240228Y-20416171D01*
X29008000Y-20416171D01*
X28949942Y-20445200D01*
X28920914Y-20474229D01*
X28891885Y-20532286D01*
X28891885Y-20619371D01*
X28920914Y-20677429D01*
X28949942Y-20706457D01*
X29008000Y-20735486D01*
X29240228Y-20735486D01*
X28311314Y-21025771D02*
X28659657Y-21025771D01*
X28485485Y-21025771D02*
X28485485Y-20416171D01*
X28543542Y-20503257D01*
X28601600Y-20561314D01*
X28659657Y-20590343D01*
X28108114Y-20416171D02*
X27701714Y-20416171D01*
X27962971Y-21025771D01*
X44891885Y-48775771D02*
X45095085Y-48485486D01*
X45240228Y-48775771D02*
X45240228Y-48166171D01*
X45008000Y-48166171D01*
X44949942Y-48195200D01*
X44920914Y-48224229D01*
X44891885Y-48282286D01*
X44891885Y-48369371D01*
X44920914Y-48427429D01*
X44949942Y-48456457D01*
X45008000Y-48485486D01*
X45240228Y-48485486D01*
X44311314Y-48775771D02*
X44659657Y-48775771D01*
X44485485Y-48775771D02*
X44485485Y-48166171D01*
X44543542Y-48253257D01*
X44601600Y-48311314D01*
X44659657Y-48340343D01*
X43962971Y-48427429D02*
X44021029Y-48398400D01*
X44050057Y-48369371D01*
X44079086Y-48311314D01*
X44079086Y-48282286D01*
X44050057Y-48224229D01*
X44021029Y-48195200D01*
X43962971Y-48166171D01*
X43846857Y-48166171D01*
X43788800Y-48195200D01*
X43759771Y-48224229D01*
X43730743Y-48282286D01*
X43730743Y-48311314D01*
X43759771Y-48369371D01*
X43788800Y-48398400D01*
X43846857Y-48427429D01*
X43962971Y-48427429D01*
X44021029Y-48456457D01*
X44050057Y-48485486D01*
X44079086Y-48543543D01*
X44079086Y-48659657D01*
X44050057Y-48717714D01*
X44021029Y-48746743D01*
X43962971Y-48775771D01*
X43846857Y-48775771D01*
X43788800Y-48746743D01*
X43759771Y-48717714D01*
X43730743Y-48659657D01*
X43730743Y-48543543D01*
X43759771Y-48485486D01*
X43788800Y-48456457D01*
X43846857Y-48427429D01*
X20891885Y-52775771D02*
X21095085Y-52485486D01*
X21240228Y-52775771D02*
X21240228Y-52166171D01*
X21008000Y-52166171D01*
X20949942Y-52195200D01*
X20920914Y-52224229D01*
X20891885Y-52282286D01*
X20891885Y-52369371D01*
X20920914Y-52427429D01*
X20949942Y-52456457D01*
X21008000Y-52485486D01*
X21240228Y-52485486D01*
X20659657Y-52224229D02*
X20630628Y-52195200D01*
X20572571Y-52166171D01*
X20427428Y-52166171D01*
X20369371Y-52195200D01*
X20340342Y-52224229D01*
X20311314Y-52282286D01*
X20311314Y-52340343D01*
X20340342Y-52427429D01*
X20688685Y-52775771D01*
X20311314Y-52775771D01*
X19933943Y-52166171D02*
X19875886Y-52166171D01*
X19817829Y-52195200D01*
X19788800Y-52224229D01*
X19759771Y-52282286D01*
X19730743Y-52398400D01*
X19730743Y-52543543D01*
X19759771Y-52659657D01*
X19788800Y-52717714D01*
X19817829Y-52746743D01*
X19875886Y-52775771D01*
X19933943Y-52775771D01*
X19992000Y-52746743D01*
X20021029Y-52717714D01*
X20050057Y-52659657D01*
X20079086Y-52543543D01*
X20079086Y-52398400D01*
X20050057Y-52282286D01*
X20021029Y-52224229D01*
X19992000Y-52195200D01*
X19933943Y-52166171D01*
X20891885Y-48525771D02*
X21095085Y-48235486D01*
X21240228Y-48525771D02*
X21240228Y-47916171D01*
X21008000Y-47916171D01*
X20949942Y-47945200D01*
X20920914Y-47974229D01*
X20891885Y-48032286D01*
X20891885Y-48119371D01*
X20920914Y-48177429D01*
X20949942Y-48206457D01*
X21008000Y-48235486D01*
X21240228Y-48235486D01*
X20659657Y-47974229D02*
X20630628Y-47945200D01*
X20572571Y-47916171D01*
X20427428Y-47916171D01*
X20369371Y-47945200D01*
X20340342Y-47974229D01*
X20311314Y-48032286D01*
X20311314Y-48090343D01*
X20340342Y-48177429D01*
X20688685Y-48525771D01*
X20311314Y-48525771D01*
X19730743Y-48525771D02*
X20079086Y-48525771D01*
X19904914Y-48525771D02*
X19904914Y-47916171D01*
X19962971Y-48003257D01*
X20021029Y-48061314D01*
X20079086Y-48090343D01*
X50891885Y-47275771D02*
X51095085Y-46985486D01*
X51240228Y-47275771D02*
X51240228Y-46666171D01*
X51008000Y-46666171D01*
X50949942Y-46695200D01*
X50920914Y-46724229D01*
X50891885Y-46782286D01*
X50891885Y-46869371D01*
X50920914Y-46927429D01*
X50949942Y-46956457D01*
X51008000Y-46985486D01*
X51240228Y-46985486D01*
X50659657Y-46724229D02*
X50630628Y-46695200D01*
X50572571Y-46666171D01*
X50427428Y-46666171D01*
X50369371Y-46695200D01*
X50340342Y-46724229D01*
X50311314Y-46782286D01*
X50311314Y-46840343D01*
X50340342Y-46927429D01*
X50688685Y-47275771D01*
X50311314Y-47275771D01*
X50079086Y-46724229D02*
X50050057Y-46695200D01*
X49992000Y-46666171D01*
X49846857Y-46666171D01*
X49788800Y-46695200D01*
X49759771Y-46724229D01*
X49730743Y-46782286D01*
X49730743Y-46840343D01*
X49759771Y-46927429D01*
X50108114Y-47275771D01*
X49730743Y-47275771D01*
X23891885Y-18775771D02*
X24095085Y-18485486D01*
X24240228Y-18775771D02*
X24240228Y-18166171D01*
X24008000Y-18166171D01*
X23949942Y-18195200D01*
X23920914Y-18224229D01*
X23891885Y-18282286D01*
X23891885Y-18369371D01*
X23920914Y-18427429D01*
X23949942Y-18456457D01*
X24008000Y-18485486D01*
X24240228Y-18485486D01*
X23659657Y-18224229D02*
X23630628Y-18195200D01*
X23572571Y-18166171D01*
X23427428Y-18166171D01*
X23369371Y-18195200D01*
X23340342Y-18224229D01*
X23311314Y-18282286D01*
X23311314Y-18340343D01*
X23340342Y-18427429D01*
X23688685Y-18775771D01*
X23311314Y-18775771D01*
X23108114Y-18166171D02*
X22730743Y-18166171D01*
X22933943Y-18398400D01*
X22846857Y-18398400D01*
X22788800Y-18427429D01*
X22759771Y-18456457D01*
X22730743Y-18514514D01*
X22730743Y-18659657D01*
X22759771Y-18717714D01*
X22788800Y-18746743D01*
X22846857Y-18775771D01*
X23021029Y-18775771D01*
X23079086Y-18746743D01*
X23108114Y-18717714D01*
X54391885Y-39275771D02*
X54595085Y-38985486D01*
X54740228Y-39275771D02*
X54740228Y-38666171D01*
X54508000Y-38666171D01*
X54449942Y-38695200D01*
X54420914Y-38724229D01*
X54391885Y-38782286D01*
X54391885Y-38869371D01*
X54420914Y-38927429D01*
X54449942Y-38956457D01*
X54508000Y-38985486D01*
X54740228Y-38985486D01*
X54159657Y-38724229D02*
X54130628Y-38695200D01*
X54072571Y-38666171D01*
X53927428Y-38666171D01*
X53869371Y-38695200D01*
X53840342Y-38724229D01*
X53811314Y-38782286D01*
X53811314Y-38840343D01*
X53840342Y-38927429D01*
X54188685Y-39275771D01*
X53811314Y-39275771D01*
X53288800Y-38869371D02*
X53288800Y-39275771D01*
X53433943Y-38637143D02*
X53579086Y-39072571D01*
X53201714Y-39072571D01*
X26391885Y-15375771D02*
X26595085Y-15085486D01*
X26740228Y-15375771D02*
X26740228Y-14766171D01*
X26508000Y-14766171D01*
X26449942Y-14795200D01*
X26420914Y-14824229D01*
X26391885Y-14882286D01*
X26391885Y-14969371D01*
X26420914Y-15027429D01*
X26449942Y-15056457D01*
X26508000Y-15085486D01*
X26740228Y-15085486D01*
X26159657Y-14824229D02*
X26130628Y-14795200D01*
X26072571Y-14766171D01*
X25927428Y-14766171D01*
X25869371Y-14795200D01*
X25840342Y-14824229D01*
X25811314Y-14882286D01*
X25811314Y-14940343D01*
X25840342Y-15027429D01*
X26188685Y-15375771D01*
X25811314Y-15375771D01*
X25259771Y-14766171D02*
X25550057Y-14766171D01*
X25579086Y-15056457D01*
X25550057Y-15027429D01*
X25492000Y-14998400D01*
X25346857Y-14998400D01*
X25288800Y-15027429D01*
X25259771Y-15056457D01*
X25230743Y-15114514D01*
X25230743Y-15259657D01*
X25259771Y-15317714D01*
X25288800Y-15346743D01*
X25346857Y-15375771D01*
X25492000Y-15375771D01*
X25550057Y-15346743D01*
X25579086Y-15317714D01*
X54391885Y-43275771D02*
X54595085Y-42985486D01*
X54740228Y-43275771D02*
X54740228Y-42666171D01*
X54508000Y-42666171D01*
X54449942Y-42695200D01*
X54420914Y-42724229D01*
X54391885Y-42782286D01*
X54391885Y-42869371D01*
X54420914Y-42927429D01*
X54449942Y-42956457D01*
X54508000Y-42985486D01*
X54740228Y-42985486D01*
X54159657Y-42724229D02*
X54130628Y-42695200D01*
X54072571Y-42666171D01*
X53927428Y-42666171D01*
X53869371Y-42695200D01*
X53840342Y-42724229D01*
X53811314Y-42782286D01*
X53811314Y-42840343D01*
X53840342Y-42927429D01*
X54188685Y-43275771D01*
X53811314Y-43275771D01*
X53288800Y-42666171D02*
X53404914Y-42666171D01*
X53462971Y-42695200D01*
X53492000Y-42724229D01*
X53550057Y-42811314D01*
X53579086Y-42927429D01*
X53579086Y-43159657D01*
X53550057Y-43217714D01*
X53521029Y-43246743D01*
X53462971Y-43275771D01*
X53346857Y-43275771D01*
X53288800Y-43246743D01*
X53259771Y-43217714D01*
X53230743Y-43159657D01*
X53230743Y-43014514D01*
X53259771Y-42956457D01*
X53288800Y-42927429D01*
X53346857Y-42898400D01*
X53462971Y-42898400D01*
X53521029Y-42927429D01*
X53550057Y-42956457D01*
X53579086Y-43014514D01*
X37891885Y-19275771D02*
X38095085Y-18985486D01*
X38240228Y-19275771D02*
X38240228Y-18666171D01*
X38008000Y-18666171D01*
X37949942Y-18695200D01*
X37920914Y-18724229D01*
X37891885Y-18782286D01*
X37891885Y-18869371D01*
X37920914Y-18927429D01*
X37949942Y-18956457D01*
X38008000Y-18985486D01*
X38240228Y-18985486D01*
X37659657Y-18724229D02*
X37630628Y-18695200D01*
X37572571Y-18666171D01*
X37427428Y-18666171D01*
X37369371Y-18695200D01*
X37340342Y-18724229D01*
X37311314Y-18782286D01*
X37311314Y-18840343D01*
X37340342Y-18927429D01*
X37688685Y-19275771D01*
X37311314Y-19275771D01*
X37108114Y-18666171D02*
X36701714Y-18666171D01*
X36962971Y-19275771D01*
X37891885Y-23275771D02*
X38095085Y-22985486D01*
X38240228Y-23275771D02*
X38240228Y-22666171D01*
X38008000Y-22666171D01*
X37949942Y-22695200D01*
X37920914Y-22724229D01*
X37891885Y-22782286D01*
X37891885Y-22869371D01*
X37920914Y-22927429D01*
X37949942Y-22956457D01*
X38008000Y-22985486D01*
X38240228Y-22985486D01*
X37659657Y-22724229D02*
X37630628Y-22695200D01*
X37572571Y-22666171D01*
X37427428Y-22666171D01*
X37369371Y-22695200D01*
X37340342Y-22724229D01*
X37311314Y-22782286D01*
X37311314Y-22840343D01*
X37340342Y-22927429D01*
X37688685Y-23275771D01*
X37311314Y-23275771D01*
X36962971Y-22927429D02*
X37021029Y-22898400D01*
X37050057Y-22869371D01*
X37079086Y-22811314D01*
X37079086Y-22782286D01*
X37050057Y-22724229D01*
X37021029Y-22695200D01*
X36962971Y-22666171D01*
X36846857Y-22666171D01*
X36788800Y-22695200D01*
X36759771Y-22724229D01*
X36730743Y-22782286D01*
X36730743Y-22811314D01*
X36759771Y-22869371D01*
X36788800Y-22898400D01*
X36846857Y-22927429D01*
X36962971Y-22927429D01*
X37021029Y-22956457D01*
X37050057Y-22985486D01*
X37079086Y-23043543D01*
X37079086Y-23159657D01*
X37050057Y-23217714D01*
X37021029Y-23246743D01*
X36962971Y-23275771D01*
X36846857Y-23275771D01*
X36788800Y-23246743D01*
X36759771Y-23217714D01*
X36730743Y-23159657D01*
X36730743Y-23043543D01*
X36759771Y-22985486D01*
X36788800Y-22956457D01*
X36846857Y-22927429D01*
X51891885Y-54275771D02*
X52095085Y-53985486D01*
X52240228Y-54275771D02*
X52240228Y-53666171D01*
X52008000Y-53666171D01*
X51949942Y-53695200D01*
X51920914Y-53724229D01*
X51891885Y-53782286D01*
X51891885Y-53869371D01*
X51920914Y-53927429D01*
X51949942Y-53956457D01*
X52008000Y-53985486D01*
X52240228Y-53985486D01*
X51659657Y-53724229D02*
X51630628Y-53695200D01*
X51572571Y-53666171D01*
X51427428Y-53666171D01*
X51369371Y-53695200D01*
X51340342Y-53724229D01*
X51311314Y-53782286D01*
X51311314Y-53840343D01*
X51340342Y-53927429D01*
X51688685Y-54275771D01*
X51311314Y-54275771D01*
X51021029Y-54275771D02*
X50904914Y-54275771D01*
X50846857Y-54246743D01*
X50817829Y-54217714D01*
X50759771Y-54130629D01*
X50730743Y-54014514D01*
X50730743Y-53782286D01*
X50759771Y-53724229D01*
X50788800Y-53695200D01*
X50846857Y-53666171D01*
X50962971Y-53666171D01*
X51021029Y-53695200D01*
X51050057Y-53724229D01*
X51079086Y-53782286D01*
X51079086Y-53927429D01*
X51050057Y-53985486D01*
X51021029Y-54014514D01*
X50962971Y-54043543D01*
X50846857Y-54043543D01*
X50788800Y-54014514D01*
X50759771Y-53985486D01*
X50730743Y-53927429D01*
X54391885Y-58275771D02*
X54595085Y-57985486D01*
X54740228Y-58275771D02*
X54740228Y-57666171D01*
X54508000Y-57666171D01*
X54449942Y-57695200D01*
X54420914Y-57724229D01*
X54391885Y-57782286D01*
X54391885Y-57869371D01*
X54420914Y-57927429D01*
X54449942Y-57956457D01*
X54508000Y-57985486D01*
X54740228Y-57985486D01*
X54188685Y-57666171D02*
X53811314Y-57666171D01*
X54014514Y-57898400D01*
X53927428Y-57898400D01*
X53869371Y-57927429D01*
X53840342Y-57956457D01*
X53811314Y-58014514D01*
X53811314Y-58159657D01*
X53840342Y-58217714D01*
X53869371Y-58246743D01*
X53927428Y-58275771D01*
X54101600Y-58275771D01*
X54159657Y-58246743D01*
X54188685Y-58217714D01*
X53433943Y-57666171D02*
X53375886Y-57666171D01*
X53317829Y-57695200D01*
X53288800Y-57724229D01*
X53259771Y-57782286D01*
X53230743Y-57898400D01*
X53230743Y-58043543D01*
X53259771Y-58159657D01*
X53288800Y-58217714D01*
X53317829Y-58246743D01*
X53375886Y-58275771D01*
X53433943Y-58275771D01*
X53492000Y-58246743D01*
X53521029Y-58217714D01*
X53550057Y-58159657D01*
X53579086Y-58043543D01*
X53579086Y-57898400D01*
X53550057Y-57782286D01*
X53521029Y-57724229D01*
X53492000Y-57695200D01*
X53433943Y-57666171D01*
X23891885Y-66775771D02*
X24095085Y-66485486D01*
X24240228Y-66775771D02*
X24240228Y-66166171D01*
X24008000Y-66166171D01*
X23949942Y-66195200D01*
X23920914Y-66224229D01*
X23891885Y-66282286D01*
X23891885Y-66369371D01*
X23920914Y-66427429D01*
X23949942Y-66456457D01*
X24008000Y-66485486D01*
X24240228Y-66485486D01*
X23688685Y-66166171D02*
X23311314Y-66166171D01*
X23514514Y-66398400D01*
X23427428Y-66398400D01*
X23369371Y-66427429D01*
X23340342Y-66456457D01*
X23311314Y-66514514D01*
X23311314Y-66659657D01*
X23340342Y-66717714D01*
X23369371Y-66746743D01*
X23427428Y-66775771D01*
X23601600Y-66775771D01*
X23659657Y-66746743D01*
X23688685Y-66717714D01*
X22730743Y-66775771D02*
X23079086Y-66775771D01*
X22904914Y-66775771D02*
X22904914Y-66166171D01*
X22962971Y-66253257D01*
X23021029Y-66311314D01*
X23079086Y-66340343D01*
X46891885Y-52775771D02*
X47095085Y-52485486D01*
X47240228Y-52775771D02*
X47240228Y-52166171D01*
X47008000Y-52166171D01*
X46949942Y-52195200D01*
X46920914Y-52224229D01*
X46891885Y-52282286D01*
X46891885Y-52369371D01*
X46920914Y-52427429D01*
X46949942Y-52456457D01*
X47008000Y-52485486D01*
X47240228Y-52485486D01*
X46688685Y-52166171D02*
X46311314Y-52166171D01*
X46514514Y-52398400D01*
X46427428Y-52398400D01*
X46369371Y-52427429D01*
X46340342Y-52456457D01*
X46311314Y-52514514D01*
X46311314Y-52659657D01*
X46340342Y-52717714D01*
X46369371Y-52746743D01*
X46427428Y-52775771D01*
X46601600Y-52775771D01*
X46659657Y-52746743D01*
X46688685Y-52717714D01*
X46079086Y-52224229D02*
X46050057Y-52195200D01*
X45992000Y-52166171D01*
X45846857Y-52166171D01*
X45788800Y-52195200D01*
X45759771Y-52224229D01*
X45730743Y-52282286D01*
X45730743Y-52340343D01*
X45759771Y-52427429D01*
X46108114Y-52775771D01*
X45730743Y-52775771D01*
X34891885Y-58275771D02*
X35095085Y-57985486D01*
X35240228Y-58275771D02*
X35240228Y-57666171D01*
X35008000Y-57666171D01*
X34949942Y-57695200D01*
X34920914Y-57724229D01*
X34891885Y-57782286D01*
X34891885Y-57869371D01*
X34920914Y-57927429D01*
X34949942Y-57956457D01*
X35008000Y-57985486D01*
X35240228Y-57985486D01*
X34688685Y-57666171D02*
X34311314Y-57666171D01*
X34514514Y-57898400D01*
X34427428Y-57898400D01*
X34369371Y-57927429D01*
X34340342Y-57956457D01*
X34311314Y-58014514D01*
X34311314Y-58159657D01*
X34340342Y-58217714D01*
X34369371Y-58246743D01*
X34427428Y-58275771D01*
X34601600Y-58275771D01*
X34659657Y-58246743D01*
X34688685Y-58217714D01*
X34108114Y-57666171D02*
X33730743Y-57666171D01*
X33933943Y-57898400D01*
X33846857Y-57898400D01*
X33788800Y-57927429D01*
X33759771Y-57956457D01*
X33730743Y-58014514D01*
X33730743Y-58159657D01*
X33759771Y-58217714D01*
X33788800Y-58246743D01*
X33846857Y-58275771D01*
X34021029Y-58275771D01*
X34079086Y-58246743D01*
X34108114Y-58217714D01*
X31391885Y-71775771D02*
X31595085Y-71485486D01*
X31740228Y-71775771D02*
X31740228Y-71166171D01*
X31508000Y-71166171D01*
X31449942Y-71195200D01*
X31420914Y-71224229D01*
X31391885Y-71282286D01*
X31391885Y-71369371D01*
X31420914Y-71427429D01*
X31449942Y-71456457D01*
X31508000Y-71485486D01*
X31740228Y-71485486D01*
X31188685Y-71166171D02*
X30811314Y-71166171D01*
X31014514Y-71398400D01*
X30927428Y-71398400D01*
X30869371Y-71427429D01*
X30840342Y-71456457D01*
X30811314Y-71514514D01*
X30811314Y-71659657D01*
X30840342Y-71717714D01*
X30869371Y-71746743D01*
X30927428Y-71775771D01*
X31101600Y-71775771D01*
X31159657Y-71746743D01*
X31188685Y-71717714D01*
X30288800Y-71369371D02*
X30288800Y-71775771D01*
X30433943Y-71137143D02*
X30579086Y-71572571D01*
X30201714Y-71572571D01*
X31391885Y-73775771D02*
X31595085Y-73485486D01*
X31740228Y-73775771D02*
X31740228Y-73166171D01*
X31508000Y-73166171D01*
X31449942Y-73195200D01*
X31420914Y-73224229D01*
X31391885Y-73282286D01*
X31391885Y-73369371D01*
X31420914Y-73427429D01*
X31449942Y-73456457D01*
X31508000Y-73485486D01*
X31740228Y-73485486D01*
X31188685Y-73166171D02*
X30811314Y-73166171D01*
X31014514Y-73398400D01*
X30927428Y-73398400D01*
X30869371Y-73427429D01*
X30840342Y-73456457D01*
X30811314Y-73514514D01*
X30811314Y-73659657D01*
X30840342Y-73717714D01*
X30869371Y-73746743D01*
X30927428Y-73775771D01*
X31101600Y-73775771D01*
X31159657Y-73746743D01*
X31188685Y-73717714D01*
X30259771Y-73166171D02*
X30550057Y-73166171D01*
X30579086Y-73456457D01*
X30550057Y-73427429D01*
X30492000Y-73398400D01*
X30346857Y-73398400D01*
X30288800Y-73427429D01*
X30259771Y-73456457D01*
X30230743Y-73514514D01*
X30230743Y-73659657D01*
X30259771Y-73717714D01*
X30288800Y-73746743D01*
X30346857Y-73775771D01*
X30492000Y-73775771D01*
X30550057Y-73746743D01*
X30579086Y-73717714D01*
X31391885Y-75775771D02*
X31595085Y-75485486D01*
X31740228Y-75775771D02*
X31740228Y-75166171D01*
X31508000Y-75166171D01*
X31449942Y-75195200D01*
X31420914Y-75224229D01*
X31391885Y-75282286D01*
X31391885Y-75369371D01*
X31420914Y-75427429D01*
X31449942Y-75456457D01*
X31508000Y-75485486D01*
X31740228Y-75485486D01*
X31188685Y-75166171D02*
X30811314Y-75166171D01*
X31014514Y-75398400D01*
X30927428Y-75398400D01*
X30869371Y-75427429D01*
X30840342Y-75456457D01*
X30811314Y-75514514D01*
X30811314Y-75659657D01*
X30840342Y-75717714D01*
X30869371Y-75746743D01*
X30927428Y-75775771D01*
X31101600Y-75775771D01*
X31159657Y-75746743D01*
X31188685Y-75717714D01*
X30288800Y-75166171D02*
X30404914Y-75166171D01*
X30462971Y-75195200D01*
X30492000Y-75224229D01*
X30550057Y-75311314D01*
X30579086Y-75427429D01*
X30579086Y-75659657D01*
X30550057Y-75717714D01*
X30521029Y-75746743D01*
X30462971Y-75775771D01*
X30346857Y-75775771D01*
X30288800Y-75746743D01*
X30259771Y-75717714D01*
X30230743Y-75659657D01*
X30230743Y-75514514D01*
X30259771Y-75456457D01*
X30288800Y-75427429D01*
X30346857Y-75398400D01*
X30462971Y-75398400D01*
X30521029Y-75427429D01*
X30550057Y-75456457D01*
X30579086Y-75514514D01*
X37891885Y-58275771D02*
X38095085Y-57985486D01*
X38240228Y-58275771D02*
X38240228Y-57666171D01*
X38008000Y-57666171D01*
X37949942Y-57695200D01*
X37920914Y-57724229D01*
X37891885Y-57782286D01*
X37891885Y-57869371D01*
X37920914Y-57927429D01*
X37949942Y-57956457D01*
X38008000Y-57985486D01*
X38240228Y-57985486D01*
X37688685Y-57666171D02*
X37311314Y-57666171D01*
X37514514Y-57898400D01*
X37427428Y-57898400D01*
X37369371Y-57927429D01*
X37340342Y-57956457D01*
X37311314Y-58014514D01*
X37311314Y-58159657D01*
X37340342Y-58217714D01*
X37369371Y-58246743D01*
X37427428Y-58275771D01*
X37601600Y-58275771D01*
X37659657Y-58246743D01*
X37688685Y-58217714D01*
X37108114Y-57666171D02*
X36701714Y-57666171D01*
X36962971Y-58275771D01*
X37891885Y-52775771D02*
X38095085Y-52485486D01*
X38240228Y-52775771D02*
X38240228Y-52166171D01*
X38008000Y-52166171D01*
X37949942Y-52195200D01*
X37920914Y-52224229D01*
X37891885Y-52282286D01*
X37891885Y-52369371D01*
X37920914Y-52427429D01*
X37949942Y-52456457D01*
X38008000Y-52485486D01*
X38240228Y-52485486D01*
X37688685Y-52166171D02*
X37311314Y-52166171D01*
X37514514Y-52398400D01*
X37427428Y-52398400D01*
X37369371Y-52427429D01*
X37340342Y-52456457D01*
X37311314Y-52514514D01*
X37311314Y-52659657D01*
X37340342Y-52717714D01*
X37369371Y-52746743D01*
X37427428Y-52775771D01*
X37601600Y-52775771D01*
X37659657Y-52746743D01*
X37688685Y-52717714D01*
X36962971Y-52427429D02*
X37021029Y-52398400D01*
X37050057Y-52369371D01*
X37079086Y-52311314D01*
X37079086Y-52282286D01*
X37050057Y-52224229D01*
X37021029Y-52195200D01*
X36962971Y-52166171D01*
X36846857Y-52166171D01*
X36788800Y-52195200D01*
X36759771Y-52224229D01*
X36730743Y-52282286D01*
X36730743Y-52311314D01*
X36759771Y-52369371D01*
X36788800Y-52398400D01*
X36846857Y-52427429D01*
X36962971Y-52427429D01*
X37021029Y-52456457D01*
X37050057Y-52485486D01*
X37079086Y-52543543D01*
X37079086Y-52659657D01*
X37050057Y-52717714D01*
X37021029Y-52746743D01*
X36962971Y-52775771D01*
X36846857Y-52775771D01*
X36788800Y-52746743D01*
X36759771Y-52717714D01*
X36730743Y-52659657D01*
X36730743Y-52543543D01*
X36759771Y-52485486D01*
X36788800Y-52456457D01*
X36846857Y-52427429D01*
X43141885Y-52775771D02*
X43345085Y-52485486D01*
X43490228Y-52775771D02*
X43490228Y-52166171D01*
X43258000Y-52166171D01*
X43199942Y-52195200D01*
X43170914Y-52224229D01*
X43141885Y-52282286D01*
X43141885Y-52369371D01*
X43170914Y-52427429D01*
X43199942Y-52456457D01*
X43258000Y-52485486D01*
X43490228Y-52485486D01*
X42938685Y-52166171D02*
X42561314Y-52166171D01*
X42764514Y-52398400D01*
X42677428Y-52398400D01*
X42619371Y-52427429D01*
X42590342Y-52456457D01*
X42561314Y-52514514D01*
X42561314Y-52659657D01*
X42590342Y-52717714D01*
X42619371Y-52746743D01*
X42677428Y-52775771D01*
X42851600Y-52775771D01*
X42909657Y-52746743D01*
X42938685Y-52717714D01*
X42271029Y-52775771D02*
X42154914Y-52775771D01*
X42096857Y-52746743D01*
X42067829Y-52717714D01*
X42009771Y-52630629D01*
X41980743Y-52514514D01*
X41980743Y-52282286D01*
X42009771Y-52224229D01*
X42038800Y-52195200D01*
X42096857Y-52166171D01*
X42212971Y-52166171D01*
X42271029Y-52195200D01*
X42300057Y-52224229D01*
X42329086Y-52282286D01*
X42329086Y-52427429D01*
X42300057Y-52485486D01*
X42271029Y-52514514D01*
X42212971Y-52543543D01*
X42096857Y-52543543D01*
X42038800Y-52514514D01*
X42009771Y-52485486D01*
X41980743Y-52427429D01*
X35391885Y-70775771D02*
X35595085Y-70485486D01*
X35740228Y-70775771D02*
X35740228Y-70166171D01*
X35508000Y-70166171D01*
X35449942Y-70195200D01*
X35420914Y-70224229D01*
X35391885Y-70282286D01*
X35391885Y-70369371D01*
X35420914Y-70427429D01*
X35449942Y-70456457D01*
X35508000Y-70485486D01*
X35740228Y-70485486D01*
X34869371Y-70369371D02*
X34869371Y-70775771D01*
X35014514Y-70137143D02*
X35159657Y-70572571D01*
X34782285Y-70572571D01*
X34433943Y-70166171D02*
X34375886Y-70166171D01*
X34317829Y-70195200D01*
X34288800Y-70224229D01*
X34259771Y-70282286D01*
X34230743Y-70398400D01*
X34230743Y-70543543D01*
X34259771Y-70659657D01*
X34288800Y-70717714D01*
X34317829Y-70746743D01*
X34375886Y-70775771D01*
X34433943Y-70775771D01*
X34492000Y-70746743D01*
X34521029Y-70717714D01*
X34550057Y-70659657D01*
X34579086Y-70543543D01*
X34579086Y-70398400D01*
X34550057Y-70282286D01*
X34521029Y-70224229D01*
X34492000Y-70195200D01*
X34433943Y-70166171D01*
X46891885Y-16275771D02*
X47095085Y-15985486D01*
X47240228Y-16275771D02*
X47240228Y-15666171D01*
X47008000Y-15666171D01*
X46949942Y-15695200D01*
X46920914Y-15724229D01*
X46891885Y-15782286D01*
X46891885Y-15869371D01*
X46920914Y-15927429D01*
X46949942Y-15956457D01*
X47008000Y-15985486D01*
X47240228Y-15985486D01*
X46369371Y-15869371D02*
X46369371Y-16275771D01*
X46514514Y-15637143D02*
X46659657Y-16072571D01*
X46282285Y-16072571D01*
X45730743Y-16275771D02*
X46079086Y-16275771D01*
X45904914Y-16275771D02*
X45904914Y-15666171D01*
X45962971Y-15753257D01*
X46021029Y-15811314D01*
X46079086Y-15840343D01*
X35391885Y-72775771D02*
X35595085Y-72485486D01*
X35740228Y-72775771D02*
X35740228Y-72166171D01*
X35508000Y-72166171D01*
X35449942Y-72195200D01*
X35420914Y-72224229D01*
X35391885Y-72282286D01*
X35391885Y-72369371D01*
X35420914Y-72427429D01*
X35449942Y-72456457D01*
X35508000Y-72485486D01*
X35740228Y-72485486D01*
X34869371Y-72369371D02*
X34869371Y-72775771D01*
X35014514Y-72137143D02*
X35159657Y-72572571D01*
X34782285Y-72572571D01*
X34579086Y-72224229D02*
X34550057Y-72195200D01*
X34492000Y-72166171D01*
X34346857Y-72166171D01*
X34288800Y-72195200D01*
X34259771Y-72224229D01*
X34230743Y-72282286D01*
X34230743Y-72340343D01*
X34259771Y-72427429D01*
X34608114Y-72775771D01*
X34230743Y-72775771D01*
X55391885Y-54375771D02*
X55595085Y-54085486D01*
X55740228Y-54375771D02*
X55740228Y-53766171D01*
X55508000Y-53766171D01*
X55449942Y-53795200D01*
X55420914Y-53824229D01*
X55391885Y-53882286D01*
X55391885Y-53969371D01*
X55420914Y-54027429D01*
X55449942Y-54056457D01*
X55508000Y-54085486D01*
X55740228Y-54085486D01*
X54869371Y-53969371D02*
X54869371Y-54375771D01*
X55014514Y-53737143D02*
X55159657Y-54172571D01*
X54782285Y-54172571D01*
X54608114Y-53766171D02*
X54230743Y-53766171D01*
X54433943Y-53998400D01*
X54346857Y-53998400D01*
X54288800Y-54027429D01*
X54259771Y-54056457D01*
X54230743Y-54114514D01*
X54230743Y-54259657D01*
X54259771Y-54317714D01*
X54288800Y-54346743D01*
X54346857Y-54375771D01*
X54521029Y-54375771D01*
X54579086Y-54346743D01*
X54608114Y-54317714D01*
X35391885Y-75775771D02*
X35595085Y-75485486D01*
X35740228Y-75775771D02*
X35740228Y-75166171D01*
X35508000Y-75166171D01*
X35449942Y-75195200D01*
X35420914Y-75224229D01*
X35391885Y-75282286D01*
X35391885Y-75369371D01*
X35420914Y-75427429D01*
X35449942Y-75456457D01*
X35508000Y-75485486D01*
X35740228Y-75485486D01*
X34869371Y-75369371D02*
X34869371Y-75775771D01*
X35014514Y-75137143D02*
X35159657Y-75572571D01*
X34782285Y-75572571D01*
X34288800Y-75369371D02*
X34288800Y-75775771D01*
X34433943Y-75137143D02*
X34579086Y-75572571D01*
X34201714Y-75572571D01*
X33391885Y-84375771D02*
X33595085Y-84085486D01*
X33740228Y-84375771D02*
X33740228Y-83766171D01*
X33508000Y-83766171D01*
X33449942Y-83795200D01*
X33420914Y-83824229D01*
X33391885Y-83882286D01*
X33391885Y-83969371D01*
X33420914Y-84027429D01*
X33449942Y-84056457D01*
X33508000Y-84085486D01*
X33740228Y-84085486D01*
X32869371Y-83969371D02*
X32869371Y-84375771D01*
X33014514Y-83737143D02*
X33159657Y-84172571D01*
X32782285Y-84172571D01*
X32259771Y-83766171D02*
X32550057Y-83766171D01*
X32579086Y-84056457D01*
X32550057Y-84027429D01*
X32492000Y-83998400D01*
X32346857Y-83998400D01*
X32288800Y-84027429D01*
X32259771Y-84056457D01*
X32230743Y-84114514D01*
X32230743Y-84259657D01*
X32259771Y-84317714D01*
X32288800Y-84346743D01*
X32346857Y-84375771D01*
X32492000Y-84375771D01*
X32550057Y-84346743D01*
X32579086Y-84317714D01*
X35391885Y-77775771D02*
X35595085Y-77485486D01*
X35740228Y-77775771D02*
X35740228Y-77166171D01*
X35508000Y-77166171D01*
X35449942Y-77195200D01*
X35420914Y-77224229D01*
X35391885Y-77282286D01*
X35391885Y-77369371D01*
X35420914Y-77427429D01*
X35449942Y-77456457D01*
X35508000Y-77485486D01*
X35740228Y-77485486D01*
X34869371Y-77369371D02*
X34869371Y-77775771D01*
X35014514Y-77137143D02*
X35159657Y-77572571D01*
X34782285Y-77572571D01*
X34288800Y-77166171D02*
X34404914Y-77166171D01*
X34462971Y-77195200D01*
X34492000Y-77224229D01*
X34550057Y-77311314D01*
X34579086Y-77427429D01*
X34579086Y-77659657D01*
X34550057Y-77717714D01*
X34521029Y-77746743D01*
X34462971Y-77775771D01*
X34346857Y-77775771D01*
X34288800Y-77746743D01*
X34259771Y-77717714D01*
X34230743Y-77659657D01*
X34230743Y-77514514D01*
X34259771Y-77456457D01*
X34288800Y-77427429D01*
X34346857Y-77398400D01*
X34462971Y-77398400D01*
X34521029Y-77427429D01*
X34550057Y-77456457D01*
X34579086Y-77514514D01*
X51891885Y-78275771D02*
X52095085Y-77985486D01*
X52240228Y-78275771D02*
X52240228Y-77666171D01*
X52008000Y-77666171D01*
X51949942Y-77695200D01*
X51920914Y-77724229D01*
X51891885Y-77782286D01*
X51891885Y-77869371D01*
X51920914Y-77927429D01*
X51949942Y-77956457D01*
X52008000Y-77985486D01*
X52240228Y-77985486D01*
X51369371Y-77869371D02*
X51369371Y-78275771D01*
X51514514Y-77637143D02*
X51659657Y-78072571D01*
X51282285Y-78072571D01*
X51108114Y-77666171D02*
X50701714Y-77666171D01*
X50962971Y-78275771D01*
X40391885Y-85775771D02*
X40595085Y-85485486D01*
X40740228Y-85775771D02*
X40740228Y-85166171D01*
X40508000Y-85166171D01*
X40449942Y-85195200D01*
X40420914Y-85224229D01*
X40391885Y-85282286D01*
X40391885Y-85369371D01*
X40420914Y-85427429D01*
X40449942Y-85456457D01*
X40508000Y-85485486D01*
X40740228Y-85485486D01*
X39869371Y-85369371D02*
X39869371Y-85775771D01*
X40014514Y-85137143D02*
X40159657Y-85572571D01*
X39782285Y-85572571D01*
X39462971Y-85427429D02*
X39521029Y-85398400D01*
X39550057Y-85369371D01*
X39579086Y-85311314D01*
X39579086Y-85282286D01*
X39550057Y-85224229D01*
X39521029Y-85195200D01*
X39462971Y-85166171D01*
X39346857Y-85166171D01*
X39288800Y-85195200D01*
X39259771Y-85224229D01*
X39230743Y-85282286D01*
X39230743Y-85311314D01*
X39259771Y-85369371D01*
X39288800Y-85398400D01*
X39346857Y-85427429D01*
X39462971Y-85427429D01*
X39521029Y-85456457D01*
X39550057Y-85485486D01*
X39579086Y-85543543D01*
X39579086Y-85659657D01*
X39550057Y-85717714D01*
X39521029Y-85746743D01*
X39462971Y-85775771D01*
X39346857Y-85775771D01*
X39288800Y-85746743D01*
X39259771Y-85717714D01*
X39230743Y-85659657D01*
X39230743Y-85543543D01*
X39259771Y-85485486D01*
X39288800Y-85456457D01*
X39346857Y-85427429D01*
X33391885Y-83175771D02*
X33595085Y-82885486D01*
X33740228Y-83175771D02*
X33740228Y-82566171D01*
X33508000Y-82566171D01*
X33449942Y-82595200D01*
X33420914Y-82624229D01*
X33391885Y-82682286D01*
X33391885Y-82769371D01*
X33420914Y-82827429D01*
X33449942Y-82856457D01*
X33508000Y-82885486D01*
X33740228Y-82885486D01*
X32869371Y-82769371D02*
X32869371Y-83175771D01*
X33014514Y-82537143D02*
X33159657Y-82972571D01*
X32782285Y-82972571D01*
X32521029Y-83175771D02*
X32404914Y-83175771D01*
X32346857Y-83146743D01*
X32317829Y-83117714D01*
X32259771Y-83030629D01*
X32230743Y-82914514D01*
X32230743Y-82682286D01*
X32259771Y-82624229D01*
X32288800Y-82595200D01*
X32346857Y-82566171D01*
X32462971Y-82566171D01*
X32521029Y-82595200D01*
X32550057Y-82624229D01*
X32579086Y-82682286D01*
X32579086Y-82827429D01*
X32550057Y-82885486D01*
X32521029Y-82914514D01*
X32462971Y-82943543D01*
X32346857Y-82943543D01*
X32288800Y-82914514D01*
X32259771Y-82885486D01*
X32230743Y-82827429D01*
X31391885Y-97775771D02*
X31595085Y-97485486D01*
X31740228Y-97775771D02*
X31740228Y-97166171D01*
X31508000Y-97166171D01*
X31449942Y-97195200D01*
X31420914Y-97224229D01*
X31391885Y-97282286D01*
X31391885Y-97369371D01*
X31420914Y-97427429D01*
X31449942Y-97456457D01*
X31508000Y-97485486D01*
X31740228Y-97485486D01*
X30840342Y-97166171D02*
X31130628Y-97166171D01*
X31159657Y-97456457D01*
X31130628Y-97427429D01*
X31072571Y-97398400D01*
X30927428Y-97398400D01*
X30869371Y-97427429D01*
X30840342Y-97456457D01*
X30811314Y-97514514D01*
X30811314Y-97659657D01*
X30840342Y-97717714D01*
X30869371Y-97746743D01*
X30927428Y-97775771D01*
X31072571Y-97775771D01*
X31130628Y-97746743D01*
X31159657Y-97717714D01*
X30433943Y-97166171D02*
X30375886Y-97166171D01*
X30317829Y-97195200D01*
X30288800Y-97224229D01*
X30259771Y-97282286D01*
X30230743Y-97398400D01*
X30230743Y-97543543D01*
X30259771Y-97659657D01*
X30288800Y-97717714D01*
X30317829Y-97746743D01*
X30375886Y-97775771D01*
X30433943Y-97775771D01*
X30492000Y-97746743D01*
X30521029Y-97717714D01*
X30550057Y-97659657D01*
X30579086Y-97543543D01*
X30579086Y-97398400D01*
X30550057Y-97282286D01*
X30521029Y-97224229D01*
X30492000Y-97195200D01*
X30433943Y-97166171D01*
X54391885Y-82525771D02*
X54595085Y-82235486D01*
X54740228Y-82525771D02*
X54740228Y-81916171D01*
X54508000Y-81916171D01*
X54449942Y-81945200D01*
X54420914Y-81974229D01*
X54391885Y-82032286D01*
X54391885Y-82119371D01*
X54420914Y-82177429D01*
X54449942Y-82206457D01*
X54508000Y-82235486D01*
X54740228Y-82235486D01*
X53840342Y-81916171D02*
X54130628Y-81916171D01*
X54159657Y-82206457D01*
X54130628Y-82177429D01*
X54072571Y-82148400D01*
X53927428Y-82148400D01*
X53869371Y-82177429D01*
X53840342Y-82206457D01*
X53811314Y-82264514D01*
X53811314Y-82409657D01*
X53840342Y-82467714D01*
X53869371Y-82496743D01*
X53927428Y-82525771D01*
X54072571Y-82525771D01*
X54130628Y-82496743D01*
X54159657Y-82467714D01*
X53230743Y-82525771D02*
X53579086Y-82525771D01*
X53404914Y-82525771D02*
X53404914Y-81916171D01*
X53462971Y-82003257D01*
X53521029Y-82061314D01*
X53579086Y-82090343D01*
X37891885Y-89175771D02*
X38095085Y-88885486D01*
X38240228Y-89175771D02*
X38240228Y-88566171D01*
X38008000Y-88566171D01*
X37949942Y-88595200D01*
X37920914Y-88624229D01*
X37891885Y-88682286D01*
X37891885Y-88769371D01*
X37920914Y-88827429D01*
X37949942Y-88856457D01*
X38008000Y-88885486D01*
X38240228Y-88885486D01*
X37340342Y-88566171D02*
X37630628Y-88566171D01*
X37659657Y-88856457D01*
X37630628Y-88827429D01*
X37572571Y-88798400D01*
X37427428Y-88798400D01*
X37369371Y-88827429D01*
X37340342Y-88856457D01*
X37311314Y-88914514D01*
X37311314Y-89059657D01*
X37340342Y-89117714D01*
X37369371Y-89146743D01*
X37427428Y-89175771D01*
X37572571Y-89175771D01*
X37630628Y-89146743D01*
X37659657Y-89117714D01*
X37079086Y-88624229D02*
X37050057Y-88595200D01*
X36992000Y-88566171D01*
X36846857Y-88566171D01*
X36788800Y-88595200D01*
X36759771Y-88624229D01*
X36730743Y-88682286D01*
X36730743Y-88740343D01*
X36759771Y-88827429D01*
X37108114Y-89175771D01*
X36730743Y-89175771D01*
X30891885Y-87775771D02*
X31095085Y-87485486D01*
X31240228Y-87775771D02*
X31240228Y-87166171D01*
X31008000Y-87166171D01*
X30949942Y-87195200D01*
X30920914Y-87224229D01*
X30891885Y-87282286D01*
X30891885Y-87369371D01*
X30920914Y-87427429D01*
X30949942Y-87456457D01*
X31008000Y-87485486D01*
X31240228Y-87485486D01*
X30340342Y-87166171D02*
X30630628Y-87166171D01*
X30659657Y-87456457D01*
X30630628Y-87427429D01*
X30572571Y-87398400D01*
X30427428Y-87398400D01*
X30369371Y-87427429D01*
X30340342Y-87456457D01*
X30311314Y-87514514D01*
X30311314Y-87659657D01*
X30340342Y-87717714D01*
X30369371Y-87746743D01*
X30427428Y-87775771D01*
X30572571Y-87775771D01*
X30630628Y-87746743D01*
X30659657Y-87717714D01*
X30108114Y-87166171D02*
X29730743Y-87166171D01*
X29933943Y-87398400D01*
X29846857Y-87398400D01*
X29788800Y-87427429D01*
X29759771Y-87456457D01*
X29730743Y-87514514D01*
X29730743Y-87659657D01*
X29759771Y-87717714D01*
X29788800Y-87746743D01*
X29846857Y-87775771D01*
X30021029Y-87775771D01*
X30079086Y-87746743D01*
X30108114Y-87717714D01*
X66891885Y-97875771D02*
X67095085Y-97585486D01*
X67240228Y-97875771D02*
X67240228Y-97266171D01*
X67008000Y-97266171D01*
X66949942Y-97295200D01*
X66920914Y-97324229D01*
X66891885Y-97382286D01*
X66891885Y-97469371D01*
X66920914Y-97527429D01*
X66949942Y-97556457D01*
X67008000Y-97585486D01*
X67240228Y-97585486D01*
X66340342Y-97266171D02*
X66630628Y-97266171D01*
X66659657Y-97556457D01*
X66630628Y-97527429D01*
X66572571Y-97498400D01*
X66427428Y-97498400D01*
X66369371Y-97527429D01*
X66340342Y-97556457D01*
X66311314Y-97614514D01*
X66311314Y-97759657D01*
X66340342Y-97817714D01*
X66369371Y-97846743D01*
X66427428Y-97875771D01*
X66572571Y-97875771D01*
X66630628Y-97846743D01*
X66659657Y-97817714D01*
X65788800Y-97469371D02*
X65788800Y-97875771D01*
X65933943Y-97237143D02*
X66079086Y-97672571D01*
X65701714Y-97672571D01*
X20641885Y-66775771D02*
X20845085Y-66485486D01*
X20990228Y-66775771D02*
X20990228Y-66166171D01*
X20758000Y-66166171D01*
X20699942Y-66195200D01*
X20670914Y-66224229D01*
X20641885Y-66282286D01*
X20641885Y-66369371D01*
X20670914Y-66427429D01*
X20699942Y-66456457D01*
X20758000Y-66485486D01*
X20990228Y-66485486D01*
X20090342Y-66166171D02*
X20380628Y-66166171D01*
X20409657Y-66456457D01*
X20380628Y-66427429D01*
X20322571Y-66398400D01*
X20177428Y-66398400D01*
X20119371Y-66427429D01*
X20090342Y-66456457D01*
X20061314Y-66514514D01*
X20061314Y-66659657D01*
X20090342Y-66717714D01*
X20119371Y-66746743D01*
X20177428Y-66775771D01*
X20322571Y-66775771D01*
X20380628Y-66746743D01*
X20409657Y-66717714D01*
X19509771Y-66166171D02*
X19800057Y-66166171D01*
X19829086Y-66456457D01*
X19800057Y-66427429D01*
X19742000Y-66398400D01*
X19596857Y-66398400D01*
X19538800Y-66427429D01*
X19509771Y-66456457D01*
X19480743Y-66514514D01*
X19480743Y-66659657D01*
X19509771Y-66717714D01*
X19538800Y-66746743D01*
X19596857Y-66775771D01*
X19742000Y-66775771D01*
X19800057Y-66746743D01*
X19829086Y-66717714D01*
X42141885Y-83775771D02*
X42345085Y-83485486D01*
X42490228Y-83775771D02*
X42490228Y-83166171D01*
X42258000Y-83166171D01*
X42199942Y-83195200D01*
X42170914Y-83224229D01*
X42141885Y-83282286D01*
X42141885Y-83369371D01*
X42170914Y-83427429D01*
X42199942Y-83456457D01*
X42258000Y-83485486D01*
X42490228Y-83485486D01*
X41590342Y-83166171D02*
X41880628Y-83166171D01*
X41909657Y-83456457D01*
X41880628Y-83427429D01*
X41822571Y-83398400D01*
X41677428Y-83398400D01*
X41619371Y-83427429D01*
X41590342Y-83456457D01*
X41561314Y-83514514D01*
X41561314Y-83659657D01*
X41590342Y-83717714D01*
X41619371Y-83746743D01*
X41677428Y-83775771D01*
X41822571Y-83775771D01*
X41880628Y-83746743D01*
X41909657Y-83717714D01*
X41038800Y-83166171D02*
X41154914Y-83166171D01*
X41212971Y-83195200D01*
X41242000Y-83224229D01*
X41300057Y-83311314D01*
X41329086Y-83427429D01*
X41329086Y-83659657D01*
X41300057Y-83717714D01*
X41271029Y-83746743D01*
X41212971Y-83775771D01*
X41096857Y-83775771D01*
X41038800Y-83746743D01*
X41009771Y-83717714D01*
X40980743Y-83659657D01*
X40980743Y-83514514D01*
X41009771Y-83456457D01*
X41038800Y-83427429D01*
X41096857Y-83398400D01*
X41212971Y-83398400D01*
X41271029Y-83427429D01*
X41300057Y-83456457D01*
X41329086Y-83514514D01*
X31391885Y-95775771D02*
X31595085Y-95485486D01*
X31740228Y-95775771D02*
X31740228Y-95166171D01*
X31508000Y-95166171D01*
X31449942Y-95195200D01*
X31420914Y-95224229D01*
X31391885Y-95282286D01*
X31391885Y-95369371D01*
X31420914Y-95427429D01*
X31449942Y-95456457D01*
X31508000Y-95485486D01*
X31740228Y-95485486D01*
X30840342Y-95166171D02*
X31130628Y-95166171D01*
X31159657Y-95456457D01*
X31130628Y-95427429D01*
X31072571Y-95398400D01*
X30927428Y-95398400D01*
X30869371Y-95427429D01*
X30840342Y-95456457D01*
X30811314Y-95514514D01*
X30811314Y-95659657D01*
X30840342Y-95717714D01*
X30869371Y-95746743D01*
X30927428Y-95775771D01*
X31072571Y-95775771D01*
X31130628Y-95746743D01*
X31159657Y-95717714D01*
X30608114Y-95166171D02*
X30201714Y-95166171D01*
X30462971Y-95775771D01*
X60125771Y-32108115D02*
X59835486Y-31904915D01*
X60125771Y-31759772D02*
X59516171Y-31759772D01*
X59516171Y-31992000D01*
X59545200Y-32050058D01*
X59574229Y-32079086D01*
X59632286Y-32108115D01*
X59719371Y-32108115D01*
X59777429Y-32079086D01*
X59806457Y-32050058D01*
X59835486Y-31992000D01*
X59835486Y-31759772D01*
X59516171Y-32659658D02*
X59516171Y-32369372D01*
X59806457Y-32340343D01*
X59777429Y-32369372D01*
X59748400Y-32427429D01*
X59748400Y-32572572D01*
X59777429Y-32630629D01*
X59806457Y-32659658D01*
X59864514Y-32688686D01*
X60009657Y-32688686D01*
X60067714Y-32659658D01*
X60096743Y-32630629D01*
X60125771Y-32572572D01*
X60125771Y-32427429D01*
X60096743Y-32369372D01*
X60067714Y-32340343D01*
X59777429Y-33037029D02*
X59748400Y-32978971D01*
X59719371Y-32949943D01*
X59661314Y-32920914D01*
X59632286Y-32920914D01*
X59574229Y-32949943D01*
X59545200Y-32978971D01*
X59516171Y-33037029D01*
X59516171Y-33153143D01*
X59545200Y-33211200D01*
X59574229Y-33240229D01*
X59632286Y-33269257D01*
X59661314Y-33269257D01*
X59719371Y-33240229D01*
X59748400Y-33211200D01*
X59777429Y-33153143D01*
X59777429Y-33037029D01*
X59806457Y-32978971D01*
X59835486Y-32949943D01*
X59893543Y-32920914D01*
X60009657Y-32920914D01*
X60067714Y-32949943D01*
X60096743Y-32978971D01*
X60125771Y-33037029D01*
X60125771Y-33153143D01*
X60096743Y-33211200D01*
X60067714Y-33240229D01*
X60009657Y-33269257D01*
X59893543Y-33269257D01*
X59835486Y-33240229D01*
X59806457Y-33211200D01*
X59777429Y-33153143D01*
X63641885Y-31025771D02*
X63845085Y-30735486D01*
X63990228Y-31025771D02*
X63990228Y-30416171D01*
X63758000Y-30416171D01*
X63699942Y-30445200D01*
X63670914Y-30474229D01*
X63641885Y-30532286D01*
X63641885Y-30619371D01*
X63670914Y-30677429D01*
X63699942Y-30706457D01*
X63758000Y-30735486D01*
X63990228Y-30735486D01*
X63090342Y-30416171D02*
X63380628Y-30416171D01*
X63409657Y-30706457D01*
X63380628Y-30677429D01*
X63322571Y-30648400D01*
X63177428Y-30648400D01*
X63119371Y-30677429D01*
X63090342Y-30706457D01*
X63061314Y-30764514D01*
X63061314Y-30909657D01*
X63090342Y-30967714D01*
X63119371Y-30996743D01*
X63177428Y-31025771D01*
X63322571Y-31025771D01*
X63380628Y-30996743D01*
X63409657Y-30967714D01*
X62771029Y-31025771D02*
X62654914Y-31025771D01*
X62596857Y-30996743D01*
X62567829Y-30967714D01*
X62509771Y-30880629D01*
X62480743Y-30764514D01*
X62480743Y-30532286D01*
X62509771Y-30474229D01*
X62538800Y-30445200D01*
X62596857Y-30416171D01*
X62712971Y-30416171D01*
X62771029Y-30445200D01*
X62800057Y-30474229D01*
X62829086Y-30532286D01*
X62829086Y-30677429D01*
X62800057Y-30735486D01*
X62771029Y-30764514D01*
X62712971Y-30793543D01*
X62596857Y-30793543D01*
X62538800Y-30764514D01*
X62509771Y-30735486D01*
X62480743Y-30677429D01*
X13391885Y-73775771D02*
X13595085Y-73485486D01*
X13740228Y-73775771D02*
X13740228Y-73166171D01*
X13508000Y-73166171D01*
X13449942Y-73195200D01*
X13420914Y-73224229D01*
X13391885Y-73282286D01*
X13391885Y-73369371D01*
X13420914Y-73427429D01*
X13449942Y-73456457D01*
X13508000Y-73485486D01*
X13740228Y-73485486D01*
X12869371Y-73166171D02*
X12985485Y-73166171D01*
X13043542Y-73195200D01*
X13072571Y-73224229D01*
X13130628Y-73311314D01*
X13159657Y-73427429D01*
X13159657Y-73659657D01*
X13130628Y-73717714D01*
X13101600Y-73746743D01*
X13043542Y-73775771D01*
X12927428Y-73775771D01*
X12869371Y-73746743D01*
X12840342Y-73717714D01*
X12811314Y-73659657D01*
X12811314Y-73514514D01*
X12840342Y-73456457D01*
X12869371Y-73427429D01*
X12927428Y-73398400D01*
X13043542Y-73398400D01*
X13101600Y-73427429D01*
X13130628Y-73456457D01*
X13159657Y-73514514D01*
X12433943Y-73166171D02*
X12375886Y-73166171D01*
X12317829Y-73195200D01*
X12288800Y-73224229D01*
X12259771Y-73282286D01*
X12230743Y-73398400D01*
X12230743Y-73543543D01*
X12259771Y-73659657D01*
X12288800Y-73717714D01*
X12317829Y-73746743D01*
X12375886Y-73775771D01*
X12433943Y-73775771D01*
X12492000Y-73746743D01*
X12521029Y-73717714D01*
X12550057Y-73659657D01*
X12579086Y-73543543D01*
X12579086Y-73398400D01*
X12550057Y-73282286D01*
X12521029Y-73224229D01*
X12492000Y-73195200D01*
X12433943Y-73166171D01*
X65641885Y-27525771D02*
X65845085Y-27235486D01*
X65990228Y-27525771D02*
X65990228Y-26916171D01*
X65758000Y-26916171D01*
X65699942Y-26945200D01*
X65670914Y-26974229D01*
X65641885Y-27032286D01*
X65641885Y-27119371D01*
X65670914Y-27177429D01*
X65699942Y-27206457D01*
X65758000Y-27235486D01*
X65990228Y-27235486D01*
X65119371Y-26916171D02*
X65235485Y-26916171D01*
X65293542Y-26945200D01*
X65322571Y-26974229D01*
X65380628Y-27061314D01*
X65409657Y-27177429D01*
X65409657Y-27409657D01*
X65380628Y-27467714D01*
X65351600Y-27496743D01*
X65293542Y-27525771D01*
X65177428Y-27525771D01*
X65119371Y-27496743D01*
X65090342Y-27467714D01*
X65061314Y-27409657D01*
X65061314Y-27264514D01*
X65090342Y-27206457D01*
X65119371Y-27177429D01*
X65177428Y-27148400D01*
X65293542Y-27148400D01*
X65351600Y-27177429D01*
X65380628Y-27206457D01*
X65409657Y-27264514D01*
X64480743Y-27525771D02*
X64829086Y-27525771D01*
X64654914Y-27525771D02*
X64654914Y-26916171D01*
X64712971Y-27003257D01*
X64771029Y-27061314D01*
X64829086Y-27090343D01*
X13391885Y-71775771D02*
X13595085Y-71485486D01*
X13740228Y-71775771D02*
X13740228Y-71166171D01*
X13508000Y-71166171D01*
X13449942Y-71195200D01*
X13420914Y-71224229D01*
X13391885Y-71282286D01*
X13391885Y-71369371D01*
X13420914Y-71427429D01*
X13449942Y-71456457D01*
X13508000Y-71485486D01*
X13740228Y-71485486D01*
X12869371Y-71166171D02*
X12985485Y-71166171D01*
X13043542Y-71195200D01*
X13072571Y-71224229D01*
X13130628Y-71311314D01*
X13159657Y-71427429D01*
X13159657Y-71659657D01*
X13130628Y-71717714D01*
X13101600Y-71746743D01*
X13043542Y-71775771D01*
X12927428Y-71775771D01*
X12869371Y-71746743D01*
X12840342Y-71717714D01*
X12811314Y-71659657D01*
X12811314Y-71514514D01*
X12840342Y-71456457D01*
X12869371Y-71427429D01*
X12927428Y-71398400D01*
X13043542Y-71398400D01*
X13101600Y-71427429D01*
X13130628Y-71456457D01*
X13159657Y-71514514D01*
X12579086Y-71224229D02*
X12550057Y-71195200D01*
X12492000Y-71166171D01*
X12346857Y-71166171D01*
X12288800Y-71195200D01*
X12259771Y-71224229D01*
X12230743Y-71282286D01*
X12230743Y-71340343D01*
X12259771Y-71427429D01*
X12608114Y-71775771D01*
X12230743Y-71775771D01*
X44891885Y-98275771D02*
X45095085Y-97985486D01*
X45240228Y-98275771D02*
X45240228Y-97666171D01*
X45008000Y-97666171D01*
X44949942Y-97695200D01*
X44920914Y-97724229D01*
X44891885Y-97782286D01*
X44891885Y-97869371D01*
X44920914Y-97927429D01*
X44949942Y-97956457D01*
X45008000Y-97985486D01*
X45240228Y-97985486D01*
X44369371Y-97666171D02*
X44485485Y-97666171D01*
X44543542Y-97695200D01*
X44572571Y-97724229D01*
X44630628Y-97811314D01*
X44659657Y-97927429D01*
X44659657Y-98159657D01*
X44630628Y-98217714D01*
X44601600Y-98246743D01*
X44543542Y-98275771D01*
X44427428Y-98275771D01*
X44369371Y-98246743D01*
X44340342Y-98217714D01*
X44311314Y-98159657D01*
X44311314Y-98014514D01*
X44340342Y-97956457D01*
X44369371Y-97927429D01*
X44427428Y-97898400D01*
X44543542Y-97898400D01*
X44601600Y-97927429D01*
X44630628Y-97956457D01*
X44659657Y-98014514D01*
X44108114Y-97666171D02*
X43730743Y-97666171D01*
X43933943Y-97898400D01*
X43846857Y-97898400D01*
X43788800Y-97927429D01*
X43759771Y-97956457D01*
X43730743Y-98014514D01*
X43730743Y-98159657D01*
X43759771Y-98217714D01*
X43788800Y-98246743D01*
X43846857Y-98275771D01*
X44021029Y-98275771D01*
X44079086Y-98246743D01*
X44108114Y-98217714D01*
X61641885Y-27775771D02*
X61845085Y-27485486D01*
X61990228Y-27775771D02*
X61990228Y-27166171D01*
X61758000Y-27166171D01*
X61699942Y-27195200D01*
X61670914Y-27224229D01*
X61641885Y-27282286D01*
X61641885Y-27369371D01*
X61670914Y-27427429D01*
X61699942Y-27456457D01*
X61758000Y-27485486D01*
X61990228Y-27485486D01*
X61119371Y-27166171D02*
X61235485Y-27166171D01*
X61293542Y-27195200D01*
X61322571Y-27224229D01*
X61380628Y-27311314D01*
X61409657Y-27427429D01*
X61409657Y-27659657D01*
X61380628Y-27717714D01*
X61351600Y-27746743D01*
X61293542Y-27775771D01*
X61177428Y-27775771D01*
X61119371Y-27746743D01*
X61090342Y-27717714D01*
X61061314Y-27659657D01*
X61061314Y-27514514D01*
X61090342Y-27456457D01*
X61119371Y-27427429D01*
X61177428Y-27398400D01*
X61293542Y-27398400D01*
X61351600Y-27427429D01*
X61380628Y-27456457D01*
X61409657Y-27514514D01*
X60538800Y-27369371D02*
X60538800Y-27775771D01*
X60683943Y-27137143D02*
X60829086Y-27572571D01*
X60451714Y-27572571D01*
X44891885Y-100275771D02*
X45095085Y-99985486D01*
X45240228Y-100275771D02*
X45240228Y-99666171D01*
X45008000Y-99666171D01*
X44949942Y-99695200D01*
X44920914Y-99724229D01*
X44891885Y-99782286D01*
X44891885Y-99869371D01*
X44920914Y-99927429D01*
X44949942Y-99956457D01*
X45008000Y-99985486D01*
X45240228Y-99985486D01*
X44369371Y-99666171D02*
X44485485Y-99666171D01*
X44543542Y-99695200D01*
X44572571Y-99724229D01*
X44630628Y-99811314D01*
X44659657Y-99927429D01*
X44659657Y-100159657D01*
X44630628Y-100217714D01*
X44601600Y-100246743D01*
X44543542Y-100275771D01*
X44427428Y-100275771D01*
X44369371Y-100246743D01*
X44340342Y-100217714D01*
X44311314Y-100159657D01*
X44311314Y-100014514D01*
X44340342Y-99956457D01*
X44369371Y-99927429D01*
X44427428Y-99898400D01*
X44543542Y-99898400D01*
X44601600Y-99927429D01*
X44630628Y-99956457D01*
X44659657Y-100014514D01*
X43759771Y-99666171D02*
X44050057Y-99666171D01*
X44079086Y-99956457D01*
X44050057Y-99927429D01*
X43992000Y-99898400D01*
X43846857Y-99898400D01*
X43788800Y-99927429D01*
X43759771Y-99956457D01*
X43730743Y-100014514D01*
X43730743Y-100159657D01*
X43759771Y-100217714D01*
X43788800Y-100246743D01*
X43846857Y-100275771D01*
X43992000Y-100275771D01*
X44050057Y-100246743D01*
X44079086Y-100217714D01*
X47391885Y-83775771D02*
X47595085Y-83485486D01*
X47740228Y-83775771D02*
X47740228Y-83166171D01*
X47508000Y-83166171D01*
X47449942Y-83195200D01*
X47420914Y-83224229D01*
X47391885Y-83282286D01*
X47391885Y-83369371D01*
X47420914Y-83427429D01*
X47449942Y-83456457D01*
X47508000Y-83485486D01*
X47740228Y-83485486D01*
X46869371Y-83166171D02*
X46985485Y-83166171D01*
X47043542Y-83195200D01*
X47072571Y-83224229D01*
X47130628Y-83311314D01*
X47159657Y-83427429D01*
X47159657Y-83659657D01*
X47130628Y-83717714D01*
X47101600Y-83746743D01*
X47043542Y-83775771D01*
X46927428Y-83775771D01*
X46869371Y-83746743D01*
X46840342Y-83717714D01*
X46811314Y-83659657D01*
X46811314Y-83514514D01*
X46840342Y-83456457D01*
X46869371Y-83427429D01*
X46927428Y-83398400D01*
X47043542Y-83398400D01*
X47101600Y-83427429D01*
X47130628Y-83456457D01*
X47159657Y-83514514D01*
X46462971Y-83427429D02*
X46521029Y-83398400D01*
X46550057Y-83369371D01*
X46579086Y-83311314D01*
X46579086Y-83282286D01*
X46550057Y-83224229D01*
X46521029Y-83195200D01*
X46462971Y-83166171D01*
X46346857Y-83166171D01*
X46288800Y-83195200D01*
X46259771Y-83224229D01*
X46230743Y-83282286D01*
X46230743Y-83311314D01*
X46259771Y-83369371D01*
X46288800Y-83398400D01*
X46346857Y-83427429D01*
X46462971Y-83427429D01*
X46521029Y-83456457D01*
X46550057Y-83485486D01*
X46579086Y-83543543D01*
X46579086Y-83659657D01*
X46550057Y-83717714D01*
X46521029Y-83746743D01*
X46462971Y-83775771D01*
X46346857Y-83775771D01*
X46288800Y-83746743D01*
X46259771Y-83717714D01*
X46230743Y-83659657D01*
X46230743Y-83543543D01*
X46259771Y-83485486D01*
X46288800Y-83456457D01*
X46346857Y-83427429D01*
X49891885Y-99025771D02*
X50095085Y-98735486D01*
X50240228Y-99025771D02*
X50240228Y-98416171D01*
X50008000Y-98416171D01*
X49949942Y-98445200D01*
X49920914Y-98474229D01*
X49891885Y-98532286D01*
X49891885Y-98619371D01*
X49920914Y-98677429D01*
X49949942Y-98706457D01*
X50008000Y-98735486D01*
X50240228Y-98735486D01*
X49369371Y-98416171D02*
X49485485Y-98416171D01*
X49543542Y-98445200D01*
X49572571Y-98474229D01*
X49630628Y-98561314D01*
X49659657Y-98677429D01*
X49659657Y-98909657D01*
X49630628Y-98967714D01*
X49601600Y-98996743D01*
X49543542Y-99025771D01*
X49427428Y-99025771D01*
X49369371Y-98996743D01*
X49340342Y-98967714D01*
X49311314Y-98909657D01*
X49311314Y-98764514D01*
X49340342Y-98706457D01*
X49369371Y-98677429D01*
X49427428Y-98648400D01*
X49543542Y-98648400D01*
X49601600Y-98677429D01*
X49630628Y-98706457D01*
X49659657Y-98764514D01*
X49021029Y-99025771D02*
X48904914Y-99025771D01*
X48846857Y-98996743D01*
X48817829Y-98967714D01*
X48759771Y-98880629D01*
X48730743Y-98764514D01*
X48730743Y-98532286D01*
X48759771Y-98474229D01*
X48788800Y-98445200D01*
X48846857Y-98416171D01*
X48962971Y-98416171D01*
X49021029Y-98445200D01*
X49050057Y-98474229D01*
X49079086Y-98532286D01*
X49079086Y-98677429D01*
X49050057Y-98735486D01*
X49021029Y-98764514D01*
X48962971Y-98793543D01*
X48846857Y-98793543D01*
X48788800Y-98764514D01*
X48759771Y-98735486D01*
X48730743Y-98677429D01*
X54391885Y-76025771D02*
X54595085Y-75735486D01*
X54740228Y-76025771D02*
X54740228Y-75416171D01*
X54508000Y-75416171D01*
X54449942Y-75445200D01*
X54420914Y-75474229D01*
X54391885Y-75532286D01*
X54391885Y-75619371D01*
X54420914Y-75677429D01*
X54449942Y-75706457D01*
X54508000Y-75735486D01*
X54740228Y-75735486D01*
X54188685Y-75416171D02*
X53782285Y-75416171D01*
X54043542Y-76025771D01*
X53433943Y-75416171D02*
X53375886Y-75416171D01*
X53317829Y-75445200D01*
X53288800Y-75474229D01*
X53259771Y-75532286D01*
X53230743Y-75648400D01*
X53230743Y-75793543D01*
X53259771Y-75909657D01*
X53288800Y-75967714D01*
X53317829Y-75996743D01*
X53375886Y-76025771D01*
X53433943Y-76025771D01*
X53492000Y-75996743D01*
X53521029Y-75967714D01*
X53550057Y-75909657D01*
X53579086Y-75793543D01*
X53579086Y-75648400D01*
X53550057Y-75532286D01*
X53521029Y-75474229D01*
X53492000Y-75445200D01*
X53433943Y-75416171D01*
X54391885Y-71775771D02*
X54595085Y-71485486D01*
X54740228Y-71775771D02*
X54740228Y-71166171D01*
X54508000Y-71166171D01*
X54449942Y-71195200D01*
X54420914Y-71224229D01*
X54391885Y-71282286D01*
X54391885Y-71369371D01*
X54420914Y-71427429D01*
X54449942Y-71456457D01*
X54508000Y-71485486D01*
X54740228Y-71485486D01*
X54188685Y-71166171D02*
X53782285Y-71166171D01*
X54043542Y-71775771D01*
X53230743Y-71775771D02*
X53579086Y-71775771D01*
X53404914Y-71775771D02*
X53404914Y-71166171D01*
X53462971Y-71253257D01*
X53521029Y-71311314D01*
X53579086Y-71340343D01*
X54391885Y-73775771D02*
X54595085Y-73485486D01*
X54740228Y-73775771D02*
X54740228Y-73166171D01*
X54508000Y-73166171D01*
X54449942Y-73195200D01*
X54420914Y-73224229D01*
X54391885Y-73282286D01*
X54391885Y-73369371D01*
X54420914Y-73427429D01*
X54449942Y-73456457D01*
X54508000Y-73485486D01*
X54740228Y-73485486D01*
X54188685Y-73166171D02*
X53782285Y-73166171D01*
X54043542Y-73775771D01*
X53579086Y-73224229D02*
X53550057Y-73195200D01*
X53492000Y-73166171D01*
X53346857Y-73166171D01*
X53288800Y-73195200D01*
X53259771Y-73224229D01*
X53230743Y-73282286D01*
X53230743Y-73340343D01*
X53259771Y-73427429D01*
X53608114Y-73775771D01*
X53230743Y-73775771D01*
X53119276Y-23604895D02*
X53119276Y-24262876D01*
X53080571Y-24340286D01*
X53041867Y-24378990D01*
X52964457Y-24417695D01*
X52809638Y-24417695D01*
X52732229Y-24378990D01*
X52693524Y-24340286D01*
X52654819Y-24262876D01*
X52654819Y-23604895D01*
X52229066Y-24417695D02*
X52074247Y-24417695D01*
X51996838Y-24378990D01*
X51958133Y-24340286D01*
X51880724Y-24224171D01*
X51842019Y-24069352D01*
X51842019Y-23759714D01*
X51880724Y-23682305D01*
X51919428Y-23643600D01*
X51996838Y-23604895D01*
X52151657Y-23604895D01*
X52229066Y-23643600D01*
X52267771Y-23682305D01*
X52306476Y-23759714D01*
X52306476Y-23953238D01*
X52267771Y-24030648D01*
X52229066Y-24069352D01*
X52151657Y-24108057D01*
X51996838Y-24108057D01*
X51919428Y-24069352D01*
X51880724Y-24030648D01*
X51842019Y-23953238D01*
X59756323Y-45804895D02*
X59756323Y-46462876D01*
X59717618Y-46540286D01*
X59678914Y-46578990D01*
X59601504Y-46617695D01*
X59446685Y-46617695D01*
X59369276Y-46578990D01*
X59330571Y-46540286D01*
X59291866Y-46462876D01*
X59291866Y-45804895D01*
X58479066Y-46617695D02*
X58943523Y-46617695D01*
X58711294Y-46617695D02*
X58711294Y-45804895D01*
X58788704Y-45921010D01*
X58866113Y-45998419D01*
X58943523Y-46037124D01*
X57975904Y-45804895D02*
X57898495Y-45804895D01*
X57821085Y-45843600D01*
X57782380Y-45882305D01*
X57743676Y-45959714D01*
X57704971Y-46114533D01*
X57704971Y-46308057D01*
X57743676Y-46462876D01*
X57782380Y-46540286D01*
X57821085Y-46578990D01*
X57898495Y-46617695D01*
X57975904Y-46617695D01*
X58053314Y-46578990D01*
X58092018Y-46540286D01*
X58130723Y-46462876D01*
X58169428Y-46308057D01*
X58169428Y-46114533D01*
X58130723Y-45959714D01*
X58092018Y-45882305D01*
X58053314Y-45843600D01*
X57975904Y-45804895D01*
X59756323Y-39304895D02*
X59756323Y-39962876D01*
X59717618Y-40040286D01*
X59678914Y-40078990D01*
X59601504Y-40117695D01*
X59446685Y-40117695D01*
X59369276Y-40078990D01*
X59330571Y-40040286D01*
X59291866Y-39962876D01*
X59291866Y-39304895D01*
X58479066Y-40117695D02*
X58943523Y-40117695D01*
X58711294Y-40117695D02*
X58711294Y-39304895D01*
X58788704Y-39421010D01*
X58866113Y-39498419D01*
X58943523Y-39537124D01*
X57704971Y-40117695D02*
X58169428Y-40117695D01*
X57937199Y-40117695D02*
X57937199Y-39304895D01*
X58014609Y-39421010D01*
X58092018Y-39498419D01*
X58169428Y-39537124D01*
X17330476Y-20761619D02*
X16991809Y-21777619D01*
X16653143Y-20761619D01*
X15733905Y-21777619D02*
X16072571Y-21293810D01*
X16314476Y-21777619D02*
X16314476Y-20761619D01*
X15927429Y-20761619D01*
X15830667Y-20810000D01*
X15782286Y-20858381D01*
X15733905Y-20955143D01*
X15733905Y-21100286D01*
X15782286Y-21197048D01*
X15830667Y-21245429D01*
X15927429Y-21293810D01*
X16314476Y-21293810D01*
X14814667Y-20761619D02*
X15298476Y-20761619D01*
X15346857Y-21245429D01*
X15298476Y-21197048D01*
X15201714Y-21148667D01*
X14959810Y-21148667D01*
X14863048Y-21197048D01*
X14814667Y-21245429D01*
X14766286Y-21342190D01*
X14766286Y-21584095D01*
X14814667Y-21680857D01*
X14863048Y-21729238D01*
X14959810Y-21777619D01*
X15201714Y-21777619D01*
X15298476Y-21729238D01*
X15346857Y-21680857D01*
X17330476Y-45261619D02*
X16991809Y-46277619D01*
X16653143Y-45261619D01*
X15733905Y-46277619D02*
X16072571Y-45793810D01*
X16314476Y-46277619D02*
X16314476Y-45261619D01*
X15927429Y-45261619D01*
X15830667Y-45310000D01*
X15782286Y-45358381D01*
X15733905Y-45455143D01*
X15733905Y-45600286D01*
X15782286Y-45697048D01*
X15830667Y-45745429D01*
X15927429Y-45793810D01*
X16314476Y-45793810D01*
X15395238Y-45261619D02*
X14717905Y-45261619D01*
X15153333Y-46277619D01*
X59272514Y-93540286D02*
X59311219Y-93578990D01*
X59427333Y-93617695D01*
X59504743Y-93617695D01*
X59620857Y-93578990D01*
X59698266Y-93501581D01*
X59736971Y-93424171D01*
X59775676Y-93269352D01*
X59775676Y-93153238D01*
X59736971Y-92998419D01*
X59698266Y-92921010D01*
X59620857Y-92843600D01*
X59504743Y-92804895D01*
X59427333Y-92804895D01*
X59311219Y-92843600D01*
X59272514Y-92882305D01*
X58962876Y-92882305D02*
X58924171Y-92843600D01*
X58846762Y-92804895D01*
X58653238Y-92804895D01*
X58575828Y-92843600D01*
X58537124Y-92882305D01*
X58498419Y-92959714D01*
X58498419Y-93037124D01*
X58537124Y-93153238D01*
X59001581Y-93617695D01*
X58498419Y-93617695D01*
X57763029Y-92804895D02*
X58150076Y-92804895D01*
X58188781Y-93191943D01*
X58150076Y-93153238D01*
X58072667Y-93114533D01*
X57879143Y-93114533D01*
X57801733Y-93153238D01*
X57763029Y-93191943D01*
X57724324Y-93269352D01*
X57724324Y-93462876D01*
X57763029Y-93540286D01*
X57801733Y-93578990D01*
X57879143Y-93617695D01*
X58072667Y-93617695D01*
X58150076Y-93578990D01*
X58188781Y-93540286D01*
X30772514Y-93540286D02*
X30811219Y-93578990D01*
X30927333Y-93617695D01*
X31004743Y-93617695D01*
X31120857Y-93578990D01*
X31198266Y-93501581D01*
X31236971Y-93424171D01*
X31275676Y-93269352D01*
X31275676Y-93153238D01*
X31236971Y-92998419D01*
X31198266Y-92921010D01*
X31120857Y-92843600D01*
X31004743Y-92804895D01*
X30927333Y-92804895D01*
X30811219Y-92843600D01*
X30772514Y-92882305D01*
X29998419Y-93617695D02*
X30462876Y-93617695D01*
X30230647Y-93617695D02*
X30230647Y-92804895D01*
X30308057Y-92921010D01*
X30385466Y-92998419D01*
X30462876Y-93037124D01*
X29533962Y-93153238D02*
X29611371Y-93114533D01*
X29650076Y-93075829D01*
X29688781Y-92998419D01*
X29688781Y-92959714D01*
X29650076Y-92882305D01*
X29611371Y-92843600D01*
X29533962Y-92804895D01*
X29379143Y-92804895D01*
X29301733Y-92843600D01*
X29263029Y-92882305D01*
X29224324Y-92959714D01*
X29224324Y-92998419D01*
X29263029Y-93075829D01*
X29301733Y-93114533D01*
X29379143Y-93153238D01*
X29533962Y-93153238D01*
X29611371Y-93191943D01*
X29650076Y-93230648D01*
X29688781Y-93308057D01*
X29688781Y-93462876D01*
X29650076Y-93540286D01*
X29611371Y-93578990D01*
X29533962Y-93617695D01*
X29379143Y-93617695D01*
X29301733Y-93578990D01*
X29263029Y-93540286D01*
X29224324Y-93462876D01*
X29224324Y-93308057D01*
X29263029Y-93230648D01*
X29301733Y-93191943D01*
X29379143Y-93153238D01*
X30885466Y-63540286D02*
X30924171Y-63578990D01*
X31040285Y-63617695D01*
X31117695Y-63617695D01*
X31233809Y-63578990D01*
X31311218Y-63501581D01*
X31349923Y-63424171D01*
X31388628Y-63269352D01*
X31388628Y-63153238D01*
X31349923Y-62998419D01*
X31311218Y-62921010D01*
X31233809Y-62843600D01*
X31117695Y-62804895D01*
X31040285Y-62804895D01*
X30924171Y-62843600D01*
X30885466Y-62882305D01*
X30614533Y-62804895D02*
X30072666Y-62804895D01*
X30421009Y-63617695D01*
X58385466Y-63540286D02*
X58424171Y-63578990D01*
X58540285Y-63617695D01*
X58617695Y-63617695D01*
X58733809Y-63578990D01*
X58811218Y-63501581D01*
X58849923Y-63424171D01*
X58888628Y-63269352D01*
X58888628Y-63153238D01*
X58849923Y-62998419D01*
X58811218Y-62921010D01*
X58733809Y-62843600D01*
X58617695Y-62804895D01*
X58540285Y-62804895D01*
X58424171Y-62843600D01*
X58385466Y-62882305D01*
X57688780Y-62804895D02*
X57843599Y-62804895D01*
X57921009Y-62843600D01*
X57959714Y-62882305D01*
X58037123Y-62998419D01*
X58075828Y-63153238D01*
X58075828Y-63462876D01*
X58037123Y-63540286D01*
X57998418Y-63578990D01*
X57921009Y-63617695D01*
X57766190Y-63617695D01*
X57688780Y-63578990D01*
X57650076Y-63540286D01*
X57611371Y-63462876D01*
X57611371Y-63269352D01*
X57650076Y-63191943D01*
X57688780Y-63153238D01*
X57766190Y-63114533D01*
X57921009Y-63114533D01*
X57998418Y-63153238D01*
X58037123Y-63191943D01*
X58075828Y-63269352D01*
X27058057Y-51083829D02*
X27116114Y-51054800D01*
X27174171Y-50996743D01*
X27261257Y-50909657D01*
X27319314Y-50880629D01*
X27377371Y-50880629D01*
X27348343Y-51025771D02*
X27406400Y-50996743D01*
X27464457Y-50938686D01*
X27493486Y-50822571D01*
X27493486Y-50619371D01*
X27464457Y-50503257D01*
X27406400Y-50445200D01*
X27348343Y-50416171D01*
X27232229Y-50416171D01*
X27174171Y-50445200D01*
X27116114Y-50503257D01*
X27087086Y-50619371D01*
X27087086Y-50822571D01*
X27116114Y-50938686D01*
X27174171Y-50996743D01*
X27232229Y-51025771D01*
X27348343Y-51025771D01*
X26506514Y-51025771D02*
X26854857Y-51025771D01*
X26680685Y-51025771D02*
X26680685Y-50416171D01*
X26738742Y-50503257D01*
X26796800Y-50561314D01*
X26854857Y-50590343D01*
X30558057Y-21333829D02*
X30616114Y-21304800D01*
X30674171Y-21246743D01*
X30761257Y-21159657D01*
X30819314Y-21130629D01*
X30877371Y-21130629D01*
X30848343Y-21275771D02*
X30906400Y-21246743D01*
X30964457Y-21188686D01*
X30993486Y-21072571D01*
X30993486Y-20869371D01*
X30964457Y-20753257D01*
X30906400Y-20695200D01*
X30848343Y-20666171D01*
X30732229Y-20666171D01*
X30674171Y-20695200D01*
X30616114Y-20753257D01*
X30587086Y-20869371D01*
X30587086Y-21072571D01*
X30616114Y-21188686D01*
X30674171Y-21246743D01*
X30732229Y-21275771D01*
X30848343Y-21275771D01*
X30354857Y-20724229D02*
X30325828Y-20695200D01*
X30267771Y-20666171D01*
X30122628Y-20666171D01*
X30064571Y-20695200D01*
X30035542Y-20724229D01*
X30006514Y-20782286D01*
X30006514Y-20840343D01*
X30035542Y-20927429D01*
X30383885Y-21275771D01*
X30006514Y-21275771D01*
X45119276Y-83054895D02*
X45119276Y-83712876D01*
X45080571Y-83790286D01*
X45041867Y-83828990D01*
X44964457Y-83867695D01*
X44809638Y-83867695D01*
X44732229Y-83828990D01*
X44693524Y-83790286D01*
X44654819Y-83712876D01*
X44654819Y-83054895D01*
X43919428Y-83325829D02*
X43919428Y-83867695D01*
X44112952Y-83016190D02*
X44306476Y-83596762D01*
X43803314Y-83596762D01*
X45369276Y-39554895D02*
X45369276Y-40212876D01*
X45330571Y-40290286D01*
X45291867Y-40328990D01*
X45214457Y-40367695D01*
X45059638Y-40367695D01*
X44982229Y-40328990D01*
X44943524Y-40290286D01*
X44904819Y-40212876D01*
X44904819Y-39554895D01*
X44595181Y-39554895D02*
X44092019Y-39554895D01*
X44362952Y-39864533D01*
X44246838Y-39864533D01*
X44169428Y-39903238D01*
X44130724Y-39941943D01*
X44092019Y-40019352D01*
X44092019Y-40212876D01*
X44130724Y-40290286D01*
X44169428Y-40328990D01*
X44246838Y-40367695D01*
X44479066Y-40367695D01*
X44556476Y-40328990D01*
X44595181Y-40290286D01*
X30369276Y-47304895D02*
X30369276Y-47962876D01*
X30330571Y-48040286D01*
X30291867Y-48078990D01*
X30214457Y-48117695D01*
X30059638Y-48117695D01*
X29982229Y-48078990D01*
X29943524Y-48040286D01*
X29904819Y-47962876D01*
X29904819Y-47304895D01*
X29556476Y-47382305D02*
X29517771Y-47343600D01*
X29440362Y-47304895D01*
X29246838Y-47304895D01*
X29169428Y-47343600D01*
X29130724Y-47382305D01*
X29092019Y-47459714D01*
X29092019Y-47537124D01*
X29130724Y-47653238D01*
X29595181Y-48117695D01*
X29092019Y-48117695D01*
X31119276Y-27804895D02*
X31119276Y-28462876D01*
X31080571Y-28540286D01*
X31041867Y-28578990D01*
X30964457Y-28617695D01*
X30809638Y-28617695D01*
X30732229Y-28578990D01*
X30693524Y-28540286D01*
X30654819Y-28462876D01*
X30654819Y-27804895D01*
X29842019Y-28617695D02*
X30306476Y-28617695D01*
X30074247Y-28617695D02*
X30074247Y-27804895D01*
X30151657Y-27921010D01*
X30229066Y-27998419D01*
X30306476Y-28037124D01*
X45119276Y-65804895D02*
X45119276Y-66462876D01*
X45080571Y-66540286D01*
X45041867Y-66578990D01*
X44964457Y-66617695D01*
X44809638Y-66617695D01*
X44732229Y-66578990D01*
X44693524Y-66540286D01*
X44654819Y-66462876D01*
X44654819Y-65804895D01*
X43880724Y-65804895D02*
X44267771Y-65804895D01*
X44306476Y-66191943D01*
X44267771Y-66153238D01*
X44190362Y-66114533D01*
X43996838Y-66114533D01*
X43919428Y-66153238D01*
X43880724Y-66191943D01*
X43842019Y-66269352D01*
X43842019Y-66462876D01*
X43880724Y-66540286D01*
X43919428Y-66578990D01*
X43996838Y-66617695D01*
X44190362Y-66617695D01*
X44267771Y-66578990D01*
X44306476Y-66540286D01*
X22619276Y-79804895D02*
X22619276Y-80462876D01*
X22580571Y-80540286D01*
X22541867Y-80578990D01*
X22464457Y-80617695D01*
X22309638Y-80617695D01*
X22232229Y-80578990D01*
X22193524Y-80540286D01*
X22154819Y-80462876D01*
X22154819Y-79804895D01*
X21419428Y-79804895D02*
X21574247Y-79804895D01*
X21651657Y-79843600D01*
X21690362Y-79882305D01*
X21767771Y-79998419D01*
X21806476Y-80153238D01*
X21806476Y-80462876D01*
X21767771Y-80540286D01*
X21729066Y-80578990D01*
X21651657Y-80617695D01*
X21496838Y-80617695D01*
X21419428Y-80578990D01*
X21380724Y-80540286D01*
X21342019Y-80462876D01*
X21342019Y-80269352D01*
X21380724Y-80191943D01*
X21419428Y-80153238D01*
X21496838Y-80114533D01*
X21651657Y-80114533D01*
X21729066Y-80153238D01*
X21767771Y-80191943D01*
X21806476Y-80269352D01*
X49869276Y-86554895D02*
X49869276Y-87212876D01*
X49830571Y-87290286D01*
X49791867Y-87328990D01*
X49714457Y-87367695D01*
X49559638Y-87367695D01*
X49482229Y-87328990D01*
X49443524Y-87290286D01*
X49404819Y-87212876D01*
X49404819Y-86554895D01*
X49095181Y-86554895D02*
X48553314Y-86554895D01*
X48901657Y-87367695D01*
X46369276Y-68554895D02*
X46369276Y-69212876D01*
X46330571Y-69290286D01*
X46291867Y-69328990D01*
X46214457Y-69367695D01*
X46059638Y-69367695D01*
X45982229Y-69328990D01*
X45943524Y-69290286D01*
X45904819Y-69212876D01*
X45904819Y-68554895D01*
X45401657Y-68903238D02*
X45479066Y-68864533D01*
X45517771Y-68825829D01*
X45556476Y-68748419D01*
X45556476Y-68709714D01*
X45517771Y-68632305D01*
X45479066Y-68593600D01*
X45401657Y-68554895D01*
X45246838Y-68554895D01*
X45169428Y-68593600D01*
X45130724Y-68632305D01*
X45092019Y-68709714D01*
X45092019Y-68748419D01*
X45130724Y-68825829D01*
X45169428Y-68864533D01*
X45246838Y-68903238D01*
X45401657Y-68903238D01*
X45479066Y-68941943D01*
X45517771Y-68980648D01*
X45556476Y-69058057D01*
X45556476Y-69212876D01*
X45517771Y-69290286D01*
X45479066Y-69328990D01*
X45401657Y-69367695D01*
X45246838Y-69367695D01*
X45169428Y-69328990D01*
X45130724Y-69290286D01*
X45092019Y-69212876D01*
X45092019Y-69058057D01*
X45130724Y-68980648D01*
X45169428Y-68941943D01*
X45246838Y-68903238D01*
X31391885Y-17275771D02*
X31595085Y-16985486D01*
X31740228Y-17275771D02*
X31740228Y-16666171D01*
X31508000Y-16666171D01*
X31449942Y-16695200D01*
X31420914Y-16724229D01*
X31391885Y-16782286D01*
X31391885Y-16869371D01*
X31420914Y-16927429D01*
X31449942Y-16956457D01*
X31508000Y-16985486D01*
X31740228Y-16985486D01*
X30811314Y-17275771D02*
X31159657Y-17275771D01*
X30985485Y-17275771D02*
X30985485Y-16666171D01*
X31043542Y-16753257D01*
X31101600Y-16811314D01*
X31159657Y-16840343D01*
X30521029Y-17275771D02*
X30404914Y-17275771D01*
X30346857Y-17246743D01*
X30317829Y-17217714D01*
X30259771Y-17130629D01*
X30230743Y-17014514D01*
X30230743Y-16782286D01*
X30259771Y-16724229D01*
X30288800Y-16695200D01*
X30346857Y-16666171D01*
X30462971Y-16666171D01*
X30521029Y-16695200D01*
X30550057Y-16724229D01*
X30579086Y-16782286D01*
X30579086Y-16927429D01*
X30550057Y-16985486D01*
X30521029Y-17014514D01*
X30462971Y-17043543D01*
X30346857Y-17043543D01*
X30288800Y-17014514D01*
X30259771Y-16985486D01*
X30230743Y-16927429D01*
X70141885Y-23275771D02*
X70345085Y-22985486D01*
X70490228Y-23275771D02*
X70490228Y-22666171D01*
X70258000Y-22666171D01*
X70199942Y-22695200D01*
X70170914Y-22724229D01*
X70141885Y-22782286D01*
X70141885Y-22869371D01*
X70170914Y-22927429D01*
X70199942Y-22956457D01*
X70258000Y-22985486D01*
X70490228Y-22985486D01*
X69619371Y-22666171D02*
X69735485Y-22666171D01*
X69793542Y-22695200D01*
X69822571Y-22724229D01*
X69880628Y-22811314D01*
X69909657Y-22927429D01*
X69909657Y-23159657D01*
X69880628Y-23217714D01*
X69851600Y-23246743D01*
X69793542Y-23275771D01*
X69677428Y-23275771D01*
X69619371Y-23246743D01*
X69590342Y-23217714D01*
X69561314Y-23159657D01*
X69561314Y-23014514D01*
X69590342Y-22956457D01*
X69619371Y-22927429D01*
X69677428Y-22898400D01*
X69793542Y-22898400D01*
X69851600Y-22927429D01*
X69880628Y-22956457D01*
X69909657Y-23014514D01*
X69358114Y-22666171D02*
X68951714Y-22666171D01*
X69212971Y-23275771D01*
X70141885Y-40275771D02*
X70345085Y-39985486D01*
X70490228Y-40275771D02*
X70490228Y-39666171D01*
X70258000Y-39666171D01*
X70199942Y-39695200D01*
X70170914Y-39724229D01*
X70141885Y-39782286D01*
X70141885Y-39869371D01*
X70170914Y-39927429D01*
X70199942Y-39956457D01*
X70258000Y-39985486D01*
X70490228Y-39985486D01*
X69619371Y-39666171D02*
X69735485Y-39666171D01*
X69793542Y-39695200D01*
X69822571Y-39724229D01*
X69880628Y-39811314D01*
X69909657Y-39927429D01*
X69909657Y-40159657D01*
X69880628Y-40217714D01*
X69851600Y-40246743D01*
X69793542Y-40275771D01*
X69677428Y-40275771D01*
X69619371Y-40246743D01*
X69590342Y-40217714D01*
X69561314Y-40159657D01*
X69561314Y-40014514D01*
X69590342Y-39956457D01*
X69619371Y-39927429D01*
X69677428Y-39898400D01*
X69793542Y-39898400D01*
X69851600Y-39927429D01*
X69880628Y-39956457D01*
X69909657Y-40014514D01*
X69038800Y-39666171D02*
X69154914Y-39666171D01*
X69212971Y-39695200D01*
X69242000Y-39724229D01*
X69300057Y-39811314D01*
X69329086Y-39927429D01*
X69329086Y-40159657D01*
X69300057Y-40217714D01*
X69271029Y-40246743D01*
X69212971Y-40275771D01*
X69096857Y-40275771D01*
X69038800Y-40246743D01*
X69009771Y-40217714D01*
X68980743Y-40159657D01*
X68980743Y-40014514D01*
X69009771Y-39956457D01*
X69038800Y-39927429D01*
X69096857Y-39898400D01*
X69212971Y-39898400D01*
X69271029Y-39927429D01*
X69300057Y-39956457D01*
X69329086Y-40014514D01*
D11*
X70297619Y-68416667D02*
X66964286Y-68416667D01*
X69107143Y-75416667D01*
X64821429Y-75416667D02*
X63869048Y-75416667D01*
X63392857Y-75083333D01*
X63154762Y-74750000D01*
X62678571Y-73750000D01*
X62440476Y-72416667D01*
X62440476Y-69750000D01*
X62678571Y-69083333D01*
X62916667Y-68750000D01*
X63392857Y-68416667D01*
X64345238Y-68416667D01*
X64821429Y-68750000D01*
X65059524Y-69083333D01*
X65297619Y-69750000D01*
X65297619Y-71416667D01*
X65059524Y-72083333D01*
X64821429Y-72416667D01*
X64345238Y-72750000D01*
X63392857Y-72750000D01*
X62916667Y-72416667D01*
X62678571Y-72083333D01*
X62440476Y-71416667D01*
D14*
X39949942Y-83275771D02*
X39949942Y-82666171D01*
X39804799Y-82666171D01*
X39717714Y-82695200D01*
X39659656Y-82753257D01*
X39630628Y-82811314D01*
X39601599Y-82927429D01*
X39601599Y-83014514D01*
X39630628Y-83130629D01*
X39659656Y-83188686D01*
X39717714Y-83246743D01*
X39804799Y-83275771D01*
X39949942Y-83275771D01*
X39050056Y-82666171D02*
X39340342Y-82666171D01*
X39369371Y-82956457D01*
X39340342Y-82927429D01*
X39282285Y-82898400D01*
X39137142Y-82898400D01*
X39079085Y-82927429D01*
X39050056Y-82956457D01*
X39021028Y-83014514D01*
X39021028Y-83159657D01*
X39050056Y-83217714D01*
X39079085Y-83246743D01*
X39137142Y-83275771D01*
X39282285Y-83275771D01*
X39340342Y-83246743D01*
X39369371Y-83217714D01*
X39949942Y-81775771D02*
X39949942Y-81166171D01*
X39804799Y-81166171D01*
X39717714Y-81195200D01*
X39659656Y-81253257D01*
X39630628Y-81311314D01*
X39601599Y-81427429D01*
X39601599Y-81514514D01*
X39630628Y-81630629D01*
X39659656Y-81688686D01*
X39717714Y-81746743D01*
X39804799Y-81775771D01*
X39949942Y-81775771D01*
X39079085Y-81166171D02*
X39195199Y-81166171D01*
X39253256Y-81195200D01*
X39282285Y-81224229D01*
X39340342Y-81311314D01*
X39369371Y-81427429D01*
X39369371Y-81659657D01*
X39340342Y-81717714D01*
X39311314Y-81746743D01*
X39253256Y-81775771D01*
X39137142Y-81775771D01*
X39079085Y-81746743D01*
X39050056Y-81717714D01*
X39021028Y-81659657D01*
X39021028Y-81514514D01*
X39050056Y-81456457D01*
X39079085Y-81427429D01*
X39137142Y-81398400D01*
X39253256Y-81398400D01*
X39311314Y-81427429D01*
X39340342Y-81456457D01*
X39369371Y-81514514D01*
X67699942Y-27275771D02*
X67699942Y-26666171D01*
X67554799Y-26666171D01*
X67467714Y-26695200D01*
X67409656Y-26753257D01*
X67380628Y-26811314D01*
X67351599Y-26927429D01*
X67351599Y-27014514D01*
X67380628Y-27130629D01*
X67409656Y-27188686D01*
X67467714Y-27246743D01*
X67554799Y-27275771D01*
X67699942Y-27275771D01*
X67148399Y-26666171D02*
X66741999Y-26666171D01*
X67003256Y-27275771D01*
%LPC*%
D22*
X41850900Y-47000000D03*
X40149100Y-47000000D03*
X22149100Y-50500000D03*
X23850900Y-50500000D03*
X52350900Y-41000000D03*
X50649100Y-41000000D03*
X47149100Y-45000000D03*
X48850900Y-45000000D03*
X35850900Y-21000000D03*
X34149100Y-21000000D03*
X32149100Y-83500000D03*
X33850900Y-83500000D03*
X38350900Y-79500000D03*
X36649100Y-79500000D03*
D23*
X55000000Y-79500000D03*
D24*
X57000000Y-79500000D03*
D22*
X52350900Y-84000000D03*
X50649100Y-84000000D03*
D25*
X59250000Y-31649100D03*
X59250000Y-33350900D03*
X67250000Y-31899100D03*
X67250000Y-33600900D03*
D23*
X73500000Y-44000000D03*
D24*
X71500000Y-44000000D03*
D23*
X71500000Y-18500000D03*
D24*
X73500000Y-18500000D03*
D26*
X73500000Y-26500000D03*
D27*
X70960000Y-26500000D03*
X73500000Y-29040000D03*
X70960000Y-29040000D03*
X73500000Y-31580000D03*
X70960000Y-31580000D03*
X73500000Y-34120000D03*
X70960000Y-34120000D03*
X73500000Y-36660000D03*
X70960000Y-36660000D03*
D28*
X51000000Y-64730000D03*
X50047500Y-67270000D03*
X51952500Y-67270000D03*
X38000000Y-64730000D03*
X37047500Y-67270000D03*
X38952500Y-67270000D03*
X38000000Y-94730000D03*
X37047500Y-97270000D03*
X38952500Y-97270000D03*
X51000000Y-94730000D03*
X50047500Y-97270000D03*
X51952500Y-97270000D03*
D22*
X24649100Y-33000000D03*
X26350900Y-33000000D03*
X21649100Y-31000000D03*
X23350900Y-31000000D03*
X21649100Y-29000000D03*
X23350900Y-29000000D03*
X21649100Y-27000000D03*
X23350900Y-27000000D03*
X19850900Y-27000000D03*
X18149100Y-27000000D03*
X19850900Y-24500000D03*
X18149100Y-24500000D03*
X40149100Y-39000000D03*
X41850900Y-39000000D03*
X40149100Y-49000000D03*
X41850900Y-49000000D03*
X27649100Y-42500000D03*
X29350900Y-42500000D03*
X21649100Y-33000000D03*
X23350900Y-33000000D03*
X25850900Y-42500000D03*
X24149100Y-42500000D03*
X27649100Y-40500000D03*
X29350900Y-40500000D03*
X23350900Y-24500000D03*
X21649100Y-24500000D03*
X41850900Y-45000000D03*
X40149100Y-45000000D03*
X25850900Y-40500000D03*
X24149100Y-40500000D03*
X26850900Y-22500000D03*
X25149100Y-22500000D03*
X26850900Y-20500000D03*
X25149100Y-20500000D03*
X45350900Y-47000000D03*
X43649100Y-47000000D03*
X23850900Y-52500000D03*
X22149100Y-52500000D03*
X23850900Y-48500000D03*
X22149100Y-48500000D03*
X48850900Y-47000000D03*
X47149100Y-47000000D03*
X26850900Y-18500000D03*
X25149100Y-18500000D03*
X50649100Y-39000000D03*
X52350900Y-39000000D03*
X26850900Y-16500000D03*
X25149100Y-16500000D03*
X52350900Y-43000000D03*
X50649100Y-43000000D03*
X34149100Y-19000000D03*
X35850900Y-19000000D03*
X34149100Y-23000000D03*
X35850900Y-23000000D03*
X50649100Y-55500000D03*
X52350900Y-55500000D03*
X52350900Y-58000000D03*
X50649100Y-58000000D03*
X24350900Y-68000000D03*
X22649100Y-68000000D03*
X47350900Y-54000000D03*
X45649100Y-54000000D03*
X33649100Y-56500000D03*
X35350900Y-56500000D03*
X27649100Y-71500000D03*
X29350900Y-71500000D03*
X27649100Y-73500000D03*
X29350900Y-73500000D03*
X29350900Y-75500000D03*
X27649100Y-75500000D03*
X38350900Y-56500000D03*
X36649100Y-56500000D03*
X36649100Y-54000000D03*
X38350900Y-54000000D03*
X41649100Y-54000000D03*
X43350900Y-54000000D03*
X38350900Y-70500000D03*
X36649100Y-70500000D03*
X48149100Y-16000000D03*
X49850900Y-16000000D03*
X38350900Y-72500000D03*
X36649100Y-72500000D03*
X55850900Y-55500000D03*
X54149100Y-55500000D03*
X38350900Y-75500000D03*
X36649100Y-75500000D03*
X33850900Y-85500000D03*
X32149100Y-85500000D03*
X36649100Y-77500000D03*
X38350900Y-77500000D03*
X50649100Y-79500000D03*
X52350900Y-79500000D03*
X38350900Y-85500000D03*
X36649100Y-85500000D03*
X32149100Y-81500000D03*
X33850900Y-81500000D03*
X32649100Y-95500000D03*
X34350900Y-95500000D03*
X52350900Y-82000000D03*
X50649100Y-82000000D03*
X36649100Y-87500000D03*
X38350900Y-87500000D03*
X32149100Y-87500000D03*
X33850900Y-87500000D03*
X67350900Y-99000000D03*
X65649100Y-99000000D03*
X19149100Y-68000000D03*
X20850900Y-68000000D03*
X41649100Y-85000000D03*
X43350900Y-85000000D03*
X34350900Y-97500000D03*
X32649100Y-97500000D03*
D25*
X61250000Y-31649100D03*
X61250000Y-33350900D03*
X65250000Y-33600900D03*
X65250000Y-31899100D03*
D22*
X16350900Y-73500000D03*
X14649100Y-73500000D03*
D25*
X65250000Y-30100900D03*
X65250000Y-28399100D03*
D22*
X14649100Y-71500000D03*
X16350900Y-71500000D03*
X42850900Y-98000000D03*
X41149100Y-98000000D03*
D25*
X61250000Y-30350900D03*
X61250000Y-28649100D03*
D22*
X41149100Y-100000000D03*
X42850900Y-100000000D03*
X47350900Y-85000000D03*
X45649100Y-85000000D03*
X46149100Y-98000000D03*
X47850900Y-98000000D03*
X50649100Y-75500000D03*
X52350900Y-75500000D03*
X50649100Y-71500000D03*
X52350900Y-71500000D03*
X50649100Y-73500000D03*
X52350900Y-73500000D03*
D29*
X59500000Y-18000000D03*
X64500000Y-18000000D03*
X64500000Y-23000000D03*
X59500000Y-23000000D03*
D30*
X32000000Y-40500000D03*
X22500000Y-16500000D03*
D31*
X49550000Y-22775000D03*
X49550000Y-22125000D03*
X49550000Y-21475000D03*
X49550000Y-20825000D03*
X49550000Y-20175000D03*
X49550000Y-19525000D03*
X49550000Y-18875000D03*
X49550000Y-18225000D03*
X55450000Y-18225000D03*
X55450000Y-18875000D03*
X55450000Y-19525000D03*
X55450000Y-20175000D03*
X55450000Y-20825000D03*
X55450000Y-21475000D03*
X55450000Y-22125000D03*
X55450000Y-22775000D03*
X66950000Y-41725000D03*
X66950000Y-42375000D03*
X66950000Y-43025000D03*
X66950000Y-43675000D03*
X66950000Y-44325000D03*
X66950000Y-44975000D03*
X66950000Y-45625000D03*
X66950000Y-46275000D03*
X61050000Y-46275000D03*
X61050000Y-45625000D03*
X61050000Y-44975000D03*
X61050000Y-44325000D03*
X61050000Y-43675000D03*
X61050000Y-43025000D03*
X61050000Y-42375000D03*
X61050000Y-41725000D03*
D32*
X66950000Y-35550000D03*
X66950000Y-36200000D03*
X66950000Y-36850000D03*
X66950000Y-37500000D03*
X66950000Y-38150000D03*
X66950000Y-38800000D03*
X66950000Y-39450000D03*
X61050000Y-39450000D03*
X61050000Y-38800000D03*
X61050000Y-38150000D03*
X61050000Y-37500000D03*
X61050000Y-36850000D03*
X61050000Y-36200000D03*
X61050000Y-35550000D03*
D33*
X13460000Y-17000000D03*
X16000000Y-19540000D03*
X18540000Y-17000000D03*
X13460000Y-41500000D03*
X16000000Y-44040000D03*
X18540000Y-41500000D03*
D34*
X17822777Y-33606433D03*
X21918537Y-36474315D03*
X13727017Y-30738551D03*
X36177223Y-33393567D03*
X32081463Y-30525685D03*
X40272983Y-36261449D03*
X17822777Y-59393567D03*
X13727017Y-62261449D03*
X21918537Y-56525685D03*
X71177223Y-59393567D03*
X67081463Y-56525685D03*
X75272983Y-62261449D03*
X52822777Y-33393567D03*
X48727017Y-36261449D03*
X56918537Y-30525685D03*
D35*
X51000000Y-91500000D03*
X56000000Y-91500000D03*
X38000000Y-91500000D03*
X33000000Y-91500000D03*
X38000000Y-61500000D03*
X33000000Y-61500000D03*
X51000000Y-61500000D03*
X56000000Y-61500000D03*
D36*
X27797560Y-48352300D03*
X27797560Y-49000000D03*
X27797560Y-49647700D03*
X26202440Y-49647700D03*
X26202440Y-49000000D03*
X26202440Y-48352300D03*
X29702440Y-23147700D03*
X29702440Y-22500000D03*
X29702440Y-21852300D03*
X31297560Y-21852300D03*
X31297560Y-22500000D03*
X31297560Y-23147700D03*
D37*
X41806000Y-82455400D03*
X41806000Y-81820400D03*
X41806000Y-81160000D03*
X41806000Y-80525000D03*
X47394000Y-80525000D03*
X47394000Y-81172700D03*
X47394000Y-81820400D03*
X47394000Y-82468100D03*
X41806000Y-42955400D03*
X41806000Y-42320400D03*
X41806000Y-41660000D03*
X41806000Y-41025000D03*
X47394000Y-41025000D03*
X47394000Y-41672700D03*
X47394000Y-42320400D03*
X47394000Y-42968100D03*
X29694000Y-44544600D03*
X29694000Y-45179600D03*
X29694000Y-45840000D03*
X29694000Y-46475000D03*
X24106000Y-46475000D03*
X24106000Y-45827300D03*
X24106000Y-45179600D03*
X24106000Y-44531900D03*
X27806000Y-26955400D03*
X27806000Y-26320400D03*
X27806000Y-25660000D03*
X27806000Y-25025000D03*
X33394000Y-25025000D03*
X33394000Y-25672700D03*
X33394000Y-26320400D03*
X33394000Y-26968100D03*
D38*
X47098420Y-56055000D03*
X47098420Y-57325000D03*
X47098420Y-58595000D03*
X47098420Y-59865000D03*
X47098420Y-61135000D03*
X47098420Y-62405000D03*
X47098420Y-63675000D03*
X47098420Y-64945000D03*
X41901580Y-64945000D03*
X41901580Y-63675000D03*
X41901580Y-62405000D03*
X41901580Y-61135000D03*
X41901580Y-59865000D03*
X41901580Y-58595000D03*
X41901580Y-57325000D03*
X41901580Y-56055000D03*
X24598420Y-70055000D03*
X24598420Y-71325000D03*
X24598420Y-72595000D03*
X24598420Y-73865000D03*
X24598420Y-75135000D03*
X24598420Y-76405000D03*
X24598420Y-77675000D03*
X24598420Y-78945000D03*
X19401580Y-78945000D03*
X19401580Y-77675000D03*
X19401580Y-76405000D03*
X19401580Y-75135000D03*
X19401580Y-73865000D03*
X19401580Y-72595000D03*
X19401580Y-71325000D03*
X19401580Y-70055000D03*
X47098420Y-87055000D03*
X47098420Y-88325000D03*
X47098420Y-89595000D03*
X47098420Y-90865000D03*
X47098420Y-92135000D03*
X47098420Y-93405000D03*
X47098420Y-94675000D03*
X47098420Y-95945000D03*
X41901580Y-95945000D03*
X41901580Y-94675000D03*
X41901580Y-93405000D03*
X41901580Y-92135000D03*
X41901580Y-90865000D03*
X41901580Y-89595000D03*
X41901580Y-88325000D03*
X41901580Y-87055000D03*
X41901580Y-78945000D03*
X41901580Y-77675000D03*
X41901580Y-76405000D03*
X41901580Y-75135000D03*
X41901580Y-73865000D03*
X41901580Y-72595000D03*
X41901580Y-71325000D03*
X41901580Y-70055000D03*
X47098420Y-70055000D03*
X47098420Y-71325000D03*
X47098420Y-72595000D03*
X47098420Y-73865000D03*
X47098420Y-75135000D03*
X47098420Y-76405000D03*
X47098420Y-77675000D03*
X47098420Y-78945000D03*
D39*
X28920500Y-18500000D03*
X31079500Y-18500000D03*
X73579500Y-23000000D03*
X71420500Y-23000000D03*
X73579500Y-40000000D03*
X71420500Y-40000000D03*
D40*
X65300000Y-106500000D03*
D41*
X74700000Y-106500000D03*
D42*
X70000000Y-101600000D03*
X70000000Y-109800000D03*
D40*
X28300000Y-106500000D03*
D41*
X37700000Y-106500000D03*
D42*
X33000000Y-101600000D03*
X33000000Y-109800000D03*
D40*
X51300000Y-106500000D03*
D41*
X60700000Y-106500000D03*
D42*
X56000000Y-101600000D03*
X56000000Y-109800000D03*
D40*
X65300000Y-92500000D03*
D41*
X74700000Y-92500000D03*
D42*
X70000000Y-87600000D03*
X70000000Y-95800000D03*
D40*
X14300000Y-92500000D03*
D41*
X23700000Y-92500000D03*
D42*
X19000000Y-87600000D03*
X19000000Y-95800000D03*
D40*
X14300000Y-106500000D03*
D41*
X23700000Y-106500000D03*
D42*
X19000000Y-101600000D03*
X19000000Y-109800000D03*
D43*
X45770000Y-13000000D03*
D44*
X43230000Y-13000000D03*
D43*
X45770000Y-18000000D03*
D44*
X43230000Y-18000000D03*
D43*
X45770000Y-23000000D03*
D44*
X43230000Y-23000000D03*
D43*
X45770000Y-28000000D03*
D44*
X43230000Y-28000000D03*
D45*
X35755400Y-81500000D03*
X38244600Y-81500000D03*
X38244600Y-83000000D03*
X35755400Y-83000000D03*
D46*
X67250000Y-30494600D03*
X67250000Y-28005400D03*
M02*
