G04 #@! TF.FileFunction,Copper,L1,Top,Signal*
%FSLAX46Y46*%
G04 Gerber Fmt 4.6, Leading zero omitted, Abs format (unit mm)*
G04 Created by KiCad (PCBNEW 4.0.2-stable) date 2016-04-29 6:09:28 PM*
%MOMM*%
G01*
G04 APERTURE LIST*
%ADD10C,0.100000*%
%ADD11R,1.400000X1.400000*%
%ADD12C,1.400000*%
%ADD13R,1.143000X0.812800*%
%ADD14R,1.727200X1.727200*%
%ADD15O,1.727200X1.727200*%
%ADD16C,2.250000*%
%ADD17C,2.500000*%
%ADD18C,1.524000*%
%ADD19R,1.200000X1.200000*%
%ADD20C,1.200000*%
%ADD21C,1.778000*%
%ADD22C,1.998980*%
%ADD23O,2.500000X4.000000*%
%ADD24O,2.000000X2.500000*%
%ADD25O,3.500000X1.500000*%
%ADD26C,1.016000*%
%ADD27C,1.270000*%
%ADD28C,0.254000*%
%ADD29C,0.355600*%
%ADD30C,0.406400*%
%ADD31C,0.304800*%
%ADD32C,0.609600*%
G04 APERTURE END LIST*
D10*
D11*
X55000000Y-79500000D03*
D12*
X57000000Y-79500000D03*
D13*
X49000000Y-42850900D03*
X49000000Y-41149100D03*
X43500000Y-39149100D03*
X43500000Y-40850900D03*
X35000000Y-26850900D03*
X35000000Y-25149100D03*
X30000000Y-23149100D03*
X30000000Y-24850900D03*
X22500000Y-44850900D03*
X22500000Y-43149100D03*
X31500000Y-44649100D03*
X31500000Y-46350900D03*
X49000000Y-82350900D03*
X49000000Y-80649100D03*
X43500000Y-80850900D03*
X43500000Y-79149100D03*
D11*
X71250000Y-15500000D03*
D12*
X73250000Y-15500000D03*
D11*
X72500000Y-52000000D03*
D12*
X70500000Y-52000000D03*
D14*
X71250000Y-36500000D03*
D15*
X73790000Y-36500000D03*
X71250000Y-33960000D03*
X73790000Y-33960000D03*
X71250000Y-31420000D03*
X73790000Y-31420000D03*
X71250000Y-28880000D03*
X73790000Y-28880000D03*
X71250000Y-26340000D03*
X73790000Y-26340000D03*
D16*
X59500000Y-18000000D03*
X64500000Y-18000000D03*
X64500000Y-23000000D03*
X59500000Y-23000000D03*
D17*
X32000000Y-40500000D03*
X22500000Y-16500000D03*
D18*
X51000000Y-91500000D03*
X56000000Y-91500000D03*
X38000000Y-91500000D03*
X33000000Y-91500000D03*
X38000000Y-61500000D03*
X33000000Y-61500000D03*
X51000000Y-61500000D03*
X56000000Y-61500000D03*
D19*
X45770000Y-28000000D03*
D20*
X43230000Y-28000000D03*
D19*
X45770000Y-23000000D03*
D20*
X43230000Y-23000000D03*
D19*
X45770000Y-18000000D03*
D20*
X43230000Y-18000000D03*
D19*
X45770000Y-13000000D03*
D20*
X43230000Y-13000000D03*
D21*
X13460000Y-41500000D03*
X16000000Y-44040000D03*
X18540000Y-41500000D03*
X13460000Y-17000000D03*
X16000000Y-19540000D03*
X18540000Y-17000000D03*
D22*
X52822777Y-33393567D03*
X48727017Y-36261449D03*
X56918537Y-30525685D03*
X71177223Y-59393567D03*
X67081463Y-56525685D03*
X75272983Y-62261449D03*
X17822777Y-59393567D03*
X13727017Y-62261449D03*
X21918537Y-56525685D03*
X36177223Y-33393567D03*
X32081463Y-30525685D03*
X40272983Y-36261449D03*
X17822777Y-33606433D03*
X21918537Y-36474315D03*
X13727017Y-30738551D03*
D23*
X65300000Y-106500000D03*
D24*
X74700000Y-106500000D03*
D25*
X70000000Y-101600000D03*
X70000000Y-109800000D03*
D23*
X28300000Y-106500000D03*
D24*
X37700000Y-106500000D03*
D25*
X33000000Y-101600000D03*
X33000000Y-109800000D03*
D23*
X51300000Y-106500000D03*
D24*
X60700000Y-106500000D03*
D25*
X56000000Y-101600000D03*
X56000000Y-109800000D03*
D23*
X65300000Y-92500000D03*
D24*
X74700000Y-92500000D03*
D25*
X70000000Y-87600000D03*
X70000000Y-95800000D03*
D23*
X14300000Y-92500000D03*
D24*
X23700000Y-92500000D03*
D25*
X19000000Y-87600000D03*
X19000000Y-95800000D03*
D23*
X14300000Y-106500000D03*
D24*
X23700000Y-106500000D03*
D25*
X19000000Y-101600000D03*
X19000000Y-109800000D03*
D26*
X39139820Y-68900000D03*
X53500000Y-73500000D03*
X54600000Y-50400000D03*
X22300000Y-22500000D03*
X29100000Y-26000000D03*
X52160171Y-59500000D03*
X35500000Y-77500000D03*
X50300000Y-47000000D03*
X26400000Y-72600000D03*
X65600000Y-38200000D03*
X36500000Y-25100000D03*
X31500000Y-49000000D03*
X49000000Y-79600000D03*
X68400000Y-33600000D03*
X28747679Y-22504810D03*
X31100000Y-83500000D03*
X47800000Y-99300000D03*
X53500000Y-75500000D03*
D27*
X25700000Y-44600000D03*
X63000000Y-46250000D03*
X15700000Y-76400000D03*
X49200000Y-76200000D03*
X63000000Y-41750000D03*
X48238640Y-14600000D03*
X40700000Y-67300000D03*
X45900000Y-31000000D03*
X62700000Y-35600000D03*
X35000000Y-27999996D03*
X46057295Y-43035141D03*
X40255941Y-77700000D03*
X45797518Y-66110692D03*
X36000000Y-95500000D03*
X47400000Y-83400000D03*
X29700000Y-47500000D03*
X27600000Y-77500000D03*
X25193290Y-24996087D03*
X44800000Y-40800000D03*
X44854355Y-62345645D03*
D26*
X39500000Y-70500000D03*
D27*
X33750000Y-58000000D03*
X45216020Y-93400000D03*
X40000000Y-80143980D03*
X22200000Y-47300000D03*
X37100000Y-23100000D03*
X26500000Y-38300000D03*
X39527332Y-74484231D03*
D26*
X35400000Y-97500000D03*
D27*
X49750000Y-93500000D03*
D26*
X24400000Y-31000000D03*
X41800002Y-50200000D03*
X25112997Y-49278625D03*
X32500000Y-22060180D03*
X24400000Y-29000000D03*
X24299998Y-27000000D03*
X52000000Y-45800000D03*
X52000000Y-53700000D03*
X43500000Y-82400000D03*
X55200000Y-71500000D03*
X45461780Y-81600000D03*
X57600000Y-77800000D03*
X61000000Y-55000000D03*
X58904941Y-40583999D03*
D28*
X53500000Y-68938140D02*
X53500000Y-68900000D01*
X53500000Y-68900000D02*
X54600000Y-67800000D01*
X54600000Y-67800000D02*
X54600000Y-51118420D01*
X54600000Y-51118420D02*
X54600000Y-50400000D01*
X53500000Y-73500000D02*
X53500000Y-68938140D01*
X39139820Y-68900000D02*
X53461860Y-68900000D01*
X53461860Y-68900000D02*
X53500000Y-68938140D01*
X28747679Y-22504810D02*
X22304810Y-22504810D01*
X22304810Y-22504810D02*
X22300000Y-22500000D01*
X36450900Y-25149100D02*
X36500000Y-25100000D01*
X35000000Y-25149100D02*
X36450900Y-25149100D01*
X49000000Y-80649100D02*
X49000000Y-79600000D01*
X53500000Y-75500000D02*
X52992001Y-74992001D01*
X40543333Y-74971912D02*
X32015245Y-83500000D01*
X52992001Y-74992001D02*
X51992001Y-74992001D01*
X32015245Y-83500000D02*
X31818420Y-83500000D01*
X51992001Y-74992001D02*
X51200000Y-74200000D01*
X51200000Y-74200000D02*
X41300000Y-74200000D01*
X41300000Y-74200000D02*
X40543333Y-74956667D01*
X40543333Y-74956667D02*
X40543333Y-74971912D01*
X31818420Y-83500000D02*
X31100000Y-83500000D01*
X35000000Y-99300000D02*
X47800000Y-99300000D01*
X31100000Y-95400000D02*
X35000000Y-99300000D01*
X31100000Y-83500000D02*
X31100000Y-95400000D01*
D29*
X22500000Y-44850900D02*
X25449100Y-44850900D01*
X25449100Y-44850900D02*
X25700000Y-44600000D01*
X45900000Y-31000000D02*
X54000000Y-31000000D01*
X54000000Y-31000000D02*
X56250000Y-33250000D01*
D30*
X62700000Y-35600000D02*
X62600000Y-35500000D01*
X62600000Y-35500000D02*
X58500000Y-35500000D01*
X58500000Y-35500000D02*
X56250000Y-33250000D01*
D31*
X63000000Y-42250000D02*
X63000000Y-45351975D01*
X63000000Y-45351975D02*
X63000000Y-46250000D01*
X62750000Y-42000000D02*
X63000000Y-42250000D01*
X63000000Y-41750000D02*
X63000000Y-46250000D01*
D29*
X46057295Y-43035141D02*
X46057295Y-34750000D01*
X46057295Y-34750000D02*
X46057295Y-31157295D01*
D32*
X48238640Y-14600000D02*
X69350000Y-14600000D01*
X69350000Y-14600000D02*
X70250000Y-15500000D01*
X70250000Y-15500000D02*
X71250000Y-15500000D01*
D29*
X15700000Y-76400000D02*
X15700000Y-50400000D01*
X15700000Y-50400000D02*
X13460000Y-48160000D01*
X13460000Y-48160000D02*
X13460000Y-41500000D01*
X48301975Y-76200000D02*
X49200000Y-76200000D01*
X41755941Y-76200000D02*
X48301975Y-76200000D01*
X40255941Y-77700000D02*
X41755941Y-76200000D01*
X62700000Y-41450000D02*
X63000000Y-41750000D01*
X62700000Y-35600000D02*
X62700000Y-41450000D01*
D32*
X48238640Y-14600000D02*
X47838640Y-15000000D01*
X47838640Y-15000000D02*
X41300000Y-15000000D01*
X41300000Y-15000000D02*
X40127589Y-13827589D01*
X40127589Y-13827589D02*
X16632411Y-13827589D01*
X16632411Y-13827589D02*
X14348999Y-16111001D01*
X14348999Y-16111001D02*
X13460000Y-17000000D01*
D29*
X46057295Y-31157295D02*
X45900000Y-31000000D01*
D32*
X14348999Y-40611001D02*
X13460000Y-41500000D01*
X15600000Y-28700000D02*
X15600000Y-39360000D01*
X13460000Y-26560000D02*
X15600000Y-28700000D01*
X15600000Y-39360000D02*
X14348999Y-40611001D01*
X13460000Y-17000000D02*
X13460000Y-26560000D01*
X35000000Y-26850900D02*
X35000000Y-27999996D01*
D29*
X53070597Y-42850900D02*
X49000000Y-42850900D01*
X48815759Y-43035141D02*
X49000000Y-42850900D01*
X46057295Y-43035141D02*
X48815759Y-43035141D01*
X53070597Y-42850900D02*
X53099981Y-42880284D01*
X44608210Y-67300000D02*
X45162519Y-66745691D01*
X45162519Y-66745691D02*
X45797518Y-66110692D01*
X46057295Y-65850915D02*
X45797518Y-66110692D01*
X46057295Y-43035141D02*
X46057295Y-65850915D01*
X40700000Y-67300000D02*
X44608210Y-67300000D01*
X36000000Y-81955941D02*
X36000000Y-94601975D01*
X40255941Y-77700000D02*
X36000000Y-81955941D01*
X36000000Y-94601975D02*
X36000000Y-95500000D01*
X36898025Y-95500000D02*
X36000000Y-95500000D01*
X45900000Y-95500000D02*
X36898025Y-95500000D01*
X47400000Y-94000000D02*
X45900000Y-95500000D01*
X58131801Y-75931801D02*
X58131801Y-46131801D01*
X59300000Y-77100000D02*
X58131801Y-75931801D01*
X58349100Y-82350900D02*
X59300000Y-81400000D01*
X59300000Y-81400000D02*
X59300000Y-77100000D01*
X58131801Y-46131801D02*
X54850900Y-42850900D01*
X54850900Y-42850900D02*
X53070597Y-42850900D01*
X49000000Y-83100000D02*
X49000000Y-82350900D01*
X49000000Y-82350900D02*
X58349100Y-82350900D01*
X47400000Y-83400000D02*
X47400000Y-94000000D01*
X47400000Y-83400000D02*
X48700000Y-83400000D01*
X48700000Y-83400000D02*
X49000000Y-83100000D01*
X30849100Y-46350900D02*
X29700000Y-47500000D01*
X29700000Y-75400000D02*
X27600000Y-77500000D01*
X29700000Y-47500000D02*
X29700000Y-75400000D01*
X29700000Y-47500000D02*
X26300000Y-50900000D01*
X44749100Y-40850900D02*
X44800000Y-40800000D01*
X44800000Y-62291290D02*
X44854355Y-62345645D01*
X44800000Y-40800000D02*
X44800000Y-62291290D01*
X40154355Y-62345645D02*
X44854355Y-62345645D01*
X37500000Y-65000000D02*
X40154355Y-62345645D01*
X34384999Y-61884999D02*
X37500000Y-65000000D01*
X34384999Y-58634999D02*
X34384999Y-61884999D01*
X37500000Y-70395962D02*
X37500000Y-65000000D01*
X33750000Y-58000000D02*
X34384999Y-58634999D01*
X37604038Y-70500000D02*
X37500000Y-70395962D01*
X39500000Y-70500000D02*
X37604038Y-70500000D01*
X37500000Y-72456899D02*
X37500000Y-70395962D01*
D32*
X69500000Y-31750000D02*
X69500000Y-51000000D01*
X69500000Y-51000000D02*
X70500000Y-52000000D01*
X18540000Y-17000000D02*
X20848801Y-14691199D01*
X20848801Y-14691199D02*
X39769871Y-14691199D01*
X39769871Y-14691199D02*
X40942282Y-15863610D01*
X40942282Y-15863610D02*
X65613610Y-15863610D01*
X65613610Y-15863610D02*
X68000000Y-18250000D01*
X68000000Y-18250000D02*
X68000000Y-30250000D01*
X68000000Y-30250000D02*
X69500000Y-31750000D01*
D29*
X30000000Y-24850900D02*
X25338477Y-24850900D01*
X25338477Y-24850900D02*
X25193290Y-24996087D01*
X40000000Y-88183980D02*
X44581021Y-92765001D01*
X40000000Y-80143980D02*
X40000000Y-88183980D01*
X44581021Y-92765001D02*
X45216020Y-93400000D01*
X40994880Y-79149100D02*
X40634999Y-79508981D01*
X40634999Y-79508981D02*
X40000000Y-80143980D01*
X43500000Y-79149100D02*
X40994880Y-79149100D01*
D32*
X18540000Y-23240000D02*
X18540000Y-17000000D01*
X19750000Y-24450000D02*
X18540000Y-23240000D01*
X18540000Y-41500000D02*
X19750000Y-40290000D01*
D29*
X31500000Y-46350900D02*
X30849100Y-46350900D01*
X43500000Y-40850900D02*
X44749100Y-40850900D01*
D32*
X19750000Y-25048635D02*
X19750000Y-24450000D01*
D29*
X33100000Y-23100000D02*
X37100000Y-23100000D01*
X31349100Y-24850900D02*
X33100000Y-23100000D01*
X30000000Y-24850900D02*
X31349100Y-24850900D01*
X43500000Y-41612900D02*
X43500000Y-40850900D01*
X38762000Y-46350900D02*
X43500000Y-41612900D01*
X31500000Y-46350900D02*
X38762000Y-46350900D01*
X33500000Y-38300000D02*
X26500000Y-38300000D01*
X36050900Y-40850900D02*
X33500000Y-38300000D01*
X43500000Y-40850900D02*
X36050900Y-40850900D01*
X22200000Y-50000000D02*
X22200000Y-47300000D01*
X23100000Y-50900000D02*
X22200000Y-50000000D01*
X26300000Y-50900000D02*
X23100000Y-50900000D01*
X19750000Y-25048635D02*
X19802548Y-24996087D01*
X24295265Y-24996087D02*
X25193290Y-24996087D01*
X39527332Y-74484231D02*
X37500000Y-72456899D01*
X20296087Y-24996087D02*
X19750000Y-24450000D01*
X20388677Y-24996087D02*
X20296087Y-24996087D01*
X19802548Y-24996087D02*
X20388677Y-24996087D01*
X20388677Y-24996087D02*
X24295265Y-24996087D01*
X20303102Y-24996087D02*
X19750000Y-25549189D01*
X20388677Y-24996087D02*
X20303102Y-24996087D01*
D32*
X19750000Y-25549189D02*
X19750000Y-25048635D01*
X19750000Y-40290000D02*
X19750000Y-25549189D01*
D29*
X49750000Y-94450000D02*
X49750000Y-93500000D01*
X46700000Y-97500000D02*
X49750000Y-94450000D01*
X35400000Y-97500000D02*
X46700000Y-97500000D01*
D28*
X20749999Y-99850001D02*
X19000000Y-101600000D01*
X16716001Y-74916001D02*
X16716001Y-81316001D01*
X16400000Y-74600000D02*
X16716001Y-74916001D01*
X16400000Y-46600000D02*
X16400000Y-74600000D01*
X24400000Y-38600000D02*
X16400000Y-46600000D01*
X26400000Y-94200000D02*
X20749999Y-99850001D01*
X16716001Y-81316001D02*
X26400000Y-91000000D01*
X24400000Y-31000000D02*
X24400000Y-38600000D01*
X26400000Y-91000000D02*
X26400000Y-94200000D01*
X56000000Y-101600000D02*
X60700000Y-96900000D01*
X59500000Y-43700000D02*
X52061449Y-36261449D01*
X60700000Y-96900000D02*
X60700000Y-76100000D01*
X60700000Y-76100000D02*
X59500000Y-74900000D01*
X59500000Y-74900000D02*
X59500000Y-43700000D01*
X52061449Y-36261449D02*
X48727017Y-36261449D01*
X41292003Y-50707999D02*
X41800002Y-50200000D01*
X36792001Y-50707999D02*
X41292003Y-50707999D01*
X30258810Y-57241190D02*
X36792001Y-50707999D01*
X30258810Y-80841190D02*
X30258810Y-57241190D01*
X28900000Y-82200000D02*
X30258810Y-80841190D01*
X28900000Y-97500000D02*
X28900000Y-82200000D01*
X33000000Y-101600000D02*
X28900000Y-97500000D01*
X25112997Y-49278625D02*
X27800000Y-46591622D01*
X27800000Y-46591622D02*
X27800000Y-44700000D01*
X27800000Y-44700000D02*
X28800000Y-43700000D01*
X28800000Y-43700000D02*
X32000000Y-40500000D01*
X26939820Y-16500000D02*
X31992001Y-21552181D01*
X31992001Y-21552181D02*
X32500000Y-22060180D01*
X22500000Y-16500000D02*
X26939820Y-16500000D01*
X17822777Y-57980075D02*
X17822777Y-59393567D01*
X17822777Y-45977223D02*
X17822777Y-57980075D01*
X25238201Y-38561799D02*
X17822777Y-45977223D01*
X25238201Y-29838201D02*
X25238201Y-38561799D01*
X24400000Y-29000000D02*
X25238201Y-29838201D01*
X24299998Y-27000000D02*
X26399998Y-29100000D01*
X26399998Y-29100000D02*
X60800000Y-29100000D01*
X60800000Y-29100000D02*
X68500000Y-36800000D01*
X68500000Y-36800000D02*
X68500000Y-56716344D01*
X68500000Y-56716344D02*
X70177734Y-58394078D01*
X70177734Y-58394078D02*
X71177223Y-59393567D01*
X52000000Y-53700000D02*
X52000000Y-45800000D01*
X55200000Y-72218420D02*
X55200000Y-71500000D01*
X44007999Y-81892001D02*
X44007999Y-81813241D01*
X43500000Y-82400000D02*
X44007999Y-81892001D01*
X44007999Y-81813241D02*
X48021240Y-77800000D01*
X48021240Y-77800000D02*
X54300000Y-77800000D01*
X54300000Y-77800000D02*
X55200000Y-76900000D01*
X55200000Y-76900000D02*
X55200000Y-72218420D01*
X57600000Y-77800000D02*
X56930201Y-78469799D01*
X48591981Y-78469799D02*
X45969779Y-81092001D01*
X45969779Y-81092001D02*
X45461780Y-81600000D01*
X56930201Y-78469799D02*
X48591981Y-78469799D01*
X58904941Y-40583999D02*
X61000000Y-42679058D01*
X61000000Y-42679058D02*
X61000000Y-55000000D01*
G36*
X42506619Y-12456227D02*
X42352706Y-12519590D01*
X42235641Y-12891885D01*
X42269958Y-13280639D01*
X42352706Y-13480410D01*
X42506621Y-13543774D01*
X43050395Y-13000000D01*
X43036253Y-12985858D01*
X43215858Y-12806253D01*
X43230000Y-12820395D01*
X43244143Y-12806253D01*
X43423748Y-12985858D01*
X43409605Y-13000000D01*
X43953379Y-13543774D01*
X44107294Y-13480410D01*
X44224359Y-13108115D01*
X44190042Y-12719361D01*
X44107294Y-12519590D01*
X43953381Y-12456227D01*
X43978608Y-12431000D01*
X44781536Y-12431000D01*
X44781536Y-13600000D01*
X44808103Y-13741190D01*
X44891546Y-13870865D01*
X45018866Y-13957859D01*
X45170000Y-13988464D01*
X46370000Y-13988464D01*
X46511190Y-13961897D01*
X46640865Y-13878454D01*
X46727859Y-13751134D01*
X46758464Y-13600000D01*
X46758464Y-12431000D01*
X76569000Y-12431000D01*
X76569000Y-62161885D01*
X75420107Y-62364466D01*
X75624860Y-63525678D01*
X75849443Y-63545524D01*
X76296956Y-63227177D01*
X76569000Y-62793052D01*
X76569000Y-111569000D01*
X12431000Y-111569000D01*
X12431000Y-109800000D01*
X16827251Y-109800000D01*
X16913343Y-110232815D01*
X17158513Y-110599738D01*
X17525436Y-110844908D01*
X17958251Y-110931000D01*
X20041749Y-110931000D01*
X20474564Y-110844908D01*
X20841487Y-110599738D01*
X21086657Y-110232815D01*
X21172749Y-109800000D01*
X30827251Y-109800000D01*
X30913343Y-110232815D01*
X31158513Y-110599738D01*
X31525436Y-110844908D01*
X31958251Y-110931000D01*
X34041749Y-110931000D01*
X34474564Y-110844908D01*
X34841487Y-110599738D01*
X35086657Y-110232815D01*
X35172749Y-109800000D01*
X53827251Y-109800000D01*
X53913343Y-110232815D01*
X54158513Y-110599738D01*
X54525436Y-110844908D01*
X54958251Y-110931000D01*
X57041749Y-110931000D01*
X57474564Y-110844908D01*
X57841487Y-110599738D01*
X58086657Y-110232815D01*
X58172749Y-109800000D01*
X67827251Y-109800000D01*
X67913343Y-110232815D01*
X68158513Y-110599738D01*
X68525436Y-110844908D01*
X68958251Y-110931000D01*
X71041749Y-110931000D01*
X71474564Y-110844908D01*
X71841487Y-110599738D01*
X72086657Y-110232815D01*
X72172749Y-109800000D01*
X72086657Y-109367185D01*
X71841487Y-109000262D01*
X71474564Y-108755092D01*
X71041749Y-108669000D01*
X68958251Y-108669000D01*
X68525436Y-108755092D01*
X68158513Y-109000262D01*
X67913343Y-109367185D01*
X67827251Y-109800000D01*
X58172749Y-109800000D01*
X58086657Y-109367185D01*
X57841487Y-109000262D01*
X57474564Y-108755092D01*
X57041749Y-108669000D01*
X54958251Y-108669000D01*
X54525436Y-108755092D01*
X54158513Y-109000262D01*
X53913343Y-109367185D01*
X53827251Y-109800000D01*
X35172749Y-109800000D01*
X35086657Y-109367185D01*
X34841487Y-109000262D01*
X34474564Y-108755092D01*
X34041749Y-108669000D01*
X31958251Y-108669000D01*
X31525436Y-108755092D01*
X31158513Y-109000262D01*
X30913343Y-109367185D01*
X30827251Y-109800000D01*
X21172749Y-109800000D01*
X21086657Y-109367185D01*
X20841487Y-109000262D01*
X20474564Y-108755092D01*
X20041749Y-108669000D01*
X17958251Y-108669000D01*
X17525436Y-108755092D01*
X17158513Y-109000262D01*
X16913343Y-109367185D01*
X16827251Y-109800000D01*
X12431000Y-109800000D01*
X12431000Y-106627000D01*
X12669000Y-106627000D01*
X12669000Y-107377000D01*
X12841753Y-107991489D01*
X13236511Y-108493093D01*
X13793175Y-108805448D01*
X13920194Y-108836161D01*
X14173000Y-108780490D01*
X14173000Y-106627000D01*
X14427000Y-106627000D01*
X14427000Y-108780490D01*
X14679806Y-108836161D01*
X14806825Y-108805448D01*
X15363489Y-108493093D01*
X15758247Y-107991489D01*
X15931000Y-107377000D01*
X15931000Y-106845432D01*
X22311196Y-106845432D01*
X22453433Y-107369640D01*
X22785448Y-107799513D01*
X23256695Y-108069607D01*
X23359443Y-108088350D01*
X23573000Y-108029462D01*
X23573000Y-106627000D01*
X23827000Y-106627000D01*
X23827000Y-108029462D01*
X24040557Y-108088350D01*
X24143305Y-108069607D01*
X24614552Y-107799513D01*
X24946567Y-107369640D01*
X25088804Y-106845432D01*
X24991384Y-106627000D01*
X26669000Y-106627000D01*
X26669000Y-107377000D01*
X26841753Y-107991489D01*
X27236511Y-108493093D01*
X27793175Y-108805448D01*
X27920194Y-108836161D01*
X28173000Y-108780490D01*
X28173000Y-106627000D01*
X28427000Y-106627000D01*
X28427000Y-108780490D01*
X28679806Y-108836161D01*
X28806825Y-108805448D01*
X29363489Y-108493093D01*
X29758247Y-107991489D01*
X29931000Y-107377000D01*
X29931000Y-106845432D01*
X36311196Y-106845432D01*
X36453433Y-107369640D01*
X36785448Y-107799513D01*
X37256695Y-108069607D01*
X37359443Y-108088350D01*
X37573000Y-108029462D01*
X37573000Y-106627000D01*
X37827000Y-106627000D01*
X37827000Y-108029462D01*
X38040557Y-108088350D01*
X38143305Y-108069607D01*
X38614552Y-107799513D01*
X38946567Y-107369640D01*
X39088804Y-106845432D01*
X38991384Y-106627000D01*
X49669000Y-106627000D01*
X49669000Y-107377000D01*
X49841753Y-107991489D01*
X50236511Y-108493093D01*
X50793175Y-108805448D01*
X50920194Y-108836161D01*
X51173000Y-108780490D01*
X51173000Y-106627000D01*
X51427000Y-106627000D01*
X51427000Y-108780490D01*
X51679806Y-108836161D01*
X51806825Y-108805448D01*
X52363489Y-108493093D01*
X52758247Y-107991489D01*
X52931000Y-107377000D01*
X52931000Y-106845432D01*
X59311196Y-106845432D01*
X59453433Y-107369640D01*
X59785448Y-107799513D01*
X60256695Y-108069607D01*
X60359443Y-108088350D01*
X60573000Y-108029462D01*
X60573000Y-106627000D01*
X60827000Y-106627000D01*
X60827000Y-108029462D01*
X61040557Y-108088350D01*
X61143305Y-108069607D01*
X61614552Y-107799513D01*
X61946567Y-107369640D01*
X62088804Y-106845432D01*
X61991384Y-106627000D01*
X63669000Y-106627000D01*
X63669000Y-107377000D01*
X63841753Y-107991489D01*
X64236511Y-108493093D01*
X64793175Y-108805448D01*
X64920194Y-108836161D01*
X65173000Y-108780490D01*
X65173000Y-106627000D01*
X65427000Y-106627000D01*
X65427000Y-108780490D01*
X65679806Y-108836161D01*
X65806825Y-108805448D01*
X66363489Y-108493093D01*
X66758247Y-107991489D01*
X66931000Y-107377000D01*
X66931000Y-106845432D01*
X73311196Y-106845432D01*
X73453433Y-107369640D01*
X73785448Y-107799513D01*
X74256695Y-108069607D01*
X74359443Y-108088350D01*
X74573000Y-108029462D01*
X74573000Y-106627000D01*
X74827000Y-106627000D01*
X74827000Y-108029462D01*
X75040557Y-108088350D01*
X75143305Y-108069607D01*
X75614552Y-107799513D01*
X75946567Y-107369640D01*
X76088804Y-106845432D01*
X75991384Y-106627000D01*
X74827000Y-106627000D01*
X74573000Y-106627000D01*
X73408616Y-106627000D01*
X73311196Y-106845432D01*
X66931000Y-106845432D01*
X66931000Y-106627000D01*
X65427000Y-106627000D01*
X65173000Y-106627000D01*
X63669000Y-106627000D01*
X61991384Y-106627000D01*
X60827000Y-106627000D01*
X60573000Y-106627000D01*
X59408616Y-106627000D01*
X59311196Y-106845432D01*
X52931000Y-106845432D01*
X52931000Y-106627000D01*
X51427000Y-106627000D01*
X51173000Y-106627000D01*
X49669000Y-106627000D01*
X38991384Y-106627000D01*
X37827000Y-106627000D01*
X37573000Y-106627000D01*
X36408616Y-106627000D01*
X36311196Y-106845432D01*
X29931000Y-106845432D01*
X29931000Y-106627000D01*
X28427000Y-106627000D01*
X28173000Y-106627000D01*
X26669000Y-106627000D01*
X24991384Y-106627000D01*
X23827000Y-106627000D01*
X23573000Y-106627000D01*
X22408616Y-106627000D01*
X22311196Y-106845432D01*
X15931000Y-106845432D01*
X15931000Y-106627000D01*
X14427000Y-106627000D01*
X14173000Y-106627000D01*
X12669000Y-106627000D01*
X12431000Y-106627000D01*
X12431000Y-105623000D01*
X12669000Y-105623000D01*
X12669000Y-106373000D01*
X14173000Y-106373000D01*
X14173000Y-104219510D01*
X14427000Y-104219510D01*
X14427000Y-106373000D01*
X15931000Y-106373000D01*
X15931000Y-106154568D01*
X22311196Y-106154568D01*
X22408616Y-106373000D01*
X23573000Y-106373000D01*
X23573000Y-104970538D01*
X23827000Y-104970538D01*
X23827000Y-106373000D01*
X24991384Y-106373000D01*
X25088804Y-106154568D01*
X24946567Y-105630360D01*
X24940883Y-105623000D01*
X26669000Y-105623000D01*
X26669000Y-106373000D01*
X28173000Y-106373000D01*
X28173000Y-104219510D01*
X28427000Y-104219510D01*
X28427000Y-106373000D01*
X29931000Y-106373000D01*
X29931000Y-106154568D01*
X36311196Y-106154568D01*
X36408616Y-106373000D01*
X37573000Y-106373000D01*
X37573000Y-104970538D01*
X37827000Y-104970538D01*
X37827000Y-106373000D01*
X38991384Y-106373000D01*
X39088804Y-106154568D01*
X38946567Y-105630360D01*
X38940883Y-105623000D01*
X49669000Y-105623000D01*
X49669000Y-106373000D01*
X51173000Y-106373000D01*
X51173000Y-104219510D01*
X51427000Y-104219510D01*
X51427000Y-106373000D01*
X52931000Y-106373000D01*
X52931000Y-106154568D01*
X59311196Y-106154568D01*
X59408616Y-106373000D01*
X60573000Y-106373000D01*
X60573000Y-104970538D01*
X60827000Y-104970538D01*
X60827000Y-106373000D01*
X61991384Y-106373000D01*
X62088804Y-106154568D01*
X61946567Y-105630360D01*
X61940883Y-105623000D01*
X63669000Y-105623000D01*
X63669000Y-106373000D01*
X65173000Y-106373000D01*
X65173000Y-104219510D01*
X65427000Y-104219510D01*
X65427000Y-106373000D01*
X66931000Y-106373000D01*
X66931000Y-106154568D01*
X73311196Y-106154568D01*
X73408616Y-106373000D01*
X74573000Y-106373000D01*
X74573000Y-104970538D01*
X74827000Y-104970538D01*
X74827000Y-106373000D01*
X75991384Y-106373000D01*
X76088804Y-106154568D01*
X75946567Y-105630360D01*
X75614552Y-105200487D01*
X75143305Y-104930393D01*
X75040557Y-104911650D01*
X74827000Y-104970538D01*
X74573000Y-104970538D01*
X74359443Y-104911650D01*
X74256695Y-104930393D01*
X73785448Y-105200487D01*
X73453433Y-105630360D01*
X73311196Y-106154568D01*
X66931000Y-106154568D01*
X66931000Y-105623000D01*
X66758247Y-105008511D01*
X66363489Y-104506907D01*
X65806825Y-104194552D01*
X65679806Y-104163839D01*
X65427000Y-104219510D01*
X65173000Y-104219510D01*
X64920194Y-104163839D01*
X64793175Y-104194552D01*
X64236511Y-104506907D01*
X63841753Y-105008511D01*
X63669000Y-105623000D01*
X61940883Y-105623000D01*
X61614552Y-105200487D01*
X61143305Y-104930393D01*
X61040557Y-104911650D01*
X60827000Y-104970538D01*
X60573000Y-104970538D01*
X60359443Y-104911650D01*
X60256695Y-104930393D01*
X59785448Y-105200487D01*
X59453433Y-105630360D01*
X59311196Y-106154568D01*
X52931000Y-106154568D01*
X52931000Y-105623000D01*
X52758247Y-105008511D01*
X52363489Y-104506907D01*
X51806825Y-104194552D01*
X51679806Y-104163839D01*
X51427000Y-104219510D01*
X51173000Y-104219510D01*
X50920194Y-104163839D01*
X50793175Y-104194552D01*
X50236511Y-104506907D01*
X49841753Y-105008511D01*
X49669000Y-105623000D01*
X38940883Y-105623000D01*
X38614552Y-105200487D01*
X38143305Y-104930393D01*
X38040557Y-104911650D01*
X37827000Y-104970538D01*
X37573000Y-104970538D01*
X37359443Y-104911650D01*
X37256695Y-104930393D01*
X36785448Y-105200487D01*
X36453433Y-105630360D01*
X36311196Y-106154568D01*
X29931000Y-106154568D01*
X29931000Y-105623000D01*
X29758247Y-105008511D01*
X29363489Y-104506907D01*
X28806825Y-104194552D01*
X28679806Y-104163839D01*
X28427000Y-104219510D01*
X28173000Y-104219510D01*
X27920194Y-104163839D01*
X27793175Y-104194552D01*
X27236511Y-104506907D01*
X26841753Y-105008511D01*
X26669000Y-105623000D01*
X24940883Y-105623000D01*
X24614552Y-105200487D01*
X24143305Y-104930393D01*
X24040557Y-104911650D01*
X23827000Y-104970538D01*
X23573000Y-104970538D01*
X23359443Y-104911650D01*
X23256695Y-104930393D01*
X22785448Y-105200487D01*
X22453433Y-105630360D01*
X22311196Y-106154568D01*
X15931000Y-106154568D01*
X15931000Y-105623000D01*
X15758247Y-105008511D01*
X15363489Y-104506907D01*
X14806825Y-104194552D01*
X14679806Y-104163839D01*
X14427000Y-104219510D01*
X14173000Y-104219510D01*
X13920194Y-104163839D01*
X13793175Y-104194552D01*
X13236511Y-104506907D01*
X12841753Y-105008511D01*
X12669000Y-105623000D01*
X12431000Y-105623000D01*
X12431000Y-95800000D01*
X16827251Y-95800000D01*
X16913343Y-96232815D01*
X17158513Y-96599738D01*
X17525436Y-96844908D01*
X17958251Y-96931000D01*
X20041749Y-96931000D01*
X20474564Y-96844908D01*
X20841487Y-96599738D01*
X21086657Y-96232815D01*
X21172749Y-95800000D01*
X21086657Y-95367185D01*
X20841487Y-95000262D01*
X20474564Y-94755092D01*
X20041749Y-94669000D01*
X17958251Y-94669000D01*
X17525436Y-94755092D01*
X17158513Y-95000262D01*
X16913343Y-95367185D01*
X16827251Y-95800000D01*
X12431000Y-95800000D01*
X12431000Y-92627000D01*
X12669000Y-92627000D01*
X12669000Y-93377000D01*
X12841753Y-93991489D01*
X13236511Y-94493093D01*
X13793175Y-94805448D01*
X13920194Y-94836161D01*
X14173000Y-94780490D01*
X14173000Y-92627000D01*
X14427000Y-92627000D01*
X14427000Y-94780490D01*
X14679806Y-94836161D01*
X14806825Y-94805448D01*
X15363489Y-94493093D01*
X15758247Y-93991489D01*
X15931000Y-93377000D01*
X15931000Y-92845432D01*
X22311196Y-92845432D01*
X22453433Y-93369640D01*
X22785448Y-93799513D01*
X23256695Y-94069607D01*
X23359443Y-94088350D01*
X23573000Y-94029462D01*
X23573000Y-92627000D01*
X23827000Y-92627000D01*
X23827000Y-94029462D01*
X24040557Y-94088350D01*
X24143305Y-94069607D01*
X24614552Y-93799513D01*
X24946567Y-93369640D01*
X25088804Y-92845432D01*
X24991384Y-92627000D01*
X23827000Y-92627000D01*
X23573000Y-92627000D01*
X22408616Y-92627000D01*
X22311196Y-92845432D01*
X15931000Y-92845432D01*
X15931000Y-92627000D01*
X14427000Y-92627000D01*
X14173000Y-92627000D01*
X12669000Y-92627000D01*
X12431000Y-92627000D01*
X12431000Y-91623000D01*
X12669000Y-91623000D01*
X12669000Y-92373000D01*
X14173000Y-92373000D01*
X14173000Y-90219510D01*
X14427000Y-90219510D01*
X14427000Y-92373000D01*
X15931000Y-92373000D01*
X15931000Y-92154568D01*
X22311196Y-92154568D01*
X22408616Y-92373000D01*
X23573000Y-92373000D01*
X23573000Y-90970538D01*
X23827000Y-90970538D01*
X23827000Y-92373000D01*
X24991384Y-92373000D01*
X25088804Y-92154568D01*
X24946567Y-91630360D01*
X24614552Y-91200487D01*
X24143305Y-90930393D01*
X24040557Y-90911650D01*
X23827000Y-90970538D01*
X23573000Y-90970538D01*
X23359443Y-90911650D01*
X23256695Y-90930393D01*
X22785448Y-91200487D01*
X22453433Y-91630360D01*
X22311196Y-92154568D01*
X15931000Y-92154568D01*
X15931000Y-91623000D01*
X15758247Y-91008511D01*
X15363489Y-90506907D01*
X14806825Y-90194552D01*
X14679806Y-90163839D01*
X14427000Y-90219510D01*
X14173000Y-90219510D01*
X13920194Y-90163839D01*
X13793175Y-90194552D01*
X13236511Y-90506907D01*
X12841753Y-91008511D01*
X12669000Y-91623000D01*
X12431000Y-91623000D01*
X12431000Y-87600000D01*
X16827251Y-87600000D01*
X16913343Y-88032815D01*
X17158513Y-88399738D01*
X17525436Y-88644908D01*
X17958251Y-88731000D01*
X20041749Y-88731000D01*
X20474564Y-88644908D01*
X20841487Y-88399738D01*
X21086657Y-88032815D01*
X21172749Y-87600000D01*
X21086657Y-87167185D01*
X20841487Y-86800262D01*
X20474564Y-86555092D01*
X20041749Y-86469000D01*
X17958251Y-86469000D01*
X17525436Y-86555092D01*
X17158513Y-86800262D01*
X16913343Y-87167185D01*
X16827251Y-87600000D01*
X12431000Y-87600000D01*
X12431000Y-62739860D01*
X12556012Y-63042412D01*
X12944011Y-63431089D01*
X13451216Y-63641698D01*
X14000409Y-63642178D01*
X14507980Y-63432454D01*
X14896657Y-63044455D01*
X15107266Y-62537250D01*
X15107746Y-61988057D01*
X14898022Y-61480486D01*
X14510023Y-61091809D01*
X14002818Y-60881200D01*
X13453625Y-60880720D01*
X12946054Y-61090444D01*
X12557377Y-61478443D01*
X12431000Y-61782794D01*
X12431000Y-42266824D01*
X12739663Y-42576026D01*
X12901200Y-42643102D01*
X12901200Y-48160000D01*
X12943736Y-48373844D01*
X12954178Y-48389471D01*
X13064869Y-48555131D01*
X15141200Y-50631463D01*
X15141200Y-75531578D01*
X15125234Y-75538175D01*
X14839179Y-75823731D01*
X14684176Y-76197018D01*
X14683824Y-76601208D01*
X14838175Y-76974766D01*
X15123731Y-77260821D01*
X15497018Y-77415824D01*
X15901208Y-77416176D01*
X16208001Y-77289412D01*
X16208001Y-81316001D01*
X16246670Y-81510404D01*
X16356791Y-81675211D01*
X25892000Y-91210420D01*
X25892000Y-93989580D01*
X19412580Y-100469000D01*
X17958251Y-100469000D01*
X17525436Y-100555092D01*
X17158513Y-100800262D01*
X16913343Y-101167185D01*
X16827251Y-101600000D01*
X16913343Y-102032815D01*
X17158513Y-102399738D01*
X17525436Y-102644908D01*
X17958251Y-102731000D01*
X20041749Y-102731000D01*
X20474564Y-102644908D01*
X20841487Y-102399738D01*
X21086657Y-102032815D01*
X21172749Y-101600000D01*
X21086657Y-101167185D01*
X20841487Y-100800262D01*
X20647665Y-100670755D01*
X26759210Y-94559210D01*
X26869331Y-94394403D01*
X26908000Y-94200000D01*
X26908000Y-91000000D01*
X26869331Y-90805597D01*
X26759210Y-90640790D01*
X17224001Y-81105581D01*
X17224001Y-74916001D01*
X17185332Y-74721598D01*
X17075211Y-74556791D01*
X16908000Y-74389580D01*
X16908000Y-60431206D01*
X17039771Y-60563207D01*
X17546976Y-60773816D01*
X18096169Y-60774296D01*
X18603740Y-60564572D01*
X18992417Y-60176573D01*
X19203026Y-59669368D01*
X19203506Y-59120175D01*
X18993782Y-58612604D01*
X18605783Y-58223927D01*
X18330777Y-58109735D01*
X18330777Y-57834020D01*
X21816801Y-57834020D01*
X22021053Y-57929481D01*
X22550459Y-57783392D01*
X22983660Y-57445829D01*
X23202612Y-57102145D01*
X23182766Y-56877562D01*
X22021554Y-56672809D01*
X21816801Y-57834020D01*
X18330777Y-57834020D01*
X18330777Y-56628201D01*
X20514741Y-56628201D01*
X20660830Y-57157607D01*
X20998393Y-57590808D01*
X21342077Y-57809760D01*
X21566660Y-57789914D01*
X21771413Y-56628702D01*
X20610202Y-56423949D01*
X20514741Y-56628201D01*
X18330777Y-56628201D01*
X18330777Y-56422668D01*
X22065661Y-56422668D01*
X23226872Y-56627421D01*
X23322333Y-56423169D01*
X23176244Y-55893763D01*
X22838681Y-55460562D01*
X22494997Y-55241610D01*
X22270414Y-55261456D01*
X22065661Y-56422668D01*
X18330777Y-56422668D01*
X18330777Y-55949225D01*
X20634462Y-55949225D01*
X20654308Y-56173808D01*
X21815520Y-56378561D01*
X22020273Y-55217350D01*
X21816021Y-55121889D01*
X21286615Y-55267978D01*
X20853414Y-55605541D01*
X20634462Y-55949225D01*
X18330777Y-55949225D01*
X18330777Y-46187643D01*
X20073920Y-44444500D01*
X21540036Y-44444500D01*
X21540036Y-45257300D01*
X21566603Y-45398490D01*
X21650046Y-45528165D01*
X21777366Y-45615159D01*
X21928500Y-45645764D01*
X23071500Y-45645764D01*
X23212690Y-45619197D01*
X23342365Y-45535754D01*
X23428494Y-45409700D01*
X25072699Y-45409700D01*
X25123731Y-45460821D01*
X25497018Y-45615824D01*
X25901208Y-45616176D01*
X26274766Y-45461825D01*
X26560821Y-45176269D01*
X26715824Y-44802982D01*
X26716176Y-44398792D01*
X26561825Y-44025234D01*
X26276269Y-43739179D01*
X25902982Y-43584176D01*
X25498792Y-43583824D01*
X25125234Y-43738175D01*
X24839179Y-44023731D01*
X24727742Y-44292100D01*
X23426184Y-44292100D01*
X23349954Y-44173635D01*
X23222634Y-44086641D01*
X23071500Y-44056036D01*
X21928500Y-44056036D01*
X21787310Y-44082603D01*
X21657635Y-44166046D01*
X21570641Y-44293366D01*
X21540036Y-44444500D01*
X20073920Y-44444500D01*
X21147070Y-43371350D01*
X21547500Y-43371350D01*
X21547500Y-43631286D01*
X21605504Y-43771320D01*
X21712681Y-43878496D01*
X21852715Y-43936500D01*
X22277750Y-43936500D01*
X22373000Y-43841250D01*
X22373000Y-43276100D01*
X22627000Y-43276100D01*
X22627000Y-43841250D01*
X22722250Y-43936500D01*
X23147285Y-43936500D01*
X23287319Y-43878496D01*
X23394496Y-43771320D01*
X23452500Y-43631286D01*
X23452500Y-43371350D01*
X23357250Y-43276100D01*
X22627000Y-43276100D01*
X22373000Y-43276100D01*
X21642750Y-43276100D01*
X21547500Y-43371350D01*
X21147070Y-43371350D01*
X21569535Y-42948885D01*
X21642750Y-43022100D01*
X22373000Y-43022100D01*
X22373000Y-42456950D01*
X22627000Y-42456950D01*
X22627000Y-43022100D01*
X23357250Y-43022100D01*
X23452500Y-42926850D01*
X23452500Y-42666914D01*
X23394496Y-42526880D01*
X23287319Y-42419704D01*
X23147285Y-42361700D01*
X22722250Y-42361700D01*
X22627000Y-42456950D01*
X22373000Y-42456950D01*
X22277750Y-42361700D01*
X22156720Y-42361700D01*
X25597411Y-38921009D01*
X25634406Y-38865643D01*
X25638175Y-38874766D01*
X25923731Y-39160821D01*
X26297018Y-39315824D01*
X26701208Y-39316176D01*
X27074766Y-39161825D01*
X27360821Y-38876269D01*
X27368075Y-38858800D01*
X33268538Y-38858800D01*
X35655768Y-41246031D01*
X35700770Y-41276100D01*
X35837056Y-41367164D01*
X36050900Y-41409700D01*
X42573816Y-41409700D01*
X42650046Y-41528165D01*
X42735847Y-41586791D01*
X38530538Y-45792100D01*
X32426184Y-45792100D01*
X32349954Y-45673635D01*
X32222634Y-45586641D01*
X32071500Y-45556036D01*
X30928500Y-45556036D01*
X30787310Y-45582603D01*
X30657635Y-45666046D01*
X30570641Y-45793366D01*
X30550865Y-45891025D01*
X30510557Y-45917958D01*
X30453969Y-45955769D01*
X29918937Y-46490801D01*
X29902982Y-46484176D01*
X29498792Y-46483824D01*
X29125234Y-46638175D01*
X28839179Y-46923731D01*
X28684176Y-47297018D01*
X28683824Y-47701208D01*
X28691048Y-47718690D01*
X26068538Y-50341200D01*
X23331462Y-50341200D01*
X22758800Y-49768538D01*
X22758800Y-49454682D01*
X24223843Y-49454682D01*
X24358900Y-49781545D01*
X24608761Y-50031843D01*
X24935388Y-50167471D01*
X25289054Y-50167779D01*
X25615917Y-50032722D01*
X25866215Y-49782861D01*
X26001843Y-49456234D01*
X26002146Y-49107896D01*
X28159210Y-46950832D01*
X28269331Y-46786026D01*
X28308000Y-46591622D01*
X28308000Y-44910420D01*
X28347070Y-44871350D01*
X30547500Y-44871350D01*
X30547500Y-45131286D01*
X30605504Y-45271320D01*
X30712681Y-45378496D01*
X30852715Y-45436500D01*
X31277750Y-45436500D01*
X31373000Y-45341250D01*
X31373000Y-44776100D01*
X31627000Y-44776100D01*
X31627000Y-45341250D01*
X31722250Y-45436500D01*
X32147285Y-45436500D01*
X32287319Y-45378496D01*
X32394496Y-45271320D01*
X32452500Y-45131286D01*
X32452500Y-44871350D01*
X32357250Y-44776100D01*
X31627000Y-44776100D01*
X31373000Y-44776100D01*
X30642750Y-44776100D01*
X30547500Y-44871350D01*
X28347070Y-44871350D01*
X29051506Y-44166914D01*
X30547500Y-44166914D01*
X30547500Y-44426850D01*
X30642750Y-44522100D01*
X31373000Y-44522100D01*
X31373000Y-43956950D01*
X31627000Y-43956950D01*
X31627000Y-44522100D01*
X32357250Y-44522100D01*
X32452500Y-44426850D01*
X32452500Y-44166914D01*
X32394496Y-44026880D01*
X32287319Y-43919704D01*
X32147285Y-43861700D01*
X31722250Y-43861700D01*
X31627000Y-43956950D01*
X31373000Y-43956950D01*
X31277750Y-43861700D01*
X30852715Y-43861700D01*
X30712681Y-43919704D01*
X30605504Y-44026880D01*
X30547500Y-44166914D01*
X29051506Y-44166914D01*
X29159211Y-44059210D01*
X29159213Y-44059207D01*
X31259771Y-41958650D01*
X31674151Y-42130716D01*
X32323003Y-42131282D01*
X32922680Y-41883501D01*
X33381888Y-41425093D01*
X33630716Y-40825849D01*
X33631282Y-40176997D01*
X33383501Y-39577320D01*
X32925093Y-39118112D01*
X32325849Y-38869284D01*
X31676997Y-38868718D01*
X31077320Y-39116499D01*
X30618112Y-39574907D01*
X30369284Y-40174151D01*
X30368718Y-40823003D01*
X30541182Y-41240398D01*
X28440793Y-43340787D01*
X28440790Y-43340789D01*
X27440790Y-44340790D01*
X27330669Y-44505597D01*
X27292000Y-44700000D01*
X27292000Y-46381202D01*
X25283429Y-48389773D01*
X24936940Y-48389471D01*
X24610077Y-48524528D01*
X24359779Y-48774389D01*
X24224151Y-49101016D01*
X24223843Y-49454682D01*
X22758800Y-49454682D01*
X22758800Y-48168422D01*
X22774766Y-48161825D01*
X23060821Y-47876269D01*
X23215824Y-47502982D01*
X23216176Y-47098792D01*
X23061825Y-46725234D01*
X22776269Y-46439179D01*
X22402982Y-46284176D01*
X21998792Y-46283824D01*
X21625234Y-46438175D01*
X21339179Y-46723731D01*
X21184176Y-47097018D01*
X21183824Y-47501208D01*
X21338175Y-47874766D01*
X21623731Y-48160821D01*
X21641200Y-48168075D01*
X21641200Y-50000000D01*
X21683736Y-50213844D01*
X21792124Y-50376057D01*
X21804869Y-50395131D01*
X22704869Y-51295131D01*
X22886156Y-51416264D01*
X23100000Y-51458800D01*
X26300000Y-51458800D01*
X26513844Y-51416264D01*
X26695131Y-51295131D01*
X29141200Y-48849062D01*
X29141200Y-75168537D01*
X27818937Y-76490801D01*
X27802982Y-76484176D01*
X27398792Y-76483824D01*
X27025234Y-76638175D01*
X26739179Y-76923731D01*
X26584176Y-77297018D01*
X26583824Y-77701208D01*
X26738175Y-78074766D01*
X27023731Y-78360821D01*
X27397018Y-78515824D01*
X27801208Y-78516176D01*
X28174766Y-78361825D01*
X28460821Y-78076269D01*
X28615824Y-77702982D01*
X28616176Y-77298792D01*
X28608952Y-77281310D01*
X29750810Y-76139453D01*
X29750810Y-80630769D01*
X28540790Y-81840790D01*
X28430669Y-82005597D01*
X28392000Y-82200000D01*
X28392000Y-97500000D01*
X28430669Y-97694403D01*
X28540790Y-97859210D01*
X31352334Y-100670755D01*
X31158513Y-100800262D01*
X30913343Y-101167185D01*
X30827251Y-101600000D01*
X30913343Y-102032815D01*
X31158513Y-102399738D01*
X31525436Y-102644908D01*
X31958251Y-102731000D01*
X34041749Y-102731000D01*
X34474564Y-102644908D01*
X34841487Y-102399738D01*
X35086657Y-102032815D01*
X35172749Y-101600000D01*
X35086657Y-101167185D01*
X34841487Y-100800262D01*
X34474564Y-100555092D01*
X34041749Y-100469000D01*
X32587421Y-100469000D01*
X29408000Y-97289580D01*
X29408000Y-82410420D01*
X30618021Y-81200400D01*
X30728141Y-81035593D01*
X30766810Y-80841190D01*
X30766810Y-62341160D01*
X32338445Y-62341160D01*
X32421824Y-62511856D01*
X32853055Y-62656091D01*
X33306657Y-62624322D01*
X33578176Y-62511856D01*
X33661555Y-62341160D01*
X33000000Y-61679605D01*
X32338445Y-62341160D01*
X30766810Y-62341160D01*
X30766810Y-61353055D01*
X31843909Y-61353055D01*
X31875678Y-61806657D01*
X31988144Y-62078176D01*
X32158840Y-62161555D01*
X32820395Y-61500000D01*
X32158840Y-60838445D01*
X31988144Y-60921824D01*
X31843909Y-61353055D01*
X30766810Y-61353055D01*
X30766810Y-60658840D01*
X32338445Y-60658840D01*
X33000000Y-61320395D01*
X33661555Y-60658840D01*
X33578176Y-60488144D01*
X33146945Y-60343909D01*
X32693343Y-60375678D01*
X32421824Y-60488144D01*
X32338445Y-60658840D01*
X30766810Y-60658840D01*
X30766810Y-57451610D01*
X37002421Y-51215999D01*
X41292003Y-51215999D01*
X41486406Y-51177330D01*
X41620196Y-51087934D01*
X41622393Y-51088846D01*
X41976059Y-51089154D01*
X42302922Y-50954097D01*
X42553220Y-50704236D01*
X42688848Y-50377609D01*
X42689156Y-50023943D01*
X42554099Y-49697080D01*
X42304238Y-49446782D01*
X41977611Y-49311154D01*
X41623945Y-49310846D01*
X41297082Y-49445903D01*
X41046784Y-49695764D01*
X40911156Y-50022391D01*
X40911001Y-50199999D01*
X36792001Y-50199999D01*
X36629851Y-50232253D01*
X36597597Y-50238668D01*
X36432791Y-50348789D01*
X30258800Y-56522780D01*
X30258800Y-48368422D01*
X30274766Y-48361825D01*
X30560821Y-48076269D01*
X30715824Y-47702982D01*
X30716176Y-47298792D01*
X30708952Y-47281310D01*
X30858644Y-47131618D01*
X30928500Y-47145764D01*
X32071500Y-47145764D01*
X32212690Y-47119197D01*
X32342365Y-47035754D01*
X32428494Y-46909700D01*
X38762000Y-46909700D01*
X38975844Y-46867164D01*
X39157131Y-46746031D01*
X43895131Y-42008031D01*
X43942927Y-41936500D01*
X44016264Y-41826744D01*
X44052263Y-41645764D01*
X44071500Y-41645764D01*
X44187004Y-41624030D01*
X44223731Y-41660821D01*
X44241200Y-41668075D01*
X44241200Y-61522142D01*
X43993534Y-61769376D01*
X43986280Y-61786845D01*
X40154355Y-61786845D01*
X39940511Y-61829381D01*
X39820498Y-61909572D01*
X39759224Y-61950514D01*
X37500000Y-64209738D01*
X35016621Y-61726359D01*
X36856802Y-61726359D01*
X37030446Y-62146612D01*
X37351697Y-62468423D01*
X37771646Y-62642801D01*
X38226359Y-62643198D01*
X38646612Y-62469554D01*
X38968423Y-62148303D01*
X39142801Y-61728354D01*
X39143198Y-61273641D01*
X38969554Y-60853388D01*
X38648303Y-60531577D01*
X38228354Y-60357199D01*
X37773641Y-60356802D01*
X37353388Y-60530446D01*
X37031577Y-60851697D01*
X36857199Y-61271646D01*
X36856802Y-61726359D01*
X35016621Y-61726359D01*
X34943799Y-61653537D01*
X34943799Y-58634999D01*
X34901263Y-58421155D01*
X34780130Y-58239868D01*
X34759199Y-58218937D01*
X34765824Y-58202982D01*
X34766176Y-57798792D01*
X34611825Y-57425234D01*
X34326269Y-57139179D01*
X33952982Y-56984176D01*
X33548792Y-56983824D01*
X33175234Y-57138175D01*
X32889179Y-57423731D01*
X32734176Y-57797018D01*
X32733824Y-58201208D01*
X32888175Y-58574766D01*
X33173731Y-58860821D01*
X33547018Y-59015824D01*
X33826199Y-59016067D01*
X33826199Y-60853406D01*
X33179605Y-61500000D01*
X33841160Y-62161555D01*
X33893542Y-62135968D01*
X33989868Y-62280130D01*
X36941200Y-65231463D01*
X36941200Y-72456899D01*
X36983736Y-72670743D01*
X37033957Y-72745903D01*
X37104869Y-72852030D01*
X38518133Y-74265295D01*
X38511508Y-74281249D01*
X38511156Y-74685439D01*
X38665507Y-75058997D01*
X38951063Y-75345052D01*
X39304862Y-75491963D01*
X31826945Y-82969880D01*
X31604236Y-82746782D01*
X31277609Y-82611154D01*
X30923943Y-82610846D01*
X30597080Y-82745903D01*
X30346782Y-82995764D01*
X30211154Y-83322391D01*
X30210846Y-83676057D01*
X30345903Y-84002920D01*
X30592000Y-84249447D01*
X30592000Y-95400000D01*
X30630669Y-95594403D01*
X30740790Y-95759210D01*
X34640790Y-99659210D01*
X34805597Y-99769331D01*
X35000000Y-99808000D01*
X47050974Y-99808000D01*
X47295764Y-100053218D01*
X47622391Y-100188846D01*
X47976057Y-100189154D01*
X48302920Y-100054097D01*
X48553218Y-99804236D01*
X48688846Y-99477609D01*
X48689154Y-99123943D01*
X48554097Y-98797080D01*
X48304236Y-98546782D01*
X47977609Y-98411154D01*
X47623943Y-98410846D01*
X47297080Y-98545903D01*
X47050553Y-98792000D01*
X35210420Y-98792000D01*
X34094477Y-97676057D01*
X34510846Y-97676057D01*
X34645903Y-98002920D01*
X34895764Y-98253218D01*
X35222391Y-98388846D01*
X35576057Y-98389154D01*
X35902920Y-98254097D01*
X36098559Y-98058800D01*
X46700000Y-98058800D01*
X46913844Y-98016264D01*
X47095131Y-97895131D01*
X50145131Y-94845132D01*
X50205698Y-94754487D01*
X50266264Y-94663844D01*
X50308800Y-94450000D01*
X50308800Y-94368422D01*
X50324766Y-94361825D01*
X50610821Y-94076269D01*
X50765824Y-93702982D01*
X50766176Y-93298792D01*
X50611825Y-92925234D01*
X50326269Y-92639179D01*
X49952982Y-92484176D01*
X49548792Y-92483824D01*
X49175234Y-92638175D01*
X48889179Y-92923731D01*
X48734176Y-93297018D01*
X48733824Y-93701208D01*
X48888175Y-94074766D01*
X49111378Y-94298359D01*
X46468538Y-96941200D01*
X36098315Y-96941200D01*
X35904236Y-96746782D01*
X35577609Y-96611154D01*
X35223943Y-96610846D01*
X34897080Y-96745903D01*
X34646782Y-96995764D01*
X34511154Y-97322391D01*
X34510846Y-97676057D01*
X34094477Y-97676057D01*
X31608000Y-95189580D01*
X31608000Y-92341160D01*
X32338445Y-92341160D01*
X32421824Y-92511856D01*
X32853055Y-92656091D01*
X33306657Y-92624322D01*
X33578176Y-92511856D01*
X33661555Y-92341160D01*
X33000000Y-91679605D01*
X32338445Y-92341160D01*
X31608000Y-92341160D01*
X31608000Y-91353055D01*
X31843909Y-91353055D01*
X31875678Y-91806657D01*
X31988144Y-92078176D01*
X32158840Y-92161555D01*
X32820395Y-91500000D01*
X33179605Y-91500000D01*
X33841160Y-92161555D01*
X34011856Y-92078176D01*
X34156091Y-91646945D01*
X34124322Y-91193343D01*
X34011856Y-90921824D01*
X33841160Y-90838445D01*
X33179605Y-91500000D01*
X32820395Y-91500000D01*
X32158840Y-90838445D01*
X31988144Y-90921824D01*
X31843909Y-91353055D01*
X31608000Y-91353055D01*
X31608000Y-90658840D01*
X32338445Y-90658840D01*
X33000000Y-91320395D01*
X33661555Y-90658840D01*
X33578176Y-90488144D01*
X33146945Y-90343909D01*
X32693343Y-90375678D01*
X32421824Y-90488144D01*
X32338445Y-90658840D01*
X31608000Y-90658840D01*
X31608000Y-84249026D01*
X31849447Y-84008000D01*
X32015245Y-84008000D01*
X32209648Y-83969331D01*
X32374455Y-83859210D01*
X40902543Y-75331122D01*
X40933242Y-75285178D01*
X41510420Y-74708000D01*
X50989580Y-74708000D01*
X51632791Y-75351212D01*
X51797598Y-75461332D01*
X51992001Y-75500001D01*
X52610999Y-75500001D01*
X52610846Y-75676057D01*
X52745903Y-76002920D01*
X52995764Y-76253218D01*
X53322391Y-76388846D01*
X53676057Y-76389154D01*
X54002920Y-76254097D01*
X54253218Y-76004236D01*
X54388846Y-75677609D01*
X54389154Y-75323943D01*
X54254097Y-74997080D01*
X54004236Y-74746782D01*
X53677609Y-74611154D01*
X53323943Y-74610846D01*
X53320498Y-74612269D01*
X53186404Y-74522670D01*
X52992001Y-74484001D01*
X52202422Y-74484001D01*
X51559210Y-73840790D01*
X51394403Y-73730669D01*
X51200000Y-73692000D01*
X41300000Y-73692000D01*
X41105597Y-73730669D01*
X40940790Y-73840790D01*
X40530365Y-74251215D01*
X40389157Y-73909465D01*
X40103601Y-73623410D01*
X39730314Y-73468407D01*
X39326124Y-73468055D01*
X39308642Y-73475278D01*
X38058800Y-72225437D01*
X38058800Y-71058800D01*
X38801685Y-71058800D01*
X38995764Y-71253218D01*
X39322391Y-71388846D01*
X39676057Y-71389154D01*
X40002920Y-71254097D01*
X40253218Y-71004236D01*
X40388846Y-70677609D01*
X40389154Y-70323943D01*
X40254097Y-69997080D01*
X40004236Y-69746782D01*
X39683364Y-69613544D01*
X39889267Y-69408000D01*
X52992000Y-69408000D01*
X52992000Y-72750974D01*
X52746782Y-72995764D01*
X52611154Y-73322391D01*
X52610846Y-73676057D01*
X52745903Y-74002920D01*
X52995764Y-74253218D01*
X53322391Y-74388846D01*
X53676057Y-74389154D01*
X54002920Y-74254097D01*
X54253218Y-74004236D01*
X54388846Y-73677609D01*
X54389154Y-73323943D01*
X54254097Y-72997080D01*
X54008000Y-72750553D01*
X54008000Y-69110420D01*
X54959210Y-68159210D01*
X55069331Y-67994403D01*
X55108000Y-67800000D01*
X55108000Y-62341160D01*
X55338445Y-62341160D01*
X55421824Y-62511856D01*
X55853055Y-62656091D01*
X56306657Y-62624322D01*
X56578176Y-62511856D01*
X56661555Y-62341160D01*
X56000000Y-61679605D01*
X55338445Y-62341160D01*
X55108000Y-62341160D01*
X55108000Y-62136721D01*
X55158840Y-62161555D01*
X55820395Y-61500000D01*
X56179605Y-61500000D01*
X56841160Y-62161555D01*
X57011856Y-62078176D01*
X57156091Y-61646945D01*
X57124322Y-61193343D01*
X57011856Y-60921824D01*
X56841160Y-60838445D01*
X56179605Y-61500000D01*
X55820395Y-61500000D01*
X55158840Y-60838445D01*
X55108000Y-60863279D01*
X55108000Y-60658840D01*
X55338445Y-60658840D01*
X56000000Y-61320395D01*
X56661555Y-60658840D01*
X56578176Y-60488144D01*
X56146945Y-60343909D01*
X55693343Y-60375678D01*
X55421824Y-60488144D01*
X55338445Y-60658840D01*
X55108000Y-60658840D01*
X55108000Y-51149026D01*
X55353218Y-50904236D01*
X55488846Y-50577609D01*
X55489154Y-50223943D01*
X55354097Y-49897080D01*
X55104236Y-49646782D01*
X54777609Y-49511154D01*
X54423943Y-49510846D01*
X54097080Y-49645903D01*
X53846782Y-49895764D01*
X53711154Y-50222391D01*
X53710846Y-50576057D01*
X53845903Y-50902920D01*
X54092000Y-51149447D01*
X54092000Y-67589580D01*
X53289580Y-68392000D01*
X39888846Y-68392000D01*
X39644056Y-68146782D01*
X39317429Y-68011154D01*
X38963763Y-68010846D01*
X38636900Y-68145903D01*
X38386602Y-68395764D01*
X38250974Y-68722391D01*
X38250666Y-69076057D01*
X38385723Y-69402920D01*
X38635584Y-69653218D01*
X38956456Y-69786456D01*
X38801441Y-69941200D01*
X38058800Y-69941200D01*
X38058800Y-65231462D01*
X40385817Y-62904445D01*
X43985933Y-62904445D01*
X43992530Y-62920411D01*
X44278086Y-63206466D01*
X44651373Y-63361469D01*
X45055563Y-63361821D01*
X45429121Y-63207470D01*
X45498495Y-63138217D01*
X45498495Y-65134932D01*
X45222752Y-65248867D01*
X44936697Y-65534423D01*
X44781694Y-65907710D01*
X44781342Y-66311900D01*
X44788566Y-66329382D01*
X44376748Y-66741200D01*
X41568422Y-66741200D01*
X41561825Y-66725234D01*
X41276269Y-66439179D01*
X40902982Y-66284176D01*
X40498792Y-66283824D01*
X40125234Y-66438175D01*
X39839179Y-66723731D01*
X39684176Y-67097018D01*
X39683824Y-67501208D01*
X39838175Y-67874766D01*
X40123731Y-68160821D01*
X40497018Y-68315824D01*
X40901208Y-68316176D01*
X41274766Y-68161825D01*
X41560821Y-67876269D01*
X41568075Y-67858800D01*
X44608210Y-67858800D01*
X44822054Y-67816264D01*
X45003341Y-67695131D01*
X45578581Y-67119891D01*
X45594536Y-67126516D01*
X45998726Y-67126868D01*
X46372284Y-66972517D01*
X46658339Y-66686961D01*
X46813342Y-66313674D01*
X46813694Y-65909484D01*
X46659343Y-65535926D01*
X46616095Y-65492602D01*
X46616095Y-61726359D01*
X49856802Y-61726359D01*
X50030446Y-62146612D01*
X50351697Y-62468423D01*
X50771646Y-62642801D01*
X51226359Y-62643198D01*
X51646612Y-62469554D01*
X51968423Y-62148303D01*
X52142801Y-61728354D01*
X52143198Y-61273641D01*
X51969554Y-60853388D01*
X51648303Y-60531577D01*
X51228354Y-60357199D01*
X50773641Y-60356802D01*
X50353388Y-60530446D01*
X50031577Y-60851697D01*
X49857199Y-61271646D01*
X49856802Y-61726359D01*
X46616095Y-61726359D01*
X46616095Y-45976057D01*
X51110846Y-45976057D01*
X51245903Y-46302920D01*
X51492000Y-46549447D01*
X51492000Y-52950974D01*
X51246782Y-53195764D01*
X51111154Y-53522391D01*
X51110846Y-53876057D01*
X51245903Y-54202920D01*
X51495764Y-54453218D01*
X51822391Y-54588846D01*
X52176057Y-54589154D01*
X52502920Y-54454097D01*
X52753218Y-54204236D01*
X52888846Y-53877609D01*
X52889154Y-53523943D01*
X52754097Y-53197080D01*
X52508000Y-52950553D01*
X52508000Y-46549026D01*
X52753218Y-46304236D01*
X52888846Y-45977609D01*
X52889154Y-45623943D01*
X52754097Y-45297080D01*
X52504236Y-45046782D01*
X52177609Y-44911154D01*
X51823943Y-44910846D01*
X51497080Y-45045903D01*
X51246782Y-45295764D01*
X51111154Y-45622391D01*
X51110846Y-45976057D01*
X46616095Y-45976057D01*
X46616095Y-43903563D01*
X46632061Y-43896966D01*
X46918116Y-43611410D01*
X46925370Y-43593941D01*
X48246312Y-43593941D01*
X48277366Y-43615159D01*
X48428500Y-43645764D01*
X49571500Y-43645764D01*
X49712690Y-43619197D01*
X49842365Y-43535754D01*
X49928494Y-43409700D01*
X52952259Y-43409700D01*
X53099981Y-43439083D01*
X53247703Y-43409700D01*
X54619438Y-43409700D01*
X57573001Y-46363263D01*
X57573001Y-75931801D01*
X57615537Y-76145645D01*
X57687416Y-76253218D01*
X57736670Y-76326932D01*
X58741200Y-77331462D01*
X58741200Y-81168538D01*
X58117638Y-81792100D01*
X49926184Y-81792100D01*
X49849954Y-81673635D01*
X49722634Y-81586641D01*
X49571500Y-81556036D01*
X48428500Y-81556036D01*
X48287310Y-81582603D01*
X48157635Y-81666046D01*
X48070641Y-81793366D01*
X48040036Y-81944500D01*
X48040036Y-82603057D01*
X47976269Y-82539179D01*
X47602982Y-82384176D01*
X47198792Y-82383824D01*
X46825234Y-82538175D01*
X46539179Y-82823731D01*
X46384176Y-83197018D01*
X46383824Y-83601208D01*
X46538175Y-83974766D01*
X46823731Y-84260821D01*
X46841200Y-84268075D01*
X46841200Y-93768537D01*
X45668538Y-94941200D01*
X36868422Y-94941200D01*
X36861825Y-94925234D01*
X36576269Y-94639179D01*
X36558800Y-94631925D01*
X36558800Y-91726359D01*
X36856802Y-91726359D01*
X37030446Y-92146612D01*
X37351697Y-92468423D01*
X37771646Y-92642801D01*
X38226359Y-92643198D01*
X38646612Y-92469554D01*
X38968423Y-92148303D01*
X39142801Y-91728354D01*
X39143198Y-91273641D01*
X38969554Y-90853388D01*
X38648303Y-90531577D01*
X38228354Y-90357199D01*
X37773641Y-90356802D01*
X37353388Y-90530446D01*
X37031577Y-90851697D01*
X36857199Y-91271646D01*
X36856802Y-91726359D01*
X36558800Y-91726359D01*
X36558800Y-82187403D01*
X39111262Y-79634941D01*
X38984176Y-79940998D01*
X38983824Y-80345188D01*
X39138175Y-80718746D01*
X39423731Y-81004801D01*
X39441200Y-81012055D01*
X39441200Y-88183980D01*
X39483736Y-88397824D01*
X39604869Y-88579111D01*
X44206821Y-93181063D01*
X44200196Y-93197018D01*
X44199844Y-93601208D01*
X44354195Y-93974766D01*
X44639751Y-94260821D01*
X45013038Y-94415824D01*
X45417228Y-94416176D01*
X45790786Y-94261825D01*
X46076841Y-93976269D01*
X46231844Y-93602982D01*
X46232196Y-93198792D01*
X46077845Y-92825234D01*
X45792289Y-92539179D01*
X45419002Y-92384176D01*
X45014812Y-92383824D01*
X44997330Y-92391048D01*
X40558800Y-87952518D01*
X40558800Y-81073150D01*
X42547500Y-81073150D01*
X42547500Y-81333086D01*
X42605504Y-81473120D01*
X42712681Y-81580296D01*
X42852715Y-81638300D01*
X43015481Y-81638300D01*
X42997080Y-81645903D01*
X42746782Y-81895764D01*
X42611154Y-82222391D01*
X42610846Y-82576057D01*
X42745903Y-82902920D01*
X42995764Y-83153218D01*
X43322391Y-83288846D01*
X43676057Y-83289154D01*
X44002920Y-83154097D01*
X44253218Y-82904236D01*
X44388846Y-82577609D01*
X44389154Y-82223943D01*
X44387731Y-82220498D01*
X44477330Y-82086405D01*
X44483308Y-82056352D01*
X44628464Y-81911196D01*
X44707683Y-82102920D01*
X44957544Y-82353218D01*
X45284171Y-82488846D01*
X45637837Y-82489154D01*
X45964700Y-82354097D01*
X46214998Y-82104236D01*
X46350626Y-81777609D01*
X46350929Y-81429271D01*
X46908850Y-80871350D01*
X48047500Y-80871350D01*
X48047500Y-81131286D01*
X48105504Y-81271320D01*
X48212681Y-81378496D01*
X48352715Y-81436500D01*
X48777750Y-81436500D01*
X48873000Y-81341250D01*
X48873000Y-80776100D01*
X49127000Y-80776100D01*
X49127000Y-81341250D01*
X49222250Y-81436500D01*
X49647285Y-81436500D01*
X49787319Y-81378496D01*
X49894496Y-81271320D01*
X49952500Y-81131286D01*
X49952500Y-80871350D01*
X49857250Y-80776100D01*
X49127000Y-80776100D01*
X48873000Y-80776100D01*
X48142750Y-80776100D01*
X48047500Y-80871350D01*
X46908850Y-80871350D01*
X47613286Y-80166914D01*
X48047500Y-80166914D01*
X48047500Y-80426850D01*
X48142750Y-80522100D01*
X48873000Y-80522100D01*
X48873000Y-79956950D01*
X49127000Y-79956950D01*
X49127000Y-80522100D01*
X49857250Y-80522100D01*
X49952500Y-80426850D01*
X49952500Y-80166914D01*
X49894496Y-80026880D01*
X49787319Y-79919704D01*
X49647285Y-79861700D01*
X49222250Y-79861700D01*
X49127000Y-79956950D01*
X48873000Y-79956950D01*
X48777750Y-79861700D01*
X48352715Y-79861700D01*
X48212681Y-79919704D01*
X48105504Y-80026880D01*
X48047500Y-80166914D01*
X47613286Y-80166914D01*
X48802402Y-78977799D01*
X53911536Y-78977799D01*
X53911536Y-80200000D01*
X53938103Y-80341190D01*
X54021546Y-80470865D01*
X54148866Y-80557859D01*
X54300000Y-80588464D01*
X55700000Y-80588464D01*
X55841190Y-80561897D01*
X55970865Y-80478454D01*
X56057859Y-80351134D01*
X56088464Y-80200000D01*
X56088464Y-80116972D01*
X56386863Y-80415893D01*
X56784032Y-80580812D01*
X57214081Y-80581187D01*
X57611537Y-80416962D01*
X57915893Y-80113137D01*
X58080812Y-79715968D01*
X58081187Y-79285919D01*
X57916962Y-78888463D01*
X57717950Y-78689103D01*
X57776057Y-78689154D01*
X58102920Y-78554097D01*
X58353218Y-78304236D01*
X58488846Y-77977609D01*
X58489154Y-77623943D01*
X58354097Y-77297080D01*
X58104236Y-77046782D01*
X57777609Y-76911154D01*
X57423943Y-76910846D01*
X57097080Y-77045903D01*
X56846782Y-77295764D01*
X56711154Y-77622391D01*
X56710858Y-77961799D01*
X54856621Y-77961799D01*
X55559210Y-77259210D01*
X55669331Y-77094404D01*
X55708000Y-76900000D01*
X55708000Y-72249026D01*
X55953218Y-72004236D01*
X56088846Y-71677609D01*
X56089154Y-71323943D01*
X55954097Y-70997080D01*
X55704236Y-70746782D01*
X55377609Y-70611154D01*
X55023943Y-70610846D01*
X54697080Y-70745903D01*
X54446782Y-70995764D01*
X54311154Y-71322391D01*
X54310846Y-71676057D01*
X54445903Y-72002920D01*
X54692000Y-72249447D01*
X54692000Y-76689580D01*
X54089580Y-77292000D01*
X48021240Y-77292000D01*
X47826837Y-77330669D01*
X47662030Y-77440790D01*
X44378922Y-80723898D01*
X44357252Y-80723898D01*
X44452500Y-80628650D01*
X44452500Y-80368714D01*
X44394496Y-80228680D01*
X44287319Y-80121504D01*
X44147285Y-80063500D01*
X43722250Y-80063500D01*
X43627000Y-80158750D01*
X43627000Y-80723900D01*
X43647000Y-80723900D01*
X43647000Y-80977900D01*
X43627000Y-80977900D01*
X43627000Y-80997900D01*
X43373000Y-80997900D01*
X43373000Y-80977900D01*
X42642750Y-80977900D01*
X42547500Y-81073150D01*
X40558800Y-81073150D01*
X40558800Y-81012402D01*
X40574766Y-81005805D01*
X40860821Y-80720249D01*
X41006791Y-80368714D01*
X42547500Y-80368714D01*
X42547500Y-80628650D01*
X42642750Y-80723900D01*
X43373000Y-80723900D01*
X43373000Y-80158750D01*
X43277750Y-80063500D01*
X42852715Y-80063500D01*
X42712681Y-80121504D01*
X42605504Y-80228680D01*
X42547500Y-80368714D01*
X41006791Y-80368714D01*
X41015824Y-80346962D01*
X41016176Y-79942772D01*
X41008952Y-79925290D01*
X41030130Y-79904112D01*
X41226343Y-79707900D01*
X42573816Y-79707900D01*
X42650046Y-79826365D01*
X42777366Y-79913359D01*
X42928500Y-79943964D01*
X44071500Y-79943964D01*
X44212690Y-79917397D01*
X44342365Y-79833954D01*
X44429359Y-79706634D01*
X44459964Y-79555500D01*
X44459964Y-78742700D01*
X44433397Y-78601510D01*
X44349954Y-78471835D01*
X44222634Y-78384841D01*
X44071500Y-78354236D01*
X42928500Y-78354236D01*
X42787310Y-78380803D01*
X42657635Y-78464246D01*
X42571506Y-78590300D01*
X40994880Y-78590300D01*
X40781037Y-78632835D01*
X40599749Y-78753968D01*
X40239868Y-79113850D01*
X40218937Y-79134781D01*
X40202982Y-79128156D01*
X39798792Y-79127804D01*
X39491379Y-79254824D01*
X40037005Y-78709199D01*
X40052959Y-78715824D01*
X40457149Y-78716176D01*
X40830707Y-78561825D01*
X41116762Y-78276269D01*
X41271765Y-77902982D01*
X41272117Y-77498792D01*
X41264894Y-77481310D01*
X41987404Y-76758800D01*
X48331578Y-76758800D01*
X48338175Y-76774766D01*
X48623731Y-77060821D01*
X48997018Y-77215824D01*
X49401208Y-77216176D01*
X49774766Y-77061825D01*
X50060821Y-76776269D01*
X50215824Y-76402982D01*
X50216176Y-75998792D01*
X50061825Y-75625234D01*
X49776269Y-75339179D01*
X49402982Y-75184176D01*
X48998792Y-75183824D01*
X48625234Y-75338175D01*
X48339179Y-75623731D01*
X48331925Y-75641200D01*
X41755941Y-75641200D01*
X41542097Y-75683736D01*
X41490881Y-75717958D01*
X41360809Y-75804869D01*
X40474878Y-76690801D01*
X40458923Y-76684176D01*
X40054733Y-76683824D01*
X39681175Y-76838175D01*
X39395120Y-77123731D01*
X39240117Y-77497018D01*
X39239765Y-77901208D01*
X39246988Y-77918690D01*
X35604869Y-81560810D01*
X35483736Y-81742097D01*
X35441200Y-81955941D01*
X35441200Y-94631578D01*
X35425234Y-94638175D01*
X35139179Y-94923731D01*
X34984176Y-95297018D01*
X34983824Y-95701208D01*
X35138175Y-96074766D01*
X35423731Y-96360821D01*
X35797018Y-96515824D01*
X36201208Y-96516176D01*
X36574766Y-96361825D01*
X36860821Y-96076269D01*
X36868075Y-96058800D01*
X45900000Y-96058800D01*
X46113844Y-96016264D01*
X46295131Y-95895131D01*
X47795131Y-94395132D01*
X47884204Y-94261825D01*
X47916264Y-94213844D01*
X47958800Y-94000000D01*
X47958800Y-91726359D01*
X49856802Y-91726359D01*
X50030446Y-92146612D01*
X50351697Y-92468423D01*
X50771646Y-92642801D01*
X51226359Y-92643198D01*
X51646612Y-92469554D01*
X51775229Y-92341160D01*
X55338445Y-92341160D01*
X55421824Y-92511856D01*
X55853055Y-92656091D01*
X56306657Y-92624322D01*
X56578176Y-92511856D01*
X56661555Y-92341160D01*
X56000000Y-91679605D01*
X55338445Y-92341160D01*
X51775229Y-92341160D01*
X51968423Y-92148303D01*
X52142801Y-91728354D01*
X52143128Y-91353055D01*
X54843909Y-91353055D01*
X54875678Y-91806657D01*
X54988144Y-92078176D01*
X55158840Y-92161555D01*
X55820395Y-91500000D01*
X56179605Y-91500000D01*
X56841160Y-92161555D01*
X57011856Y-92078176D01*
X57156091Y-91646945D01*
X57124322Y-91193343D01*
X57011856Y-90921824D01*
X56841160Y-90838445D01*
X56179605Y-91500000D01*
X55820395Y-91500000D01*
X55158840Y-90838445D01*
X54988144Y-90921824D01*
X54843909Y-91353055D01*
X52143128Y-91353055D01*
X52143198Y-91273641D01*
X51969554Y-90853388D01*
X51775345Y-90658840D01*
X55338445Y-90658840D01*
X56000000Y-91320395D01*
X56661555Y-90658840D01*
X56578176Y-90488144D01*
X56146945Y-90343909D01*
X55693343Y-90375678D01*
X55421824Y-90488144D01*
X55338445Y-90658840D01*
X51775345Y-90658840D01*
X51648303Y-90531577D01*
X51228354Y-90357199D01*
X50773641Y-90356802D01*
X50353388Y-90530446D01*
X50031577Y-90851697D01*
X49857199Y-91271646D01*
X49856802Y-91726359D01*
X47958800Y-91726359D01*
X47958800Y-84268422D01*
X47974766Y-84261825D01*
X48260821Y-83976269D01*
X48268075Y-83958800D01*
X48700000Y-83958800D01*
X48913844Y-83916264D01*
X49095131Y-83795131D01*
X49395131Y-83495131D01*
X49458696Y-83400000D01*
X49516264Y-83313844D01*
X49549697Y-83145764D01*
X49571500Y-83145764D01*
X49712690Y-83119197D01*
X49842365Y-83035754D01*
X49928494Y-82909700D01*
X58349100Y-82909700D01*
X58562944Y-82867164D01*
X58744231Y-82746031D01*
X59695131Y-81795131D01*
X59816265Y-81613843D01*
X59858800Y-81400000D01*
X59858800Y-77100000D01*
X59816264Y-76886156D01*
X59695131Y-76704869D01*
X58690601Y-75700339D01*
X58690601Y-46131801D01*
X58673737Y-46047018D01*
X58648066Y-45917958D01*
X58526932Y-45736670D01*
X55246031Y-42455769D01*
X55192056Y-42419704D01*
X55064744Y-42334636D01*
X54850900Y-42292100D01*
X49926184Y-42292100D01*
X49849954Y-42173635D01*
X49722634Y-42086641D01*
X49571500Y-42056036D01*
X48428500Y-42056036D01*
X48287310Y-42082603D01*
X48157635Y-42166046D01*
X48070641Y-42293366D01*
X48040036Y-42444500D01*
X48040036Y-42476341D01*
X46925717Y-42476341D01*
X46919120Y-42460375D01*
X46633564Y-42174320D01*
X46616095Y-42167066D01*
X46616095Y-41371350D01*
X48047500Y-41371350D01*
X48047500Y-41631286D01*
X48105504Y-41771320D01*
X48212681Y-41878496D01*
X48352715Y-41936500D01*
X48777750Y-41936500D01*
X48873000Y-41841250D01*
X48873000Y-41276100D01*
X49127000Y-41276100D01*
X49127000Y-41841250D01*
X49222250Y-41936500D01*
X49647285Y-41936500D01*
X49787319Y-41878496D01*
X49894496Y-41771320D01*
X49952500Y-41631286D01*
X49952500Y-41371350D01*
X49857250Y-41276100D01*
X49127000Y-41276100D01*
X48873000Y-41276100D01*
X48142750Y-41276100D01*
X48047500Y-41371350D01*
X46616095Y-41371350D01*
X46616095Y-40666914D01*
X48047500Y-40666914D01*
X48047500Y-40926850D01*
X48142750Y-41022100D01*
X48873000Y-41022100D01*
X48873000Y-40456950D01*
X49127000Y-40456950D01*
X49127000Y-41022100D01*
X49857250Y-41022100D01*
X49952500Y-40926850D01*
X49952500Y-40666914D01*
X49894496Y-40526880D01*
X49787319Y-40419704D01*
X49647285Y-40361700D01*
X49222250Y-40361700D01*
X49127000Y-40456950D01*
X48873000Y-40456950D01*
X48777750Y-40361700D01*
X48352715Y-40361700D01*
X48212681Y-40419704D01*
X48105504Y-40526880D01*
X48047500Y-40666914D01*
X46616095Y-40666914D01*
X46616095Y-36534841D01*
X47346288Y-36534841D01*
X47556012Y-37042412D01*
X47944011Y-37431089D01*
X48451216Y-37641698D01*
X49000409Y-37642178D01*
X49507980Y-37432454D01*
X49896657Y-37044455D01*
X50010849Y-36769449D01*
X51851029Y-36769449D01*
X58992000Y-43910420D01*
X58992000Y-74900000D01*
X59030669Y-75094403D01*
X59140790Y-75259210D01*
X60192000Y-76310420D01*
X60192000Y-96689580D01*
X56412580Y-100469000D01*
X54958251Y-100469000D01*
X54525436Y-100555092D01*
X54158513Y-100800262D01*
X53913343Y-101167185D01*
X53827251Y-101600000D01*
X53913343Y-102032815D01*
X54158513Y-102399738D01*
X54525436Y-102644908D01*
X54958251Y-102731000D01*
X57041749Y-102731000D01*
X57474564Y-102644908D01*
X57841487Y-102399738D01*
X58086657Y-102032815D01*
X58172749Y-101600000D01*
X67827251Y-101600000D01*
X67913343Y-102032815D01*
X68158513Y-102399738D01*
X68525436Y-102644908D01*
X68958251Y-102731000D01*
X71041749Y-102731000D01*
X71474564Y-102644908D01*
X71841487Y-102399738D01*
X72086657Y-102032815D01*
X72172749Y-101600000D01*
X72086657Y-101167185D01*
X71841487Y-100800262D01*
X71474564Y-100555092D01*
X71041749Y-100469000D01*
X68958251Y-100469000D01*
X68525436Y-100555092D01*
X68158513Y-100800262D01*
X67913343Y-101167185D01*
X67827251Y-101600000D01*
X58172749Y-101600000D01*
X58086657Y-101167185D01*
X57841487Y-100800262D01*
X57647665Y-100670755D01*
X61059210Y-97259210D01*
X61169331Y-97094403D01*
X61208000Y-96900000D01*
X61208000Y-95800000D01*
X67827251Y-95800000D01*
X67913343Y-96232815D01*
X68158513Y-96599738D01*
X68525436Y-96844908D01*
X68958251Y-96931000D01*
X71041749Y-96931000D01*
X71474564Y-96844908D01*
X71841487Y-96599738D01*
X72086657Y-96232815D01*
X72172749Y-95800000D01*
X72086657Y-95367185D01*
X71841487Y-95000262D01*
X71474564Y-94755092D01*
X71041749Y-94669000D01*
X68958251Y-94669000D01*
X68525436Y-94755092D01*
X68158513Y-95000262D01*
X67913343Y-95367185D01*
X67827251Y-95800000D01*
X61208000Y-95800000D01*
X61208000Y-92627000D01*
X63669000Y-92627000D01*
X63669000Y-93377000D01*
X63841753Y-93991489D01*
X64236511Y-94493093D01*
X64793175Y-94805448D01*
X64920194Y-94836161D01*
X65173000Y-94780490D01*
X65173000Y-92627000D01*
X65427000Y-92627000D01*
X65427000Y-94780490D01*
X65679806Y-94836161D01*
X65806825Y-94805448D01*
X66363489Y-94493093D01*
X66758247Y-93991489D01*
X66931000Y-93377000D01*
X66931000Y-92845432D01*
X73311196Y-92845432D01*
X73453433Y-93369640D01*
X73785448Y-93799513D01*
X74256695Y-94069607D01*
X74359443Y-94088350D01*
X74573000Y-94029462D01*
X74573000Y-92627000D01*
X74827000Y-92627000D01*
X74827000Y-94029462D01*
X75040557Y-94088350D01*
X75143305Y-94069607D01*
X75614552Y-93799513D01*
X75946567Y-93369640D01*
X76088804Y-92845432D01*
X75991384Y-92627000D01*
X74827000Y-92627000D01*
X74573000Y-92627000D01*
X73408616Y-92627000D01*
X73311196Y-92845432D01*
X66931000Y-92845432D01*
X66931000Y-92627000D01*
X65427000Y-92627000D01*
X65173000Y-92627000D01*
X63669000Y-92627000D01*
X61208000Y-92627000D01*
X61208000Y-91623000D01*
X63669000Y-91623000D01*
X63669000Y-92373000D01*
X65173000Y-92373000D01*
X65173000Y-90219510D01*
X65427000Y-90219510D01*
X65427000Y-92373000D01*
X66931000Y-92373000D01*
X66931000Y-92154568D01*
X73311196Y-92154568D01*
X73408616Y-92373000D01*
X74573000Y-92373000D01*
X74573000Y-90970538D01*
X74827000Y-90970538D01*
X74827000Y-92373000D01*
X75991384Y-92373000D01*
X76088804Y-92154568D01*
X75946567Y-91630360D01*
X75614552Y-91200487D01*
X75143305Y-90930393D01*
X75040557Y-90911650D01*
X74827000Y-90970538D01*
X74573000Y-90970538D01*
X74359443Y-90911650D01*
X74256695Y-90930393D01*
X73785448Y-91200487D01*
X73453433Y-91630360D01*
X73311196Y-92154568D01*
X66931000Y-92154568D01*
X66931000Y-91623000D01*
X66758247Y-91008511D01*
X66363489Y-90506907D01*
X65806825Y-90194552D01*
X65679806Y-90163839D01*
X65427000Y-90219510D01*
X65173000Y-90219510D01*
X64920194Y-90163839D01*
X64793175Y-90194552D01*
X64236511Y-90506907D01*
X63841753Y-91008511D01*
X63669000Y-91623000D01*
X61208000Y-91623000D01*
X61208000Y-87600000D01*
X67827251Y-87600000D01*
X67913343Y-88032815D01*
X68158513Y-88399738D01*
X68525436Y-88644908D01*
X68958251Y-88731000D01*
X71041749Y-88731000D01*
X71474564Y-88644908D01*
X71841487Y-88399738D01*
X72086657Y-88032815D01*
X72172749Y-87600000D01*
X72086657Y-87167185D01*
X71841487Y-86800262D01*
X71474564Y-86555092D01*
X71041749Y-86469000D01*
X68958251Y-86469000D01*
X68525436Y-86555092D01*
X68158513Y-86800262D01*
X67913343Y-87167185D01*
X67827251Y-87600000D01*
X61208000Y-87600000D01*
X61208000Y-76100000D01*
X61169331Y-75905597D01*
X61169331Y-75905596D01*
X61059210Y-75740790D01*
X60008000Y-74689580D01*
X60008000Y-62837909D01*
X73988908Y-62837909D01*
X74307255Y-63285422D01*
X74772624Y-63577045D01*
X75170467Y-63665245D01*
X75374719Y-63569784D01*
X75169966Y-62408573D01*
X74008754Y-62613326D01*
X73988908Y-62837909D01*
X60008000Y-62837909D01*
X60008000Y-62158933D01*
X73869187Y-62158933D01*
X73964648Y-62363185D01*
X75125859Y-62158432D01*
X74921106Y-60997220D01*
X74696523Y-60977374D01*
X74249010Y-61295721D01*
X73957387Y-61761090D01*
X73869187Y-62158933D01*
X60008000Y-62158933D01*
X60008000Y-60953114D01*
X75171247Y-60953114D01*
X75376000Y-62114325D01*
X76537212Y-61909572D01*
X76557058Y-61684989D01*
X76238711Y-61237476D01*
X75773342Y-60945853D01*
X75375499Y-60857653D01*
X75171247Y-60953114D01*
X60008000Y-60953114D01*
X60008000Y-43700000D01*
X59969331Y-43505597D01*
X59859210Y-43340790D01*
X57278476Y-40760056D01*
X58015787Y-40760056D01*
X58150844Y-41086919D01*
X58400705Y-41337217D01*
X58727332Y-41472845D01*
X59075670Y-41473148D01*
X60492000Y-42889478D01*
X60492000Y-54250974D01*
X60246782Y-54495764D01*
X60111154Y-54822391D01*
X60110846Y-55176057D01*
X60245903Y-55502920D01*
X60495764Y-55753218D01*
X60822391Y-55888846D01*
X61176057Y-55889154D01*
X61502920Y-55754097D01*
X61753218Y-55504236D01*
X61888846Y-55177609D01*
X61889154Y-54823943D01*
X61754097Y-54497080D01*
X61508000Y-54250553D01*
X61508000Y-42679058D01*
X61469331Y-42484655D01*
X61359210Y-42319848D01*
X59793793Y-40754431D01*
X59794095Y-40407942D01*
X59659038Y-40081079D01*
X59409177Y-39830781D01*
X59082550Y-39695153D01*
X58728884Y-39694845D01*
X58402021Y-39829902D01*
X58151723Y-40079763D01*
X58016095Y-40406390D01*
X58015787Y-40760056D01*
X57278476Y-40760056D01*
X52420659Y-35902239D01*
X52255852Y-35792118D01*
X52061449Y-35753449D01*
X50010808Y-35753449D01*
X49898022Y-35480486D01*
X49510023Y-35091809D01*
X49002818Y-34881200D01*
X48453625Y-34880720D01*
X47946054Y-35090444D01*
X47557377Y-35478443D01*
X47346768Y-35985648D01*
X47346288Y-36534841D01*
X46616095Y-36534841D01*
X46616095Y-33666959D01*
X51442048Y-33666959D01*
X51651772Y-34174530D01*
X52039771Y-34563207D01*
X52546976Y-34773816D01*
X53096169Y-34774296D01*
X53603740Y-34564572D01*
X53992417Y-34176573D01*
X54203026Y-33669368D01*
X54203506Y-33120175D01*
X53993782Y-32612604D01*
X53605783Y-32223927D01*
X53098578Y-32013318D01*
X52549385Y-32012838D01*
X52041814Y-32222562D01*
X51653137Y-32610561D01*
X51442528Y-33117766D01*
X51442048Y-33666959D01*
X46616095Y-33666959D01*
X46616095Y-31720743D01*
X46760821Y-31576269D01*
X46768075Y-31558800D01*
X53768538Y-31558800D01*
X55764577Y-33554840D01*
X55836908Y-33663092D01*
X58086906Y-35913089D01*
X58086908Y-35913092D01*
X58195496Y-35985648D01*
X58276437Y-36039731D01*
X58500000Y-36084201D01*
X58500005Y-36084200D01*
X61800754Y-36084200D01*
X61838175Y-36174766D01*
X62123731Y-36460821D01*
X62141200Y-36468075D01*
X62141200Y-41171714D01*
X62139179Y-41173731D01*
X61984176Y-41547018D01*
X61983824Y-41951208D01*
X62138175Y-42324766D01*
X62423731Y-42610821D01*
X62466600Y-42628622D01*
X62466600Y-45371083D01*
X62425234Y-45388175D01*
X62139179Y-45673731D01*
X61984176Y-46047018D01*
X61983824Y-46451208D01*
X62138175Y-46824766D01*
X62423731Y-47110821D01*
X62797018Y-47265824D01*
X63201208Y-47266176D01*
X63574766Y-47111825D01*
X63860821Y-46826269D01*
X64015824Y-46452982D01*
X64016176Y-46048792D01*
X63861825Y-45675234D01*
X63576269Y-45389179D01*
X63533400Y-45371378D01*
X63533400Y-42628917D01*
X63574766Y-42611825D01*
X63860821Y-42326269D01*
X64015824Y-41952982D01*
X64016176Y-41548792D01*
X63861825Y-41175234D01*
X63576269Y-40889179D01*
X63258800Y-40757354D01*
X63258800Y-36468422D01*
X63274766Y-36461825D01*
X63560821Y-36176269D01*
X63715824Y-35802982D01*
X63716176Y-35398792D01*
X63561825Y-35025234D01*
X63276269Y-34739179D01*
X62902982Y-34584176D01*
X62498792Y-34583824D01*
X62125234Y-34738175D01*
X61947299Y-34915800D01*
X58741983Y-34915800D01*
X56663092Y-32836908D01*
X56554840Y-32764577D01*
X55624283Y-31834020D01*
X56816801Y-31834020D01*
X57021053Y-31929481D01*
X57550459Y-31783392D01*
X57983660Y-31445829D01*
X58202612Y-31102145D01*
X58182766Y-30877562D01*
X57021554Y-30672809D01*
X56816801Y-31834020D01*
X55624283Y-31834020D01*
X54418464Y-30628201D01*
X55514741Y-30628201D01*
X55660830Y-31157607D01*
X55998393Y-31590808D01*
X56342077Y-31809760D01*
X56566660Y-31789914D01*
X56771413Y-30628702D01*
X55610202Y-30423949D01*
X55514741Y-30628201D01*
X54418464Y-30628201D01*
X54395131Y-30604869D01*
X54375014Y-30591427D01*
X54213844Y-30483736D01*
X54000000Y-30441200D01*
X46768422Y-30441200D01*
X46761825Y-30425234D01*
X46476269Y-30139179D01*
X46102982Y-29984176D01*
X45698792Y-29983824D01*
X45325234Y-30138175D01*
X45039179Y-30423731D01*
X44884176Y-30797018D01*
X44883824Y-31201208D01*
X45038175Y-31574766D01*
X45323731Y-31860821D01*
X45498495Y-31933390D01*
X45498495Y-40061619D01*
X45376269Y-39939179D01*
X45002982Y-39784176D01*
X44598792Y-39783824D01*
X44225234Y-39938175D01*
X44101152Y-40062041D01*
X44071500Y-40056036D01*
X42928500Y-40056036D01*
X42787310Y-40082603D01*
X42657635Y-40166046D01*
X42571506Y-40292100D01*
X36282363Y-40292100D01*
X35361613Y-39371350D01*
X42547500Y-39371350D01*
X42547500Y-39631286D01*
X42605504Y-39771320D01*
X42712681Y-39878496D01*
X42852715Y-39936500D01*
X43277750Y-39936500D01*
X43373000Y-39841250D01*
X43373000Y-39276100D01*
X43627000Y-39276100D01*
X43627000Y-39841250D01*
X43722250Y-39936500D01*
X44147285Y-39936500D01*
X44287319Y-39878496D01*
X44394496Y-39771320D01*
X44452500Y-39631286D01*
X44452500Y-39371350D01*
X44357250Y-39276100D01*
X43627000Y-39276100D01*
X43373000Y-39276100D01*
X42642750Y-39276100D01*
X42547500Y-39371350D01*
X35361613Y-39371350D01*
X34657177Y-38666914D01*
X42547500Y-38666914D01*
X42547500Y-38926850D01*
X42642750Y-39022100D01*
X43373000Y-39022100D01*
X43373000Y-38456950D01*
X43627000Y-38456950D01*
X43627000Y-39022100D01*
X44357250Y-39022100D01*
X44452500Y-38926850D01*
X44452500Y-38666914D01*
X44394496Y-38526880D01*
X44287319Y-38419704D01*
X44147285Y-38361700D01*
X43722250Y-38361700D01*
X43627000Y-38456950D01*
X43373000Y-38456950D01*
X43277750Y-38361700D01*
X42852715Y-38361700D01*
X42712681Y-38419704D01*
X42605504Y-38526880D01*
X42547500Y-38666914D01*
X34657177Y-38666914D01*
X33895131Y-37904869D01*
X33820563Y-37855044D01*
X33713844Y-37783736D01*
X33500000Y-37741200D01*
X27368422Y-37741200D01*
X27361825Y-37725234D01*
X27076269Y-37439179D01*
X26702982Y-37284176D01*
X26298792Y-37283824D01*
X25925234Y-37438175D01*
X25746201Y-37616896D01*
X25746201Y-36837909D01*
X38988908Y-36837909D01*
X39307255Y-37285422D01*
X39772624Y-37577045D01*
X40170467Y-37665245D01*
X40374719Y-37569784D01*
X40169966Y-36408573D01*
X39008754Y-36613326D01*
X38988908Y-36837909D01*
X25746201Y-36837909D01*
X25746201Y-36364466D01*
X40420107Y-36364466D01*
X40624860Y-37525678D01*
X40849443Y-37545524D01*
X41296956Y-37227177D01*
X41588579Y-36761808D01*
X41676779Y-36363965D01*
X41581318Y-36159713D01*
X40420107Y-36364466D01*
X25746201Y-36364466D01*
X25746201Y-36158933D01*
X38869187Y-36158933D01*
X38964648Y-36363185D01*
X40125859Y-36158432D01*
X39921106Y-34997220D01*
X39696523Y-34977374D01*
X39249010Y-35295721D01*
X38957387Y-35761090D01*
X38869187Y-36158933D01*
X25746201Y-36158933D01*
X25746201Y-34953114D01*
X40171247Y-34953114D01*
X40376000Y-36114325D01*
X41537212Y-35909572D01*
X41557058Y-35684989D01*
X41238711Y-35237476D01*
X40773342Y-34945853D01*
X40375499Y-34857653D01*
X40171247Y-34953114D01*
X25746201Y-34953114D01*
X25746201Y-33666959D01*
X34796494Y-33666959D01*
X35006218Y-34174530D01*
X35394217Y-34563207D01*
X35901422Y-34773816D01*
X36450615Y-34774296D01*
X36958186Y-34564572D01*
X37346863Y-34176573D01*
X37557472Y-33669368D01*
X37557952Y-33120175D01*
X37348228Y-32612604D01*
X36960229Y-32223927D01*
X36453024Y-32013318D01*
X35903831Y-32012838D01*
X35396260Y-32222562D01*
X35007583Y-32610561D01*
X34796974Y-33117766D01*
X34796494Y-33666959D01*
X25746201Y-33666959D01*
X25746201Y-29838201D01*
X25707532Y-29643798D01*
X25707532Y-29643797D01*
X25597411Y-29478991D01*
X25288852Y-29170432D01*
X25289154Y-28823943D01*
X25207217Y-28625639D01*
X26040787Y-29459210D01*
X26150908Y-29532790D01*
X26205595Y-29569331D01*
X26399998Y-29608000D01*
X31046737Y-29608000D01*
X30911823Y-29742679D01*
X30701214Y-30249884D01*
X30700734Y-30799077D01*
X30910458Y-31306648D01*
X31298457Y-31695325D01*
X31805662Y-31905934D01*
X32354855Y-31906414D01*
X32862426Y-31696690D01*
X33251103Y-31308691D01*
X33461712Y-30801486D01*
X33462192Y-30252293D01*
X33252468Y-29744722D01*
X33115984Y-29608000D01*
X55849186Y-29608000D01*
X55835215Y-29621971D01*
X55839938Y-29626694D01*
X55634462Y-29949225D01*
X55654308Y-30173808D01*
X56543913Y-30330669D01*
X56724788Y-30511544D01*
X56904396Y-30331936D01*
X56835831Y-30263371D01*
X56951391Y-29608000D01*
X57209309Y-29608000D01*
X57113553Y-30151061D01*
X56932678Y-30331936D01*
X57112286Y-30511544D01*
X57180851Y-30442979D01*
X58226872Y-30627421D01*
X58322333Y-30423169D01*
X58176244Y-29893763D01*
X57980837Y-29642993D01*
X58001859Y-29621971D01*
X57987888Y-29608000D01*
X60589580Y-29608000D01*
X67992000Y-37010421D01*
X67992000Y-55483799D01*
X67864469Y-55356045D01*
X67357264Y-55145436D01*
X66808071Y-55144956D01*
X66300500Y-55354680D01*
X65911823Y-55742679D01*
X65701214Y-56249884D01*
X65700734Y-56799077D01*
X65910458Y-57306648D01*
X66298457Y-57695325D01*
X66805662Y-57905934D01*
X67354855Y-57906414D01*
X67862426Y-57696690D01*
X68251103Y-57308691D01*
X68287140Y-57221904D01*
X69910236Y-58845000D01*
X69796974Y-59117766D01*
X69796494Y-59666959D01*
X70006218Y-60174530D01*
X70394217Y-60563207D01*
X70901422Y-60773816D01*
X71450615Y-60774296D01*
X71958186Y-60564572D01*
X72346863Y-60176573D01*
X72557472Y-59669368D01*
X72557952Y-59120175D01*
X72348228Y-58612604D01*
X71960229Y-58223927D01*
X71453024Y-58013318D01*
X70903831Y-58012838D01*
X70628626Y-58126550D01*
X69008000Y-56505924D01*
X69008000Y-51474359D01*
X69015066Y-51484934D01*
X69419096Y-51888964D01*
X69418813Y-52214081D01*
X69583038Y-52611537D01*
X69886863Y-52915893D01*
X70284032Y-53080812D01*
X70714081Y-53081187D01*
X71111537Y-52916962D01*
X71415893Y-52613137D01*
X71419000Y-52605655D01*
X71419000Y-52775785D01*
X71477004Y-52915819D01*
X71584180Y-53022996D01*
X71724214Y-53081000D01*
X72277750Y-53081000D01*
X72373000Y-52985750D01*
X72373000Y-52127000D01*
X72627000Y-52127000D01*
X72627000Y-52985750D01*
X72722250Y-53081000D01*
X73275786Y-53081000D01*
X73415820Y-53022996D01*
X73522996Y-52915819D01*
X73581000Y-52775785D01*
X73581000Y-52222250D01*
X73485750Y-52127000D01*
X72627000Y-52127000D01*
X72373000Y-52127000D01*
X72353000Y-52127000D01*
X72353000Y-51873000D01*
X72373000Y-51873000D01*
X72373000Y-51014250D01*
X72627000Y-51014250D01*
X72627000Y-51873000D01*
X73485750Y-51873000D01*
X73581000Y-51777750D01*
X73581000Y-51224215D01*
X73522996Y-51084181D01*
X73415820Y-50977004D01*
X73275786Y-50919000D01*
X72722250Y-50919000D01*
X72627000Y-51014250D01*
X72373000Y-51014250D01*
X72277750Y-50919000D01*
X71724214Y-50919000D01*
X71584180Y-50977004D01*
X71477004Y-51084181D01*
X71419000Y-51224215D01*
X71419000Y-51393395D01*
X71416962Y-51388463D01*
X71113137Y-51084107D01*
X70715968Y-50919188D01*
X70388771Y-50918903D01*
X70185800Y-50715932D01*
X70185800Y-37687660D01*
X70235266Y-37721459D01*
X70386400Y-37752064D01*
X72113600Y-37752064D01*
X72254790Y-37725497D01*
X72384465Y-37642054D01*
X72471459Y-37514734D01*
X72502064Y-37363600D01*
X72502064Y-36500000D01*
X72521017Y-36500000D01*
X72615757Y-36976288D01*
X72885552Y-37380065D01*
X73289329Y-37649860D01*
X73765617Y-37744600D01*
X73814383Y-37744600D01*
X74290671Y-37649860D01*
X74694448Y-37380065D01*
X74964243Y-36976288D01*
X75058983Y-36500000D01*
X74964243Y-36023712D01*
X74694448Y-35619935D01*
X74290671Y-35350140D01*
X73814383Y-35255400D01*
X73765617Y-35255400D01*
X73289329Y-35350140D01*
X72885552Y-35619935D01*
X72615757Y-36023712D01*
X72521017Y-36500000D01*
X72502064Y-36500000D01*
X72502064Y-35636400D01*
X72475497Y-35495210D01*
X72392054Y-35365535D01*
X72264734Y-35278541D01*
X72113600Y-35247936D01*
X70386400Y-35247936D01*
X70245210Y-35274503D01*
X70185800Y-35312732D01*
X70185800Y-34598735D01*
X70494801Y-34949310D01*
X70930880Y-35163005D01*
X71123000Y-35102865D01*
X71123000Y-34087000D01*
X71377000Y-34087000D01*
X71377000Y-35102865D01*
X71569120Y-35163005D01*
X72005199Y-34949310D01*
X72326305Y-34585001D01*
X72452993Y-34279118D01*
X72587007Y-34279118D01*
X72713695Y-34585001D01*
X73034801Y-34949310D01*
X73470880Y-35163005D01*
X73663000Y-35102865D01*
X73663000Y-34087000D01*
X73917000Y-34087000D01*
X73917000Y-35102865D01*
X74109120Y-35163005D01*
X74545199Y-34949310D01*
X74866305Y-34585001D01*
X74992993Y-34279118D01*
X74932312Y-34087000D01*
X73917000Y-34087000D01*
X73663000Y-34087000D01*
X72647688Y-34087000D01*
X72587007Y-34279118D01*
X72452993Y-34279118D01*
X72392312Y-34087000D01*
X71377000Y-34087000D01*
X71123000Y-34087000D01*
X71103000Y-34087000D01*
X71103000Y-33833000D01*
X71123000Y-33833000D01*
X71123000Y-32817135D01*
X71377000Y-32817135D01*
X71377000Y-33833000D01*
X72392312Y-33833000D01*
X72452993Y-33640882D01*
X72587007Y-33640882D01*
X72647688Y-33833000D01*
X73663000Y-33833000D01*
X73663000Y-32817135D01*
X73917000Y-32817135D01*
X73917000Y-33833000D01*
X74932312Y-33833000D01*
X74992993Y-33640882D01*
X74866305Y-33334999D01*
X74545199Y-32970690D01*
X74109120Y-32756995D01*
X73917000Y-32817135D01*
X73663000Y-32817135D01*
X73470880Y-32756995D01*
X73034801Y-32970690D01*
X72713695Y-33334999D01*
X72587007Y-33640882D01*
X72452993Y-33640882D01*
X72326305Y-33334999D01*
X72005199Y-32970690D01*
X71569120Y-32756995D01*
X71377000Y-32817135D01*
X71123000Y-32817135D01*
X70930880Y-32756995D01*
X70494801Y-32970690D01*
X70185800Y-33321265D01*
X70185800Y-32058735D01*
X70494801Y-32409310D01*
X70930880Y-32623005D01*
X71123000Y-32562865D01*
X71123000Y-31547000D01*
X71377000Y-31547000D01*
X71377000Y-32562865D01*
X71569120Y-32623005D01*
X72005199Y-32409310D01*
X72326305Y-32045001D01*
X72452993Y-31739118D01*
X72587007Y-31739118D01*
X72713695Y-32045001D01*
X73034801Y-32409310D01*
X73470880Y-32623005D01*
X73663000Y-32562865D01*
X73663000Y-31547000D01*
X73917000Y-31547000D01*
X73917000Y-32562865D01*
X74109120Y-32623005D01*
X74545199Y-32409310D01*
X74866305Y-32045001D01*
X74992993Y-31739118D01*
X74932312Y-31547000D01*
X73917000Y-31547000D01*
X73663000Y-31547000D01*
X72647688Y-31547000D01*
X72587007Y-31739118D01*
X72452993Y-31739118D01*
X72392312Y-31547000D01*
X71377000Y-31547000D01*
X71123000Y-31547000D01*
X71103000Y-31547000D01*
X71103000Y-31293000D01*
X71123000Y-31293000D01*
X71123000Y-30277135D01*
X71377000Y-30277135D01*
X71377000Y-31293000D01*
X72392312Y-31293000D01*
X72452993Y-31100882D01*
X72587007Y-31100882D01*
X72647688Y-31293000D01*
X73663000Y-31293000D01*
X73663000Y-30277135D01*
X73917000Y-30277135D01*
X73917000Y-31293000D01*
X74932312Y-31293000D01*
X74992993Y-31100882D01*
X74866305Y-30794999D01*
X74545199Y-30430690D01*
X74109120Y-30216995D01*
X73917000Y-30277135D01*
X73663000Y-30277135D01*
X73470880Y-30216995D01*
X73034801Y-30430690D01*
X72713695Y-30794999D01*
X72587007Y-31100882D01*
X72452993Y-31100882D01*
X72326305Y-30794999D01*
X72005199Y-30430690D01*
X71569120Y-30216995D01*
X71377000Y-30277135D01*
X71123000Y-30277135D01*
X70930880Y-30216995D01*
X70494801Y-30430690D01*
X70173695Y-30794999D01*
X70047007Y-31100882D01*
X70107687Y-31292998D01*
X70005400Y-31292998D01*
X70005400Y-31295696D01*
X69984934Y-31265066D01*
X68685800Y-29965932D01*
X68685800Y-29199118D01*
X70047007Y-29199118D01*
X70173695Y-29505001D01*
X70494801Y-29869310D01*
X70930880Y-30083005D01*
X71123000Y-30022865D01*
X71123000Y-29007000D01*
X71377000Y-29007000D01*
X71377000Y-30022865D01*
X71569120Y-30083005D01*
X72005199Y-29869310D01*
X72326305Y-29505001D01*
X72452993Y-29199118D01*
X72587007Y-29199118D01*
X72713695Y-29505001D01*
X73034801Y-29869310D01*
X73470880Y-30083005D01*
X73663000Y-30022865D01*
X73663000Y-29007000D01*
X73917000Y-29007000D01*
X73917000Y-30022865D01*
X74109120Y-30083005D01*
X74545199Y-29869310D01*
X74866305Y-29505001D01*
X74992993Y-29199118D01*
X74932312Y-29007000D01*
X73917000Y-29007000D01*
X73663000Y-29007000D01*
X72647688Y-29007000D01*
X72587007Y-29199118D01*
X72452993Y-29199118D01*
X72392312Y-29007000D01*
X71377000Y-29007000D01*
X71123000Y-29007000D01*
X70107688Y-29007000D01*
X70047007Y-29199118D01*
X68685800Y-29199118D01*
X68685800Y-28560882D01*
X70047007Y-28560882D01*
X70107688Y-28753000D01*
X71123000Y-28753000D01*
X71123000Y-27737135D01*
X71377000Y-27737135D01*
X71377000Y-28753000D01*
X72392312Y-28753000D01*
X72452993Y-28560882D01*
X72587007Y-28560882D01*
X72647688Y-28753000D01*
X73663000Y-28753000D01*
X73663000Y-27737135D01*
X73917000Y-27737135D01*
X73917000Y-28753000D01*
X74932312Y-28753000D01*
X74992993Y-28560882D01*
X74866305Y-28254999D01*
X74545199Y-27890690D01*
X74109120Y-27676995D01*
X73917000Y-27737135D01*
X73663000Y-27737135D01*
X73470880Y-27676995D01*
X73034801Y-27890690D01*
X72713695Y-28254999D01*
X72587007Y-28560882D01*
X72452993Y-28560882D01*
X72326305Y-28254999D01*
X72005199Y-27890690D01*
X71569120Y-27676995D01*
X71377000Y-27737135D01*
X71123000Y-27737135D01*
X70930880Y-27676995D01*
X70494801Y-27890690D01*
X70173695Y-28254999D01*
X70047007Y-28560882D01*
X68685800Y-28560882D01*
X68685800Y-26340000D01*
X69981017Y-26340000D01*
X70075757Y-26816288D01*
X70345552Y-27220065D01*
X70749329Y-27489860D01*
X71225617Y-27584600D01*
X71274383Y-27584600D01*
X71750671Y-27489860D01*
X72154448Y-27220065D01*
X72424243Y-26816288D01*
X72518983Y-26340000D01*
X72521017Y-26340000D01*
X72615757Y-26816288D01*
X72885552Y-27220065D01*
X73289329Y-27489860D01*
X73765617Y-27584600D01*
X73814383Y-27584600D01*
X74290671Y-27489860D01*
X74694448Y-27220065D01*
X74964243Y-26816288D01*
X75058983Y-26340000D01*
X74964243Y-25863712D01*
X74694448Y-25459935D01*
X74290671Y-25190140D01*
X73814383Y-25095400D01*
X73765617Y-25095400D01*
X73289329Y-25190140D01*
X72885552Y-25459935D01*
X72615757Y-25863712D01*
X72521017Y-26340000D01*
X72518983Y-26340000D01*
X72424243Y-25863712D01*
X72154448Y-25459935D01*
X71750671Y-25190140D01*
X71274383Y-25095400D01*
X71225617Y-25095400D01*
X70749329Y-25190140D01*
X70345552Y-25459935D01*
X70075757Y-25863712D01*
X69981017Y-26340000D01*
X68685800Y-26340000D01*
X68685800Y-18250000D01*
X68657578Y-18108115D01*
X68633597Y-17987555D01*
X68484934Y-17765066D01*
X66098544Y-15378676D01*
X65959546Y-15285800D01*
X69065932Y-15285800D01*
X69765066Y-15984934D01*
X69987555Y-16133597D01*
X70161536Y-16168204D01*
X70161536Y-16200000D01*
X70188103Y-16341190D01*
X70271546Y-16470865D01*
X70398866Y-16557859D01*
X70550000Y-16588464D01*
X71950000Y-16588464D01*
X72091190Y-16561897D01*
X72220865Y-16478454D01*
X72307859Y-16351134D01*
X72318999Y-16296122D01*
X72633483Y-16296122D01*
X72709216Y-16460391D01*
X73117907Y-16594235D01*
X73546707Y-16561491D01*
X73790784Y-16460391D01*
X73866517Y-16296122D01*
X73250000Y-15679605D01*
X72633483Y-16296122D01*
X72318999Y-16296122D01*
X72338464Y-16200000D01*
X72338464Y-16063308D01*
X72453878Y-16116517D01*
X73070395Y-15500000D01*
X73429605Y-15500000D01*
X74046122Y-16116517D01*
X74210391Y-16040784D01*
X74344235Y-15632093D01*
X74311491Y-15203293D01*
X74210391Y-14959216D01*
X74046122Y-14883483D01*
X73429605Y-15500000D01*
X73070395Y-15500000D01*
X72453878Y-14883483D01*
X72338464Y-14936692D01*
X72338464Y-14800000D01*
X72320378Y-14703878D01*
X72633483Y-14703878D01*
X73250000Y-15320395D01*
X73866517Y-14703878D01*
X73790784Y-14539609D01*
X73382093Y-14405765D01*
X72953293Y-14438509D01*
X72709216Y-14539609D01*
X72633483Y-14703878D01*
X72320378Y-14703878D01*
X72311897Y-14658810D01*
X72228454Y-14529135D01*
X72101134Y-14442141D01*
X71950000Y-14411536D01*
X70550000Y-14411536D01*
X70408810Y-14438103D01*
X70279135Y-14521546D01*
X70263823Y-14543955D01*
X69834934Y-14115066D01*
X69612445Y-13966403D01*
X69350000Y-13914200D01*
X48989625Y-13914200D01*
X48814909Y-13739179D01*
X48441622Y-13584176D01*
X48037432Y-13583824D01*
X47663874Y-13738175D01*
X47377819Y-14023731D01*
X47257205Y-14314200D01*
X41584068Y-14314200D01*
X40993247Y-13723379D01*
X42686226Y-13723379D01*
X42749590Y-13877294D01*
X43121885Y-13994359D01*
X43510639Y-13960042D01*
X43710410Y-13877294D01*
X43773774Y-13723379D01*
X43230000Y-13179605D01*
X42686226Y-13723379D01*
X40993247Y-13723379D01*
X40612523Y-13342655D01*
X40390034Y-13193992D01*
X40127589Y-13141789D01*
X16632411Y-13141789D01*
X16369966Y-13193992D01*
X16147477Y-13342655D01*
X13746360Y-15743772D01*
X13713727Y-15730221D01*
X13208490Y-15729780D01*
X12741542Y-15922718D01*
X12431000Y-16232719D01*
X12431000Y-12431000D01*
X42481392Y-12431000D01*
X42506619Y-12456227D01*
X42506619Y-12456227D01*
G37*
X42506619Y-12456227D02*
X42352706Y-12519590D01*
X42235641Y-12891885D01*
X42269958Y-13280639D01*
X42352706Y-13480410D01*
X42506621Y-13543774D01*
X43050395Y-13000000D01*
X43036253Y-12985858D01*
X43215858Y-12806253D01*
X43230000Y-12820395D01*
X43244143Y-12806253D01*
X43423748Y-12985858D01*
X43409605Y-13000000D01*
X43953379Y-13543774D01*
X44107294Y-13480410D01*
X44224359Y-13108115D01*
X44190042Y-12719361D01*
X44107294Y-12519590D01*
X43953381Y-12456227D01*
X43978608Y-12431000D01*
X44781536Y-12431000D01*
X44781536Y-13600000D01*
X44808103Y-13741190D01*
X44891546Y-13870865D01*
X45018866Y-13957859D01*
X45170000Y-13988464D01*
X46370000Y-13988464D01*
X46511190Y-13961897D01*
X46640865Y-13878454D01*
X46727859Y-13751134D01*
X46758464Y-13600000D01*
X46758464Y-12431000D01*
X76569000Y-12431000D01*
X76569000Y-62161885D01*
X75420107Y-62364466D01*
X75624860Y-63525678D01*
X75849443Y-63545524D01*
X76296956Y-63227177D01*
X76569000Y-62793052D01*
X76569000Y-111569000D01*
X12431000Y-111569000D01*
X12431000Y-109800000D01*
X16827251Y-109800000D01*
X16913343Y-110232815D01*
X17158513Y-110599738D01*
X17525436Y-110844908D01*
X17958251Y-110931000D01*
X20041749Y-110931000D01*
X20474564Y-110844908D01*
X20841487Y-110599738D01*
X21086657Y-110232815D01*
X21172749Y-109800000D01*
X30827251Y-109800000D01*
X30913343Y-110232815D01*
X31158513Y-110599738D01*
X31525436Y-110844908D01*
X31958251Y-110931000D01*
X34041749Y-110931000D01*
X34474564Y-110844908D01*
X34841487Y-110599738D01*
X35086657Y-110232815D01*
X35172749Y-109800000D01*
X53827251Y-109800000D01*
X53913343Y-110232815D01*
X54158513Y-110599738D01*
X54525436Y-110844908D01*
X54958251Y-110931000D01*
X57041749Y-110931000D01*
X57474564Y-110844908D01*
X57841487Y-110599738D01*
X58086657Y-110232815D01*
X58172749Y-109800000D01*
X67827251Y-109800000D01*
X67913343Y-110232815D01*
X68158513Y-110599738D01*
X68525436Y-110844908D01*
X68958251Y-110931000D01*
X71041749Y-110931000D01*
X71474564Y-110844908D01*
X71841487Y-110599738D01*
X72086657Y-110232815D01*
X72172749Y-109800000D01*
X72086657Y-109367185D01*
X71841487Y-109000262D01*
X71474564Y-108755092D01*
X71041749Y-108669000D01*
X68958251Y-108669000D01*
X68525436Y-108755092D01*
X68158513Y-109000262D01*
X67913343Y-109367185D01*
X67827251Y-109800000D01*
X58172749Y-109800000D01*
X58086657Y-109367185D01*
X57841487Y-109000262D01*
X57474564Y-108755092D01*
X57041749Y-108669000D01*
X54958251Y-108669000D01*
X54525436Y-108755092D01*
X54158513Y-109000262D01*
X53913343Y-109367185D01*
X53827251Y-109800000D01*
X35172749Y-109800000D01*
X35086657Y-109367185D01*
X34841487Y-109000262D01*
X34474564Y-108755092D01*
X34041749Y-108669000D01*
X31958251Y-108669000D01*
X31525436Y-108755092D01*
X31158513Y-109000262D01*
X30913343Y-109367185D01*
X30827251Y-109800000D01*
X21172749Y-109800000D01*
X21086657Y-109367185D01*
X20841487Y-109000262D01*
X20474564Y-108755092D01*
X20041749Y-108669000D01*
X17958251Y-108669000D01*
X17525436Y-108755092D01*
X17158513Y-109000262D01*
X16913343Y-109367185D01*
X16827251Y-109800000D01*
X12431000Y-109800000D01*
X12431000Y-106627000D01*
X12669000Y-106627000D01*
X12669000Y-107377000D01*
X12841753Y-107991489D01*
X13236511Y-108493093D01*
X13793175Y-108805448D01*
X13920194Y-108836161D01*
X14173000Y-108780490D01*
X14173000Y-106627000D01*
X14427000Y-106627000D01*
X14427000Y-108780490D01*
X14679806Y-108836161D01*
X14806825Y-108805448D01*
X15363489Y-108493093D01*
X15758247Y-107991489D01*
X15931000Y-107377000D01*
X15931000Y-106845432D01*
X22311196Y-106845432D01*
X22453433Y-107369640D01*
X22785448Y-107799513D01*
X23256695Y-108069607D01*
X23359443Y-108088350D01*
X23573000Y-108029462D01*
X23573000Y-106627000D01*
X23827000Y-106627000D01*
X23827000Y-108029462D01*
X24040557Y-108088350D01*
X24143305Y-108069607D01*
X24614552Y-107799513D01*
X24946567Y-107369640D01*
X25088804Y-106845432D01*
X24991384Y-106627000D01*
X26669000Y-106627000D01*
X26669000Y-107377000D01*
X26841753Y-107991489D01*
X27236511Y-108493093D01*
X27793175Y-108805448D01*
X27920194Y-108836161D01*
X28173000Y-108780490D01*
X28173000Y-106627000D01*
X28427000Y-106627000D01*
X28427000Y-108780490D01*
X28679806Y-108836161D01*
X28806825Y-108805448D01*
X29363489Y-108493093D01*
X29758247Y-107991489D01*
X29931000Y-107377000D01*
X29931000Y-106845432D01*
X36311196Y-106845432D01*
X36453433Y-107369640D01*
X36785448Y-107799513D01*
X37256695Y-108069607D01*
X37359443Y-108088350D01*
X37573000Y-108029462D01*
X37573000Y-106627000D01*
X37827000Y-106627000D01*
X37827000Y-108029462D01*
X38040557Y-108088350D01*
X38143305Y-108069607D01*
X38614552Y-107799513D01*
X38946567Y-107369640D01*
X39088804Y-106845432D01*
X38991384Y-106627000D01*
X49669000Y-106627000D01*
X49669000Y-107377000D01*
X49841753Y-107991489D01*
X50236511Y-108493093D01*
X50793175Y-108805448D01*
X50920194Y-108836161D01*
X51173000Y-108780490D01*
X51173000Y-106627000D01*
X51427000Y-106627000D01*
X51427000Y-108780490D01*
X51679806Y-108836161D01*
X51806825Y-108805448D01*
X52363489Y-108493093D01*
X52758247Y-107991489D01*
X52931000Y-107377000D01*
X52931000Y-106845432D01*
X59311196Y-106845432D01*
X59453433Y-107369640D01*
X59785448Y-107799513D01*
X60256695Y-108069607D01*
X60359443Y-108088350D01*
X60573000Y-108029462D01*
X60573000Y-106627000D01*
X60827000Y-106627000D01*
X60827000Y-108029462D01*
X61040557Y-108088350D01*
X61143305Y-108069607D01*
X61614552Y-107799513D01*
X61946567Y-107369640D01*
X62088804Y-106845432D01*
X61991384Y-106627000D01*
X63669000Y-106627000D01*
X63669000Y-107377000D01*
X63841753Y-107991489D01*
X64236511Y-108493093D01*
X64793175Y-108805448D01*
X64920194Y-108836161D01*
X65173000Y-108780490D01*
X65173000Y-106627000D01*
X65427000Y-106627000D01*
X65427000Y-108780490D01*
X65679806Y-108836161D01*
X65806825Y-108805448D01*
X66363489Y-108493093D01*
X66758247Y-107991489D01*
X66931000Y-107377000D01*
X66931000Y-106845432D01*
X73311196Y-106845432D01*
X73453433Y-107369640D01*
X73785448Y-107799513D01*
X74256695Y-108069607D01*
X74359443Y-108088350D01*
X74573000Y-108029462D01*
X74573000Y-106627000D01*
X74827000Y-106627000D01*
X74827000Y-108029462D01*
X75040557Y-108088350D01*
X75143305Y-108069607D01*
X75614552Y-107799513D01*
X75946567Y-107369640D01*
X76088804Y-106845432D01*
X75991384Y-106627000D01*
X74827000Y-106627000D01*
X74573000Y-106627000D01*
X73408616Y-106627000D01*
X73311196Y-106845432D01*
X66931000Y-106845432D01*
X66931000Y-106627000D01*
X65427000Y-106627000D01*
X65173000Y-106627000D01*
X63669000Y-106627000D01*
X61991384Y-106627000D01*
X60827000Y-106627000D01*
X60573000Y-106627000D01*
X59408616Y-106627000D01*
X59311196Y-106845432D01*
X52931000Y-106845432D01*
X52931000Y-106627000D01*
X51427000Y-106627000D01*
X51173000Y-106627000D01*
X49669000Y-106627000D01*
X38991384Y-106627000D01*
X37827000Y-106627000D01*
X37573000Y-106627000D01*
X36408616Y-106627000D01*
X36311196Y-106845432D01*
X29931000Y-106845432D01*
X29931000Y-106627000D01*
X28427000Y-106627000D01*
X28173000Y-106627000D01*
X26669000Y-106627000D01*
X24991384Y-106627000D01*
X23827000Y-106627000D01*
X23573000Y-106627000D01*
X22408616Y-106627000D01*
X22311196Y-106845432D01*
X15931000Y-106845432D01*
X15931000Y-106627000D01*
X14427000Y-106627000D01*
X14173000Y-106627000D01*
X12669000Y-106627000D01*
X12431000Y-106627000D01*
X12431000Y-105623000D01*
X12669000Y-105623000D01*
X12669000Y-106373000D01*
X14173000Y-106373000D01*
X14173000Y-104219510D01*
X14427000Y-104219510D01*
X14427000Y-106373000D01*
X15931000Y-106373000D01*
X15931000Y-106154568D01*
X22311196Y-106154568D01*
X22408616Y-106373000D01*
X23573000Y-106373000D01*
X23573000Y-104970538D01*
X23827000Y-104970538D01*
X23827000Y-106373000D01*
X24991384Y-106373000D01*
X25088804Y-106154568D01*
X24946567Y-105630360D01*
X24940883Y-105623000D01*
X26669000Y-105623000D01*
X26669000Y-106373000D01*
X28173000Y-106373000D01*
X28173000Y-104219510D01*
X28427000Y-104219510D01*
X28427000Y-106373000D01*
X29931000Y-106373000D01*
X29931000Y-106154568D01*
X36311196Y-106154568D01*
X36408616Y-106373000D01*
X37573000Y-106373000D01*
X37573000Y-104970538D01*
X37827000Y-104970538D01*
X37827000Y-106373000D01*
X38991384Y-106373000D01*
X39088804Y-106154568D01*
X38946567Y-105630360D01*
X38940883Y-105623000D01*
X49669000Y-105623000D01*
X49669000Y-106373000D01*
X51173000Y-106373000D01*
X51173000Y-104219510D01*
X51427000Y-104219510D01*
X51427000Y-106373000D01*
X52931000Y-106373000D01*
X52931000Y-106154568D01*
X59311196Y-106154568D01*
X59408616Y-106373000D01*
X60573000Y-106373000D01*
X60573000Y-104970538D01*
X60827000Y-104970538D01*
X60827000Y-106373000D01*
X61991384Y-106373000D01*
X62088804Y-106154568D01*
X61946567Y-105630360D01*
X61940883Y-105623000D01*
X63669000Y-105623000D01*
X63669000Y-106373000D01*
X65173000Y-106373000D01*
X65173000Y-104219510D01*
X65427000Y-104219510D01*
X65427000Y-106373000D01*
X66931000Y-106373000D01*
X66931000Y-106154568D01*
X73311196Y-106154568D01*
X73408616Y-106373000D01*
X74573000Y-106373000D01*
X74573000Y-104970538D01*
X74827000Y-104970538D01*
X74827000Y-106373000D01*
X75991384Y-106373000D01*
X76088804Y-106154568D01*
X75946567Y-105630360D01*
X75614552Y-105200487D01*
X75143305Y-104930393D01*
X75040557Y-104911650D01*
X74827000Y-104970538D01*
X74573000Y-104970538D01*
X74359443Y-104911650D01*
X74256695Y-104930393D01*
X73785448Y-105200487D01*
X73453433Y-105630360D01*
X73311196Y-106154568D01*
X66931000Y-106154568D01*
X66931000Y-105623000D01*
X66758247Y-105008511D01*
X66363489Y-104506907D01*
X65806825Y-104194552D01*
X65679806Y-104163839D01*
X65427000Y-104219510D01*
X65173000Y-104219510D01*
X64920194Y-104163839D01*
X64793175Y-104194552D01*
X64236511Y-104506907D01*
X63841753Y-105008511D01*
X63669000Y-105623000D01*
X61940883Y-105623000D01*
X61614552Y-105200487D01*
X61143305Y-104930393D01*
X61040557Y-104911650D01*
X60827000Y-104970538D01*
X60573000Y-104970538D01*
X60359443Y-104911650D01*
X60256695Y-104930393D01*
X59785448Y-105200487D01*
X59453433Y-105630360D01*
X59311196Y-106154568D01*
X52931000Y-106154568D01*
X52931000Y-105623000D01*
X52758247Y-105008511D01*
X52363489Y-104506907D01*
X51806825Y-104194552D01*
X51679806Y-104163839D01*
X51427000Y-104219510D01*
X51173000Y-104219510D01*
X50920194Y-104163839D01*
X50793175Y-104194552D01*
X50236511Y-104506907D01*
X49841753Y-105008511D01*
X49669000Y-105623000D01*
X38940883Y-105623000D01*
X38614552Y-105200487D01*
X38143305Y-104930393D01*
X38040557Y-104911650D01*
X37827000Y-104970538D01*
X37573000Y-104970538D01*
X37359443Y-104911650D01*
X37256695Y-104930393D01*
X36785448Y-105200487D01*
X36453433Y-105630360D01*
X36311196Y-106154568D01*
X29931000Y-106154568D01*
X29931000Y-105623000D01*
X29758247Y-105008511D01*
X29363489Y-104506907D01*
X28806825Y-104194552D01*
X28679806Y-104163839D01*
X28427000Y-104219510D01*
X28173000Y-104219510D01*
X27920194Y-104163839D01*
X27793175Y-104194552D01*
X27236511Y-104506907D01*
X26841753Y-105008511D01*
X26669000Y-105623000D01*
X24940883Y-105623000D01*
X24614552Y-105200487D01*
X24143305Y-104930393D01*
X24040557Y-104911650D01*
X23827000Y-104970538D01*
X23573000Y-104970538D01*
X23359443Y-104911650D01*
X23256695Y-104930393D01*
X22785448Y-105200487D01*
X22453433Y-105630360D01*
X22311196Y-106154568D01*
X15931000Y-106154568D01*
X15931000Y-105623000D01*
X15758247Y-105008511D01*
X15363489Y-104506907D01*
X14806825Y-104194552D01*
X14679806Y-104163839D01*
X14427000Y-104219510D01*
X14173000Y-104219510D01*
X13920194Y-104163839D01*
X13793175Y-104194552D01*
X13236511Y-104506907D01*
X12841753Y-105008511D01*
X12669000Y-105623000D01*
X12431000Y-105623000D01*
X12431000Y-95800000D01*
X16827251Y-95800000D01*
X16913343Y-96232815D01*
X17158513Y-96599738D01*
X17525436Y-96844908D01*
X17958251Y-96931000D01*
X20041749Y-96931000D01*
X20474564Y-96844908D01*
X20841487Y-96599738D01*
X21086657Y-96232815D01*
X21172749Y-95800000D01*
X21086657Y-95367185D01*
X20841487Y-95000262D01*
X20474564Y-94755092D01*
X20041749Y-94669000D01*
X17958251Y-94669000D01*
X17525436Y-94755092D01*
X17158513Y-95000262D01*
X16913343Y-95367185D01*
X16827251Y-95800000D01*
X12431000Y-95800000D01*
X12431000Y-92627000D01*
X12669000Y-92627000D01*
X12669000Y-93377000D01*
X12841753Y-93991489D01*
X13236511Y-94493093D01*
X13793175Y-94805448D01*
X13920194Y-94836161D01*
X14173000Y-94780490D01*
X14173000Y-92627000D01*
X14427000Y-92627000D01*
X14427000Y-94780490D01*
X14679806Y-94836161D01*
X14806825Y-94805448D01*
X15363489Y-94493093D01*
X15758247Y-93991489D01*
X15931000Y-93377000D01*
X15931000Y-92845432D01*
X22311196Y-92845432D01*
X22453433Y-93369640D01*
X22785448Y-93799513D01*
X23256695Y-94069607D01*
X23359443Y-94088350D01*
X23573000Y-94029462D01*
X23573000Y-92627000D01*
X23827000Y-92627000D01*
X23827000Y-94029462D01*
X24040557Y-94088350D01*
X24143305Y-94069607D01*
X24614552Y-93799513D01*
X24946567Y-93369640D01*
X25088804Y-92845432D01*
X24991384Y-92627000D01*
X23827000Y-92627000D01*
X23573000Y-92627000D01*
X22408616Y-92627000D01*
X22311196Y-92845432D01*
X15931000Y-92845432D01*
X15931000Y-92627000D01*
X14427000Y-92627000D01*
X14173000Y-92627000D01*
X12669000Y-92627000D01*
X12431000Y-92627000D01*
X12431000Y-91623000D01*
X12669000Y-91623000D01*
X12669000Y-92373000D01*
X14173000Y-92373000D01*
X14173000Y-90219510D01*
X14427000Y-90219510D01*
X14427000Y-92373000D01*
X15931000Y-92373000D01*
X15931000Y-92154568D01*
X22311196Y-92154568D01*
X22408616Y-92373000D01*
X23573000Y-92373000D01*
X23573000Y-90970538D01*
X23827000Y-90970538D01*
X23827000Y-92373000D01*
X24991384Y-92373000D01*
X25088804Y-92154568D01*
X24946567Y-91630360D01*
X24614552Y-91200487D01*
X24143305Y-90930393D01*
X24040557Y-90911650D01*
X23827000Y-90970538D01*
X23573000Y-90970538D01*
X23359443Y-90911650D01*
X23256695Y-90930393D01*
X22785448Y-91200487D01*
X22453433Y-91630360D01*
X22311196Y-92154568D01*
X15931000Y-92154568D01*
X15931000Y-91623000D01*
X15758247Y-91008511D01*
X15363489Y-90506907D01*
X14806825Y-90194552D01*
X14679806Y-90163839D01*
X14427000Y-90219510D01*
X14173000Y-90219510D01*
X13920194Y-90163839D01*
X13793175Y-90194552D01*
X13236511Y-90506907D01*
X12841753Y-91008511D01*
X12669000Y-91623000D01*
X12431000Y-91623000D01*
X12431000Y-87600000D01*
X16827251Y-87600000D01*
X16913343Y-88032815D01*
X17158513Y-88399738D01*
X17525436Y-88644908D01*
X17958251Y-88731000D01*
X20041749Y-88731000D01*
X20474564Y-88644908D01*
X20841487Y-88399738D01*
X21086657Y-88032815D01*
X21172749Y-87600000D01*
X21086657Y-87167185D01*
X20841487Y-86800262D01*
X20474564Y-86555092D01*
X20041749Y-86469000D01*
X17958251Y-86469000D01*
X17525436Y-86555092D01*
X17158513Y-86800262D01*
X16913343Y-87167185D01*
X16827251Y-87600000D01*
X12431000Y-87600000D01*
X12431000Y-62739860D01*
X12556012Y-63042412D01*
X12944011Y-63431089D01*
X13451216Y-63641698D01*
X14000409Y-63642178D01*
X14507980Y-63432454D01*
X14896657Y-63044455D01*
X15107266Y-62537250D01*
X15107746Y-61988057D01*
X14898022Y-61480486D01*
X14510023Y-61091809D01*
X14002818Y-60881200D01*
X13453625Y-60880720D01*
X12946054Y-61090444D01*
X12557377Y-61478443D01*
X12431000Y-61782794D01*
X12431000Y-42266824D01*
X12739663Y-42576026D01*
X12901200Y-42643102D01*
X12901200Y-48160000D01*
X12943736Y-48373844D01*
X12954178Y-48389471D01*
X13064869Y-48555131D01*
X15141200Y-50631463D01*
X15141200Y-75531578D01*
X15125234Y-75538175D01*
X14839179Y-75823731D01*
X14684176Y-76197018D01*
X14683824Y-76601208D01*
X14838175Y-76974766D01*
X15123731Y-77260821D01*
X15497018Y-77415824D01*
X15901208Y-77416176D01*
X16208001Y-77289412D01*
X16208001Y-81316001D01*
X16246670Y-81510404D01*
X16356791Y-81675211D01*
X25892000Y-91210420D01*
X25892000Y-93989580D01*
X19412580Y-100469000D01*
X17958251Y-100469000D01*
X17525436Y-100555092D01*
X17158513Y-100800262D01*
X16913343Y-101167185D01*
X16827251Y-101600000D01*
X16913343Y-102032815D01*
X17158513Y-102399738D01*
X17525436Y-102644908D01*
X17958251Y-102731000D01*
X20041749Y-102731000D01*
X20474564Y-102644908D01*
X20841487Y-102399738D01*
X21086657Y-102032815D01*
X21172749Y-101600000D01*
X21086657Y-101167185D01*
X20841487Y-100800262D01*
X20647665Y-100670755D01*
X26759210Y-94559210D01*
X26869331Y-94394403D01*
X26908000Y-94200000D01*
X26908000Y-91000000D01*
X26869331Y-90805597D01*
X26759210Y-90640790D01*
X17224001Y-81105581D01*
X17224001Y-74916001D01*
X17185332Y-74721598D01*
X17075211Y-74556791D01*
X16908000Y-74389580D01*
X16908000Y-60431206D01*
X17039771Y-60563207D01*
X17546976Y-60773816D01*
X18096169Y-60774296D01*
X18603740Y-60564572D01*
X18992417Y-60176573D01*
X19203026Y-59669368D01*
X19203506Y-59120175D01*
X18993782Y-58612604D01*
X18605783Y-58223927D01*
X18330777Y-58109735D01*
X18330777Y-57834020D01*
X21816801Y-57834020D01*
X22021053Y-57929481D01*
X22550459Y-57783392D01*
X22983660Y-57445829D01*
X23202612Y-57102145D01*
X23182766Y-56877562D01*
X22021554Y-56672809D01*
X21816801Y-57834020D01*
X18330777Y-57834020D01*
X18330777Y-56628201D01*
X20514741Y-56628201D01*
X20660830Y-57157607D01*
X20998393Y-57590808D01*
X21342077Y-57809760D01*
X21566660Y-57789914D01*
X21771413Y-56628702D01*
X20610202Y-56423949D01*
X20514741Y-56628201D01*
X18330777Y-56628201D01*
X18330777Y-56422668D01*
X22065661Y-56422668D01*
X23226872Y-56627421D01*
X23322333Y-56423169D01*
X23176244Y-55893763D01*
X22838681Y-55460562D01*
X22494997Y-55241610D01*
X22270414Y-55261456D01*
X22065661Y-56422668D01*
X18330777Y-56422668D01*
X18330777Y-55949225D01*
X20634462Y-55949225D01*
X20654308Y-56173808D01*
X21815520Y-56378561D01*
X22020273Y-55217350D01*
X21816021Y-55121889D01*
X21286615Y-55267978D01*
X20853414Y-55605541D01*
X20634462Y-55949225D01*
X18330777Y-55949225D01*
X18330777Y-46187643D01*
X20073920Y-44444500D01*
X21540036Y-44444500D01*
X21540036Y-45257300D01*
X21566603Y-45398490D01*
X21650046Y-45528165D01*
X21777366Y-45615159D01*
X21928500Y-45645764D01*
X23071500Y-45645764D01*
X23212690Y-45619197D01*
X23342365Y-45535754D01*
X23428494Y-45409700D01*
X25072699Y-45409700D01*
X25123731Y-45460821D01*
X25497018Y-45615824D01*
X25901208Y-45616176D01*
X26274766Y-45461825D01*
X26560821Y-45176269D01*
X26715824Y-44802982D01*
X26716176Y-44398792D01*
X26561825Y-44025234D01*
X26276269Y-43739179D01*
X25902982Y-43584176D01*
X25498792Y-43583824D01*
X25125234Y-43738175D01*
X24839179Y-44023731D01*
X24727742Y-44292100D01*
X23426184Y-44292100D01*
X23349954Y-44173635D01*
X23222634Y-44086641D01*
X23071500Y-44056036D01*
X21928500Y-44056036D01*
X21787310Y-44082603D01*
X21657635Y-44166046D01*
X21570641Y-44293366D01*
X21540036Y-44444500D01*
X20073920Y-44444500D01*
X21147070Y-43371350D01*
X21547500Y-43371350D01*
X21547500Y-43631286D01*
X21605504Y-43771320D01*
X21712681Y-43878496D01*
X21852715Y-43936500D01*
X22277750Y-43936500D01*
X22373000Y-43841250D01*
X22373000Y-43276100D01*
X22627000Y-43276100D01*
X22627000Y-43841250D01*
X22722250Y-43936500D01*
X23147285Y-43936500D01*
X23287319Y-43878496D01*
X23394496Y-43771320D01*
X23452500Y-43631286D01*
X23452500Y-43371350D01*
X23357250Y-43276100D01*
X22627000Y-43276100D01*
X22373000Y-43276100D01*
X21642750Y-43276100D01*
X21547500Y-43371350D01*
X21147070Y-43371350D01*
X21569535Y-42948885D01*
X21642750Y-43022100D01*
X22373000Y-43022100D01*
X22373000Y-42456950D01*
X22627000Y-42456950D01*
X22627000Y-43022100D01*
X23357250Y-43022100D01*
X23452500Y-42926850D01*
X23452500Y-42666914D01*
X23394496Y-42526880D01*
X23287319Y-42419704D01*
X23147285Y-42361700D01*
X22722250Y-42361700D01*
X22627000Y-42456950D01*
X22373000Y-42456950D01*
X22277750Y-42361700D01*
X22156720Y-42361700D01*
X25597411Y-38921009D01*
X25634406Y-38865643D01*
X25638175Y-38874766D01*
X25923731Y-39160821D01*
X26297018Y-39315824D01*
X26701208Y-39316176D01*
X27074766Y-39161825D01*
X27360821Y-38876269D01*
X27368075Y-38858800D01*
X33268538Y-38858800D01*
X35655768Y-41246031D01*
X35700770Y-41276100D01*
X35837056Y-41367164D01*
X36050900Y-41409700D01*
X42573816Y-41409700D01*
X42650046Y-41528165D01*
X42735847Y-41586791D01*
X38530538Y-45792100D01*
X32426184Y-45792100D01*
X32349954Y-45673635D01*
X32222634Y-45586641D01*
X32071500Y-45556036D01*
X30928500Y-45556036D01*
X30787310Y-45582603D01*
X30657635Y-45666046D01*
X30570641Y-45793366D01*
X30550865Y-45891025D01*
X30510557Y-45917958D01*
X30453969Y-45955769D01*
X29918937Y-46490801D01*
X29902982Y-46484176D01*
X29498792Y-46483824D01*
X29125234Y-46638175D01*
X28839179Y-46923731D01*
X28684176Y-47297018D01*
X28683824Y-47701208D01*
X28691048Y-47718690D01*
X26068538Y-50341200D01*
X23331462Y-50341200D01*
X22758800Y-49768538D01*
X22758800Y-49454682D01*
X24223843Y-49454682D01*
X24358900Y-49781545D01*
X24608761Y-50031843D01*
X24935388Y-50167471D01*
X25289054Y-50167779D01*
X25615917Y-50032722D01*
X25866215Y-49782861D01*
X26001843Y-49456234D01*
X26002146Y-49107896D01*
X28159210Y-46950832D01*
X28269331Y-46786026D01*
X28308000Y-46591622D01*
X28308000Y-44910420D01*
X28347070Y-44871350D01*
X30547500Y-44871350D01*
X30547500Y-45131286D01*
X30605504Y-45271320D01*
X30712681Y-45378496D01*
X30852715Y-45436500D01*
X31277750Y-45436500D01*
X31373000Y-45341250D01*
X31373000Y-44776100D01*
X31627000Y-44776100D01*
X31627000Y-45341250D01*
X31722250Y-45436500D01*
X32147285Y-45436500D01*
X32287319Y-45378496D01*
X32394496Y-45271320D01*
X32452500Y-45131286D01*
X32452500Y-44871350D01*
X32357250Y-44776100D01*
X31627000Y-44776100D01*
X31373000Y-44776100D01*
X30642750Y-44776100D01*
X30547500Y-44871350D01*
X28347070Y-44871350D01*
X29051506Y-44166914D01*
X30547500Y-44166914D01*
X30547500Y-44426850D01*
X30642750Y-44522100D01*
X31373000Y-44522100D01*
X31373000Y-43956950D01*
X31627000Y-43956950D01*
X31627000Y-44522100D01*
X32357250Y-44522100D01*
X32452500Y-44426850D01*
X32452500Y-44166914D01*
X32394496Y-44026880D01*
X32287319Y-43919704D01*
X32147285Y-43861700D01*
X31722250Y-43861700D01*
X31627000Y-43956950D01*
X31373000Y-43956950D01*
X31277750Y-43861700D01*
X30852715Y-43861700D01*
X30712681Y-43919704D01*
X30605504Y-44026880D01*
X30547500Y-44166914D01*
X29051506Y-44166914D01*
X29159211Y-44059210D01*
X29159213Y-44059207D01*
X31259771Y-41958650D01*
X31674151Y-42130716D01*
X32323003Y-42131282D01*
X32922680Y-41883501D01*
X33381888Y-41425093D01*
X33630716Y-40825849D01*
X33631282Y-40176997D01*
X33383501Y-39577320D01*
X32925093Y-39118112D01*
X32325849Y-38869284D01*
X31676997Y-38868718D01*
X31077320Y-39116499D01*
X30618112Y-39574907D01*
X30369284Y-40174151D01*
X30368718Y-40823003D01*
X30541182Y-41240398D01*
X28440793Y-43340787D01*
X28440790Y-43340789D01*
X27440790Y-44340790D01*
X27330669Y-44505597D01*
X27292000Y-44700000D01*
X27292000Y-46381202D01*
X25283429Y-48389773D01*
X24936940Y-48389471D01*
X24610077Y-48524528D01*
X24359779Y-48774389D01*
X24224151Y-49101016D01*
X24223843Y-49454682D01*
X22758800Y-49454682D01*
X22758800Y-48168422D01*
X22774766Y-48161825D01*
X23060821Y-47876269D01*
X23215824Y-47502982D01*
X23216176Y-47098792D01*
X23061825Y-46725234D01*
X22776269Y-46439179D01*
X22402982Y-46284176D01*
X21998792Y-46283824D01*
X21625234Y-46438175D01*
X21339179Y-46723731D01*
X21184176Y-47097018D01*
X21183824Y-47501208D01*
X21338175Y-47874766D01*
X21623731Y-48160821D01*
X21641200Y-48168075D01*
X21641200Y-50000000D01*
X21683736Y-50213844D01*
X21792124Y-50376057D01*
X21804869Y-50395131D01*
X22704869Y-51295131D01*
X22886156Y-51416264D01*
X23100000Y-51458800D01*
X26300000Y-51458800D01*
X26513844Y-51416264D01*
X26695131Y-51295131D01*
X29141200Y-48849062D01*
X29141200Y-75168537D01*
X27818937Y-76490801D01*
X27802982Y-76484176D01*
X27398792Y-76483824D01*
X27025234Y-76638175D01*
X26739179Y-76923731D01*
X26584176Y-77297018D01*
X26583824Y-77701208D01*
X26738175Y-78074766D01*
X27023731Y-78360821D01*
X27397018Y-78515824D01*
X27801208Y-78516176D01*
X28174766Y-78361825D01*
X28460821Y-78076269D01*
X28615824Y-77702982D01*
X28616176Y-77298792D01*
X28608952Y-77281310D01*
X29750810Y-76139453D01*
X29750810Y-80630769D01*
X28540790Y-81840790D01*
X28430669Y-82005597D01*
X28392000Y-82200000D01*
X28392000Y-97500000D01*
X28430669Y-97694403D01*
X28540790Y-97859210D01*
X31352334Y-100670755D01*
X31158513Y-100800262D01*
X30913343Y-101167185D01*
X30827251Y-101600000D01*
X30913343Y-102032815D01*
X31158513Y-102399738D01*
X31525436Y-102644908D01*
X31958251Y-102731000D01*
X34041749Y-102731000D01*
X34474564Y-102644908D01*
X34841487Y-102399738D01*
X35086657Y-102032815D01*
X35172749Y-101600000D01*
X35086657Y-101167185D01*
X34841487Y-100800262D01*
X34474564Y-100555092D01*
X34041749Y-100469000D01*
X32587421Y-100469000D01*
X29408000Y-97289580D01*
X29408000Y-82410420D01*
X30618021Y-81200400D01*
X30728141Y-81035593D01*
X30766810Y-80841190D01*
X30766810Y-62341160D01*
X32338445Y-62341160D01*
X32421824Y-62511856D01*
X32853055Y-62656091D01*
X33306657Y-62624322D01*
X33578176Y-62511856D01*
X33661555Y-62341160D01*
X33000000Y-61679605D01*
X32338445Y-62341160D01*
X30766810Y-62341160D01*
X30766810Y-61353055D01*
X31843909Y-61353055D01*
X31875678Y-61806657D01*
X31988144Y-62078176D01*
X32158840Y-62161555D01*
X32820395Y-61500000D01*
X32158840Y-60838445D01*
X31988144Y-60921824D01*
X31843909Y-61353055D01*
X30766810Y-61353055D01*
X30766810Y-60658840D01*
X32338445Y-60658840D01*
X33000000Y-61320395D01*
X33661555Y-60658840D01*
X33578176Y-60488144D01*
X33146945Y-60343909D01*
X32693343Y-60375678D01*
X32421824Y-60488144D01*
X32338445Y-60658840D01*
X30766810Y-60658840D01*
X30766810Y-57451610D01*
X37002421Y-51215999D01*
X41292003Y-51215999D01*
X41486406Y-51177330D01*
X41620196Y-51087934D01*
X41622393Y-51088846D01*
X41976059Y-51089154D01*
X42302922Y-50954097D01*
X42553220Y-50704236D01*
X42688848Y-50377609D01*
X42689156Y-50023943D01*
X42554099Y-49697080D01*
X42304238Y-49446782D01*
X41977611Y-49311154D01*
X41623945Y-49310846D01*
X41297082Y-49445903D01*
X41046784Y-49695764D01*
X40911156Y-50022391D01*
X40911001Y-50199999D01*
X36792001Y-50199999D01*
X36629851Y-50232253D01*
X36597597Y-50238668D01*
X36432791Y-50348789D01*
X30258800Y-56522780D01*
X30258800Y-48368422D01*
X30274766Y-48361825D01*
X30560821Y-48076269D01*
X30715824Y-47702982D01*
X30716176Y-47298792D01*
X30708952Y-47281310D01*
X30858644Y-47131618D01*
X30928500Y-47145764D01*
X32071500Y-47145764D01*
X32212690Y-47119197D01*
X32342365Y-47035754D01*
X32428494Y-46909700D01*
X38762000Y-46909700D01*
X38975844Y-46867164D01*
X39157131Y-46746031D01*
X43895131Y-42008031D01*
X43942927Y-41936500D01*
X44016264Y-41826744D01*
X44052263Y-41645764D01*
X44071500Y-41645764D01*
X44187004Y-41624030D01*
X44223731Y-41660821D01*
X44241200Y-41668075D01*
X44241200Y-61522142D01*
X43993534Y-61769376D01*
X43986280Y-61786845D01*
X40154355Y-61786845D01*
X39940511Y-61829381D01*
X39820498Y-61909572D01*
X39759224Y-61950514D01*
X37500000Y-64209738D01*
X35016621Y-61726359D01*
X36856802Y-61726359D01*
X37030446Y-62146612D01*
X37351697Y-62468423D01*
X37771646Y-62642801D01*
X38226359Y-62643198D01*
X38646612Y-62469554D01*
X38968423Y-62148303D01*
X39142801Y-61728354D01*
X39143198Y-61273641D01*
X38969554Y-60853388D01*
X38648303Y-60531577D01*
X38228354Y-60357199D01*
X37773641Y-60356802D01*
X37353388Y-60530446D01*
X37031577Y-60851697D01*
X36857199Y-61271646D01*
X36856802Y-61726359D01*
X35016621Y-61726359D01*
X34943799Y-61653537D01*
X34943799Y-58634999D01*
X34901263Y-58421155D01*
X34780130Y-58239868D01*
X34759199Y-58218937D01*
X34765824Y-58202982D01*
X34766176Y-57798792D01*
X34611825Y-57425234D01*
X34326269Y-57139179D01*
X33952982Y-56984176D01*
X33548792Y-56983824D01*
X33175234Y-57138175D01*
X32889179Y-57423731D01*
X32734176Y-57797018D01*
X32733824Y-58201208D01*
X32888175Y-58574766D01*
X33173731Y-58860821D01*
X33547018Y-59015824D01*
X33826199Y-59016067D01*
X33826199Y-60853406D01*
X33179605Y-61500000D01*
X33841160Y-62161555D01*
X33893542Y-62135968D01*
X33989868Y-62280130D01*
X36941200Y-65231463D01*
X36941200Y-72456899D01*
X36983736Y-72670743D01*
X37033957Y-72745903D01*
X37104869Y-72852030D01*
X38518133Y-74265295D01*
X38511508Y-74281249D01*
X38511156Y-74685439D01*
X38665507Y-75058997D01*
X38951063Y-75345052D01*
X39304862Y-75491963D01*
X31826945Y-82969880D01*
X31604236Y-82746782D01*
X31277609Y-82611154D01*
X30923943Y-82610846D01*
X30597080Y-82745903D01*
X30346782Y-82995764D01*
X30211154Y-83322391D01*
X30210846Y-83676057D01*
X30345903Y-84002920D01*
X30592000Y-84249447D01*
X30592000Y-95400000D01*
X30630669Y-95594403D01*
X30740790Y-95759210D01*
X34640790Y-99659210D01*
X34805597Y-99769331D01*
X35000000Y-99808000D01*
X47050974Y-99808000D01*
X47295764Y-100053218D01*
X47622391Y-100188846D01*
X47976057Y-100189154D01*
X48302920Y-100054097D01*
X48553218Y-99804236D01*
X48688846Y-99477609D01*
X48689154Y-99123943D01*
X48554097Y-98797080D01*
X48304236Y-98546782D01*
X47977609Y-98411154D01*
X47623943Y-98410846D01*
X47297080Y-98545903D01*
X47050553Y-98792000D01*
X35210420Y-98792000D01*
X34094477Y-97676057D01*
X34510846Y-97676057D01*
X34645903Y-98002920D01*
X34895764Y-98253218D01*
X35222391Y-98388846D01*
X35576057Y-98389154D01*
X35902920Y-98254097D01*
X36098559Y-98058800D01*
X46700000Y-98058800D01*
X46913844Y-98016264D01*
X47095131Y-97895131D01*
X50145131Y-94845132D01*
X50205698Y-94754487D01*
X50266264Y-94663844D01*
X50308800Y-94450000D01*
X50308800Y-94368422D01*
X50324766Y-94361825D01*
X50610821Y-94076269D01*
X50765824Y-93702982D01*
X50766176Y-93298792D01*
X50611825Y-92925234D01*
X50326269Y-92639179D01*
X49952982Y-92484176D01*
X49548792Y-92483824D01*
X49175234Y-92638175D01*
X48889179Y-92923731D01*
X48734176Y-93297018D01*
X48733824Y-93701208D01*
X48888175Y-94074766D01*
X49111378Y-94298359D01*
X46468538Y-96941200D01*
X36098315Y-96941200D01*
X35904236Y-96746782D01*
X35577609Y-96611154D01*
X35223943Y-96610846D01*
X34897080Y-96745903D01*
X34646782Y-96995764D01*
X34511154Y-97322391D01*
X34510846Y-97676057D01*
X34094477Y-97676057D01*
X31608000Y-95189580D01*
X31608000Y-92341160D01*
X32338445Y-92341160D01*
X32421824Y-92511856D01*
X32853055Y-92656091D01*
X33306657Y-92624322D01*
X33578176Y-92511856D01*
X33661555Y-92341160D01*
X33000000Y-91679605D01*
X32338445Y-92341160D01*
X31608000Y-92341160D01*
X31608000Y-91353055D01*
X31843909Y-91353055D01*
X31875678Y-91806657D01*
X31988144Y-92078176D01*
X32158840Y-92161555D01*
X32820395Y-91500000D01*
X33179605Y-91500000D01*
X33841160Y-92161555D01*
X34011856Y-92078176D01*
X34156091Y-91646945D01*
X34124322Y-91193343D01*
X34011856Y-90921824D01*
X33841160Y-90838445D01*
X33179605Y-91500000D01*
X32820395Y-91500000D01*
X32158840Y-90838445D01*
X31988144Y-90921824D01*
X31843909Y-91353055D01*
X31608000Y-91353055D01*
X31608000Y-90658840D01*
X32338445Y-90658840D01*
X33000000Y-91320395D01*
X33661555Y-90658840D01*
X33578176Y-90488144D01*
X33146945Y-90343909D01*
X32693343Y-90375678D01*
X32421824Y-90488144D01*
X32338445Y-90658840D01*
X31608000Y-90658840D01*
X31608000Y-84249026D01*
X31849447Y-84008000D01*
X32015245Y-84008000D01*
X32209648Y-83969331D01*
X32374455Y-83859210D01*
X40902543Y-75331122D01*
X40933242Y-75285178D01*
X41510420Y-74708000D01*
X50989580Y-74708000D01*
X51632791Y-75351212D01*
X51797598Y-75461332D01*
X51992001Y-75500001D01*
X52610999Y-75500001D01*
X52610846Y-75676057D01*
X52745903Y-76002920D01*
X52995764Y-76253218D01*
X53322391Y-76388846D01*
X53676057Y-76389154D01*
X54002920Y-76254097D01*
X54253218Y-76004236D01*
X54388846Y-75677609D01*
X54389154Y-75323943D01*
X54254097Y-74997080D01*
X54004236Y-74746782D01*
X53677609Y-74611154D01*
X53323943Y-74610846D01*
X53320498Y-74612269D01*
X53186404Y-74522670D01*
X52992001Y-74484001D01*
X52202422Y-74484001D01*
X51559210Y-73840790D01*
X51394403Y-73730669D01*
X51200000Y-73692000D01*
X41300000Y-73692000D01*
X41105597Y-73730669D01*
X40940790Y-73840790D01*
X40530365Y-74251215D01*
X40389157Y-73909465D01*
X40103601Y-73623410D01*
X39730314Y-73468407D01*
X39326124Y-73468055D01*
X39308642Y-73475278D01*
X38058800Y-72225437D01*
X38058800Y-71058800D01*
X38801685Y-71058800D01*
X38995764Y-71253218D01*
X39322391Y-71388846D01*
X39676057Y-71389154D01*
X40002920Y-71254097D01*
X40253218Y-71004236D01*
X40388846Y-70677609D01*
X40389154Y-70323943D01*
X40254097Y-69997080D01*
X40004236Y-69746782D01*
X39683364Y-69613544D01*
X39889267Y-69408000D01*
X52992000Y-69408000D01*
X52992000Y-72750974D01*
X52746782Y-72995764D01*
X52611154Y-73322391D01*
X52610846Y-73676057D01*
X52745903Y-74002920D01*
X52995764Y-74253218D01*
X53322391Y-74388846D01*
X53676057Y-74389154D01*
X54002920Y-74254097D01*
X54253218Y-74004236D01*
X54388846Y-73677609D01*
X54389154Y-73323943D01*
X54254097Y-72997080D01*
X54008000Y-72750553D01*
X54008000Y-69110420D01*
X54959210Y-68159210D01*
X55069331Y-67994403D01*
X55108000Y-67800000D01*
X55108000Y-62341160D01*
X55338445Y-62341160D01*
X55421824Y-62511856D01*
X55853055Y-62656091D01*
X56306657Y-62624322D01*
X56578176Y-62511856D01*
X56661555Y-62341160D01*
X56000000Y-61679605D01*
X55338445Y-62341160D01*
X55108000Y-62341160D01*
X55108000Y-62136721D01*
X55158840Y-62161555D01*
X55820395Y-61500000D01*
X56179605Y-61500000D01*
X56841160Y-62161555D01*
X57011856Y-62078176D01*
X57156091Y-61646945D01*
X57124322Y-61193343D01*
X57011856Y-60921824D01*
X56841160Y-60838445D01*
X56179605Y-61500000D01*
X55820395Y-61500000D01*
X55158840Y-60838445D01*
X55108000Y-60863279D01*
X55108000Y-60658840D01*
X55338445Y-60658840D01*
X56000000Y-61320395D01*
X56661555Y-60658840D01*
X56578176Y-60488144D01*
X56146945Y-60343909D01*
X55693343Y-60375678D01*
X55421824Y-60488144D01*
X55338445Y-60658840D01*
X55108000Y-60658840D01*
X55108000Y-51149026D01*
X55353218Y-50904236D01*
X55488846Y-50577609D01*
X55489154Y-50223943D01*
X55354097Y-49897080D01*
X55104236Y-49646782D01*
X54777609Y-49511154D01*
X54423943Y-49510846D01*
X54097080Y-49645903D01*
X53846782Y-49895764D01*
X53711154Y-50222391D01*
X53710846Y-50576057D01*
X53845903Y-50902920D01*
X54092000Y-51149447D01*
X54092000Y-67589580D01*
X53289580Y-68392000D01*
X39888846Y-68392000D01*
X39644056Y-68146782D01*
X39317429Y-68011154D01*
X38963763Y-68010846D01*
X38636900Y-68145903D01*
X38386602Y-68395764D01*
X38250974Y-68722391D01*
X38250666Y-69076057D01*
X38385723Y-69402920D01*
X38635584Y-69653218D01*
X38956456Y-69786456D01*
X38801441Y-69941200D01*
X38058800Y-69941200D01*
X38058800Y-65231462D01*
X40385817Y-62904445D01*
X43985933Y-62904445D01*
X43992530Y-62920411D01*
X44278086Y-63206466D01*
X44651373Y-63361469D01*
X45055563Y-63361821D01*
X45429121Y-63207470D01*
X45498495Y-63138217D01*
X45498495Y-65134932D01*
X45222752Y-65248867D01*
X44936697Y-65534423D01*
X44781694Y-65907710D01*
X44781342Y-66311900D01*
X44788566Y-66329382D01*
X44376748Y-66741200D01*
X41568422Y-66741200D01*
X41561825Y-66725234D01*
X41276269Y-66439179D01*
X40902982Y-66284176D01*
X40498792Y-66283824D01*
X40125234Y-66438175D01*
X39839179Y-66723731D01*
X39684176Y-67097018D01*
X39683824Y-67501208D01*
X39838175Y-67874766D01*
X40123731Y-68160821D01*
X40497018Y-68315824D01*
X40901208Y-68316176D01*
X41274766Y-68161825D01*
X41560821Y-67876269D01*
X41568075Y-67858800D01*
X44608210Y-67858800D01*
X44822054Y-67816264D01*
X45003341Y-67695131D01*
X45578581Y-67119891D01*
X45594536Y-67126516D01*
X45998726Y-67126868D01*
X46372284Y-66972517D01*
X46658339Y-66686961D01*
X46813342Y-66313674D01*
X46813694Y-65909484D01*
X46659343Y-65535926D01*
X46616095Y-65492602D01*
X46616095Y-61726359D01*
X49856802Y-61726359D01*
X50030446Y-62146612D01*
X50351697Y-62468423D01*
X50771646Y-62642801D01*
X51226359Y-62643198D01*
X51646612Y-62469554D01*
X51968423Y-62148303D01*
X52142801Y-61728354D01*
X52143198Y-61273641D01*
X51969554Y-60853388D01*
X51648303Y-60531577D01*
X51228354Y-60357199D01*
X50773641Y-60356802D01*
X50353388Y-60530446D01*
X50031577Y-60851697D01*
X49857199Y-61271646D01*
X49856802Y-61726359D01*
X46616095Y-61726359D01*
X46616095Y-45976057D01*
X51110846Y-45976057D01*
X51245903Y-46302920D01*
X51492000Y-46549447D01*
X51492000Y-52950974D01*
X51246782Y-53195764D01*
X51111154Y-53522391D01*
X51110846Y-53876057D01*
X51245903Y-54202920D01*
X51495764Y-54453218D01*
X51822391Y-54588846D01*
X52176057Y-54589154D01*
X52502920Y-54454097D01*
X52753218Y-54204236D01*
X52888846Y-53877609D01*
X52889154Y-53523943D01*
X52754097Y-53197080D01*
X52508000Y-52950553D01*
X52508000Y-46549026D01*
X52753218Y-46304236D01*
X52888846Y-45977609D01*
X52889154Y-45623943D01*
X52754097Y-45297080D01*
X52504236Y-45046782D01*
X52177609Y-44911154D01*
X51823943Y-44910846D01*
X51497080Y-45045903D01*
X51246782Y-45295764D01*
X51111154Y-45622391D01*
X51110846Y-45976057D01*
X46616095Y-45976057D01*
X46616095Y-43903563D01*
X46632061Y-43896966D01*
X46918116Y-43611410D01*
X46925370Y-43593941D01*
X48246312Y-43593941D01*
X48277366Y-43615159D01*
X48428500Y-43645764D01*
X49571500Y-43645764D01*
X49712690Y-43619197D01*
X49842365Y-43535754D01*
X49928494Y-43409700D01*
X52952259Y-43409700D01*
X53099981Y-43439083D01*
X53247703Y-43409700D01*
X54619438Y-43409700D01*
X57573001Y-46363263D01*
X57573001Y-75931801D01*
X57615537Y-76145645D01*
X57687416Y-76253218D01*
X57736670Y-76326932D01*
X58741200Y-77331462D01*
X58741200Y-81168538D01*
X58117638Y-81792100D01*
X49926184Y-81792100D01*
X49849954Y-81673635D01*
X49722634Y-81586641D01*
X49571500Y-81556036D01*
X48428500Y-81556036D01*
X48287310Y-81582603D01*
X48157635Y-81666046D01*
X48070641Y-81793366D01*
X48040036Y-81944500D01*
X48040036Y-82603057D01*
X47976269Y-82539179D01*
X47602982Y-82384176D01*
X47198792Y-82383824D01*
X46825234Y-82538175D01*
X46539179Y-82823731D01*
X46384176Y-83197018D01*
X46383824Y-83601208D01*
X46538175Y-83974766D01*
X46823731Y-84260821D01*
X46841200Y-84268075D01*
X46841200Y-93768537D01*
X45668538Y-94941200D01*
X36868422Y-94941200D01*
X36861825Y-94925234D01*
X36576269Y-94639179D01*
X36558800Y-94631925D01*
X36558800Y-91726359D01*
X36856802Y-91726359D01*
X37030446Y-92146612D01*
X37351697Y-92468423D01*
X37771646Y-92642801D01*
X38226359Y-92643198D01*
X38646612Y-92469554D01*
X38968423Y-92148303D01*
X39142801Y-91728354D01*
X39143198Y-91273641D01*
X38969554Y-90853388D01*
X38648303Y-90531577D01*
X38228354Y-90357199D01*
X37773641Y-90356802D01*
X37353388Y-90530446D01*
X37031577Y-90851697D01*
X36857199Y-91271646D01*
X36856802Y-91726359D01*
X36558800Y-91726359D01*
X36558800Y-82187403D01*
X39111262Y-79634941D01*
X38984176Y-79940998D01*
X38983824Y-80345188D01*
X39138175Y-80718746D01*
X39423731Y-81004801D01*
X39441200Y-81012055D01*
X39441200Y-88183980D01*
X39483736Y-88397824D01*
X39604869Y-88579111D01*
X44206821Y-93181063D01*
X44200196Y-93197018D01*
X44199844Y-93601208D01*
X44354195Y-93974766D01*
X44639751Y-94260821D01*
X45013038Y-94415824D01*
X45417228Y-94416176D01*
X45790786Y-94261825D01*
X46076841Y-93976269D01*
X46231844Y-93602982D01*
X46232196Y-93198792D01*
X46077845Y-92825234D01*
X45792289Y-92539179D01*
X45419002Y-92384176D01*
X45014812Y-92383824D01*
X44997330Y-92391048D01*
X40558800Y-87952518D01*
X40558800Y-81073150D01*
X42547500Y-81073150D01*
X42547500Y-81333086D01*
X42605504Y-81473120D01*
X42712681Y-81580296D01*
X42852715Y-81638300D01*
X43015481Y-81638300D01*
X42997080Y-81645903D01*
X42746782Y-81895764D01*
X42611154Y-82222391D01*
X42610846Y-82576057D01*
X42745903Y-82902920D01*
X42995764Y-83153218D01*
X43322391Y-83288846D01*
X43676057Y-83289154D01*
X44002920Y-83154097D01*
X44253218Y-82904236D01*
X44388846Y-82577609D01*
X44389154Y-82223943D01*
X44387731Y-82220498D01*
X44477330Y-82086405D01*
X44483308Y-82056352D01*
X44628464Y-81911196D01*
X44707683Y-82102920D01*
X44957544Y-82353218D01*
X45284171Y-82488846D01*
X45637837Y-82489154D01*
X45964700Y-82354097D01*
X46214998Y-82104236D01*
X46350626Y-81777609D01*
X46350929Y-81429271D01*
X46908850Y-80871350D01*
X48047500Y-80871350D01*
X48047500Y-81131286D01*
X48105504Y-81271320D01*
X48212681Y-81378496D01*
X48352715Y-81436500D01*
X48777750Y-81436500D01*
X48873000Y-81341250D01*
X48873000Y-80776100D01*
X49127000Y-80776100D01*
X49127000Y-81341250D01*
X49222250Y-81436500D01*
X49647285Y-81436500D01*
X49787319Y-81378496D01*
X49894496Y-81271320D01*
X49952500Y-81131286D01*
X49952500Y-80871350D01*
X49857250Y-80776100D01*
X49127000Y-80776100D01*
X48873000Y-80776100D01*
X48142750Y-80776100D01*
X48047500Y-80871350D01*
X46908850Y-80871350D01*
X47613286Y-80166914D01*
X48047500Y-80166914D01*
X48047500Y-80426850D01*
X48142750Y-80522100D01*
X48873000Y-80522100D01*
X48873000Y-79956950D01*
X49127000Y-79956950D01*
X49127000Y-80522100D01*
X49857250Y-80522100D01*
X49952500Y-80426850D01*
X49952500Y-80166914D01*
X49894496Y-80026880D01*
X49787319Y-79919704D01*
X49647285Y-79861700D01*
X49222250Y-79861700D01*
X49127000Y-79956950D01*
X48873000Y-79956950D01*
X48777750Y-79861700D01*
X48352715Y-79861700D01*
X48212681Y-79919704D01*
X48105504Y-80026880D01*
X48047500Y-80166914D01*
X47613286Y-80166914D01*
X48802402Y-78977799D01*
X53911536Y-78977799D01*
X53911536Y-80200000D01*
X53938103Y-80341190D01*
X54021546Y-80470865D01*
X54148866Y-80557859D01*
X54300000Y-80588464D01*
X55700000Y-80588464D01*
X55841190Y-80561897D01*
X55970865Y-80478454D01*
X56057859Y-80351134D01*
X56088464Y-80200000D01*
X56088464Y-80116972D01*
X56386863Y-80415893D01*
X56784032Y-80580812D01*
X57214081Y-80581187D01*
X57611537Y-80416962D01*
X57915893Y-80113137D01*
X58080812Y-79715968D01*
X58081187Y-79285919D01*
X57916962Y-78888463D01*
X57717950Y-78689103D01*
X57776057Y-78689154D01*
X58102920Y-78554097D01*
X58353218Y-78304236D01*
X58488846Y-77977609D01*
X58489154Y-77623943D01*
X58354097Y-77297080D01*
X58104236Y-77046782D01*
X57777609Y-76911154D01*
X57423943Y-76910846D01*
X57097080Y-77045903D01*
X56846782Y-77295764D01*
X56711154Y-77622391D01*
X56710858Y-77961799D01*
X54856621Y-77961799D01*
X55559210Y-77259210D01*
X55669331Y-77094404D01*
X55708000Y-76900000D01*
X55708000Y-72249026D01*
X55953218Y-72004236D01*
X56088846Y-71677609D01*
X56089154Y-71323943D01*
X55954097Y-70997080D01*
X55704236Y-70746782D01*
X55377609Y-70611154D01*
X55023943Y-70610846D01*
X54697080Y-70745903D01*
X54446782Y-70995764D01*
X54311154Y-71322391D01*
X54310846Y-71676057D01*
X54445903Y-72002920D01*
X54692000Y-72249447D01*
X54692000Y-76689580D01*
X54089580Y-77292000D01*
X48021240Y-77292000D01*
X47826837Y-77330669D01*
X47662030Y-77440790D01*
X44378922Y-80723898D01*
X44357252Y-80723898D01*
X44452500Y-80628650D01*
X44452500Y-80368714D01*
X44394496Y-80228680D01*
X44287319Y-80121504D01*
X44147285Y-80063500D01*
X43722250Y-80063500D01*
X43627000Y-80158750D01*
X43627000Y-80723900D01*
X43647000Y-80723900D01*
X43647000Y-80977900D01*
X43627000Y-80977900D01*
X43627000Y-80997900D01*
X43373000Y-80997900D01*
X43373000Y-80977900D01*
X42642750Y-80977900D01*
X42547500Y-81073150D01*
X40558800Y-81073150D01*
X40558800Y-81012402D01*
X40574766Y-81005805D01*
X40860821Y-80720249D01*
X41006791Y-80368714D01*
X42547500Y-80368714D01*
X42547500Y-80628650D01*
X42642750Y-80723900D01*
X43373000Y-80723900D01*
X43373000Y-80158750D01*
X43277750Y-80063500D01*
X42852715Y-80063500D01*
X42712681Y-80121504D01*
X42605504Y-80228680D01*
X42547500Y-80368714D01*
X41006791Y-80368714D01*
X41015824Y-80346962D01*
X41016176Y-79942772D01*
X41008952Y-79925290D01*
X41030130Y-79904112D01*
X41226343Y-79707900D01*
X42573816Y-79707900D01*
X42650046Y-79826365D01*
X42777366Y-79913359D01*
X42928500Y-79943964D01*
X44071500Y-79943964D01*
X44212690Y-79917397D01*
X44342365Y-79833954D01*
X44429359Y-79706634D01*
X44459964Y-79555500D01*
X44459964Y-78742700D01*
X44433397Y-78601510D01*
X44349954Y-78471835D01*
X44222634Y-78384841D01*
X44071500Y-78354236D01*
X42928500Y-78354236D01*
X42787310Y-78380803D01*
X42657635Y-78464246D01*
X42571506Y-78590300D01*
X40994880Y-78590300D01*
X40781037Y-78632835D01*
X40599749Y-78753968D01*
X40239868Y-79113850D01*
X40218937Y-79134781D01*
X40202982Y-79128156D01*
X39798792Y-79127804D01*
X39491379Y-79254824D01*
X40037005Y-78709199D01*
X40052959Y-78715824D01*
X40457149Y-78716176D01*
X40830707Y-78561825D01*
X41116762Y-78276269D01*
X41271765Y-77902982D01*
X41272117Y-77498792D01*
X41264894Y-77481310D01*
X41987404Y-76758800D01*
X48331578Y-76758800D01*
X48338175Y-76774766D01*
X48623731Y-77060821D01*
X48997018Y-77215824D01*
X49401208Y-77216176D01*
X49774766Y-77061825D01*
X50060821Y-76776269D01*
X50215824Y-76402982D01*
X50216176Y-75998792D01*
X50061825Y-75625234D01*
X49776269Y-75339179D01*
X49402982Y-75184176D01*
X48998792Y-75183824D01*
X48625234Y-75338175D01*
X48339179Y-75623731D01*
X48331925Y-75641200D01*
X41755941Y-75641200D01*
X41542097Y-75683736D01*
X41490881Y-75717958D01*
X41360809Y-75804869D01*
X40474878Y-76690801D01*
X40458923Y-76684176D01*
X40054733Y-76683824D01*
X39681175Y-76838175D01*
X39395120Y-77123731D01*
X39240117Y-77497018D01*
X39239765Y-77901208D01*
X39246988Y-77918690D01*
X35604869Y-81560810D01*
X35483736Y-81742097D01*
X35441200Y-81955941D01*
X35441200Y-94631578D01*
X35425234Y-94638175D01*
X35139179Y-94923731D01*
X34984176Y-95297018D01*
X34983824Y-95701208D01*
X35138175Y-96074766D01*
X35423731Y-96360821D01*
X35797018Y-96515824D01*
X36201208Y-96516176D01*
X36574766Y-96361825D01*
X36860821Y-96076269D01*
X36868075Y-96058800D01*
X45900000Y-96058800D01*
X46113844Y-96016264D01*
X46295131Y-95895131D01*
X47795131Y-94395132D01*
X47884204Y-94261825D01*
X47916264Y-94213844D01*
X47958800Y-94000000D01*
X47958800Y-91726359D01*
X49856802Y-91726359D01*
X50030446Y-92146612D01*
X50351697Y-92468423D01*
X50771646Y-92642801D01*
X51226359Y-92643198D01*
X51646612Y-92469554D01*
X51775229Y-92341160D01*
X55338445Y-92341160D01*
X55421824Y-92511856D01*
X55853055Y-92656091D01*
X56306657Y-92624322D01*
X56578176Y-92511856D01*
X56661555Y-92341160D01*
X56000000Y-91679605D01*
X55338445Y-92341160D01*
X51775229Y-92341160D01*
X51968423Y-92148303D01*
X52142801Y-91728354D01*
X52143128Y-91353055D01*
X54843909Y-91353055D01*
X54875678Y-91806657D01*
X54988144Y-92078176D01*
X55158840Y-92161555D01*
X55820395Y-91500000D01*
X56179605Y-91500000D01*
X56841160Y-92161555D01*
X57011856Y-92078176D01*
X57156091Y-91646945D01*
X57124322Y-91193343D01*
X57011856Y-90921824D01*
X56841160Y-90838445D01*
X56179605Y-91500000D01*
X55820395Y-91500000D01*
X55158840Y-90838445D01*
X54988144Y-90921824D01*
X54843909Y-91353055D01*
X52143128Y-91353055D01*
X52143198Y-91273641D01*
X51969554Y-90853388D01*
X51775345Y-90658840D01*
X55338445Y-90658840D01*
X56000000Y-91320395D01*
X56661555Y-90658840D01*
X56578176Y-90488144D01*
X56146945Y-90343909D01*
X55693343Y-90375678D01*
X55421824Y-90488144D01*
X55338445Y-90658840D01*
X51775345Y-90658840D01*
X51648303Y-90531577D01*
X51228354Y-90357199D01*
X50773641Y-90356802D01*
X50353388Y-90530446D01*
X50031577Y-90851697D01*
X49857199Y-91271646D01*
X49856802Y-91726359D01*
X47958800Y-91726359D01*
X47958800Y-84268422D01*
X47974766Y-84261825D01*
X48260821Y-83976269D01*
X48268075Y-83958800D01*
X48700000Y-83958800D01*
X48913844Y-83916264D01*
X49095131Y-83795131D01*
X49395131Y-83495131D01*
X49458696Y-83400000D01*
X49516264Y-83313844D01*
X49549697Y-83145764D01*
X49571500Y-83145764D01*
X49712690Y-83119197D01*
X49842365Y-83035754D01*
X49928494Y-82909700D01*
X58349100Y-82909700D01*
X58562944Y-82867164D01*
X58744231Y-82746031D01*
X59695131Y-81795131D01*
X59816265Y-81613843D01*
X59858800Y-81400000D01*
X59858800Y-77100000D01*
X59816264Y-76886156D01*
X59695131Y-76704869D01*
X58690601Y-75700339D01*
X58690601Y-46131801D01*
X58673737Y-46047018D01*
X58648066Y-45917958D01*
X58526932Y-45736670D01*
X55246031Y-42455769D01*
X55192056Y-42419704D01*
X55064744Y-42334636D01*
X54850900Y-42292100D01*
X49926184Y-42292100D01*
X49849954Y-42173635D01*
X49722634Y-42086641D01*
X49571500Y-42056036D01*
X48428500Y-42056036D01*
X48287310Y-42082603D01*
X48157635Y-42166046D01*
X48070641Y-42293366D01*
X48040036Y-42444500D01*
X48040036Y-42476341D01*
X46925717Y-42476341D01*
X46919120Y-42460375D01*
X46633564Y-42174320D01*
X46616095Y-42167066D01*
X46616095Y-41371350D01*
X48047500Y-41371350D01*
X48047500Y-41631286D01*
X48105504Y-41771320D01*
X48212681Y-41878496D01*
X48352715Y-41936500D01*
X48777750Y-41936500D01*
X48873000Y-41841250D01*
X48873000Y-41276100D01*
X49127000Y-41276100D01*
X49127000Y-41841250D01*
X49222250Y-41936500D01*
X49647285Y-41936500D01*
X49787319Y-41878496D01*
X49894496Y-41771320D01*
X49952500Y-41631286D01*
X49952500Y-41371350D01*
X49857250Y-41276100D01*
X49127000Y-41276100D01*
X48873000Y-41276100D01*
X48142750Y-41276100D01*
X48047500Y-41371350D01*
X46616095Y-41371350D01*
X46616095Y-40666914D01*
X48047500Y-40666914D01*
X48047500Y-40926850D01*
X48142750Y-41022100D01*
X48873000Y-41022100D01*
X48873000Y-40456950D01*
X49127000Y-40456950D01*
X49127000Y-41022100D01*
X49857250Y-41022100D01*
X49952500Y-40926850D01*
X49952500Y-40666914D01*
X49894496Y-40526880D01*
X49787319Y-40419704D01*
X49647285Y-40361700D01*
X49222250Y-40361700D01*
X49127000Y-40456950D01*
X48873000Y-40456950D01*
X48777750Y-40361700D01*
X48352715Y-40361700D01*
X48212681Y-40419704D01*
X48105504Y-40526880D01*
X48047500Y-40666914D01*
X46616095Y-40666914D01*
X46616095Y-36534841D01*
X47346288Y-36534841D01*
X47556012Y-37042412D01*
X47944011Y-37431089D01*
X48451216Y-37641698D01*
X49000409Y-37642178D01*
X49507980Y-37432454D01*
X49896657Y-37044455D01*
X50010849Y-36769449D01*
X51851029Y-36769449D01*
X58992000Y-43910420D01*
X58992000Y-74900000D01*
X59030669Y-75094403D01*
X59140790Y-75259210D01*
X60192000Y-76310420D01*
X60192000Y-96689580D01*
X56412580Y-100469000D01*
X54958251Y-100469000D01*
X54525436Y-100555092D01*
X54158513Y-100800262D01*
X53913343Y-101167185D01*
X53827251Y-101600000D01*
X53913343Y-102032815D01*
X54158513Y-102399738D01*
X54525436Y-102644908D01*
X54958251Y-102731000D01*
X57041749Y-102731000D01*
X57474564Y-102644908D01*
X57841487Y-102399738D01*
X58086657Y-102032815D01*
X58172749Y-101600000D01*
X67827251Y-101600000D01*
X67913343Y-102032815D01*
X68158513Y-102399738D01*
X68525436Y-102644908D01*
X68958251Y-102731000D01*
X71041749Y-102731000D01*
X71474564Y-102644908D01*
X71841487Y-102399738D01*
X72086657Y-102032815D01*
X72172749Y-101600000D01*
X72086657Y-101167185D01*
X71841487Y-100800262D01*
X71474564Y-100555092D01*
X71041749Y-100469000D01*
X68958251Y-100469000D01*
X68525436Y-100555092D01*
X68158513Y-100800262D01*
X67913343Y-101167185D01*
X67827251Y-101600000D01*
X58172749Y-101600000D01*
X58086657Y-101167185D01*
X57841487Y-100800262D01*
X57647665Y-100670755D01*
X61059210Y-97259210D01*
X61169331Y-97094403D01*
X61208000Y-96900000D01*
X61208000Y-95800000D01*
X67827251Y-95800000D01*
X67913343Y-96232815D01*
X68158513Y-96599738D01*
X68525436Y-96844908D01*
X68958251Y-96931000D01*
X71041749Y-96931000D01*
X71474564Y-96844908D01*
X71841487Y-96599738D01*
X72086657Y-96232815D01*
X72172749Y-95800000D01*
X72086657Y-95367185D01*
X71841487Y-95000262D01*
X71474564Y-94755092D01*
X71041749Y-94669000D01*
X68958251Y-94669000D01*
X68525436Y-94755092D01*
X68158513Y-95000262D01*
X67913343Y-95367185D01*
X67827251Y-95800000D01*
X61208000Y-95800000D01*
X61208000Y-92627000D01*
X63669000Y-92627000D01*
X63669000Y-93377000D01*
X63841753Y-93991489D01*
X64236511Y-94493093D01*
X64793175Y-94805448D01*
X64920194Y-94836161D01*
X65173000Y-94780490D01*
X65173000Y-92627000D01*
X65427000Y-92627000D01*
X65427000Y-94780490D01*
X65679806Y-94836161D01*
X65806825Y-94805448D01*
X66363489Y-94493093D01*
X66758247Y-93991489D01*
X66931000Y-93377000D01*
X66931000Y-92845432D01*
X73311196Y-92845432D01*
X73453433Y-93369640D01*
X73785448Y-93799513D01*
X74256695Y-94069607D01*
X74359443Y-94088350D01*
X74573000Y-94029462D01*
X74573000Y-92627000D01*
X74827000Y-92627000D01*
X74827000Y-94029462D01*
X75040557Y-94088350D01*
X75143305Y-94069607D01*
X75614552Y-93799513D01*
X75946567Y-93369640D01*
X76088804Y-92845432D01*
X75991384Y-92627000D01*
X74827000Y-92627000D01*
X74573000Y-92627000D01*
X73408616Y-92627000D01*
X73311196Y-92845432D01*
X66931000Y-92845432D01*
X66931000Y-92627000D01*
X65427000Y-92627000D01*
X65173000Y-92627000D01*
X63669000Y-92627000D01*
X61208000Y-92627000D01*
X61208000Y-91623000D01*
X63669000Y-91623000D01*
X63669000Y-92373000D01*
X65173000Y-92373000D01*
X65173000Y-90219510D01*
X65427000Y-90219510D01*
X65427000Y-92373000D01*
X66931000Y-92373000D01*
X66931000Y-92154568D01*
X73311196Y-92154568D01*
X73408616Y-92373000D01*
X74573000Y-92373000D01*
X74573000Y-90970538D01*
X74827000Y-90970538D01*
X74827000Y-92373000D01*
X75991384Y-92373000D01*
X76088804Y-92154568D01*
X75946567Y-91630360D01*
X75614552Y-91200487D01*
X75143305Y-90930393D01*
X75040557Y-90911650D01*
X74827000Y-90970538D01*
X74573000Y-90970538D01*
X74359443Y-90911650D01*
X74256695Y-90930393D01*
X73785448Y-91200487D01*
X73453433Y-91630360D01*
X73311196Y-92154568D01*
X66931000Y-92154568D01*
X66931000Y-91623000D01*
X66758247Y-91008511D01*
X66363489Y-90506907D01*
X65806825Y-90194552D01*
X65679806Y-90163839D01*
X65427000Y-90219510D01*
X65173000Y-90219510D01*
X64920194Y-90163839D01*
X64793175Y-90194552D01*
X64236511Y-90506907D01*
X63841753Y-91008511D01*
X63669000Y-91623000D01*
X61208000Y-91623000D01*
X61208000Y-87600000D01*
X67827251Y-87600000D01*
X67913343Y-88032815D01*
X68158513Y-88399738D01*
X68525436Y-88644908D01*
X68958251Y-88731000D01*
X71041749Y-88731000D01*
X71474564Y-88644908D01*
X71841487Y-88399738D01*
X72086657Y-88032815D01*
X72172749Y-87600000D01*
X72086657Y-87167185D01*
X71841487Y-86800262D01*
X71474564Y-86555092D01*
X71041749Y-86469000D01*
X68958251Y-86469000D01*
X68525436Y-86555092D01*
X68158513Y-86800262D01*
X67913343Y-87167185D01*
X67827251Y-87600000D01*
X61208000Y-87600000D01*
X61208000Y-76100000D01*
X61169331Y-75905597D01*
X61169331Y-75905596D01*
X61059210Y-75740790D01*
X60008000Y-74689580D01*
X60008000Y-62837909D01*
X73988908Y-62837909D01*
X74307255Y-63285422D01*
X74772624Y-63577045D01*
X75170467Y-63665245D01*
X75374719Y-63569784D01*
X75169966Y-62408573D01*
X74008754Y-62613326D01*
X73988908Y-62837909D01*
X60008000Y-62837909D01*
X60008000Y-62158933D01*
X73869187Y-62158933D01*
X73964648Y-62363185D01*
X75125859Y-62158432D01*
X74921106Y-60997220D01*
X74696523Y-60977374D01*
X74249010Y-61295721D01*
X73957387Y-61761090D01*
X73869187Y-62158933D01*
X60008000Y-62158933D01*
X60008000Y-60953114D01*
X75171247Y-60953114D01*
X75376000Y-62114325D01*
X76537212Y-61909572D01*
X76557058Y-61684989D01*
X76238711Y-61237476D01*
X75773342Y-60945853D01*
X75375499Y-60857653D01*
X75171247Y-60953114D01*
X60008000Y-60953114D01*
X60008000Y-43700000D01*
X59969331Y-43505597D01*
X59859210Y-43340790D01*
X57278476Y-40760056D01*
X58015787Y-40760056D01*
X58150844Y-41086919D01*
X58400705Y-41337217D01*
X58727332Y-41472845D01*
X59075670Y-41473148D01*
X60492000Y-42889478D01*
X60492000Y-54250974D01*
X60246782Y-54495764D01*
X60111154Y-54822391D01*
X60110846Y-55176057D01*
X60245903Y-55502920D01*
X60495764Y-55753218D01*
X60822391Y-55888846D01*
X61176057Y-55889154D01*
X61502920Y-55754097D01*
X61753218Y-55504236D01*
X61888846Y-55177609D01*
X61889154Y-54823943D01*
X61754097Y-54497080D01*
X61508000Y-54250553D01*
X61508000Y-42679058D01*
X61469331Y-42484655D01*
X61359210Y-42319848D01*
X59793793Y-40754431D01*
X59794095Y-40407942D01*
X59659038Y-40081079D01*
X59409177Y-39830781D01*
X59082550Y-39695153D01*
X58728884Y-39694845D01*
X58402021Y-39829902D01*
X58151723Y-40079763D01*
X58016095Y-40406390D01*
X58015787Y-40760056D01*
X57278476Y-40760056D01*
X52420659Y-35902239D01*
X52255852Y-35792118D01*
X52061449Y-35753449D01*
X50010808Y-35753449D01*
X49898022Y-35480486D01*
X49510023Y-35091809D01*
X49002818Y-34881200D01*
X48453625Y-34880720D01*
X47946054Y-35090444D01*
X47557377Y-35478443D01*
X47346768Y-35985648D01*
X47346288Y-36534841D01*
X46616095Y-36534841D01*
X46616095Y-33666959D01*
X51442048Y-33666959D01*
X51651772Y-34174530D01*
X52039771Y-34563207D01*
X52546976Y-34773816D01*
X53096169Y-34774296D01*
X53603740Y-34564572D01*
X53992417Y-34176573D01*
X54203026Y-33669368D01*
X54203506Y-33120175D01*
X53993782Y-32612604D01*
X53605783Y-32223927D01*
X53098578Y-32013318D01*
X52549385Y-32012838D01*
X52041814Y-32222562D01*
X51653137Y-32610561D01*
X51442528Y-33117766D01*
X51442048Y-33666959D01*
X46616095Y-33666959D01*
X46616095Y-31720743D01*
X46760821Y-31576269D01*
X46768075Y-31558800D01*
X53768538Y-31558800D01*
X55764577Y-33554840D01*
X55836908Y-33663092D01*
X58086906Y-35913089D01*
X58086908Y-35913092D01*
X58195496Y-35985648D01*
X58276437Y-36039731D01*
X58500000Y-36084201D01*
X58500005Y-36084200D01*
X61800754Y-36084200D01*
X61838175Y-36174766D01*
X62123731Y-36460821D01*
X62141200Y-36468075D01*
X62141200Y-41171714D01*
X62139179Y-41173731D01*
X61984176Y-41547018D01*
X61983824Y-41951208D01*
X62138175Y-42324766D01*
X62423731Y-42610821D01*
X62466600Y-42628622D01*
X62466600Y-45371083D01*
X62425234Y-45388175D01*
X62139179Y-45673731D01*
X61984176Y-46047018D01*
X61983824Y-46451208D01*
X62138175Y-46824766D01*
X62423731Y-47110821D01*
X62797018Y-47265824D01*
X63201208Y-47266176D01*
X63574766Y-47111825D01*
X63860821Y-46826269D01*
X64015824Y-46452982D01*
X64016176Y-46048792D01*
X63861825Y-45675234D01*
X63576269Y-45389179D01*
X63533400Y-45371378D01*
X63533400Y-42628917D01*
X63574766Y-42611825D01*
X63860821Y-42326269D01*
X64015824Y-41952982D01*
X64016176Y-41548792D01*
X63861825Y-41175234D01*
X63576269Y-40889179D01*
X63258800Y-40757354D01*
X63258800Y-36468422D01*
X63274766Y-36461825D01*
X63560821Y-36176269D01*
X63715824Y-35802982D01*
X63716176Y-35398792D01*
X63561825Y-35025234D01*
X63276269Y-34739179D01*
X62902982Y-34584176D01*
X62498792Y-34583824D01*
X62125234Y-34738175D01*
X61947299Y-34915800D01*
X58741983Y-34915800D01*
X56663092Y-32836908D01*
X56554840Y-32764577D01*
X55624283Y-31834020D01*
X56816801Y-31834020D01*
X57021053Y-31929481D01*
X57550459Y-31783392D01*
X57983660Y-31445829D01*
X58202612Y-31102145D01*
X58182766Y-30877562D01*
X57021554Y-30672809D01*
X56816801Y-31834020D01*
X55624283Y-31834020D01*
X54418464Y-30628201D01*
X55514741Y-30628201D01*
X55660830Y-31157607D01*
X55998393Y-31590808D01*
X56342077Y-31809760D01*
X56566660Y-31789914D01*
X56771413Y-30628702D01*
X55610202Y-30423949D01*
X55514741Y-30628201D01*
X54418464Y-30628201D01*
X54395131Y-30604869D01*
X54375014Y-30591427D01*
X54213844Y-30483736D01*
X54000000Y-30441200D01*
X46768422Y-30441200D01*
X46761825Y-30425234D01*
X46476269Y-30139179D01*
X46102982Y-29984176D01*
X45698792Y-29983824D01*
X45325234Y-30138175D01*
X45039179Y-30423731D01*
X44884176Y-30797018D01*
X44883824Y-31201208D01*
X45038175Y-31574766D01*
X45323731Y-31860821D01*
X45498495Y-31933390D01*
X45498495Y-40061619D01*
X45376269Y-39939179D01*
X45002982Y-39784176D01*
X44598792Y-39783824D01*
X44225234Y-39938175D01*
X44101152Y-40062041D01*
X44071500Y-40056036D01*
X42928500Y-40056036D01*
X42787310Y-40082603D01*
X42657635Y-40166046D01*
X42571506Y-40292100D01*
X36282363Y-40292100D01*
X35361613Y-39371350D01*
X42547500Y-39371350D01*
X42547500Y-39631286D01*
X42605504Y-39771320D01*
X42712681Y-39878496D01*
X42852715Y-39936500D01*
X43277750Y-39936500D01*
X43373000Y-39841250D01*
X43373000Y-39276100D01*
X43627000Y-39276100D01*
X43627000Y-39841250D01*
X43722250Y-39936500D01*
X44147285Y-39936500D01*
X44287319Y-39878496D01*
X44394496Y-39771320D01*
X44452500Y-39631286D01*
X44452500Y-39371350D01*
X44357250Y-39276100D01*
X43627000Y-39276100D01*
X43373000Y-39276100D01*
X42642750Y-39276100D01*
X42547500Y-39371350D01*
X35361613Y-39371350D01*
X34657177Y-38666914D01*
X42547500Y-38666914D01*
X42547500Y-38926850D01*
X42642750Y-39022100D01*
X43373000Y-39022100D01*
X43373000Y-38456950D01*
X43627000Y-38456950D01*
X43627000Y-39022100D01*
X44357250Y-39022100D01*
X44452500Y-38926850D01*
X44452500Y-38666914D01*
X44394496Y-38526880D01*
X44287319Y-38419704D01*
X44147285Y-38361700D01*
X43722250Y-38361700D01*
X43627000Y-38456950D01*
X43373000Y-38456950D01*
X43277750Y-38361700D01*
X42852715Y-38361700D01*
X42712681Y-38419704D01*
X42605504Y-38526880D01*
X42547500Y-38666914D01*
X34657177Y-38666914D01*
X33895131Y-37904869D01*
X33820563Y-37855044D01*
X33713844Y-37783736D01*
X33500000Y-37741200D01*
X27368422Y-37741200D01*
X27361825Y-37725234D01*
X27076269Y-37439179D01*
X26702982Y-37284176D01*
X26298792Y-37283824D01*
X25925234Y-37438175D01*
X25746201Y-37616896D01*
X25746201Y-36837909D01*
X38988908Y-36837909D01*
X39307255Y-37285422D01*
X39772624Y-37577045D01*
X40170467Y-37665245D01*
X40374719Y-37569784D01*
X40169966Y-36408573D01*
X39008754Y-36613326D01*
X38988908Y-36837909D01*
X25746201Y-36837909D01*
X25746201Y-36364466D01*
X40420107Y-36364466D01*
X40624860Y-37525678D01*
X40849443Y-37545524D01*
X41296956Y-37227177D01*
X41588579Y-36761808D01*
X41676779Y-36363965D01*
X41581318Y-36159713D01*
X40420107Y-36364466D01*
X25746201Y-36364466D01*
X25746201Y-36158933D01*
X38869187Y-36158933D01*
X38964648Y-36363185D01*
X40125859Y-36158432D01*
X39921106Y-34997220D01*
X39696523Y-34977374D01*
X39249010Y-35295721D01*
X38957387Y-35761090D01*
X38869187Y-36158933D01*
X25746201Y-36158933D01*
X25746201Y-34953114D01*
X40171247Y-34953114D01*
X40376000Y-36114325D01*
X41537212Y-35909572D01*
X41557058Y-35684989D01*
X41238711Y-35237476D01*
X40773342Y-34945853D01*
X40375499Y-34857653D01*
X40171247Y-34953114D01*
X25746201Y-34953114D01*
X25746201Y-33666959D01*
X34796494Y-33666959D01*
X35006218Y-34174530D01*
X35394217Y-34563207D01*
X35901422Y-34773816D01*
X36450615Y-34774296D01*
X36958186Y-34564572D01*
X37346863Y-34176573D01*
X37557472Y-33669368D01*
X37557952Y-33120175D01*
X37348228Y-32612604D01*
X36960229Y-32223927D01*
X36453024Y-32013318D01*
X35903831Y-32012838D01*
X35396260Y-32222562D01*
X35007583Y-32610561D01*
X34796974Y-33117766D01*
X34796494Y-33666959D01*
X25746201Y-33666959D01*
X25746201Y-29838201D01*
X25707532Y-29643798D01*
X25707532Y-29643797D01*
X25597411Y-29478991D01*
X25288852Y-29170432D01*
X25289154Y-28823943D01*
X25207217Y-28625639D01*
X26040787Y-29459210D01*
X26150908Y-29532790D01*
X26205595Y-29569331D01*
X26399998Y-29608000D01*
X31046737Y-29608000D01*
X30911823Y-29742679D01*
X30701214Y-30249884D01*
X30700734Y-30799077D01*
X30910458Y-31306648D01*
X31298457Y-31695325D01*
X31805662Y-31905934D01*
X32354855Y-31906414D01*
X32862426Y-31696690D01*
X33251103Y-31308691D01*
X33461712Y-30801486D01*
X33462192Y-30252293D01*
X33252468Y-29744722D01*
X33115984Y-29608000D01*
X55849186Y-29608000D01*
X55835215Y-29621971D01*
X55839938Y-29626694D01*
X55634462Y-29949225D01*
X55654308Y-30173808D01*
X56543913Y-30330669D01*
X56724788Y-30511544D01*
X56904396Y-30331936D01*
X56835831Y-30263371D01*
X56951391Y-29608000D01*
X57209309Y-29608000D01*
X57113553Y-30151061D01*
X56932678Y-30331936D01*
X57112286Y-30511544D01*
X57180851Y-30442979D01*
X58226872Y-30627421D01*
X58322333Y-30423169D01*
X58176244Y-29893763D01*
X57980837Y-29642993D01*
X58001859Y-29621971D01*
X57987888Y-29608000D01*
X60589580Y-29608000D01*
X67992000Y-37010421D01*
X67992000Y-55483799D01*
X67864469Y-55356045D01*
X67357264Y-55145436D01*
X66808071Y-55144956D01*
X66300500Y-55354680D01*
X65911823Y-55742679D01*
X65701214Y-56249884D01*
X65700734Y-56799077D01*
X65910458Y-57306648D01*
X66298457Y-57695325D01*
X66805662Y-57905934D01*
X67354855Y-57906414D01*
X67862426Y-57696690D01*
X68251103Y-57308691D01*
X68287140Y-57221904D01*
X69910236Y-58845000D01*
X69796974Y-59117766D01*
X69796494Y-59666959D01*
X70006218Y-60174530D01*
X70394217Y-60563207D01*
X70901422Y-60773816D01*
X71450615Y-60774296D01*
X71958186Y-60564572D01*
X72346863Y-60176573D01*
X72557472Y-59669368D01*
X72557952Y-59120175D01*
X72348228Y-58612604D01*
X71960229Y-58223927D01*
X71453024Y-58013318D01*
X70903831Y-58012838D01*
X70628626Y-58126550D01*
X69008000Y-56505924D01*
X69008000Y-51474359D01*
X69015066Y-51484934D01*
X69419096Y-51888964D01*
X69418813Y-52214081D01*
X69583038Y-52611537D01*
X69886863Y-52915893D01*
X70284032Y-53080812D01*
X70714081Y-53081187D01*
X71111537Y-52916962D01*
X71415893Y-52613137D01*
X71419000Y-52605655D01*
X71419000Y-52775785D01*
X71477004Y-52915819D01*
X71584180Y-53022996D01*
X71724214Y-53081000D01*
X72277750Y-53081000D01*
X72373000Y-52985750D01*
X72373000Y-52127000D01*
X72627000Y-52127000D01*
X72627000Y-52985750D01*
X72722250Y-53081000D01*
X73275786Y-53081000D01*
X73415820Y-53022996D01*
X73522996Y-52915819D01*
X73581000Y-52775785D01*
X73581000Y-52222250D01*
X73485750Y-52127000D01*
X72627000Y-52127000D01*
X72373000Y-52127000D01*
X72353000Y-52127000D01*
X72353000Y-51873000D01*
X72373000Y-51873000D01*
X72373000Y-51014250D01*
X72627000Y-51014250D01*
X72627000Y-51873000D01*
X73485750Y-51873000D01*
X73581000Y-51777750D01*
X73581000Y-51224215D01*
X73522996Y-51084181D01*
X73415820Y-50977004D01*
X73275786Y-50919000D01*
X72722250Y-50919000D01*
X72627000Y-51014250D01*
X72373000Y-51014250D01*
X72277750Y-50919000D01*
X71724214Y-50919000D01*
X71584180Y-50977004D01*
X71477004Y-51084181D01*
X71419000Y-51224215D01*
X71419000Y-51393395D01*
X71416962Y-51388463D01*
X71113137Y-51084107D01*
X70715968Y-50919188D01*
X70388771Y-50918903D01*
X70185800Y-50715932D01*
X70185800Y-37687660D01*
X70235266Y-37721459D01*
X70386400Y-37752064D01*
X72113600Y-37752064D01*
X72254790Y-37725497D01*
X72384465Y-37642054D01*
X72471459Y-37514734D01*
X72502064Y-37363600D01*
X72502064Y-36500000D01*
X72521017Y-36500000D01*
X72615757Y-36976288D01*
X72885552Y-37380065D01*
X73289329Y-37649860D01*
X73765617Y-37744600D01*
X73814383Y-37744600D01*
X74290671Y-37649860D01*
X74694448Y-37380065D01*
X74964243Y-36976288D01*
X75058983Y-36500000D01*
X74964243Y-36023712D01*
X74694448Y-35619935D01*
X74290671Y-35350140D01*
X73814383Y-35255400D01*
X73765617Y-35255400D01*
X73289329Y-35350140D01*
X72885552Y-35619935D01*
X72615757Y-36023712D01*
X72521017Y-36500000D01*
X72502064Y-36500000D01*
X72502064Y-35636400D01*
X72475497Y-35495210D01*
X72392054Y-35365535D01*
X72264734Y-35278541D01*
X72113600Y-35247936D01*
X70386400Y-35247936D01*
X70245210Y-35274503D01*
X70185800Y-35312732D01*
X70185800Y-34598735D01*
X70494801Y-34949310D01*
X70930880Y-35163005D01*
X71123000Y-35102865D01*
X71123000Y-34087000D01*
X71377000Y-34087000D01*
X71377000Y-35102865D01*
X71569120Y-35163005D01*
X72005199Y-34949310D01*
X72326305Y-34585001D01*
X72452993Y-34279118D01*
X72587007Y-34279118D01*
X72713695Y-34585001D01*
X73034801Y-34949310D01*
X73470880Y-35163005D01*
X73663000Y-35102865D01*
X73663000Y-34087000D01*
X73917000Y-34087000D01*
X73917000Y-35102865D01*
X74109120Y-35163005D01*
X74545199Y-34949310D01*
X74866305Y-34585001D01*
X74992993Y-34279118D01*
X74932312Y-34087000D01*
X73917000Y-34087000D01*
X73663000Y-34087000D01*
X72647688Y-34087000D01*
X72587007Y-34279118D01*
X72452993Y-34279118D01*
X72392312Y-34087000D01*
X71377000Y-34087000D01*
X71123000Y-34087000D01*
X71103000Y-34087000D01*
X71103000Y-33833000D01*
X71123000Y-33833000D01*
X71123000Y-32817135D01*
X71377000Y-32817135D01*
X71377000Y-33833000D01*
X72392312Y-33833000D01*
X72452993Y-33640882D01*
X72587007Y-33640882D01*
X72647688Y-33833000D01*
X73663000Y-33833000D01*
X73663000Y-32817135D01*
X73917000Y-32817135D01*
X73917000Y-33833000D01*
X74932312Y-33833000D01*
X74992993Y-33640882D01*
X74866305Y-33334999D01*
X74545199Y-32970690D01*
X74109120Y-32756995D01*
X73917000Y-32817135D01*
X73663000Y-32817135D01*
X73470880Y-32756995D01*
X73034801Y-32970690D01*
X72713695Y-33334999D01*
X72587007Y-33640882D01*
X72452993Y-33640882D01*
X72326305Y-33334999D01*
X72005199Y-32970690D01*
X71569120Y-32756995D01*
X71377000Y-32817135D01*
X71123000Y-32817135D01*
X70930880Y-32756995D01*
X70494801Y-32970690D01*
X70185800Y-33321265D01*
X70185800Y-32058735D01*
X70494801Y-32409310D01*
X70930880Y-32623005D01*
X71123000Y-32562865D01*
X71123000Y-31547000D01*
X71377000Y-31547000D01*
X71377000Y-32562865D01*
X71569120Y-32623005D01*
X72005199Y-32409310D01*
X72326305Y-32045001D01*
X72452993Y-31739118D01*
X72587007Y-31739118D01*
X72713695Y-32045001D01*
X73034801Y-32409310D01*
X73470880Y-32623005D01*
X73663000Y-32562865D01*
X73663000Y-31547000D01*
X73917000Y-31547000D01*
X73917000Y-32562865D01*
X74109120Y-32623005D01*
X74545199Y-32409310D01*
X74866305Y-32045001D01*
X74992993Y-31739118D01*
X74932312Y-31547000D01*
X73917000Y-31547000D01*
X73663000Y-31547000D01*
X72647688Y-31547000D01*
X72587007Y-31739118D01*
X72452993Y-31739118D01*
X72392312Y-31547000D01*
X71377000Y-31547000D01*
X71123000Y-31547000D01*
X71103000Y-31547000D01*
X71103000Y-31293000D01*
X71123000Y-31293000D01*
X71123000Y-30277135D01*
X71377000Y-30277135D01*
X71377000Y-31293000D01*
X72392312Y-31293000D01*
X72452993Y-31100882D01*
X72587007Y-31100882D01*
X72647688Y-31293000D01*
X73663000Y-31293000D01*
X73663000Y-30277135D01*
X73917000Y-30277135D01*
X73917000Y-31293000D01*
X74932312Y-31293000D01*
X74992993Y-31100882D01*
X74866305Y-30794999D01*
X74545199Y-30430690D01*
X74109120Y-30216995D01*
X73917000Y-30277135D01*
X73663000Y-30277135D01*
X73470880Y-30216995D01*
X73034801Y-30430690D01*
X72713695Y-30794999D01*
X72587007Y-31100882D01*
X72452993Y-31100882D01*
X72326305Y-30794999D01*
X72005199Y-30430690D01*
X71569120Y-30216995D01*
X71377000Y-30277135D01*
X71123000Y-30277135D01*
X70930880Y-30216995D01*
X70494801Y-30430690D01*
X70173695Y-30794999D01*
X70047007Y-31100882D01*
X70107687Y-31292998D01*
X70005400Y-31292998D01*
X70005400Y-31295696D01*
X69984934Y-31265066D01*
X68685800Y-29965932D01*
X68685800Y-29199118D01*
X70047007Y-29199118D01*
X70173695Y-29505001D01*
X70494801Y-29869310D01*
X70930880Y-30083005D01*
X71123000Y-30022865D01*
X71123000Y-29007000D01*
X71377000Y-29007000D01*
X71377000Y-30022865D01*
X71569120Y-30083005D01*
X72005199Y-29869310D01*
X72326305Y-29505001D01*
X72452993Y-29199118D01*
X72587007Y-29199118D01*
X72713695Y-29505001D01*
X73034801Y-29869310D01*
X73470880Y-30083005D01*
X73663000Y-30022865D01*
X73663000Y-29007000D01*
X73917000Y-29007000D01*
X73917000Y-30022865D01*
X74109120Y-30083005D01*
X74545199Y-29869310D01*
X74866305Y-29505001D01*
X74992993Y-29199118D01*
X74932312Y-29007000D01*
X73917000Y-29007000D01*
X73663000Y-29007000D01*
X72647688Y-29007000D01*
X72587007Y-29199118D01*
X72452993Y-29199118D01*
X72392312Y-29007000D01*
X71377000Y-29007000D01*
X71123000Y-29007000D01*
X70107688Y-29007000D01*
X70047007Y-29199118D01*
X68685800Y-29199118D01*
X68685800Y-28560882D01*
X70047007Y-28560882D01*
X70107688Y-28753000D01*
X71123000Y-28753000D01*
X71123000Y-27737135D01*
X71377000Y-27737135D01*
X71377000Y-28753000D01*
X72392312Y-28753000D01*
X72452993Y-28560882D01*
X72587007Y-28560882D01*
X72647688Y-28753000D01*
X73663000Y-28753000D01*
X73663000Y-27737135D01*
X73917000Y-27737135D01*
X73917000Y-28753000D01*
X74932312Y-28753000D01*
X74992993Y-28560882D01*
X74866305Y-28254999D01*
X74545199Y-27890690D01*
X74109120Y-27676995D01*
X73917000Y-27737135D01*
X73663000Y-27737135D01*
X73470880Y-27676995D01*
X73034801Y-27890690D01*
X72713695Y-28254999D01*
X72587007Y-28560882D01*
X72452993Y-28560882D01*
X72326305Y-28254999D01*
X72005199Y-27890690D01*
X71569120Y-27676995D01*
X71377000Y-27737135D01*
X71123000Y-27737135D01*
X70930880Y-27676995D01*
X70494801Y-27890690D01*
X70173695Y-28254999D01*
X70047007Y-28560882D01*
X68685800Y-28560882D01*
X68685800Y-26340000D01*
X69981017Y-26340000D01*
X70075757Y-26816288D01*
X70345552Y-27220065D01*
X70749329Y-27489860D01*
X71225617Y-27584600D01*
X71274383Y-27584600D01*
X71750671Y-27489860D01*
X72154448Y-27220065D01*
X72424243Y-26816288D01*
X72518983Y-26340000D01*
X72521017Y-26340000D01*
X72615757Y-26816288D01*
X72885552Y-27220065D01*
X73289329Y-27489860D01*
X73765617Y-27584600D01*
X73814383Y-27584600D01*
X74290671Y-27489860D01*
X74694448Y-27220065D01*
X74964243Y-26816288D01*
X75058983Y-26340000D01*
X74964243Y-25863712D01*
X74694448Y-25459935D01*
X74290671Y-25190140D01*
X73814383Y-25095400D01*
X73765617Y-25095400D01*
X73289329Y-25190140D01*
X72885552Y-25459935D01*
X72615757Y-25863712D01*
X72521017Y-26340000D01*
X72518983Y-26340000D01*
X72424243Y-25863712D01*
X72154448Y-25459935D01*
X71750671Y-25190140D01*
X71274383Y-25095400D01*
X71225617Y-25095400D01*
X70749329Y-25190140D01*
X70345552Y-25459935D01*
X70075757Y-25863712D01*
X69981017Y-26340000D01*
X68685800Y-26340000D01*
X68685800Y-18250000D01*
X68657578Y-18108115D01*
X68633597Y-17987555D01*
X68484934Y-17765066D01*
X66098544Y-15378676D01*
X65959546Y-15285800D01*
X69065932Y-15285800D01*
X69765066Y-15984934D01*
X69987555Y-16133597D01*
X70161536Y-16168204D01*
X70161536Y-16200000D01*
X70188103Y-16341190D01*
X70271546Y-16470865D01*
X70398866Y-16557859D01*
X70550000Y-16588464D01*
X71950000Y-16588464D01*
X72091190Y-16561897D01*
X72220865Y-16478454D01*
X72307859Y-16351134D01*
X72318999Y-16296122D01*
X72633483Y-16296122D01*
X72709216Y-16460391D01*
X73117907Y-16594235D01*
X73546707Y-16561491D01*
X73790784Y-16460391D01*
X73866517Y-16296122D01*
X73250000Y-15679605D01*
X72633483Y-16296122D01*
X72318999Y-16296122D01*
X72338464Y-16200000D01*
X72338464Y-16063308D01*
X72453878Y-16116517D01*
X73070395Y-15500000D01*
X73429605Y-15500000D01*
X74046122Y-16116517D01*
X74210391Y-16040784D01*
X74344235Y-15632093D01*
X74311491Y-15203293D01*
X74210391Y-14959216D01*
X74046122Y-14883483D01*
X73429605Y-15500000D01*
X73070395Y-15500000D01*
X72453878Y-14883483D01*
X72338464Y-14936692D01*
X72338464Y-14800000D01*
X72320378Y-14703878D01*
X72633483Y-14703878D01*
X73250000Y-15320395D01*
X73866517Y-14703878D01*
X73790784Y-14539609D01*
X73382093Y-14405765D01*
X72953293Y-14438509D01*
X72709216Y-14539609D01*
X72633483Y-14703878D01*
X72320378Y-14703878D01*
X72311897Y-14658810D01*
X72228454Y-14529135D01*
X72101134Y-14442141D01*
X71950000Y-14411536D01*
X70550000Y-14411536D01*
X70408810Y-14438103D01*
X70279135Y-14521546D01*
X70263823Y-14543955D01*
X69834934Y-14115066D01*
X69612445Y-13966403D01*
X69350000Y-13914200D01*
X48989625Y-13914200D01*
X48814909Y-13739179D01*
X48441622Y-13584176D01*
X48037432Y-13583824D01*
X47663874Y-13738175D01*
X47377819Y-14023731D01*
X47257205Y-14314200D01*
X41584068Y-14314200D01*
X40993247Y-13723379D01*
X42686226Y-13723379D01*
X42749590Y-13877294D01*
X43121885Y-13994359D01*
X43510639Y-13960042D01*
X43710410Y-13877294D01*
X43773774Y-13723379D01*
X43230000Y-13179605D01*
X42686226Y-13723379D01*
X40993247Y-13723379D01*
X40612523Y-13342655D01*
X40390034Y-13193992D01*
X40127589Y-13141789D01*
X16632411Y-13141789D01*
X16369966Y-13193992D01*
X16147477Y-13342655D01*
X13746360Y-15743772D01*
X13713727Y-15730221D01*
X13208490Y-15729780D01*
X12741542Y-15922718D01*
X12431000Y-16232719D01*
X12431000Y-12431000D01*
X42481392Y-12431000D01*
X42506619Y-12456227D01*
G36*
X18826360Y-15743772D02*
X18793727Y-15730221D01*
X18288490Y-15729780D01*
X17821542Y-15922718D01*
X17463974Y-16279663D01*
X17270221Y-16746273D01*
X17269780Y-17251510D01*
X17462718Y-17718458D01*
X17819663Y-18076026D01*
X17854200Y-18090367D01*
X17854200Y-23240000D01*
X17906403Y-23502445D01*
X18055066Y-23724934D01*
X19064200Y-24734068D01*
X19064200Y-32995895D01*
X18993782Y-32825470D01*
X18605783Y-32436793D01*
X18098578Y-32226184D01*
X17549385Y-32225704D01*
X17041814Y-32435428D01*
X16653137Y-32823427D01*
X16442528Y-33330632D01*
X16442048Y-33879825D01*
X16651772Y-34387396D01*
X17039771Y-34776073D01*
X17546976Y-34986682D01*
X18096169Y-34987162D01*
X18603740Y-34777438D01*
X18992417Y-34389439D01*
X19064200Y-34216566D01*
X19064200Y-40005932D01*
X18826360Y-40243772D01*
X18793727Y-40230221D01*
X18288490Y-40229780D01*
X17821542Y-40422718D01*
X17463974Y-40779663D01*
X17270221Y-41246273D01*
X17269780Y-41751510D01*
X17462718Y-42218458D01*
X17819663Y-42576026D01*
X18286273Y-42769779D01*
X18791510Y-42770220D01*
X19258458Y-42577282D01*
X19616026Y-42220337D01*
X19809779Y-41753727D01*
X19810220Y-41248490D01*
X19795940Y-41213928D01*
X20234934Y-40774934D01*
X20288742Y-40694404D01*
X20383597Y-40552444D01*
X20435800Y-40290000D01*
X20435800Y-36747707D01*
X20537808Y-36747707D01*
X20747532Y-37255278D01*
X21135531Y-37643955D01*
X21642736Y-37854564D01*
X22191929Y-37855044D01*
X22699500Y-37645320D01*
X23088177Y-37257321D01*
X23298786Y-36750116D01*
X23299266Y-36200923D01*
X23089542Y-35693352D01*
X22701543Y-35304675D01*
X22194338Y-35094066D01*
X21645145Y-35093586D01*
X21137574Y-35303310D01*
X20748897Y-35691309D01*
X20538288Y-36198514D01*
X20537808Y-36747707D01*
X20435800Y-36747707D01*
X20435800Y-25653652D01*
X20534565Y-25554887D01*
X24324868Y-25554887D01*
X24331465Y-25570853D01*
X24617021Y-25856908D01*
X24990308Y-26011911D01*
X25394498Y-26012263D01*
X25768056Y-25857912D01*
X26054111Y-25572356D01*
X26121652Y-25409700D01*
X29073816Y-25409700D01*
X29150046Y-25528165D01*
X29277366Y-25615159D01*
X29428500Y-25645764D01*
X30571500Y-25645764D01*
X30712690Y-25619197D01*
X30842365Y-25535754D01*
X30928494Y-25409700D01*
X31349100Y-25409700D01*
X31541899Y-25371350D01*
X34047500Y-25371350D01*
X34047500Y-25631286D01*
X34105504Y-25771320D01*
X34212681Y-25878496D01*
X34352715Y-25936500D01*
X34777750Y-25936500D01*
X34873000Y-25841250D01*
X34873000Y-25276100D01*
X35127000Y-25276100D01*
X35127000Y-25841250D01*
X35222250Y-25936500D01*
X35647285Y-25936500D01*
X35787319Y-25878496D01*
X35894496Y-25771320D01*
X35952500Y-25631286D01*
X35952500Y-25371350D01*
X35857250Y-25276100D01*
X35127000Y-25276100D01*
X34873000Y-25276100D01*
X34142750Y-25276100D01*
X34047500Y-25371350D01*
X31541899Y-25371350D01*
X31562944Y-25367164D01*
X31744231Y-25246031D01*
X32323348Y-24666914D01*
X34047500Y-24666914D01*
X34047500Y-24926850D01*
X34142750Y-25022100D01*
X34873000Y-25022100D01*
X34873000Y-24456950D01*
X35127000Y-24456950D01*
X35127000Y-25022100D01*
X35857250Y-25022100D01*
X35952500Y-24926850D01*
X35952500Y-24666914D01*
X35894496Y-24526880D01*
X35787319Y-24419704D01*
X35647285Y-24361700D01*
X35222250Y-24361700D01*
X35127000Y-24456950D01*
X34873000Y-24456950D01*
X34777750Y-24361700D01*
X34352715Y-24361700D01*
X34212681Y-24419704D01*
X34105504Y-24526880D01*
X34047500Y-24666914D01*
X32323348Y-24666914D01*
X33331463Y-23658800D01*
X36231578Y-23658800D01*
X36238175Y-23674766D01*
X36523731Y-23960821D01*
X36897018Y-24115824D01*
X37301208Y-24116176D01*
X37330073Y-24104249D01*
X58575356Y-24104249D01*
X58703291Y-24312641D01*
X59266263Y-24517610D01*
X59864819Y-24491536D01*
X60296709Y-24312641D01*
X60424644Y-24104249D01*
X59500000Y-23179605D01*
X58575356Y-24104249D01*
X37330073Y-24104249D01*
X37674766Y-23961825D01*
X37913628Y-23723379D01*
X42686226Y-23723379D01*
X42749590Y-23877294D01*
X43121885Y-23994359D01*
X43510639Y-23960042D01*
X43710410Y-23877294D01*
X43773774Y-23723379D01*
X43230000Y-23179605D01*
X42686226Y-23723379D01*
X37913628Y-23723379D01*
X37960821Y-23676269D01*
X38115824Y-23302982D01*
X38116176Y-22898792D01*
X38113323Y-22891885D01*
X42235641Y-22891885D01*
X42269958Y-23280639D01*
X42352706Y-23480410D01*
X42506621Y-23543774D01*
X43050395Y-23000000D01*
X43409605Y-23000000D01*
X43953379Y-23543774D01*
X44107294Y-23480410D01*
X44224359Y-23108115D01*
X44190042Y-22719361D01*
X44107294Y-22519590D01*
X43953379Y-22456226D01*
X43409605Y-23000000D01*
X43050395Y-23000000D01*
X42506621Y-22456226D01*
X42352706Y-22519590D01*
X42235641Y-22891885D01*
X38113323Y-22891885D01*
X37961825Y-22525234D01*
X37713646Y-22276621D01*
X42686226Y-22276621D01*
X43230000Y-22820395D01*
X43650395Y-22400000D01*
X44781536Y-22400000D01*
X44781536Y-23600000D01*
X44808103Y-23741190D01*
X44891546Y-23870865D01*
X45018866Y-23957859D01*
X45170000Y-23988464D01*
X46370000Y-23988464D01*
X46511190Y-23961897D01*
X46640865Y-23878454D01*
X46727859Y-23751134D01*
X46758464Y-23600000D01*
X46758464Y-22766263D01*
X57982390Y-22766263D01*
X58008464Y-23364819D01*
X58187359Y-23796709D01*
X58395751Y-23924644D01*
X59320395Y-23000000D01*
X59679605Y-23000000D01*
X60604249Y-23924644D01*
X60812641Y-23796709D01*
X60994122Y-23298248D01*
X62993739Y-23298248D01*
X63222531Y-23851966D01*
X63645806Y-24275980D01*
X64199124Y-24505738D01*
X64798248Y-24506261D01*
X65351966Y-24277469D01*
X65775980Y-23854194D01*
X66005738Y-23300876D01*
X66006261Y-22701752D01*
X65777469Y-22148034D01*
X65354194Y-21724020D01*
X64800876Y-21494262D01*
X64201752Y-21493739D01*
X63648034Y-21722531D01*
X63224020Y-22145806D01*
X62994262Y-22699124D01*
X62993739Y-23298248D01*
X60994122Y-23298248D01*
X61017610Y-23233737D01*
X60991536Y-22635181D01*
X60812641Y-22203291D01*
X60604249Y-22075356D01*
X59679605Y-23000000D01*
X59320395Y-23000000D01*
X58395751Y-22075356D01*
X58187359Y-22203291D01*
X57982390Y-22766263D01*
X46758464Y-22766263D01*
X46758464Y-22400000D01*
X46731897Y-22258810D01*
X46648454Y-22129135D01*
X46521134Y-22042141D01*
X46370000Y-22011536D01*
X45170000Y-22011536D01*
X45028810Y-22038103D01*
X44899135Y-22121546D01*
X44812141Y-22248866D01*
X44781536Y-22400000D01*
X43650395Y-22400000D01*
X43773774Y-22276621D01*
X43710410Y-22122706D01*
X43338115Y-22005641D01*
X42949361Y-22039958D01*
X42749590Y-22122706D01*
X42686226Y-22276621D01*
X37713646Y-22276621D01*
X37676269Y-22239179D01*
X37302982Y-22084176D01*
X36898792Y-22083824D01*
X36525234Y-22238175D01*
X36239179Y-22523731D01*
X36231925Y-22541200D01*
X33262858Y-22541200D01*
X33388846Y-22237789D01*
X33389143Y-21895751D01*
X58575356Y-21895751D01*
X59500000Y-22820395D01*
X60424644Y-21895751D01*
X60296709Y-21687359D01*
X59733737Y-21482390D01*
X59135181Y-21508464D01*
X58703291Y-21687359D01*
X58575356Y-21895751D01*
X33389143Y-21895751D01*
X33389154Y-21884123D01*
X33254097Y-21557260D01*
X33004236Y-21306962D01*
X32677609Y-21171334D01*
X32329271Y-21171031D01*
X29881619Y-18723379D01*
X42686226Y-18723379D01*
X42749590Y-18877294D01*
X43121885Y-18994359D01*
X43510639Y-18960042D01*
X43710410Y-18877294D01*
X43773774Y-18723379D01*
X43230000Y-18179605D01*
X42686226Y-18723379D01*
X29881619Y-18723379D01*
X29050125Y-17891885D01*
X42235641Y-17891885D01*
X42269958Y-18280639D01*
X42352706Y-18480410D01*
X42506621Y-18543774D01*
X43050395Y-18000000D01*
X43409605Y-18000000D01*
X43953379Y-18543774D01*
X44107294Y-18480410D01*
X44224359Y-18108115D01*
X44190042Y-17719361D01*
X44107294Y-17519590D01*
X43953379Y-17456226D01*
X43409605Y-18000000D01*
X43050395Y-18000000D01*
X42506621Y-17456226D01*
X42352706Y-17519590D01*
X42235641Y-17891885D01*
X29050125Y-17891885D01*
X28434861Y-17276621D01*
X42686226Y-17276621D01*
X43230000Y-17820395D01*
X43650395Y-17400000D01*
X44781536Y-17400000D01*
X44781536Y-18600000D01*
X44808103Y-18741190D01*
X44891546Y-18870865D01*
X45018866Y-18957859D01*
X45170000Y-18988464D01*
X46370000Y-18988464D01*
X46511190Y-18961897D01*
X46640865Y-18878454D01*
X46727859Y-18751134D01*
X46758464Y-18600000D01*
X46758464Y-17400000D01*
X46731897Y-17258810D01*
X46648454Y-17129135D01*
X46521134Y-17042141D01*
X46370000Y-17011536D01*
X45170000Y-17011536D01*
X45028810Y-17038103D01*
X44899135Y-17121546D01*
X44812141Y-17248866D01*
X44781536Y-17400000D01*
X43650395Y-17400000D01*
X43773774Y-17276621D01*
X43710410Y-17122706D01*
X43338115Y-17005641D01*
X42949361Y-17039958D01*
X42749590Y-17122706D01*
X42686226Y-17276621D01*
X28434861Y-17276621D01*
X27299030Y-16140790D01*
X27134223Y-16030669D01*
X26939820Y-15992000D01*
X24054843Y-15992000D01*
X23883501Y-15577320D01*
X23683529Y-15376999D01*
X39485803Y-15376999D01*
X40457348Y-16348544D01*
X40679838Y-16497207D01*
X40942282Y-16549411D01*
X40942287Y-16549410D01*
X59067018Y-16549410D01*
X58648034Y-16722531D01*
X58224020Y-17145806D01*
X57994262Y-17699124D01*
X57993739Y-18298248D01*
X58222531Y-18851966D01*
X58645806Y-19275980D01*
X59199124Y-19505738D01*
X59798248Y-19506261D01*
X60351966Y-19277469D01*
X60775980Y-18854194D01*
X61005738Y-18300876D01*
X61006261Y-17701752D01*
X60777469Y-17148034D01*
X60354194Y-16724020D01*
X59933687Y-16549410D01*
X64067018Y-16549410D01*
X63648034Y-16722531D01*
X63224020Y-17145806D01*
X62994262Y-17699124D01*
X62993739Y-18298248D01*
X63222531Y-18851966D01*
X63645806Y-19275980D01*
X64199124Y-19505738D01*
X64798248Y-19506261D01*
X65351966Y-19277469D01*
X65775980Y-18854194D01*
X66005738Y-18300876D01*
X66006261Y-17701752D01*
X65777469Y-17148034D01*
X65354194Y-16724020D01*
X64933687Y-16549410D01*
X65329542Y-16549410D01*
X67314200Y-18534068D01*
X67314200Y-30250000D01*
X67366403Y-30512445D01*
X67515066Y-30734934D01*
X68814200Y-32034068D01*
X68814200Y-36395779D01*
X61159210Y-28740790D01*
X60994403Y-28630669D01*
X60800000Y-28592000D01*
X46758464Y-28592000D01*
X46758464Y-27400000D01*
X46731897Y-27258810D01*
X46648454Y-27129135D01*
X46521134Y-27042141D01*
X46370000Y-27011536D01*
X45170000Y-27011536D01*
X45028810Y-27038103D01*
X44899135Y-27121546D01*
X44812141Y-27248866D01*
X44781536Y-27400000D01*
X44781536Y-28592000D01*
X44001608Y-28592000D01*
X43953381Y-28543773D01*
X44107294Y-28480410D01*
X44224359Y-28108115D01*
X44190042Y-27719361D01*
X44107294Y-27519590D01*
X43953379Y-27456226D01*
X43409605Y-28000000D01*
X43423748Y-28014143D01*
X43244143Y-28193748D01*
X43230000Y-28179605D01*
X43215858Y-28193748D01*
X43036253Y-28014143D01*
X43050395Y-28000000D01*
X42506621Y-27456226D01*
X42352706Y-27519590D01*
X42235641Y-27891885D01*
X42269958Y-28280639D01*
X42352706Y-28480410D01*
X42506619Y-28543773D01*
X42458392Y-28592000D01*
X35845059Y-28592000D01*
X35860821Y-28576265D01*
X36015824Y-28202978D01*
X36016176Y-27798788D01*
X35882950Y-27476356D01*
X35929359Y-27408434D01*
X35956051Y-27276621D01*
X42686226Y-27276621D01*
X43230000Y-27820395D01*
X43773774Y-27276621D01*
X43710410Y-27122706D01*
X43338115Y-27005641D01*
X42949361Y-27039958D01*
X42749590Y-27122706D01*
X42686226Y-27276621D01*
X35956051Y-27276621D01*
X35959964Y-27257300D01*
X35959964Y-26444500D01*
X35933397Y-26303310D01*
X35849954Y-26173635D01*
X35722634Y-26086641D01*
X35571500Y-26056036D01*
X34428500Y-26056036D01*
X34287310Y-26082603D01*
X34157635Y-26166046D01*
X34070641Y-26293366D01*
X34040036Y-26444500D01*
X34040036Y-27257300D01*
X34066603Y-27398490D01*
X34117083Y-27476939D01*
X33984176Y-27797014D01*
X33983824Y-28201204D01*
X34138175Y-28574762D01*
X34155383Y-28592000D01*
X26610419Y-28592000D01*
X25188850Y-27170432D01*
X25189152Y-26823943D01*
X25054095Y-26497080D01*
X24804234Y-26246782D01*
X24477607Y-26111154D01*
X24123941Y-26110846D01*
X23797078Y-26245903D01*
X23546780Y-26495764D01*
X23411152Y-26822391D01*
X23410844Y-27176057D01*
X23545901Y-27502920D01*
X23795762Y-27753218D01*
X24122389Y-27888846D01*
X24470727Y-27889149D01*
X24774480Y-28192902D01*
X24577609Y-28111154D01*
X24223943Y-28110846D01*
X23897080Y-28245903D01*
X23646782Y-28495764D01*
X23511154Y-28822391D01*
X23510846Y-29176057D01*
X23645903Y-29502920D01*
X23895764Y-29753218D01*
X24222391Y-29888846D01*
X24570729Y-29889149D01*
X24730201Y-30048621D01*
X24730201Y-30174516D01*
X24577609Y-30111154D01*
X24223943Y-30110846D01*
X23897080Y-30245903D01*
X23646782Y-30495764D01*
X23511154Y-30822391D01*
X23510846Y-31176057D01*
X23645903Y-31502920D01*
X23892000Y-31749447D01*
X23892000Y-38389579D01*
X16040790Y-46240790D01*
X15930669Y-46405597D01*
X15892000Y-46600000D01*
X15892000Y-49801737D01*
X14018800Y-47928538D01*
X14018800Y-44291510D01*
X14729780Y-44291510D01*
X14922718Y-44758458D01*
X15279663Y-45116026D01*
X15746273Y-45309779D01*
X16251510Y-45310220D01*
X16718458Y-45117282D01*
X17076026Y-44760337D01*
X17269779Y-44293727D01*
X17270220Y-43788490D01*
X17077282Y-43321542D01*
X16720337Y-42963974D01*
X16253727Y-42770221D01*
X15748490Y-42769780D01*
X15281542Y-42962718D01*
X14923974Y-43319663D01*
X14730221Y-43786273D01*
X14729780Y-44291510D01*
X14018800Y-44291510D01*
X14018800Y-42643251D01*
X14178458Y-42577282D01*
X14536026Y-42220337D01*
X14729779Y-41753727D01*
X14730220Y-41248490D01*
X14715940Y-41213928D01*
X16084934Y-39844934D01*
X16233597Y-39622445D01*
X16285801Y-39360000D01*
X16285800Y-39359995D01*
X16285800Y-28700000D01*
X16282975Y-28685796D01*
X16233597Y-28437555D01*
X16084934Y-28215066D01*
X14145800Y-26275932D01*
X14145800Y-19791510D01*
X14729780Y-19791510D01*
X14922718Y-20258458D01*
X15279663Y-20616026D01*
X15746273Y-20809779D01*
X16251510Y-20810220D01*
X16718458Y-20617282D01*
X17076026Y-20260337D01*
X17269779Y-19793727D01*
X17270220Y-19288490D01*
X17077282Y-18821542D01*
X16720337Y-18463974D01*
X16253727Y-18270221D01*
X15748490Y-18269780D01*
X15281542Y-18462718D01*
X14923974Y-18819663D01*
X14730221Y-19286273D01*
X14729780Y-19791510D01*
X14145800Y-19791510D01*
X14145800Y-18090776D01*
X14178458Y-18077282D01*
X14536026Y-17720337D01*
X14729779Y-17253727D01*
X14730220Y-16748490D01*
X14715940Y-16713928D01*
X16916479Y-14513389D01*
X20056743Y-14513389D01*
X18826360Y-15743772D01*
X18826360Y-15743772D01*
G37*
X18826360Y-15743772D02*
X18793727Y-15730221D01*
X18288490Y-15729780D01*
X17821542Y-15922718D01*
X17463974Y-16279663D01*
X17270221Y-16746273D01*
X17269780Y-17251510D01*
X17462718Y-17718458D01*
X17819663Y-18076026D01*
X17854200Y-18090367D01*
X17854200Y-23240000D01*
X17906403Y-23502445D01*
X18055066Y-23724934D01*
X19064200Y-24734068D01*
X19064200Y-32995895D01*
X18993782Y-32825470D01*
X18605783Y-32436793D01*
X18098578Y-32226184D01*
X17549385Y-32225704D01*
X17041814Y-32435428D01*
X16653137Y-32823427D01*
X16442528Y-33330632D01*
X16442048Y-33879825D01*
X16651772Y-34387396D01*
X17039771Y-34776073D01*
X17546976Y-34986682D01*
X18096169Y-34987162D01*
X18603740Y-34777438D01*
X18992417Y-34389439D01*
X19064200Y-34216566D01*
X19064200Y-40005932D01*
X18826360Y-40243772D01*
X18793727Y-40230221D01*
X18288490Y-40229780D01*
X17821542Y-40422718D01*
X17463974Y-40779663D01*
X17270221Y-41246273D01*
X17269780Y-41751510D01*
X17462718Y-42218458D01*
X17819663Y-42576026D01*
X18286273Y-42769779D01*
X18791510Y-42770220D01*
X19258458Y-42577282D01*
X19616026Y-42220337D01*
X19809779Y-41753727D01*
X19810220Y-41248490D01*
X19795940Y-41213928D01*
X20234934Y-40774934D01*
X20288742Y-40694404D01*
X20383597Y-40552444D01*
X20435800Y-40290000D01*
X20435800Y-36747707D01*
X20537808Y-36747707D01*
X20747532Y-37255278D01*
X21135531Y-37643955D01*
X21642736Y-37854564D01*
X22191929Y-37855044D01*
X22699500Y-37645320D01*
X23088177Y-37257321D01*
X23298786Y-36750116D01*
X23299266Y-36200923D01*
X23089542Y-35693352D01*
X22701543Y-35304675D01*
X22194338Y-35094066D01*
X21645145Y-35093586D01*
X21137574Y-35303310D01*
X20748897Y-35691309D01*
X20538288Y-36198514D01*
X20537808Y-36747707D01*
X20435800Y-36747707D01*
X20435800Y-25653652D01*
X20534565Y-25554887D01*
X24324868Y-25554887D01*
X24331465Y-25570853D01*
X24617021Y-25856908D01*
X24990308Y-26011911D01*
X25394498Y-26012263D01*
X25768056Y-25857912D01*
X26054111Y-25572356D01*
X26121652Y-25409700D01*
X29073816Y-25409700D01*
X29150046Y-25528165D01*
X29277366Y-25615159D01*
X29428500Y-25645764D01*
X30571500Y-25645764D01*
X30712690Y-25619197D01*
X30842365Y-25535754D01*
X30928494Y-25409700D01*
X31349100Y-25409700D01*
X31541899Y-25371350D01*
X34047500Y-25371350D01*
X34047500Y-25631286D01*
X34105504Y-25771320D01*
X34212681Y-25878496D01*
X34352715Y-25936500D01*
X34777750Y-25936500D01*
X34873000Y-25841250D01*
X34873000Y-25276100D01*
X35127000Y-25276100D01*
X35127000Y-25841250D01*
X35222250Y-25936500D01*
X35647285Y-25936500D01*
X35787319Y-25878496D01*
X35894496Y-25771320D01*
X35952500Y-25631286D01*
X35952500Y-25371350D01*
X35857250Y-25276100D01*
X35127000Y-25276100D01*
X34873000Y-25276100D01*
X34142750Y-25276100D01*
X34047500Y-25371350D01*
X31541899Y-25371350D01*
X31562944Y-25367164D01*
X31744231Y-25246031D01*
X32323348Y-24666914D01*
X34047500Y-24666914D01*
X34047500Y-24926850D01*
X34142750Y-25022100D01*
X34873000Y-25022100D01*
X34873000Y-24456950D01*
X35127000Y-24456950D01*
X35127000Y-25022100D01*
X35857250Y-25022100D01*
X35952500Y-24926850D01*
X35952500Y-24666914D01*
X35894496Y-24526880D01*
X35787319Y-24419704D01*
X35647285Y-24361700D01*
X35222250Y-24361700D01*
X35127000Y-24456950D01*
X34873000Y-24456950D01*
X34777750Y-24361700D01*
X34352715Y-24361700D01*
X34212681Y-24419704D01*
X34105504Y-24526880D01*
X34047500Y-24666914D01*
X32323348Y-24666914D01*
X33331463Y-23658800D01*
X36231578Y-23658800D01*
X36238175Y-23674766D01*
X36523731Y-23960821D01*
X36897018Y-24115824D01*
X37301208Y-24116176D01*
X37330073Y-24104249D01*
X58575356Y-24104249D01*
X58703291Y-24312641D01*
X59266263Y-24517610D01*
X59864819Y-24491536D01*
X60296709Y-24312641D01*
X60424644Y-24104249D01*
X59500000Y-23179605D01*
X58575356Y-24104249D01*
X37330073Y-24104249D01*
X37674766Y-23961825D01*
X37913628Y-23723379D01*
X42686226Y-23723379D01*
X42749590Y-23877294D01*
X43121885Y-23994359D01*
X43510639Y-23960042D01*
X43710410Y-23877294D01*
X43773774Y-23723379D01*
X43230000Y-23179605D01*
X42686226Y-23723379D01*
X37913628Y-23723379D01*
X37960821Y-23676269D01*
X38115824Y-23302982D01*
X38116176Y-22898792D01*
X38113323Y-22891885D01*
X42235641Y-22891885D01*
X42269958Y-23280639D01*
X42352706Y-23480410D01*
X42506621Y-23543774D01*
X43050395Y-23000000D01*
X43409605Y-23000000D01*
X43953379Y-23543774D01*
X44107294Y-23480410D01*
X44224359Y-23108115D01*
X44190042Y-22719361D01*
X44107294Y-22519590D01*
X43953379Y-22456226D01*
X43409605Y-23000000D01*
X43050395Y-23000000D01*
X42506621Y-22456226D01*
X42352706Y-22519590D01*
X42235641Y-22891885D01*
X38113323Y-22891885D01*
X37961825Y-22525234D01*
X37713646Y-22276621D01*
X42686226Y-22276621D01*
X43230000Y-22820395D01*
X43650395Y-22400000D01*
X44781536Y-22400000D01*
X44781536Y-23600000D01*
X44808103Y-23741190D01*
X44891546Y-23870865D01*
X45018866Y-23957859D01*
X45170000Y-23988464D01*
X46370000Y-23988464D01*
X46511190Y-23961897D01*
X46640865Y-23878454D01*
X46727859Y-23751134D01*
X46758464Y-23600000D01*
X46758464Y-22766263D01*
X57982390Y-22766263D01*
X58008464Y-23364819D01*
X58187359Y-23796709D01*
X58395751Y-23924644D01*
X59320395Y-23000000D01*
X59679605Y-23000000D01*
X60604249Y-23924644D01*
X60812641Y-23796709D01*
X60994122Y-23298248D01*
X62993739Y-23298248D01*
X63222531Y-23851966D01*
X63645806Y-24275980D01*
X64199124Y-24505738D01*
X64798248Y-24506261D01*
X65351966Y-24277469D01*
X65775980Y-23854194D01*
X66005738Y-23300876D01*
X66006261Y-22701752D01*
X65777469Y-22148034D01*
X65354194Y-21724020D01*
X64800876Y-21494262D01*
X64201752Y-21493739D01*
X63648034Y-21722531D01*
X63224020Y-22145806D01*
X62994262Y-22699124D01*
X62993739Y-23298248D01*
X60994122Y-23298248D01*
X61017610Y-23233737D01*
X60991536Y-22635181D01*
X60812641Y-22203291D01*
X60604249Y-22075356D01*
X59679605Y-23000000D01*
X59320395Y-23000000D01*
X58395751Y-22075356D01*
X58187359Y-22203291D01*
X57982390Y-22766263D01*
X46758464Y-22766263D01*
X46758464Y-22400000D01*
X46731897Y-22258810D01*
X46648454Y-22129135D01*
X46521134Y-22042141D01*
X46370000Y-22011536D01*
X45170000Y-22011536D01*
X45028810Y-22038103D01*
X44899135Y-22121546D01*
X44812141Y-22248866D01*
X44781536Y-22400000D01*
X43650395Y-22400000D01*
X43773774Y-22276621D01*
X43710410Y-22122706D01*
X43338115Y-22005641D01*
X42949361Y-22039958D01*
X42749590Y-22122706D01*
X42686226Y-22276621D01*
X37713646Y-22276621D01*
X37676269Y-22239179D01*
X37302982Y-22084176D01*
X36898792Y-22083824D01*
X36525234Y-22238175D01*
X36239179Y-22523731D01*
X36231925Y-22541200D01*
X33262858Y-22541200D01*
X33388846Y-22237789D01*
X33389143Y-21895751D01*
X58575356Y-21895751D01*
X59500000Y-22820395D01*
X60424644Y-21895751D01*
X60296709Y-21687359D01*
X59733737Y-21482390D01*
X59135181Y-21508464D01*
X58703291Y-21687359D01*
X58575356Y-21895751D01*
X33389143Y-21895751D01*
X33389154Y-21884123D01*
X33254097Y-21557260D01*
X33004236Y-21306962D01*
X32677609Y-21171334D01*
X32329271Y-21171031D01*
X29881619Y-18723379D01*
X42686226Y-18723379D01*
X42749590Y-18877294D01*
X43121885Y-18994359D01*
X43510639Y-18960042D01*
X43710410Y-18877294D01*
X43773774Y-18723379D01*
X43230000Y-18179605D01*
X42686226Y-18723379D01*
X29881619Y-18723379D01*
X29050125Y-17891885D01*
X42235641Y-17891885D01*
X42269958Y-18280639D01*
X42352706Y-18480410D01*
X42506621Y-18543774D01*
X43050395Y-18000000D01*
X43409605Y-18000000D01*
X43953379Y-18543774D01*
X44107294Y-18480410D01*
X44224359Y-18108115D01*
X44190042Y-17719361D01*
X44107294Y-17519590D01*
X43953379Y-17456226D01*
X43409605Y-18000000D01*
X43050395Y-18000000D01*
X42506621Y-17456226D01*
X42352706Y-17519590D01*
X42235641Y-17891885D01*
X29050125Y-17891885D01*
X28434861Y-17276621D01*
X42686226Y-17276621D01*
X43230000Y-17820395D01*
X43650395Y-17400000D01*
X44781536Y-17400000D01*
X44781536Y-18600000D01*
X44808103Y-18741190D01*
X44891546Y-18870865D01*
X45018866Y-18957859D01*
X45170000Y-18988464D01*
X46370000Y-18988464D01*
X46511190Y-18961897D01*
X46640865Y-18878454D01*
X46727859Y-18751134D01*
X46758464Y-18600000D01*
X46758464Y-17400000D01*
X46731897Y-17258810D01*
X46648454Y-17129135D01*
X46521134Y-17042141D01*
X46370000Y-17011536D01*
X45170000Y-17011536D01*
X45028810Y-17038103D01*
X44899135Y-17121546D01*
X44812141Y-17248866D01*
X44781536Y-17400000D01*
X43650395Y-17400000D01*
X43773774Y-17276621D01*
X43710410Y-17122706D01*
X43338115Y-17005641D01*
X42949361Y-17039958D01*
X42749590Y-17122706D01*
X42686226Y-17276621D01*
X28434861Y-17276621D01*
X27299030Y-16140790D01*
X27134223Y-16030669D01*
X26939820Y-15992000D01*
X24054843Y-15992000D01*
X23883501Y-15577320D01*
X23683529Y-15376999D01*
X39485803Y-15376999D01*
X40457348Y-16348544D01*
X40679838Y-16497207D01*
X40942282Y-16549411D01*
X40942287Y-16549410D01*
X59067018Y-16549410D01*
X58648034Y-16722531D01*
X58224020Y-17145806D01*
X57994262Y-17699124D01*
X57993739Y-18298248D01*
X58222531Y-18851966D01*
X58645806Y-19275980D01*
X59199124Y-19505738D01*
X59798248Y-19506261D01*
X60351966Y-19277469D01*
X60775980Y-18854194D01*
X61005738Y-18300876D01*
X61006261Y-17701752D01*
X60777469Y-17148034D01*
X60354194Y-16724020D01*
X59933687Y-16549410D01*
X64067018Y-16549410D01*
X63648034Y-16722531D01*
X63224020Y-17145806D01*
X62994262Y-17699124D01*
X62993739Y-18298248D01*
X63222531Y-18851966D01*
X63645806Y-19275980D01*
X64199124Y-19505738D01*
X64798248Y-19506261D01*
X65351966Y-19277469D01*
X65775980Y-18854194D01*
X66005738Y-18300876D01*
X66006261Y-17701752D01*
X65777469Y-17148034D01*
X65354194Y-16724020D01*
X64933687Y-16549410D01*
X65329542Y-16549410D01*
X67314200Y-18534068D01*
X67314200Y-30250000D01*
X67366403Y-30512445D01*
X67515066Y-30734934D01*
X68814200Y-32034068D01*
X68814200Y-36395779D01*
X61159210Y-28740790D01*
X60994403Y-28630669D01*
X60800000Y-28592000D01*
X46758464Y-28592000D01*
X46758464Y-27400000D01*
X46731897Y-27258810D01*
X46648454Y-27129135D01*
X46521134Y-27042141D01*
X46370000Y-27011536D01*
X45170000Y-27011536D01*
X45028810Y-27038103D01*
X44899135Y-27121546D01*
X44812141Y-27248866D01*
X44781536Y-27400000D01*
X44781536Y-28592000D01*
X44001608Y-28592000D01*
X43953381Y-28543773D01*
X44107294Y-28480410D01*
X44224359Y-28108115D01*
X44190042Y-27719361D01*
X44107294Y-27519590D01*
X43953379Y-27456226D01*
X43409605Y-28000000D01*
X43423748Y-28014143D01*
X43244143Y-28193748D01*
X43230000Y-28179605D01*
X43215858Y-28193748D01*
X43036253Y-28014143D01*
X43050395Y-28000000D01*
X42506621Y-27456226D01*
X42352706Y-27519590D01*
X42235641Y-27891885D01*
X42269958Y-28280639D01*
X42352706Y-28480410D01*
X42506619Y-28543773D01*
X42458392Y-28592000D01*
X35845059Y-28592000D01*
X35860821Y-28576265D01*
X36015824Y-28202978D01*
X36016176Y-27798788D01*
X35882950Y-27476356D01*
X35929359Y-27408434D01*
X35956051Y-27276621D01*
X42686226Y-27276621D01*
X43230000Y-27820395D01*
X43773774Y-27276621D01*
X43710410Y-27122706D01*
X43338115Y-27005641D01*
X42949361Y-27039958D01*
X42749590Y-27122706D01*
X42686226Y-27276621D01*
X35956051Y-27276621D01*
X35959964Y-27257300D01*
X35959964Y-26444500D01*
X35933397Y-26303310D01*
X35849954Y-26173635D01*
X35722634Y-26086641D01*
X35571500Y-26056036D01*
X34428500Y-26056036D01*
X34287310Y-26082603D01*
X34157635Y-26166046D01*
X34070641Y-26293366D01*
X34040036Y-26444500D01*
X34040036Y-27257300D01*
X34066603Y-27398490D01*
X34117083Y-27476939D01*
X33984176Y-27797014D01*
X33983824Y-28201204D01*
X34138175Y-28574762D01*
X34155383Y-28592000D01*
X26610419Y-28592000D01*
X25188850Y-27170432D01*
X25189152Y-26823943D01*
X25054095Y-26497080D01*
X24804234Y-26246782D01*
X24477607Y-26111154D01*
X24123941Y-26110846D01*
X23797078Y-26245903D01*
X23546780Y-26495764D01*
X23411152Y-26822391D01*
X23410844Y-27176057D01*
X23545901Y-27502920D01*
X23795762Y-27753218D01*
X24122389Y-27888846D01*
X24470727Y-27889149D01*
X24774480Y-28192902D01*
X24577609Y-28111154D01*
X24223943Y-28110846D01*
X23897080Y-28245903D01*
X23646782Y-28495764D01*
X23511154Y-28822391D01*
X23510846Y-29176057D01*
X23645903Y-29502920D01*
X23895764Y-29753218D01*
X24222391Y-29888846D01*
X24570729Y-29889149D01*
X24730201Y-30048621D01*
X24730201Y-30174516D01*
X24577609Y-30111154D01*
X24223943Y-30110846D01*
X23897080Y-30245903D01*
X23646782Y-30495764D01*
X23511154Y-30822391D01*
X23510846Y-31176057D01*
X23645903Y-31502920D01*
X23892000Y-31749447D01*
X23892000Y-38389579D01*
X16040790Y-46240790D01*
X15930669Y-46405597D01*
X15892000Y-46600000D01*
X15892000Y-49801737D01*
X14018800Y-47928538D01*
X14018800Y-44291510D01*
X14729780Y-44291510D01*
X14922718Y-44758458D01*
X15279663Y-45116026D01*
X15746273Y-45309779D01*
X16251510Y-45310220D01*
X16718458Y-45117282D01*
X17076026Y-44760337D01*
X17269779Y-44293727D01*
X17270220Y-43788490D01*
X17077282Y-43321542D01*
X16720337Y-42963974D01*
X16253727Y-42770221D01*
X15748490Y-42769780D01*
X15281542Y-42962718D01*
X14923974Y-43319663D01*
X14730221Y-43786273D01*
X14729780Y-44291510D01*
X14018800Y-44291510D01*
X14018800Y-42643251D01*
X14178458Y-42577282D01*
X14536026Y-42220337D01*
X14729779Y-41753727D01*
X14730220Y-41248490D01*
X14715940Y-41213928D01*
X16084934Y-39844934D01*
X16233597Y-39622445D01*
X16285801Y-39360000D01*
X16285800Y-39359995D01*
X16285800Y-28700000D01*
X16282975Y-28685796D01*
X16233597Y-28437555D01*
X16084934Y-28215066D01*
X14145800Y-26275932D01*
X14145800Y-19791510D01*
X14729780Y-19791510D01*
X14922718Y-20258458D01*
X15279663Y-20616026D01*
X15746273Y-20809779D01*
X16251510Y-20810220D01*
X16718458Y-20617282D01*
X17076026Y-20260337D01*
X17269779Y-19793727D01*
X17270220Y-19288490D01*
X17077282Y-18821542D01*
X16720337Y-18463974D01*
X16253727Y-18270221D01*
X15748490Y-18269780D01*
X15281542Y-18462718D01*
X14923974Y-18819663D01*
X14730221Y-19286273D01*
X14729780Y-19791510D01*
X14145800Y-19791510D01*
X14145800Y-18090776D01*
X14178458Y-18077282D01*
X14536026Y-17720337D01*
X14729779Y-17253727D01*
X14730220Y-16748490D01*
X14715940Y-16713928D01*
X16916479Y-14513389D01*
X20056743Y-14513389D01*
X18826360Y-15743772D01*
G36*
X12739663Y-18076026D02*
X12774200Y-18090367D01*
X12774200Y-26560000D01*
X12826403Y-26822445D01*
X12975066Y-27044934D01*
X14914200Y-28984068D01*
X14914200Y-30025886D01*
X14692745Y-29714578D01*
X14227376Y-29422955D01*
X13829533Y-29334755D01*
X13625281Y-29430216D01*
X13830034Y-30591427D01*
X14914200Y-30400259D01*
X14914200Y-30658177D01*
X13874141Y-30841568D01*
X14078894Y-32002780D01*
X14303477Y-32022626D01*
X14750990Y-31704279D01*
X14914200Y-31443830D01*
X14914200Y-39075932D01*
X13746360Y-40243772D01*
X13713727Y-40230221D01*
X13208490Y-40229780D01*
X12741542Y-40422718D01*
X12431000Y-40732719D01*
X12431000Y-31315011D01*
X12442942Y-31315011D01*
X12761289Y-31762524D01*
X13226658Y-32054147D01*
X13624501Y-32142347D01*
X13828753Y-32046886D01*
X13624000Y-30885675D01*
X12462788Y-31090428D01*
X12442942Y-31315011D01*
X12431000Y-31315011D01*
X12431000Y-30838115D01*
X13579893Y-30635534D01*
X13375140Y-29474322D01*
X13150557Y-29454476D01*
X12703044Y-29772823D01*
X12431000Y-30206948D01*
X12431000Y-17766824D01*
X12739663Y-18076026D01*
X12739663Y-18076026D01*
G37*
X12739663Y-18076026D02*
X12774200Y-18090367D01*
X12774200Y-26560000D01*
X12826403Y-26822445D01*
X12975066Y-27044934D01*
X14914200Y-28984068D01*
X14914200Y-30025886D01*
X14692745Y-29714578D01*
X14227376Y-29422955D01*
X13829533Y-29334755D01*
X13625281Y-29430216D01*
X13830034Y-30591427D01*
X14914200Y-30400259D01*
X14914200Y-30658177D01*
X13874141Y-30841568D01*
X14078894Y-32002780D01*
X14303477Y-32022626D01*
X14750990Y-31704279D01*
X14914200Y-31443830D01*
X14914200Y-39075932D01*
X13746360Y-40243772D01*
X13713727Y-40230221D01*
X13208490Y-40229780D01*
X12741542Y-40422718D01*
X12431000Y-40732719D01*
X12431000Y-31315011D01*
X12442942Y-31315011D01*
X12761289Y-31762524D01*
X13226658Y-32054147D01*
X13624501Y-32142347D01*
X13828753Y-32046886D01*
X13624000Y-30885675D01*
X12462788Y-31090428D01*
X12442942Y-31315011D01*
X12431000Y-31315011D01*
X12431000Y-30838115D01*
X13579893Y-30635534D01*
X13375140Y-29474322D01*
X13150557Y-29454476D01*
X12703044Y-29772823D01*
X12431000Y-30206948D01*
X12431000Y-17766824D01*
X12739663Y-18076026D01*
G36*
X21118112Y-15574907D02*
X20869284Y-16174151D01*
X20868718Y-16823003D01*
X21116499Y-17422680D01*
X21574907Y-17881888D01*
X22174151Y-18130716D01*
X22823003Y-18131282D01*
X23422680Y-17883501D01*
X23881888Y-17425093D01*
X24055080Y-17008000D01*
X26729400Y-17008000D01*
X31611148Y-21889748D01*
X31610846Y-22236237D01*
X31745903Y-22563100D01*
X31995764Y-22813398D01*
X32322391Y-22949026D01*
X32460591Y-22949146D01*
X31117638Y-24292100D01*
X30926184Y-24292100D01*
X30849954Y-24173635D01*
X30722634Y-24086641D01*
X30571500Y-24056036D01*
X29428500Y-24056036D01*
X29287310Y-24082603D01*
X29157635Y-24166046D01*
X29071506Y-24292100D01*
X25926119Y-24292100D01*
X25769559Y-24135266D01*
X25396272Y-23980263D01*
X24992082Y-23979911D01*
X24618524Y-24134262D01*
X24332469Y-24419818D01*
X24325215Y-24437287D01*
X20527550Y-24437287D01*
X20409862Y-24319599D01*
X20383597Y-24187556D01*
X20234934Y-23965066D01*
X19641218Y-23371350D01*
X29047500Y-23371350D01*
X29047500Y-23631286D01*
X29105504Y-23771320D01*
X29212681Y-23878496D01*
X29352715Y-23936500D01*
X29777750Y-23936500D01*
X29873000Y-23841250D01*
X29873000Y-23276100D01*
X30127000Y-23276100D01*
X30127000Y-23841250D01*
X30222250Y-23936500D01*
X30647285Y-23936500D01*
X30787319Y-23878496D01*
X30894496Y-23771320D01*
X30952500Y-23631286D01*
X30952500Y-23371350D01*
X30857250Y-23276100D01*
X30127000Y-23276100D01*
X29873000Y-23276100D01*
X29142750Y-23276100D01*
X29047500Y-23371350D01*
X19641218Y-23371350D01*
X19225800Y-22955932D01*
X19225800Y-22666914D01*
X29047500Y-22666914D01*
X29047500Y-22926850D01*
X29142750Y-23022100D01*
X29873000Y-23022100D01*
X29873000Y-22456950D01*
X30127000Y-22456950D01*
X30127000Y-23022100D01*
X30857250Y-23022100D01*
X30952500Y-22926850D01*
X30952500Y-22666914D01*
X30894496Y-22526880D01*
X30787319Y-22419704D01*
X30647285Y-22361700D01*
X30222250Y-22361700D01*
X30127000Y-22456950D01*
X29873000Y-22456950D01*
X29777750Y-22361700D01*
X29352715Y-22361700D01*
X29212681Y-22419704D01*
X29105504Y-22526880D01*
X29047500Y-22666914D01*
X19225800Y-22666914D01*
X19225800Y-18090776D01*
X19258458Y-18077282D01*
X19616026Y-17720337D01*
X19809779Y-17253727D01*
X19810220Y-16748490D01*
X19795940Y-16713928D01*
X21132869Y-15376999D01*
X21316365Y-15376999D01*
X21118112Y-15574907D01*
X21118112Y-15574907D01*
G37*
X21118112Y-15574907D02*
X20869284Y-16174151D01*
X20868718Y-16823003D01*
X21116499Y-17422680D01*
X21574907Y-17881888D01*
X22174151Y-18130716D01*
X22823003Y-18131282D01*
X23422680Y-17883501D01*
X23881888Y-17425093D01*
X24055080Y-17008000D01*
X26729400Y-17008000D01*
X31611148Y-21889748D01*
X31610846Y-22236237D01*
X31745903Y-22563100D01*
X31995764Y-22813398D01*
X32322391Y-22949026D01*
X32460591Y-22949146D01*
X31117638Y-24292100D01*
X30926184Y-24292100D01*
X30849954Y-24173635D01*
X30722634Y-24086641D01*
X30571500Y-24056036D01*
X29428500Y-24056036D01*
X29287310Y-24082603D01*
X29157635Y-24166046D01*
X29071506Y-24292100D01*
X25926119Y-24292100D01*
X25769559Y-24135266D01*
X25396272Y-23980263D01*
X24992082Y-23979911D01*
X24618524Y-24134262D01*
X24332469Y-24419818D01*
X24325215Y-24437287D01*
X20527550Y-24437287D01*
X20409862Y-24319599D01*
X20383597Y-24187556D01*
X20234934Y-23965066D01*
X19641218Y-23371350D01*
X29047500Y-23371350D01*
X29047500Y-23631286D01*
X29105504Y-23771320D01*
X29212681Y-23878496D01*
X29352715Y-23936500D01*
X29777750Y-23936500D01*
X29873000Y-23841250D01*
X29873000Y-23276100D01*
X30127000Y-23276100D01*
X30127000Y-23841250D01*
X30222250Y-23936500D01*
X30647285Y-23936500D01*
X30787319Y-23878496D01*
X30894496Y-23771320D01*
X30952500Y-23631286D01*
X30952500Y-23371350D01*
X30857250Y-23276100D01*
X30127000Y-23276100D01*
X29873000Y-23276100D01*
X29142750Y-23276100D01*
X29047500Y-23371350D01*
X19641218Y-23371350D01*
X19225800Y-22955932D01*
X19225800Y-22666914D01*
X29047500Y-22666914D01*
X29047500Y-22926850D01*
X29142750Y-23022100D01*
X29873000Y-23022100D01*
X29873000Y-22456950D01*
X30127000Y-22456950D01*
X30127000Y-23022100D01*
X30857250Y-23022100D01*
X30952500Y-22926850D01*
X30952500Y-22666914D01*
X30894496Y-22526880D01*
X30787319Y-22419704D01*
X30647285Y-22361700D01*
X30222250Y-22361700D01*
X30127000Y-22456950D01*
X29873000Y-22456950D01*
X29777750Y-22361700D01*
X29352715Y-22361700D01*
X29212681Y-22419704D01*
X29105504Y-22526880D01*
X29047500Y-22666914D01*
X19225800Y-22666914D01*
X19225800Y-18090776D01*
X19258458Y-18077282D01*
X19616026Y-17720337D01*
X19809779Y-17253727D01*
X19810220Y-16748490D01*
X19795940Y-16713928D01*
X21132869Y-15376999D01*
X21316365Y-15376999D01*
X21118112Y-15574907D01*
M02*
