M48
INCH,TZ
T1C0.020
T2C0.025
T3C0.026
T4C0.030
T5C0.035
T6C0.040
T7C0.043
T8C0.049
T9C0.051
T10C0.053
T11C0.089
%
G90
G05
T1
X009567Y-010630
X009606Y-011417
X009606Y-012205
X009887Y-019401
X010394Y-010154
X010394Y-028583
X011318Y-008860
X012244Y-032874
X012402Y-019291
X012795Y-008685
X013937Y-038386
X013976Y-030512
X014370Y-009882
X015409Y-027126
X015551Y-027756
X016457Y-019764
X017126Y-032441
X017913Y-032126
X018819Y-039094
X019291Y-031339
X019803Y-018504
X020472Y-018031
X020472Y-021142
X020536Y-023425
X021063Y-028937
X021063Y-029724
X021496Y-019843
X021732Y-028150
X022677Y-030630
X023191Y-015978
X024016Y-021654
X025827Y-015039
X026929Y-013228
T2
X006181Y-030079
X008740Y-018622
X009919Y-009841
X010050Y-017553
X010433Y-015079
X010866Y-030512
X011693Y-018701
X013287Y-022835
X013780Y-011024
X014173Y-037598
X014606Y-009094
X015562Y-029325
X015748Y-031553
X015849Y-030591
X016024Y-026496
X017638Y-016063
X017659Y-024546
X017802Y-036772
X018031Y-026028
X018071Y-012205
X018133Y-016943
X018661Y-032835
X018992Y-005748
X019370Y-030000
X019587Y-036811
X024685Y-014016
X024803Y-016437
T3
X017020Y-005118
X017020Y-007087
X017020Y-009055
X017020Y-011024
X018020Y-005118
X018020Y-007087
X018020Y-009055
X018020Y-011024
T4
X012992Y-024213
X012992Y-036024
X014961Y-024213
X014961Y-036024
X020079Y-024213
X020079Y-036024
X021654Y-031299
X022047Y-024213
X022047Y-036024
X022441Y-031299
X028150Y-007283
X028150Y-017323
X028937Y-007283
X028937Y-017323
T5
X005299Y-006693
X005299Y-016339
X006299Y-007693
X006299Y-017339
X007299Y-006693
X007299Y-016339
T6
X027937Y-010433
X027937Y-011433
X027937Y-012433
X027937Y-013433
X027937Y-014433
X028937Y-010433
X028937Y-011433
X028937Y-012433
X028937Y-013433
X028937Y-014433
T7
X023425Y-007087
X023425Y-009055
X025394Y-007087
X025394Y-009055
T8
X009331Y-036417
X009331Y-041929
X014843Y-041929
X023898Y-041929
X029409Y-036417
X029409Y-041929
T9
X005404Y-012102
X005404Y-024512
X007017Y-013231
X007017Y-023383
X008629Y-014360
X008629Y-022254
X012630Y-012018
X014243Y-013147
X015856Y-014276
X019184Y-014276
X020796Y-013147
X022409Y-012018
X026410Y-022254
X028023Y-023383
X029635Y-024512
T10
X008858Y-006496
X012598Y-015945
T11
X005630Y-036417
X005630Y-041929
X007480Y-034488
X007480Y-037717
X007480Y-040000
X007480Y-043228
X011142Y-041929
X012992Y-040000
X012992Y-043228
X020197Y-041929
X022047Y-040000
X022047Y-043228
X025709Y-036417
X025709Y-041929
X027559Y-034488
X027559Y-037717
X027559Y-040000
X027559Y-043228
T0
M30
