M48
INCH,TZ
T1C0.020
T2C0.020
T3C0.025
T4C0.026
T5C0.030
T6C0.035
T7C0.039
T8C0.040
T9C0.043
T10C0.051
T11C0.053
%
G90
G05
T2
X8780Y-8858
X9567Y-10630
X9606Y-11417
X9606Y-12205
X9887Y-19401
X10394Y-28583
X11318Y-8860
X11457Y-10236
X12244Y-32874
X12402Y-19291
X12795Y-8685
X13937Y-38386
X13976Y-30512
X14370Y-9882
X15409Y-27126
X15551Y-27756
X16457Y-19764
X17126Y-32441
X17898Y-32126
X18819Y-39094
X19291Y-31339
X19803Y-18504
X20472Y-18031
X20472Y-21142
X20536Y-23425
X21063Y-28937
X21063Y-29724
X21496Y-19843
X21732Y-28150
X22677Y-30630
X23191Y-15978
X24016Y-21654
X25827Y-15039
X26929Y-13228
T3
X6181Y-30079
X8740Y-18622
X9919Y-9841
X10118Y-17559
X10433Y-15079
X10866Y-30512
X11693Y-18701
X13287Y-22835
X13780Y-11024
X14173Y-37598
X14606Y-9094
X15562Y-29325
X15748Y-31553
X15849Y-30591
X16024Y-26496
X17638Y-16063
X17659Y-24546
X17802Y-36772
X18031Y-26028
X18071Y-12205
X18133Y-16943
X18661Y-32835
X18992Y-5748
X19370Y-30000
X19587Y-36811
X24685Y-14016
X24803Y-16437
X24803Y-18209
T4
X17020Y-5118
X17020Y-7087
X17020Y-9055
X17020Y-11024
X18020Y-5118
X18020Y-7087
X18020Y-9055
X18020Y-11024
T5
X12992Y-24213
X12992Y-36024
X14961Y-24213
X14961Y-36024
X20079Y-24213
X20079Y-36024
X21654Y-31299
X22047Y-24213
X22047Y-36024
X22441Y-31299
X27756Y-20472
X28051Y-6102
X28543Y-20472
X28839Y-6102
T6
X5299Y-6693
X5299Y-16339
X6299Y-7693
X6299Y-17339
X7299Y-6693
X7299Y-16339
T8
X28051Y-10370
X28051Y-11370
X28051Y-12370
X28051Y-13370
X28051Y-14370
X29051Y-10370
X29051Y-11370
X29051Y-12370
X29051Y-13370
X29051Y-14370
T9
X23425Y-7087
X23425Y-9055
X25394Y-7087
X25394Y-9055
T10
X5404Y-12102
X5404Y-24512
X7017Y-13231
X7017Y-23383
X8629Y-14360
X8629Y-22254
X12630Y-12018
X14243Y-13147
X15856Y-14276
X19184Y-14276
X20796Y-13147
X22409Y-12018
X26410Y-22254
X28023Y-23383
X29635Y-24512
T11
X8858Y-6496
X12598Y-15945
T1
X7087Y-34488G85X7874Y-34488
G05
X7087Y-37717G85X7874Y-37717
G05
X7087Y-40000G85X7874Y-40000
G05
X7087Y-43228G85X7874Y-43228
G05
X12598Y-40000G85X13386Y-40000
G05
X12598Y-43228G85X13386Y-43228
G05
X21654Y-40000G85X22441Y-40000
G05
X21654Y-43228G85X22441Y-43228
G05
X27165Y-34488G85X27953Y-34488
G05
X27165Y-37717G85X27953Y-37717
G05
X27165Y-40000G85X27953Y-40000
G05
X27165Y-43228G85X27953Y-43228
G05
T7
X5630Y-36122G85X5630Y-36713
G05
X5630Y-41634G85X5630Y-42224
G05
X9331Y-36319G85X9331Y-36516
G05
X9331Y-41831G85X9331Y-42028
G05
X11142Y-41634G85X11142Y-42224
G05
X14843Y-41831G85X14843Y-42028
G05
X20197Y-41634G85X20197Y-42224
G05
X23898Y-41831G85X23898Y-42028
G05
X25709Y-36122G85X25709Y-36713
G05
X25709Y-41634G85X25709Y-42224
G05
X29409Y-36319G85X29409Y-36516
G05
X29409Y-41831G85X29409Y-42028
G05
T0
M30
