G04 #@! TF.FileFunction,Copper,L1,Top,Signal*
%FSLAX46Y46*%
G04 Gerber Fmt 4.6, Leading zero omitted, Abs format (unit mm)*
G04 Created by KiCad (PCBNEW 4.0.2-stable) date 2016-10-24 7:35:11 PM*
%MOMM*%
G01*
G04 APERTURE LIST*
%ADD10C,0.100000*%
%ADD11C,1.998980*%
%ADD12C,2.250000*%
%ADD13C,2.500000*%
%ADD14R,1.200000X1.200000*%
%ADD15C,1.200000*%
%ADD16O,2.500000X4.000000*%
%ADD17O,2.000000X2.500000*%
%ADD18O,3.500000X1.500000*%
%ADD19R,1.727200X1.727200*%
%ADD20O,1.727200X1.727200*%
%ADD21C,1.524000*%
%ADD22C,1.016000*%
%ADD23C,1.270000*%
%ADD24C,0.254000*%
%ADD25C,0.355600*%
%ADD26C,0.609600*%
%ADD27C,0.406400*%
%ADD28C,0.304800*%
G04 APERTURE END LIST*
D10*
D11*
X17822777Y-33606433D03*
X21918537Y-36474315D03*
X13727017Y-30738551D03*
D12*
X59500000Y-18000000D03*
X64500000Y-18000000D03*
X64500000Y-23000000D03*
X59500000Y-23000000D03*
D13*
X24250000Y-43500000D03*
X31500000Y-16250000D03*
D14*
X45770000Y-28000000D03*
D15*
X43230000Y-28000000D03*
D14*
X45770000Y-23000000D03*
D15*
X43230000Y-23000000D03*
D14*
X45770000Y-18000000D03*
D15*
X43230000Y-18000000D03*
D14*
X45770000Y-13000000D03*
D15*
X43230000Y-13000000D03*
D11*
X36177223Y-33393567D03*
X32081463Y-30525685D03*
X40272983Y-36261449D03*
X17822777Y-59393567D03*
X13727017Y-62261449D03*
X21918537Y-56525685D03*
X71177223Y-59393567D03*
X67081463Y-56525685D03*
X75272983Y-62261449D03*
X52822777Y-33393567D03*
X48727017Y-36261449D03*
X56918537Y-30525685D03*
D16*
X14300000Y-106500000D03*
D17*
X23700000Y-106500000D03*
D18*
X19000000Y-101600000D03*
X19000000Y-109800000D03*
D16*
X14300000Y-92500000D03*
D17*
X23700000Y-92500000D03*
D18*
X19000000Y-87600000D03*
X19000000Y-95800000D03*
D16*
X65300000Y-92500000D03*
D17*
X74700000Y-92500000D03*
D18*
X70000000Y-87600000D03*
X70000000Y-95800000D03*
D16*
X51300000Y-106500000D03*
D17*
X60700000Y-106500000D03*
D18*
X56000000Y-101600000D03*
X56000000Y-109800000D03*
D16*
X28300000Y-106500000D03*
D17*
X37700000Y-106500000D03*
D18*
X33000000Y-101600000D03*
X33000000Y-109800000D03*
D16*
X65300000Y-106500000D03*
D17*
X74700000Y-106500000D03*
D18*
X70000000Y-101600000D03*
X70000000Y-109800000D03*
D19*
X71250000Y-36500000D03*
D20*
X73790000Y-36500000D03*
X71250000Y-33960000D03*
X73790000Y-33960000D03*
X71250000Y-31420000D03*
X73790000Y-31420000D03*
X71250000Y-28880000D03*
X73790000Y-28880000D03*
X71250000Y-26340000D03*
X73790000Y-26340000D03*
D21*
X51000000Y-61500000D03*
X56000000Y-61500000D03*
X38000000Y-61500000D03*
X33000000Y-61500000D03*
X38000000Y-91500000D03*
X33000000Y-91500000D03*
X51000000Y-91500000D03*
X56000000Y-91500000D03*
D22*
X39200000Y-68700000D03*
X53500000Y-73500000D03*
X54600000Y-50400000D03*
X49100000Y-89600000D03*
X27100000Y-46300000D03*
X24400000Y-53500000D03*
X50100000Y-49000000D03*
X35400000Y-73300000D03*
X38400000Y-34000000D03*
X40000000Y-26900000D03*
X23839968Y-65477508D03*
X39750000Y-89750000D03*
X21750000Y-17750000D03*
X29000000Y-27250000D03*
X14500000Y-70000000D03*
X39967298Y-24500000D03*
X24238905Y-63612974D03*
X52160171Y-59500000D03*
X35500000Y-77500000D03*
X26400000Y-72600000D03*
X65600000Y-38200000D03*
X68400000Y-33600000D03*
X31100000Y-83500000D03*
X47800000Y-99300000D03*
X53500000Y-75500000D03*
D23*
X15683980Y-76400000D03*
X36750000Y-30899100D03*
X36750000Y-21000000D03*
X19000000Y-62250000D03*
X62700000Y-35600000D03*
X46057295Y-43035141D03*
X20000000Y-29750000D03*
X20400000Y-51000000D03*
X16750000Y-42750000D03*
X23750000Y-15000000D03*
X48250006Y-14250000D03*
X70000000Y-14000000D03*
X63000000Y-46250000D03*
X49200000Y-76200000D03*
X63000000Y-41750000D03*
X40700000Y-67300000D03*
X40255941Y-77700000D03*
X45797518Y-66110692D03*
X36000000Y-95500000D03*
X47400000Y-83400000D03*
X28100000Y-55100000D03*
X24300000Y-62200000D03*
X35599998Y-18800000D03*
X40012257Y-22999959D03*
X27750000Y-32250000D03*
X27100000Y-77300000D03*
X43500000Y-40000000D03*
D22*
X39500000Y-70500000D03*
D23*
X19750000Y-46500000D03*
X34600000Y-64100000D03*
X27750000Y-24250000D03*
X71700010Y-41800000D03*
X44854355Y-62345645D03*
X45216020Y-93400000D03*
X40000000Y-80143980D03*
X39527332Y-74484231D03*
D22*
X35400000Y-97500000D03*
D23*
X49750000Y-93500000D03*
D22*
X16400000Y-57100000D03*
X29000000Y-69600000D03*
X43700000Y-31400000D03*
X52000000Y-45800000D03*
X52000000Y-53700000D03*
X43500000Y-82400000D03*
X55200000Y-71500000D03*
X45161780Y-81577596D03*
X56200000Y-78499998D03*
X61000000Y-55000000D03*
X58904941Y-40583999D03*
X23250000Y-23749992D03*
D24*
X53500000Y-68938140D02*
X53461860Y-68900000D01*
X53461860Y-68900000D02*
X40118420Y-68900000D01*
X40118420Y-68900000D02*
X39918420Y-68700000D01*
X39918420Y-68700000D02*
X39200000Y-68700000D01*
X53500000Y-68938140D02*
X53500000Y-68900000D01*
X53500000Y-68900000D02*
X54600000Y-67800000D01*
X54600000Y-67800000D02*
X54600000Y-51118420D01*
X54600000Y-51118420D02*
X54600000Y-50400000D01*
X53500000Y-73500000D02*
X53500000Y-68938140D01*
X53500000Y-75500000D02*
X52992001Y-74992001D01*
X40543333Y-74971912D02*
X32015245Y-83500000D01*
X52992001Y-74992001D02*
X51992001Y-74992001D01*
X32015245Y-83500000D02*
X31818420Y-83500000D01*
X51992001Y-74992001D02*
X51200000Y-74200000D01*
X51200000Y-74200000D02*
X41300000Y-74200000D01*
X41300000Y-74200000D02*
X40543333Y-74956667D01*
X40543333Y-74956667D02*
X40543333Y-74971912D01*
X31818420Y-83500000D02*
X31100000Y-83500000D01*
X35000000Y-99300000D02*
X47800000Y-99300000D01*
X31100000Y-95400000D02*
X35000000Y-99300000D01*
X31100000Y-83500000D02*
X31100000Y-95400000D01*
D25*
X15683980Y-75501975D02*
X15683980Y-76400000D01*
X13460000Y-56050908D02*
X15683980Y-58274888D01*
X16750000Y-42750000D02*
X13460000Y-46040000D01*
X15683980Y-58274888D02*
X15683980Y-75501975D01*
X13460000Y-46040000D02*
X13460000Y-56050908D01*
X19000000Y-62250000D02*
X20400000Y-60850000D01*
X20400000Y-51898025D02*
X20400000Y-51000000D01*
X20400000Y-60850000D02*
X20400000Y-51898025D01*
X36750000Y-30899100D02*
X40899096Y-30899100D01*
X40899096Y-30899100D02*
X43799996Y-33800000D01*
X43799996Y-33800000D02*
X46200000Y-33800000D01*
X36750000Y-21000000D02*
X36750000Y-30899100D01*
D26*
X28972411Y-13827589D02*
X40127589Y-13827589D01*
D25*
X47400000Y-83400000D02*
X57300000Y-83400000D01*
X57300000Y-83400000D02*
X59300000Y-81400000D01*
X59300000Y-81400000D02*
X59300000Y-77100000D01*
X59300000Y-77100000D02*
X58131801Y-75931801D01*
X48815759Y-43035141D02*
X46057295Y-43035141D01*
X58131801Y-75931801D02*
X58131801Y-46131801D01*
X58131801Y-46131801D02*
X55035141Y-43035141D01*
X55035141Y-43035141D02*
X48815759Y-43035141D01*
X46057295Y-43035141D02*
X46057295Y-44307295D01*
X46057295Y-44307295D02*
X46750000Y-45000000D01*
X46750000Y-45000000D02*
X46750000Y-63250000D01*
X46750000Y-63250000D02*
X45797518Y-64202482D01*
X45797518Y-64202482D02*
X45797518Y-66110692D01*
X46057295Y-33942705D02*
X46200000Y-33800000D01*
X46200000Y-33800000D02*
X48250000Y-31750000D01*
X46057295Y-43035141D02*
X46057295Y-33942705D01*
X48250000Y-31750000D02*
X54750000Y-31750000D01*
X54750000Y-31750000D02*
X56250000Y-33250000D01*
D27*
X62700000Y-35600000D02*
X62600000Y-35500000D01*
X62600000Y-35500000D02*
X58500000Y-35500000D01*
X58500000Y-35500000D02*
X56250000Y-33250000D01*
D25*
X62700000Y-35600000D02*
X62700000Y-41450000D01*
X45162519Y-66745691D02*
X45797518Y-66110692D01*
D26*
X23750000Y-15000000D02*
X27800000Y-15000000D01*
X27800000Y-15000000D02*
X28972411Y-13827589D01*
X47351981Y-14250000D02*
X48250006Y-14250000D01*
X40127589Y-13827589D02*
X41300000Y-15000000D01*
X41300000Y-15000000D02*
X46601981Y-15000000D01*
X46601981Y-15000000D02*
X47351981Y-14250000D01*
D25*
X40255941Y-77700000D02*
X40000000Y-77700000D01*
X36000000Y-81700000D02*
X36000000Y-94601975D01*
X40000000Y-77700000D02*
X36000000Y-81700000D01*
X36000000Y-94601975D02*
X36000000Y-95500000D01*
D26*
X20000000Y-28851975D02*
X20000000Y-29750000D01*
X20000000Y-17851975D02*
X20000000Y-28851975D01*
X22851975Y-15000000D02*
X20000000Y-17851975D01*
X23750000Y-15000000D02*
X22851975Y-15000000D01*
X20000000Y-30648025D02*
X20000000Y-29750000D01*
X20000000Y-34555778D02*
X20000000Y-30648025D01*
X21918537Y-36474315D02*
X20000000Y-34555778D01*
D25*
X20250000Y-42750000D02*
X16750000Y-42750000D01*
X21918537Y-36474315D02*
X21918537Y-41081463D01*
X21918537Y-41081463D02*
X20250000Y-42750000D01*
D26*
X48500006Y-14000000D02*
X48250006Y-14250000D01*
X70000000Y-14000000D02*
X48500006Y-14000000D01*
D28*
X63000000Y-42250000D02*
X63000000Y-45351975D01*
X63000000Y-45351975D02*
X63000000Y-46250000D01*
X62750000Y-42000000D02*
X63000000Y-42250000D01*
X63000000Y-41750000D02*
X63000000Y-46250000D01*
D25*
X48301975Y-76200000D02*
X49200000Y-76200000D01*
X41755941Y-76200000D02*
X48301975Y-76200000D01*
X40255941Y-77700000D02*
X41755941Y-76200000D01*
X62700000Y-41450000D02*
X63000000Y-41750000D01*
X44608210Y-67300000D02*
X45162519Y-66745691D01*
X40700000Y-67300000D02*
X44608210Y-67300000D01*
X36898025Y-95500000D02*
X36000000Y-95500000D01*
X45900000Y-95500000D02*
X36898025Y-95500000D01*
X47400000Y-94000000D02*
X45900000Y-95500000D01*
X47400000Y-83400000D02*
X47400000Y-94000000D01*
X24300000Y-62200000D02*
X27200000Y-62200000D01*
X27200000Y-62200000D02*
X28200000Y-63200000D01*
X28200000Y-63200000D02*
X29000000Y-64000000D01*
X24300000Y-62200000D02*
X24300000Y-55900000D01*
X24300000Y-55900000D02*
X25100000Y-55100000D01*
X25100000Y-55100000D02*
X28100000Y-55100000D01*
X29000000Y-64000000D02*
X26500000Y-66500000D01*
X26500000Y-66500000D02*
X24200000Y-66500000D01*
X24200000Y-66500000D02*
X19000000Y-66500000D01*
D26*
X27750000Y-24250000D02*
X33200000Y-18800000D01*
X33200000Y-18800000D02*
X35599998Y-18800000D01*
X36498023Y-18800000D02*
X35599998Y-18800000D01*
X38550000Y-18800000D02*
X36498023Y-18800000D01*
X40000000Y-20250000D02*
X38550000Y-18800000D01*
X49500000Y-20250000D02*
X40000000Y-20250000D01*
D25*
X40012257Y-22999959D02*
X40012257Y-22101934D01*
X40012257Y-22101934D02*
X40000000Y-22089677D01*
X40000000Y-22089677D02*
X40000000Y-20250000D01*
X17933199Y-65433199D02*
X19000000Y-66500000D01*
X17933199Y-61737935D02*
X17933199Y-65433199D01*
X19750000Y-46500000D02*
X19750000Y-47398025D01*
X19254068Y-60417066D02*
X17933199Y-61737935D01*
X19254068Y-47893957D02*
X19254068Y-60417066D01*
X19750000Y-47398025D02*
X19254068Y-47893957D01*
X37460199Y-65039801D02*
X37500000Y-65000000D01*
X37500000Y-70395962D02*
X37460199Y-70356161D01*
X37460199Y-70356161D02*
X37460199Y-65039801D01*
D26*
X27750000Y-24250000D02*
X27750000Y-32250000D01*
X27750000Y-32250000D02*
X27750000Y-32750000D01*
X43500000Y-40000000D02*
X43500000Y-44400000D01*
X43500000Y-44400000D02*
X44854355Y-45754355D01*
X44854355Y-45754355D02*
X44854355Y-62345645D01*
D25*
X26465001Y-76665001D02*
X27100000Y-77300000D01*
X19000000Y-69200000D02*
X26465001Y-76665001D01*
X19000000Y-66500000D02*
X19000000Y-69200000D01*
D26*
X35000000Y-40000000D02*
X42601975Y-40000000D01*
X27750000Y-32750000D02*
X35000000Y-40000000D01*
X42601975Y-40000000D02*
X43500000Y-40000000D01*
D25*
X34600000Y-64100000D02*
X34500000Y-64000000D01*
X34500000Y-64000000D02*
X29000000Y-64000000D01*
X37500000Y-65000000D02*
X36600000Y-64100000D01*
X36600000Y-64100000D02*
X35498025Y-64100000D01*
X35498025Y-64100000D02*
X34600000Y-64100000D01*
D26*
X71700010Y-41800000D02*
X69500000Y-39599990D01*
X69500000Y-39599990D02*
X69500000Y-30500000D01*
X65841199Y-26841199D02*
X56091199Y-26841199D01*
X69500000Y-30500000D02*
X65841199Y-26841199D01*
X56091199Y-26841199D02*
X49500000Y-20250000D01*
D25*
X40154355Y-62345645D02*
X44854355Y-62345645D01*
X37500000Y-65000000D02*
X40154355Y-62345645D01*
X37604038Y-70500000D02*
X37500000Y-70395962D01*
X39500000Y-70500000D02*
X37604038Y-70500000D01*
X37500000Y-72456899D02*
X37500000Y-70395962D01*
X40000000Y-88183980D02*
X44581021Y-92765001D01*
X40000000Y-80143980D02*
X40000000Y-88183980D01*
X44581021Y-92765001D02*
X45216020Y-93400000D01*
X39527332Y-74484231D02*
X37500000Y-72456899D01*
X49750000Y-94450000D02*
X49750000Y-93500000D01*
X46700000Y-97500000D02*
X49750000Y-94450000D01*
X35400000Y-97500000D02*
X46700000Y-97500000D01*
D24*
X16400000Y-57818420D02*
X16400000Y-57100000D01*
X16700000Y-74900000D02*
X16400000Y-74600000D01*
X19000000Y-100400000D02*
X16700000Y-98100000D01*
X19000000Y-101600000D02*
X19000000Y-100400000D01*
X16700000Y-98100000D02*
X16700000Y-74900000D01*
X16400000Y-74600000D02*
X16400000Y-57818420D01*
X16400000Y-57150000D02*
X16400000Y-57100000D01*
X56000000Y-101600000D02*
X56000000Y-99600000D01*
X56000000Y-99600000D02*
X60700000Y-94900000D01*
X60700000Y-94900000D02*
X60700000Y-76100000D01*
X60700000Y-76100000D02*
X59500000Y-74900000D01*
X59500000Y-74900000D02*
X59500000Y-43700000D01*
X59500000Y-43700000D02*
X52061449Y-36261449D01*
X52061449Y-36261449D02*
X48727017Y-36261449D01*
X29000000Y-70318420D02*
X29000000Y-69600000D01*
X29000000Y-96596000D02*
X29000000Y-70318420D01*
X33000000Y-100596000D02*
X29000000Y-96596000D01*
X33000000Y-101600000D02*
X33000000Y-100596000D01*
X71177223Y-59393567D02*
X71177223Y-46377223D01*
X48400000Y-28600000D02*
X45600000Y-31400000D01*
X71177223Y-46377223D02*
X67600000Y-42800000D01*
X67600000Y-42800000D02*
X67600000Y-35703407D01*
X67600000Y-35703407D02*
X60496593Y-28600000D01*
X60496593Y-28600000D02*
X48400000Y-28600000D01*
X45600000Y-31400000D02*
X43700000Y-31400000D01*
X52000000Y-53700000D02*
X52000000Y-45800000D01*
X43500000Y-82400000D02*
X43500000Y-80750000D01*
X43500000Y-80750000D02*
X46450000Y-77800000D01*
X46450000Y-77800000D02*
X54300000Y-77800000D01*
X54300000Y-77800000D02*
X55200000Y-76900000D01*
X55200000Y-76900000D02*
X55200000Y-72218420D01*
X55200000Y-72218420D02*
X55200000Y-71500000D01*
X45880200Y-81577596D02*
X45161780Y-81577596D01*
X53122402Y-81577596D02*
X45880200Y-81577596D01*
X56200000Y-78499998D02*
X53122402Y-81577596D01*
X58904941Y-40583999D02*
X61000000Y-42679058D01*
X61000000Y-42679058D02*
X61000000Y-55000000D01*
X17822777Y-59393567D02*
X17822777Y-46923539D01*
X17822777Y-46923539D02*
X24000000Y-40746316D01*
X24000000Y-40746316D02*
X24000000Y-24499992D01*
X24000000Y-24499992D02*
X23250000Y-23749992D01*
G36*
X42506619Y-12456227D02*
X42352706Y-12519590D01*
X42235641Y-12891885D01*
X42269958Y-13280639D01*
X42352706Y-13480410D01*
X42506621Y-13543774D01*
X43050395Y-13000000D01*
X43036253Y-12985858D01*
X43215858Y-12806253D01*
X43230000Y-12820395D01*
X43244143Y-12806253D01*
X43423748Y-12985858D01*
X43409605Y-13000000D01*
X43953379Y-13543774D01*
X44107294Y-13480410D01*
X44224359Y-13108115D01*
X44190042Y-12719361D01*
X44107294Y-12519590D01*
X43953381Y-12456227D01*
X43978608Y-12431000D01*
X44781536Y-12431000D01*
X44781536Y-13600000D01*
X44808103Y-13741190D01*
X44891546Y-13870865D01*
X45018866Y-13957859D01*
X45170000Y-13988464D01*
X46370000Y-13988464D01*
X46511190Y-13961897D01*
X46640865Y-13878454D01*
X46727859Y-13751134D01*
X46758464Y-13600000D01*
X46758464Y-12431000D01*
X76569000Y-12431000D01*
X76569000Y-62161885D01*
X75420107Y-62364466D01*
X75624860Y-63525678D01*
X75849443Y-63545524D01*
X76296956Y-63227177D01*
X76569000Y-62793052D01*
X76569000Y-111569000D01*
X12431000Y-111569000D01*
X12431000Y-109800000D01*
X16827251Y-109800000D01*
X16913343Y-110232815D01*
X17158513Y-110599738D01*
X17525436Y-110844908D01*
X17958251Y-110931000D01*
X20041749Y-110931000D01*
X20474564Y-110844908D01*
X20841487Y-110599738D01*
X21086657Y-110232815D01*
X21172749Y-109800000D01*
X30827251Y-109800000D01*
X30913343Y-110232815D01*
X31158513Y-110599738D01*
X31525436Y-110844908D01*
X31958251Y-110931000D01*
X34041749Y-110931000D01*
X34474564Y-110844908D01*
X34841487Y-110599738D01*
X35086657Y-110232815D01*
X35172749Y-109800000D01*
X53827251Y-109800000D01*
X53913343Y-110232815D01*
X54158513Y-110599738D01*
X54525436Y-110844908D01*
X54958251Y-110931000D01*
X57041749Y-110931000D01*
X57474564Y-110844908D01*
X57841487Y-110599738D01*
X58086657Y-110232815D01*
X58172749Y-109800000D01*
X67827251Y-109800000D01*
X67913343Y-110232815D01*
X68158513Y-110599738D01*
X68525436Y-110844908D01*
X68958251Y-110931000D01*
X71041749Y-110931000D01*
X71474564Y-110844908D01*
X71841487Y-110599738D01*
X72086657Y-110232815D01*
X72172749Y-109800000D01*
X72086657Y-109367185D01*
X71841487Y-109000262D01*
X71474564Y-108755092D01*
X71041749Y-108669000D01*
X68958251Y-108669000D01*
X68525436Y-108755092D01*
X68158513Y-109000262D01*
X67913343Y-109367185D01*
X67827251Y-109800000D01*
X58172749Y-109800000D01*
X58086657Y-109367185D01*
X57841487Y-109000262D01*
X57474564Y-108755092D01*
X57041749Y-108669000D01*
X54958251Y-108669000D01*
X54525436Y-108755092D01*
X54158513Y-109000262D01*
X53913343Y-109367185D01*
X53827251Y-109800000D01*
X35172749Y-109800000D01*
X35086657Y-109367185D01*
X34841487Y-109000262D01*
X34474564Y-108755092D01*
X34041749Y-108669000D01*
X31958251Y-108669000D01*
X31525436Y-108755092D01*
X31158513Y-109000262D01*
X30913343Y-109367185D01*
X30827251Y-109800000D01*
X21172749Y-109800000D01*
X21086657Y-109367185D01*
X20841487Y-109000262D01*
X20474564Y-108755092D01*
X20041749Y-108669000D01*
X17958251Y-108669000D01*
X17525436Y-108755092D01*
X17158513Y-109000262D01*
X16913343Y-109367185D01*
X16827251Y-109800000D01*
X12431000Y-109800000D01*
X12431000Y-106627000D01*
X12669000Y-106627000D01*
X12669000Y-107377000D01*
X12841753Y-107991489D01*
X13236511Y-108493093D01*
X13793175Y-108805448D01*
X13920194Y-108836161D01*
X14173000Y-108780490D01*
X14173000Y-106627000D01*
X14427000Y-106627000D01*
X14427000Y-108780490D01*
X14679806Y-108836161D01*
X14806825Y-108805448D01*
X15363489Y-108493093D01*
X15758247Y-107991489D01*
X15931000Y-107377000D01*
X15931000Y-106845432D01*
X22311196Y-106845432D01*
X22453433Y-107369640D01*
X22785448Y-107799513D01*
X23256695Y-108069607D01*
X23359443Y-108088350D01*
X23573000Y-108029462D01*
X23573000Y-106627000D01*
X23827000Y-106627000D01*
X23827000Y-108029462D01*
X24040557Y-108088350D01*
X24143305Y-108069607D01*
X24614552Y-107799513D01*
X24946567Y-107369640D01*
X25088804Y-106845432D01*
X24991384Y-106627000D01*
X26669000Y-106627000D01*
X26669000Y-107377000D01*
X26841753Y-107991489D01*
X27236511Y-108493093D01*
X27793175Y-108805448D01*
X27920194Y-108836161D01*
X28173000Y-108780490D01*
X28173000Y-106627000D01*
X28427000Y-106627000D01*
X28427000Y-108780490D01*
X28679806Y-108836161D01*
X28806825Y-108805448D01*
X29363489Y-108493093D01*
X29758247Y-107991489D01*
X29931000Y-107377000D01*
X29931000Y-106845432D01*
X36311196Y-106845432D01*
X36453433Y-107369640D01*
X36785448Y-107799513D01*
X37256695Y-108069607D01*
X37359443Y-108088350D01*
X37573000Y-108029462D01*
X37573000Y-106627000D01*
X37827000Y-106627000D01*
X37827000Y-108029462D01*
X38040557Y-108088350D01*
X38143305Y-108069607D01*
X38614552Y-107799513D01*
X38946567Y-107369640D01*
X39088804Y-106845432D01*
X38991384Y-106627000D01*
X49669000Y-106627000D01*
X49669000Y-107377000D01*
X49841753Y-107991489D01*
X50236511Y-108493093D01*
X50793175Y-108805448D01*
X50920194Y-108836161D01*
X51173000Y-108780490D01*
X51173000Y-106627000D01*
X51427000Y-106627000D01*
X51427000Y-108780490D01*
X51679806Y-108836161D01*
X51806825Y-108805448D01*
X52363489Y-108493093D01*
X52758247Y-107991489D01*
X52931000Y-107377000D01*
X52931000Y-106845432D01*
X59311196Y-106845432D01*
X59453433Y-107369640D01*
X59785448Y-107799513D01*
X60256695Y-108069607D01*
X60359443Y-108088350D01*
X60573000Y-108029462D01*
X60573000Y-106627000D01*
X60827000Y-106627000D01*
X60827000Y-108029462D01*
X61040557Y-108088350D01*
X61143305Y-108069607D01*
X61614552Y-107799513D01*
X61946567Y-107369640D01*
X62088804Y-106845432D01*
X61991384Y-106627000D01*
X63669000Y-106627000D01*
X63669000Y-107377000D01*
X63841753Y-107991489D01*
X64236511Y-108493093D01*
X64793175Y-108805448D01*
X64920194Y-108836161D01*
X65173000Y-108780490D01*
X65173000Y-106627000D01*
X65427000Y-106627000D01*
X65427000Y-108780490D01*
X65679806Y-108836161D01*
X65806825Y-108805448D01*
X66363489Y-108493093D01*
X66758247Y-107991489D01*
X66931000Y-107377000D01*
X66931000Y-106845432D01*
X73311196Y-106845432D01*
X73453433Y-107369640D01*
X73785448Y-107799513D01*
X74256695Y-108069607D01*
X74359443Y-108088350D01*
X74573000Y-108029462D01*
X74573000Y-106627000D01*
X74827000Y-106627000D01*
X74827000Y-108029462D01*
X75040557Y-108088350D01*
X75143305Y-108069607D01*
X75614552Y-107799513D01*
X75946567Y-107369640D01*
X76088804Y-106845432D01*
X75991384Y-106627000D01*
X74827000Y-106627000D01*
X74573000Y-106627000D01*
X73408616Y-106627000D01*
X73311196Y-106845432D01*
X66931000Y-106845432D01*
X66931000Y-106627000D01*
X65427000Y-106627000D01*
X65173000Y-106627000D01*
X63669000Y-106627000D01*
X61991384Y-106627000D01*
X60827000Y-106627000D01*
X60573000Y-106627000D01*
X59408616Y-106627000D01*
X59311196Y-106845432D01*
X52931000Y-106845432D01*
X52931000Y-106627000D01*
X51427000Y-106627000D01*
X51173000Y-106627000D01*
X49669000Y-106627000D01*
X38991384Y-106627000D01*
X37827000Y-106627000D01*
X37573000Y-106627000D01*
X36408616Y-106627000D01*
X36311196Y-106845432D01*
X29931000Y-106845432D01*
X29931000Y-106627000D01*
X28427000Y-106627000D01*
X28173000Y-106627000D01*
X26669000Y-106627000D01*
X24991384Y-106627000D01*
X23827000Y-106627000D01*
X23573000Y-106627000D01*
X22408616Y-106627000D01*
X22311196Y-106845432D01*
X15931000Y-106845432D01*
X15931000Y-106627000D01*
X14427000Y-106627000D01*
X14173000Y-106627000D01*
X12669000Y-106627000D01*
X12431000Y-106627000D01*
X12431000Y-105623000D01*
X12669000Y-105623000D01*
X12669000Y-106373000D01*
X14173000Y-106373000D01*
X14173000Y-104219510D01*
X14427000Y-104219510D01*
X14427000Y-106373000D01*
X15931000Y-106373000D01*
X15931000Y-106154568D01*
X22311196Y-106154568D01*
X22408616Y-106373000D01*
X23573000Y-106373000D01*
X23573000Y-104970538D01*
X23827000Y-104970538D01*
X23827000Y-106373000D01*
X24991384Y-106373000D01*
X25088804Y-106154568D01*
X24946567Y-105630360D01*
X24940883Y-105623000D01*
X26669000Y-105623000D01*
X26669000Y-106373000D01*
X28173000Y-106373000D01*
X28173000Y-104219510D01*
X28427000Y-104219510D01*
X28427000Y-106373000D01*
X29931000Y-106373000D01*
X29931000Y-106154568D01*
X36311196Y-106154568D01*
X36408616Y-106373000D01*
X37573000Y-106373000D01*
X37573000Y-104970538D01*
X37827000Y-104970538D01*
X37827000Y-106373000D01*
X38991384Y-106373000D01*
X39088804Y-106154568D01*
X38946567Y-105630360D01*
X38940883Y-105623000D01*
X49669000Y-105623000D01*
X49669000Y-106373000D01*
X51173000Y-106373000D01*
X51173000Y-104219510D01*
X51427000Y-104219510D01*
X51427000Y-106373000D01*
X52931000Y-106373000D01*
X52931000Y-106154568D01*
X59311196Y-106154568D01*
X59408616Y-106373000D01*
X60573000Y-106373000D01*
X60573000Y-104970538D01*
X60827000Y-104970538D01*
X60827000Y-106373000D01*
X61991384Y-106373000D01*
X62088804Y-106154568D01*
X61946567Y-105630360D01*
X61940883Y-105623000D01*
X63669000Y-105623000D01*
X63669000Y-106373000D01*
X65173000Y-106373000D01*
X65173000Y-104219510D01*
X65427000Y-104219510D01*
X65427000Y-106373000D01*
X66931000Y-106373000D01*
X66931000Y-106154568D01*
X73311196Y-106154568D01*
X73408616Y-106373000D01*
X74573000Y-106373000D01*
X74573000Y-104970538D01*
X74827000Y-104970538D01*
X74827000Y-106373000D01*
X75991384Y-106373000D01*
X76088804Y-106154568D01*
X75946567Y-105630360D01*
X75614552Y-105200487D01*
X75143305Y-104930393D01*
X75040557Y-104911650D01*
X74827000Y-104970538D01*
X74573000Y-104970538D01*
X74359443Y-104911650D01*
X74256695Y-104930393D01*
X73785448Y-105200487D01*
X73453433Y-105630360D01*
X73311196Y-106154568D01*
X66931000Y-106154568D01*
X66931000Y-105623000D01*
X66758247Y-105008511D01*
X66363489Y-104506907D01*
X65806825Y-104194552D01*
X65679806Y-104163839D01*
X65427000Y-104219510D01*
X65173000Y-104219510D01*
X64920194Y-104163839D01*
X64793175Y-104194552D01*
X64236511Y-104506907D01*
X63841753Y-105008511D01*
X63669000Y-105623000D01*
X61940883Y-105623000D01*
X61614552Y-105200487D01*
X61143305Y-104930393D01*
X61040557Y-104911650D01*
X60827000Y-104970538D01*
X60573000Y-104970538D01*
X60359443Y-104911650D01*
X60256695Y-104930393D01*
X59785448Y-105200487D01*
X59453433Y-105630360D01*
X59311196Y-106154568D01*
X52931000Y-106154568D01*
X52931000Y-105623000D01*
X52758247Y-105008511D01*
X52363489Y-104506907D01*
X51806825Y-104194552D01*
X51679806Y-104163839D01*
X51427000Y-104219510D01*
X51173000Y-104219510D01*
X50920194Y-104163839D01*
X50793175Y-104194552D01*
X50236511Y-104506907D01*
X49841753Y-105008511D01*
X49669000Y-105623000D01*
X38940883Y-105623000D01*
X38614552Y-105200487D01*
X38143305Y-104930393D01*
X38040557Y-104911650D01*
X37827000Y-104970538D01*
X37573000Y-104970538D01*
X37359443Y-104911650D01*
X37256695Y-104930393D01*
X36785448Y-105200487D01*
X36453433Y-105630360D01*
X36311196Y-106154568D01*
X29931000Y-106154568D01*
X29931000Y-105623000D01*
X29758247Y-105008511D01*
X29363489Y-104506907D01*
X28806825Y-104194552D01*
X28679806Y-104163839D01*
X28427000Y-104219510D01*
X28173000Y-104219510D01*
X27920194Y-104163839D01*
X27793175Y-104194552D01*
X27236511Y-104506907D01*
X26841753Y-105008511D01*
X26669000Y-105623000D01*
X24940883Y-105623000D01*
X24614552Y-105200487D01*
X24143305Y-104930393D01*
X24040557Y-104911650D01*
X23827000Y-104970538D01*
X23573000Y-104970538D01*
X23359443Y-104911650D01*
X23256695Y-104930393D01*
X22785448Y-105200487D01*
X22453433Y-105630360D01*
X22311196Y-106154568D01*
X15931000Y-106154568D01*
X15931000Y-105623000D01*
X15758247Y-105008511D01*
X15363489Y-104506907D01*
X14806825Y-104194552D01*
X14679806Y-104163839D01*
X14427000Y-104219510D01*
X14173000Y-104219510D01*
X13920194Y-104163839D01*
X13793175Y-104194552D01*
X13236511Y-104506907D01*
X12841753Y-105008511D01*
X12669000Y-105623000D01*
X12431000Y-105623000D01*
X12431000Y-92627000D01*
X12669000Y-92627000D01*
X12669000Y-93377000D01*
X12841753Y-93991489D01*
X13236511Y-94493093D01*
X13793175Y-94805448D01*
X13920194Y-94836161D01*
X14173000Y-94780490D01*
X14173000Y-92627000D01*
X14427000Y-92627000D01*
X14427000Y-94780490D01*
X14679806Y-94836161D01*
X14806825Y-94805448D01*
X15363489Y-94493093D01*
X15758247Y-93991489D01*
X15931000Y-93377000D01*
X15931000Y-92627000D01*
X14427000Y-92627000D01*
X14173000Y-92627000D01*
X12669000Y-92627000D01*
X12431000Y-92627000D01*
X12431000Y-91623000D01*
X12669000Y-91623000D01*
X12669000Y-92373000D01*
X14173000Y-92373000D01*
X14173000Y-90219510D01*
X14427000Y-90219510D01*
X14427000Y-92373000D01*
X15931000Y-92373000D01*
X15931000Y-91623000D01*
X15758247Y-91008511D01*
X15363489Y-90506907D01*
X14806825Y-90194552D01*
X14679806Y-90163839D01*
X14427000Y-90219510D01*
X14173000Y-90219510D01*
X13920194Y-90163839D01*
X13793175Y-90194552D01*
X13236511Y-90506907D01*
X12841753Y-91008511D01*
X12669000Y-91623000D01*
X12431000Y-91623000D01*
X12431000Y-62739860D01*
X12556012Y-63042412D01*
X12944011Y-63431089D01*
X13451216Y-63641698D01*
X14000409Y-63642178D01*
X14507980Y-63432454D01*
X14896657Y-63044455D01*
X15107266Y-62537250D01*
X15107746Y-61988057D01*
X14898022Y-61480486D01*
X14510023Y-61091809D01*
X14002818Y-60881200D01*
X13453625Y-60880720D01*
X12946054Y-61090444D01*
X12557377Y-61478443D01*
X12431000Y-61782794D01*
X12431000Y-46040000D01*
X12901200Y-46040000D01*
X12901200Y-56050908D01*
X12943736Y-56264752D01*
X13044974Y-56416264D01*
X13064869Y-56446039D01*
X15125180Y-58506350D01*
X15125180Y-75531578D01*
X15109214Y-75538175D01*
X14823159Y-75823731D01*
X14668156Y-76197018D01*
X14667804Y-76601208D01*
X14822155Y-76974766D01*
X15107711Y-77260821D01*
X15480998Y-77415824D01*
X15885188Y-77416176D01*
X16192000Y-77289404D01*
X16192000Y-98100000D01*
X16230669Y-98294403D01*
X16340790Y-98459210D01*
X18350580Y-100469000D01*
X17958251Y-100469000D01*
X17525436Y-100555092D01*
X17158513Y-100800262D01*
X16913343Y-101167185D01*
X16827251Y-101600000D01*
X16913343Y-102032815D01*
X17158513Y-102399738D01*
X17525436Y-102644908D01*
X17958251Y-102731000D01*
X20041749Y-102731000D01*
X20474564Y-102644908D01*
X20841487Y-102399738D01*
X21086657Y-102032815D01*
X21172749Y-101600000D01*
X21086657Y-101167185D01*
X20841487Y-100800262D01*
X20474564Y-100555092D01*
X20041749Y-100469000D01*
X19508000Y-100469000D01*
X19508000Y-100400000D01*
X19469331Y-100205597D01*
X19469331Y-100205596D01*
X19359210Y-100040790D01*
X17208000Y-97889580D01*
X17208000Y-96632804D01*
X17525436Y-96844908D01*
X17958251Y-96931000D01*
X20041749Y-96931000D01*
X20474564Y-96844908D01*
X20841487Y-96599738D01*
X21086657Y-96232815D01*
X21172749Y-95800000D01*
X21086657Y-95367185D01*
X20841487Y-95000262D01*
X20474564Y-94755092D01*
X20041749Y-94669000D01*
X17958251Y-94669000D01*
X17525436Y-94755092D01*
X17208000Y-94967196D01*
X17208000Y-92845432D01*
X22311196Y-92845432D01*
X22453433Y-93369640D01*
X22785448Y-93799513D01*
X23256695Y-94069607D01*
X23359443Y-94088350D01*
X23573000Y-94029462D01*
X23573000Y-92627000D01*
X23827000Y-92627000D01*
X23827000Y-94029462D01*
X24040557Y-94088350D01*
X24143305Y-94069607D01*
X24614552Y-93799513D01*
X24946567Y-93369640D01*
X25088804Y-92845432D01*
X24991384Y-92627000D01*
X23827000Y-92627000D01*
X23573000Y-92627000D01*
X22408616Y-92627000D01*
X22311196Y-92845432D01*
X17208000Y-92845432D01*
X17208000Y-92154568D01*
X22311196Y-92154568D01*
X22408616Y-92373000D01*
X23573000Y-92373000D01*
X23573000Y-90970538D01*
X23827000Y-90970538D01*
X23827000Y-92373000D01*
X24991384Y-92373000D01*
X25088804Y-92154568D01*
X24946567Y-91630360D01*
X24614552Y-91200487D01*
X24143305Y-90930393D01*
X24040557Y-90911650D01*
X23827000Y-90970538D01*
X23573000Y-90970538D01*
X23359443Y-90911650D01*
X23256695Y-90930393D01*
X22785448Y-91200487D01*
X22453433Y-91630360D01*
X22311196Y-92154568D01*
X17208000Y-92154568D01*
X17208000Y-88432804D01*
X17525436Y-88644908D01*
X17958251Y-88731000D01*
X20041749Y-88731000D01*
X20474564Y-88644908D01*
X20841487Y-88399738D01*
X21086657Y-88032815D01*
X21172749Y-87600000D01*
X21086657Y-87167185D01*
X20841487Y-86800262D01*
X20474564Y-86555092D01*
X20041749Y-86469000D01*
X17958251Y-86469000D01*
X17525436Y-86555092D01*
X17208000Y-86767196D01*
X17208000Y-74900000D01*
X17169331Y-74705597D01*
X17169331Y-74705596D01*
X17059210Y-74540790D01*
X16908000Y-74389580D01*
X16908000Y-60431206D01*
X17039771Y-60563207D01*
X17546976Y-60773816D01*
X18096169Y-60774296D01*
X18113904Y-60766968D01*
X17538068Y-61342804D01*
X17416935Y-61524091D01*
X17374399Y-61737935D01*
X17374399Y-65433199D01*
X17416935Y-65647043D01*
X17462718Y-65715561D01*
X17538068Y-65828330D01*
X18441200Y-66731463D01*
X18441200Y-69200000D01*
X18483736Y-69413844D01*
X18600669Y-69588846D01*
X18604869Y-69595131D01*
X26069870Y-77060133D01*
X26069873Y-77060135D01*
X26090801Y-77081063D01*
X26084176Y-77097018D01*
X26083824Y-77501208D01*
X26238175Y-77874766D01*
X26523731Y-78160821D01*
X26897018Y-78315824D01*
X27301208Y-78316176D01*
X27674766Y-78161825D01*
X27960821Y-77876269D01*
X28115824Y-77502982D01*
X28116176Y-77098792D01*
X27961825Y-76725234D01*
X27676269Y-76439179D01*
X27302982Y-76284176D01*
X26898792Y-76283824D01*
X26881310Y-76291048D01*
X26860135Y-76269873D01*
X26860133Y-76269870D01*
X20366320Y-69776057D01*
X28110846Y-69776057D01*
X28245903Y-70102920D01*
X28492000Y-70349447D01*
X28492000Y-96596000D01*
X28530669Y-96790403D01*
X28640790Y-96955210D01*
X32154580Y-100469000D01*
X31958251Y-100469000D01*
X31525436Y-100555092D01*
X31158513Y-100800262D01*
X30913343Y-101167185D01*
X30827251Y-101600000D01*
X30913343Y-102032815D01*
X31158513Y-102399738D01*
X31525436Y-102644908D01*
X31958251Y-102731000D01*
X34041749Y-102731000D01*
X34474564Y-102644908D01*
X34841487Y-102399738D01*
X35086657Y-102032815D01*
X35172749Y-101600000D01*
X35086657Y-101167185D01*
X34841487Y-100800262D01*
X34474564Y-100555092D01*
X34041749Y-100469000D01*
X33482738Y-100469000D01*
X33469331Y-100401597D01*
X33469331Y-100401596D01*
X33359210Y-100236790D01*
X29508000Y-96385580D01*
X29508000Y-70349026D01*
X29753218Y-70104236D01*
X29888846Y-69777609D01*
X29889154Y-69423943D01*
X29754097Y-69097080D01*
X29504236Y-68846782D01*
X29177609Y-68711154D01*
X28823943Y-68710846D01*
X28497080Y-68845903D01*
X28246782Y-69095764D01*
X28111154Y-69422391D01*
X28110846Y-69776057D01*
X20366320Y-69776057D01*
X19558800Y-68968538D01*
X19558800Y-67058800D01*
X26500000Y-67058800D01*
X26713844Y-67016264D01*
X26895131Y-66895131D01*
X29231462Y-64558800D01*
X33690259Y-64558800D01*
X33738175Y-64674766D01*
X34023731Y-64960821D01*
X34397018Y-65115824D01*
X34801208Y-65116176D01*
X35174766Y-64961825D01*
X35460821Y-64676269D01*
X35468075Y-64658800D01*
X36368538Y-64658800D01*
X36901399Y-65191661D01*
X36901399Y-70356161D01*
X36941200Y-70556255D01*
X36941200Y-72456899D01*
X36983736Y-72670743D01*
X37033957Y-72745903D01*
X37104869Y-72852030D01*
X38518133Y-74265295D01*
X38511508Y-74281249D01*
X38511156Y-74685439D01*
X38665507Y-75058997D01*
X38951063Y-75345052D01*
X39304862Y-75491963D01*
X31826945Y-82969880D01*
X31604236Y-82746782D01*
X31277609Y-82611154D01*
X30923943Y-82610846D01*
X30597080Y-82745903D01*
X30346782Y-82995764D01*
X30211154Y-83322391D01*
X30210846Y-83676057D01*
X30345903Y-84002920D01*
X30592000Y-84249447D01*
X30592000Y-95400000D01*
X30630669Y-95594403D01*
X30740790Y-95759210D01*
X34640790Y-99659210D01*
X34805597Y-99769331D01*
X35000000Y-99808000D01*
X47050974Y-99808000D01*
X47295764Y-100053218D01*
X47622391Y-100188846D01*
X47976057Y-100189154D01*
X48302920Y-100054097D01*
X48553218Y-99804236D01*
X48688846Y-99477609D01*
X48689154Y-99123943D01*
X48554097Y-98797080D01*
X48304236Y-98546782D01*
X47977609Y-98411154D01*
X47623943Y-98410846D01*
X47297080Y-98545903D01*
X47050553Y-98792000D01*
X35210420Y-98792000D01*
X34094477Y-97676057D01*
X34510846Y-97676057D01*
X34645903Y-98002920D01*
X34895764Y-98253218D01*
X35222391Y-98388846D01*
X35576057Y-98389154D01*
X35902920Y-98254097D01*
X36098559Y-98058800D01*
X46700000Y-98058800D01*
X46913844Y-98016264D01*
X47095131Y-97895131D01*
X50145131Y-94845132D01*
X50238366Y-94705596D01*
X50266264Y-94663844D01*
X50308800Y-94450000D01*
X50308800Y-94368422D01*
X50324766Y-94361825D01*
X50610821Y-94076269D01*
X50765824Y-93702982D01*
X50766176Y-93298792D01*
X50611825Y-92925234D01*
X50326269Y-92639179D01*
X49952982Y-92484176D01*
X49548792Y-92483824D01*
X49175234Y-92638175D01*
X48889179Y-92923731D01*
X48734176Y-93297018D01*
X48733824Y-93701208D01*
X48888175Y-94074766D01*
X49111378Y-94298359D01*
X46468538Y-96941200D01*
X36098315Y-96941200D01*
X35904236Y-96746782D01*
X35577609Y-96611154D01*
X35223943Y-96610846D01*
X34897080Y-96745903D01*
X34646782Y-96995764D01*
X34511154Y-97322391D01*
X34510846Y-97676057D01*
X34094477Y-97676057D01*
X32119628Y-95701208D01*
X34983824Y-95701208D01*
X35138175Y-96074766D01*
X35423731Y-96360821D01*
X35797018Y-96515824D01*
X36201208Y-96516176D01*
X36574766Y-96361825D01*
X36860821Y-96076269D01*
X36868075Y-96058800D01*
X45900000Y-96058800D01*
X46113844Y-96016264D01*
X46295131Y-95895131D01*
X47795131Y-94395132D01*
X47884204Y-94261825D01*
X47916264Y-94213844D01*
X47958800Y-94000000D01*
X47958800Y-91726359D01*
X49856802Y-91726359D01*
X50030446Y-92146612D01*
X50351697Y-92468423D01*
X50771646Y-92642801D01*
X51226359Y-92643198D01*
X51646612Y-92469554D01*
X51775229Y-92341160D01*
X55338445Y-92341160D01*
X55421824Y-92511856D01*
X55853055Y-92656091D01*
X56306657Y-92624322D01*
X56578176Y-92511856D01*
X56661555Y-92341160D01*
X56000000Y-91679605D01*
X55338445Y-92341160D01*
X51775229Y-92341160D01*
X51968423Y-92148303D01*
X52142801Y-91728354D01*
X52143128Y-91353055D01*
X54843909Y-91353055D01*
X54875678Y-91806657D01*
X54988144Y-92078176D01*
X55158840Y-92161555D01*
X55820395Y-91500000D01*
X56179605Y-91500000D01*
X56841160Y-92161555D01*
X57011856Y-92078176D01*
X57156091Y-91646945D01*
X57124322Y-91193343D01*
X57011856Y-90921824D01*
X56841160Y-90838445D01*
X56179605Y-91500000D01*
X55820395Y-91500000D01*
X55158840Y-90838445D01*
X54988144Y-90921824D01*
X54843909Y-91353055D01*
X52143128Y-91353055D01*
X52143198Y-91273641D01*
X51969554Y-90853388D01*
X51775345Y-90658840D01*
X55338445Y-90658840D01*
X56000000Y-91320395D01*
X56661555Y-90658840D01*
X56578176Y-90488144D01*
X56146945Y-90343909D01*
X55693343Y-90375678D01*
X55421824Y-90488144D01*
X55338445Y-90658840D01*
X51775345Y-90658840D01*
X51648303Y-90531577D01*
X51228354Y-90357199D01*
X50773641Y-90356802D01*
X50353388Y-90530446D01*
X50031577Y-90851697D01*
X49857199Y-91271646D01*
X49856802Y-91726359D01*
X47958800Y-91726359D01*
X47958800Y-84268422D01*
X47974766Y-84261825D01*
X48260821Y-83976269D01*
X48268075Y-83958800D01*
X57300000Y-83958800D01*
X57513844Y-83916264D01*
X57695131Y-83795131D01*
X59695131Y-81795131D01*
X59794255Y-81646782D01*
X59816264Y-81613844D01*
X59858800Y-81400000D01*
X59858800Y-77100000D01*
X59816264Y-76886156D01*
X59695131Y-76704869D01*
X58690601Y-75700339D01*
X58690601Y-46131801D01*
X58672341Y-46040000D01*
X58648066Y-45917958D01*
X58526933Y-45736670D01*
X55430272Y-42640010D01*
X55386588Y-42610821D01*
X55248985Y-42518877D01*
X55035141Y-42476341D01*
X46925717Y-42476341D01*
X46919120Y-42460375D01*
X46633564Y-42174320D01*
X46616095Y-42167066D01*
X46616095Y-36534841D01*
X47346288Y-36534841D01*
X47556012Y-37042412D01*
X47944011Y-37431089D01*
X48451216Y-37641698D01*
X49000409Y-37642178D01*
X49507980Y-37432454D01*
X49896657Y-37044455D01*
X50010849Y-36769449D01*
X51851029Y-36769449D01*
X58992000Y-43910420D01*
X58992000Y-74900000D01*
X59030669Y-75094403D01*
X59140790Y-75259210D01*
X60192000Y-76310420D01*
X60192000Y-94689580D01*
X55640790Y-99240790D01*
X55530669Y-99405597D01*
X55492000Y-99600000D01*
X55492000Y-100469000D01*
X54958251Y-100469000D01*
X54525436Y-100555092D01*
X54158513Y-100800262D01*
X53913343Y-101167185D01*
X53827251Y-101600000D01*
X53913343Y-102032815D01*
X54158513Y-102399738D01*
X54525436Y-102644908D01*
X54958251Y-102731000D01*
X57041749Y-102731000D01*
X57474564Y-102644908D01*
X57841487Y-102399738D01*
X58086657Y-102032815D01*
X58172749Y-101600000D01*
X67827251Y-101600000D01*
X67913343Y-102032815D01*
X68158513Y-102399738D01*
X68525436Y-102644908D01*
X68958251Y-102731000D01*
X71041749Y-102731000D01*
X71474564Y-102644908D01*
X71841487Y-102399738D01*
X72086657Y-102032815D01*
X72172749Y-101600000D01*
X72086657Y-101167185D01*
X71841487Y-100800262D01*
X71474564Y-100555092D01*
X71041749Y-100469000D01*
X68958251Y-100469000D01*
X68525436Y-100555092D01*
X68158513Y-100800262D01*
X67913343Y-101167185D01*
X67827251Y-101600000D01*
X58172749Y-101600000D01*
X58086657Y-101167185D01*
X57841487Y-100800262D01*
X57474564Y-100555092D01*
X57041749Y-100469000D01*
X56508000Y-100469000D01*
X56508000Y-99810420D01*
X60518420Y-95800000D01*
X67827251Y-95800000D01*
X67913343Y-96232815D01*
X68158513Y-96599738D01*
X68525436Y-96844908D01*
X68958251Y-96931000D01*
X71041749Y-96931000D01*
X71474564Y-96844908D01*
X71841487Y-96599738D01*
X72086657Y-96232815D01*
X72172749Y-95800000D01*
X72086657Y-95367185D01*
X71841487Y-95000262D01*
X71474564Y-94755092D01*
X71041749Y-94669000D01*
X68958251Y-94669000D01*
X68525436Y-94755092D01*
X68158513Y-95000262D01*
X67913343Y-95367185D01*
X67827251Y-95800000D01*
X60518420Y-95800000D01*
X61059210Y-95259210D01*
X61169331Y-95094403D01*
X61208000Y-94900000D01*
X61208000Y-92627000D01*
X63669000Y-92627000D01*
X63669000Y-93377000D01*
X63841753Y-93991489D01*
X64236511Y-94493093D01*
X64793175Y-94805448D01*
X64920194Y-94836161D01*
X65173000Y-94780490D01*
X65173000Y-92627000D01*
X65427000Y-92627000D01*
X65427000Y-94780490D01*
X65679806Y-94836161D01*
X65806825Y-94805448D01*
X66363489Y-94493093D01*
X66758247Y-93991489D01*
X66931000Y-93377000D01*
X66931000Y-92845432D01*
X73311196Y-92845432D01*
X73453433Y-93369640D01*
X73785448Y-93799513D01*
X74256695Y-94069607D01*
X74359443Y-94088350D01*
X74573000Y-94029462D01*
X74573000Y-92627000D01*
X74827000Y-92627000D01*
X74827000Y-94029462D01*
X75040557Y-94088350D01*
X75143305Y-94069607D01*
X75614552Y-93799513D01*
X75946567Y-93369640D01*
X76088804Y-92845432D01*
X75991384Y-92627000D01*
X74827000Y-92627000D01*
X74573000Y-92627000D01*
X73408616Y-92627000D01*
X73311196Y-92845432D01*
X66931000Y-92845432D01*
X66931000Y-92627000D01*
X65427000Y-92627000D01*
X65173000Y-92627000D01*
X63669000Y-92627000D01*
X61208000Y-92627000D01*
X61208000Y-91623000D01*
X63669000Y-91623000D01*
X63669000Y-92373000D01*
X65173000Y-92373000D01*
X65173000Y-90219510D01*
X65427000Y-90219510D01*
X65427000Y-92373000D01*
X66931000Y-92373000D01*
X66931000Y-92154568D01*
X73311196Y-92154568D01*
X73408616Y-92373000D01*
X74573000Y-92373000D01*
X74573000Y-90970538D01*
X74827000Y-90970538D01*
X74827000Y-92373000D01*
X75991384Y-92373000D01*
X76088804Y-92154568D01*
X75946567Y-91630360D01*
X75614552Y-91200487D01*
X75143305Y-90930393D01*
X75040557Y-90911650D01*
X74827000Y-90970538D01*
X74573000Y-90970538D01*
X74359443Y-90911650D01*
X74256695Y-90930393D01*
X73785448Y-91200487D01*
X73453433Y-91630360D01*
X73311196Y-92154568D01*
X66931000Y-92154568D01*
X66931000Y-91623000D01*
X66758247Y-91008511D01*
X66363489Y-90506907D01*
X65806825Y-90194552D01*
X65679806Y-90163839D01*
X65427000Y-90219510D01*
X65173000Y-90219510D01*
X64920194Y-90163839D01*
X64793175Y-90194552D01*
X64236511Y-90506907D01*
X63841753Y-91008511D01*
X63669000Y-91623000D01*
X61208000Y-91623000D01*
X61208000Y-87600000D01*
X67827251Y-87600000D01*
X67913343Y-88032815D01*
X68158513Y-88399738D01*
X68525436Y-88644908D01*
X68958251Y-88731000D01*
X71041749Y-88731000D01*
X71474564Y-88644908D01*
X71841487Y-88399738D01*
X72086657Y-88032815D01*
X72172749Y-87600000D01*
X72086657Y-87167185D01*
X71841487Y-86800262D01*
X71474564Y-86555092D01*
X71041749Y-86469000D01*
X68958251Y-86469000D01*
X68525436Y-86555092D01*
X68158513Y-86800262D01*
X67913343Y-87167185D01*
X67827251Y-87600000D01*
X61208000Y-87600000D01*
X61208000Y-76100000D01*
X61169331Y-75905597D01*
X61169331Y-75905596D01*
X61059210Y-75740790D01*
X60008000Y-74689580D01*
X60008000Y-62837909D01*
X73988908Y-62837909D01*
X74307255Y-63285422D01*
X74772624Y-63577045D01*
X75170467Y-63665245D01*
X75374719Y-63569784D01*
X75169966Y-62408573D01*
X74008754Y-62613326D01*
X73988908Y-62837909D01*
X60008000Y-62837909D01*
X60008000Y-62158933D01*
X73869187Y-62158933D01*
X73964648Y-62363185D01*
X75125859Y-62158432D01*
X74921106Y-60997220D01*
X74696523Y-60977374D01*
X74249010Y-61295721D01*
X73957387Y-61761090D01*
X73869187Y-62158933D01*
X60008000Y-62158933D01*
X60008000Y-60953114D01*
X75171247Y-60953114D01*
X75376000Y-62114325D01*
X76537212Y-61909572D01*
X76557058Y-61684989D01*
X76238711Y-61237476D01*
X75773342Y-60945853D01*
X75375499Y-60857653D01*
X75171247Y-60953114D01*
X60008000Y-60953114D01*
X60008000Y-56799077D01*
X65700734Y-56799077D01*
X65910458Y-57306648D01*
X66298457Y-57695325D01*
X66805662Y-57905934D01*
X67354855Y-57906414D01*
X67862426Y-57696690D01*
X68251103Y-57308691D01*
X68461712Y-56801486D01*
X68462192Y-56252293D01*
X68252468Y-55744722D01*
X67864469Y-55356045D01*
X67357264Y-55145436D01*
X66808071Y-55144956D01*
X66300500Y-55354680D01*
X65911823Y-55742679D01*
X65701214Y-56249884D01*
X65700734Y-56799077D01*
X60008000Y-56799077D01*
X60008000Y-43700000D01*
X59969331Y-43505597D01*
X59859210Y-43340790D01*
X57278476Y-40760056D01*
X58015787Y-40760056D01*
X58150844Y-41086919D01*
X58400705Y-41337217D01*
X58727332Y-41472845D01*
X59075670Y-41473148D01*
X60492000Y-42889478D01*
X60492000Y-54250974D01*
X60246782Y-54495764D01*
X60111154Y-54822391D01*
X60110846Y-55176057D01*
X60245903Y-55502920D01*
X60495764Y-55753218D01*
X60822391Y-55888846D01*
X61176057Y-55889154D01*
X61502920Y-55754097D01*
X61753218Y-55504236D01*
X61888846Y-55177609D01*
X61889154Y-54823943D01*
X61754097Y-54497080D01*
X61508000Y-54250553D01*
X61508000Y-42679058D01*
X61469331Y-42484655D01*
X61359210Y-42319848D01*
X59793793Y-40754431D01*
X59794095Y-40407942D01*
X59659038Y-40081079D01*
X59409177Y-39830781D01*
X59082550Y-39695153D01*
X58728884Y-39694845D01*
X58402021Y-39829902D01*
X58151723Y-40079763D01*
X58016095Y-40406390D01*
X58015787Y-40760056D01*
X57278476Y-40760056D01*
X52420659Y-35902239D01*
X52255852Y-35792118D01*
X52061449Y-35753449D01*
X50010808Y-35753449D01*
X49898022Y-35480486D01*
X49510023Y-35091809D01*
X49002818Y-34881200D01*
X48453625Y-34880720D01*
X47946054Y-35090444D01*
X47557377Y-35478443D01*
X47346768Y-35985648D01*
X47346288Y-36534841D01*
X46616095Y-36534841D01*
X46616095Y-34174167D01*
X48481462Y-32308800D01*
X51955425Y-32308800D01*
X51653137Y-32610561D01*
X51442528Y-33117766D01*
X51442048Y-33666959D01*
X51651772Y-34174530D01*
X52039771Y-34563207D01*
X52546976Y-34773816D01*
X53096169Y-34774296D01*
X53603740Y-34564572D01*
X53992417Y-34176573D01*
X54203026Y-33669368D01*
X54203506Y-33120175D01*
X53993782Y-32612604D01*
X53690508Y-32308800D01*
X54518538Y-32308800D01*
X55764577Y-33554840D01*
X55836908Y-33663092D01*
X58086906Y-35913089D01*
X58086908Y-35913092D01*
X58195496Y-35985648D01*
X58276437Y-36039731D01*
X58500000Y-36084201D01*
X58500005Y-36084200D01*
X61800754Y-36084200D01*
X61838175Y-36174766D01*
X62123731Y-36460821D01*
X62141200Y-36468075D01*
X62141200Y-41171714D01*
X62139179Y-41173731D01*
X61984176Y-41547018D01*
X61983824Y-41951208D01*
X62138175Y-42324766D01*
X62423731Y-42610821D01*
X62466600Y-42628622D01*
X62466600Y-45371083D01*
X62425234Y-45388175D01*
X62139179Y-45673731D01*
X61984176Y-46047018D01*
X61983824Y-46451208D01*
X62138175Y-46824766D01*
X62423731Y-47110821D01*
X62797018Y-47265824D01*
X63201208Y-47266176D01*
X63574766Y-47111825D01*
X63860821Y-46826269D01*
X64015824Y-46452982D01*
X64016176Y-46048792D01*
X63861825Y-45675234D01*
X63576269Y-45389179D01*
X63533400Y-45371378D01*
X63533400Y-42628917D01*
X63574766Y-42611825D01*
X63860821Y-42326269D01*
X64015824Y-41952982D01*
X64016176Y-41548792D01*
X63861825Y-41175234D01*
X63576269Y-40889179D01*
X63258800Y-40757354D01*
X63258800Y-36468422D01*
X63274766Y-36461825D01*
X63560821Y-36176269D01*
X63715824Y-35802982D01*
X63716176Y-35398792D01*
X63561825Y-35025234D01*
X63276269Y-34739179D01*
X62902982Y-34584176D01*
X62498792Y-34583824D01*
X62125234Y-34738175D01*
X61947299Y-34915800D01*
X58741983Y-34915800D01*
X56663092Y-32836908D01*
X56554840Y-32764577D01*
X55624283Y-31834020D01*
X56816801Y-31834020D01*
X57021053Y-31929481D01*
X57550459Y-31783392D01*
X57983660Y-31445829D01*
X58202612Y-31102145D01*
X58182766Y-30877562D01*
X57021554Y-30672809D01*
X56816801Y-31834020D01*
X55624283Y-31834020D01*
X55145131Y-31354869D01*
X54963844Y-31233736D01*
X54750000Y-31191200D01*
X48250000Y-31191200D01*
X48036156Y-31233736D01*
X47854869Y-31354869D01*
X45968538Y-33241200D01*
X44031458Y-33241200D01*
X42366315Y-31576057D01*
X42810846Y-31576057D01*
X42945903Y-31902920D01*
X43195764Y-32153218D01*
X43522391Y-32288846D01*
X43876057Y-32289154D01*
X44202920Y-32154097D01*
X44449447Y-31908000D01*
X45600000Y-31908000D01*
X45794403Y-31869331D01*
X45959210Y-31759210D01*
X47090219Y-30628201D01*
X55514741Y-30628201D01*
X55660830Y-31157607D01*
X55998393Y-31590808D01*
X56342077Y-31809760D01*
X56566660Y-31789914D01*
X56771413Y-30628702D01*
X55610202Y-30423949D01*
X55514741Y-30628201D01*
X47090219Y-30628201D01*
X47295752Y-30422668D01*
X57065661Y-30422668D01*
X58226872Y-30627421D01*
X58322333Y-30423169D01*
X58176244Y-29893763D01*
X57838681Y-29460562D01*
X57494997Y-29241610D01*
X57270414Y-29261456D01*
X57065661Y-30422668D01*
X47295752Y-30422668D01*
X47769195Y-29949225D01*
X55634462Y-29949225D01*
X55654308Y-30173808D01*
X56815520Y-30378561D01*
X57020273Y-29217350D01*
X56816021Y-29121889D01*
X56286615Y-29267978D01*
X55853414Y-29605541D01*
X55634462Y-29949225D01*
X47769195Y-29949225D01*
X48610420Y-29108000D01*
X60286173Y-29108000D01*
X67092000Y-35913828D01*
X67092000Y-42800000D01*
X67130669Y-42994403D01*
X67240790Y-43159210D01*
X70669223Y-46587643D01*
X70669223Y-58109776D01*
X70396260Y-58222562D01*
X70007583Y-58610561D01*
X69796974Y-59117766D01*
X69796494Y-59666959D01*
X70006218Y-60174530D01*
X70394217Y-60563207D01*
X70901422Y-60773816D01*
X71450615Y-60774296D01*
X71958186Y-60564572D01*
X72346863Y-60176573D01*
X72557472Y-59669368D01*
X72557952Y-59120175D01*
X72348228Y-58612604D01*
X71960229Y-58223927D01*
X71685223Y-58109735D01*
X71685223Y-46377223D01*
X71646554Y-46182820D01*
X71646554Y-46182819D01*
X71536433Y-46018013D01*
X68108000Y-42589580D01*
X68108000Y-35703407D01*
X68069331Y-35509004D01*
X68048911Y-35478443D01*
X67959211Y-35344197D01*
X60855803Y-28240790D01*
X60690996Y-28130669D01*
X60496593Y-28092000D01*
X48400000Y-28092000D01*
X48205597Y-28130669D01*
X48040790Y-28240790D01*
X45389580Y-30892000D01*
X44449026Y-30892000D01*
X44204236Y-30646782D01*
X43877609Y-30511154D01*
X43523943Y-30510846D01*
X43197080Y-30645903D01*
X42946782Y-30895764D01*
X42811154Y-31222391D01*
X42810846Y-31576057D01*
X42366315Y-31576057D01*
X41294227Y-30503969D01*
X41288287Y-30500000D01*
X41112940Y-30382836D01*
X40899096Y-30340300D01*
X37618422Y-30340300D01*
X37611825Y-30324334D01*
X37326269Y-30038279D01*
X37308800Y-30031025D01*
X37308800Y-28723379D01*
X42686226Y-28723379D01*
X42749590Y-28877294D01*
X43121885Y-28994359D01*
X43510639Y-28960042D01*
X43710410Y-28877294D01*
X43773774Y-28723379D01*
X43230000Y-28179605D01*
X42686226Y-28723379D01*
X37308800Y-28723379D01*
X37308800Y-27891885D01*
X42235641Y-27891885D01*
X42269958Y-28280639D01*
X42352706Y-28480410D01*
X42506621Y-28543774D01*
X43050395Y-28000000D01*
X43409605Y-28000000D01*
X43953379Y-28543774D01*
X44107294Y-28480410D01*
X44224359Y-28108115D01*
X44190042Y-27719361D01*
X44107294Y-27519590D01*
X43953379Y-27456226D01*
X43409605Y-28000000D01*
X43050395Y-28000000D01*
X42506621Y-27456226D01*
X42352706Y-27519590D01*
X42235641Y-27891885D01*
X37308800Y-27891885D01*
X37308800Y-27276621D01*
X42686226Y-27276621D01*
X43230000Y-27820395D01*
X43650395Y-27400000D01*
X44781536Y-27400000D01*
X44781536Y-28600000D01*
X44808103Y-28741190D01*
X44891546Y-28870865D01*
X45018866Y-28957859D01*
X45170000Y-28988464D01*
X46370000Y-28988464D01*
X46511190Y-28961897D01*
X46640865Y-28878454D01*
X46727859Y-28751134D01*
X46758464Y-28600000D01*
X46758464Y-27400000D01*
X46731897Y-27258810D01*
X46648454Y-27129135D01*
X46521134Y-27042141D01*
X46370000Y-27011536D01*
X45170000Y-27011536D01*
X45028810Y-27038103D01*
X44899135Y-27121546D01*
X44812141Y-27248866D01*
X44781536Y-27400000D01*
X43650395Y-27400000D01*
X43773774Y-27276621D01*
X43710410Y-27122706D01*
X43338115Y-27005641D01*
X42949361Y-27039958D01*
X42749590Y-27122706D01*
X42686226Y-27276621D01*
X37308800Y-27276621D01*
X37308800Y-21868422D01*
X37324766Y-21861825D01*
X37610821Y-21576269D01*
X37765824Y-21202982D01*
X37766176Y-20798792D01*
X37611825Y-20425234D01*
X37326269Y-20139179D01*
X36952982Y-19984176D01*
X36548792Y-19983824D01*
X36175234Y-20138175D01*
X35889179Y-20423731D01*
X35734176Y-20797018D01*
X35733824Y-21201208D01*
X35888175Y-21574766D01*
X36173731Y-21860821D01*
X36191200Y-21868075D01*
X36191200Y-30030678D01*
X36175234Y-30037275D01*
X35889179Y-30322831D01*
X35734176Y-30696118D01*
X35733824Y-31100308D01*
X35888175Y-31473866D01*
X36173731Y-31759921D01*
X36547018Y-31914924D01*
X36951208Y-31915276D01*
X37324766Y-31760925D01*
X37610821Y-31475369D01*
X37618075Y-31457900D01*
X40667634Y-31457900D01*
X43404865Y-34195131D01*
X43586152Y-34316264D01*
X43799996Y-34358800D01*
X45498495Y-34358800D01*
X45498495Y-42166719D01*
X45482529Y-42173316D01*
X45196474Y-42458872D01*
X45041471Y-42832159D01*
X45041119Y-43236349D01*
X45195470Y-43609907D01*
X45481026Y-43895962D01*
X45498495Y-43903216D01*
X45498495Y-44307295D01*
X45541031Y-44521139D01*
X45596978Y-44604869D01*
X45662164Y-44702426D01*
X46191200Y-45231462D01*
X46191200Y-63018538D01*
X45402387Y-63807351D01*
X45281254Y-63988638D01*
X45238718Y-64202482D01*
X45238718Y-65242270D01*
X45222752Y-65248867D01*
X44936697Y-65534423D01*
X44781694Y-65907710D01*
X44781342Y-66311900D01*
X44788566Y-66329382D01*
X44376748Y-66741200D01*
X41568422Y-66741200D01*
X41561825Y-66725234D01*
X41276269Y-66439179D01*
X40902982Y-66284176D01*
X40498792Y-66283824D01*
X40125234Y-66438175D01*
X39839179Y-66723731D01*
X39684176Y-67097018D01*
X39683824Y-67501208D01*
X39838175Y-67874766D01*
X40123731Y-68160821D01*
X40497018Y-68315824D01*
X40901208Y-68316176D01*
X41274766Y-68161825D01*
X41560821Y-67876269D01*
X41568075Y-67858800D01*
X44608210Y-67858800D01*
X44822054Y-67816264D01*
X45003341Y-67695131D01*
X45578581Y-67119891D01*
X45594536Y-67126516D01*
X45998726Y-67126868D01*
X46372284Y-66972517D01*
X46658339Y-66686961D01*
X46813342Y-66313674D01*
X46813694Y-65909484D01*
X46659343Y-65535926D01*
X46373787Y-65249871D01*
X46356318Y-65242617D01*
X46356318Y-64433944D01*
X47145131Y-63645131D01*
X47172033Y-63604869D01*
X47266264Y-63463844D01*
X47308800Y-63250000D01*
X47308800Y-61726359D01*
X49856802Y-61726359D01*
X50030446Y-62146612D01*
X50351697Y-62468423D01*
X50771646Y-62642801D01*
X51226359Y-62643198D01*
X51646612Y-62469554D01*
X51968423Y-62148303D01*
X52142801Y-61728354D01*
X52143198Y-61273641D01*
X51969554Y-60853388D01*
X51648303Y-60531577D01*
X51228354Y-60357199D01*
X50773641Y-60356802D01*
X50353388Y-60530446D01*
X50031577Y-60851697D01*
X49857199Y-61271646D01*
X49856802Y-61726359D01*
X47308800Y-61726359D01*
X47308800Y-45976057D01*
X51110846Y-45976057D01*
X51245903Y-46302920D01*
X51492000Y-46549447D01*
X51492000Y-52950974D01*
X51246782Y-53195764D01*
X51111154Y-53522391D01*
X51110846Y-53876057D01*
X51245903Y-54202920D01*
X51495764Y-54453218D01*
X51822391Y-54588846D01*
X52176057Y-54589154D01*
X52502920Y-54454097D01*
X52753218Y-54204236D01*
X52888846Y-53877609D01*
X52889154Y-53523943D01*
X52754097Y-53197080D01*
X52508000Y-52950553D01*
X52508000Y-46549026D01*
X52753218Y-46304236D01*
X52888846Y-45977609D01*
X52889154Y-45623943D01*
X52754097Y-45297080D01*
X52504236Y-45046782D01*
X52177609Y-44911154D01*
X51823943Y-44910846D01*
X51497080Y-45045903D01*
X51246782Y-45295764D01*
X51111154Y-45622391D01*
X51110846Y-45976057D01*
X47308800Y-45976057D01*
X47308800Y-45000000D01*
X47266264Y-44786156D01*
X47145131Y-44604869D01*
X46616095Y-44075833D01*
X46616095Y-43903563D01*
X46632061Y-43896966D01*
X46918116Y-43611410D01*
X46925370Y-43593941D01*
X54803679Y-43593941D01*
X57573001Y-46363264D01*
X57573001Y-75931801D01*
X57615537Y-76145645D01*
X57687416Y-76253218D01*
X57736670Y-76326932D01*
X58741200Y-77331462D01*
X58741200Y-81168538D01*
X57068538Y-82841200D01*
X48268422Y-82841200D01*
X48261825Y-82825234D01*
X47976269Y-82539179D01*
X47602982Y-82384176D01*
X47198792Y-82383824D01*
X46825234Y-82538175D01*
X46539179Y-82823731D01*
X46384176Y-83197018D01*
X46383824Y-83601208D01*
X46538175Y-83974766D01*
X46823731Y-84260821D01*
X46841200Y-84268075D01*
X46841200Y-93768537D01*
X45668538Y-94941200D01*
X36868422Y-94941200D01*
X36861825Y-94925234D01*
X36576269Y-94639179D01*
X36558800Y-94631925D01*
X36558800Y-91726359D01*
X36856802Y-91726359D01*
X37030446Y-92146612D01*
X37351697Y-92468423D01*
X37771646Y-92642801D01*
X38226359Y-92643198D01*
X38646612Y-92469554D01*
X38968423Y-92148303D01*
X39142801Y-91728354D01*
X39143198Y-91273641D01*
X38969554Y-90853388D01*
X38648303Y-90531577D01*
X38228354Y-90357199D01*
X37773641Y-90356802D01*
X37353388Y-90530446D01*
X37031577Y-90851697D01*
X36857199Y-91271646D01*
X36856802Y-91726359D01*
X36558800Y-91726359D01*
X36558800Y-81931462D01*
X38145074Y-80345188D01*
X38983824Y-80345188D01*
X39138175Y-80718746D01*
X39423731Y-81004801D01*
X39441200Y-81012055D01*
X39441200Y-88183980D01*
X39483736Y-88397824D01*
X39604869Y-88579111D01*
X44206821Y-93181063D01*
X44200196Y-93197018D01*
X44199844Y-93601208D01*
X44354195Y-93974766D01*
X44639751Y-94260821D01*
X45013038Y-94415824D01*
X45417228Y-94416176D01*
X45790786Y-94261825D01*
X46076841Y-93976269D01*
X46231844Y-93602982D01*
X46232196Y-93198792D01*
X46077845Y-92825234D01*
X45792289Y-92539179D01*
X45419002Y-92384176D01*
X45014812Y-92383824D01*
X44997330Y-92391048D01*
X40558800Y-87952518D01*
X40558800Y-82576057D01*
X42610846Y-82576057D01*
X42745903Y-82902920D01*
X42995764Y-83153218D01*
X43322391Y-83288846D01*
X43676057Y-83289154D01*
X44002920Y-83154097D01*
X44253218Y-82904236D01*
X44388846Y-82577609D01*
X44389154Y-82223943D01*
X44254097Y-81897080D01*
X44110921Y-81753653D01*
X44272626Y-81753653D01*
X44407683Y-82080516D01*
X44657544Y-82330814D01*
X44984171Y-82466442D01*
X45337837Y-82466750D01*
X45664700Y-82331693D01*
X45911227Y-82085596D01*
X53122402Y-82085596D01*
X53316805Y-82046927D01*
X53481612Y-81936806D01*
X56029568Y-79388850D01*
X56376057Y-79389152D01*
X56702920Y-79254095D01*
X56953218Y-79004234D01*
X57088846Y-78677607D01*
X57089154Y-78323941D01*
X56954097Y-77997078D01*
X56704236Y-77746780D01*
X56377609Y-77611152D01*
X56023943Y-77610844D01*
X55697080Y-77745901D01*
X55446782Y-77995762D01*
X55311154Y-78322389D01*
X55310851Y-78670727D01*
X52911982Y-81069596D01*
X45910806Y-81069596D01*
X45666016Y-80824378D01*
X45339389Y-80688750D01*
X44985723Y-80688442D01*
X44658860Y-80823499D01*
X44408562Y-81073360D01*
X44272934Y-81399987D01*
X44272626Y-81753653D01*
X44110921Y-81753653D01*
X44008000Y-81650553D01*
X44008000Y-80960420D01*
X46660420Y-78308000D01*
X54300000Y-78308000D01*
X54494403Y-78269331D01*
X54659210Y-78159210D01*
X55559210Y-77259210D01*
X55669331Y-77094404D01*
X55708000Y-76900000D01*
X55708000Y-72249026D01*
X55953218Y-72004236D01*
X56088846Y-71677609D01*
X56089154Y-71323943D01*
X55954097Y-70997080D01*
X55704236Y-70746782D01*
X55377609Y-70611154D01*
X55023943Y-70610846D01*
X54697080Y-70745903D01*
X54446782Y-70995764D01*
X54311154Y-71322391D01*
X54310846Y-71676057D01*
X54445903Y-72002920D01*
X54692000Y-72249447D01*
X54692000Y-76689580D01*
X54089580Y-77292000D01*
X46450000Y-77292000D01*
X46255597Y-77330669D01*
X46090790Y-77440790D01*
X43140790Y-80390790D01*
X43030669Y-80555597D01*
X42992000Y-80750000D01*
X42992000Y-81650974D01*
X42746782Y-81895764D01*
X42611154Y-82222391D01*
X42610846Y-82576057D01*
X40558800Y-82576057D01*
X40558800Y-81012402D01*
X40574766Y-81005805D01*
X40860821Y-80720249D01*
X41015824Y-80346962D01*
X41016176Y-79942772D01*
X40861825Y-79569214D01*
X40576269Y-79283159D01*
X40202982Y-79128156D01*
X39798792Y-79127804D01*
X39425234Y-79282155D01*
X39139179Y-79567711D01*
X38984176Y-79940998D01*
X38983824Y-80345188D01*
X38145074Y-80345188D01*
X39856157Y-78634105D01*
X40052959Y-78715824D01*
X40457149Y-78716176D01*
X40830707Y-78561825D01*
X41116762Y-78276269D01*
X41271765Y-77902982D01*
X41272117Y-77498792D01*
X41264894Y-77481310D01*
X41987404Y-76758800D01*
X48331578Y-76758800D01*
X48338175Y-76774766D01*
X48623731Y-77060821D01*
X48997018Y-77215824D01*
X49401208Y-77216176D01*
X49774766Y-77061825D01*
X50060821Y-76776269D01*
X50215824Y-76402982D01*
X50216176Y-75998792D01*
X50061825Y-75625234D01*
X49776269Y-75339179D01*
X49402982Y-75184176D01*
X48998792Y-75183824D01*
X48625234Y-75338175D01*
X48339179Y-75623731D01*
X48331925Y-75641200D01*
X41755941Y-75641200D01*
X41542097Y-75683736D01*
X41494082Y-75715819D01*
X41360809Y-75804869D01*
X40474878Y-76690801D01*
X40458923Y-76684176D01*
X40054733Y-76683824D01*
X39681175Y-76838175D01*
X39395120Y-77123731D01*
X39240117Y-77497018D01*
X39239967Y-77669771D01*
X35604869Y-81304869D01*
X35483736Y-81486156D01*
X35441200Y-81700000D01*
X35441200Y-94631578D01*
X35425234Y-94638175D01*
X35139179Y-94923731D01*
X34984176Y-95297018D01*
X34983824Y-95701208D01*
X32119628Y-95701208D01*
X31608000Y-95189580D01*
X31608000Y-92341160D01*
X32338445Y-92341160D01*
X32421824Y-92511856D01*
X32853055Y-92656091D01*
X33306657Y-92624322D01*
X33578176Y-92511856D01*
X33661555Y-92341160D01*
X33000000Y-91679605D01*
X32338445Y-92341160D01*
X31608000Y-92341160D01*
X31608000Y-91353055D01*
X31843909Y-91353055D01*
X31875678Y-91806657D01*
X31988144Y-92078176D01*
X32158840Y-92161555D01*
X32820395Y-91500000D01*
X33179605Y-91500000D01*
X33841160Y-92161555D01*
X34011856Y-92078176D01*
X34156091Y-91646945D01*
X34124322Y-91193343D01*
X34011856Y-90921824D01*
X33841160Y-90838445D01*
X33179605Y-91500000D01*
X32820395Y-91500000D01*
X32158840Y-90838445D01*
X31988144Y-90921824D01*
X31843909Y-91353055D01*
X31608000Y-91353055D01*
X31608000Y-90658840D01*
X32338445Y-90658840D01*
X33000000Y-91320395D01*
X33661555Y-90658840D01*
X33578176Y-90488144D01*
X33146945Y-90343909D01*
X32693343Y-90375678D01*
X32421824Y-90488144D01*
X32338445Y-90658840D01*
X31608000Y-90658840D01*
X31608000Y-84249026D01*
X31849447Y-84008000D01*
X32015245Y-84008000D01*
X32209648Y-83969331D01*
X32374455Y-83859210D01*
X40902543Y-75331122D01*
X40933242Y-75285178D01*
X41510420Y-74708000D01*
X50989580Y-74708000D01*
X51632791Y-75351212D01*
X51717781Y-75408000D01*
X51797598Y-75461332D01*
X51992001Y-75500001D01*
X52610999Y-75500001D01*
X52610846Y-75676057D01*
X52745903Y-76002920D01*
X52995764Y-76253218D01*
X53322391Y-76388846D01*
X53676057Y-76389154D01*
X54002920Y-76254097D01*
X54253218Y-76004236D01*
X54388846Y-75677609D01*
X54389154Y-75323943D01*
X54254097Y-74997080D01*
X54004236Y-74746782D01*
X53677609Y-74611154D01*
X53323943Y-74610846D01*
X53320498Y-74612269D01*
X53186404Y-74522670D01*
X52992001Y-74484001D01*
X52202422Y-74484001D01*
X51559210Y-73840790D01*
X51394403Y-73730669D01*
X51200000Y-73692000D01*
X41300000Y-73692000D01*
X41105597Y-73730669D01*
X40940790Y-73840790D01*
X40530365Y-74251215D01*
X40389157Y-73909465D01*
X40103601Y-73623410D01*
X39730314Y-73468407D01*
X39326124Y-73468055D01*
X39308642Y-73475278D01*
X38058800Y-72225437D01*
X38058800Y-71058800D01*
X38801685Y-71058800D01*
X38995764Y-71253218D01*
X39322391Y-71388846D01*
X39676057Y-71389154D01*
X40002920Y-71254097D01*
X40253218Y-71004236D01*
X40388846Y-70677609D01*
X40389154Y-70323943D01*
X40254097Y-69997080D01*
X40004236Y-69746782D01*
X39677609Y-69611154D01*
X39323943Y-69610846D01*
X38997080Y-69745903D01*
X38801441Y-69941200D01*
X38018999Y-69941200D01*
X38018999Y-68876057D01*
X38310846Y-68876057D01*
X38445903Y-69202920D01*
X38695764Y-69453218D01*
X39022391Y-69588846D01*
X39376057Y-69589154D01*
X39702920Y-69454097D01*
X39842439Y-69314822D01*
X39924017Y-69369331D01*
X40118420Y-69408000D01*
X52992000Y-69408000D01*
X52992000Y-72750974D01*
X52746782Y-72995764D01*
X52611154Y-73322391D01*
X52610846Y-73676057D01*
X52745903Y-74002920D01*
X52995764Y-74253218D01*
X53322391Y-74388846D01*
X53676057Y-74389154D01*
X54002920Y-74254097D01*
X54253218Y-74004236D01*
X54388846Y-73677609D01*
X54389154Y-73323943D01*
X54254097Y-72997080D01*
X54008000Y-72750553D01*
X54008000Y-69110420D01*
X54959210Y-68159210D01*
X55069331Y-67994403D01*
X55108000Y-67800000D01*
X55108000Y-62341160D01*
X55338445Y-62341160D01*
X55421824Y-62511856D01*
X55853055Y-62656091D01*
X56306657Y-62624322D01*
X56578176Y-62511856D01*
X56661555Y-62341160D01*
X56000000Y-61679605D01*
X55338445Y-62341160D01*
X55108000Y-62341160D01*
X55108000Y-62136721D01*
X55158840Y-62161555D01*
X55820395Y-61500000D01*
X56179605Y-61500000D01*
X56841160Y-62161555D01*
X57011856Y-62078176D01*
X57156091Y-61646945D01*
X57124322Y-61193343D01*
X57011856Y-60921824D01*
X56841160Y-60838445D01*
X56179605Y-61500000D01*
X55820395Y-61500000D01*
X55158840Y-60838445D01*
X55108000Y-60863279D01*
X55108000Y-60658840D01*
X55338445Y-60658840D01*
X56000000Y-61320395D01*
X56661555Y-60658840D01*
X56578176Y-60488144D01*
X56146945Y-60343909D01*
X55693343Y-60375678D01*
X55421824Y-60488144D01*
X55338445Y-60658840D01*
X55108000Y-60658840D01*
X55108000Y-51149026D01*
X55353218Y-50904236D01*
X55488846Y-50577609D01*
X55489154Y-50223943D01*
X55354097Y-49897080D01*
X55104236Y-49646782D01*
X54777609Y-49511154D01*
X54423943Y-49510846D01*
X54097080Y-49645903D01*
X53846782Y-49895764D01*
X53711154Y-50222391D01*
X53710846Y-50576057D01*
X53845903Y-50902920D01*
X54092000Y-51149447D01*
X54092000Y-67589580D01*
X53289580Y-68392000D01*
X40328840Y-68392000D01*
X40277630Y-68340790D01*
X40112823Y-68230669D01*
X39955005Y-68199277D01*
X39954097Y-68197080D01*
X39704236Y-67946782D01*
X39377609Y-67811154D01*
X39023943Y-67810846D01*
X38697080Y-67945903D01*
X38446782Y-68195764D01*
X38311154Y-68522391D01*
X38310846Y-68876057D01*
X38018999Y-68876057D01*
X38018999Y-65271263D01*
X40385817Y-62904445D01*
X43985933Y-62904445D01*
X43992530Y-62920411D01*
X44278086Y-63206466D01*
X44651373Y-63361469D01*
X45055563Y-63361821D01*
X45429121Y-63207470D01*
X45715176Y-62921914D01*
X45870179Y-62548627D01*
X45870531Y-62144437D01*
X45716180Y-61770879D01*
X45540155Y-61594546D01*
X45540155Y-45754355D01*
X45512543Y-45615537D01*
X45487952Y-45491910D01*
X45339289Y-45269421D01*
X44185800Y-44115932D01*
X44185800Y-40750985D01*
X44360821Y-40576269D01*
X44515824Y-40202982D01*
X44516176Y-39798792D01*
X44361825Y-39425234D01*
X44076269Y-39139179D01*
X43702982Y-38984176D01*
X43298792Y-38983824D01*
X42925234Y-39138175D01*
X42748901Y-39314200D01*
X35284068Y-39314200D01*
X32807777Y-36837909D01*
X38988908Y-36837909D01*
X39307255Y-37285422D01*
X39772624Y-37577045D01*
X40170467Y-37665245D01*
X40374719Y-37569784D01*
X40169966Y-36408573D01*
X39008754Y-36613326D01*
X38988908Y-36837909D01*
X32807777Y-36837909D01*
X32334334Y-36364466D01*
X40420107Y-36364466D01*
X40624860Y-37525678D01*
X40849443Y-37545524D01*
X41296956Y-37227177D01*
X41588579Y-36761808D01*
X41676779Y-36363965D01*
X41581318Y-36159713D01*
X40420107Y-36364466D01*
X32334334Y-36364466D01*
X32128801Y-36158933D01*
X38869187Y-36158933D01*
X38964648Y-36363185D01*
X40125859Y-36158432D01*
X39921106Y-34997220D01*
X39696523Y-34977374D01*
X39249010Y-35295721D01*
X38957387Y-35761090D01*
X38869187Y-36158933D01*
X32128801Y-36158933D01*
X30922982Y-34953114D01*
X40171247Y-34953114D01*
X40376000Y-36114325D01*
X41537212Y-35909572D01*
X41557058Y-35684989D01*
X41238711Y-35237476D01*
X40773342Y-34945853D01*
X40375499Y-34857653D01*
X40171247Y-34953114D01*
X30922982Y-34953114D01*
X29636827Y-33666959D01*
X34796494Y-33666959D01*
X35006218Y-34174530D01*
X35394217Y-34563207D01*
X35901422Y-34773816D01*
X36450615Y-34774296D01*
X36958186Y-34564572D01*
X37346863Y-34176573D01*
X37557472Y-33669368D01*
X37557952Y-33120175D01*
X37348228Y-32612604D01*
X36960229Y-32223927D01*
X36453024Y-32013318D01*
X35903831Y-32012838D01*
X35396260Y-32222562D01*
X35007583Y-32610561D01*
X34796974Y-33117766D01*
X34796494Y-33666959D01*
X29636827Y-33666959D01*
X28665194Y-32695326D01*
X28765824Y-32452982D01*
X28766176Y-32048792D01*
X28611825Y-31675234D01*
X28435800Y-31498901D01*
X28435800Y-30799077D01*
X30700734Y-30799077D01*
X30910458Y-31306648D01*
X31298457Y-31695325D01*
X31805662Y-31905934D01*
X32354855Y-31906414D01*
X32862426Y-31696690D01*
X33251103Y-31308691D01*
X33461712Y-30801486D01*
X33462192Y-30252293D01*
X33252468Y-29744722D01*
X32864469Y-29356045D01*
X32357264Y-29145436D01*
X31808071Y-29144956D01*
X31300500Y-29354680D01*
X30911823Y-29742679D01*
X30701214Y-30249884D01*
X30700734Y-30799077D01*
X28435800Y-30799077D01*
X28435800Y-25000985D01*
X28610821Y-24826269D01*
X28765824Y-24452982D01*
X28766041Y-24203827D01*
X33484068Y-19485800D01*
X34849013Y-19485800D01*
X35023729Y-19660821D01*
X35397016Y-19815824D01*
X35801206Y-19816176D01*
X36174764Y-19661825D01*
X36351097Y-19485800D01*
X38265932Y-19485800D01*
X39441200Y-20661068D01*
X39441200Y-22089677D01*
X39449825Y-22133038D01*
X39437491Y-22138134D01*
X39151436Y-22423690D01*
X38996433Y-22796977D01*
X38996081Y-23201167D01*
X39150432Y-23574725D01*
X39435988Y-23860780D01*
X39809275Y-24015783D01*
X40213465Y-24016135D01*
X40587023Y-23861784D01*
X40725669Y-23723379D01*
X42686226Y-23723379D01*
X42749590Y-23877294D01*
X43121885Y-23994359D01*
X43510639Y-23960042D01*
X43710410Y-23877294D01*
X43773774Y-23723379D01*
X43230000Y-23179605D01*
X42686226Y-23723379D01*
X40725669Y-23723379D01*
X40873078Y-23576228D01*
X41028081Y-23202941D01*
X41028351Y-22891885D01*
X42235641Y-22891885D01*
X42269958Y-23280639D01*
X42352706Y-23480410D01*
X42506621Y-23543774D01*
X43050395Y-23000000D01*
X43409605Y-23000000D01*
X43953379Y-23543774D01*
X44107294Y-23480410D01*
X44224359Y-23108115D01*
X44190042Y-22719361D01*
X44107294Y-22519590D01*
X43953379Y-22456226D01*
X43409605Y-23000000D01*
X43050395Y-23000000D01*
X42506621Y-22456226D01*
X42352706Y-22519590D01*
X42235641Y-22891885D01*
X41028351Y-22891885D01*
X41028433Y-22798751D01*
X40874082Y-22425193D01*
X40725770Y-22276621D01*
X42686226Y-22276621D01*
X43230000Y-22820395D01*
X43650395Y-22400000D01*
X44781536Y-22400000D01*
X44781536Y-23600000D01*
X44808103Y-23741190D01*
X44891546Y-23870865D01*
X45018866Y-23957859D01*
X45170000Y-23988464D01*
X46370000Y-23988464D01*
X46511190Y-23961897D01*
X46640865Y-23878454D01*
X46727859Y-23751134D01*
X46758464Y-23600000D01*
X46758464Y-22400000D01*
X46731897Y-22258810D01*
X46648454Y-22129135D01*
X46521134Y-22042141D01*
X46370000Y-22011536D01*
X45170000Y-22011536D01*
X45028810Y-22038103D01*
X44899135Y-22121546D01*
X44812141Y-22248866D01*
X44781536Y-22400000D01*
X43650395Y-22400000D01*
X43773774Y-22276621D01*
X43710410Y-22122706D01*
X43338115Y-22005641D01*
X42949361Y-22039958D01*
X42749590Y-22122706D01*
X42686226Y-22276621D01*
X40725770Y-22276621D01*
X40588526Y-22139138D01*
X40571057Y-22131884D01*
X40571057Y-22101934D01*
X40558800Y-22040314D01*
X40558800Y-20935800D01*
X49215932Y-20935800D01*
X55606265Y-27326133D01*
X55828754Y-27474796D01*
X56091199Y-27526999D01*
X65557131Y-27526999D01*
X68814200Y-30784068D01*
X68814200Y-39599990D01*
X68866403Y-39862435D01*
X69015066Y-40084924D01*
X70684049Y-41753907D01*
X70683834Y-42001208D01*
X70838185Y-42374766D01*
X71123741Y-42660821D01*
X71497028Y-42815824D01*
X71901218Y-42816176D01*
X72274776Y-42661825D01*
X72560831Y-42376269D01*
X72715834Y-42002982D01*
X72716186Y-41598792D01*
X72561835Y-41225234D01*
X72276279Y-40939179D01*
X71902992Y-40784176D01*
X71653837Y-40783959D01*
X70185800Y-39315922D01*
X70185800Y-37687660D01*
X70235266Y-37721459D01*
X70386400Y-37752064D01*
X72113600Y-37752064D01*
X72254790Y-37725497D01*
X72384465Y-37642054D01*
X72471459Y-37514734D01*
X72502064Y-37363600D01*
X72502064Y-36500000D01*
X72521017Y-36500000D01*
X72615757Y-36976288D01*
X72885552Y-37380065D01*
X73289329Y-37649860D01*
X73765617Y-37744600D01*
X73814383Y-37744600D01*
X74290671Y-37649860D01*
X74694448Y-37380065D01*
X74964243Y-36976288D01*
X75058983Y-36500000D01*
X74964243Y-36023712D01*
X74694448Y-35619935D01*
X74290671Y-35350140D01*
X73814383Y-35255400D01*
X73765617Y-35255400D01*
X73289329Y-35350140D01*
X72885552Y-35619935D01*
X72615757Y-36023712D01*
X72521017Y-36500000D01*
X72502064Y-36500000D01*
X72502064Y-35636400D01*
X72475497Y-35495210D01*
X72392054Y-35365535D01*
X72264734Y-35278541D01*
X72113600Y-35247936D01*
X70386400Y-35247936D01*
X70245210Y-35274503D01*
X70185800Y-35312732D01*
X70185800Y-34598735D01*
X70494801Y-34949310D01*
X70930880Y-35163005D01*
X71123000Y-35102865D01*
X71123000Y-34087000D01*
X71377000Y-34087000D01*
X71377000Y-35102865D01*
X71569120Y-35163005D01*
X72005199Y-34949310D01*
X72326305Y-34585001D01*
X72452993Y-34279118D01*
X72587007Y-34279118D01*
X72713695Y-34585001D01*
X73034801Y-34949310D01*
X73470880Y-35163005D01*
X73663000Y-35102865D01*
X73663000Y-34087000D01*
X73917000Y-34087000D01*
X73917000Y-35102865D01*
X74109120Y-35163005D01*
X74545199Y-34949310D01*
X74866305Y-34585001D01*
X74992993Y-34279118D01*
X74932312Y-34087000D01*
X73917000Y-34087000D01*
X73663000Y-34087000D01*
X72647688Y-34087000D01*
X72587007Y-34279118D01*
X72452993Y-34279118D01*
X72392312Y-34087000D01*
X71377000Y-34087000D01*
X71123000Y-34087000D01*
X71103000Y-34087000D01*
X71103000Y-33833000D01*
X71123000Y-33833000D01*
X71123000Y-32817135D01*
X71377000Y-32817135D01*
X71377000Y-33833000D01*
X72392312Y-33833000D01*
X72452993Y-33640882D01*
X72587007Y-33640882D01*
X72647688Y-33833000D01*
X73663000Y-33833000D01*
X73663000Y-32817135D01*
X73917000Y-32817135D01*
X73917000Y-33833000D01*
X74932312Y-33833000D01*
X74992993Y-33640882D01*
X74866305Y-33334999D01*
X74545199Y-32970690D01*
X74109120Y-32756995D01*
X73917000Y-32817135D01*
X73663000Y-32817135D01*
X73470880Y-32756995D01*
X73034801Y-32970690D01*
X72713695Y-33334999D01*
X72587007Y-33640882D01*
X72452993Y-33640882D01*
X72326305Y-33334999D01*
X72005199Y-32970690D01*
X71569120Y-32756995D01*
X71377000Y-32817135D01*
X71123000Y-32817135D01*
X70930880Y-32756995D01*
X70494801Y-32970690D01*
X70185800Y-33321265D01*
X70185800Y-32058735D01*
X70494801Y-32409310D01*
X70930880Y-32623005D01*
X71123000Y-32562865D01*
X71123000Y-31547000D01*
X71377000Y-31547000D01*
X71377000Y-32562865D01*
X71569120Y-32623005D01*
X72005199Y-32409310D01*
X72326305Y-32045001D01*
X72452993Y-31739118D01*
X72587007Y-31739118D01*
X72713695Y-32045001D01*
X73034801Y-32409310D01*
X73470880Y-32623005D01*
X73663000Y-32562865D01*
X73663000Y-31547000D01*
X73917000Y-31547000D01*
X73917000Y-32562865D01*
X74109120Y-32623005D01*
X74545199Y-32409310D01*
X74866305Y-32045001D01*
X74992993Y-31739118D01*
X74932312Y-31547000D01*
X73917000Y-31547000D01*
X73663000Y-31547000D01*
X72647688Y-31547000D01*
X72587007Y-31739118D01*
X72452993Y-31739118D01*
X72392312Y-31547000D01*
X71377000Y-31547000D01*
X71123000Y-31547000D01*
X71103000Y-31547000D01*
X71103000Y-31293000D01*
X71123000Y-31293000D01*
X71123000Y-30277135D01*
X71377000Y-30277135D01*
X71377000Y-31293000D01*
X72392312Y-31293000D01*
X72452993Y-31100882D01*
X72587007Y-31100882D01*
X72647688Y-31293000D01*
X73663000Y-31293000D01*
X73663000Y-30277135D01*
X73917000Y-30277135D01*
X73917000Y-31293000D01*
X74932312Y-31293000D01*
X74992993Y-31100882D01*
X74866305Y-30794999D01*
X74545199Y-30430690D01*
X74109120Y-30216995D01*
X73917000Y-30277135D01*
X73663000Y-30277135D01*
X73470880Y-30216995D01*
X73034801Y-30430690D01*
X72713695Y-30794999D01*
X72587007Y-31100882D01*
X72452993Y-31100882D01*
X72326305Y-30794999D01*
X72005199Y-30430690D01*
X71569120Y-30216995D01*
X71377000Y-30277135D01*
X71123000Y-30277135D01*
X70930880Y-30216995D01*
X70494801Y-30430690D01*
X70185800Y-30781265D01*
X70185800Y-30500000D01*
X70173030Y-30435800D01*
X70133597Y-30237555D01*
X69984934Y-30015066D01*
X69168986Y-29199118D01*
X70047007Y-29199118D01*
X70173695Y-29505001D01*
X70494801Y-29869310D01*
X70930880Y-30083005D01*
X71123000Y-30022865D01*
X71123000Y-29007000D01*
X71377000Y-29007000D01*
X71377000Y-30022865D01*
X71569120Y-30083005D01*
X72005199Y-29869310D01*
X72326305Y-29505001D01*
X72452993Y-29199118D01*
X72587007Y-29199118D01*
X72713695Y-29505001D01*
X73034801Y-29869310D01*
X73470880Y-30083005D01*
X73663000Y-30022865D01*
X73663000Y-29007000D01*
X73917000Y-29007000D01*
X73917000Y-30022865D01*
X74109120Y-30083005D01*
X74545199Y-29869310D01*
X74866305Y-29505001D01*
X74992993Y-29199118D01*
X74932312Y-29007000D01*
X73917000Y-29007000D01*
X73663000Y-29007000D01*
X72647688Y-29007000D01*
X72587007Y-29199118D01*
X72452993Y-29199118D01*
X72392312Y-29007000D01*
X71377000Y-29007000D01*
X71123000Y-29007000D01*
X70107688Y-29007000D01*
X70047007Y-29199118D01*
X69168986Y-29199118D01*
X68530750Y-28560882D01*
X70047007Y-28560882D01*
X70107688Y-28753000D01*
X71123000Y-28753000D01*
X71123000Y-27737135D01*
X71377000Y-27737135D01*
X71377000Y-28753000D01*
X72392312Y-28753000D01*
X72452993Y-28560882D01*
X72587007Y-28560882D01*
X72647688Y-28753000D01*
X73663000Y-28753000D01*
X73663000Y-27737135D01*
X73917000Y-27737135D01*
X73917000Y-28753000D01*
X74932312Y-28753000D01*
X74992993Y-28560882D01*
X74866305Y-28254999D01*
X74545199Y-27890690D01*
X74109120Y-27676995D01*
X73917000Y-27737135D01*
X73663000Y-27737135D01*
X73470880Y-27676995D01*
X73034801Y-27890690D01*
X72713695Y-28254999D01*
X72587007Y-28560882D01*
X72452993Y-28560882D01*
X72326305Y-28254999D01*
X72005199Y-27890690D01*
X71569120Y-27676995D01*
X71377000Y-27737135D01*
X71123000Y-27737135D01*
X70930880Y-27676995D01*
X70494801Y-27890690D01*
X70173695Y-28254999D01*
X70047007Y-28560882D01*
X68530750Y-28560882D01*
X66326133Y-26356265D01*
X66301791Y-26340000D01*
X69981017Y-26340000D01*
X70075757Y-26816288D01*
X70345552Y-27220065D01*
X70749329Y-27489860D01*
X71225617Y-27584600D01*
X71274383Y-27584600D01*
X71750671Y-27489860D01*
X72154448Y-27220065D01*
X72424243Y-26816288D01*
X72518983Y-26340000D01*
X72521017Y-26340000D01*
X72615757Y-26816288D01*
X72885552Y-27220065D01*
X73289329Y-27489860D01*
X73765617Y-27584600D01*
X73814383Y-27584600D01*
X74290671Y-27489860D01*
X74694448Y-27220065D01*
X74964243Y-26816288D01*
X75058983Y-26340000D01*
X74964243Y-25863712D01*
X74694448Y-25459935D01*
X74290671Y-25190140D01*
X73814383Y-25095400D01*
X73765617Y-25095400D01*
X73289329Y-25190140D01*
X72885552Y-25459935D01*
X72615757Y-25863712D01*
X72521017Y-26340000D01*
X72518983Y-26340000D01*
X72424243Y-25863712D01*
X72154448Y-25459935D01*
X71750671Y-25190140D01*
X71274383Y-25095400D01*
X71225617Y-25095400D01*
X70749329Y-25190140D01*
X70345552Y-25459935D01*
X70075757Y-25863712D01*
X69981017Y-26340000D01*
X66301791Y-26340000D01*
X66103644Y-26207602D01*
X65841199Y-26155399D01*
X56375267Y-26155399D01*
X54324117Y-24104249D01*
X58575356Y-24104249D01*
X58703291Y-24312641D01*
X59266263Y-24517610D01*
X59864819Y-24491536D01*
X60296709Y-24312641D01*
X60424644Y-24104249D01*
X59500000Y-23179605D01*
X58575356Y-24104249D01*
X54324117Y-24104249D01*
X52986131Y-22766263D01*
X57982390Y-22766263D01*
X58008464Y-23364819D01*
X58187359Y-23796709D01*
X58395751Y-23924644D01*
X59320395Y-23000000D01*
X59679605Y-23000000D01*
X60604249Y-23924644D01*
X60812641Y-23796709D01*
X60994122Y-23298248D01*
X62993739Y-23298248D01*
X63222531Y-23851966D01*
X63645806Y-24275980D01*
X64199124Y-24505738D01*
X64798248Y-24506261D01*
X65351966Y-24277469D01*
X65775980Y-23854194D01*
X66005738Y-23300876D01*
X66006261Y-22701752D01*
X65777469Y-22148034D01*
X65354194Y-21724020D01*
X64800876Y-21494262D01*
X64201752Y-21493739D01*
X63648034Y-21722531D01*
X63224020Y-22145806D01*
X62994262Y-22699124D01*
X62993739Y-23298248D01*
X60994122Y-23298248D01*
X61017610Y-23233737D01*
X60991536Y-22635181D01*
X60812641Y-22203291D01*
X60604249Y-22075356D01*
X59679605Y-23000000D01*
X59320395Y-23000000D01*
X58395751Y-22075356D01*
X58187359Y-22203291D01*
X57982390Y-22766263D01*
X52986131Y-22766263D01*
X52115619Y-21895751D01*
X58575356Y-21895751D01*
X59500000Y-22820395D01*
X60424644Y-21895751D01*
X60296709Y-21687359D01*
X59733737Y-21482390D01*
X59135181Y-21508464D01*
X58703291Y-21687359D01*
X58575356Y-21895751D01*
X52115619Y-21895751D01*
X49984934Y-19765066D01*
X49762445Y-19616403D01*
X49500000Y-19564200D01*
X40284068Y-19564200D01*
X39443247Y-18723379D01*
X42686226Y-18723379D01*
X42749590Y-18877294D01*
X43121885Y-18994359D01*
X43510639Y-18960042D01*
X43710410Y-18877294D01*
X43773774Y-18723379D01*
X43230000Y-18179605D01*
X42686226Y-18723379D01*
X39443247Y-18723379D01*
X39034934Y-18315066D01*
X38812445Y-18166403D01*
X38550000Y-18114200D01*
X36350983Y-18114200D01*
X36176267Y-17939179D01*
X36062371Y-17891885D01*
X42235641Y-17891885D01*
X42269958Y-18280639D01*
X42352706Y-18480410D01*
X42506621Y-18543774D01*
X43050395Y-18000000D01*
X43409605Y-18000000D01*
X43953379Y-18543774D01*
X44107294Y-18480410D01*
X44224359Y-18108115D01*
X44190042Y-17719361D01*
X44107294Y-17519590D01*
X43953379Y-17456226D01*
X43409605Y-18000000D01*
X43050395Y-18000000D01*
X42506621Y-17456226D01*
X42352706Y-17519590D01*
X42235641Y-17891885D01*
X36062371Y-17891885D01*
X35802980Y-17784176D01*
X35398790Y-17783824D01*
X35025232Y-17938175D01*
X34848899Y-18114200D01*
X33200000Y-18114200D01*
X32937555Y-18166403D01*
X32715066Y-18315066D01*
X27796093Y-23234039D01*
X27548792Y-23233824D01*
X27175234Y-23388175D01*
X26889179Y-23673731D01*
X26734176Y-24047018D01*
X26733824Y-24451208D01*
X26888175Y-24824766D01*
X27064200Y-25001099D01*
X27064200Y-31499015D01*
X26889179Y-31673731D01*
X26734176Y-32047018D01*
X26733824Y-32451208D01*
X26888175Y-32824766D01*
X27173731Y-33110821D01*
X27185363Y-33115651D01*
X27265066Y-33234934D01*
X34515066Y-40484934D01*
X34737556Y-40633597D01*
X35000000Y-40685800D01*
X42749015Y-40685800D01*
X42814200Y-40751099D01*
X42814200Y-44400000D01*
X42866403Y-44662445D01*
X43015066Y-44884934D01*
X44168555Y-46038423D01*
X44168555Y-61594660D01*
X43993534Y-61769376D01*
X43986280Y-61786845D01*
X40154355Y-61786845D01*
X39940511Y-61829381D01*
X39820498Y-61909572D01*
X39759224Y-61950514D01*
X37500000Y-64209738D01*
X36995131Y-63704869D01*
X36905727Y-63645131D01*
X36813844Y-63583736D01*
X36600000Y-63541200D01*
X35468422Y-63541200D01*
X35461825Y-63525234D01*
X35176269Y-63239179D01*
X34802982Y-63084176D01*
X34398792Y-63083824D01*
X34025234Y-63238175D01*
X33821854Y-63441200D01*
X29231462Y-63441200D01*
X28595134Y-62804872D01*
X28595132Y-62804869D01*
X28131423Y-62341160D01*
X32338445Y-62341160D01*
X32421824Y-62511856D01*
X32853055Y-62656091D01*
X33306657Y-62624322D01*
X33578176Y-62511856D01*
X33661555Y-62341160D01*
X33000000Y-61679605D01*
X32338445Y-62341160D01*
X28131423Y-62341160D01*
X27595131Y-61804869D01*
X27568156Y-61786845D01*
X27413844Y-61683736D01*
X27200000Y-61641200D01*
X25168422Y-61641200D01*
X25161825Y-61625234D01*
X24890121Y-61353055D01*
X31843909Y-61353055D01*
X31875678Y-61806657D01*
X31988144Y-62078176D01*
X32158840Y-62161555D01*
X32820395Y-61500000D01*
X33179605Y-61500000D01*
X33841160Y-62161555D01*
X34011856Y-62078176D01*
X34129529Y-61726359D01*
X36856802Y-61726359D01*
X37030446Y-62146612D01*
X37351697Y-62468423D01*
X37771646Y-62642801D01*
X38226359Y-62643198D01*
X38646612Y-62469554D01*
X38968423Y-62148303D01*
X39142801Y-61728354D01*
X39143198Y-61273641D01*
X38969554Y-60853388D01*
X38648303Y-60531577D01*
X38228354Y-60357199D01*
X37773641Y-60356802D01*
X37353388Y-60530446D01*
X37031577Y-60851697D01*
X36857199Y-61271646D01*
X36856802Y-61726359D01*
X34129529Y-61726359D01*
X34156091Y-61646945D01*
X34124322Y-61193343D01*
X34011856Y-60921824D01*
X33841160Y-60838445D01*
X33179605Y-61500000D01*
X32820395Y-61500000D01*
X32158840Y-60838445D01*
X31988144Y-60921824D01*
X31843909Y-61353055D01*
X24890121Y-61353055D01*
X24876269Y-61339179D01*
X24858800Y-61331925D01*
X24858800Y-60658840D01*
X32338445Y-60658840D01*
X33000000Y-61320395D01*
X33661555Y-60658840D01*
X33578176Y-60488144D01*
X33146945Y-60343909D01*
X32693343Y-60375678D01*
X32421824Y-60488144D01*
X32338445Y-60658840D01*
X24858800Y-60658840D01*
X24858800Y-56131462D01*
X25331462Y-55658800D01*
X27231578Y-55658800D01*
X27238175Y-55674766D01*
X27523731Y-55960821D01*
X27897018Y-56115824D01*
X28301208Y-56116176D01*
X28674766Y-55961825D01*
X28960821Y-55676269D01*
X29115824Y-55302982D01*
X29116176Y-54898792D01*
X28961825Y-54525234D01*
X28676269Y-54239179D01*
X28302982Y-54084176D01*
X27898792Y-54083824D01*
X27525234Y-54238175D01*
X27239179Y-54523731D01*
X27231925Y-54541200D01*
X25100000Y-54541200D01*
X24886156Y-54583736D01*
X24704869Y-54704869D01*
X23904869Y-55504869D01*
X23783736Y-55686156D01*
X23741200Y-55900000D01*
X23741200Y-61331578D01*
X23725234Y-61338175D01*
X23439179Y-61623731D01*
X23284176Y-61997018D01*
X23283824Y-62401208D01*
X23438175Y-62774766D01*
X23723731Y-63060821D01*
X24097018Y-63215824D01*
X24501208Y-63216176D01*
X24874766Y-63061825D01*
X25160821Y-62776269D01*
X25168075Y-62758800D01*
X26968538Y-62758800D01*
X27804869Y-63595132D01*
X27804872Y-63595134D01*
X28209738Y-64000000D01*
X26268538Y-65941200D01*
X19231463Y-65941200D01*
X18491999Y-65201737D01*
X18491999Y-63139168D01*
X18797018Y-63265824D01*
X19201208Y-63266176D01*
X19574766Y-63111825D01*
X19860821Y-62826269D01*
X20015824Y-62452982D01*
X20016176Y-62048792D01*
X20008952Y-62031310D01*
X20795131Y-61245131D01*
X20898490Y-61090444D01*
X20916264Y-61063844D01*
X20958800Y-60850000D01*
X20958800Y-57834020D01*
X21816801Y-57834020D01*
X22021053Y-57929481D01*
X22550459Y-57783392D01*
X22983660Y-57445829D01*
X23202612Y-57102145D01*
X23182766Y-56877562D01*
X22021554Y-56672809D01*
X21816801Y-57834020D01*
X20958800Y-57834020D01*
X20958800Y-57552984D01*
X21014823Y-57609007D01*
X21019546Y-57604284D01*
X21342077Y-57809760D01*
X21566660Y-57789914D01*
X21723521Y-56900309D01*
X21904396Y-56719434D01*
X21724788Y-56539826D01*
X21656223Y-56608391D01*
X20958800Y-56485416D01*
X20958800Y-56227498D01*
X21543913Y-56330669D01*
X21724788Y-56511544D01*
X21813664Y-56422668D01*
X22065661Y-56422668D01*
X23226872Y-56627421D01*
X23322333Y-56423169D01*
X23176244Y-55893763D01*
X22838681Y-55460562D01*
X22494997Y-55241610D01*
X22270414Y-55261456D01*
X22065661Y-56422668D01*
X21813664Y-56422668D01*
X21904396Y-56331936D01*
X21835831Y-56263371D01*
X22020273Y-55217350D01*
X21816021Y-55121889D01*
X21286615Y-55267978D01*
X21035845Y-55463385D01*
X21014823Y-55442363D01*
X20958800Y-55498386D01*
X20958800Y-51868422D01*
X20974766Y-51861825D01*
X21260821Y-51576269D01*
X21415824Y-51202982D01*
X21416176Y-50798792D01*
X21261825Y-50425234D01*
X20976269Y-50139179D01*
X20602982Y-49984176D01*
X20198792Y-49983824D01*
X19825234Y-50138175D01*
X19812868Y-50150519D01*
X19812868Y-48125419D01*
X20145131Y-47793156D01*
X20266264Y-47611869D01*
X20308800Y-47398025D01*
X20308800Y-47368422D01*
X20324766Y-47361825D01*
X20610821Y-47076269D01*
X20765824Y-46702982D01*
X20766176Y-46298792D01*
X20611825Y-45925234D01*
X20326269Y-45639179D01*
X19972469Y-45492268D01*
X22852690Y-42612046D01*
X22619284Y-43174151D01*
X22618718Y-43823003D01*
X22866499Y-44422680D01*
X23324907Y-44881888D01*
X23924151Y-45130716D01*
X24573003Y-45131282D01*
X25172680Y-44883501D01*
X25631888Y-44425093D01*
X25880716Y-43825849D01*
X25881282Y-43176997D01*
X25633501Y-42577320D01*
X25175093Y-42118112D01*
X24575849Y-41869284D01*
X23926997Y-41868718D01*
X23362967Y-42101770D01*
X24359211Y-41105526D01*
X24469331Y-40940719D01*
X24508000Y-40746316D01*
X24508000Y-24499992D01*
X24469331Y-24305589D01*
X24469331Y-24305588D01*
X24359210Y-24140782D01*
X24138852Y-23920424D01*
X24139154Y-23573935D01*
X24004097Y-23247072D01*
X23754236Y-22996774D01*
X23427609Y-22861146D01*
X23073943Y-22860838D01*
X22747080Y-22995895D01*
X22496782Y-23245756D01*
X22361154Y-23572383D01*
X22360846Y-23926049D01*
X22495903Y-24252912D01*
X22745764Y-24503210D01*
X23072391Y-24638838D01*
X23420729Y-24639141D01*
X23492000Y-24710412D01*
X23492000Y-40535895D01*
X17463567Y-46564329D01*
X17353446Y-46729136D01*
X17314777Y-46923539D01*
X17314777Y-58109776D01*
X17041814Y-58222562D01*
X16908000Y-58356143D01*
X16908000Y-57849026D01*
X17153218Y-57604236D01*
X17288846Y-57277609D01*
X17289154Y-56923943D01*
X17154097Y-56597080D01*
X16904236Y-56346782D01*
X16577609Y-56211154D01*
X16223943Y-56210846D01*
X15897080Y-56345903D01*
X15646782Y-56595764D01*
X15511154Y-56922391D01*
X15510846Y-57276057D01*
X15535797Y-57336443D01*
X14018800Y-55819446D01*
X14018800Y-46271462D01*
X16531064Y-43759199D01*
X16547018Y-43765824D01*
X16951208Y-43766176D01*
X17324766Y-43611825D01*
X17610821Y-43326269D01*
X17618075Y-43308800D01*
X20250000Y-43308800D01*
X20463844Y-43266264D01*
X20645131Y-43145131D01*
X22313669Y-41476594D01*
X22434802Y-41295306D01*
X22477337Y-41081463D01*
X22477337Y-37737116D01*
X22699500Y-37645320D01*
X23088177Y-37257321D01*
X23298786Y-36750116D01*
X23299266Y-36200923D01*
X23089542Y-35693352D01*
X22701543Y-35304675D01*
X22194338Y-35094066D01*
X21645145Y-35093586D01*
X21547869Y-35133779D01*
X20685800Y-34271710D01*
X20685800Y-30500985D01*
X20860821Y-30326269D01*
X21015824Y-29952982D01*
X21016176Y-29548792D01*
X20861825Y-29175234D01*
X20685800Y-28998901D01*
X20685800Y-18136043D01*
X22248840Y-16573003D01*
X29868718Y-16573003D01*
X30116499Y-17172680D01*
X30574907Y-17631888D01*
X31174151Y-17880716D01*
X31823003Y-17881282D01*
X32422680Y-17633501D01*
X32780182Y-17276621D01*
X42686226Y-17276621D01*
X43230000Y-17820395D01*
X43650395Y-17400000D01*
X44781536Y-17400000D01*
X44781536Y-18600000D01*
X44808103Y-18741190D01*
X44891546Y-18870865D01*
X45018866Y-18957859D01*
X45170000Y-18988464D01*
X46370000Y-18988464D01*
X46511190Y-18961897D01*
X46640865Y-18878454D01*
X46727859Y-18751134D01*
X46758464Y-18600000D01*
X46758464Y-18298248D01*
X57993739Y-18298248D01*
X58222531Y-18851966D01*
X58645806Y-19275980D01*
X59199124Y-19505738D01*
X59798248Y-19506261D01*
X60351966Y-19277469D01*
X60775980Y-18854194D01*
X61005738Y-18300876D01*
X61005740Y-18298248D01*
X62993739Y-18298248D01*
X63222531Y-18851966D01*
X63645806Y-19275980D01*
X64199124Y-19505738D01*
X64798248Y-19506261D01*
X65351966Y-19277469D01*
X65775980Y-18854194D01*
X66005738Y-18300876D01*
X66006261Y-17701752D01*
X65777469Y-17148034D01*
X65354194Y-16724020D01*
X64800876Y-16494262D01*
X64201752Y-16493739D01*
X63648034Y-16722531D01*
X63224020Y-17145806D01*
X62994262Y-17699124D01*
X62993739Y-18298248D01*
X61005740Y-18298248D01*
X61006261Y-17701752D01*
X60777469Y-17148034D01*
X60354194Y-16724020D01*
X59800876Y-16494262D01*
X59201752Y-16493739D01*
X58648034Y-16722531D01*
X58224020Y-17145806D01*
X57994262Y-17699124D01*
X57993739Y-18298248D01*
X46758464Y-18298248D01*
X46758464Y-17400000D01*
X46731897Y-17258810D01*
X46648454Y-17129135D01*
X46521134Y-17042141D01*
X46370000Y-17011536D01*
X45170000Y-17011536D01*
X45028810Y-17038103D01*
X44899135Y-17121546D01*
X44812141Y-17248866D01*
X44781536Y-17400000D01*
X43650395Y-17400000D01*
X43773774Y-17276621D01*
X43710410Y-17122706D01*
X43338115Y-17005641D01*
X42949361Y-17039958D01*
X42749590Y-17122706D01*
X42686226Y-17276621D01*
X32780182Y-17276621D01*
X32881888Y-17175093D01*
X33130716Y-16575849D01*
X33131282Y-15926997D01*
X32883501Y-15327320D01*
X32425093Y-14868112D01*
X31825849Y-14619284D01*
X31176997Y-14618718D01*
X30577320Y-14866499D01*
X30118112Y-15324907D01*
X29869284Y-15924151D01*
X29868718Y-16573003D01*
X22248840Y-16573003D01*
X23067469Y-15754374D01*
X23173731Y-15860821D01*
X23547018Y-16015824D01*
X23951208Y-16016176D01*
X24324766Y-15861825D01*
X24501099Y-15685800D01*
X27800000Y-15685800D01*
X28062445Y-15633597D01*
X28284934Y-15484934D01*
X29256479Y-14513389D01*
X39843521Y-14513389D01*
X40815066Y-15484934D01*
X41037556Y-15633597D01*
X41300000Y-15685801D01*
X41300005Y-15685800D01*
X46601981Y-15685800D01*
X46864426Y-15633597D01*
X47086915Y-15484934D01*
X47567475Y-15004374D01*
X47673737Y-15110821D01*
X48047024Y-15265824D01*
X48451214Y-15266176D01*
X48824772Y-15111825D01*
X49110827Y-14826269D01*
X49169155Y-14685800D01*
X69249015Y-14685800D01*
X69423731Y-14860821D01*
X69797018Y-15015824D01*
X70201208Y-15016176D01*
X70574766Y-14861825D01*
X70860821Y-14576269D01*
X71015824Y-14202982D01*
X71016176Y-13798792D01*
X70861825Y-13425234D01*
X70576269Y-13139179D01*
X70202982Y-12984176D01*
X69798792Y-12983824D01*
X69425234Y-13138175D01*
X69248901Y-13314200D01*
X48645706Y-13314200D01*
X48452988Y-13234176D01*
X48048798Y-13233824D01*
X47675240Y-13388175D01*
X47498907Y-13564200D01*
X47351981Y-13564200D01*
X47089536Y-13616403D01*
X46867047Y-13765066D01*
X46317913Y-14314200D01*
X41584068Y-14314200D01*
X40993247Y-13723379D01*
X42686226Y-13723379D01*
X42749590Y-13877294D01*
X43121885Y-13994359D01*
X43510639Y-13960042D01*
X43710410Y-13877294D01*
X43773774Y-13723379D01*
X43230000Y-13179605D01*
X42686226Y-13723379D01*
X40993247Y-13723379D01*
X40612523Y-13342655D01*
X40390034Y-13193992D01*
X40127589Y-13141789D01*
X28972416Y-13141789D01*
X28972411Y-13141788D01*
X28709967Y-13193992D01*
X28487477Y-13342655D01*
X27515932Y-14314200D01*
X24500985Y-14314200D01*
X24326269Y-14139179D01*
X23952982Y-13984176D01*
X23548792Y-13983824D01*
X23175234Y-14138175D01*
X22998901Y-14314200D01*
X22851975Y-14314200D01*
X22589530Y-14366403D01*
X22367041Y-14515066D01*
X19515066Y-17367041D01*
X19366403Y-17589530D01*
X19366403Y-17589531D01*
X19314200Y-17851975D01*
X19314200Y-28999015D01*
X19139179Y-29173731D01*
X18984176Y-29547018D01*
X18983824Y-29951208D01*
X19138175Y-30324766D01*
X19314200Y-30501099D01*
X19314200Y-34555778D01*
X19366403Y-34818223D01*
X19515066Y-35040712D01*
X20577774Y-36103420D01*
X20538288Y-36198514D01*
X20537808Y-36747707D01*
X20747532Y-37255278D01*
X21135531Y-37643955D01*
X21359737Y-37737053D01*
X21359737Y-40850000D01*
X20018538Y-42191200D01*
X17618422Y-42191200D01*
X17611825Y-42175234D01*
X17326269Y-41889179D01*
X16952982Y-41734176D01*
X16548792Y-41733824D01*
X16175234Y-41888175D01*
X15889179Y-42173731D01*
X15734176Y-42547018D01*
X15733824Y-42951208D01*
X15741047Y-42968690D01*
X13064869Y-45644869D01*
X12943736Y-45826156D01*
X12901200Y-46040000D01*
X12431000Y-46040000D01*
X12431000Y-33879825D01*
X16442048Y-33879825D01*
X16651772Y-34387396D01*
X17039771Y-34776073D01*
X17546976Y-34986682D01*
X18096169Y-34987162D01*
X18603740Y-34777438D01*
X18992417Y-34389439D01*
X19203026Y-33882234D01*
X19203506Y-33333041D01*
X18993782Y-32825470D01*
X18605783Y-32436793D01*
X18098578Y-32226184D01*
X17549385Y-32225704D01*
X17041814Y-32435428D01*
X16653137Y-32823427D01*
X16442528Y-33330632D01*
X16442048Y-33879825D01*
X12431000Y-33879825D01*
X12431000Y-31315011D01*
X12442942Y-31315011D01*
X12761289Y-31762524D01*
X13226658Y-32054147D01*
X13624501Y-32142347D01*
X13828753Y-32046886D01*
X13624000Y-30885675D01*
X12462788Y-31090428D01*
X12442942Y-31315011D01*
X12431000Y-31315011D01*
X12431000Y-30841568D01*
X13874141Y-30841568D01*
X14078894Y-32002780D01*
X14303477Y-32022626D01*
X14750990Y-31704279D01*
X15042613Y-31238910D01*
X15130813Y-30841067D01*
X15035352Y-30636815D01*
X13874141Y-30841568D01*
X12431000Y-30841568D01*
X12431000Y-30838115D01*
X13579893Y-30635534D01*
X13375140Y-29474322D01*
X13150557Y-29454476D01*
X12703044Y-29772823D01*
X12431000Y-30206948D01*
X12431000Y-29430216D01*
X13625281Y-29430216D01*
X13830034Y-30591427D01*
X14991246Y-30386674D01*
X15011092Y-30162091D01*
X14692745Y-29714578D01*
X14227376Y-29422955D01*
X13829533Y-29334755D01*
X13625281Y-29430216D01*
X12431000Y-29430216D01*
X12431000Y-12431000D01*
X42481392Y-12431000D01*
X42506619Y-12456227D01*
X42506619Y-12456227D01*
G37*
X42506619Y-12456227D02*
X42352706Y-12519590D01*
X42235641Y-12891885D01*
X42269958Y-13280639D01*
X42352706Y-13480410D01*
X42506621Y-13543774D01*
X43050395Y-13000000D01*
X43036253Y-12985858D01*
X43215858Y-12806253D01*
X43230000Y-12820395D01*
X43244143Y-12806253D01*
X43423748Y-12985858D01*
X43409605Y-13000000D01*
X43953379Y-13543774D01*
X44107294Y-13480410D01*
X44224359Y-13108115D01*
X44190042Y-12719361D01*
X44107294Y-12519590D01*
X43953381Y-12456227D01*
X43978608Y-12431000D01*
X44781536Y-12431000D01*
X44781536Y-13600000D01*
X44808103Y-13741190D01*
X44891546Y-13870865D01*
X45018866Y-13957859D01*
X45170000Y-13988464D01*
X46370000Y-13988464D01*
X46511190Y-13961897D01*
X46640865Y-13878454D01*
X46727859Y-13751134D01*
X46758464Y-13600000D01*
X46758464Y-12431000D01*
X76569000Y-12431000D01*
X76569000Y-62161885D01*
X75420107Y-62364466D01*
X75624860Y-63525678D01*
X75849443Y-63545524D01*
X76296956Y-63227177D01*
X76569000Y-62793052D01*
X76569000Y-111569000D01*
X12431000Y-111569000D01*
X12431000Y-109800000D01*
X16827251Y-109800000D01*
X16913343Y-110232815D01*
X17158513Y-110599738D01*
X17525436Y-110844908D01*
X17958251Y-110931000D01*
X20041749Y-110931000D01*
X20474564Y-110844908D01*
X20841487Y-110599738D01*
X21086657Y-110232815D01*
X21172749Y-109800000D01*
X30827251Y-109800000D01*
X30913343Y-110232815D01*
X31158513Y-110599738D01*
X31525436Y-110844908D01*
X31958251Y-110931000D01*
X34041749Y-110931000D01*
X34474564Y-110844908D01*
X34841487Y-110599738D01*
X35086657Y-110232815D01*
X35172749Y-109800000D01*
X53827251Y-109800000D01*
X53913343Y-110232815D01*
X54158513Y-110599738D01*
X54525436Y-110844908D01*
X54958251Y-110931000D01*
X57041749Y-110931000D01*
X57474564Y-110844908D01*
X57841487Y-110599738D01*
X58086657Y-110232815D01*
X58172749Y-109800000D01*
X67827251Y-109800000D01*
X67913343Y-110232815D01*
X68158513Y-110599738D01*
X68525436Y-110844908D01*
X68958251Y-110931000D01*
X71041749Y-110931000D01*
X71474564Y-110844908D01*
X71841487Y-110599738D01*
X72086657Y-110232815D01*
X72172749Y-109800000D01*
X72086657Y-109367185D01*
X71841487Y-109000262D01*
X71474564Y-108755092D01*
X71041749Y-108669000D01*
X68958251Y-108669000D01*
X68525436Y-108755092D01*
X68158513Y-109000262D01*
X67913343Y-109367185D01*
X67827251Y-109800000D01*
X58172749Y-109800000D01*
X58086657Y-109367185D01*
X57841487Y-109000262D01*
X57474564Y-108755092D01*
X57041749Y-108669000D01*
X54958251Y-108669000D01*
X54525436Y-108755092D01*
X54158513Y-109000262D01*
X53913343Y-109367185D01*
X53827251Y-109800000D01*
X35172749Y-109800000D01*
X35086657Y-109367185D01*
X34841487Y-109000262D01*
X34474564Y-108755092D01*
X34041749Y-108669000D01*
X31958251Y-108669000D01*
X31525436Y-108755092D01*
X31158513Y-109000262D01*
X30913343Y-109367185D01*
X30827251Y-109800000D01*
X21172749Y-109800000D01*
X21086657Y-109367185D01*
X20841487Y-109000262D01*
X20474564Y-108755092D01*
X20041749Y-108669000D01*
X17958251Y-108669000D01*
X17525436Y-108755092D01*
X17158513Y-109000262D01*
X16913343Y-109367185D01*
X16827251Y-109800000D01*
X12431000Y-109800000D01*
X12431000Y-106627000D01*
X12669000Y-106627000D01*
X12669000Y-107377000D01*
X12841753Y-107991489D01*
X13236511Y-108493093D01*
X13793175Y-108805448D01*
X13920194Y-108836161D01*
X14173000Y-108780490D01*
X14173000Y-106627000D01*
X14427000Y-106627000D01*
X14427000Y-108780490D01*
X14679806Y-108836161D01*
X14806825Y-108805448D01*
X15363489Y-108493093D01*
X15758247Y-107991489D01*
X15931000Y-107377000D01*
X15931000Y-106845432D01*
X22311196Y-106845432D01*
X22453433Y-107369640D01*
X22785448Y-107799513D01*
X23256695Y-108069607D01*
X23359443Y-108088350D01*
X23573000Y-108029462D01*
X23573000Y-106627000D01*
X23827000Y-106627000D01*
X23827000Y-108029462D01*
X24040557Y-108088350D01*
X24143305Y-108069607D01*
X24614552Y-107799513D01*
X24946567Y-107369640D01*
X25088804Y-106845432D01*
X24991384Y-106627000D01*
X26669000Y-106627000D01*
X26669000Y-107377000D01*
X26841753Y-107991489D01*
X27236511Y-108493093D01*
X27793175Y-108805448D01*
X27920194Y-108836161D01*
X28173000Y-108780490D01*
X28173000Y-106627000D01*
X28427000Y-106627000D01*
X28427000Y-108780490D01*
X28679806Y-108836161D01*
X28806825Y-108805448D01*
X29363489Y-108493093D01*
X29758247Y-107991489D01*
X29931000Y-107377000D01*
X29931000Y-106845432D01*
X36311196Y-106845432D01*
X36453433Y-107369640D01*
X36785448Y-107799513D01*
X37256695Y-108069607D01*
X37359443Y-108088350D01*
X37573000Y-108029462D01*
X37573000Y-106627000D01*
X37827000Y-106627000D01*
X37827000Y-108029462D01*
X38040557Y-108088350D01*
X38143305Y-108069607D01*
X38614552Y-107799513D01*
X38946567Y-107369640D01*
X39088804Y-106845432D01*
X38991384Y-106627000D01*
X49669000Y-106627000D01*
X49669000Y-107377000D01*
X49841753Y-107991489D01*
X50236511Y-108493093D01*
X50793175Y-108805448D01*
X50920194Y-108836161D01*
X51173000Y-108780490D01*
X51173000Y-106627000D01*
X51427000Y-106627000D01*
X51427000Y-108780490D01*
X51679806Y-108836161D01*
X51806825Y-108805448D01*
X52363489Y-108493093D01*
X52758247Y-107991489D01*
X52931000Y-107377000D01*
X52931000Y-106845432D01*
X59311196Y-106845432D01*
X59453433Y-107369640D01*
X59785448Y-107799513D01*
X60256695Y-108069607D01*
X60359443Y-108088350D01*
X60573000Y-108029462D01*
X60573000Y-106627000D01*
X60827000Y-106627000D01*
X60827000Y-108029462D01*
X61040557Y-108088350D01*
X61143305Y-108069607D01*
X61614552Y-107799513D01*
X61946567Y-107369640D01*
X62088804Y-106845432D01*
X61991384Y-106627000D01*
X63669000Y-106627000D01*
X63669000Y-107377000D01*
X63841753Y-107991489D01*
X64236511Y-108493093D01*
X64793175Y-108805448D01*
X64920194Y-108836161D01*
X65173000Y-108780490D01*
X65173000Y-106627000D01*
X65427000Y-106627000D01*
X65427000Y-108780490D01*
X65679806Y-108836161D01*
X65806825Y-108805448D01*
X66363489Y-108493093D01*
X66758247Y-107991489D01*
X66931000Y-107377000D01*
X66931000Y-106845432D01*
X73311196Y-106845432D01*
X73453433Y-107369640D01*
X73785448Y-107799513D01*
X74256695Y-108069607D01*
X74359443Y-108088350D01*
X74573000Y-108029462D01*
X74573000Y-106627000D01*
X74827000Y-106627000D01*
X74827000Y-108029462D01*
X75040557Y-108088350D01*
X75143305Y-108069607D01*
X75614552Y-107799513D01*
X75946567Y-107369640D01*
X76088804Y-106845432D01*
X75991384Y-106627000D01*
X74827000Y-106627000D01*
X74573000Y-106627000D01*
X73408616Y-106627000D01*
X73311196Y-106845432D01*
X66931000Y-106845432D01*
X66931000Y-106627000D01*
X65427000Y-106627000D01*
X65173000Y-106627000D01*
X63669000Y-106627000D01*
X61991384Y-106627000D01*
X60827000Y-106627000D01*
X60573000Y-106627000D01*
X59408616Y-106627000D01*
X59311196Y-106845432D01*
X52931000Y-106845432D01*
X52931000Y-106627000D01*
X51427000Y-106627000D01*
X51173000Y-106627000D01*
X49669000Y-106627000D01*
X38991384Y-106627000D01*
X37827000Y-106627000D01*
X37573000Y-106627000D01*
X36408616Y-106627000D01*
X36311196Y-106845432D01*
X29931000Y-106845432D01*
X29931000Y-106627000D01*
X28427000Y-106627000D01*
X28173000Y-106627000D01*
X26669000Y-106627000D01*
X24991384Y-106627000D01*
X23827000Y-106627000D01*
X23573000Y-106627000D01*
X22408616Y-106627000D01*
X22311196Y-106845432D01*
X15931000Y-106845432D01*
X15931000Y-106627000D01*
X14427000Y-106627000D01*
X14173000Y-106627000D01*
X12669000Y-106627000D01*
X12431000Y-106627000D01*
X12431000Y-105623000D01*
X12669000Y-105623000D01*
X12669000Y-106373000D01*
X14173000Y-106373000D01*
X14173000Y-104219510D01*
X14427000Y-104219510D01*
X14427000Y-106373000D01*
X15931000Y-106373000D01*
X15931000Y-106154568D01*
X22311196Y-106154568D01*
X22408616Y-106373000D01*
X23573000Y-106373000D01*
X23573000Y-104970538D01*
X23827000Y-104970538D01*
X23827000Y-106373000D01*
X24991384Y-106373000D01*
X25088804Y-106154568D01*
X24946567Y-105630360D01*
X24940883Y-105623000D01*
X26669000Y-105623000D01*
X26669000Y-106373000D01*
X28173000Y-106373000D01*
X28173000Y-104219510D01*
X28427000Y-104219510D01*
X28427000Y-106373000D01*
X29931000Y-106373000D01*
X29931000Y-106154568D01*
X36311196Y-106154568D01*
X36408616Y-106373000D01*
X37573000Y-106373000D01*
X37573000Y-104970538D01*
X37827000Y-104970538D01*
X37827000Y-106373000D01*
X38991384Y-106373000D01*
X39088804Y-106154568D01*
X38946567Y-105630360D01*
X38940883Y-105623000D01*
X49669000Y-105623000D01*
X49669000Y-106373000D01*
X51173000Y-106373000D01*
X51173000Y-104219510D01*
X51427000Y-104219510D01*
X51427000Y-106373000D01*
X52931000Y-106373000D01*
X52931000Y-106154568D01*
X59311196Y-106154568D01*
X59408616Y-106373000D01*
X60573000Y-106373000D01*
X60573000Y-104970538D01*
X60827000Y-104970538D01*
X60827000Y-106373000D01*
X61991384Y-106373000D01*
X62088804Y-106154568D01*
X61946567Y-105630360D01*
X61940883Y-105623000D01*
X63669000Y-105623000D01*
X63669000Y-106373000D01*
X65173000Y-106373000D01*
X65173000Y-104219510D01*
X65427000Y-104219510D01*
X65427000Y-106373000D01*
X66931000Y-106373000D01*
X66931000Y-106154568D01*
X73311196Y-106154568D01*
X73408616Y-106373000D01*
X74573000Y-106373000D01*
X74573000Y-104970538D01*
X74827000Y-104970538D01*
X74827000Y-106373000D01*
X75991384Y-106373000D01*
X76088804Y-106154568D01*
X75946567Y-105630360D01*
X75614552Y-105200487D01*
X75143305Y-104930393D01*
X75040557Y-104911650D01*
X74827000Y-104970538D01*
X74573000Y-104970538D01*
X74359443Y-104911650D01*
X74256695Y-104930393D01*
X73785448Y-105200487D01*
X73453433Y-105630360D01*
X73311196Y-106154568D01*
X66931000Y-106154568D01*
X66931000Y-105623000D01*
X66758247Y-105008511D01*
X66363489Y-104506907D01*
X65806825Y-104194552D01*
X65679806Y-104163839D01*
X65427000Y-104219510D01*
X65173000Y-104219510D01*
X64920194Y-104163839D01*
X64793175Y-104194552D01*
X64236511Y-104506907D01*
X63841753Y-105008511D01*
X63669000Y-105623000D01*
X61940883Y-105623000D01*
X61614552Y-105200487D01*
X61143305Y-104930393D01*
X61040557Y-104911650D01*
X60827000Y-104970538D01*
X60573000Y-104970538D01*
X60359443Y-104911650D01*
X60256695Y-104930393D01*
X59785448Y-105200487D01*
X59453433Y-105630360D01*
X59311196Y-106154568D01*
X52931000Y-106154568D01*
X52931000Y-105623000D01*
X52758247Y-105008511D01*
X52363489Y-104506907D01*
X51806825Y-104194552D01*
X51679806Y-104163839D01*
X51427000Y-104219510D01*
X51173000Y-104219510D01*
X50920194Y-104163839D01*
X50793175Y-104194552D01*
X50236511Y-104506907D01*
X49841753Y-105008511D01*
X49669000Y-105623000D01*
X38940883Y-105623000D01*
X38614552Y-105200487D01*
X38143305Y-104930393D01*
X38040557Y-104911650D01*
X37827000Y-104970538D01*
X37573000Y-104970538D01*
X37359443Y-104911650D01*
X37256695Y-104930393D01*
X36785448Y-105200487D01*
X36453433Y-105630360D01*
X36311196Y-106154568D01*
X29931000Y-106154568D01*
X29931000Y-105623000D01*
X29758247Y-105008511D01*
X29363489Y-104506907D01*
X28806825Y-104194552D01*
X28679806Y-104163839D01*
X28427000Y-104219510D01*
X28173000Y-104219510D01*
X27920194Y-104163839D01*
X27793175Y-104194552D01*
X27236511Y-104506907D01*
X26841753Y-105008511D01*
X26669000Y-105623000D01*
X24940883Y-105623000D01*
X24614552Y-105200487D01*
X24143305Y-104930393D01*
X24040557Y-104911650D01*
X23827000Y-104970538D01*
X23573000Y-104970538D01*
X23359443Y-104911650D01*
X23256695Y-104930393D01*
X22785448Y-105200487D01*
X22453433Y-105630360D01*
X22311196Y-106154568D01*
X15931000Y-106154568D01*
X15931000Y-105623000D01*
X15758247Y-105008511D01*
X15363489Y-104506907D01*
X14806825Y-104194552D01*
X14679806Y-104163839D01*
X14427000Y-104219510D01*
X14173000Y-104219510D01*
X13920194Y-104163839D01*
X13793175Y-104194552D01*
X13236511Y-104506907D01*
X12841753Y-105008511D01*
X12669000Y-105623000D01*
X12431000Y-105623000D01*
X12431000Y-92627000D01*
X12669000Y-92627000D01*
X12669000Y-93377000D01*
X12841753Y-93991489D01*
X13236511Y-94493093D01*
X13793175Y-94805448D01*
X13920194Y-94836161D01*
X14173000Y-94780490D01*
X14173000Y-92627000D01*
X14427000Y-92627000D01*
X14427000Y-94780490D01*
X14679806Y-94836161D01*
X14806825Y-94805448D01*
X15363489Y-94493093D01*
X15758247Y-93991489D01*
X15931000Y-93377000D01*
X15931000Y-92627000D01*
X14427000Y-92627000D01*
X14173000Y-92627000D01*
X12669000Y-92627000D01*
X12431000Y-92627000D01*
X12431000Y-91623000D01*
X12669000Y-91623000D01*
X12669000Y-92373000D01*
X14173000Y-92373000D01*
X14173000Y-90219510D01*
X14427000Y-90219510D01*
X14427000Y-92373000D01*
X15931000Y-92373000D01*
X15931000Y-91623000D01*
X15758247Y-91008511D01*
X15363489Y-90506907D01*
X14806825Y-90194552D01*
X14679806Y-90163839D01*
X14427000Y-90219510D01*
X14173000Y-90219510D01*
X13920194Y-90163839D01*
X13793175Y-90194552D01*
X13236511Y-90506907D01*
X12841753Y-91008511D01*
X12669000Y-91623000D01*
X12431000Y-91623000D01*
X12431000Y-62739860D01*
X12556012Y-63042412D01*
X12944011Y-63431089D01*
X13451216Y-63641698D01*
X14000409Y-63642178D01*
X14507980Y-63432454D01*
X14896657Y-63044455D01*
X15107266Y-62537250D01*
X15107746Y-61988057D01*
X14898022Y-61480486D01*
X14510023Y-61091809D01*
X14002818Y-60881200D01*
X13453625Y-60880720D01*
X12946054Y-61090444D01*
X12557377Y-61478443D01*
X12431000Y-61782794D01*
X12431000Y-46040000D01*
X12901200Y-46040000D01*
X12901200Y-56050908D01*
X12943736Y-56264752D01*
X13044974Y-56416264D01*
X13064869Y-56446039D01*
X15125180Y-58506350D01*
X15125180Y-75531578D01*
X15109214Y-75538175D01*
X14823159Y-75823731D01*
X14668156Y-76197018D01*
X14667804Y-76601208D01*
X14822155Y-76974766D01*
X15107711Y-77260821D01*
X15480998Y-77415824D01*
X15885188Y-77416176D01*
X16192000Y-77289404D01*
X16192000Y-98100000D01*
X16230669Y-98294403D01*
X16340790Y-98459210D01*
X18350580Y-100469000D01*
X17958251Y-100469000D01*
X17525436Y-100555092D01*
X17158513Y-100800262D01*
X16913343Y-101167185D01*
X16827251Y-101600000D01*
X16913343Y-102032815D01*
X17158513Y-102399738D01*
X17525436Y-102644908D01*
X17958251Y-102731000D01*
X20041749Y-102731000D01*
X20474564Y-102644908D01*
X20841487Y-102399738D01*
X21086657Y-102032815D01*
X21172749Y-101600000D01*
X21086657Y-101167185D01*
X20841487Y-100800262D01*
X20474564Y-100555092D01*
X20041749Y-100469000D01*
X19508000Y-100469000D01*
X19508000Y-100400000D01*
X19469331Y-100205597D01*
X19469331Y-100205596D01*
X19359210Y-100040790D01*
X17208000Y-97889580D01*
X17208000Y-96632804D01*
X17525436Y-96844908D01*
X17958251Y-96931000D01*
X20041749Y-96931000D01*
X20474564Y-96844908D01*
X20841487Y-96599738D01*
X21086657Y-96232815D01*
X21172749Y-95800000D01*
X21086657Y-95367185D01*
X20841487Y-95000262D01*
X20474564Y-94755092D01*
X20041749Y-94669000D01*
X17958251Y-94669000D01*
X17525436Y-94755092D01*
X17208000Y-94967196D01*
X17208000Y-92845432D01*
X22311196Y-92845432D01*
X22453433Y-93369640D01*
X22785448Y-93799513D01*
X23256695Y-94069607D01*
X23359443Y-94088350D01*
X23573000Y-94029462D01*
X23573000Y-92627000D01*
X23827000Y-92627000D01*
X23827000Y-94029462D01*
X24040557Y-94088350D01*
X24143305Y-94069607D01*
X24614552Y-93799513D01*
X24946567Y-93369640D01*
X25088804Y-92845432D01*
X24991384Y-92627000D01*
X23827000Y-92627000D01*
X23573000Y-92627000D01*
X22408616Y-92627000D01*
X22311196Y-92845432D01*
X17208000Y-92845432D01*
X17208000Y-92154568D01*
X22311196Y-92154568D01*
X22408616Y-92373000D01*
X23573000Y-92373000D01*
X23573000Y-90970538D01*
X23827000Y-90970538D01*
X23827000Y-92373000D01*
X24991384Y-92373000D01*
X25088804Y-92154568D01*
X24946567Y-91630360D01*
X24614552Y-91200487D01*
X24143305Y-90930393D01*
X24040557Y-90911650D01*
X23827000Y-90970538D01*
X23573000Y-90970538D01*
X23359443Y-90911650D01*
X23256695Y-90930393D01*
X22785448Y-91200487D01*
X22453433Y-91630360D01*
X22311196Y-92154568D01*
X17208000Y-92154568D01*
X17208000Y-88432804D01*
X17525436Y-88644908D01*
X17958251Y-88731000D01*
X20041749Y-88731000D01*
X20474564Y-88644908D01*
X20841487Y-88399738D01*
X21086657Y-88032815D01*
X21172749Y-87600000D01*
X21086657Y-87167185D01*
X20841487Y-86800262D01*
X20474564Y-86555092D01*
X20041749Y-86469000D01*
X17958251Y-86469000D01*
X17525436Y-86555092D01*
X17208000Y-86767196D01*
X17208000Y-74900000D01*
X17169331Y-74705597D01*
X17169331Y-74705596D01*
X17059210Y-74540790D01*
X16908000Y-74389580D01*
X16908000Y-60431206D01*
X17039771Y-60563207D01*
X17546976Y-60773816D01*
X18096169Y-60774296D01*
X18113904Y-60766968D01*
X17538068Y-61342804D01*
X17416935Y-61524091D01*
X17374399Y-61737935D01*
X17374399Y-65433199D01*
X17416935Y-65647043D01*
X17462718Y-65715561D01*
X17538068Y-65828330D01*
X18441200Y-66731463D01*
X18441200Y-69200000D01*
X18483736Y-69413844D01*
X18600669Y-69588846D01*
X18604869Y-69595131D01*
X26069870Y-77060133D01*
X26069873Y-77060135D01*
X26090801Y-77081063D01*
X26084176Y-77097018D01*
X26083824Y-77501208D01*
X26238175Y-77874766D01*
X26523731Y-78160821D01*
X26897018Y-78315824D01*
X27301208Y-78316176D01*
X27674766Y-78161825D01*
X27960821Y-77876269D01*
X28115824Y-77502982D01*
X28116176Y-77098792D01*
X27961825Y-76725234D01*
X27676269Y-76439179D01*
X27302982Y-76284176D01*
X26898792Y-76283824D01*
X26881310Y-76291048D01*
X26860135Y-76269873D01*
X26860133Y-76269870D01*
X20366320Y-69776057D01*
X28110846Y-69776057D01*
X28245903Y-70102920D01*
X28492000Y-70349447D01*
X28492000Y-96596000D01*
X28530669Y-96790403D01*
X28640790Y-96955210D01*
X32154580Y-100469000D01*
X31958251Y-100469000D01*
X31525436Y-100555092D01*
X31158513Y-100800262D01*
X30913343Y-101167185D01*
X30827251Y-101600000D01*
X30913343Y-102032815D01*
X31158513Y-102399738D01*
X31525436Y-102644908D01*
X31958251Y-102731000D01*
X34041749Y-102731000D01*
X34474564Y-102644908D01*
X34841487Y-102399738D01*
X35086657Y-102032815D01*
X35172749Y-101600000D01*
X35086657Y-101167185D01*
X34841487Y-100800262D01*
X34474564Y-100555092D01*
X34041749Y-100469000D01*
X33482738Y-100469000D01*
X33469331Y-100401597D01*
X33469331Y-100401596D01*
X33359210Y-100236790D01*
X29508000Y-96385580D01*
X29508000Y-70349026D01*
X29753218Y-70104236D01*
X29888846Y-69777609D01*
X29889154Y-69423943D01*
X29754097Y-69097080D01*
X29504236Y-68846782D01*
X29177609Y-68711154D01*
X28823943Y-68710846D01*
X28497080Y-68845903D01*
X28246782Y-69095764D01*
X28111154Y-69422391D01*
X28110846Y-69776057D01*
X20366320Y-69776057D01*
X19558800Y-68968538D01*
X19558800Y-67058800D01*
X26500000Y-67058800D01*
X26713844Y-67016264D01*
X26895131Y-66895131D01*
X29231462Y-64558800D01*
X33690259Y-64558800D01*
X33738175Y-64674766D01*
X34023731Y-64960821D01*
X34397018Y-65115824D01*
X34801208Y-65116176D01*
X35174766Y-64961825D01*
X35460821Y-64676269D01*
X35468075Y-64658800D01*
X36368538Y-64658800D01*
X36901399Y-65191661D01*
X36901399Y-70356161D01*
X36941200Y-70556255D01*
X36941200Y-72456899D01*
X36983736Y-72670743D01*
X37033957Y-72745903D01*
X37104869Y-72852030D01*
X38518133Y-74265295D01*
X38511508Y-74281249D01*
X38511156Y-74685439D01*
X38665507Y-75058997D01*
X38951063Y-75345052D01*
X39304862Y-75491963D01*
X31826945Y-82969880D01*
X31604236Y-82746782D01*
X31277609Y-82611154D01*
X30923943Y-82610846D01*
X30597080Y-82745903D01*
X30346782Y-82995764D01*
X30211154Y-83322391D01*
X30210846Y-83676057D01*
X30345903Y-84002920D01*
X30592000Y-84249447D01*
X30592000Y-95400000D01*
X30630669Y-95594403D01*
X30740790Y-95759210D01*
X34640790Y-99659210D01*
X34805597Y-99769331D01*
X35000000Y-99808000D01*
X47050974Y-99808000D01*
X47295764Y-100053218D01*
X47622391Y-100188846D01*
X47976057Y-100189154D01*
X48302920Y-100054097D01*
X48553218Y-99804236D01*
X48688846Y-99477609D01*
X48689154Y-99123943D01*
X48554097Y-98797080D01*
X48304236Y-98546782D01*
X47977609Y-98411154D01*
X47623943Y-98410846D01*
X47297080Y-98545903D01*
X47050553Y-98792000D01*
X35210420Y-98792000D01*
X34094477Y-97676057D01*
X34510846Y-97676057D01*
X34645903Y-98002920D01*
X34895764Y-98253218D01*
X35222391Y-98388846D01*
X35576057Y-98389154D01*
X35902920Y-98254097D01*
X36098559Y-98058800D01*
X46700000Y-98058800D01*
X46913844Y-98016264D01*
X47095131Y-97895131D01*
X50145131Y-94845132D01*
X50238366Y-94705596D01*
X50266264Y-94663844D01*
X50308800Y-94450000D01*
X50308800Y-94368422D01*
X50324766Y-94361825D01*
X50610821Y-94076269D01*
X50765824Y-93702982D01*
X50766176Y-93298792D01*
X50611825Y-92925234D01*
X50326269Y-92639179D01*
X49952982Y-92484176D01*
X49548792Y-92483824D01*
X49175234Y-92638175D01*
X48889179Y-92923731D01*
X48734176Y-93297018D01*
X48733824Y-93701208D01*
X48888175Y-94074766D01*
X49111378Y-94298359D01*
X46468538Y-96941200D01*
X36098315Y-96941200D01*
X35904236Y-96746782D01*
X35577609Y-96611154D01*
X35223943Y-96610846D01*
X34897080Y-96745903D01*
X34646782Y-96995764D01*
X34511154Y-97322391D01*
X34510846Y-97676057D01*
X34094477Y-97676057D01*
X32119628Y-95701208D01*
X34983824Y-95701208D01*
X35138175Y-96074766D01*
X35423731Y-96360821D01*
X35797018Y-96515824D01*
X36201208Y-96516176D01*
X36574766Y-96361825D01*
X36860821Y-96076269D01*
X36868075Y-96058800D01*
X45900000Y-96058800D01*
X46113844Y-96016264D01*
X46295131Y-95895131D01*
X47795131Y-94395132D01*
X47884204Y-94261825D01*
X47916264Y-94213844D01*
X47958800Y-94000000D01*
X47958800Y-91726359D01*
X49856802Y-91726359D01*
X50030446Y-92146612D01*
X50351697Y-92468423D01*
X50771646Y-92642801D01*
X51226359Y-92643198D01*
X51646612Y-92469554D01*
X51775229Y-92341160D01*
X55338445Y-92341160D01*
X55421824Y-92511856D01*
X55853055Y-92656091D01*
X56306657Y-92624322D01*
X56578176Y-92511856D01*
X56661555Y-92341160D01*
X56000000Y-91679605D01*
X55338445Y-92341160D01*
X51775229Y-92341160D01*
X51968423Y-92148303D01*
X52142801Y-91728354D01*
X52143128Y-91353055D01*
X54843909Y-91353055D01*
X54875678Y-91806657D01*
X54988144Y-92078176D01*
X55158840Y-92161555D01*
X55820395Y-91500000D01*
X56179605Y-91500000D01*
X56841160Y-92161555D01*
X57011856Y-92078176D01*
X57156091Y-91646945D01*
X57124322Y-91193343D01*
X57011856Y-90921824D01*
X56841160Y-90838445D01*
X56179605Y-91500000D01*
X55820395Y-91500000D01*
X55158840Y-90838445D01*
X54988144Y-90921824D01*
X54843909Y-91353055D01*
X52143128Y-91353055D01*
X52143198Y-91273641D01*
X51969554Y-90853388D01*
X51775345Y-90658840D01*
X55338445Y-90658840D01*
X56000000Y-91320395D01*
X56661555Y-90658840D01*
X56578176Y-90488144D01*
X56146945Y-90343909D01*
X55693343Y-90375678D01*
X55421824Y-90488144D01*
X55338445Y-90658840D01*
X51775345Y-90658840D01*
X51648303Y-90531577D01*
X51228354Y-90357199D01*
X50773641Y-90356802D01*
X50353388Y-90530446D01*
X50031577Y-90851697D01*
X49857199Y-91271646D01*
X49856802Y-91726359D01*
X47958800Y-91726359D01*
X47958800Y-84268422D01*
X47974766Y-84261825D01*
X48260821Y-83976269D01*
X48268075Y-83958800D01*
X57300000Y-83958800D01*
X57513844Y-83916264D01*
X57695131Y-83795131D01*
X59695131Y-81795131D01*
X59794255Y-81646782D01*
X59816264Y-81613844D01*
X59858800Y-81400000D01*
X59858800Y-77100000D01*
X59816264Y-76886156D01*
X59695131Y-76704869D01*
X58690601Y-75700339D01*
X58690601Y-46131801D01*
X58672341Y-46040000D01*
X58648066Y-45917958D01*
X58526933Y-45736670D01*
X55430272Y-42640010D01*
X55386588Y-42610821D01*
X55248985Y-42518877D01*
X55035141Y-42476341D01*
X46925717Y-42476341D01*
X46919120Y-42460375D01*
X46633564Y-42174320D01*
X46616095Y-42167066D01*
X46616095Y-36534841D01*
X47346288Y-36534841D01*
X47556012Y-37042412D01*
X47944011Y-37431089D01*
X48451216Y-37641698D01*
X49000409Y-37642178D01*
X49507980Y-37432454D01*
X49896657Y-37044455D01*
X50010849Y-36769449D01*
X51851029Y-36769449D01*
X58992000Y-43910420D01*
X58992000Y-74900000D01*
X59030669Y-75094403D01*
X59140790Y-75259210D01*
X60192000Y-76310420D01*
X60192000Y-94689580D01*
X55640790Y-99240790D01*
X55530669Y-99405597D01*
X55492000Y-99600000D01*
X55492000Y-100469000D01*
X54958251Y-100469000D01*
X54525436Y-100555092D01*
X54158513Y-100800262D01*
X53913343Y-101167185D01*
X53827251Y-101600000D01*
X53913343Y-102032815D01*
X54158513Y-102399738D01*
X54525436Y-102644908D01*
X54958251Y-102731000D01*
X57041749Y-102731000D01*
X57474564Y-102644908D01*
X57841487Y-102399738D01*
X58086657Y-102032815D01*
X58172749Y-101600000D01*
X67827251Y-101600000D01*
X67913343Y-102032815D01*
X68158513Y-102399738D01*
X68525436Y-102644908D01*
X68958251Y-102731000D01*
X71041749Y-102731000D01*
X71474564Y-102644908D01*
X71841487Y-102399738D01*
X72086657Y-102032815D01*
X72172749Y-101600000D01*
X72086657Y-101167185D01*
X71841487Y-100800262D01*
X71474564Y-100555092D01*
X71041749Y-100469000D01*
X68958251Y-100469000D01*
X68525436Y-100555092D01*
X68158513Y-100800262D01*
X67913343Y-101167185D01*
X67827251Y-101600000D01*
X58172749Y-101600000D01*
X58086657Y-101167185D01*
X57841487Y-100800262D01*
X57474564Y-100555092D01*
X57041749Y-100469000D01*
X56508000Y-100469000D01*
X56508000Y-99810420D01*
X60518420Y-95800000D01*
X67827251Y-95800000D01*
X67913343Y-96232815D01*
X68158513Y-96599738D01*
X68525436Y-96844908D01*
X68958251Y-96931000D01*
X71041749Y-96931000D01*
X71474564Y-96844908D01*
X71841487Y-96599738D01*
X72086657Y-96232815D01*
X72172749Y-95800000D01*
X72086657Y-95367185D01*
X71841487Y-95000262D01*
X71474564Y-94755092D01*
X71041749Y-94669000D01*
X68958251Y-94669000D01*
X68525436Y-94755092D01*
X68158513Y-95000262D01*
X67913343Y-95367185D01*
X67827251Y-95800000D01*
X60518420Y-95800000D01*
X61059210Y-95259210D01*
X61169331Y-95094403D01*
X61208000Y-94900000D01*
X61208000Y-92627000D01*
X63669000Y-92627000D01*
X63669000Y-93377000D01*
X63841753Y-93991489D01*
X64236511Y-94493093D01*
X64793175Y-94805448D01*
X64920194Y-94836161D01*
X65173000Y-94780490D01*
X65173000Y-92627000D01*
X65427000Y-92627000D01*
X65427000Y-94780490D01*
X65679806Y-94836161D01*
X65806825Y-94805448D01*
X66363489Y-94493093D01*
X66758247Y-93991489D01*
X66931000Y-93377000D01*
X66931000Y-92845432D01*
X73311196Y-92845432D01*
X73453433Y-93369640D01*
X73785448Y-93799513D01*
X74256695Y-94069607D01*
X74359443Y-94088350D01*
X74573000Y-94029462D01*
X74573000Y-92627000D01*
X74827000Y-92627000D01*
X74827000Y-94029462D01*
X75040557Y-94088350D01*
X75143305Y-94069607D01*
X75614552Y-93799513D01*
X75946567Y-93369640D01*
X76088804Y-92845432D01*
X75991384Y-92627000D01*
X74827000Y-92627000D01*
X74573000Y-92627000D01*
X73408616Y-92627000D01*
X73311196Y-92845432D01*
X66931000Y-92845432D01*
X66931000Y-92627000D01*
X65427000Y-92627000D01*
X65173000Y-92627000D01*
X63669000Y-92627000D01*
X61208000Y-92627000D01*
X61208000Y-91623000D01*
X63669000Y-91623000D01*
X63669000Y-92373000D01*
X65173000Y-92373000D01*
X65173000Y-90219510D01*
X65427000Y-90219510D01*
X65427000Y-92373000D01*
X66931000Y-92373000D01*
X66931000Y-92154568D01*
X73311196Y-92154568D01*
X73408616Y-92373000D01*
X74573000Y-92373000D01*
X74573000Y-90970538D01*
X74827000Y-90970538D01*
X74827000Y-92373000D01*
X75991384Y-92373000D01*
X76088804Y-92154568D01*
X75946567Y-91630360D01*
X75614552Y-91200487D01*
X75143305Y-90930393D01*
X75040557Y-90911650D01*
X74827000Y-90970538D01*
X74573000Y-90970538D01*
X74359443Y-90911650D01*
X74256695Y-90930393D01*
X73785448Y-91200487D01*
X73453433Y-91630360D01*
X73311196Y-92154568D01*
X66931000Y-92154568D01*
X66931000Y-91623000D01*
X66758247Y-91008511D01*
X66363489Y-90506907D01*
X65806825Y-90194552D01*
X65679806Y-90163839D01*
X65427000Y-90219510D01*
X65173000Y-90219510D01*
X64920194Y-90163839D01*
X64793175Y-90194552D01*
X64236511Y-90506907D01*
X63841753Y-91008511D01*
X63669000Y-91623000D01*
X61208000Y-91623000D01*
X61208000Y-87600000D01*
X67827251Y-87600000D01*
X67913343Y-88032815D01*
X68158513Y-88399738D01*
X68525436Y-88644908D01*
X68958251Y-88731000D01*
X71041749Y-88731000D01*
X71474564Y-88644908D01*
X71841487Y-88399738D01*
X72086657Y-88032815D01*
X72172749Y-87600000D01*
X72086657Y-87167185D01*
X71841487Y-86800262D01*
X71474564Y-86555092D01*
X71041749Y-86469000D01*
X68958251Y-86469000D01*
X68525436Y-86555092D01*
X68158513Y-86800262D01*
X67913343Y-87167185D01*
X67827251Y-87600000D01*
X61208000Y-87600000D01*
X61208000Y-76100000D01*
X61169331Y-75905597D01*
X61169331Y-75905596D01*
X61059210Y-75740790D01*
X60008000Y-74689580D01*
X60008000Y-62837909D01*
X73988908Y-62837909D01*
X74307255Y-63285422D01*
X74772624Y-63577045D01*
X75170467Y-63665245D01*
X75374719Y-63569784D01*
X75169966Y-62408573D01*
X74008754Y-62613326D01*
X73988908Y-62837909D01*
X60008000Y-62837909D01*
X60008000Y-62158933D01*
X73869187Y-62158933D01*
X73964648Y-62363185D01*
X75125859Y-62158432D01*
X74921106Y-60997220D01*
X74696523Y-60977374D01*
X74249010Y-61295721D01*
X73957387Y-61761090D01*
X73869187Y-62158933D01*
X60008000Y-62158933D01*
X60008000Y-60953114D01*
X75171247Y-60953114D01*
X75376000Y-62114325D01*
X76537212Y-61909572D01*
X76557058Y-61684989D01*
X76238711Y-61237476D01*
X75773342Y-60945853D01*
X75375499Y-60857653D01*
X75171247Y-60953114D01*
X60008000Y-60953114D01*
X60008000Y-56799077D01*
X65700734Y-56799077D01*
X65910458Y-57306648D01*
X66298457Y-57695325D01*
X66805662Y-57905934D01*
X67354855Y-57906414D01*
X67862426Y-57696690D01*
X68251103Y-57308691D01*
X68461712Y-56801486D01*
X68462192Y-56252293D01*
X68252468Y-55744722D01*
X67864469Y-55356045D01*
X67357264Y-55145436D01*
X66808071Y-55144956D01*
X66300500Y-55354680D01*
X65911823Y-55742679D01*
X65701214Y-56249884D01*
X65700734Y-56799077D01*
X60008000Y-56799077D01*
X60008000Y-43700000D01*
X59969331Y-43505597D01*
X59859210Y-43340790D01*
X57278476Y-40760056D01*
X58015787Y-40760056D01*
X58150844Y-41086919D01*
X58400705Y-41337217D01*
X58727332Y-41472845D01*
X59075670Y-41473148D01*
X60492000Y-42889478D01*
X60492000Y-54250974D01*
X60246782Y-54495764D01*
X60111154Y-54822391D01*
X60110846Y-55176057D01*
X60245903Y-55502920D01*
X60495764Y-55753218D01*
X60822391Y-55888846D01*
X61176057Y-55889154D01*
X61502920Y-55754097D01*
X61753218Y-55504236D01*
X61888846Y-55177609D01*
X61889154Y-54823943D01*
X61754097Y-54497080D01*
X61508000Y-54250553D01*
X61508000Y-42679058D01*
X61469331Y-42484655D01*
X61359210Y-42319848D01*
X59793793Y-40754431D01*
X59794095Y-40407942D01*
X59659038Y-40081079D01*
X59409177Y-39830781D01*
X59082550Y-39695153D01*
X58728884Y-39694845D01*
X58402021Y-39829902D01*
X58151723Y-40079763D01*
X58016095Y-40406390D01*
X58015787Y-40760056D01*
X57278476Y-40760056D01*
X52420659Y-35902239D01*
X52255852Y-35792118D01*
X52061449Y-35753449D01*
X50010808Y-35753449D01*
X49898022Y-35480486D01*
X49510023Y-35091809D01*
X49002818Y-34881200D01*
X48453625Y-34880720D01*
X47946054Y-35090444D01*
X47557377Y-35478443D01*
X47346768Y-35985648D01*
X47346288Y-36534841D01*
X46616095Y-36534841D01*
X46616095Y-34174167D01*
X48481462Y-32308800D01*
X51955425Y-32308800D01*
X51653137Y-32610561D01*
X51442528Y-33117766D01*
X51442048Y-33666959D01*
X51651772Y-34174530D01*
X52039771Y-34563207D01*
X52546976Y-34773816D01*
X53096169Y-34774296D01*
X53603740Y-34564572D01*
X53992417Y-34176573D01*
X54203026Y-33669368D01*
X54203506Y-33120175D01*
X53993782Y-32612604D01*
X53690508Y-32308800D01*
X54518538Y-32308800D01*
X55764577Y-33554840D01*
X55836908Y-33663092D01*
X58086906Y-35913089D01*
X58086908Y-35913092D01*
X58195496Y-35985648D01*
X58276437Y-36039731D01*
X58500000Y-36084201D01*
X58500005Y-36084200D01*
X61800754Y-36084200D01*
X61838175Y-36174766D01*
X62123731Y-36460821D01*
X62141200Y-36468075D01*
X62141200Y-41171714D01*
X62139179Y-41173731D01*
X61984176Y-41547018D01*
X61983824Y-41951208D01*
X62138175Y-42324766D01*
X62423731Y-42610821D01*
X62466600Y-42628622D01*
X62466600Y-45371083D01*
X62425234Y-45388175D01*
X62139179Y-45673731D01*
X61984176Y-46047018D01*
X61983824Y-46451208D01*
X62138175Y-46824766D01*
X62423731Y-47110821D01*
X62797018Y-47265824D01*
X63201208Y-47266176D01*
X63574766Y-47111825D01*
X63860821Y-46826269D01*
X64015824Y-46452982D01*
X64016176Y-46048792D01*
X63861825Y-45675234D01*
X63576269Y-45389179D01*
X63533400Y-45371378D01*
X63533400Y-42628917D01*
X63574766Y-42611825D01*
X63860821Y-42326269D01*
X64015824Y-41952982D01*
X64016176Y-41548792D01*
X63861825Y-41175234D01*
X63576269Y-40889179D01*
X63258800Y-40757354D01*
X63258800Y-36468422D01*
X63274766Y-36461825D01*
X63560821Y-36176269D01*
X63715824Y-35802982D01*
X63716176Y-35398792D01*
X63561825Y-35025234D01*
X63276269Y-34739179D01*
X62902982Y-34584176D01*
X62498792Y-34583824D01*
X62125234Y-34738175D01*
X61947299Y-34915800D01*
X58741983Y-34915800D01*
X56663092Y-32836908D01*
X56554840Y-32764577D01*
X55624283Y-31834020D01*
X56816801Y-31834020D01*
X57021053Y-31929481D01*
X57550459Y-31783392D01*
X57983660Y-31445829D01*
X58202612Y-31102145D01*
X58182766Y-30877562D01*
X57021554Y-30672809D01*
X56816801Y-31834020D01*
X55624283Y-31834020D01*
X55145131Y-31354869D01*
X54963844Y-31233736D01*
X54750000Y-31191200D01*
X48250000Y-31191200D01*
X48036156Y-31233736D01*
X47854869Y-31354869D01*
X45968538Y-33241200D01*
X44031458Y-33241200D01*
X42366315Y-31576057D01*
X42810846Y-31576057D01*
X42945903Y-31902920D01*
X43195764Y-32153218D01*
X43522391Y-32288846D01*
X43876057Y-32289154D01*
X44202920Y-32154097D01*
X44449447Y-31908000D01*
X45600000Y-31908000D01*
X45794403Y-31869331D01*
X45959210Y-31759210D01*
X47090219Y-30628201D01*
X55514741Y-30628201D01*
X55660830Y-31157607D01*
X55998393Y-31590808D01*
X56342077Y-31809760D01*
X56566660Y-31789914D01*
X56771413Y-30628702D01*
X55610202Y-30423949D01*
X55514741Y-30628201D01*
X47090219Y-30628201D01*
X47295752Y-30422668D01*
X57065661Y-30422668D01*
X58226872Y-30627421D01*
X58322333Y-30423169D01*
X58176244Y-29893763D01*
X57838681Y-29460562D01*
X57494997Y-29241610D01*
X57270414Y-29261456D01*
X57065661Y-30422668D01*
X47295752Y-30422668D01*
X47769195Y-29949225D01*
X55634462Y-29949225D01*
X55654308Y-30173808D01*
X56815520Y-30378561D01*
X57020273Y-29217350D01*
X56816021Y-29121889D01*
X56286615Y-29267978D01*
X55853414Y-29605541D01*
X55634462Y-29949225D01*
X47769195Y-29949225D01*
X48610420Y-29108000D01*
X60286173Y-29108000D01*
X67092000Y-35913828D01*
X67092000Y-42800000D01*
X67130669Y-42994403D01*
X67240790Y-43159210D01*
X70669223Y-46587643D01*
X70669223Y-58109776D01*
X70396260Y-58222562D01*
X70007583Y-58610561D01*
X69796974Y-59117766D01*
X69796494Y-59666959D01*
X70006218Y-60174530D01*
X70394217Y-60563207D01*
X70901422Y-60773816D01*
X71450615Y-60774296D01*
X71958186Y-60564572D01*
X72346863Y-60176573D01*
X72557472Y-59669368D01*
X72557952Y-59120175D01*
X72348228Y-58612604D01*
X71960229Y-58223927D01*
X71685223Y-58109735D01*
X71685223Y-46377223D01*
X71646554Y-46182820D01*
X71646554Y-46182819D01*
X71536433Y-46018013D01*
X68108000Y-42589580D01*
X68108000Y-35703407D01*
X68069331Y-35509004D01*
X68048911Y-35478443D01*
X67959211Y-35344197D01*
X60855803Y-28240790D01*
X60690996Y-28130669D01*
X60496593Y-28092000D01*
X48400000Y-28092000D01*
X48205597Y-28130669D01*
X48040790Y-28240790D01*
X45389580Y-30892000D01*
X44449026Y-30892000D01*
X44204236Y-30646782D01*
X43877609Y-30511154D01*
X43523943Y-30510846D01*
X43197080Y-30645903D01*
X42946782Y-30895764D01*
X42811154Y-31222391D01*
X42810846Y-31576057D01*
X42366315Y-31576057D01*
X41294227Y-30503969D01*
X41288287Y-30500000D01*
X41112940Y-30382836D01*
X40899096Y-30340300D01*
X37618422Y-30340300D01*
X37611825Y-30324334D01*
X37326269Y-30038279D01*
X37308800Y-30031025D01*
X37308800Y-28723379D01*
X42686226Y-28723379D01*
X42749590Y-28877294D01*
X43121885Y-28994359D01*
X43510639Y-28960042D01*
X43710410Y-28877294D01*
X43773774Y-28723379D01*
X43230000Y-28179605D01*
X42686226Y-28723379D01*
X37308800Y-28723379D01*
X37308800Y-27891885D01*
X42235641Y-27891885D01*
X42269958Y-28280639D01*
X42352706Y-28480410D01*
X42506621Y-28543774D01*
X43050395Y-28000000D01*
X43409605Y-28000000D01*
X43953379Y-28543774D01*
X44107294Y-28480410D01*
X44224359Y-28108115D01*
X44190042Y-27719361D01*
X44107294Y-27519590D01*
X43953379Y-27456226D01*
X43409605Y-28000000D01*
X43050395Y-28000000D01*
X42506621Y-27456226D01*
X42352706Y-27519590D01*
X42235641Y-27891885D01*
X37308800Y-27891885D01*
X37308800Y-27276621D01*
X42686226Y-27276621D01*
X43230000Y-27820395D01*
X43650395Y-27400000D01*
X44781536Y-27400000D01*
X44781536Y-28600000D01*
X44808103Y-28741190D01*
X44891546Y-28870865D01*
X45018866Y-28957859D01*
X45170000Y-28988464D01*
X46370000Y-28988464D01*
X46511190Y-28961897D01*
X46640865Y-28878454D01*
X46727859Y-28751134D01*
X46758464Y-28600000D01*
X46758464Y-27400000D01*
X46731897Y-27258810D01*
X46648454Y-27129135D01*
X46521134Y-27042141D01*
X46370000Y-27011536D01*
X45170000Y-27011536D01*
X45028810Y-27038103D01*
X44899135Y-27121546D01*
X44812141Y-27248866D01*
X44781536Y-27400000D01*
X43650395Y-27400000D01*
X43773774Y-27276621D01*
X43710410Y-27122706D01*
X43338115Y-27005641D01*
X42949361Y-27039958D01*
X42749590Y-27122706D01*
X42686226Y-27276621D01*
X37308800Y-27276621D01*
X37308800Y-21868422D01*
X37324766Y-21861825D01*
X37610821Y-21576269D01*
X37765824Y-21202982D01*
X37766176Y-20798792D01*
X37611825Y-20425234D01*
X37326269Y-20139179D01*
X36952982Y-19984176D01*
X36548792Y-19983824D01*
X36175234Y-20138175D01*
X35889179Y-20423731D01*
X35734176Y-20797018D01*
X35733824Y-21201208D01*
X35888175Y-21574766D01*
X36173731Y-21860821D01*
X36191200Y-21868075D01*
X36191200Y-30030678D01*
X36175234Y-30037275D01*
X35889179Y-30322831D01*
X35734176Y-30696118D01*
X35733824Y-31100308D01*
X35888175Y-31473866D01*
X36173731Y-31759921D01*
X36547018Y-31914924D01*
X36951208Y-31915276D01*
X37324766Y-31760925D01*
X37610821Y-31475369D01*
X37618075Y-31457900D01*
X40667634Y-31457900D01*
X43404865Y-34195131D01*
X43586152Y-34316264D01*
X43799996Y-34358800D01*
X45498495Y-34358800D01*
X45498495Y-42166719D01*
X45482529Y-42173316D01*
X45196474Y-42458872D01*
X45041471Y-42832159D01*
X45041119Y-43236349D01*
X45195470Y-43609907D01*
X45481026Y-43895962D01*
X45498495Y-43903216D01*
X45498495Y-44307295D01*
X45541031Y-44521139D01*
X45596978Y-44604869D01*
X45662164Y-44702426D01*
X46191200Y-45231462D01*
X46191200Y-63018538D01*
X45402387Y-63807351D01*
X45281254Y-63988638D01*
X45238718Y-64202482D01*
X45238718Y-65242270D01*
X45222752Y-65248867D01*
X44936697Y-65534423D01*
X44781694Y-65907710D01*
X44781342Y-66311900D01*
X44788566Y-66329382D01*
X44376748Y-66741200D01*
X41568422Y-66741200D01*
X41561825Y-66725234D01*
X41276269Y-66439179D01*
X40902982Y-66284176D01*
X40498792Y-66283824D01*
X40125234Y-66438175D01*
X39839179Y-66723731D01*
X39684176Y-67097018D01*
X39683824Y-67501208D01*
X39838175Y-67874766D01*
X40123731Y-68160821D01*
X40497018Y-68315824D01*
X40901208Y-68316176D01*
X41274766Y-68161825D01*
X41560821Y-67876269D01*
X41568075Y-67858800D01*
X44608210Y-67858800D01*
X44822054Y-67816264D01*
X45003341Y-67695131D01*
X45578581Y-67119891D01*
X45594536Y-67126516D01*
X45998726Y-67126868D01*
X46372284Y-66972517D01*
X46658339Y-66686961D01*
X46813342Y-66313674D01*
X46813694Y-65909484D01*
X46659343Y-65535926D01*
X46373787Y-65249871D01*
X46356318Y-65242617D01*
X46356318Y-64433944D01*
X47145131Y-63645131D01*
X47172033Y-63604869D01*
X47266264Y-63463844D01*
X47308800Y-63250000D01*
X47308800Y-61726359D01*
X49856802Y-61726359D01*
X50030446Y-62146612D01*
X50351697Y-62468423D01*
X50771646Y-62642801D01*
X51226359Y-62643198D01*
X51646612Y-62469554D01*
X51968423Y-62148303D01*
X52142801Y-61728354D01*
X52143198Y-61273641D01*
X51969554Y-60853388D01*
X51648303Y-60531577D01*
X51228354Y-60357199D01*
X50773641Y-60356802D01*
X50353388Y-60530446D01*
X50031577Y-60851697D01*
X49857199Y-61271646D01*
X49856802Y-61726359D01*
X47308800Y-61726359D01*
X47308800Y-45976057D01*
X51110846Y-45976057D01*
X51245903Y-46302920D01*
X51492000Y-46549447D01*
X51492000Y-52950974D01*
X51246782Y-53195764D01*
X51111154Y-53522391D01*
X51110846Y-53876057D01*
X51245903Y-54202920D01*
X51495764Y-54453218D01*
X51822391Y-54588846D01*
X52176057Y-54589154D01*
X52502920Y-54454097D01*
X52753218Y-54204236D01*
X52888846Y-53877609D01*
X52889154Y-53523943D01*
X52754097Y-53197080D01*
X52508000Y-52950553D01*
X52508000Y-46549026D01*
X52753218Y-46304236D01*
X52888846Y-45977609D01*
X52889154Y-45623943D01*
X52754097Y-45297080D01*
X52504236Y-45046782D01*
X52177609Y-44911154D01*
X51823943Y-44910846D01*
X51497080Y-45045903D01*
X51246782Y-45295764D01*
X51111154Y-45622391D01*
X51110846Y-45976057D01*
X47308800Y-45976057D01*
X47308800Y-45000000D01*
X47266264Y-44786156D01*
X47145131Y-44604869D01*
X46616095Y-44075833D01*
X46616095Y-43903563D01*
X46632061Y-43896966D01*
X46918116Y-43611410D01*
X46925370Y-43593941D01*
X54803679Y-43593941D01*
X57573001Y-46363264D01*
X57573001Y-75931801D01*
X57615537Y-76145645D01*
X57687416Y-76253218D01*
X57736670Y-76326932D01*
X58741200Y-77331462D01*
X58741200Y-81168538D01*
X57068538Y-82841200D01*
X48268422Y-82841200D01*
X48261825Y-82825234D01*
X47976269Y-82539179D01*
X47602982Y-82384176D01*
X47198792Y-82383824D01*
X46825234Y-82538175D01*
X46539179Y-82823731D01*
X46384176Y-83197018D01*
X46383824Y-83601208D01*
X46538175Y-83974766D01*
X46823731Y-84260821D01*
X46841200Y-84268075D01*
X46841200Y-93768537D01*
X45668538Y-94941200D01*
X36868422Y-94941200D01*
X36861825Y-94925234D01*
X36576269Y-94639179D01*
X36558800Y-94631925D01*
X36558800Y-91726359D01*
X36856802Y-91726359D01*
X37030446Y-92146612D01*
X37351697Y-92468423D01*
X37771646Y-92642801D01*
X38226359Y-92643198D01*
X38646612Y-92469554D01*
X38968423Y-92148303D01*
X39142801Y-91728354D01*
X39143198Y-91273641D01*
X38969554Y-90853388D01*
X38648303Y-90531577D01*
X38228354Y-90357199D01*
X37773641Y-90356802D01*
X37353388Y-90530446D01*
X37031577Y-90851697D01*
X36857199Y-91271646D01*
X36856802Y-91726359D01*
X36558800Y-91726359D01*
X36558800Y-81931462D01*
X38145074Y-80345188D01*
X38983824Y-80345188D01*
X39138175Y-80718746D01*
X39423731Y-81004801D01*
X39441200Y-81012055D01*
X39441200Y-88183980D01*
X39483736Y-88397824D01*
X39604869Y-88579111D01*
X44206821Y-93181063D01*
X44200196Y-93197018D01*
X44199844Y-93601208D01*
X44354195Y-93974766D01*
X44639751Y-94260821D01*
X45013038Y-94415824D01*
X45417228Y-94416176D01*
X45790786Y-94261825D01*
X46076841Y-93976269D01*
X46231844Y-93602982D01*
X46232196Y-93198792D01*
X46077845Y-92825234D01*
X45792289Y-92539179D01*
X45419002Y-92384176D01*
X45014812Y-92383824D01*
X44997330Y-92391048D01*
X40558800Y-87952518D01*
X40558800Y-82576057D01*
X42610846Y-82576057D01*
X42745903Y-82902920D01*
X42995764Y-83153218D01*
X43322391Y-83288846D01*
X43676057Y-83289154D01*
X44002920Y-83154097D01*
X44253218Y-82904236D01*
X44388846Y-82577609D01*
X44389154Y-82223943D01*
X44254097Y-81897080D01*
X44110921Y-81753653D01*
X44272626Y-81753653D01*
X44407683Y-82080516D01*
X44657544Y-82330814D01*
X44984171Y-82466442D01*
X45337837Y-82466750D01*
X45664700Y-82331693D01*
X45911227Y-82085596D01*
X53122402Y-82085596D01*
X53316805Y-82046927D01*
X53481612Y-81936806D01*
X56029568Y-79388850D01*
X56376057Y-79389152D01*
X56702920Y-79254095D01*
X56953218Y-79004234D01*
X57088846Y-78677607D01*
X57089154Y-78323941D01*
X56954097Y-77997078D01*
X56704236Y-77746780D01*
X56377609Y-77611152D01*
X56023943Y-77610844D01*
X55697080Y-77745901D01*
X55446782Y-77995762D01*
X55311154Y-78322389D01*
X55310851Y-78670727D01*
X52911982Y-81069596D01*
X45910806Y-81069596D01*
X45666016Y-80824378D01*
X45339389Y-80688750D01*
X44985723Y-80688442D01*
X44658860Y-80823499D01*
X44408562Y-81073360D01*
X44272934Y-81399987D01*
X44272626Y-81753653D01*
X44110921Y-81753653D01*
X44008000Y-81650553D01*
X44008000Y-80960420D01*
X46660420Y-78308000D01*
X54300000Y-78308000D01*
X54494403Y-78269331D01*
X54659210Y-78159210D01*
X55559210Y-77259210D01*
X55669331Y-77094404D01*
X55708000Y-76900000D01*
X55708000Y-72249026D01*
X55953218Y-72004236D01*
X56088846Y-71677609D01*
X56089154Y-71323943D01*
X55954097Y-70997080D01*
X55704236Y-70746782D01*
X55377609Y-70611154D01*
X55023943Y-70610846D01*
X54697080Y-70745903D01*
X54446782Y-70995764D01*
X54311154Y-71322391D01*
X54310846Y-71676057D01*
X54445903Y-72002920D01*
X54692000Y-72249447D01*
X54692000Y-76689580D01*
X54089580Y-77292000D01*
X46450000Y-77292000D01*
X46255597Y-77330669D01*
X46090790Y-77440790D01*
X43140790Y-80390790D01*
X43030669Y-80555597D01*
X42992000Y-80750000D01*
X42992000Y-81650974D01*
X42746782Y-81895764D01*
X42611154Y-82222391D01*
X42610846Y-82576057D01*
X40558800Y-82576057D01*
X40558800Y-81012402D01*
X40574766Y-81005805D01*
X40860821Y-80720249D01*
X41015824Y-80346962D01*
X41016176Y-79942772D01*
X40861825Y-79569214D01*
X40576269Y-79283159D01*
X40202982Y-79128156D01*
X39798792Y-79127804D01*
X39425234Y-79282155D01*
X39139179Y-79567711D01*
X38984176Y-79940998D01*
X38983824Y-80345188D01*
X38145074Y-80345188D01*
X39856157Y-78634105D01*
X40052959Y-78715824D01*
X40457149Y-78716176D01*
X40830707Y-78561825D01*
X41116762Y-78276269D01*
X41271765Y-77902982D01*
X41272117Y-77498792D01*
X41264894Y-77481310D01*
X41987404Y-76758800D01*
X48331578Y-76758800D01*
X48338175Y-76774766D01*
X48623731Y-77060821D01*
X48997018Y-77215824D01*
X49401208Y-77216176D01*
X49774766Y-77061825D01*
X50060821Y-76776269D01*
X50215824Y-76402982D01*
X50216176Y-75998792D01*
X50061825Y-75625234D01*
X49776269Y-75339179D01*
X49402982Y-75184176D01*
X48998792Y-75183824D01*
X48625234Y-75338175D01*
X48339179Y-75623731D01*
X48331925Y-75641200D01*
X41755941Y-75641200D01*
X41542097Y-75683736D01*
X41494082Y-75715819D01*
X41360809Y-75804869D01*
X40474878Y-76690801D01*
X40458923Y-76684176D01*
X40054733Y-76683824D01*
X39681175Y-76838175D01*
X39395120Y-77123731D01*
X39240117Y-77497018D01*
X39239967Y-77669771D01*
X35604869Y-81304869D01*
X35483736Y-81486156D01*
X35441200Y-81700000D01*
X35441200Y-94631578D01*
X35425234Y-94638175D01*
X35139179Y-94923731D01*
X34984176Y-95297018D01*
X34983824Y-95701208D01*
X32119628Y-95701208D01*
X31608000Y-95189580D01*
X31608000Y-92341160D01*
X32338445Y-92341160D01*
X32421824Y-92511856D01*
X32853055Y-92656091D01*
X33306657Y-92624322D01*
X33578176Y-92511856D01*
X33661555Y-92341160D01*
X33000000Y-91679605D01*
X32338445Y-92341160D01*
X31608000Y-92341160D01*
X31608000Y-91353055D01*
X31843909Y-91353055D01*
X31875678Y-91806657D01*
X31988144Y-92078176D01*
X32158840Y-92161555D01*
X32820395Y-91500000D01*
X33179605Y-91500000D01*
X33841160Y-92161555D01*
X34011856Y-92078176D01*
X34156091Y-91646945D01*
X34124322Y-91193343D01*
X34011856Y-90921824D01*
X33841160Y-90838445D01*
X33179605Y-91500000D01*
X32820395Y-91500000D01*
X32158840Y-90838445D01*
X31988144Y-90921824D01*
X31843909Y-91353055D01*
X31608000Y-91353055D01*
X31608000Y-90658840D01*
X32338445Y-90658840D01*
X33000000Y-91320395D01*
X33661555Y-90658840D01*
X33578176Y-90488144D01*
X33146945Y-90343909D01*
X32693343Y-90375678D01*
X32421824Y-90488144D01*
X32338445Y-90658840D01*
X31608000Y-90658840D01*
X31608000Y-84249026D01*
X31849447Y-84008000D01*
X32015245Y-84008000D01*
X32209648Y-83969331D01*
X32374455Y-83859210D01*
X40902543Y-75331122D01*
X40933242Y-75285178D01*
X41510420Y-74708000D01*
X50989580Y-74708000D01*
X51632791Y-75351212D01*
X51717781Y-75408000D01*
X51797598Y-75461332D01*
X51992001Y-75500001D01*
X52610999Y-75500001D01*
X52610846Y-75676057D01*
X52745903Y-76002920D01*
X52995764Y-76253218D01*
X53322391Y-76388846D01*
X53676057Y-76389154D01*
X54002920Y-76254097D01*
X54253218Y-76004236D01*
X54388846Y-75677609D01*
X54389154Y-75323943D01*
X54254097Y-74997080D01*
X54004236Y-74746782D01*
X53677609Y-74611154D01*
X53323943Y-74610846D01*
X53320498Y-74612269D01*
X53186404Y-74522670D01*
X52992001Y-74484001D01*
X52202422Y-74484001D01*
X51559210Y-73840790D01*
X51394403Y-73730669D01*
X51200000Y-73692000D01*
X41300000Y-73692000D01*
X41105597Y-73730669D01*
X40940790Y-73840790D01*
X40530365Y-74251215D01*
X40389157Y-73909465D01*
X40103601Y-73623410D01*
X39730314Y-73468407D01*
X39326124Y-73468055D01*
X39308642Y-73475278D01*
X38058800Y-72225437D01*
X38058800Y-71058800D01*
X38801685Y-71058800D01*
X38995764Y-71253218D01*
X39322391Y-71388846D01*
X39676057Y-71389154D01*
X40002920Y-71254097D01*
X40253218Y-71004236D01*
X40388846Y-70677609D01*
X40389154Y-70323943D01*
X40254097Y-69997080D01*
X40004236Y-69746782D01*
X39677609Y-69611154D01*
X39323943Y-69610846D01*
X38997080Y-69745903D01*
X38801441Y-69941200D01*
X38018999Y-69941200D01*
X38018999Y-68876057D01*
X38310846Y-68876057D01*
X38445903Y-69202920D01*
X38695764Y-69453218D01*
X39022391Y-69588846D01*
X39376057Y-69589154D01*
X39702920Y-69454097D01*
X39842439Y-69314822D01*
X39924017Y-69369331D01*
X40118420Y-69408000D01*
X52992000Y-69408000D01*
X52992000Y-72750974D01*
X52746782Y-72995764D01*
X52611154Y-73322391D01*
X52610846Y-73676057D01*
X52745903Y-74002920D01*
X52995764Y-74253218D01*
X53322391Y-74388846D01*
X53676057Y-74389154D01*
X54002920Y-74254097D01*
X54253218Y-74004236D01*
X54388846Y-73677609D01*
X54389154Y-73323943D01*
X54254097Y-72997080D01*
X54008000Y-72750553D01*
X54008000Y-69110420D01*
X54959210Y-68159210D01*
X55069331Y-67994403D01*
X55108000Y-67800000D01*
X55108000Y-62341160D01*
X55338445Y-62341160D01*
X55421824Y-62511856D01*
X55853055Y-62656091D01*
X56306657Y-62624322D01*
X56578176Y-62511856D01*
X56661555Y-62341160D01*
X56000000Y-61679605D01*
X55338445Y-62341160D01*
X55108000Y-62341160D01*
X55108000Y-62136721D01*
X55158840Y-62161555D01*
X55820395Y-61500000D01*
X56179605Y-61500000D01*
X56841160Y-62161555D01*
X57011856Y-62078176D01*
X57156091Y-61646945D01*
X57124322Y-61193343D01*
X57011856Y-60921824D01*
X56841160Y-60838445D01*
X56179605Y-61500000D01*
X55820395Y-61500000D01*
X55158840Y-60838445D01*
X55108000Y-60863279D01*
X55108000Y-60658840D01*
X55338445Y-60658840D01*
X56000000Y-61320395D01*
X56661555Y-60658840D01*
X56578176Y-60488144D01*
X56146945Y-60343909D01*
X55693343Y-60375678D01*
X55421824Y-60488144D01*
X55338445Y-60658840D01*
X55108000Y-60658840D01*
X55108000Y-51149026D01*
X55353218Y-50904236D01*
X55488846Y-50577609D01*
X55489154Y-50223943D01*
X55354097Y-49897080D01*
X55104236Y-49646782D01*
X54777609Y-49511154D01*
X54423943Y-49510846D01*
X54097080Y-49645903D01*
X53846782Y-49895764D01*
X53711154Y-50222391D01*
X53710846Y-50576057D01*
X53845903Y-50902920D01*
X54092000Y-51149447D01*
X54092000Y-67589580D01*
X53289580Y-68392000D01*
X40328840Y-68392000D01*
X40277630Y-68340790D01*
X40112823Y-68230669D01*
X39955005Y-68199277D01*
X39954097Y-68197080D01*
X39704236Y-67946782D01*
X39377609Y-67811154D01*
X39023943Y-67810846D01*
X38697080Y-67945903D01*
X38446782Y-68195764D01*
X38311154Y-68522391D01*
X38310846Y-68876057D01*
X38018999Y-68876057D01*
X38018999Y-65271263D01*
X40385817Y-62904445D01*
X43985933Y-62904445D01*
X43992530Y-62920411D01*
X44278086Y-63206466D01*
X44651373Y-63361469D01*
X45055563Y-63361821D01*
X45429121Y-63207470D01*
X45715176Y-62921914D01*
X45870179Y-62548627D01*
X45870531Y-62144437D01*
X45716180Y-61770879D01*
X45540155Y-61594546D01*
X45540155Y-45754355D01*
X45512543Y-45615537D01*
X45487952Y-45491910D01*
X45339289Y-45269421D01*
X44185800Y-44115932D01*
X44185800Y-40750985D01*
X44360821Y-40576269D01*
X44515824Y-40202982D01*
X44516176Y-39798792D01*
X44361825Y-39425234D01*
X44076269Y-39139179D01*
X43702982Y-38984176D01*
X43298792Y-38983824D01*
X42925234Y-39138175D01*
X42748901Y-39314200D01*
X35284068Y-39314200D01*
X32807777Y-36837909D01*
X38988908Y-36837909D01*
X39307255Y-37285422D01*
X39772624Y-37577045D01*
X40170467Y-37665245D01*
X40374719Y-37569784D01*
X40169966Y-36408573D01*
X39008754Y-36613326D01*
X38988908Y-36837909D01*
X32807777Y-36837909D01*
X32334334Y-36364466D01*
X40420107Y-36364466D01*
X40624860Y-37525678D01*
X40849443Y-37545524D01*
X41296956Y-37227177D01*
X41588579Y-36761808D01*
X41676779Y-36363965D01*
X41581318Y-36159713D01*
X40420107Y-36364466D01*
X32334334Y-36364466D01*
X32128801Y-36158933D01*
X38869187Y-36158933D01*
X38964648Y-36363185D01*
X40125859Y-36158432D01*
X39921106Y-34997220D01*
X39696523Y-34977374D01*
X39249010Y-35295721D01*
X38957387Y-35761090D01*
X38869187Y-36158933D01*
X32128801Y-36158933D01*
X30922982Y-34953114D01*
X40171247Y-34953114D01*
X40376000Y-36114325D01*
X41537212Y-35909572D01*
X41557058Y-35684989D01*
X41238711Y-35237476D01*
X40773342Y-34945853D01*
X40375499Y-34857653D01*
X40171247Y-34953114D01*
X30922982Y-34953114D01*
X29636827Y-33666959D01*
X34796494Y-33666959D01*
X35006218Y-34174530D01*
X35394217Y-34563207D01*
X35901422Y-34773816D01*
X36450615Y-34774296D01*
X36958186Y-34564572D01*
X37346863Y-34176573D01*
X37557472Y-33669368D01*
X37557952Y-33120175D01*
X37348228Y-32612604D01*
X36960229Y-32223927D01*
X36453024Y-32013318D01*
X35903831Y-32012838D01*
X35396260Y-32222562D01*
X35007583Y-32610561D01*
X34796974Y-33117766D01*
X34796494Y-33666959D01*
X29636827Y-33666959D01*
X28665194Y-32695326D01*
X28765824Y-32452982D01*
X28766176Y-32048792D01*
X28611825Y-31675234D01*
X28435800Y-31498901D01*
X28435800Y-30799077D01*
X30700734Y-30799077D01*
X30910458Y-31306648D01*
X31298457Y-31695325D01*
X31805662Y-31905934D01*
X32354855Y-31906414D01*
X32862426Y-31696690D01*
X33251103Y-31308691D01*
X33461712Y-30801486D01*
X33462192Y-30252293D01*
X33252468Y-29744722D01*
X32864469Y-29356045D01*
X32357264Y-29145436D01*
X31808071Y-29144956D01*
X31300500Y-29354680D01*
X30911823Y-29742679D01*
X30701214Y-30249884D01*
X30700734Y-30799077D01*
X28435800Y-30799077D01*
X28435800Y-25000985D01*
X28610821Y-24826269D01*
X28765824Y-24452982D01*
X28766041Y-24203827D01*
X33484068Y-19485800D01*
X34849013Y-19485800D01*
X35023729Y-19660821D01*
X35397016Y-19815824D01*
X35801206Y-19816176D01*
X36174764Y-19661825D01*
X36351097Y-19485800D01*
X38265932Y-19485800D01*
X39441200Y-20661068D01*
X39441200Y-22089677D01*
X39449825Y-22133038D01*
X39437491Y-22138134D01*
X39151436Y-22423690D01*
X38996433Y-22796977D01*
X38996081Y-23201167D01*
X39150432Y-23574725D01*
X39435988Y-23860780D01*
X39809275Y-24015783D01*
X40213465Y-24016135D01*
X40587023Y-23861784D01*
X40725669Y-23723379D01*
X42686226Y-23723379D01*
X42749590Y-23877294D01*
X43121885Y-23994359D01*
X43510639Y-23960042D01*
X43710410Y-23877294D01*
X43773774Y-23723379D01*
X43230000Y-23179605D01*
X42686226Y-23723379D01*
X40725669Y-23723379D01*
X40873078Y-23576228D01*
X41028081Y-23202941D01*
X41028351Y-22891885D01*
X42235641Y-22891885D01*
X42269958Y-23280639D01*
X42352706Y-23480410D01*
X42506621Y-23543774D01*
X43050395Y-23000000D01*
X43409605Y-23000000D01*
X43953379Y-23543774D01*
X44107294Y-23480410D01*
X44224359Y-23108115D01*
X44190042Y-22719361D01*
X44107294Y-22519590D01*
X43953379Y-22456226D01*
X43409605Y-23000000D01*
X43050395Y-23000000D01*
X42506621Y-22456226D01*
X42352706Y-22519590D01*
X42235641Y-22891885D01*
X41028351Y-22891885D01*
X41028433Y-22798751D01*
X40874082Y-22425193D01*
X40725770Y-22276621D01*
X42686226Y-22276621D01*
X43230000Y-22820395D01*
X43650395Y-22400000D01*
X44781536Y-22400000D01*
X44781536Y-23600000D01*
X44808103Y-23741190D01*
X44891546Y-23870865D01*
X45018866Y-23957859D01*
X45170000Y-23988464D01*
X46370000Y-23988464D01*
X46511190Y-23961897D01*
X46640865Y-23878454D01*
X46727859Y-23751134D01*
X46758464Y-23600000D01*
X46758464Y-22400000D01*
X46731897Y-22258810D01*
X46648454Y-22129135D01*
X46521134Y-22042141D01*
X46370000Y-22011536D01*
X45170000Y-22011536D01*
X45028810Y-22038103D01*
X44899135Y-22121546D01*
X44812141Y-22248866D01*
X44781536Y-22400000D01*
X43650395Y-22400000D01*
X43773774Y-22276621D01*
X43710410Y-22122706D01*
X43338115Y-22005641D01*
X42949361Y-22039958D01*
X42749590Y-22122706D01*
X42686226Y-22276621D01*
X40725770Y-22276621D01*
X40588526Y-22139138D01*
X40571057Y-22131884D01*
X40571057Y-22101934D01*
X40558800Y-22040314D01*
X40558800Y-20935800D01*
X49215932Y-20935800D01*
X55606265Y-27326133D01*
X55828754Y-27474796D01*
X56091199Y-27526999D01*
X65557131Y-27526999D01*
X68814200Y-30784068D01*
X68814200Y-39599990D01*
X68866403Y-39862435D01*
X69015066Y-40084924D01*
X70684049Y-41753907D01*
X70683834Y-42001208D01*
X70838185Y-42374766D01*
X71123741Y-42660821D01*
X71497028Y-42815824D01*
X71901218Y-42816176D01*
X72274776Y-42661825D01*
X72560831Y-42376269D01*
X72715834Y-42002982D01*
X72716186Y-41598792D01*
X72561835Y-41225234D01*
X72276279Y-40939179D01*
X71902992Y-40784176D01*
X71653837Y-40783959D01*
X70185800Y-39315922D01*
X70185800Y-37687660D01*
X70235266Y-37721459D01*
X70386400Y-37752064D01*
X72113600Y-37752064D01*
X72254790Y-37725497D01*
X72384465Y-37642054D01*
X72471459Y-37514734D01*
X72502064Y-37363600D01*
X72502064Y-36500000D01*
X72521017Y-36500000D01*
X72615757Y-36976288D01*
X72885552Y-37380065D01*
X73289329Y-37649860D01*
X73765617Y-37744600D01*
X73814383Y-37744600D01*
X74290671Y-37649860D01*
X74694448Y-37380065D01*
X74964243Y-36976288D01*
X75058983Y-36500000D01*
X74964243Y-36023712D01*
X74694448Y-35619935D01*
X74290671Y-35350140D01*
X73814383Y-35255400D01*
X73765617Y-35255400D01*
X73289329Y-35350140D01*
X72885552Y-35619935D01*
X72615757Y-36023712D01*
X72521017Y-36500000D01*
X72502064Y-36500000D01*
X72502064Y-35636400D01*
X72475497Y-35495210D01*
X72392054Y-35365535D01*
X72264734Y-35278541D01*
X72113600Y-35247936D01*
X70386400Y-35247936D01*
X70245210Y-35274503D01*
X70185800Y-35312732D01*
X70185800Y-34598735D01*
X70494801Y-34949310D01*
X70930880Y-35163005D01*
X71123000Y-35102865D01*
X71123000Y-34087000D01*
X71377000Y-34087000D01*
X71377000Y-35102865D01*
X71569120Y-35163005D01*
X72005199Y-34949310D01*
X72326305Y-34585001D01*
X72452993Y-34279118D01*
X72587007Y-34279118D01*
X72713695Y-34585001D01*
X73034801Y-34949310D01*
X73470880Y-35163005D01*
X73663000Y-35102865D01*
X73663000Y-34087000D01*
X73917000Y-34087000D01*
X73917000Y-35102865D01*
X74109120Y-35163005D01*
X74545199Y-34949310D01*
X74866305Y-34585001D01*
X74992993Y-34279118D01*
X74932312Y-34087000D01*
X73917000Y-34087000D01*
X73663000Y-34087000D01*
X72647688Y-34087000D01*
X72587007Y-34279118D01*
X72452993Y-34279118D01*
X72392312Y-34087000D01*
X71377000Y-34087000D01*
X71123000Y-34087000D01*
X71103000Y-34087000D01*
X71103000Y-33833000D01*
X71123000Y-33833000D01*
X71123000Y-32817135D01*
X71377000Y-32817135D01*
X71377000Y-33833000D01*
X72392312Y-33833000D01*
X72452993Y-33640882D01*
X72587007Y-33640882D01*
X72647688Y-33833000D01*
X73663000Y-33833000D01*
X73663000Y-32817135D01*
X73917000Y-32817135D01*
X73917000Y-33833000D01*
X74932312Y-33833000D01*
X74992993Y-33640882D01*
X74866305Y-33334999D01*
X74545199Y-32970690D01*
X74109120Y-32756995D01*
X73917000Y-32817135D01*
X73663000Y-32817135D01*
X73470880Y-32756995D01*
X73034801Y-32970690D01*
X72713695Y-33334999D01*
X72587007Y-33640882D01*
X72452993Y-33640882D01*
X72326305Y-33334999D01*
X72005199Y-32970690D01*
X71569120Y-32756995D01*
X71377000Y-32817135D01*
X71123000Y-32817135D01*
X70930880Y-32756995D01*
X70494801Y-32970690D01*
X70185800Y-33321265D01*
X70185800Y-32058735D01*
X70494801Y-32409310D01*
X70930880Y-32623005D01*
X71123000Y-32562865D01*
X71123000Y-31547000D01*
X71377000Y-31547000D01*
X71377000Y-32562865D01*
X71569120Y-32623005D01*
X72005199Y-32409310D01*
X72326305Y-32045001D01*
X72452993Y-31739118D01*
X72587007Y-31739118D01*
X72713695Y-32045001D01*
X73034801Y-32409310D01*
X73470880Y-32623005D01*
X73663000Y-32562865D01*
X73663000Y-31547000D01*
X73917000Y-31547000D01*
X73917000Y-32562865D01*
X74109120Y-32623005D01*
X74545199Y-32409310D01*
X74866305Y-32045001D01*
X74992993Y-31739118D01*
X74932312Y-31547000D01*
X73917000Y-31547000D01*
X73663000Y-31547000D01*
X72647688Y-31547000D01*
X72587007Y-31739118D01*
X72452993Y-31739118D01*
X72392312Y-31547000D01*
X71377000Y-31547000D01*
X71123000Y-31547000D01*
X71103000Y-31547000D01*
X71103000Y-31293000D01*
X71123000Y-31293000D01*
X71123000Y-30277135D01*
X71377000Y-30277135D01*
X71377000Y-31293000D01*
X72392312Y-31293000D01*
X72452993Y-31100882D01*
X72587007Y-31100882D01*
X72647688Y-31293000D01*
X73663000Y-31293000D01*
X73663000Y-30277135D01*
X73917000Y-30277135D01*
X73917000Y-31293000D01*
X74932312Y-31293000D01*
X74992993Y-31100882D01*
X74866305Y-30794999D01*
X74545199Y-30430690D01*
X74109120Y-30216995D01*
X73917000Y-30277135D01*
X73663000Y-30277135D01*
X73470880Y-30216995D01*
X73034801Y-30430690D01*
X72713695Y-30794999D01*
X72587007Y-31100882D01*
X72452993Y-31100882D01*
X72326305Y-30794999D01*
X72005199Y-30430690D01*
X71569120Y-30216995D01*
X71377000Y-30277135D01*
X71123000Y-30277135D01*
X70930880Y-30216995D01*
X70494801Y-30430690D01*
X70185800Y-30781265D01*
X70185800Y-30500000D01*
X70173030Y-30435800D01*
X70133597Y-30237555D01*
X69984934Y-30015066D01*
X69168986Y-29199118D01*
X70047007Y-29199118D01*
X70173695Y-29505001D01*
X70494801Y-29869310D01*
X70930880Y-30083005D01*
X71123000Y-30022865D01*
X71123000Y-29007000D01*
X71377000Y-29007000D01*
X71377000Y-30022865D01*
X71569120Y-30083005D01*
X72005199Y-29869310D01*
X72326305Y-29505001D01*
X72452993Y-29199118D01*
X72587007Y-29199118D01*
X72713695Y-29505001D01*
X73034801Y-29869310D01*
X73470880Y-30083005D01*
X73663000Y-30022865D01*
X73663000Y-29007000D01*
X73917000Y-29007000D01*
X73917000Y-30022865D01*
X74109120Y-30083005D01*
X74545199Y-29869310D01*
X74866305Y-29505001D01*
X74992993Y-29199118D01*
X74932312Y-29007000D01*
X73917000Y-29007000D01*
X73663000Y-29007000D01*
X72647688Y-29007000D01*
X72587007Y-29199118D01*
X72452993Y-29199118D01*
X72392312Y-29007000D01*
X71377000Y-29007000D01*
X71123000Y-29007000D01*
X70107688Y-29007000D01*
X70047007Y-29199118D01*
X69168986Y-29199118D01*
X68530750Y-28560882D01*
X70047007Y-28560882D01*
X70107688Y-28753000D01*
X71123000Y-28753000D01*
X71123000Y-27737135D01*
X71377000Y-27737135D01*
X71377000Y-28753000D01*
X72392312Y-28753000D01*
X72452993Y-28560882D01*
X72587007Y-28560882D01*
X72647688Y-28753000D01*
X73663000Y-28753000D01*
X73663000Y-27737135D01*
X73917000Y-27737135D01*
X73917000Y-28753000D01*
X74932312Y-28753000D01*
X74992993Y-28560882D01*
X74866305Y-28254999D01*
X74545199Y-27890690D01*
X74109120Y-27676995D01*
X73917000Y-27737135D01*
X73663000Y-27737135D01*
X73470880Y-27676995D01*
X73034801Y-27890690D01*
X72713695Y-28254999D01*
X72587007Y-28560882D01*
X72452993Y-28560882D01*
X72326305Y-28254999D01*
X72005199Y-27890690D01*
X71569120Y-27676995D01*
X71377000Y-27737135D01*
X71123000Y-27737135D01*
X70930880Y-27676995D01*
X70494801Y-27890690D01*
X70173695Y-28254999D01*
X70047007Y-28560882D01*
X68530750Y-28560882D01*
X66326133Y-26356265D01*
X66301791Y-26340000D01*
X69981017Y-26340000D01*
X70075757Y-26816288D01*
X70345552Y-27220065D01*
X70749329Y-27489860D01*
X71225617Y-27584600D01*
X71274383Y-27584600D01*
X71750671Y-27489860D01*
X72154448Y-27220065D01*
X72424243Y-26816288D01*
X72518983Y-26340000D01*
X72521017Y-26340000D01*
X72615757Y-26816288D01*
X72885552Y-27220065D01*
X73289329Y-27489860D01*
X73765617Y-27584600D01*
X73814383Y-27584600D01*
X74290671Y-27489860D01*
X74694448Y-27220065D01*
X74964243Y-26816288D01*
X75058983Y-26340000D01*
X74964243Y-25863712D01*
X74694448Y-25459935D01*
X74290671Y-25190140D01*
X73814383Y-25095400D01*
X73765617Y-25095400D01*
X73289329Y-25190140D01*
X72885552Y-25459935D01*
X72615757Y-25863712D01*
X72521017Y-26340000D01*
X72518983Y-26340000D01*
X72424243Y-25863712D01*
X72154448Y-25459935D01*
X71750671Y-25190140D01*
X71274383Y-25095400D01*
X71225617Y-25095400D01*
X70749329Y-25190140D01*
X70345552Y-25459935D01*
X70075757Y-25863712D01*
X69981017Y-26340000D01*
X66301791Y-26340000D01*
X66103644Y-26207602D01*
X65841199Y-26155399D01*
X56375267Y-26155399D01*
X54324117Y-24104249D01*
X58575356Y-24104249D01*
X58703291Y-24312641D01*
X59266263Y-24517610D01*
X59864819Y-24491536D01*
X60296709Y-24312641D01*
X60424644Y-24104249D01*
X59500000Y-23179605D01*
X58575356Y-24104249D01*
X54324117Y-24104249D01*
X52986131Y-22766263D01*
X57982390Y-22766263D01*
X58008464Y-23364819D01*
X58187359Y-23796709D01*
X58395751Y-23924644D01*
X59320395Y-23000000D01*
X59679605Y-23000000D01*
X60604249Y-23924644D01*
X60812641Y-23796709D01*
X60994122Y-23298248D01*
X62993739Y-23298248D01*
X63222531Y-23851966D01*
X63645806Y-24275980D01*
X64199124Y-24505738D01*
X64798248Y-24506261D01*
X65351966Y-24277469D01*
X65775980Y-23854194D01*
X66005738Y-23300876D01*
X66006261Y-22701752D01*
X65777469Y-22148034D01*
X65354194Y-21724020D01*
X64800876Y-21494262D01*
X64201752Y-21493739D01*
X63648034Y-21722531D01*
X63224020Y-22145806D01*
X62994262Y-22699124D01*
X62993739Y-23298248D01*
X60994122Y-23298248D01*
X61017610Y-23233737D01*
X60991536Y-22635181D01*
X60812641Y-22203291D01*
X60604249Y-22075356D01*
X59679605Y-23000000D01*
X59320395Y-23000000D01*
X58395751Y-22075356D01*
X58187359Y-22203291D01*
X57982390Y-22766263D01*
X52986131Y-22766263D01*
X52115619Y-21895751D01*
X58575356Y-21895751D01*
X59500000Y-22820395D01*
X60424644Y-21895751D01*
X60296709Y-21687359D01*
X59733737Y-21482390D01*
X59135181Y-21508464D01*
X58703291Y-21687359D01*
X58575356Y-21895751D01*
X52115619Y-21895751D01*
X49984934Y-19765066D01*
X49762445Y-19616403D01*
X49500000Y-19564200D01*
X40284068Y-19564200D01*
X39443247Y-18723379D01*
X42686226Y-18723379D01*
X42749590Y-18877294D01*
X43121885Y-18994359D01*
X43510639Y-18960042D01*
X43710410Y-18877294D01*
X43773774Y-18723379D01*
X43230000Y-18179605D01*
X42686226Y-18723379D01*
X39443247Y-18723379D01*
X39034934Y-18315066D01*
X38812445Y-18166403D01*
X38550000Y-18114200D01*
X36350983Y-18114200D01*
X36176267Y-17939179D01*
X36062371Y-17891885D01*
X42235641Y-17891885D01*
X42269958Y-18280639D01*
X42352706Y-18480410D01*
X42506621Y-18543774D01*
X43050395Y-18000000D01*
X43409605Y-18000000D01*
X43953379Y-18543774D01*
X44107294Y-18480410D01*
X44224359Y-18108115D01*
X44190042Y-17719361D01*
X44107294Y-17519590D01*
X43953379Y-17456226D01*
X43409605Y-18000000D01*
X43050395Y-18000000D01*
X42506621Y-17456226D01*
X42352706Y-17519590D01*
X42235641Y-17891885D01*
X36062371Y-17891885D01*
X35802980Y-17784176D01*
X35398790Y-17783824D01*
X35025232Y-17938175D01*
X34848899Y-18114200D01*
X33200000Y-18114200D01*
X32937555Y-18166403D01*
X32715066Y-18315066D01*
X27796093Y-23234039D01*
X27548792Y-23233824D01*
X27175234Y-23388175D01*
X26889179Y-23673731D01*
X26734176Y-24047018D01*
X26733824Y-24451208D01*
X26888175Y-24824766D01*
X27064200Y-25001099D01*
X27064200Y-31499015D01*
X26889179Y-31673731D01*
X26734176Y-32047018D01*
X26733824Y-32451208D01*
X26888175Y-32824766D01*
X27173731Y-33110821D01*
X27185363Y-33115651D01*
X27265066Y-33234934D01*
X34515066Y-40484934D01*
X34737556Y-40633597D01*
X35000000Y-40685800D01*
X42749015Y-40685800D01*
X42814200Y-40751099D01*
X42814200Y-44400000D01*
X42866403Y-44662445D01*
X43015066Y-44884934D01*
X44168555Y-46038423D01*
X44168555Y-61594660D01*
X43993534Y-61769376D01*
X43986280Y-61786845D01*
X40154355Y-61786845D01*
X39940511Y-61829381D01*
X39820498Y-61909572D01*
X39759224Y-61950514D01*
X37500000Y-64209738D01*
X36995131Y-63704869D01*
X36905727Y-63645131D01*
X36813844Y-63583736D01*
X36600000Y-63541200D01*
X35468422Y-63541200D01*
X35461825Y-63525234D01*
X35176269Y-63239179D01*
X34802982Y-63084176D01*
X34398792Y-63083824D01*
X34025234Y-63238175D01*
X33821854Y-63441200D01*
X29231462Y-63441200D01*
X28595134Y-62804872D01*
X28595132Y-62804869D01*
X28131423Y-62341160D01*
X32338445Y-62341160D01*
X32421824Y-62511856D01*
X32853055Y-62656091D01*
X33306657Y-62624322D01*
X33578176Y-62511856D01*
X33661555Y-62341160D01*
X33000000Y-61679605D01*
X32338445Y-62341160D01*
X28131423Y-62341160D01*
X27595131Y-61804869D01*
X27568156Y-61786845D01*
X27413844Y-61683736D01*
X27200000Y-61641200D01*
X25168422Y-61641200D01*
X25161825Y-61625234D01*
X24890121Y-61353055D01*
X31843909Y-61353055D01*
X31875678Y-61806657D01*
X31988144Y-62078176D01*
X32158840Y-62161555D01*
X32820395Y-61500000D01*
X33179605Y-61500000D01*
X33841160Y-62161555D01*
X34011856Y-62078176D01*
X34129529Y-61726359D01*
X36856802Y-61726359D01*
X37030446Y-62146612D01*
X37351697Y-62468423D01*
X37771646Y-62642801D01*
X38226359Y-62643198D01*
X38646612Y-62469554D01*
X38968423Y-62148303D01*
X39142801Y-61728354D01*
X39143198Y-61273641D01*
X38969554Y-60853388D01*
X38648303Y-60531577D01*
X38228354Y-60357199D01*
X37773641Y-60356802D01*
X37353388Y-60530446D01*
X37031577Y-60851697D01*
X36857199Y-61271646D01*
X36856802Y-61726359D01*
X34129529Y-61726359D01*
X34156091Y-61646945D01*
X34124322Y-61193343D01*
X34011856Y-60921824D01*
X33841160Y-60838445D01*
X33179605Y-61500000D01*
X32820395Y-61500000D01*
X32158840Y-60838445D01*
X31988144Y-60921824D01*
X31843909Y-61353055D01*
X24890121Y-61353055D01*
X24876269Y-61339179D01*
X24858800Y-61331925D01*
X24858800Y-60658840D01*
X32338445Y-60658840D01*
X33000000Y-61320395D01*
X33661555Y-60658840D01*
X33578176Y-60488144D01*
X33146945Y-60343909D01*
X32693343Y-60375678D01*
X32421824Y-60488144D01*
X32338445Y-60658840D01*
X24858800Y-60658840D01*
X24858800Y-56131462D01*
X25331462Y-55658800D01*
X27231578Y-55658800D01*
X27238175Y-55674766D01*
X27523731Y-55960821D01*
X27897018Y-56115824D01*
X28301208Y-56116176D01*
X28674766Y-55961825D01*
X28960821Y-55676269D01*
X29115824Y-55302982D01*
X29116176Y-54898792D01*
X28961825Y-54525234D01*
X28676269Y-54239179D01*
X28302982Y-54084176D01*
X27898792Y-54083824D01*
X27525234Y-54238175D01*
X27239179Y-54523731D01*
X27231925Y-54541200D01*
X25100000Y-54541200D01*
X24886156Y-54583736D01*
X24704869Y-54704869D01*
X23904869Y-55504869D01*
X23783736Y-55686156D01*
X23741200Y-55900000D01*
X23741200Y-61331578D01*
X23725234Y-61338175D01*
X23439179Y-61623731D01*
X23284176Y-61997018D01*
X23283824Y-62401208D01*
X23438175Y-62774766D01*
X23723731Y-63060821D01*
X24097018Y-63215824D01*
X24501208Y-63216176D01*
X24874766Y-63061825D01*
X25160821Y-62776269D01*
X25168075Y-62758800D01*
X26968538Y-62758800D01*
X27804869Y-63595132D01*
X27804872Y-63595134D01*
X28209738Y-64000000D01*
X26268538Y-65941200D01*
X19231463Y-65941200D01*
X18491999Y-65201737D01*
X18491999Y-63139168D01*
X18797018Y-63265824D01*
X19201208Y-63266176D01*
X19574766Y-63111825D01*
X19860821Y-62826269D01*
X20015824Y-62452982D01*
X20016176Y-62048792D01*
X20008952Y-62031310D01*
X20795131Y-61245131D01*
X20898490Y-61090444D01*
X20916264Y-61063844D01*
X20958800Y-60850000D01*
X20958800Y-57834020D01*
X21816801Y-57834020D01*
X22021053Y-57929481D01*
X22550459Y-57783392D01*
X22983660Y-57445829D01*
X23202612Y-57102145D01*
X23182766Y-56877562D01*
X22021554Y-56672809D01*
X21816801Y-57834020D01*
X20958800Y-57834020D01*
X20958800Y-57552984D01*
X21014823Y-57609007D01*
X21019546Y-57604284D01*
X21342077Y-57809760D01*
X21566660Y-57789914D01*
X21723521Y-56900309D01*
X21904396Y-56719434D01*
X21724788Y-56539826D01*
X21656223Y-56608391D01*
X20958800Y-56485416D01*
X20958800Y-56227498D01*
X21543913Y-56330669D01*
X21724788Y-56511544D01*
X21813664Y-56422668D01*
X22065661Y-56422668D01*
X23226872Y-56627421D01*
X23322333Y-56423169D01*
X23176244Y-55893763D01*
X22838681Y-55460562D01*
X22494997Y-55241610D01*
X22270414Y-55261456D01*
X22065661Y-56422668D01*
X21813664Y-56422668D01*
X21904396Y-56331936D01*
X21835831Y-56263371D01*
X22020273Y-55217350D01*
X21816021Y-55121889D01*
X21286615Y-55267978D01*
X21035845Y-55463385D01*
X21014823Y-55442363D01*
X20958800Y-55498386D01*
X20958800Y-51868422D01*
X20974766Y-51861825D01*
X21260821Y-51576269D01*
X21415824Y-51202982D01*
X21416176Y-50798792D01*
X21261825Y-50425234D01*
X20976269Y-50139179D01*
X20602982Y-49984176D01*
X20198792Y-49983824D01*
X19825234Y-50138175D01*
X19812868Y-50150519D01*
X19812868Y-48125419D01*
X20145131Y-47793156D01*
X20266264Y-47611869D01*
X20308800Y-47398025D01*
X20308800Y-47368422D01*
X20324766Y-47361825D01*
X20610821Y-47076269D01*
X20765824Y-46702982D01*
X20766176Y-46298792D01*
X20611825Y-45925234D01*
X20326269Y-45639179D01*
X19972469Y-45492268D01*
X22852690Y-42612046D01*
X22619284Y-43174151D01*
X22618718Y-43823003D01*
X22866499Y-44422680D01*
X23324907Y-44881888D01*
X23924151Y-45130716D01*
X24573003Y-45131282D01*
X25172680Y-44883501D01*
X25631888Y-44425093D01*
X25880716Y-43825849D01*
X25881282Y-43176997D01*
X25633501Y-42577320D01*
X25175093Y-42118112D01*
X24575849Y-41869284D01*
X23926997Y-41868718D01*
X23362967Y-42101770D01*
X24359211Y-41105526D01*
X24469331Y-40940719D01*
X24508000Y-40746316D01*
X24508000Y-24499992D01*
X24469331Y-24305589D01*
X24469331Y-24305588D01*
X24359210Y-24140782D01*
X24138852Y-23920424D01*
X24139154Y-23573935D01*
X24004097Y-23247072D01*
X23754236Y-22996774D01*
X23427609Y-22861146D01*
X23073943Y-22860838D01*
X22747080Y-22995895D01*
X22496782Y-23245756D01*
X22361154Y-23572383D01*
X22360846Y-23926049D01*
X22495903Y-24252912D01*
X22745764Y-24503210D01*
X23072391Y-24638838D01*
X23420729Y-24639141D01*
X23492000Y-24710412D01*
X23492000Y-40535895D01*
X17463567Y-46564329D01*
X17353446Y-46729136D01*
X17314777Y-46923539D01*
X17314777Y-58109776D01*
X17041814Y-58222562D01*
X16908000Y-58356143D01*
X16908000Y-57849026D01*
X17153218Y-57604236D01*
X17288846Y-57277609D01*
X17289154Y-56923943D01*
X17154097Y-56597080D01*
X16904236Y-56346782D01*
X16577609Y-56211154D01*
X16223943Y-56210846D01*
X15897080Y-56345903D01*
X15646782Y-56595764D01*
X15511154Y-56922391D01*
X15510846Y-57276057D01*
X15535797Y-57336443D01*
X14018800Y-55819446D01*
X14018800Y-46271462D01*
X16531064Y-43759199D01*
X16547018Y-43765824D01*
X16951208Y-43766176D01*
X17324766Y-43611825D01*
X17610821Y-43326269D01*
X17618075Y-43308800D01*
X20250000Y-43308800D01*
X20463844Y-43266264D01*
X20645131Y-43145131D01*
X22313669Y-41476594D01*
X22434802Y-41295306D01*
X22477337Y-41081463D01*
X22477337Y-37737116D01*
X22699500Y-37645320D01*
X23088177Y-37257321D01*
X23298786Y-36750116D01*
X23299266Y-36200923D01*
X23089542Y-35693352D01*
X22701543Y-35304675D01*
X22194338Y-35094066D01*
X21645145Y-35093586D01*
X21547869Y-35133779D01*
X20685800Y-34271710D01*
X20685800Y-30500985D01*
X20860821Y-30326269D01*
X21015824Y-29952982D01*
X21016176Y-29548792D01*
X20861825Y-29175234D01*
X20685800Y-28998901D01*
X20685800Y-18136043D01*
X22248840Y-16573003D01*
X29868718Y-16573003D01*
X30116499Y-17172680D01*
X30574907Y-17631888D01*
X31174151Y-17880716D01*
X31823003Y-17881282D01*
X32422680Y-17633501D01*
X32780182Y-17276621D01*
X42686226Y-17276621D01*
X43230000Y-17820395D01*
X43650395Y-17400000D01*
X44781536Y-17400000D01*
X44781536Y-18600000D01*
X44808103Y-18741190D01*
X44891546Y-18870865D01*
X45018866Y-18957859D01*
X45170000Y-18988464D01*
X46370000Y-18988464D01*
X46511190Y-18961897D01*
X46640865Y-18878454D01*
X46727859Y-18751134D01*
X46758464Y-18600000D01*
X46758464Y-18298248D01*
X57993739Y-18298248D01*
X58222531Y-18851966D01*
X58645806Y-19275980D01*
X59199124Y-19505738D01*
X59798248Y-19506261D01*
X60351966Y-19277469D01*
X60775980Y-18854194D01*
X61005738Y-18300876D01*
X61005740Y-18298248D01*
X62993739Y-18298248D01*
X63222531Y-18851966D01*
X63645806Y-19275980D01*
X64199124Y-19505738D01*
X64798248Y-19506261D01*
X65351966Y-19277469D01*
X65775980Y-18854194D01*
X66005738Y-18300876D01*
X66006261Y-17701752D01*
X65777469Y-17148034D01*
X65354194Y-16724020D01*
X64800876Y-16494262D01*
X64201752Y-16493739D01*
X63648034Y-16722531D01*
X63224020Y-17145806D01*
X62994262Y-17699124D01*
X62993739Y-18298248D01*
X61005740Y-18298248D01*
X61006261Y-17701752D01*
X60777469Y-17148034D01*
X60354194Y-16724020D01*
X59800876Y-16494262D01*
X59201752Y-16493739D01*
X58648034Y-16722531D01*
X58224020Y-17145806D01*
X57994262Y-17699124D01*
X57993739Y-18298248D01*
X46758464Y-18298248D01*
X46758464Y-17400000D01*
X46731897Y-17258810D01*
X46648454Y-17129135D01*
X46521134Y-17042141D01*
X46370000Y-17011536D01*
X45170000Y-17011536D01*
X45028810Y-17038103D01*
X44899135Y-17121546D01*
X44812141Y-17248866D01*
X44781536Y-17400000D01*
X43650395Y-17400000D01*
X43773774Y-17276621D01*
X43710410Y-17122706D01*
X43338115Y-17005641D01*
X42949361Y-17039958D01*
X42749590Y-17122706D01*
X42686226Y-17276621D01*
X32780182Y-17276621D01*
X32881888Y-17175093D01*
X33130716Y-16575849D01*
X33131282Y-15926997D01*
X32883501Y-15327320D01*
X32425093Y-14868112D01*
X31825849Y-14619284D01*
X31176997Y-14618718D01*
X30577320Y-14866499D01*
X30118112Y-15324907D01*
X29869284Y-15924151D01*
X29868718Y-16573003D01*
X22248840Y-16573003D01*
X23067469Y-15754374D01*
X23173731Y-15860821D01*
X23547018Y-16015824D01*
X23951208Y-16016176D01*
X24324766Y-15861825D01*
X24501099Y-15685800D01*
X27800000Y-15685800D01*
X28062445Y-15633597D01*
X28284934Y-15484934D01*
X29256479Y-14513389D01*
X39843521Y-14513389D01*
X40815066Y-15484934D01*
X41037556Y-15633597D01*
X41300000Y-15685801D01*
X41300005Y-15685800D01*
X46601981Y-15685800D01*
X46864426Y-15633597D01*
X47086915Y-15484934D01*
X47567475Y-15004374D01*
X47673737Y-15110821D01*
X48047024Y-15265824D01*
X48451214Y-15266176D01*
X48824772Y-15111825D01*
X49110827Y-14826269D01*
X49169155Y-14685800D01*
X69249015Y-14685800D01*
X69423731Y-14860821D01*
X69797018Y-15015824D01*
X70201208Y-15016176D01*
X70574766Y-14861825D01*
X70860821Y-14576269D01*
X71015824Y-14202982D01*
X71016176Y-13798792D01*
X70861825Y-13425234D01*
X70576269Y-13139179D01*
X70202982Y-12984176D01*
X69798792Y-12983824D01*
X69425234Y-13138175D01*
X69248901Y-13314200D01*
X48645706Y-13314200D01*
X48452988Y-13234176D01*
X48048798Y-13233824D01*
X47675240Y-13388175D01*
X47498907Y-13564200D01*
X47351981Y-13564200D01*
X47089536Y-13616403D01*
X46867047Y-13765066D01*
X46317913Y-14314200D01*
X41584068Y-14314200D01*
X40993247Y-13723379D01*
X42686226Y-13723379D01*
X42749590Y-13877294D01*
X43121885Y-13994359D01*
X43510639Y-13960042D01*
X43710410Y-13877294D01*
X43773774Y-13723379D01*
X43230000Y-13179605D01*
X42686226Y-13723379D01*
X40993247Y-13723379D01*
X40612523Y-13342655D01*
X40390034Y-13193992D01*
X40127589Y-13141789D01*
X28972416Y-13141789D01*
X28972411Y-13141788D01*
X28709967Y-13193992D01*
X28487477Y-13342655D01*
X27515932Y-14314200D01*
X24500985Y-14314200D01*
X24326269Y-14139179D01*
X23952982Y-13984176D01*
X23548792Y-13983824D01*
X23175234Y-14138175D01*
X22998901Y-14314200D01*
X22851975Y-14314200D01*
X22589530Y-14366403D01*
X22367041Y-14515066D01*
X19515066Y-17367041D01*
X19366403Y-17589530D01*
X19366403Y-17589531D01*
X19314200Y-17851975D01*
X19314200Y-28999015D01*
X19139179Y-29173731D01*
X18984176Y-29547018D01*
X18983824Y-29951208D01*
X19138175Y-30324766D01*
X19314200Y-30501099D01*
X19314200Y-34555778D01*
X19366403Y-34818223D01*
X19515066Y-35040712D01*
X20577774Y-36103420D01*
X20538288Y-36198514D01*
X20537808Y-36747707D01*
X20747532Y-37255278D01*
X21135531Y-37643955D01*
X21359737Y-37737053D01*
X21359737Y-40850000D01*
X20018538Y-42191200D01*
X17618422Y-42191200D01*
X17611825Y-42175234D01*
X17326269Y-41889179D01*
X16952982Y-41734176D01*
X16548792Y-41733824D01*
X16175234Y-41888175D01*
X15889179Y-42173731D01*
X15734176Y-42547018D01*
X15733824Y-42951208D01*
X15741047Y-42968690D01*
X13064869Y-45644869D01*
X12943736Y-45826156D01*
X12901200Y-46040000D01*
X12431000Y-46040000D01*
X12431000Y-33879825D01*
X16442048Y-33879825D01*
X16651772Y-34387396D01*
X17039771Y-34776073D01*
X17546976Y-34986682D01*
X18096169Y-34987162D01*
X18603740Y-34777438D01*
X18992417Y-34389439D01*
X19203026Y-33882234D01*
X19203506Y-33333041D01*
X18993782Y-32825470D01*
X18605783Y-32436793D01*
X18098578Y-32226184D01*
X17549385Y-32225704D01*
X17041814Y-32435428D01*
X16653137Y-32823427D01*
X16442528Y-33330632D01*
X16442048Y-33879825D01*
X12431000Y-33879825D01*
X12431000Y-31315011D01*
X12442942Y-31315011D01*
X12761289Y-31762524D01*
X13226658Y-32054147D01*
X13624501Y-32142347D01*
X13828753Y-32046886D01*
X13624000Y-30885675D01*
X12462788Y-31090428D01*
X12442942Y-31315011D01*
X12431000Y-31315011D01*
X12431000Y-30841568D01*
X13874141Y-30841568D01*
X14078894Y-32002780D01*
X14303477Y-32022626D01*
X14750990Y-31704279D01*
X15042613Y-31238910D01*
X15130813Y-30841067D01*
X15035352Y-30636815D01*
X13874141Y-30841568D01*
X12431000Y-30841568D01*
X12431000Y-30838115D01*
X13579893Y-30635534D01*
X13375140Y-29474322D01*
X13150557Y-29454476D01*
X12703044Y-29772823D01*
X12431000Y-30206948D01*
X12431000Y-29430216D01*
X13625281Y-29430216D01*
X13830034Y-30591427D01*
X14991246Y-30386674D01*
X15011092Y-30162091D01*
X14692745Y-29714578D01*
X14227376Y-29422955D01*
X13829533Y-29334755D01*
X13625281Y-29430216D01*
X12431000Y-29430216D01*
X12431000Y-12431000D01*
X42481392Y-12431000D01*
X42506619Y-12456227D01*
M02*
