G04 #@! TF.FileFunction,Legend,Top*
%FSLAX46Y46*%
G04 Gerber Fmt 4.6, Leading zero omitted, Abs format (unit mm)*
G04 Created by KiCad (PCBNEW 4.0.2-stable) date 2016-04-29 6:09:28 PM*
%MOMM*%
G01*
G04 APERTURE LIST*
%ADD10C,0.100000*%
%ADD11C,0.254000*%
%ADD12C,0.150000*%
%ADD13C,0.200000*%
%ADD14C,0.152400*%
%ADD15C,0.304800*%
%ADD16R,1.400000X1.400000*%
%ADD17C,1.400000*%
%ADD18R,1.143000X0.812800*%
%ADD19R,1.727200X1.727200*%
%ADD20O,1.727200X1.727200*%
%ADD21C,2.250000*%
%ADD22C,2.500000*%
%ADD23C,1.524000*%
%ADD24R,1.200000X1.200000*%
%ADD25C,1.200000*%
%ADD26C,1.778000*%
%ADD27C,1.998980*%
%ADD28O,2.500000X4.000000*%
%ADD29O,2.000000X2.500000*%
%ADD30O,3.500000X1.500000*%
G04 APERTURE END LIST*
D10*
D11*
X49900000Y-43400000D02*
X49900000Y-40600000D01*
X49900000Y-40600000D02*
X48100000Y-40600000D01*
X48100000Y-40600000D02*
X48100000Y-43400000D01*
X48100000Y-43400000D02*
X49900000Y-43400000D01*
X42600000Y-38600000D02*
X42600000Y-41400000D01*
X42600000Y-41400000D02*
X44400000Y-41400000D01*
X44400000Y-41400000D02*
X44400000Y-38600000D01*
X44400000Y-38600000D02*
X42600000Y-38600000D01*
X35900000Y-27400000D02*
X35900000Y-24600000D01*
X35900000Y-24600000D02*
X34100000Y-24600000D01*
X34100000Y-24600000D02*
X34100000Y-27400000D01*
X34100000Y-27400000D02*
X35900000Y-27400000D01*
X29100000Y-22600000D02*
X29100000Y-25400000D01*
X29100000Y-25400000D02*
X30900000Y-25400000D01*
X30900000Y-25400000D02*
X30900000Y-22600000D01*
X30900000Y-22600000D02*
X29100000Y-22600000D01*
X23400000Y-45400000D02*
X23400000Y-42600000D01*
X23400000Y-42600000D02*
X21600000Y-42600000D01*
X21600000Y-42600000D02*
X21600000Y-45400000D01*
X21600000Y-45400000D02*
X23400000Y-45400000D01*
X30600000Y-44100000D02*
X30600000Y-46900000D01*
X30600000Y-46900000D02*
X32400000Y-46900000D01*
X32400000Y-46900000D02*
X32400000Y-44100000D01*
X32400000Y-44100000D02*
X30600000Y-44100000D01*
X49900000Y-82900000D02*
X49900000Y-80100000D01*
X49900000Y-80100000D02*
X48100000Y-80100000D01*
X48100000Y-80100000D02*
X48100000Y-82900000D01*
X48100000Y-82900000D02*
X49900000Y-82900000D01*
X44400000Y-81400000D02*
X44400000Y-78600000D01*
X44400000Y-78600000D02*
X42600000Y-78600000D01*
X42600000Y-78600000D02*
X42600000Y-81400000D01*
X42600000Y-81400000D02*
X44400000Y-81400000D01*
D12*
X64500000Y-15000000D02*
G75*
G03X56500000Y-18000000I-2500000J-5500000D01*
G01*
X67500000Y-18000000D02*
G75*
G03X59500000Y-15000000I-5500000J-2500000D01*
G01*
X64500000Y-26000000D02*
G75*
G03X67500000Y-18000000I-2500000J5500000D01*
G01*
X56500000Y-18000000D02*
G75*
G03X59500000Y-26000000I5500000J-2500000D01*
G01*
X64500000Y-26000000D02*
X59500000Y-26000000D01*
X66500000Y-20500000D02*
G75*
G03X66500000Y-20500000I-4500000J0D01*
G01*
D13*
X53500000Y-58250000D02*
G75*
G03X53500000Y-58250000I-9000000J0D01*
G01*
D12*
X43200000Y-28000000D02*
X43000000Y-28000000D01*
X45700000Y-28000000D02*
X46000000Y-28000000D01*
X44100000Y-28000000D02*
X43200000Y-28000000D01*
X45700000Y-28000000D02*
X44800000Y-28000000D01*
X44100000Y-28500000D02*
X44100000Y-27500000D01*
X44800000Y-28500000D02*
X44800000Y-27500000D01*
X44800000Y-27500000D02*
X44100000Y-28000000D01*
X44100000Y-28000000D02*
X44800000Y-28500000D01*
X46000000Y-28000000D02*
G75*
G03X46000000Y-28000000I-1500000J0D01*
G01*
X43200000Y-23000000D02*
X43000000Y-23000000D01*
X45700000Y-23000000D02*
X46000000Y-23000000D01*
X44100000Y-23000000D02*
X43200000Y-23000000D01*
X45700000Y-23000000D02*
X44800000Y-23000000D01*
X44100000Y-23500000D02*
X44100000Y-22500000D01*
X44800000Y-23500000D02*
X44800000Y-22500000D01*
X44800000Y-22500000D02*
X44100000Y-23000000D01*
X44100000Y-23000000D02*
X44800000Y-23500000D01*
X46000000Y-23000000D02*
G75*
G03X46000000Y-23000000I-1500000J0D01*
G01*
X43200000Y-18000000D02*
X43000000Y-18000000D01*
X45700000Y-18000000D02*
X46000000Y-18000000D01*
X44100000Y-18000000D02*
X43200000Y-18000000D01*
X45700000Y-18000000D02*
X44800000Y-18000000D01*
X44100000Y-18500000D02*
X44100000Y-17500000D01*
X44800000Y-18500000D02*
X44800000Y-17500000D01*
X44800000Y-17500000D02*
X44100000Y-18000000D01*
X44100000Y-18000000D02*
X44800000Y-18500000D01*
X46000000Y-18000000D02*
G75*
G03X46000000Y-18000000I-1500000J0D01*
G01*
X43200000Y-13000000D02*
X43000000Y-13000000D01*
X45700000Y-13000000D02*
X46000000Y-13000000D01*
X44100000Y-13000000D02*
X43200000Y-13000000D01*
X45700000Y-13000000D02*
X44800000Y-13000000D01*
X44100000Y-13500000D02*
X44100000Y-12500000D01*
X44800000Y-13500000D02*
X44800000Y-12500000D01*
X44800000Y-12500000D02*
X44100000Y-13000000D01*
X44100000Y-13000000D02*
X44800000Y-13500000D01*
X46000000Y-13000000D02*
G75*
G03X46000000Y-13000000I-1500000J0D01*
G01*
X57000962Y-34130294D02*
X55280233Y-31672838D01*
X55280233Y-31672838D02*
X58556841Y-29378532D01*
X52905202Y-36998176D02*
X51184473Y-34540720D01*
X51184473Y-34540720D02*
X54461081Y-32246414D01*
X54461081Y-32246414D02*
X56181810Y-34703871D01*
X47088713Y-37408602D02*
X50365321Y-35114297D01*
X50365321Y-35114297D02*
X52086050Y-37571753D01*
X60277571Y-31835988D02*
X48809442Y-39866058D01*
X47088713Y-37408602D02*
X53398054Y-46419275D01*
X58556841Y-29378532D02*
X64866182Y-38389205D01*
X65000000Y-46500000D02*
G75*
G03X65000000Y-46500000I-3000000J0D01*
G01*
X70500000Y-46500000D02*
G75*
G03X70500000Y-46500000I-8500000J0D01*
G01*
X71913950Y-63571753D02*
X73634679Y-61114297D01*
X73634679Y-61114297D02*
X76911287Y-63408602D01*
X67818190Y-60703871D02*
X69538919Y-58246414D01*
X69538919Y-58246414D02*
X72815527Y-60540720D01*
X72815527Y-60540720D02*
X71094798Y-62998176D01*
X65443159Y-55378532D02*
X68719767Y-57672838D01*
X68719767Y-57672838D02*
X66999038Y-60130294D01*
X75190558Y-65866058D02*
X63722429Y-57835988D01*
X65443159Y-55378532D02*
X59133818Y-64389205D01*
X76911287Y-63408602D02*
X70601946Y-72419275D01*
X65000000Y-72500000D02*
G75*
G03X65000000Y-72500000I-3000000J0D01*
G01*
X70500000Y-72500000D02*
G75*
G03X70500000Y-72500000I-8500000J0D01*
G01*
X22000962Y-60130294D02*
X20280233Y-57672838D01*
X20280233Y-57672838D02*
X23556841Y-55378532D01*
X17905202Y-62998176D02*
X16184473Y-60540720D01*
X16184473Y-60540720D02*
X19461081Y-58246414D01*
X19461081Y-58246414D02*
X21181810Y-60703871D01*
X12088713Y-63408602D02*
X15365321Y-61114297D01*
X15365321Y-61114297D02*
X17086050Y-63571753D01*
X25277571Y-57835988D02*
X13809442Y-65866058D01*
X12088713Y-63408602D02*
X18398054Y-72419275D01*
X23556841Y-55378532D02*
X29866182Y-64389205D01*
X30000000Y-72500000D02*
G75*
G03X30000000Y-72500000I-3000000J0D01*
G01*
X35500000Y-72500000D02*
G75*
G03X35500000Y-72500000I-8500000J0D01*
G01*
X36913950Y-37571753D02*
X38634679Y-35114297D01*
X38634679Y-35114297D02*
X41911287Y-37408602D01*
X32818190Y-34703871D02*
X34538919Y-32246414D01*
X34538919Y-32246414D02*
X37815527Y-34540720D01*
X37815527Y-34540720D02*
X36094798Y-36998176D01*
X30443159Y-29378532D02*
X33719767Y-31672838D01*
X33719767Y-31672838D02*
X31999038Y-34130294D01*
X40190558Y-39866058D02*
X28722429Y-31835988D01*
X30443159Y-29378532D02*
X24133818Y-38389205D01*
X41911287Y-37408602D02*
X35601946Y-46419275D01*
X30000000Y-46500000D02*
G75*
G03X30000000Y-46500000I-3000000J0D01*
G01*
X35500000Y-46500000D02*
G75*
G03X35500000Y-46500000I-8500000J0D01*
G01*
X17086050Y-29428247D02*
X15365321Y-31885703D01*
X15365321Y-31885703D02*
X12088713Y-29591398D01*
X21181810Y-32296129D02*
X19461081Y-34753586D01*
X19461081Y-34753586D02*
X16184473Y-32459280D01*
X16184473Y-32459280D02*
X17905202Y-30001824D01*
X23556841Y-37621468D02*
X20280233Y-35327162D01*
X20280233Y-35327162D02*
X22000962Y-32869706D01*
X13809442Y-27133942D02*
X25277571Y-35164012D01*
X23556841Y-37621468D02*
X29866182Y-28610795D01*
X12088713Y-29591398D02*
X18398054Y-20580725D01*
X30000000Y-20500000D02*
G75*
G03X30000000Y-20500000I-3000000J0D01*
G01*
X35500000Y-20500000D02*
G75*
G03X35500000Y-20500000I-8500000J0D01*
G01*
X72915476Y-106500000D02*
G75*
G03X72915476Y-106500000I-2915476J0D01*
G01*
X75000000Y-111500000D02*
X65000000Y-111500000D01*
X65000000Y-111500000D02*
X65000000Y-100500000D01*
X65000000Y-100500000D02*
X75000000Y-100500000D01*
X75000000Y-100500000D02*
X75000000Y-111500000D01*
X72000000Y-106500000D02*
G75*
G03X72000000Y-106500000I-2000000J0D01*
G01*
X35915476Y-106500000D02*
G75*
G03X35915476Y-106500000I-2915476J0D01*
G01*
X38000000Y-111500000D02*
X28000000Y-111500000D01*
X28000000Y-111500000D02*
X28000000Y-100500000D01*
X28000000Y-100500000D02*
X38000000Y-100500000D01*
X38000000Y-100500000D02*
X38000000Y-111500000D01*
X35000000Y-106500000D02*
G75*
G03X35000000Y-106500000I-2000000J0D01*
G01*
X58915476Y-106500000D02*
G75*
G03X58915476Y-106500000I-2915476J0D01*
G01*
X61000000Y-111500000D02*
X51000000Y-111500000D01*
X51000000Y-111500000D02*
X51000000Y-100500000D01*
X51000000Y-100500000D02*
X61000000Y-100500000D01*
X61000000Y-100500000D02*
X61000000Y-111500000D01*
X58000000Y-106500000D02*
G75*
G03X58000000Y-106500000I-2000000J0D01*
G01*
X72915476Y-92500000D02*
G75*
G03X72915476Y-92500000I-2915476J0D01*
G01*
X75000000Y-97500000D02*
X65000000Y-97500000D01*
X65000000Y-97500000D02*
X65000000Y-86500000D01*
X65000000Y-86500000D02*
X75000000Y-86500000D01*
X75000000Y-86500000D02*
X75000000Y-97500000D01*
X72000000Y-92500000D02*
G75*
G03X72000000Y-92500000I-2000000J0D01*
G01*
X21915476Y-92500000D02*
G75*
G03X21915476Y-92500000I-2915476J0D01*
G01*
X24000000Y-97500000D02*
X14000000Y-97500000D01*
X14000000Y-97500000D02*
X14000000Y-86500000D01*
X14000000Y-86500000D02*
X24000000Y-86500000D01*
X24000000Y-86500000D02*
X24000000Y-97500000D01*
X21000000Y-92500000D02*
G75*
G03X21000000Y-92500000I-2000000J0D01*
G01*
X21915476Y-106500000D02*
G75*
G03X21915476Y-106500000I-2915476J0D01*
G01*
X24000000Y-111500000D02*
X14000000Y-111500000D01*
X14000000Y-111500000D02*
X14000000Y-100500000D01*
X14000000Y-100500000D02*
X24000000Y-100500000D01*
X24000000Y-100500000D02*
X24000000Y-111500000D01*
X21000000Y-106500000D02*
G75*
G03X21000000Y-106500000I-2000000J0D01*
G01*
D14*
X48608115Y-44217714D02*
X48579086Y-44246743D01*
X48492000Y-44275771D01*
X48433943Y-44275771D01*
X48346858Y-44246743D01*
X48288800Y-44188686D01*
X48259772Y-44130629D01*
X48230743Y-44014514D01*
X48230743Y-43927429D01*
X48259772Y-43811314D01*
X48288800Y-43753257D01*
X48346858Y-43695200D01*
X48433943Y-43666171D01*
X48492000Y-43666171D01*
X48579086Y-43695200D01*
X48608115Y-43724229D01*
X49188686Y-44275771D02*
X48840343Y-44275771D01*
X49014515Y-44275771D02*
X49014515Y-43666171D01*
X48956458Y-43753257D01*
X48898400Y-43811314D01*
X48840343Y-43840343D01*
X49420914Y-43724229D02*
X49449943Y-43695200D01*
X49508000Y-43666171D01*
X49653143Y-43666171D01*
X49711200Y-43695200D01*
X49740229Y-43724229D01*
X49769257Y-43782286D01*
X49769257Y-43840343D01*
X49740229Y-43927429D01*
X49391886Y-44275771D01*
X49769257Y-44275771D01*
X43108115Y-42217714D02*
X43079086Y-42246743D01*
X42992000Y-42275771D01*
X42933943Y-42275771D01*
X42846858Y-42246743D01*
X42788800Y-42188686D01*
X42759772Y-42130629D01*
X42730743Y-42014514D01*
X42730743Y-41927429D01*
X42759772Y-41811314D01*
X42788800Y-41753257D01*
X42846858Y-41695200D01*
X42933943Y-41666171D01*
X42992000Y-41666171D01*
X43079086Y-41695200D01*
X43108115Y-41724229D01*
X43688686Y-42275771D02*
X43340343Y-42275771D01*
X43514515Y-42275771D02*
X43514515Y-41666171D01*
X43456458Y-41753257D01*
X43398400Y-41811314D01*
X43340343Y-41840343D01*
X43891886Y-41666171D02*
X44269257Y-41666171D01*
X44066057Y-41898400D01*
X44153143Y-41898400D01*
X44211200Y-41927429D01*
X44240229Y-41956457D01*
X44269257Y-42014514D01*
X44269257Y-42159657D01*
X44240229Y-42217714D01*
X44211200Y-42246743D01*
X44153143Y-42275771D01*
X43978971Y-42275771D01*
X43920914Y-42246743D01*
X43891886Y-42217714D01*
X34608115Y-28217714D02*
X34579086Y-28246743D01*
X34492000Y-28275771D01*
X34433943Y-28275771D01*
X34346858Y-28246743D01*
X34288800Y-28188686D01*
X34259772Y-28130629D01*
X34230743Y-28014514D01*
X34230743Y-27927429D01*
X34259772Y-27811314D01*
X34288800Y-27753257D01*
X34346858Y-27695200D01*
X34433943Y-27666171D01*
X34492000Y-27666171D01*
X34579086Y-27695200D01*
X34608115Y-27724229D01*
X35188686Y-28275771D02*
X34840343Y-28275771D01*
X35014515Y-28275771D02*
X35014515Y-27666171D01*
X34956458Y-27753257D01*
X34898400Y-27811314D01*
X34840343Y-27840343D01*
X35711200Y-27869371D02*
X35711200Y-28275771D01*
X35566057Y-27637143D02*
X35420914Y-28072571D01*
X35798286Y-28072571D01*
X29608115Y-26217714D02*
X29579086Y-26246743D01*
X29492000Y-26275771D01*
X29433943Y-26275771D01*
X29346858Y-26246743D01*
X29288800Y-26188686D01*
X29259772Y-26130629D01*
X29230743Y-26014514D01*
X29230743Y-25927429D01*
X29259772Y-25811314D01*
X29288800Y-25753257D01*
X29346858Y-25695200D01*
X29433943Y-25666171D01*
X29492000Y-25666171D01*
X29579086Y-25695200D01*
X29608115Y-25724229D01*
X30188686Y-26275771D02*
X29840343Y-26275771D01*
X30014515Y-26275771D02*
X30014515Y-25666171D01*
X29956458Y-25753257D01*
X29898400Y-25811314D01*
X29840343Y-25840343D01*
X30740229Y-25666171D02*
X30449943Y-25666171D01*
X30420914Y-25956457D01*
X30449943Y-25927429D01*
X30508000Y-25898400D01*
X30653143Y-25898400D01*
X30711200Y-25927429D01*
X30740229Y-25956457D01*
X30769257Y-26014514D01*
X30769257Y-26159657D01*
X30740229Y-26217714D01*
X30711200Y-26246743D01*
X30653143Y-26275771D01*
X30508000Y-26275771D01*
X30449943Y-26246743D01*
X30420914Y-26217714D01*
X22108115Y-46217714D02*
X22079086Y-46246743D01*
X21992000Y-46275771D01*
X21933943Y-46275771D01*
X21846858Y-46246743D01*
X21788800Y-46188686D01*
X21759772Y-46130629D01*
X21730743Y-46014514D01*
X21730743Y-45927429D01*
X21759772Y-45811314D01*
X21788800Y-45753257D01*
X21846858Y-45695200D01*
X21933943Y-45666171D01*
X21992000Y-45666171D01*
X22079086Y-45695200D01*
X22108115Y-45724229D01*
X22688686Y-46275771D02*
X22340343Y-46275771D01*
X22514515Y-46275771D02*
X22514515Y-45666171D01*
X22456458Y-45753257D01*
X22398400Y-45811314D01*
X22340343Y-45840343D01*
X23211200Y-45666171D02*
X23095086Y-45666171D01*
X23037029Y-45695200D01*
X23008000Y-45724229D01*
X22949943Y-45811314D01*
X22920914Y-45927429D01*
X22920914Y-46159657D01*
X22949943Y-46217714D01*
X22978971Y-46246743D01*
X23037029Y-46275771D01*
X23153143Y-46275771D01*
X23211200Y-46246743D01*
X23240229Y-46217714D01*
X23269257Y-46159657D01*
X23269257Y-46014514D01*
X23240229Y-45956457D01*
X23211200Y-45927429D01*
X23153143Y-45898400D01*
X23037029Y-45898400D01*
X22978971Y-45927429D01*
X22949943Y-45956457D01*
X22920914Y-46014514D01*
X31108115Y-47717714D02*
X31079086Y-47746743D01*
X30992000Y-47775771D01*
X30933943Y-47775771D01*
X30846858Y-47746743D01*
X30788800Y-47688686D01*
X30759772Y-47630629D01*
X30730743Y-47514514D01*
X30730743Y-47427429D01*
X30759772Y-47311314D01*
X30788800Y-47253257D01*
X30846858Y-47195200D01*
X30933943Y-47166171D01*
X30992000Y-47166171D01*
X31079086Y-47195200D01*
X31108115Y-47224229D01*
X31688686Y-47775771D02*
X31340343Y-47775771D01*
X31514515Y-47775771D02*
X31514515Y-47166171D01*
X31456458Y-47253257D01*
X31398400Y-47311314D01*
X31340343Y-47340343D01*
X31891886Y-47166171D02*
X32298286Y-47166171D01*
X32037029Y-47775771D01*
X48608115Y-83717714D02*
X48579086Y-83746743D01*
X48492000Y-83775771D01*
X48433943Y-83775771D01*
X48346858Y-83746743D01*
X48288800Y-83688686D01*
X48259772Y-83630629D01*
X48230743Y-83514514D01*
X48230743Y-83427429D01*
X48259772Y-83311314D01*
X48288800Y-83253257D01*
X48346858Y-83195200D01*
X48433943Y-83166171D01*
X48492000Y-83166171D01*
X48579086Y-83195200D01*
X48608115Y-83224229D01*
X49188686Y-83775771D02*
X48840343Y-83775771D01*
X49014515Y-83775771D02*
X49014515Y-83166171D01*
X48956458Y-83253257D01*
X48898400Y-83311314D01*
X48840343Y-83340343D01*
X49478971Y-83775771D02*
X49595086Y-83775771D01*
X49653143Y-83746743D01*
X49682171Y-83717714D01*
X49740229Y-83630629D01*
X49769257Y-83514514D01*
X49769257Y-83282286D01*
X49740229Y-83224229D01*
X49711200Y-83195200D01*
X49653143Y-83166171D01*
X49537029Y-83166171D01*
X49478971Y-83195200D01*
X49449943Y-83224229D01*
X49420914Y-83282286D01*
X49420914Y-83427429D01*
X49449943Y-83485486D01*
X49478971Y-83514514D01*
X49537029Y-83543543D01*
X49653143Y-83543543D01*
X49711200Y-83514514D01*
X49740229Y-83485486D01*
X49769257Y-83427429D01*
X43108115Y-78217714D02*
X43079086Y-78246743D01*
X42992000Y-78275771D01*
X42933943Y-78275771D01*
X42846858Y-78246743D01*
X42788800Y-78188686D01*
X42759772Y-78130629D01*
X42730743Y-78014514D01*
X42730743Y-77927429D01*
X42759772Y-77811314D01*
X42788800Y-77753257D01*
X42846858Y-77695200D01*
X42933943Y-77666171D01*
X42992000Y-77666171D01*
X43079086Y-77695200D01*
X43108115Y-77724229D01*
X43340343Y-77724229D02*
X43369372Y-77695200D01*
X43427429Y-77666171D01*
X43572572Y-77666171D01*
X43630629Y-77695200D01*
X43659658Y-77724229D01*
X43688686Y-77782286D01*
X43688686Y-77840343D01*
X43659658Y-77927429D01*
X43311315Y-78275771D01*
X43688686Y-78275771D01*
X44066057Y-77666171D02*
X44124114Y-77666171D01*
X44182171Y-77695200D01*
X44211200Y-77724229D01*
X44240229Y-77782286D01*
X44269257Y-77898400D01*
X44269257Y-78043543D01*
X44240229Y-78159657D01*
X44211200Y-78217714D01*
X44182171Y-78246743D01*
X44124114Y-78275771D01*
X44066057Y-78275771D01*
X44008000Y-78246743D01*
X43978971Y-78217714D01*
X43949943Y-78159657D01*
X43920914Y-78043543D01*
X43920914Y-77898400D01*
X43949943Y-77782286D01*
X43978971Y-77724229D01*
X44008000Y-77695200D01*
X44066057Y-77666171D01*
X60916267Y-27078990D02*
X61032381Y-27117695D01*
X61225905Y-27117695D01*
X61303315Y-27078990D01*
X61342019Y-27040286D01*
X61380724Y-26962876D01*
X61380724Y-26885467D01*
X61342019Y-26808057D01*
X61303315Y-26769352D01*
X61225905Y-26730648D01*
X61071086Y-26691943D01*
X60993677Y-26653238D01*
X60954972Y-26614533D01*
X60916267Y-26537124D01*
X60916267Y-26459714D01*
X60954972Y-26382305D01*
X60993677Y-26343600D01*
X61071086Y-26304895D01*
X61264610Y-26304895D01*
X61380724Y-26343600D01*
X61651657Y-26304895D02*
X61845181Y-27117695D01*
X62000000Y-26537124D01*
X62154819Y-27117695D01*
X62348343Y-26304895D01*
X63083733Y-27117695D02*
X62619276Y-27117695D01*
X62851505Y-27117695D02*
X62851505Y-26304895D01*
X62774095Y-26421010D01*
X62696686Y-26498419D01*
X62619276Y-26537124D01*
D13*
X38347619Y-54000000D02*
X43414286Y-54000000D01*
X40157143Y-64500000D01*
X46671429Y-64500000D02*
X48119048Y-64500000D01*
X48842857Y-64000000D01*
X49204762Y-63500000D01*
X49928571Y-62000000D01*
X50290476Y-60000000D01*
X50290476Y-56000000D01*
X49928571Y-55000000D01*
X49566667Y-54500000D01*
X48842857Y-54000000D01*
X47395238Y-54000000D01*
X46671429Y-54500000D01*
X46309524Y-55000000D01*
X45947619Y-56000000D01*
X45947619Y-58500000D01*
X46309524Y-59500000D01*
X46671429Y-60000000D01*
X47395238Y-60500000D01*
X48842857Y-60500000D01*
X49566667Y-60000000D01*
X49928571Y-59500000D01*
X50290476Y-58500000D01*
D12*
X43900077Y-30867695D02*
X43900077Y-30054895D01*
X44093601Y-30054895D01*
X44209715Y-30093600D01*
X44287124Y-30171010D01*
X44325829Y-30248419D01*
X44364534Y-30403238D01*
X44364534Y-30519352D01*
X44325829Y-30674171D01*
X44287124Y-30751581D01*
X44209715Y-30828990D01*
X44093601Y-30867695D01*
X43900077Y-30867695D01*
X45061220Y-30325829D02*
X45061220Y-30867695D01*
X44867696Y-30016190D02*
X44674172Y-30596762D01*
X45177334Y-30596762D01*
X43900077Y-25867695D02*
X43900077Y-25054895D01*
X44093601Y-25054895D01*
X44209715Y-25093600D01*
X44287124Y-25171010D01*
X44325829Y-25248419D01*
X44364534Y-25403238D01*
X44364534Y-25519352D01*
X44325829Y-25674171D01*
X44287124Y-25751581D01*
X44209715Y-25828990D01*
X44093601Y-25867695D01*
X43900077Y-25867695D01*
X44635467Y-25054895D02*
X45138629Y-25054895D01*
X44867696Y-25364533D01*
X44983810Y-25364533D01*
X45061220Y-25403238D01*
X45099924Y-25441943D01*
X45138629Y-25519352D01*
X45138629Y-25712876D01*
X45099924Y-25790286D01*
X45061220Y-25828990D01*
X44983810Y-25867695D01*
X44751582Y-25867695D01*
X44674172Y-25828990D01*
X44635467Y-25790286D01*
X43900077Y-20867695D02*
X43900077Y-20054895D01*
X44093601Y-20054895D01*
X44209715Y-20093600D01*
X44287124Y-20171010D01*
X44325829Y-20248419D01*
X44364534Y-20403238D01*
X44364534Y-20519352D01*
X44325829Y-20674171D01*
X44287124Y-20751581D01*
X44209715Y-20828990D01*
X44093601Y-20867695D01*
X43900077Y-20867695D01*
X44674172Y-20132305D02*
X44712877Y-20093600D01*
X44790286Y-20054895D01*
X44983810Y-20054895D01*
X45061220Y-20093600D01*
X45099924Y-20132305D01*
X45138629Y-20209714D01*
X45138629Y-20287124D01*
X45099924Y-20403238D01*
X44635467Y-20867695D01*
X45138629Y-20867695D01*
X43900077Y-15867695D02*
X43900077Y-15054895D01*
X44093601Y-15054895D01*
X44209715Y-15093600D01*
X44287124Y-15171010D01*
X44325829Y-15248419D01*
X44364534Y-15403238D01*
X44364534Y-15519352D01*
X44325829Y-15674171D01*
X44287124Y-15751581D01*
X44209715Y-15828990D01*
X44093601Y-15867695D01*
X43900077Y-15867695D01*
X45138629Y-15867695D02*
X44674172Y-15867695D01*
X44906401Y-15867695D02*
X44906401Y-15054895D01*
X44828991Y-15171010D01*
X44751582Y-15248419D01*
X44674172Y-15287124D01*
D15*
X59886517Y-46961054D02*
X61176776Y-47918065D01*
X60718775Y-46378300D01*
X62722399Y-46835808D02*
X61890017Y-46532714D01*
X62009035Y-47335311D02*
X61134904Y-46086923D01*
X61610481Y-45753921D01*
X61770999Y-45730118D01*
X61872072Y-45747939D01*
X62014769Y-45825208D01*
X62139645Y-46003550D01*
X62163449Y-46164068D01*
X62145627Y-46265141D01*
X62068358Y-46407838D01*
X61592782Y-46740840D01*
X62918315Y-44838166D02*
X62680527Y-45004667D01*
X62603258Y-45147364D01*
X62585436Y-45248436D01*
X62591418Y-45510028D01*
X62698472Y-45789441D01*
X63031475Y-46265017D01*
X63174172Y-46342287D01*
X63275244Y-46360108D01*
X63435763Y-46336305D01*
X63673552Y-46169804D01*
X63750820Y-46027106D01*
X63768642Y-45926034D01*
X63744839Y-45765514D01*
X63536713Y-45468279D01*
X63394015Y-45391011D01*
X63292942Y-45373188D01*
X63132423Y-45396992D01*
X62894635Y-45563493D01*
X62817366Y-45706190D01*
X62799544Y-45807263D01*
X62823348Y-45967782D01*
X60843897Y-70671665D02*
X60385896Y-72211429D01*
X61676156Y-71254419D01*
X61931519Y-73293686D02*
X61931642Y-72407838D01*
X61218154Y-72794183D02*
X62092285Y-71545795D01*
X62567862Y-71878798D01*
X62645130Y-72021495D01*
X62662952Y-72122567D01*
X62639148Y-72283086D01*
X62514272Y-72461428D01*
X62371576Y-72538696D01*
X62270502Y-72556518D01*
X62109984Y-72532715D01*
X61634407Y-72199712D01*
X63584319Y-73210683D02*
X63001565Y-74042941D01*
X63620086Y-72526980D02*
X62698472Y-73210559D01*
X63471283Y-73751687D01*
X24886517Y-72961054D02*
X26176776Y-73918065D01*
X25718775Y-72378300D01*
X27722399Y-72835808D02*
X26890017Y-72532714D01*
X27009035Y-73335311D02*
X26134904Y-72086923D01*
X26610481Y-71753921D01*
X26770999Y-71730118D01*
X26872072Y-71747939D01*
X27014769Y-71825208D01*
X27139645Y-72003550D01*
X27163449Y-72164068D01*
X27145627Y-72265141D01*
X27068358Y-72407838D01*
X26592782Y-72740840D01*
X27264398Y-71296044D02*
X28037210Y-70754915D01*
X27954082Y-71521868D01*
X28132423Y-71396992D01*
X28292942Y-71373188D01*
X28394015Y-71391011D01*
X28536713Y-71468279D01*
X28744839Y-71765514D01*
X28768642Y-71926034D01*
X28750820Y-72027106D01*
X28673552Y-72169804D01*
X28316870Y-72419555D01*
X28156350Y-72443358D01*
X28055278Y-72425537D01*
X25843897Y-44671665D02*
X25385896Y-46211429D01*
X26676156Y-45254419D01*
X26931519Y-47293686D02*
X26931642Y-46407838D01*
X26218154Y-46794183D02*
X27092285Y-45545795D01*
X27567862Y-45878798D01*
X27645130Y-46021495D01*
X27662952Y-46122567D01*
X27639148Y-46283086D01*
X27514272Y-46461428D01*
X27371576Y-46538696D01*
X27270502Y-46556518D01*
X27109984Y-46532715D01*
X26634407Y-46199712D01*
X28197976Y-46497194D02*
X28299047Y-46479373D01*
X28459567Y-46503177D01*
X28756802Y-46711303D01*
X28834071Y-46854000D01*
X28851893Y-46955072D01*
X28828089Y-47115592D01*
X28744839Y-47234486D01*
X28560516Y-47371201D01*
X27347648Y-47585063D01*
X28120460Y-48126192D01*
X25843897Y-18671665D02*
X25385896Y-20211429D01*
X26676156Y-19254419D01*
X26931519Y-21293686D02*
X26931642Y-20407838D01*
X26218154Y-20794183D02*
X27092285Y-19545795D01*
X27567862Y-19878798D01*
X27645130Y-20021495D01*
X27662952Y-20122567D01*
X27639148Y-20283086D01*
X27514272Y-20461428D01*
X27371576Y-20538696D01*
X27270502Y-20556518D01*
X27109984Y-20532715D01*
X26634407Y-20199712D01*
X28120460Y-22126192D02*
X27407095Y-21626689D01*
X27763777Y-21876440D02*
X28637908Y-20628052D01*
X28394138Y-20723142D01*
X28191994Y-20758787D01*
X28031475Y-20734983D01*
D12*
X73000000Y-100928571D02*
X73000000Y-102000000D01*
X72928572Y-102214286D01*
X72785715Y-102357143D01*
X72571429Y-102428571D01*
X72428572Y-102428571D01*
X74357143Y-100928571D02*
X74071429Y-100928571D01*
X73928572Y-101000000D01*
X73857143Y-101071429D01*
X73714286Y-101285714D01*
X73642857Y-101571429D01*
X73642857Y-102142857D01*
X73714286Y-102285714D01*
X73785714Y-102357143D01*
X73928572Y-102428571D01*
X74214286Y-102428571D01*
X74357143Y-102357143D01*
X74428572Y-102285714D01*
X74500000Y-102142857D01*
X74500000Y-101785714D01*
X74428572Y-101642857D01*
X74357143Y-101571429D01*
X74214286Y-101500000D01*
X73928572Y-101500000D01*
X73785714Y-101571429D01*
X73714286Y-101642857D01*
X73642857Y-101785714D01*
X29000000Y-100928571D02*
X29000000Y-102000000D01*
X28928572Y-102214286D01*
X28785715Y-102357143D01*
X28571429Y-102428571D01*
X28428572Y-102428571D01*
X30428572Y-100928571D02*
X29714286Y-100928571D01*
X29642857Y-101642857D01*
X29714286Y-101571429D01*
X29857143Y-101500000D01*
X30214286Y-101500000D01*
X30357143Y-101571429D01*
X30428572Y-101642857D01*
X30500000Y-101785714D01*
X30500000Y-102142857D01*
X30428572Y-102285714D01*
X30357143Y-102357143D01*
X30214286Y-102428571D01*
X29857143Y-102428571D01*
X29714286Y-102357143D01*
X29642857Y-102285714D01*
X58750000Y-100928571D02*
X58750000Y-102000000D01*
X58678572Y-102214286D01*
X58535715Y-102357143D01*
X58321429Y-102428571D01*
X58178572Y-102428571D01*
X60107143Y-101428571D02*
X60107143Y-102428571D01*
X59750000Y-100857143D02*
X59392857Y-101928571D01*
X60321429Y-101928571D01*
X73000000Y-86928571D02*
X73000000Y-88000000D01*
X72928572Y-88214286D01*
X72785715Y-88357143D01*
X72571429Y-88428571D01*
X72428572Y-88428571D01*
X73571429Y-86928571D02*
X74500000Y-86928571D01*
X74000000Y-87500000D01*
X74214286Y-87500000D01*
X74357143Y-87571429D01*
X74428572Y-87642857D01*
X74500000Y-87785714D01*
X74500000Y-88142857D01*
X74428572Y-88285714D01*
X74357143Y-88357143D01*
X74214286Y-88428571D01*
X73785714Y-88428571D01*
X73642857Y-88357143D01*
X73571429Y-88285714D01*
X14750000Y-86928571D02*
X14750000Y-88000000D01*
X14678572Y-88214286D01*
X14535715Y-88357143D01*
X14321429Y-88428571D01*
X14178572Y-88428571D01*
X15392857Y-87071429D02*
X15464286Y-87000000D01*
X15607143Y-86928571D01*
X15964286Y-86928571D01*
X16107143Y-87000000D01*
X16178572Y-87071429D01*
X16250000Y-87214286D01*
X16250000Y-87357143D01*
X16178572Y-87571429D01*
X15321429Y-88428571D01*
X16250000Y-88428571D01*
X14750000Y-100928571D02*
X14750000Y-102000000D01*
X14678572Y-102214286D01*
X14535715Y-102357143D01*
X14321429Y-102428571D01*
X14178572Y-102428571D01*
X16250000Y-102428571D02*
X15392857Y-102428571D01*
X15821429Y-102428571D02*
X15821429Y-100928571D01*
X15678572Y-101142857D01*
X15535714Y-101285714D01*
X15392857Y-101357143D01*
%LPC*%
D16*
X55000000Y-79500000D03*
D17*
X57000000Y-79500000D03*
D18*
X49000000Y-42850900D03*
X49000000Y-41149100D03*
X43500000Y-39149100D03*
X43500000Y-40850900D03*
X35000000Y-26850900D03*
X35000000Y-25149100D03*
X30000000Y-23149100D03*
X30000000Y-24850900D03*
X22500000Y-44850900D03*
X22500000Y-43149100D03*
X31500000Y-44649100D03*
X31500000Y-46350900D03*
X49000000Y-82350900D03*
X49000000Y-80649100D03*
X43500000Y-80850900D03*
X43500000Y-79149100D03*
D16*
X71250000Y-15500000D03*
D17*
X73250000Y-15500000D03*
D16*
X72500000Y-52000000D03*
D17*
X70500000Y-52000000D03*
D19*
X71250000Y-36500000D03*
D20*
X73790000Y-36500000D03*
X71250000Y-33960000D03*
X73790000Y-33960000D03*
X71250000Y-31420000D03*
X73790000Y-31420000D03*
X71250000Y-28880000D03*
X73790000Y-28880000D03*
X71250000Y-26340000D03*
X73790000Y-26340000D03*
D21*
X59500000Y-18000000D03*
X64500000Y-18000000D03*
X64500000Y-23000000D03*
X59500000Y-23000000D03*
D22*
X32000000Y-40500000D03*
X22500000Y-16500000D03*
D23*
X51000000Y-91500000D03*
X56000000Y-91500000D03*
X38000000Y-91500000D03*
X33000000Y-91500000D03*
X38000000Y-61500000D03*
X33000000Y-61500000D03*
X51000000Y-61500000D03*
X56000000Y-61500000D03*
D24*
X45770000Y-28000000D03*
D25*
X43230000Y-28000000D03*
D24*
X45770000Y-23000000D03*
D25*
X43230000Y-23000000D03*
D24*
X45770000Y-18000000D03*
D25*
X43230000Y-18000000D03*
D24*
X45770000Y-13000000D03*
D25*
X43230000Y-13000000D03*
D26*
X13460000Y-41500000D03*
X16000000Y-44040000D03*
X18540000Y-41500000D03*
X13460000Y-17000000D03*
X16000000Y-19540000D03*
X18540000Y-17000000D03*
D27*
X52822777Y-33393567D03*
X48727017Y-36261449D03*
X56918537Y-30525685D03*
X71177223Y-59393567D03*
X67081463Y-56525685D03*
X75272983Y-62261449D03*
X17822777Y-59393567D03*
X13727017Y-62261449D03*
X21918537Y-56525685D03*
X36177223Y-33393567D03*
X32081463Y-30525685D03*
X40272983Y-36261449D03*
X17822777Y-33606433D03*
X21918537Y-36474315D03*
X13727017Y-30738551D03*
D28*
X65300000Y-106500000D03*
D29*
X74700000Y-106500000D03*
D30*
X70000000Y-101600000D03*
X70000000Y-109800000D03*
D28*
X28300000Y-106500000D03*
D29*
X37700000Y-106500000D03*
D30*
X33000000Y-101600000D03*
X33000000Y-109800000D03*
D28*
X51300000Y-106500000D03*
D29*
X60700000Y-106500000D03*
D30*
X56000000Y-101600000D03*
X56000000Y-109800000D03*
D28*
X65300000Y-92500000D03*
D29*
X74700000Y-92500000D03*
D30*
X70000000Y-87600000D03*
X70000000Y-95800000D03*
D28*
X14300000Y-92500000D03*
D29*
X23700000Y-92500000D03*
D30*
X19000000Y-87600000D03*
X19000000Y-95800000D03*
D28*
X14300000Y-106500000D03*
D29*
X23700000Y-106500000D03*
D30*
X19000000Y-101600000D03*
X19000000Y-109800000D03*
M02*
