G04 #@! TF.FileFunction,Soldermask,Top*
%FSLAX46Y46*%
G04 Gerber Fmt 4.6, Leading zero omitted, Abs format (unit mm)*
G04 Created by KiCad (PCBNEW 4.0.2-stable) date 2017-11-15 10:17:16 AM*
%MOMM*%
G01*
G04 APERTURE LIST*
%ADD10C,0.100000*%
%ADD11C,1.998980*%
%ADD12C,2.250000*%
%ADD13C,2.500000*%
%ADD14R,1.200000X1.200000*%
%ADD15C,1.200000*%
%ADD16O,2.500000X4.000000*%
%ADD17O,2.000000X2.500000*%
%ADD18O,3.500000X1.500000*%
%ADD19R,1.727200X1.727200*%
%ADD20O,1.727200X1.727200*%
%ADD21C,1.524000*%
G04 APERTURE END LIST*
D10*
D11*
X17822777Y-33606433D03*
X21918537Y-36474315D03*
X13727017Y-30738551D03*
D12*
X59500000Y-18000000D03*
X64500000Y-18000000D03*
X64500000Y-23000000D03*
X59500000Y-23000000D03*
D13*
X24250000Y-43500000D03*
X31500000Y-16250000D03*
D14*
X45770000Y-28000000D03*
D15*
X43230000Y-28000000D03*
D14*
X45770000Y-23000000D03*
D15*
X43230000Y-23000000D03*
D14*
X45770000Y-18000000D03*
D15*
X43230000Y-18000000D03*
D14*
X45770000Y-13000000D03*
D15*
X43230000Y-13000000D03*
D11*
X36177223Y-33393567D03*
X32081463Y-30525685D03*
X40272983Y-36261449D03*
X17822777Y-59393567D03*
X13727017Y-62261449D03*
X21918537Y-56525685D03*
X71177223Y-59393567D03*
X67081463Y-56525685D03*
X75272983Y-62261449D03*
X52822777Y-33393567D03*
X48727017Y-36261449D03*
X56918537Y-30525685D03*
D16*
X14300000Y-106500000D03*
D17*
X23700000Y-106500000D03*
D18*
X19000000Y-101600000D03*
X19000000Y-109800000D03*
D16*
X14300000Y-92500000D03*
D17*
X23700000Y-92500000D03*
D18*
X19000000Y-87600000D03*
X19000000Y-95800000D03*
D16*
X65300000Y-92500000D03*
D17*
X74700000Y-92500000D03*
D18*
X70000000Y-87600000D03*
X70000000Y-95800000D03*
D16*
X51300000Y-106500000D03*
D17*
X60700000Y-106500000D03*
D18*
X56000000Y-101600000D03*
X56000000Y-109800000D03*
D16*
X28300000Y-106500000D03*
D17*
X37700000Y-106500000D03*
D18*
X33000000Y-101600000D03*
X33000000Y-109800000D03*
D16*
X65300000Y-106500000D03*
D17*
X74700000Y-106500000D03*
D18*
X70000000Y-101600000D03*
X70000000Y-109800000D03*
D19*
X71250000Y-36500000D03*
D20*
X73790000Y-36500000D03*
X71250000Y-33960000D03*
X73790000Y-33960000D03*
X71250000Y-31420000D03*
X73790000Y-31420000D03*
X71250000Y-28880000D03*
X73790000Y-28880000D03*
X71250000Y-26340000D03*
X73790000Y-26340000D03*
D21*
X51000000Y-61500000D03*
X56000000Y-61500000D03*
X38000000Y-61500000D03*
X33000000Y-61500000D03*
X38000000Y-91500000D03*
X33000000Y-91500000D03*
X51000000Y-91500000D03*
X56000000Y-91500000D03*
M02*
