<?xml version="1.0" encoding="UTF-8" standalone="no"?>
<!-- Created with Inkscape (http://www.inkscape.org/) -->

<svg
   xmlns:dc="http://purl.org/dc/elements/1.1/"
   xmlns:cc="http://creativecommons.org/ns#"
   xmlns:rdf="http://www.w3.org/1999/02/22-rdf-syntax-ns#"
   xmlns:svg="http://www.w3.org/2000/svg"
   xmlns="http://www.w3.org/2000/svg"
   xmlns:sodipodi="http://sodipodi.sourceforge.net/DTD/sodipodi-0.dtd"
   xmlns:inkscape="http://www.inkscape.org/namespaces/inkscape"
   id="svg4136"
   version="1.1"
   inkscape:version="0.91 r13725"
   xml:space="preserve"
   width="990"
   height="765"
   viewBox="0 0 990 765"
   sodipodi:docname="JOVE panel.svg"><metadata
     id="metadata4142"><rdf:RDF><cc:Work
         rdf:about=""><dc:format>image/svg+xml</dc:format><dc:type
           rdf:resource="http://purl.org/dc/dcmitype/StillImage" /><dc:title></dc:title></cc:Work></rdf:RDF></metadata><defs
     id="defs4140"><clipPath
       clipPathUnits="userSpaceOnUse"
       id="clipPath4154"><path
         d="M 0,612 792,612 792,0 0,0 0,612 Z"
         id="path4156"
         inkscape:connector-curvature="0" /></clipPath><clipPath
       clipPathUnits="userSpaceOnUse"
       id="clipPath4460"><path
         d="M 0,612 792,612 792,0 0,0 0,612 Z"
         id="path4462"
         inkscape:connector-curvature="0" /></clipPath><marker
       orient="auto"
       id="DistanceX"
       style="overflow:visible"
       refX="0.0"
       refY="0.0"><path
         id="path5451"
         d="M 3,-3 L -3,3 M 0,-5 L  0,5"
         style="stroke:#000000; stroke-width:0.5" /></marker><pattern
       id="Hatch"
       x="0"
       y="0"
       patternUnits="userSpaceOnUse"
       width="8"
       height="8"><path
         id="path5454"
         d="M8 4 l-4,4"
         stroke-width="0.25"
         stroke="#000000"
         linecap="square" /><path
         id="path5456"
         d="M6 2 l-4,4"
         stroke-width="0.25"
         stroke="#000000"
         linecap="square" /><path
         id="path5458"
         d="M4 0 l-4,4"
         stroke-width="0.25"
         stroke="#000000"
         linecap="square" /></pattern><symbol
       id="$MODEL_SPACE" /><symbol
       id="$PAPER_SPACE" /></defs><sodipodi:namedview
     pagecolor="#ffffff"
     bordercolor="#666666"
     borderopacity="1"
     objecttolerance="10"
     gridtolerance="10"
     guidetolerance="10"
     inkscape:pageopacity="0"
     inkscape:pageshadow="2"
     inkscape:window-width="1920"
     inkscape:window-height="1017"
     id="namedview4138"
     showgrid="false"
     inkscape:snap-bbox="true"
     inkscape:bbox-paths="true"
     inkscape:bbox-nodes="true"
     inkscape:snap-bbox-edge-midpoints="true"
     inkscape:snap-bbox-midpoints="true"
     inkscape:snap-intersection-paths="true"
     showguides="true"
     inkscape:guide-bbox="true"
     inkscape:snap-object-midpoints="true"
     inkscape:object-nodes="true"
     inkscape:snap-smooth-nodes="true"
     inkscape:snap-center="true"
     inkscape:zoom="1.1111111"
     inkscape:cx="511.543"
     inkscape:cy="354.02758"
     inkscape:window-x="-8"
     inkscape:window-y="-8"
     inkscape:window-maximized="1"
     inkscape:current-layer="layer1"><sodipodi:guide
       position="548.10125,416.0475"
       orientation="1,0"
       id="guide5590" /><sodipodi:guide
       position="548.10137,414.79713"
       orientation="0,1"
       id="guide5592" /></sodipodi:namedview><g
     inkscape:groupmode="layer"
     id="layer1"
     inkscape:label="mechanical"
     style="display:inline"><path
       id="path5466"
       d="m 611.52645,632.60444 0,-455.31496"
       style="fill:none;stroke:none"
       inkscape:connector-curvature="0" /><path
       id="path5468"
       d="m 360.66031,177.28948 0,455.31496"
       style="fill:none;stroke:none"
       inkscape:connector-curvature="0" /><path
       id="path5470"
       d="m 360.66031,632.60444 250.86614,0"
       style="fill:none;stroke:none"
       inkscape:connector-curvature="0" /><path
       id="path5472"
       d="m 360.66031,177.28948 250.86614,0"
       style="fill:none;stroke:none"
       inkscape:connector-curvature="0" /><path
       id="path5474"
       d="m 381.92015,616.30524 10.62991,0"
       style="fill:none;stroke:none"
       inkscape:connector-curvature="0" /><path
       id="path5476"
       d="m 381.92015,627.64384 10.62991,0"
       style="fill:none;stroke:none"
       inkscape:connector-curvature="0" /><path
       id="path5478"
       d="m 381.92015,616.30524 a 5.6693,5.6693 0 1 0 0,11.3386"
       style="fill:none;stroke:none"
       inkscape:connector-curvature="0" /><path
       id="path5480"
       d="m 392.55006,627.64384 a 5.6693,5.6693 0 0 0 0,-11.3386"
       style="fill:none;stroke:none"
       inkscape:connector-curvature="0" /><path
       id="path5482"
       d="m 561.92015,616.30524 10.62991,0"
       style="fill:none;stroke:none"
       inkscape:connector-curvature="0" /><path
       id="path5484"
       d="m 561.92015,627.64384 10.62991,0"
       style="fill:none;stroke:none"
       inkscape:connector-curvature="0" /><path
       id="path5486"
       d="m 561.92015,616.30524 a 5.6693,5.6693 0 1 0 0,11.3386"
       style="fill:none;stroke:none"
       inkscape:connector-curvature="0" /><path
       id="path5488"
       d="m 572.55006,627.64384 a 5.6693,5.6693 0 0 0 0,-11.3386"
       style="fill:none;stroke:none"
       inkscape:connector-curvature="0" /><path
       id="path5490"
       d="m 381.92015,182.25011 10.62991,0"
       style="fill:none;stroke:none"
       inkscape:connector-curvature="0" /><path
       id="path5492"
       d="m 381.92015,193.5887 10.62991,0"
       style="fill:none;stroke:none"
       inkscape:connector-curvature="0" /><path
       id="path5494"
       d="m 381.92015,182.25011 a 5.669295,5.669295 0 1 0 0,11.33859"
       style="fill:none;stroke:none"
       inkscape:connector-curvature="0" /><path
       id="path5496"
       d="m 392.55006,193.5887 a 5.669295,5.669295 0 0 0 0,-11.33859"
       style="fill:none;stroke:none"
       inkscape:connector-curvature="0" /><path
       id="path5498"
       d="m 561.92015,182.25011 10.62991,0"
       style="fill:none;stroke:none"
       inkscape:connector-curvature="0" /><path
       id="path5500"
       d="m 561.92015,193.5887 10.62991,0"
       style="fill:none;stroke:none"
       inkscape:connector-curvature="0" /><path
       id="path5502"
       d="m 561.92015,182.25011 a 5.669295,5.669295 0 1 0 0,11.33859"
       style="fill:none;stroke:none"
       inkscape:connector-curvature="0" /><path
       id="path5504"
       d="m 572.55006,193.5887 a 5.669295,5.669295 0 0 0 0,-11.33859"
       style="fill:none;stroke:none"
       inkscape:connector-curvature="0" /><path
       id="path5506"
       d="m 437.37291,442.32885 a 13.287402,13.287402 0 1 0 -26.5748,0 13.287402,13.287402 0 1 0 26.5748,0 z"
       style="fill:none;stroke:none"
       inkscape:connector-curvature="0" /><path
       id="path5508"
       d="m 406.54614,562.80129 a 10.807095,10.807095 0 1 0 -21.61419,0 10.807095,10.807095 0 0 0 21.61419,0 z"
       style="fill:none;stroke:none"
       inkscape:connector-curvature="0" /><path
       id="path5510"
       d="m 456.15244,562.80129 a 10.80709,10.80709 0 1 0 -21.61418,0 10.80709,10.80709 0 0 0 21.61418,0 z"
       style="fill:none;stroke:none"
       inkscape:connector-curvature="0" /><path
       id="path5512"
       d="m 406.54614,513.195 a 10.807095,10.807095 0 1 0 -21.61419,0 10.807095,10.807095 0 0 0 21.61419,0 z"
       style="fill:none;stroke:none"
       inkscape:connector-curvature="0" /><path
       id="path5514"
       d="m 537.64849,562.80129 a 10.807087,10.807087 0 1 0 -21.61416,0 10.807087,10.807087 0 1 0 21.61417,0 z"
       style="fill:none;stroke:none"
       inkscape:connector-curvature="0" /><path
       id="path5516"
       d="m 587.2548,562.80129 a 10.807095,10.807095 0 1 0 -21.61419,0 10.807095,10.807095 0 0 0 21.61419,0 z"
       style="fill:none;stroke:none"
       inkscape:connector-curvature="0" /><path
       id="path5518"
       d="m 587.2548,513.195 a 10.807095,10.807095 0 1 0 -21.61419,0 10.807095,10.807095 0 0 0 21.61419,0 z"
       style="fill:none;stroke:none"
       inkscape:connector-curvature="0" /><path
       id="path5520"
       d="m 564.93198,258.07672 a 16.83071,16.83071 0 1 0 -33.66142,0 16.83071,16.83071 0 0 0 33.66142,0 z"
       style="fill:none;stroke:none"
       inkscape:connector-curvature="0" /><path
       id="path5522"
       d="m 491.93983,231.50208 a 5.84646,5.84646 0 1 0 -11.69291,0 5.84646,5.84646 0 0 0 11.69291,0 z"
       style="fill:none;stroke:none"
       inkscape:connector-curvature="0" /><path
       id="path5524"
       d="m 561.38866,442.32885 a 13.287405,13.287405 0 1 0 -26.57481,0 13.287405,13.287405 0 0 0 26.57481,0 z"
       style="fill:none;stroke:none"
       inkscape:connector-curvature="0" /><path
       id="path5526"
       d="m 437.37291,350.20287 a 13.287402,13.287402 0 1 0 -26.5748,0 13.287402,13.287402 0 1 0 26.5748,0 z"
       style="fill:none;stroke:none"
       inkscape:connector-curvature="0" /><path
       id="path5528"
       d="m 437.37291,258.07689 a 13.287402,13.287402 0 1 0 -26.5748,0 13.287402,13.287402 0 1 0 26.5748,0 z"
       style="fill:none;stroke:none"
       inkscape:connector-curvature="0" /><path
       id="path5530"
       d="m 491.93983,249.21862 a 5.84646,5.84646 0 1 0 -11.69291,0 5.84646,5.84646 0 0 0 11.69291,0 z"
       style="fill:none;stroke:none"
       inkscape:connector-curvature="0" /><path
       id="path5532"
       d="m 491.93983,266.93515 a 5.84646,5.84646 0 1 0 -11.69291,0 5.84646,5.84646 0 0 0 11.69291,0 z"
       style="fill:none;stroke:none"
       inkscape:connector-curvature="0" /><path
       id="path5534"
       d="m 491.93983,284.65169 a 5.84646,5.84646 0 1 0 -11.69291,0 5.84646,5.84646 0 0 0 11.69291,0 z"
       style="fill:none;stroke:none"
       inkscape:connector-curvature="0" /><path
       id="path5536"
       d="m 561.38866,350.20287 a 13.287405,13.287405 0 1 0 -26.57481,0 13.287405,13.287405 0 0 0 26.57481,0 z"
       style="fill:none;stroke:none"
       inkscape:connector-curvature="0" /></g><g
     id="g4144"
     inkscape:groupmode="layer"
     inkscape:label="JOVE panel print"
     transform="matrix(1.25,0,0,-1.25,0,765)"><path
       d="m 340.13,258.292 -2,0 0,23.917 2,0 0,-23.917 z"
       style="fill:#ffffff;fill-opacity:1;fill-rule:nonzero;stroke:none"
       id="path4148"
       inkscape:connector-curvature="0" /><g
       id="g4150"><g
         id="g4152"
         clip-path="url(#clipPath4154)"><g
           id="g4158"
           transform="translate(438.8213,373.3228)"><path
             d="m 0,0 c -22.875,0 -41.485,-18.61 -41.485,-41.485 0,-22.875 18.61,-41.485 41.485,-41.485 22.875,0 41.485,18.61 41.485,41.485 C 41.485,-18.61 22.875,0 0,0 m 0,-84.97 c -23.978,0 -43.485,19.507 -43.485,43.485 C -43.485,-17.507 -23.978,2 0,2 23.978,2 43.485,-17.507 43.485,-41.485 43.485,-65.463 23.978,-84.97 0,-84.97"
             style="fill:#ffffff;fill-opacity:1;fill-rule:nonzero;stroke:none"
             id="path4160"
             inkscape:connector-curvature="0" /></g><g
           id="g4162"
           transform="translate(446.5059,288.2959)"><path
             d="m 0,0 c -29.046,0 -52.677,-23.631 -52.677,-52.677 0,-29.046 23.631,-52.677 52.677,-52.677 29.046,0 52.677,23.631 52.677,52.677 C 52.677,-23.631 29.046,0 0,0 m 0,-107.354 c -30.15,0 -54.677,24.529 -54.677,54.677 C -54.677,-22.528 -30.15,2 0,2 30.148,2 54.677,-22.528 54.677,-52.677 54.677,-82.825 30.148,-107.354 0,-107.354"
             style="fill:#ffffff;fill-opacity:1;fill-rule:nonzero;stroke:none"
             id="path4164"
             inkscape:connector-curvature="0" /></g><path
           d="m 439.48,258.342 -2,0 0,23.917 2,0 0,-23.917 z"
           style="fill:#ffffff;fill-opacity:1;fill-rule:nonzero;stroke:none"
           id="path4166"
           inkscape:connector-curvature="0" /><g
           id="g4168"
           transform="translate(449.5732,237.126)"><path
             d="m 0,0 -23.919,41.429 1.733,1 L 1.733,1 0,0 Z"
             style="fill:#ffffff;fill-opacity:1;fill-rule:nonzero;stroke:none"
             id="path4170"
             inkscape:connector-curvature="0" /></g><g
           id="g4172"
           transform="translate(427.3867,237.126)"><path
             d="m 0,0 -1.732,1 23.918,41.429 1.733,-1 L 0,0 Z"
             style="fill:#ffffff;fill-opacity:1;fill-rule:nonzero;stroke:none"
             id="path4174"
             inkscape:connector-curvature="0" /></g><path
           d="m 462.399,257.34 -47.838,0 0,2 47.838,0 0,-2 z"
           style="fill:#ffffff;fill-opacity:1;fill-rule:nonzero;stroke:none"
           id="path4176"
           inkscape:connector-curvature="0" /><g
           id="g4178"
           transform="translate(458.6943,245.5146)"><path
             d="m 0,0 -41.429,23.919 1,1.732 L 1,1.732 0,0 Z"
             style="fill:#ffffff;fill-opacity:1;fill-rule:nonzero;stroke:none"
             id="path4180"
             inkscape:connector-curvature="0" /></g><g
           id="g4182"
           transform="translate(418.2656,245.5137)"><path
             d="m 0,0 -1,1.732 41.429,23.919 1,-1.732 L 0,0 Z"
             style="fill:#ffffff;fill-opacity:1;fill-rule:nonzero;stroke:none"
             id="path4184"
             inkscape:connector-curvature="0" /></g><path
           d="m 439.48,331.839 -2,0 0,23.917 2,0 0,-23.917 z"
           style="fill:#ffffff;fill-opacity:1;fill-rule:nonzero;stroke:none"
           id="path4186"
           inkscape:connector-curvature="0" /><g
           id="g4188"
           transform="translate(449.5732,310.6235)"><path
             d="m 0,0 -23.918,41.429 1.733,1 L 1.733,1 0,0 Z"
             style="fill:#ffffff;fill-opacity:1;fill-rule:nonzero;stroke:none"
             id="path4190"
             inkscape:connector-curvature="0" /></g><g
           id="g4192"
           transform="translate(427.3877,310.6235)"><path
             d="m 0,0 -1.732,1 23.917,41.429 1.733,-1 L 0,0 Z"
             style="fill:#ffffff;fill-opacity:1;fill-rule:nonzero;stroke:none"
             id="path4194"
             inkscape:connector-curvature="0" /></g><path
           d="m 462.4,330.838 -47.838,0 0,2 47.838,0 0,-2 z"
           style="fill:#ffffff;fill-opacity:1;fill-rule:nonzero;stroke:none"
           id="path4196"
           inkscape:connector-curvature="0" /><g
           id="g4198"
           transform="translate(458.6953,319.0132)"><path
             d="m 0,0 -41.429,23.918 1,1.733 L 1,1.732 0,0 Z"
             style="fill:#ffffff;fill-opacity:1;fill-rule:nonzero;stroke:none"
             id="path4200"
             inkscape:connector-curvature="0" /></g><g
           id="g4202"
           transform="translate(418.2666,319.0122)"><path
             d="m 0,0 -1,1.732 41.429,23.919 1,-1.732 L 0,0 Z"
             style="fill:#ffffff;fill-opacity:1;fill-rule:nonzero;stroke:none"
             id="path4204"
             inkscape:connector-curvature="0" /></g><path
           d="m 489.443,432.912 -11.436,0 0,2 11.436,0 0,-2 z"
           style="fill:#ffffff;fill-opacity:1;fill-rule:nonzero;stroke:none"
           id="path4206"
           inkscape:connector-curvature="0" /><path
           d="m 489.443,436.912 -11.436,0 0,2 11.436,0 0,-2 z"
           style="fill:#ffffff;fill-opacity:1;fill-rule:nonzero;stroke:none"
           id="path4208"
           inkscape:connector-curvature="0" /><path
           d="m 489.443,440.912 -11.436,0 0,2 11.436,0 0,-2 z"
           style="fill:#ffffff;fill-opacity:1;fill-rule:nonzero;stroke:none"
           id="path4210"
           inkscape:connector-curvature="0" /><path
           d="m 489.443,444.912 -11.436,0 0,2 11.436,0 0,-2 z"
           style="fill:#ffffff;fill-opacity:1;fill-rule:nonzero;stroke:none"
           id="path4212"
           inkscape:connector-curvature="0" /><path
           d="m 489.443,448.912 -11.436,0 0,2 11.436,0 0,-2 z"
           style="fill:#ffffff;fill-opacity:1;fill-rule:nonzero;stroke:none"
           id="path4214"
           inkscape:connector-curvature="0" /><path
           d="m 489.443,452.912 -11.436,0 0,2 11.436,0 0,-2 z"
           style="fill:#ffffff;fill-opacity:1;fill-rule:nonzero;stroke:none"
           id="path4216"
           inkscape:connector-curvature="0" /><path
           d="m 489.443,456.912 -11.436,0 0,2 11.436,0 0,-2 z"
           style="fill:#ffffff;fill-opacity:1;fill-rule:nonzero;stroke:none"
           id="path4218"
           inkscape:connector-curvature="0" /><path
           d="m 489.443,460.912 -11.436,0 0,2 11.436,0 0,-2 z"
           style="fill:#ffffff;fill-opacity:1;fill-rule:nonzero;stroke:none"
           id="path4220"
           inkscape:connector-curvature="0" /><path
           d="m 489.443,464.912 -11.436,0 0,2 11.436,0 0,-2 z"
           style="fill:#ffffff;fill-opacity:1;fill-rule:nonzero;stroke:none"
           id="path4222"
           inkscape:connector-curvature="0" /><g
           id="g4224"
           transform="translate(317.8218,373.2998)"><path
             d="m 0,0 0,-1.056 -2.76,0 0,-1.32 2.392,0 0,-0.976 -2.392,0 0,-2.36 -1.256,0 0,5.712 L 0,0 Z"
             style="fill:#ffffff;fill-opacity:1;fill-rule:nonzero;stroke:none"
             id="path4226"
             inkscape:connector-curvature="0" /></g><g
           id="g4228"
           transform="translate(321.3818,370.7158)"><path
             d="M 0,0 C 0.288,0 0.504,0.064 0.648,0.192 0.792,0.32 0.864,0.528 0.864,0.816 0.864,1.093 0.792,1.295 0.648,1.42 0.504,1.545 0.288,1.608 0,1.608 l -1.376,0 L -1.376,0 0,0 Z M 0.448,2.584 C 0.704,2.584 0.935,2.543 1.14,2.46 1.345,2.378 1.521,2.264 1.668,2.12 1.814,1.976 1.927,1.809 2.004,1.62 2.081,1.431 2.12,1.227 2.12,1.008 2.12,0.672 2.049,0.381 1.908,0.136 1.767,-0.109 1.536,-0.296 1.216,-0.424 l 0,-0.016 C 1.371,-0.483 1.499,-0.548 1.6,-0.636 1.701,-0.724 1.784,-0.828 1.848,-0.948 1.912,-1.068 1.958,-1.2 1.988,-1.344 2.017,-1.488 2.037,-1.632 2.048,-1.776 2.053,-1.867 2.059,-1.973 2.064,-2.096 2.069,-2.219 2.079,-2.344 2.092,-2.472 2.105,-2.6 2.126,-2.721 2.156,-2.836 2.185,-2.951 2.229,-3.048 2.288,-3.128 l -1.256,0 C 0.962,-2.947 0.92,-2.73 0.904,-2.48 0.888,-2.229 0.864,-1.989 0.832,-1.76 0.789,-1.461 0.699,-1.243 0.56,-1.104 0.421,-0.965 0.194,-0.896 -0.12,-0.896 l -1.256,0 0,-2.232 -1.256,0 0,5.712 3.08,0 z"
             style="fill:#ffffff;fill-opacity:1;fill-rule:nonzero;stroke:none"
             id="path4230"
             inkscape:connector-curvature="0" /></g><g
           id="g4232"
           transform="translate(328.9976,373.2998)"><path
             d="m 0,0 0,-1.056 -3.016,0 0,-1.224 2.768,0 0,-0.976 -2.768,0 0,-1.4 3.08,0 0,-1.056 -4.336,0 0,5.712 L 0,0 Z"
             style="fill:#ffffff;fill-opacity:1;fill-rule:nonzero;stroke:none"
             id="path4234"
             inkscape:connector-curvature="0" /></g><g
           id="g4236"
           transform="translate(333.8696,369.1079)"><path
             d="M 0,0 C 0.107,0.144 0.192,0.323 0.256,0.536 0.32,0.749 0.352,1.008 0.352,1.312 0.352,1.562 0.324,1.805 0.268,2.04 0.212,2.274 0.123,2.484 0,2.668 -0.122,2.852 -0.283,2.999 -0.48,3.108 -0.677,3.217 -0.918,3.272 -1.2,3.272 -1.483,3.272 -1.723,3.217 -1.92,3.108 -2.117,2.999 -2.277,2.853 -2.4,2.669 -2.523,2.486 -2.612,2.277 -2.668,2.043 -2.724,1.808 -2.752,1.566 -2.752,1.316 c 0,-0.239 0.028,-0.472 0.084,-0.698 0.056,-0.227 0.145,-0.431 0.268,-0.611 0.123,-0.181 0.283,-0.326 0.48,-0.435 0.197,-0.11 0.437,-0.164 0.72,-0.164 0.133,0 0.235,0.005 0.304,0.014 0.069,0.01 0.136,0.029 0.2,0.058 L -1.232,-0.032 -0.648,0.592 0,0 Z m 0.184,-1.32 c -0.379,-0.219 -0.84,-0.328 -1.384,-0.328 -0.437,0 -0.831,0.076 -1.18,0.228 -0.349,0.152 -0.644,0.361 -0.884,0.628 -0.24,0.267 -0.424,0.58 -0.552,0.94 -0.128,0.36 -0.192,0.748 -0.192,1.164 0,0.427 0.064,0.823 0.192,1.188 0.128,0.365 0.312,0.684 0.552,0.956 0.24,0.272 0.535,0.485 0.884,0.64 0.349,0.155 0.743,0.232 1.18,0.232 0.443,0 0.837,-0.077 1.184,-0.232 C 0.331,3.941 0.624,3.728 0.864,3.456 1.104,3.184 1.288,2.865 1.416,2.5 1.544,2.135 1.608,1.739 1.608,1.312 1.608,0.896 1.544,0.509 1.416,0.152 1.288,-0.206 1.104,-0.52 0.864,-0.792 L 1.576,-1.44 0.992,-2.048 0.184,-1.32 Z"
             style="fill:#ffffff;fill-opacity:1;fill-rule:nonzero;stroke:none"
             id="path4238"
             inkscape:connector-curvature="0" /></g><g
           id="g4240"
           transform="translate(340.7334,368.0239)"><path
             d="m 0,0 c -0.432,-0.376 -1.029,-0.564 -1.792,-0.564 -0.773,0 -1.372,0.187 -1.796,0.56 -0.424,0.373 -0.636,0.949 -0.636,1.728 l 0,3.552 1.256,0 0,-3.552 c 0,-0.155 0.013,-0.307 0.04,-0.456 0.027,-0.149 0.083,-0.281 0.168,-0.396 0.085,-0.115 0.204,-0.208 0.356,-0.28 0.152,-0.072 0.356,-0.108 0.612,-0.108 0.448,0 0.757,0.1 0.928,0.3 0.171,0.2 0.256,0.513 0.256,0.94 l 0,3.552 1.256,0 0,-3.552 C 0.648,0.951 0.432,0.376 0,0"
             style="fill:#ffffff;fill-opacity:1;fill-rule:nonzero;stroke:none"
             id="path4242"
             inkscape:connector-curvature="0" /></g><g
           id="g4244"
           transform="translate(346.9341,373.2998)"><path
             d="m 0,0 0,-1.056 -3.016,0 0,-1.224 2.768,0 0,-0.976 -2.768,0 0,-1.4 3.08,0 0,-1.056 -4.336,0 0,5.712 L 0,0 Z"
             style="fill:#ffffff;fill-opacity:1;fill-rule:nonzero;stroke:none"
             id="path4246"
             inkscape:connector-curvature="0" /></g><g
           id="g4248"
           transform="translate(349.2939,373.2998)"><path
             d="m 0,0 2.384,-3.832 0.016,0 0,3.832 1.176,0 0,-5.712 -1.256,0 -2.376,3.824 -0.016,0 0,-3.824 -1.176,0 0,5.712 L 0,0 Z"
             style="fill:#ffffff;fill-opacity:1;fill-rule:nonzero;stroke:none"
             id="path4250"
             inkscape:connector-curvature="0" /></g><g
           id="g4252"
           transform="translate(357.8379,371.7759)"><path
             d="M 0,0 C -0.075,0.12 -0.168,0.225 -0.28,0.316 -0.392,0.407 -0.519,0.477 -0.66,0.528 -0.801,0.579 -0.949,0.604 -1.104,0.604 -1.387,0.604 -1.626,0.549 -1.824,0.44 -2.021,0.331 -2.181,0.184 -2.304,0 c -0.123,-0.184 -0.212,-0.394 -0.268,-0.628 -0.056,-0.235 -0.084,-0.477 -0.084,-0.728 0,-0.24 0.028,-0.474 0.084,-0.7 0.056,-0.227 0.145,-0.431 0.268,-0.612 0.123,-0.181 0.283,-0.327 0.48,-0.436 0.198,-0.109 0.437,-0.164 0.72,-0.164 0.384,0 0.684,0.117 0.9,0.352 0.216,0.235 0.348,0.544 0.396,0.928 l 1.216,0 C 1.376,-2.345 1.293,-2.668 1.16,-2.956 1.027,-3.244 0.851,-3.489 0.632,-3.692 0.414,-3.895 0.157,-4.049 -0.136,-4.156 c -0.293,-0.107 -0.616,-0.16 -0.968,-0.16 -0.437,0 -0.831,0.076 -1.18,0.228 -0.349,0.152 -0.644,0.361 -0.884,0.628 -0.24,0.267 -0.424,0.58 -0.552,0.94 -0.128,0.36 -0.192,0.748 -0.192,1.164 0,0.427 0.064,0.823 0.192,1.188 0.128,0.365 0.312,0.684 0.552,0.956 0.24,0.272 0.535,0.485 0.884,0.64 0.349,0.155 0.743,0.232 1.18,0.232 0.315,0 0.612,-0.045 0.892,-0.136 C 0.068,1.433 0.319,1.301 0.54,1.128 0.761,0.955 0.944,0.74 1.088,0.484 1.232,0.228 1.323,-0.065 1.36,-0.396 l -1.216,0 C 0.123,-0.252 0.075,-0.12 0,0"
             style="fill:#ffffff;fill-opacity:1;fill-rule:nonzero;stroke:none"
             id="path4254"
             inkscape:connector-curvature="0" /></g><g
           id="g4256"
           transform="translate(359.686,373.2998)"><path
             d="M 0,0 1.408,0 2.744,-2.256 4.072,0 l 1.4,0 -2.12,-3.52 0,-2.192 -1.256,0 0,2.224 L 0,0 Z"
             style="fill:#ffffff;fill-opacity:1;fill-rule:nonzero;stroke:none"
             id="path4258"
             inkscape:connector-curvature="0" /></g><g
           id="g4260"
           transform="translate(429.2305,387.3525)"><path
             d="m 0,0 1.336,-3.928 0.016,0 1.264,3.928 1.768,0 0,-5.712 -1.176,0 0,4.048 -0.016,0 -1.4,-4.048 -0.968,0 -1.4,4.008 -0.016,0 0,-4.008 -1.177,0 0,5.712 L 0,0 Z"
             style="fill:#ffffff;fill-opacity:1;fill-rule:nonzero;stroke:none"
             id="path4262"
             inkscape:connector-curvature="0" /></g><g
           id="g4264"
           transform="translate(436.0107,383.7725)"><path
             d="m 0,0 c 0.056,-0.227 0.145,-0.431 0.268,-0.612 0.123,-0.181 0.283,-0.326 0.48,-0.436 0.197,-0.109 0.437,-0.164 0.72,-0.164 0.282,0 0.522,0.055 0.72,0.164 0.197,0.11 0.357,0.255 0.48,0.436 C 2.79,-0.431 2.88,-0.227 2.936,0 2.992,0.227 3.02,0.46 3.02,0.7 3.02,0.951 2.992,1.193 2.936,1.428 2.88,1.663 2.79,1.872 2.668,2.056 2.545,2.24 2.385,2.387 2.188,2.496 1.99,2.605 1.75,2.66 1.468,2.66 1.185,2.66 0.945,2.605 0.748,2.496 0.551,2.387 0.391,2.24 0.268,2.056 0.145,1.872 0.056,1.663 0,1.428 -0.057,1.193 -0.084,0.951 -0.084,0.7 -0.084,0.46 -0.057,0.227 0,0 m -1.148,1.888 c 0.128,0.365 0.312,0.684 0.551,0.956 0.241,0.272 0.536,0.486 0.885,0.64 0.349,0.155 0.742,0.232 1.18,0.232 0.442,0 0.837,-0.077 1.183,-0.232 C 2.998,3.33 3.292,3.116 3.531,2.844 3.772,2.572 3.956,2.253 4.084,1.888 4.212,1.523 4.275,1.127 4.275,0.7 4.275,0.284 4.212,-0.104 4.084,-0.464 3.956,-0.824 3.772,-1.137 3.531,-1.404 3.292,-1.67 2.998,-1.88 2.651,-2.032 2.305,-2.184 1.91,-2.26 1.468,-2.26 c -0.438,0 -0.831,0.076 -1.18,0.228 -0.349,0.152 -0.644,0.362 -0.885,0.628 -0.239,0.267 -0.423,0.58 -0.551,0.94 -0.128,0.36 -0.192,0.748 -0.192,1.164 0,0.427 0.064,0.823 0.192,1.188"
             style="fill:#ffffff;fill-opacity:1;fill-rule:nonzero;stroke:none"
             id="path4266"
             inkscape:connector-curvature="0" /></g><g
           id="g4268"
           transform="translate(443.7188,382.6968)"><path
             d="m 0,0 c 0.181,0 0.356,0.029 0.527,0.088 0.171,0.059 0.324,0.156 0.456,0.292 0.134,0.136 0.241,0.313 0.321,0.532 0.08,0.218 0.12,0.485 0.12,0.8 C 1.424,2 1.396,2.26 1.34,2.492 1.283,2.724 1.191,2.922 1.063,3.088 0.936,3.253 0.767,3.38 0.556,3.468 0.345,3.556 0.085,3.6 -0.225,3.6 L -1.12,3.6 -1.12,0 0,0 Z M 0.088,4.656 C 0.455,4.656 0.798,4.597 1.115,4.48 1.433,4.362 1.708,4.187 1.939,3.952 2.172,3.717 2.353,3.424 2.483,3.072 2.614,2.72 2.68,2.307 2.68,1.832 2.68,1.416 2.626,1.032 2.52,0.68 2.413,0.328 2.252,0.024 2.035,-0.232 1.819,-0.488 1.55,-0.689 1.228,-0.836 0.904,-0.983 0.524,-1.056 0.088,-1.056 l -2.465,0 0,5.712 2.465,0 z"
             style="fill:#ffffff;fill-opacity:1;fill-rule:nonzero;stroke:none"
             id="path4270"
             inkscape:connector-curvature="0" /></g><g
           id="g4272"
           transform="translate(451.7422,387.3525)"><path
             d="m 0,0 0,-1.056 -3.016,0 0,-1.224 2.768,0 0,-0.976 -2.768,0 0,-1.4 3.08,0 0,-1.056 -4.336,0 0,5.712 L 0,0 Z"
             style="fill:#ffffff;fill-opacity:1;fill-rule:nonzero;stroke:none"
             id="path4274"
             inkscape:connector-curvature="0" /></g><g
           id="g4276"
           transform="translate(316.4692,301.9814)"><path
             d="M 0,0 C 0.288,0 0.504,0.064 0.648,0.192 0.792,0.32 0.864,0.528 0.864,0.816 0.864,1.093 0.792,1.295 0.648,1.42 0.504,1.546 0.288,1.608 0,1.608 l -1.376,0 L -1.376,0 0,0 Z M 0.448,2.584 C 0.704,2.584 0.935,2.543 1.14,2.46 1.345,2.378 1.521,2.264 1.668,2.12 1.814,1.976 1.927,1.809 2.004,1.62 2.081,1.431 2.12,1.227 2.12,1.008 2.12,0.672 2.049,0.381 1.908,0.136 1.767,-0.109 1.536,-0.296 1.216,-0.424 l 0,-0.016 C 1.371,-0.483 1.499,-0.548 1.6,-0.636 1.701,-0.724 1.784,-0.828 1.848,-0.948 1.912,-1.068 1.958,-1.2 1.988,-1.344 2.017,-1.488 2.037,-1.632 2.048,-1.776 2.053,-1.867 2.059,-1.973 2.064,-2.096 2.069,-2.219 2.079,-2.344 2.092,-2.472 2.105,-2.6 2.126,-2.721 2.156,-2.836 2.185,-2.951 2.229,-3.048 2.288,-3.128 l -1.256,0 C 0.962,-2.947 0.92,-2.73 0.904,-2.48 0.888,-2.229 0.864,-1.989 0.832,-1.76 0.789,-1.461 0.699,-1.243 0.56,-1.104 0.421,-0.965 0.194,-0.896 -0.12,-0.896 l -1.256,0 0,-2.232 -1.256,0 0,5.712 3.08,0 z"
             style="fill:#ffffff;fill-opacity:1;fill-rule:nonzero;stroke:none"
             id="path4278"
             inkscape:connector-curvature="0" /></g><g
           id="g4280"
           transform="translate(324.0854,304.5654)"><path
             d="m 0,0 0,-1.056 -3.016,0 0,-1.224 2.768,0 0,-0.976 -2.768,0 0,-1.4 3.08,0 0,-1.056 -4.336,0 0,5.712 L 0,0 Z"
             style="fill:#ffffff;fill-opacity:1;fill-rule:nonzero;stroke:none"
             id="path4282"
             inkscape:connector-curvature="0" /></g><g
           id="g4284"
           transform="translate(326.1572,300.2617)"><path
             d="m 0,0 c 0.069,-0.134 0.161,-0.242 0.276,-0.324 0.115,-0.083 0.249,-0.144 0.404,-0.184 0.155,-0.04 0.315,-0.06 0.48,-0.06 0.112,0 0.232,0.009 0.36,0.028 0.128,0.019 0.248,0.055 0.36,0.108 0.112,0.053 0.205,0.126 0.28,0.22 C 2.234,-0.119 2.272,0 2.272,0.144 2.272,0.298 2.223,0.424 2.124,0.52 2.025,0.616 1.896,0.696 1.736,0.76 1.576,0.824 1.395,0.88 1.192,0.928 0.989,0.976 0.784,1.029 0.576,1.088 0.362,1.141 0.154,1.207 -0.048,1.284 c -0.203,0.077 -0.384,0.177 -0.544,0.3 -0.16,0.123 -0.289,0.276 -0.388,0.46 -0.099,0.184 -0.148,0.406 -0.148,0.668 0,0.293 0.063,0.548 0.188,0.764 0.125,0.216 0.289,0.396 0.492,0.54 0.202,0.144 0.432,0.251 0.688,0.32 0.256,0.069 0.512,0.104 0.768,0.104 0.299,0 0.585,-0.034 0.86,-0.1 C 2.143,4.273 2.386,4.165 2.6,4.016 2.813,3.866 2.982,3.676 3.108,3.444 3.233,3.212 3.296,2.931 3.296,2.6 L 2.08,2.6 C 2.069,2.771 2.033,2.912 1.972,3.024 1.911,3.136 1.829,3.224 1.728,3.288 1.626,3.352 1.51,3.397 1.38,3.424 1.249,3.45 1.107,3.464 0.952,3.464 0.851,3.464 0.749,3.453 0.648,3.432 0.546,3.411 0.455,3.373 0.372,3.32 0.289,3.267 0.221,3.2 0.168,3.12 0.114,3.04 0.088,2.939 0.088,2.816 0.088,2.704 0.109,2.613 0.152,2.544 0.194,2.475 0.278,2.411 0.404,2.352 0.529,2.293 0.703,2.234 0.924,2.176 1.145,2.117 1.435,2.043 1.792,1.952 1.898,1.931 2.046,1.892 2.236,1.836 2.425,1.78 2.613,1.69 2.8,1.568 2.986,1.445 3.148,1.281 3.284,1.076 3.42,0.871 3.488,0.608 3.488,0.288 3.488,0.026 3.437,-0.216 3.336,-0.44 3.234,-0.664 3.084,-0.857 2.884,-1.02 2.684,-1.183 2.436,-1.31 2.14,-1.4 1.844,-1.491 1.501,-1.536 1.112,-1.536 c -0.315,0 -0.62,0.039 -0.916,0.116 -0.296,0.077 -0.558,0.198 -0.784,0.364 -0.227,0.165 -0.407,0.376 -0.54,0.632 -0.134,0.256 -0.198,0.56 -0.192,0.912 l 1.216,0 C -0.104,0.296 -0.07,0.133 0,0"
             style="fill:#ffffff;fill-opacity:1;fill-rule:nonzero;stroke:none"
             id="path4286"
             inkscape:connector-curvature="0" /></g><g
           id="g4288"
           transform="translate(331.6812,300.9854)"><path
             d="m 0,0 c 0.056,-0.227 0.145,-0.431 0.268,-0.612 0.123,-0.181 0.283,-0.327 0.48,-0.436 0.197,-0.109 0.437,-0.164 0.72,-0.164 0.282,0 0.523,0.055 0.72,0.164 0.197,0.109 0.357,0.255 0.48,0.436 C 2.79,-0.431 2.88,-0.227 2.936,0 2.992,0.227 3.02,0.46 3.02,0.7 3.02,0.951 2.992,1.193 2.936,1.428 2.88,1.663 2.79,1.872 2.668,2.056 2.545,2.24 2.385,2.387 2.188,2.496 1.991,2.605 1.75,2.66 1.468,2.66 1.185,2.66 0.945,2.605 0.748,2.496 0.551,2.387 0.391,2.24 0.268,2.056 0.145,1.872 0.056,1.663 0,1.428 -0.056,1.193 -0.084,0.951 -0.084,0.7 -0.084,0.46 -0.056,0.227 0,0 m -1.148,1.888 c 0.128,0.365 0.312,0.684 0.552,0.956 0.24,0.272 0.534,0.485 0.884,0.64 0.349,0.155 0.743,0.232 1.18,0.232 0.443,0 0.837,-0.077 1.184,-0.232 C 2.999,3.329 3.292,3.116 3.532,2.844 3.772,2.572 3.956,2.253 4.084,1.888 4.212,1.523 4.276,1.127 4.276,0.7 4.276,0.284 4.212,-0.104 4.084,-0.464 3.956,-0.824 3.772,-1.137 3.532,-1.404 3.292,-1.671 2.999,-1.88 2.652,-2.032 2.305,-2.184 1.911,-2.26 1.468,-2.26 c -0.437,0 -0.831,0.076 -1.18,0.228 -0.35,0.152 -0.644,0.361 -0.884,0.628 -0.24,0.267 -0.424,0.58 -0.552,0.94 -0.128,0.36 -0.192,0.748 -0.192,1.164 0,0.427 0.064,0.823 0.192,1.188"
             style="fill:#ffffff;fill-opacity:1;fill-rule:nonzero;stroke:none"
             id="path4290"
             inkscape:connector-curvature="0" /></g><g
           id="g4292"
           transform="translate(338.2607,304.5654)"><path
             d="m 0,0 2.384,-3.832 0.016,0 0,3.832 1.176,0 0,-5.712 -1.256,0 -2.376,3.824 -0.016,0 0,-3.824 -1.176,0 0,5.712 L 0,0 Z"
             style="fill:#ffffff;fill-opacity:1;fill-rule:nonzero;stroke:none"
             id="path4294"
             inkscape:connector-curvature="0" /></g><g
           id="g4296"
           transform="translate(346.0615,301.0615)"><path
             d="m 0,0 -0.72,2.096 -0.016,0 L -1.48,0 0,0 Z m -0.072,3.504 2.136,-5.712 -1.304,0 -0.432,1.272 -2.136,0 -0.448,-1.272 -1.264,0 2.16,5.712 1.288,0 z"
             style="fill:#ffffff;fill-opacity:1;fill-rule:nonzero;stroke:none"
             id="path4298"
             inkscape:connector-curvature="0" /></g><g
           id="g4300"
           transform="translate(350.0693,304.5654)"><path
             d="m 0,0 2.384,-3.832 0.016,0 0,3.832 1.176,0 0,-5.712 -1.256,0 -2.376,3.824 -0.016,0 0,-3.824 -1.176,0 0,5.712 L 0,0 Z"
             style="fill:#ffffff;fill-opacity:1;fill-rule:nonzero;stroke:none"
             id="path4302"
             inkscape:connector-curvature="0" /></g><g
           id="g4304"
           transform="translate(358.6133,303.0415)"><path
             d="M 0,0 C -0.075,0.12 -0.168,0.225 -0.28,0.316 -0.392,0.407 -0.519,0.477 -0.66,0.528 -0.801,0.579 -0.949,0.604 -1.104,0.604 -1.387,0.604 -1.626,0.549 -1.824,0.44 -2.021,0.331 -2.181,0.184 -2.304,0 c -0.123,-0.184 -0.212,-0.394 -0.268,-0.628 -0.056,-0.235 -0.084,-0.477 -0.084,-0.728 0,-0.24 0.028,-0.474 0.084,-0.7 0.056,-0.227 0.145,-0.431 0.268,-0.612 0.123,-0.181 0.283,-0.327 0.48,-0.436 0.198,-0.109 0.437,-0.164 0.72,-0.164 0.384,0 0.684,0.117 0.9,0.352 0.216,0.235 0.348,0.544 0.396,0.928 l 1.216,0 C 1.376,-2.345 1.293,-2.668 1.16,-2.956 1.027,-3.244 0.851,-3.489 0.632,-3.692 0.414,-3.895 0.157,-4.049 -0.136,-4.156 c -0.293,-0.107 -0.616,-0.16 -0.968,-0.16 -0.437,0 -0.831,0.076 -1.18,0.228 -0.349,0.152 -0.644,0.361 -0.884,0.628 -0.24,0.267 -0.424,0.58 -0.552,0.94 -0.128,0.36 -0.192,0.748 -0.192,1.164 0,0.427 0.064,0.823 0.192,1.188 0.128,0.365 0.312,0.684 0.552,0.956 0.24,0.272 0.535,0.485 0.884,0.64 0.349,0.154 0.743,0.232 1.18,0.232 0.315,0 0.612,-0.045 0.892,-0.136 C 0.068,1.433 0.319,1.301 0.54,1.128 0.761,0.955 0.944,0.74 1.088,0.484 1.232,0.228 1.323,-0.065 1.36,-0.396 l -1.216,0 C 0.123,-0.252 0.075,-0.12 0,0"
             style="fill:#ffffff;fill-opacity:1;fill-rule:nonzero;stroke:none"
             id="path4306"
             inkscape:connector-curvature="0" /></g><g
           id="g4308"
           transform="translate(365.3496,304.5654)"><path
             d="m 0,0 0,-1.056 -3.016,0 0,-1.224 2.768,0 0,-0.976 -2.768,0 0,-1.4 3.08,0 0,-1.056 -4.336,0 0,5.712 L 0,0 Z"
             style="fill:#ffffff;fill-opacity:1;fill-rule:nonzero;stroke:none"
             id="path4310"
             inkscape:connector-curvature="0" /></g><g
           id="g4312"
           transform="translate(423.8555,304.5659)"><path
             d="m 0,0 0,-4.656 2.784,0 0,-1.056 -4.04,0 0,5.712 L 0,0 Z"
             style="fill:#ffffff;fill-opacity:1;fill-rule:nonzero;stroke:none"
             id="path4314"
             inkscape:connector-curvature="0" /></g><g
           id="g4316"
           transform="translate(431.8164,304.5659)"><path
             d="m 0,0 0,-1.056 -3.017,0 0,-1.224 2.769,0 0,-0.976 -2.769,0 0,-1.4 3.08,0 0,-1.056 -4.336,0 0,5.712 L 0,0 Z"
             style="fill:#ffffff;fill-opacity:1;fill-rule:nonzero;stroke:none"
             id="path4318"
             inkscape:connector-curvature="0" /></g><g
           id="g4320"
           transform="translate(434.168,298.854)"><path
             d="m 0,0 -1.849,5.712 1.288,0 1.273,-4.016 0.015,0 1.289,4.016 1.295,0 L 1.416,0 0,0 Z"
             style="fill:#ffffff;fill-opacity:1;fill-rule:nonzero;stroke:none"
             id="path4322"
             inkscape:connector-curvature="0" /></g><g
           id="g4324"
           transform="translate(442.4404,304.5659)"><path
             d="m 0,0 0,-1.056 -3.017,0 0,-1.224 2.769,0 0,-0.976 -2.769,0 0,-1.4 3.081,0 0,-1.056 -4.336,0 0,5.712 L 0,0 Z"
             style="fill:#ffffff;fill-opacity:1;fill-rule:nonzero;stroke:none"
             id="path4326"
             inkscape:connector-curvature="0" /></g><g
           id="g4328"
           transform="translate(444.8076,304.5659)"><path
             d="m 0,0 0,-4.656 2.784,0 0,-1.056 -4.04,0 0,5.712 L 0,0 Z"
             style="fill:#ffffff;fill-opacity:1;fill-rule:nonzero;stroke:none"
             id="path4330"
             inkscape:connector-curvature="0" /></g><g
           id="g4332"
           transform="translate(450.7764,303.1938)"><path
             d="M 0,0 C 0.085,0.275 0.213,0.515 0.384,0.72 0.555,0.925 0.77,1.086 1.028,1.2 1.287,1.315 1.584,1.372 1.92,1.372 c 0.256,0 0.5,-0.04 0.732,-0.12 C 2.884,1.172 3.088,1.058 3.264,0.908 3.44,0.759 3.58,0.575 3.684,0.356 3.788,0.137 3.84,-0.108 3.84,-0.38 3.84,-0.663 3.795,-0.905 3.704,-1.108 3.613,-1.31 3.493,-1.491 3.344,-1.648 3.194,-1.805 3.025,-1.948 2.836,-2.076 2.646,-2.204 2.456,-2.331 2.264,-2.456 2.072,-2.581 1.886,-2.716 1.704,-2.86 1.522,-3.004 1.362,-3.172 1.224,-3.364 l 2.648,0 0,-0.976 -4.112,0 c 0,0.325 0.047,0.608 0.14,0.848 0.093,0.24 0.22,0.455 0.38,0.644 0.16,0.189 0.348,0.364 0.564,0.524 0.215,0.16 0.444,0.323 0.684,0.488 0.122,0.086 0.253,0.172 0.392,0.26 0.139,0.088 0.265,0.185 0.38,0.292 0.115,0.107 0.211,0.227 0.288,0.36 0.077,0.134 0.116,0.285 0.116,0.456 0,0.272 -0.079,0.484 -0.236,0.636 C 2.31,0.32 2.109,0.396 1.864,0.396 1.698,0.396 1.559,0.358 1.444,0.28 1.329,0.203 1.237,0.102 1.168,-0.024 1.099,-0.149 1.049,-0.288 1.021,-0.44 0.99,-0.592 0.976,-0.743 0.976,-0.892 l -1.088,0 C -0.123,-0.572 -0.085,-0.274 0,0"
             style="fill:#ffffff;fill-opacity:1;fill-rule:nonzero;stroke:none"
             id="path4334"
             inkscape:connector-curvature="0" /></g><g
           id="g4336"
           transform="translate(416.6649,219.4704)"><path
             d="m 0,0 c -0.124,0.198 -0.277,0.372 -0.462,0.522 -0.184,0.15 -0.393,0.266 -0.627,0.349 -0.234,0.084 -0.477,0.126 -0.733,0.126 -0.465,0 -0.862,-0.09 -1.187,-0.27 C -3.335,0.546 -3.599,0.304 -3.8,0 c -0.203,-0.303 -0.35,-0.649 -0.443,-1.036 -0.092,-0.386 -0.139,-0.787 -0.139,-1.2 0,-0.396 0.047,-0.781 0.139,-1.155 0.093,-0.374 0.24,-0.71 0.443,-1.01 0.201,-0.298 0.465,-0.538 0.791,-0.718 0.325,-0.181 0.722,-0.271 1.187,-0.271 0.635,0 1.129,0.193 1.485,0.58 0.356,0.388 0.574,0.897 0.654,1.532 l 2.006,0 C 2.27,-3.868 2.133,-4.401 1.914,-4.876 1.693,-5.351 1.403,-5.756 1.042,-6.089 0.681,-6.424 0.259,-6.679 -0.224,-6.854 -0.709,-7.031 -1.24,-7.118 -1.822,-7.118 c -0.72,0 -1.369,0.125 -1.946,0.375 -0.576,0.251 -1.061,0.596 -1.458,1.036 -0.396,0.439 -0.699,0.957 -0.91,1.551 -0.211,0.593 -0.317,1.234 -0.317,1.92 0,0.704 0.106,1.356 0.317,1.959 0.211,0.602 0.514,1.129 0.91,1.577 0.397,0.449 0.882,0.801 1.458,1.057 0.577,0.254 1.226,0.381 1.946,0.381 0.52,0 1.01,-0.074 1.472,-0.223 C 0.113,2.365 0.525,2.147 0.891,1.861 1.255,1.576 1.558,1.221 1.794,0.799 2.033,0.377 2.181,-0.108 2.244,-0.652 l -2.007,0 C 0.203,-0.416 0.122,-0.198 0,0"
             style="fill:#ffffff;fill-opacity:1;fill-rule:nonzero;stroke:none"
             id="path4338"
             inkscape:connector-curvature="0" /></g><g
           id="g4340"
           transform="translate(422.7749,212.5631)"><path
             d="m 0,0 -3.048,9.422 2.125,0 2.097,-6.626 0.028,0 2.124,6.626 2.138,0 L 2.336,0 0,0 Z"
             style="fill:#ffffff;fill-opacity:1;fill-rule:nonzero;stroke:none"
             id="path4342"
             inkscape:connector-curvature="0" /></g><g
           id="g4344"
           transform="translate(433.1344,219.7217)"><path
             d="M 0,0 C 0.14,0.453 0.351,0.849 0.633,1.187 0.915,1.525 1.269,1.79 1.696,1.98 2.123,2.168 2.613,2.263 3.167,2.263 3.589,2.263 3.992,2.197 4.375,2.065 4.757,1.933 5.094,1.745 5.383,1.498 5.675,1.252 5.905,0.947 6.076,0.586 6.249,0.226 6.334,-0.179 6.334,-0.627 6.334,-1.094 6.26,-1.493 6.11,-1.828 5.96,-2.162 5.762,-2.46 5.516,-2.719 5.269,-2.978 4.99,-3.214 4.678,-3.425 4.365,-3.636 4.051,-3.845 3.734,-4.051 3.418,-4.258 3.111,-4.48 2.811,-4.718 2.511,-4.955 2.247,-5.232 2.018,-5.549 l 4.369,0 0,-1.61 -6.783,0 c 0,0.537 0.077,1.002 0.232,1.399 0.153,0.396 0.362,0.75 0.626,1.063 0.265,0.311 0.574,0.599 0.93,0.863 0.356,0.264 0.733,0.533 1.129,0.806 0.201,0.14 0.417,0.283 0.646,0.428 0.229,0.145 0.438,0.306 0.626,0.482 0.191,0.175 0.348,0.373 0.476,0.594 0.127,0.219 0.191,0.471 0.191,0.752 0,0.448 -0.13,0.798 -0.389,1.049 C 3.811,0.528 3.479,0.652 3.075,0.652 2.801,0.652 2.571,0.59 2.382,0.462 2.192,0.333 2.041,0.168 1.926,-0.04 1.812,-0.246 1.73,-0.475 1.683,-0.727 1.633,-0.976 1.609,-1.226 1.609,-1.471 l -1.794,0 C -0.203,-0.944 -0.14,-0.453 0,0"
             style="fill:#ffffff;fill-opacity:1;fill-rule:nonzero;stroke:none"
             id="path4346"
             inkscape:connector-curvature="0" /></g><g
           id="g4348"
           transform="translate(324.4092,140.6172)"><path
             d="m 0,0 c -0.075,0.12 -0.168,0.225 -0.28,0.315 -0.112,0.091 -0.239,0.162 -0.38,0.212 -0.141,0.051 -0.289,0.077 -0.444,0.077 -0.283,0 -0.522,-0.055 -0.72,-0.165 C -2.021,0.33 -2.181,0.184 -2.304,0 c -0.123,-0.185 -0.212,-0.394 -0.268,-0.628 -0.056,-0.235 -0.084,-0.477 -0.084,-0.728 0,-0.241 0.028,-0.474 0.084,-0.701 0.056,-0.226 0.145,-0.43 0.268,-0.611 0.123,-0.182 0.283,-0.327 0.48,-0.436 0.198,-0.11 0.437,-0.165 0.72,-0.165 0.384,0 0.684,0.118 0.9,0.353 0.216,0.234 0.348,0.544 0.396,0.928 l 1.216,0 C 1.376,-2.346 1.293,-2.668 1.16,-2.956 1.027,-3.244 0.851,-3.489 0.632,-3.692 0.414,-3.895 0.157,-4.05 -0.136,-4.156 c -0.293,-0.107 -0.616,-0.16 -0.968,-0.16 -0.437,0 -0.831,0.076 -1.18,0.228 -0.349,0.152 -0.644,0.361 -0.884,0.628 -0.24,0.267 -0.424,0.58 -0.552,0.94 -0.128,0.36 -0.192,0.748 -0.192,1.164 0,0.426 0.064,0.823 0.192,1.188 0.128,0.365 0.312,0.684 0.552,0.956 0.24,0.272 0.535,0.485 0.884,0.64 0.349,0.154 0.743,0.232 1.18,0.232 0.315,0 0.612,-0.046 0.892,-0.137 C 0.068,1.433 0.319,1.301 0.54,1.128 0.761,0.954 0.944,0.74 1.088,0.483 1.232,0.228 1.323,-0.065 1.36,-0.396 l -1.216,0 C 0.123,-0.252 0.075,-0.12 0,0"
             style="fill:#ffffff;fill-opacity:1;fill-rule:nonzero;stroke:none"
             id="path4350"
             inkscape:connector-curvature="0" /></g><g
           id="g4352"
           transform="translate(328.1138,136.4287)"><path
             d="m 0,0 -1.848,5.712 1.288,0 1.272,-4.016 0.016,0 1.288,4.016 1.296,0 L 1.416,0 0,0 Z"
             style="fill:#ffffff;fill-opacity:1;fill-rule:nonzero;stroke:none"
             id="path4354"
             inkscape:connector-curvature="0" /></g><path
           d="m 351.517,136.429 -1.256,0 0,5.712 1.256,0 0,-5.712 z"
           style="fill:#ffffff;fill-opacity:1;fill-rule:nonzero;stroke:none"
           id="path4356"
           inkscape:connector-curvature="0" /><g
           id="g4358"
           transform="translate(354.0684,142.1406)"><path
             d="m 0,0 2.384,-3.832 0.016,0 0,3.832 1.176,0 0,-5.712 -1.256,0 -2.376,3.824 -0.016,0 0,-3.824 -1.176,0 0,5.712 L 0,0 Z"
             style="fill:#ffffff;fill-opacity:1;fill-rule:nonzero;stroke:none"
             id="path4360"
             inkscape:connector-curvature="0" /></g><g
           id="g4362"
           transform="translate(362.8208,136.4287)"><path
             d="m 0,0 0,3.632 -1.408,0 0,0.856 c 0.197,-0.006 0.388,0.009 0.572,0.044 0.184,0.034 0.349,0.096 0.496,0.184 0.147,0.089 0.271,0.204 0.372,0.348 0.101,0.144 0.168,0.323 0.2,0.537 l 0.904,0 L 1.136,0 0,0 Z"
             style="fill:#ffffff;fill-opacity:1;fill-rule:nonzero;stroke:none"
             id="path4364"
             inkscape:connector-curvature="0" /></g><path
           d="m 415.765,136.43 -1.256,0 0,5.712 1.256,0 0,-5.712 z"
           style="fill:#ffffff;fill-opacity:1;fill-rule:nonzero;stroke:none"
           id="path4366"
           inkscape:connector-curvature="0" /><g
           id="g4368"
           transform="translate(418.3164,142.1416)"><path
             d="m 0,0 2.385,-3.832 0.015,0 0,3.832 1.176,0 0,-5.712 -1.256,0 -2.376,3.824 -0.015,0 0,-3.824 -1.177,0 0,5.712 L 0,0 Z"
             style="fill:#ffffff;fill-opacity:1;fill-rule:nonzero;stroke:none"
             id="path4370"
             inkscape:connector-curvature="0" /></g><g
           id="g4372"
           transform="translate(425.4775,140.7695)"><path
             d="m 0,0 c 0.085,0.274 0.213,0.515 0.384,0.72 0.17,0.205 0.385,0.365 0.643,0.48 0.259,0.114 0.557,0.172 0.893,0.172 0.256,0 0.5,-0.04 0.731,-0.12 C 2.884,1.172 3.088,1.058 3.264,0.908 3.44,0.759 3.579,0.574 3.684,0.355 3.787,0.137 3.84,-0.108 3.84,-0.38 3.84,-0.663 3.794,-0.905 3.703,-1.108 3.613,-1.311 3.493,-1.491 3.344,-1.648 3.194,-1.806 3.025,-1.948 2.836,-2.076 2.647,-2.204 2.455,-2.331 2.264,-2.456 2.071,-2.581 1.885,-2.716 1.703,-2.86 1.523,-3.004 1.362,-3.172 1.224,-3.364 l 2.647,0 0,-0.976 -4.111,0 c 0,0.325 0.047,0.608 0.14,0.848 0.093,0.24 0.219,0.455 0.379,0.644 0.161,0.189 0.349,0.364 0.565,0.524 0.216,0.16 0.443,0.323 0.683,0.488 0.123,0.085 0.254,0.172 0.393,0.26 0.139,0.088 0.265,0.185 0.38,0.292 0.114,0.106 0.21,0.226 0.288,0.36 0.077,0.133 0.115,0.285 0.115,0.456 0,0.272 -0.078,0.484 -0.235,0.636 C 2.311,0.32 2.108,0.395 1.863,0.395 1.698,0.395 1.559,0.357 1.443,0.28 1.329,0.202 1.236,0.102 1.168,-0.024 1.099,-0.149 1.049,-0.288 1.02,-0.44 0.99,-0.592 0.976,-0.743 0.976,-0.892 l -1.088,0 C -0.123,-0.572 -0.086,-0.274 0,0"
             style="fill:#ffffff;fill-opacity:1;fill-rule:nonzero;stroke:none"
             id="path4374"
             inkscape:connector-curvature="0" /></g><g
           id="g4376"
           transform="translate(455.1016,138.5605)"><path
             d="m 0,0 c 0.056,-0.227 0.145,-0.431 0.267,-0.611 0.124,-0.182 0.284,-0.327 0.481,-0.437 0.197,-0.109 0.437,-0.164 0.72,-0.164 0.282,0 0.522,0.055 0.72,0.164 0.197,0.11 0.357,0.255 0.48,0.437 C 2.79,-0.431 2.88,-0.227 2.935,0 2.992,0.227 3.02,0.46 3.02,0.7 3.02,0.951 2.992,1.193 2.935,1.429 2.88,1.663 2.79,1.872 2.668,2.057 2.545,2.24 2.385,2.387 2.188,2.496 1.99,2.605 1.75,2.66 1.468,2.66 1.185,2.66 0.945,2.605 0.748,2.496 0.551,2.387 0.391,2.24 0.267,2.057 0.145,1.872 0.056,1.663 0,1.429 -0.057,1.193 -0.084,0.951 -0.084,0.7 -0.084,0.46 -0.057,0.227 0,0 m -1.148,1.889 c 0.127,0.365 0.312,0.683 0.551,0.956 0.24,0.271 0.535,0.485 0.885,0.639 0.349,0.155 0.742,0.233 1.18,0.233 0.442,0 0.837,-0.078 1.183,-0.233 C 2.998,3.33 3.292,3.116 3.531,2.845 3.771,2.572 3.956,2.254 4.084,1.889 4.212,1.523 4.275,1.127 4.275,0.7 4.275,0.284 4.212,-0.104 4.084,-0.464 3.956,-0.823 3.771,-1.137 3.531,-1.403 3.292,-1.67 2.998,-1.88 2.651,-2.031 2.305,-2.184 1.91,-2.26 1.468,-2.26 c -0.438,0 -0.831,0.076 -1.18,0.229 -0.35,0.151 -0.645,0.361 -0.885,0.628 -0.239,0.266 -0.424,0.58 -0.551,0.939 -0.128,0.36 -0.192,0.748 -0.192,1.164 0,0.427 0.064,0.823 0.192,1.189"
             style="fill:#ffffff;fill-opacity:1;fill-rule:nonzero;stroke:none"
             id="path4378"
             inkscape:connector-curvature="0" /></g><g
           id="g4380"
           transform="translate(464.6338,136.8652)"><path
             d="m 0,0 c -0.433,-0.376 -1.029,-0.564 -1.792,-0.564 -0.773,0 -1.372,0.186 -1.796,0.56 -0.424,0.373 -0.637,0.949 -0.637,1.728 l 0,3.551 1.257,0 0,-3.551 c 0,-0.155 0.013,-0.307 0.04,-0.456 0.027,-0.15 0.082,-0.282 0.168,-0.396 0.085,-0.115 0.203,-0.208 0.356,-0.28 0.152,-0.072 0.356,-0.109 0.612,-0.109 0.448,0 0.757,0.101 0.928,0.301 0.171,0.199 0.256,0.513 0.256,0.94 l 0,3.551 1.255,0 0,-3.551 C 0.647,0.95 0.432,0.376 0,0"
             style="fill:#ffffff;fill-opacity:1;fill-rule:nonzero;stroke:none"
             id="path4382"
             inkscape:connector-curvature="0" /></g><g
           id="g4384"
           transform="translate(466.1133,141.085)"><path
             d="m 0,0 0,1.056 4.68,0 0,-1.056 -1.712,0 0,-4.656 -1.256,0 L 1.712,0 0,0 Z"
             style="fill:#ffffff;fill-opacity:1;fill-rule:nonzero;stroke:none"
             id="path4386"
             inkscape:connector-curvature="0" /></g><g
           id="g4388"
           transform="translate(400.3096,429.9702)"><path
             d="m 0,0 0,-4.656 2.783,0 0,-1.056 -4.04,0 0,5.712 L 0,0 Z"
             style="fill:#ffffff;fill-opacity:1;fill-rule:nonzero;stroke:none"
             id="path4390"
             inkscape:connector-curvature="0" /></g><g
           id="g4392"
           transform="translate(406.2295,427.2822)"><path
             d="m 0,0 c 0.143,0 0.282,0.011 0.416,0.032 0.133,0.021 0.25,0.063 0.352,0.124 0.101,0.061 0.182,0.148 0.244,0.26 0.061,0.112 0.092,0.259 0.092,0.44 0,0.181 -0.031,0.328 -0.092,0.44 C 0.95,1.408 0.869,1.495 0.768,1.556 0.666,1.617 0.549,1.659 0.416,1.68 0.282,1.701 0.143,1.712 0,1.712 l -0.977,0 L -0.977,0 0,0 Z M 0.344,2.688 C 0.701,2.688 1.005,2.636 1.256,2.532 1.506,2.428 1.71,2.291 1.867,2.12 2.024,1.949 2.14,1.755 2.212,1.536 2.283,1.317 2.319,1.091 2.319,0.856 2.319,0.626 2.283,0.401 2.212,0.18 2.14,-0.042 2.024,-0.237 1.867,-0.408 1.71,-0.579 1.506,-0.716 1.256,-0.82 1.005,-0.924 0.701,-0.976 0.344,-0.976 l -1.321,0 0,-2.048 -1.255,0 0,5.712 2.576,0 z"
             style="fill:#ffffff;fill-opacity:1;fill-rule:nonzero;stroke:none"
             id="path4394"
             inkscape:connector-curvature="0" /></g><g
           id="g4396"
           transform="translate(409.3887,428.5981)"><path
             d="M 0,0 C 0.085,0.275 0.213,0.515 0.384,0.72 0.555,0.925 0.77,1.086 1.028,1.2 1.287,1.315 1.584,1.372 1.92,1.372 c 0.256,0 0.5,-0.04 0.732,-0.12 C 2.884,1.172 3.088,1.058 3.264,0.908 3.44,0.759 3.58,0.575 3.684,0.356 3.788,0.137 3.84,-0.108 3.84,-0.38 3.84,-0.663 3.795,-0.905 3.704,-1.108 3.613,-1.31 3.493,-1.491 3.344,-1.648 3.194,-1.805 3.025,-1.948 2.836,-2.076 2.646,-2.204 2.456,-2.331 2.264,-2.456 2.072,-2.581 1.886,-2.716 1.704,-2.86 1.522,-3.004 1.362,-3.172 1.224,-3.364 l 2.648,0 0,-0.976 -4.112,0 c 0,0.325 0.047,0.608 0.14,0.848 0.093,0.24 0.22,0.455 0.38,0.644 0.16,0.189 0.348,0.364 0.564,0.524 0.215,0.16 0.444,0.323 0.684,0.488 0.122,0.086 0.253,0.172 0.392,0.26 0.139,0.088 0.265,0.185 0.38,0.292 0.115,0.107 0.211,0.227 0.288,0.36 0.077,0.134 0.116,0.285 0.116,0.456 0,0.272 -0.079,0.484 -0.236,0.636 C 2.31,0.32 2.109,0.396 1.864,0.396 1.698,0.396 1.559,0.358 1.444,0.28 1.329,0.203 1.237,0.102 1.168,-0.024 1.099,-0.149 1.049,-0.288 1.02,-0.44 0.99,-0.592 0.976,-0.743 0.976,-0.892 l -1.088,0 C -0.123,-0.572 -0.085,-0.274 0,0"
             style="fill:#ffffff;fill-opacity:1;fill-rule:nonzero;stroke:none"
             id="path4398"
             inkscape:connector-curvature="0" /></g><g
           id="g4400"
           transform="translate(416.1016,428.4341)"><path
             d="m 0,0 -1.448,-1.944 1.471,0 L 0.023,0 0,0 Z m -2.345,-2.88 0,1.04 2.433,3.264 1.015,0 0,-3.368 0.745,0 0,-0.936 -0.745,0 0,-1.296 -1.08,0 0,1.296 -2.368,0 z"
             style="fill:#ffffff;fill-opacity:1;fill-rule:nonzero;stroke:none"
             id="path4402"
             inkscape:connector-curvature="0" /></g><g
           id="g4404"
           transform="translate(400.3096,415.5513)"><path
             d="m 0,0 0,-4.656 2.783,0 0,-1.056 -4.04,0 0,5.712 L 0,0 Z"
             style="fill:#ffffff;fill-opacity:1;fill-rule:nonzero;stroke:none"
             id="path4406"
             inkscape:connector-curvature="0" /></g><g
           id="g4408"
           transform="translate(406.2295,412.8633)"><path
             d="m 0,0 c 0.143,0 0.282,0.011 0.416,0.032 0.133,0.021 0.25,0.063 0.352,0.124 0.101,0.061 0.182,0.148 0.244,0.26 0.061,0.112 0.092,0.259 0.092,0.44 0,0.181 -0.031,0.328 -0.092,0.44 C 0.95,1.408 0.869,1.495 0.768,1.556 0.666,1.617 0.549,1.659 0.416,1.68 0.282,1.701 0.143,1.712 0,1.712 l -0.977,0 L -0.977,0 0,0 Z M 0.344,2.688 C 0.701,2.688 1.005,2.636 1.256,2.532 1.506,2.428 1.71,2.29 1.867,2.12 2.024,1.949 2.14,1.755 2.212,1.536 2.283,1.317 2.319,1.091 2.319,0.856 2.319,0.626 2.283,0.401 2.212,0.18 2.14,-0.042 2.024,-0.237 1.867,-0.408 1.71,-0.579 1.506,-0.716 1.256,-0.82 1.005,-0.924 0.701,-0.976 0.344,-0.976 l -1.321,0 0,-2.048 -1.255,0 0,5.712 2.576,0 z"
             style="fill:#ffffff;fill-opacity:1;fill-rule:nonzero;stroke:none"
             id="path4410"
             inkscape:connector-curvature="0" /></g><g
           id="g4412"
           transform="translate(410.9805,409.8394)"><path
             d="m 0,0 0,3.632 -1.408,0 0,0.856 c 0.197,-0.006 0.388,0.009 0.572,0.044 0.185,0.034 0.35,0.096 0.496,0.184 0.147,0.088 0.271,0.204 0.372,0.348 0.102,0.144 0.168,0.323 0.2,0.536 l 0.905,0 0,-5.6 L 0,0 Z"
             style="fill:#ffffff;fill-opacity:1;fill-rule:nonzero;stroke:none"
             id="path4414"
             inkscape:connector-curvature="0" /></g><g
           id="g4416"
           transform="translate(414.0371,414.1792)"><path
             d="M 0,0 C 0.085,0.275 0.213,0.515 0.384,0.72 0.555,0.925 0.77,1.085 1.028,1.2 1.287,1.315 1.584,1.372 1.92,1.372 c 0.256,0 0.5,-0.04 0.732,-0.12 C 2.884,1.172 3.088,1.058 3.264,0.908 3.44,0.759 3.58,0.575 3.684,0.356 3.788,0.137 3.84,-0.108 3.84,-0.38 3.84,-0.663 3.795,-0.905 3.704,-1.108 3.613,-1.311 3.493,-1.491 3.344,-1.648 3.194,-1.805 3.025,-1.948 2.836,-2.076 2.647,-2.204 2.456,-2.331 2.264,-2.456 2.072,-2.581 1.886,-2.716 1.704,-2.86 1.523,-3.004 1.362,-3.172 1.224,-3.364 l 2.648,0 0,-0.976 -4.112,0 c 0,0.325 0.047,0.608 0.14,0.848 0.093,0.24 0.22,0.455 0.38,0.644 0.16,0.189 0.348,0.364 0.564,0.524 0.216,0.16 0.444,0.323 0.684,0.488 0.122,0.085 0.253,0.172 0.392,0.26 0.139,0.088 0.266,0.185 0.38,0.292 0.115,0.107 0.211,0.227 0.288,0.36 0.077,0.134 0.116,0.285 0.116,0.456 0,0.272 -0.079,0.484 -0.236,0.636 C 2.311,0.32 2.109,0.396 1.864,0.396 1.698,0.396 1.559,0.357 1.444,0.28 1.329,0.203 1.237,0.102 1.168,-0.024 1.099,-0.149 1.049,-0.288 1.021,-0.44 0.99,-0.592 0.976,-0.743 0.976,-0.892 l -1.088,0 C -0.123,-0.572 -0.085,-0.274 0,0"
             style="fill:#ffffff;fill-opacity:1;fill-rule:nonzero;stroke:none"
             id="path4418"
             inkscape:connector-curvature="0" /></g><g
           id="g4420"
           transform="translate(401.6533,396.7769)"><path
             d="M 0,0 C 0.122,0 0.24,0.012 0.352,0.036 0.464,0.06 0.562,0.1 0.647,0.156 0.733,0.212 0.801,0.288 0.852,0.384 0.902,0.48 0.928,0.603 0.928,0.752 0.928,1.045 0.845,1.254 0.68,1.38 0.515,1.505 0.296,1.568 0.023,1.568 l -1.367,0 L -1.344,0 0,0 Z m -0.072,2.424 c 0.224,0 0.408,0.053 0.551,0.16 0.145,0.106 0.217,0.28 0.217,0.52 0,0.133 -0.024,0.243 -0.072,0.328 C 0.576,3.517 0.512,3.584 0.432,3.632 0.352,3.68 0.26,3.713 0.156,3.732 0.052,3.75 -0.056,3.76 -0.168,3.76 l -1.176,0 0,-1.336 1.272,0 z m 0.16,2.312 C 0.36,4.736 0.607,4.712 0.832,4.664 1.056,4.616 1.248,4.537 1.408,4.428 1.568,4.318 1.692,4.173 1.78,3.992 1.868,3.811 1.912,3.586 1.912,3.32 1.912,3.032 1.847,2.792 1.716,2.6 1.585,2.408 1.392,2.25 1.136,2.128 1.488,2.026 1.751,1.849 1.924,1.596 2.097,1.343 2.184,1.037 2.184,0.68 2.184,0.392 2.128,0.142 2.016,-0.068 1.904,-0.279 1.753,-0.451 1.564,-0.584 1.375,-0.717 1.158,-0.816 0.916,-0.88 0.673,-0.944 0.424,-0.976 0.168,-0.976 l -2.769,0 0,5.712 2.689,0 z"
             style="fill:#ffffff;fill-opacity:1;fill-rule:nonzero;stroke:none"
             id="path4422"
             inkscape:connector-curvature="0" /></g><g
           id="g4424"
           transform="translate(407.1172,398.8247)"><path
             d="m 0,0 c 0.145,0 0.282,0.011 0.416,0.032 0.133,0.021 0.251,0.063 0.352,0.124 0.101,0.061 0.183,0.148 0.244,0.26 0.061,0.112 0.092,0.259 0.092,0.44 0,0.181 -0.031,0.328 -0.092,0.44 C 0.951,1.408 0.869,1.495 0.768,1.556 0.667,1.617 0.549,1.659 0.416,1.68 0.282,1.701 0.145,1.712 0,1.712 l -0.976,0 L -0.976,0 0,0 Z M 0.344,2.688 C 0.701,2.688 1.005,2.636 1.256,2.532 1.507,2.428 1.711,2.29 1.868,2.12 2.025,1.949 2.14,1.755 2.212,1.536 2.284,1.317 2.32,1.091 2.32,0.856 2.32,0.627 2.284,0.401 2.212,0.18 2.14,-0.042 2.025,-0.237 1.868,-0.408 1.711,-0.579 1.507,-0.716 1.256,-0.82 1.005,-0.924 0.701,-0.976 0.344,-0.976 l -1.32,0 0,-2.048 -1.256,0 0,5.712 2.576,0 z"
             style="fill:#ffffff;fill-opacity:1;fill-rule:nonzero;stroke:none"
             id="path4426"
             inkscape:connector-curvature="0" /></g><g
           id="g4428"
           transform="translate(400.3096,387.4653)"><path
             d="m 0,0 0,-2.192 2.311,0 0,2.192 1.256,0 0,-5.712 -1.256,0 0,2.464 -2.311,0 0,-2.464 -1.257,0 0,5.712 L 0,0 Z"
             style="fill:#ffffff;fill-opacity:1;fill-rule:nonzero;stroke:none"
             id="path4430"
             inkscape:connector-curvature="0" /></g><g
           id="g4432"
           transform="translate(407.4141,384.7773)"><path
             d="m 0,0 c 0.143,0 0.282,0.011 0.416,0.032 0.133,0.021 0.25,0.063 0.351,0.124 0.102,0.061 0.183,0.148 0.245,0.26 0.061,0.112 0.091,0.259 0.091,0.44 0,0.181 -0.03,0.328 -0.091,0.44 C 0.95,1.408 0.869,1.495 0.767,1.556 0.666,1.617 0.549,1.659 0.416,1.68 0.282,1.701 0.143,1.712 0,1.712 l -0.977,0 L -0.977,0 0,0 Z M 0.344,2.688 C 0.701,2.688 1.005,2.636 1.256,2.532 1.506,2.428 1.71,2.291 1.867,2.12 2.024,1.949 2.14,1.755 2.212,1.536 2.283,1.317 2.319,1.091 2.319,0.856 2.319,0.626 2.283,0.401 2.212,0.18 2.14,-0.042 2.024,-0.237 1.867,-0.408 1.71,-0.579 1.506,-0.716 1.256,-0.82 1.005,-0.924 0.701,-0.976 0.344,-0.976 l -1.321,0 0,-2.048 -1.256,0 0,5.712 2.577,0 z"
             style="fill:#ffffff;fill-opacity:1;fill-rule:nonzero;stroke:none"
             id="path4434"
             inkscape:connector-curvature="0" /></g><g
           id="g4436"
           transform="translate(303.5562,139.5568)"><path
             d="M 0,0 C 0.288,0 0.504,0.064 0.648,0.192 0.792,0.32 0.864,0.528 0.864,0.816 0.864,1.093 0.792,1.295 0.648,1.42 0.504,1.546 0.288,1.608 0,1.608 l -1.376,0 L -1.376,0 0,0 Z M 0.448,2.584 C 0.704,2.584 0.935,2.542 1.14,2.46 1.345,2.378 1.521,2.264 1.668,2.12 1.815,1.976 1.927,1.809 2.004,1.62 2.081,1.431 2.12,1.227 2.12,1.008 2.12,0.672 2.049,0.381 1.908,0.136 1.767,-0.109 1.536,-0.296 1.216,-0.424 l 0,-0.016 C 1.371,-0.483 1.499,-0.548 1.6,-0.636 1.701,-0.724 1.784,-0.828 1.848,-0.948 1.912,-1.068 1.959,-1.2 1.988,-1.344 2.017,-1.488 2.037,-1.632 2.048,-1.776 2.053,-1.867 2.059,-1.973 2.064,-2.096 2.069,-2.219 2.079,-2.344 2.092,-2.472 2.105,-2.6 2.127,-2.721 2.156,-2.836 2.185,-2.951 2.229,-3.048 2.288,-3.128 l -1.256,0 C 0.962,-2.947 0.92,-2.73 0.904,-2.48 0.888,-2.229 0.864,-1.989 0.832,-1.76 0.789,-1.461 0.699,-1.243 0.56,-1.104 0.421,-0.965 0.194,-0.896 -0.12,-0.896 l -1.256,0 0,-2.232 -1.256,0 0,5.712 3.08,0 z"
             style="fill:#ffffff;fill-opacity:1;fill-rule:nonzero;stroke:none"
             id="path4438"
             inkscape:connector-curvature="0" /></g><g
           id="g4440"
           transform="translate(311.1724,142.1408)"><path
             d="m 0,0 0,-1.056 -3.016,0 0,-1.224 2.768,0 0,-0.976 -2.768,0 0,-1.4 3.08,0 0,-1.056 -4.336,0 0,5.712 L 0,0 Z"
             style="fill:#ffffff;fill-opacity:1;fill-rule:nonzero;stroke:none"
             id="path4442"
             inkscape:connector-curvature="0" /></g><g
           id="g4444"
           transform="translate(313.2442,137.8371)"><path
             d="m 0,0 c 0.069,-0.134 0.161,-0.242 0.276,-0.324 0.115,-0.083 0.249,-0.144 0.404,-0.184 0.155,-0.04 0.315,-0.06 0.48,-0.06 0.112,0 0.232,0.009 0.36,0.028 0.128,0.019 0.248,0.055 0.36,0.108 0.112,0.053 0.205,0.126 0.28,0.22 C 2.234,-0.119 2.272,0 2.272,0.144 2.272,0.298 2.223,0.424 2.124,0.52 2.025,0.616 1.896,0.696 1.736,0.76 1.576,0.824 1.395,0.88 1.192,0.928 0.989,0.976 0.784,1.029 0.576,1.088 0.362,1.141 0.154,1.207 -0.048,1.284 c -0.203,0.077 -0.384,0.177 -0.544,0.3 -0.16,0.123 -0.289,0.276 -0.388,0.46 -0.099,0.184 -0.148,0.406 -0.148,0.668 0,0.293 0.063,0.548 0.188,0.764 0.125,0.216 0.289,0.396 0.492,0.54 0.202,0.144 0.432,0.251 0.688,0.32 0.256,0.069 0.512,0.104 0.768,0.104 0.299,0 0.585,-0.034 0.86,-0.1 C 2.143,4.273 2.386,4.165 2.6,4.016 2.813,3.866 2.982,3.676 3.108,3.444 3.233,3.212 3.296,2.931 3.296,2.6 L 2.08,2.6 C 2.069,2.77 2.033,2.912 1.972,3.024 1.911,3.136 1.829,3.224 1.728,3.288 1.626,3.352 1.51,3.397 1.38,3.424 1.249,3.45 1.107,3.464 0.952,3.464 0.851,3.464 0.749,3.453 0.648,3.432 0.546,3.411 0.455,3.373 0.372,3.32 0.289,3.267 0.221,3.2 0.168,3.12 0.114,3.04 0.088,2.938 0.088,2.816 0.088,2.704 0.109,2.613 0.152,2.544 0.194,2.475 0.278,2.411 0.404,2.352 0.529,2.293 0.703,2.234 0.924,2.176 1.145,2.117 1.435,2.042 1.792,1.952 1.898,1.931 2.046,1.892 2.236,1.836 2.425,1.78 2.613,1.69 2.8,1.568 2.986,1.445 3.148,1.281 3.284,1.076 3.42,0.871 3.488,0.608 3.488,0.288 3.488,0.026 3.437,-0.216 3.336,-0.44 3.234,-0.664 3.084,-0.857 2.884,-1.02 2.684,-1.183 2.436,-1.31 2.14,-1.4 1.844,-1.491 1.501,-1.536 1.112,-1.536 c -0.315,0 -0.62,0.039 -0.916,0.116 -0.296,0.077 -0.558,0.198 -0.784,0.364 -0.227,0.165 -0.407,0.376 -0.54,0.632 -0.134,0.256 -0.198,0.56 -0.192,0.912 l 1.216,0 C -0.104,0.296 -0.07,0.133 0,0"
             style="fill:#ffffff;fill-opacity:1;fill-rule:nonzero;stroke:none"
             id="path4446"
             inkscape:connector-curvature="0" /></g><g
           id="g4448"
           transform="translate(349.2137,227.5516)"><path
             d="M 0,0 -1.409,-0.006 0.753,5.521 C 0.845,5.758 1.066,5.919 1.32,5.936 1.579,5.948 1.814,5.821 1.936,5.599 l 1.241,-2.247 3.659,0 c 0.289,0 0.543,-0.189 0.627,-0.466 l 0.89,-2.942 -1.37,0.003 -0.633,2.095 -3.559,0 c -0.239,0 -0.458,0.13 -0.574,0.338 L 1.464,3.743 0,0 Z"
             style="fill:#ffffff;fill-opacity:1;fill-rule:nonzero;stroke:none"
             id="path4450"
             inkscape:connector-curvature="0" /></g><g
           id="g4452"
           transform="translate(322.784,233.4329)"><path
             d="m 0,0 -1.409,0.006 2.162,-5.527 c 0.092,-0.237 0.313,-0.399 0.567,-0.415 0.259,-0.012 0.494,0.115 0.616,0.337 l 1.241,2.247 3.659,0 c 0.289,0 0.543,0.189 0.627,0.466 l 0.89,2.942 -1.37,-0.003 -0.633,-2.095 -3.559,0 c -0.239,0 -0.458,-0.13 -0.574,-0.338 L 1.464,-3.743 0,0 Z"
             style="fill:#ffffff;fill-opacity:1;fill-rule:nonzero;stroke:none"
             id="path4454"
             inkscape:connector-curvature="0" /></g></g></g><g
       id="g4456"><g
         id="g4458"
         clip-path="url(#clipPath4460)"><g
           id="g4464"
           transform="translate(332.0566,286.5361)"><path
             d="m 0,0 c -28.929,0 -52.464,-23.535 -52.464,-52.464 0,-28.929 23.535,-52.464 52.464,-52.464 28.929,0 52.464,23.535 52.464,52.464 C 52.464,-23.535 28.929,0 0,0 m 0,-106.928 c -30.031,0 -54.464,24.433 -54.464,54.464 C -54.464,-22.433 -30.031,2 0,2 30.031,2 54.464,-22.433 54.464,-52.464 54.464,-82.495 30.031,-106.928 0,-106.928"
             style="fill:#b1391f;fill-opacity:1;fill-rule:nonzero;stroke:none"
             id="path4466"
             inkscape:connector-curvature="0" /></g><path
           d="m 340.13,331.797 -2,0 0,23.918 2,0 0,-23.918 z"
           style="fill:#b1391f;fill-opacity:1;fill-rule:nonzero;stroke:none"
           id="path4468"
           inkscape:connector-curvature="0" /><g
           id="g4470"
           transform="translate(350.2227,310.5811)"><path
             d="m 0,0 -23.918,41.43 1.732,1 L 1.732,1 0,0 Z"
             style="fill:#b1391f;fill-opacity:1;fill-rule:nonzero;stroke:none"
             id="path4472"
             inkscape:connector-curvature="0" /></g><g
           id="g4474"
           transform="translate(328.0371,310.5811)"><path
             d="m 0,0 -1.732,1 23.918,41.43 1.732,-1 L 0,0 Z"
             style="fill:#b1391f;fill-opacity:1;fill-rule:nonzero;stroke:none"
             id="path4476"
             inkscape:connector-curvature="0" /></g><path
           d="m 363.05,330.795 -47.838,0 0,2 47.838,0 0,-2 z"
           style="fill:#b1391f;fill-opacity:1;fill-rule:nonzero;stroke:none"
           id="path4478"
           inkscape:connector-curvature="0" /><g
           id="g4480"
           transform="translate(359.3447,318.9707)"><path
             d="m 0,0 -41.429,23.919 1,1.732 L 1,1.732 0,0 Z"
             style="fill:#b1391f;fill-opacity:1;fill-rule:nonzero;stroke:none"
             id="path4482"
             inkscape:connector-curvature="0" /></g><g
           id="g4484"
           transform="translate(318.916,318.9697)"><path
             d="m 0,0 -1,1.732 41.429,23.919 1,-1.732 L 0,0 Z"
             style="fill:#b1391f;fill-opacity:1;fill-rule:nonzero;stroke:none"
             id="path4486"
             inkscape:connector-curvature="0" /></g><path
           d="m 340.13,405.686 -2,0 0,30.047 2,0 0,-30.047 z"
           style="fill:#b1391f;fill-opacity:1;fill-rule:nonzero;stroke:none"
           id="path4488"
           inkscape:connector-curvature="0" /><g
           id="g4490"
           transform="translate(353.2871,379.1616)"><path
             d="m 0,0 -30.048,52.046 1.733,1 L 1.732,1 0,0 Z"
             style="fill:#b1391f;fill-opacity:1;fill-rule:nonzero;stroke:none"
             id="path4492"
             inkscape:connector-curvature="0" /></g><g
           id="g4494"
           transform="translate(324.9717,379.1616)"><path
             d="m 0,0 -1.732,1 30.047,52.046 1.733,-1 L 0,0 Z"
             style="fill:#b1391f;fill-opacity:1;fill-rule:nonzero;stroke:none"
             id="path4496"
             inkscape:connector-curvature="0" /></g><path
           d="m 369.179,404.684 -60.098,0 0,2 60.098,0 0,-2 z"
           style="fill:#b1391f;fill-opacity:1;fill-rule:nonzero;stroke:none"
           id="path4498"
           inkscape:connector-curvature="0" /><g
           id="g4500"
           transform="translate(364.6528,389.7949)"><path
             d="m 0,0 -52.046,30.049 1,1.732 L 1,1.732 0,0 Z"
             style="fill:#b1391f;fill-opacity:1;fill-rule:nonzero;stroke:none"
             id="path4502"
             inkscape:connector-curvature="0" /></g><g
           id="g4504"
           transform="translate(313.6069,389.7935)"><path
             d="m 0,0 -1,1.732 52.046,30.049 1,-1.732 L 0,0 Z"
             style="fill:#b1391f;fill-opacity:1;fill-rule:nonzero;stroke:none"
             id="path4506"
             inkscape:connector-curvature="0" /></g><path
           d="m 489.443,381.53 -11.436,0 0,49.333 11.436,0 0,-49.333 z"
           style="fill:#b1391f;fill-opacity:1;fill-rule:nonzero;stroke:none"
           id="path4508"
           inkscape:connector-curvature="0" /><g
           id="g4510"
           transform="translate(344.0184,219.4511)"><path
             d="m 0,0 c -0.122,0.196 -0.274,0.366 -0.456,0.515 -0.183,0.148 -0.39,0.262 -0.62,0.345 -0.231,0.083 -0.473,0.124 -0.725,0.124 -0.461,0 -0.852,-0.089 -1.174,-0.267 C -3.297,0.538 -3.558,0.299 -3.758,0 c -0.201,-0.301 -0.346,-0.642 -0.437,-1.024 -0.092,-0.384 -0.137,-0.779 -0.137,-1.189 0,-0.392 0.045,-0.772 0.137,-1.142 0.091,-0.369 0.236,-0.702 0.437,-0.997 0.2,-0.296 0.461,-0.534 0.783,-0.712 0.322,-0.179 0.713,-0.268 1.174,-0.268 0.627,0 1.116,0.191 1.469,0.575 0.352,0.383 0.567,0.888 0.646,1.514 l 1.983,0 C 2.244,-3.826 2.11,-4.352 1.892,-4.822 1.675,-5.292 1.387,-5.692 1.031,-6.023 0.675,-6.353 0.256,-6.606 -0.221,-6.78 -0.7,-6.954 -1.227,-7.041 -1.801,-7.041 c -0.713,0 -1.355,0.124 -1.924,0.373 -0.571,0.247 -1.051,0.589 -1.443,1.024 -0.391,0.435 -0.691,0.946 -0.9,1.533 -0.209,0.587 -0.313,1.22 -0.313,1.898 0,0.696 0.104,1.343 0.313,1.939 0.209,0.596 0.509,1.115 0.9,1.56 0.392,0.443 0.872,0.791 1.443,1.043 0.569,0.252 1.211,0.379 1.924,0.379 0.514,0 0.999,-0.075 1.455,-0.223 C 0.111,2.337 0.52,2.122 0.881,1.84 1.242,1.556 1.54,1.208 1.775,0.789 2.01,0.371 2.158,-0.107 2.219,-0.647 l -1.984,0 C 0.201,-0.411 0.122,-0.196 0,0"
             style="fill:#b1391f;fill-opacity:1;fill-rule:nonzero;stroke:none"
             id="path4512"
             inkscape:connector-curvature="0" /></g><g
           id="g4514"
           transform="translate(350.0607,212.6187)"><path
             d="m 0,0 -3.015,9.318 2.101,0 2.075,-6.551 0.027,0 2.101,6.551 2.114,0 L 2.31,0 0,0 Z"
             style="fill:#b1391f;fill-opacity:1;fill-rule:nonzero;stroke:none"
             id="path4516"
             inkscape:connector-curvature="0" /></g><g
           id="g4518"
           transform="translate(362.9021,212.6187)"><path
             d="m 0,0 0,5.924 -2.297,0 0,1.397 c 0.322,-0.009 0.633,0.015 0.933,0.072 0.301,0.056 0.57,0.156 0.81,0.3 0.239,0.145 0.441,0.333 0.607,0.568 0.164,0.235 0.274,0.526 0.325,0.875 l 1.475,0 L 1.853,0 0,0 Z"
             style="fill:#b1391f;fill-opacity:1;fill-rule:nonzero;stroke:none"
             id="path4520"
             inkscape:connector-curvature="0" /></g><g
           id="g4522"
           transform="translate(350.2227,237.0762)"><path
             d="m 0,0 -23.918,41.429 1.732,1 L 1.732,1 0,0 Z"
             style="fill:#b1391f;fill-opacity:1;fill-rule:nonzero;stroke:none"
             id="path4524"
             inkscape:connector-curvature="0" /></g><g
           id="g4526"
           transform="translate(328.0366,237.0762)"><path
             d="m 0,0 -1.732,1 23.918,41.429 1.732,-1 L 0,0 Z"
             style="fill:#b1391f;fill-opacity:1;fill-rule:nonzero;stroke:none"
             id="path4528"
             inkscape:connector-curvature="0" /></g><path
           d="m 363.049,257.29 -47.838,0 0,2 47.838,0 0,-2 z"
           style="fill:#b1391f;fill-opacity:1;fill-rule:nonzero;stroke:none"
           id="path4530"
           inkscape:connector-curvature="0" /><g
           id="g4532"
           transform="translate(359.3447,245.4648)"><path
             d="m 0,0 -41.429,23.919 1,1.732 L 1,1.732 0,0 Z"
             style="fill:#b1391f;fill-opacity:1;fill-rule:nonzero;stroke:none"
             id="path4534"
             inkscape:connector-curvature="0" /></g><g
           id="g4536"
           transform="translate(318.9155,245.4639)"><path
             d="m 0,0 -1,1.732 41.429,23.919 1,-1.732 L 0,0 Z"
             style="fill:#b1391f;fill-opacity:1;fill-rule:nonzero;stroke:none"
             id="path4538"
             inkscape:connector-curvature="0" /></g><g
           id="g4540"
           transform="translate(363.1035,466.5402)"><path
             d="m 0,0 2.292,0 c 0.197,0 0.386,-0.01 0.566,-0.027 0.18,-0.018 0.315,-0.073 0.405,-0.162 0.071,-0.091 0.12,-0.22 0.148,-0.391 0.027,-0.171 0.045,-0.355 0.053,-0.553 0.009,-0.198 0.009,-0.395 0,-0.593 C 3.456,-1.924 3.451,-2.103 3.451,-2.265 l 0,-5.419 0,-4.583 c 0,-0.414 0.005,-0.84 0.013,-1.281 0.009,-0.44 -0.031,-0.841 -0.12,-1.199 -0.036,-0.091 -0.051,-0.176 -0.041,-0.257 0.009,-0.081 -0.004,-0.167 -0.04,-0.256 -0.054,-0.162 -0.099,-0.328 -0.135,-0.499 -0.037,-0.171 -0.09,-0.337 -0.162,-0.499 -0.396,-0.988 -0.962,-1.743 -1.699,-2.264 -0.251,-0.18 -0.525,-0.333 -0.822,-0.459 -0.297,-0.126 -0.606,-0.242 -0.93,-0.35 -0.144,-0.036 -0.283,-0.068 -0.418,-0.094 -0.135,-0.027 -0.274,-0.058 -0.418,-0.094 -0.144,-0.037 -0.301,-0.054 -0.472,-0.054 -0.171,0 -0.336,-0.019 -0.499,-0.055 l -0.296,0 c -0.107,-0.035 -0.257,-0.049 -0.445,-0.041 -0.189,0.01 -0.337,0.032 -0.445,0.068 -0.198,0 -0.342,0.009 -0.431,0.028 -0.18,0.036 -0.355,0.062 -0.526,0.08 -0.17,0.019 -0.328,0.045 -0.472,0.081 -0.197,0.073 -0.395,0.135 -0.592,0.189 -0.199,0.054 -0.388,0.125 -0.566,0.216 -0.576,0.251 -1.097,0.597 -1.565,1.038 -0.467,0.44 -0.827,0.948 -1.078,1.522 -0.073,0.18 -0.135,0.36 -0.189,0.54 -0.054,0.179 -0.107,0.368 -0.161,0.566 -0.036,0.144 -0.054,0.251 -0.054,0.324 -0.037,0.09 -0.05,0.17 -0.04,0.242 0.008,0.072 -0.006,0.153 -0.041,0.243 -0.019,0.036 -0.027,0.085 -0.027,0.148 l 0,0.149 0,0.269 c -0.018,0.09 -0.027,0.184 -0.027,0.283 l 0,0.283 c 0,0.252 0.009,0.49 0.027,0.715 0.017,0.224 0.098,0.382 0.242,0.472 0.144,0.09 0.338,0.135 0.58,0.135 l 0.687,0 c 0.162,0 0.351,0.003 0.567,0.013 0.215,0.009 0.427,0.009 0.633,0 0.206,-0.01 0.395,-0.032 0.566,-0.068 0.171,-0.036 0.283,-0.099 0.337,-0.189 0.126,-0.18 0.176,-0.413 0.149,-0.701 -0.027,-0.287 -0.014,-0.557 0.04,-0.808 0.036,-0.108 0.058,-0.212 0.068,-0.31 0.009,-0.099 0.03,-0.203 0.067,-0.31 0.072,-0.252 0.162,-0.482 0.27,-0.688 0.107,-0.206 0.259,-0.382 0.458,-0.525 0.215,-0.162 0.512,-0.297 0.89,-0.405 0.377,-0.108 0.763,-0.117 1.159,-0.027 0.089,0.036 0.17,0.054 0.243,0.054 0.071,0 0.143,0.018 0.215,0.054 0.54,0.216 0.899,0.584 1.078,1.106 0.073,0.161 0.118,0.327 0.135,0.498 0.018,0.171 0.045,0.355 0.081,0.553 l 0,0.31 c 0,0.099 0.009,0.202 0.028,0.31 0.017,0.089 0.022,0.193 0.013,0.31 -0.01,0.116 -0.013,0.229 -0.013,0.337 l 0,1.294 0,7.225 0,2.589 c 0,0.198 -0.006,0.404 -0.015,0.62 -0.008,0.215 0.032,0.395 0.122,0.539 0.072,0.108 0.206,0.197 0.405,0.27 0.107,0 0.179,0.008 0.215,0.027"
             style="fill:#b1391f;fill-opacity:1;fill-rule:nonzero;stroke:none"
             id="path4542"
             inkscape:connector-curvature="0" /></g><g
           id="g4544"
           transform="translate(384.1599,456.4563)"><path
             d="m 0,0 c 0.035,0.09 0.054,0.221 0.054,0.392 0,0.17 -0.019,0.3 -0.054,0.39 l 0,0.459 c -0.019,0.071 -0.023,0.138 -0.013,0.202 0.009,0.062 -0.006,0.13 -0.041,0.201 -0.036,0.144 -0.059,0.283 -0.068,0.418 -0.009,0.135 -0.032,0.266 -0.067,0.392 0,0.089 -0.018,0.189 -0.053,0.296 C -0.297,2.948 -0.351,3.145 -0.405,3.344 -0.459,3.541 -0.531,3.739 -0.62,3.936 -1.016,4.853 -1.586,5.595 -2.332,6.161 -3.078,6.727 -4.116,7.01 -5.447,7.01 -5.483,6.992 -5.522,6.987 -5.567,6.997 -5.612,7.006 -5.653,7.001 -5.689,6.983 -5.76,6.965 -5.833,6.961 -5.904,6.969 -5.977,6.978 -6.058,6.965 -6.148,6.929 -6.345,6.893 -6.538,6.852 -6.727,6.808 -6.916,6.763 -7.091,6.704 -7.252,6.633 -8.007,6.309 -8.605,5.859 -9.045,5.284 -9.486,4.71 -9.84,4.017 -10.11,3.209 -10.164,3.01 -10.205,2.817 -10.232,2.628 -10.258,2.44 -10.299,2.247 -10.353,2.049 -10.371,1.977 -10.38,1.91 -10.38,1.847 c 0,-0.063 -0.009,-0.13 -0.028,-0.203 -0.036,-0.089 -0.044,-0.188 -0.026,-0.296 0.018,-0.107 0.018,-0.206 0,-0.296 -0.036,-0.09 -0.058,-0.257 -0.068,-0.499 -0.009,-0.243 0.005,-0.409 0.041,-0.499 l 0,-0.296 c 0.017,-0.073 0.027,-0.149 0.027,-0.23 0,-0.081 0.009,-0.157 0.026,-0.229 0,-0.071 0.005,-0.139 0.015,-0.202 0.009,-0.063 0.013,-0.13 0.013,-0.202 0.054,-0.198 0.094,-0.396 0.122,-0.593 0.026,-0.199 0.075,-0.387 0.148,-0.566 0.197,-0.576 0.44,-1.11 0.727,-1.604 0.288,-0.495 0.647,-0.895 1.078,-1.2 0.09,-0.09 0.185,-0.162 0.284,-0.216 0.098,-0.054 0.202,-0.108 0.31,-0.162 0.197,-0.126 0.409,-0.225 0.634,-0.296 0.224,-0.072 0.462,-0.145 0.714,-0.216 0.09,-0.036 0.176,-0.049 0.256,-0.041 0.081,0.009 0.167,0.005 0.257,-0.013 0.107,-0.036 0.215,-0.053 0.323,-0.053 l 0.35,0 0.216,0 c 0.09,0.017 0.17,0.021 0.243,0.013 0.071,-0.009 0.152,0.004 0.242,0.04 0.18,0.035 0.36,0.067 0.54,0.095 0.179,0.026 0.35,0.075 0.512,0.148 0.772,0.305 1.379,0.701 1.82,1.186 0.44,0.486 0.813,1.114 1.118,1.888 0.09,0.197 0.158,0.412 0.203,0.646 0.044,0.233 0.103,0.467 0.175,0.701 l 0.081,0.647 C -0.01,-0.629 0,-0.553 0,-0.472 L 0,-0.215 0,0 Z M 4.179,1.132 C 4.215,1.025 4.237,0.84 4.247,0.58 4.255,0.319 4.241,0.135 4.206,0.027 l 0,-0.351 C 4.17,-0.504 4.152,-0.692 4.152,-0.89 4.152,-1.087 4.134,-1.285 4.097,-1.482 4.061,-1.608 4.035,-1.734 4.017,-1.859 3.999,-1.986 3.972,-2.112 3.936,-2.238 3.846,-2.56 3.761,-2.875 3.679,-3.181 3.599,-3.486 3.495,-3.784 3.37,-4.071 2.83,-5.329 2.103,-6.376 1.186,-7.212 0.27,-8.048 -0.863,-8.691 -2.211,-9.139 -2.409,-9.211 -2.607,-9.264 -2.804,-9.301 -3.003,-9.337 -3.2,-9.373 -3.397,-9.409 c -0.09,-0.035 -0.185,-0.054 -0.284,-0.054 -0.098,0 -0.193,-0.009 -0.283,-0.026 L -4.853,-9.57 c -0.073,-0.018 -0.198,-0.023 -0.378,-0.015 -0.18,0.01 -0.296,0.023 -0.35,0.041 -0.091,0.019 -0.175,0.023 -0.256,0.014 -0.081,-0.009 -0.167,-0.004 -0.256,0.013 l -0.297,0 c -0.144,0.037 -0.279,0.058 -0.404,0.067 -0.126,0.01 -0.261,0.032 -0.405,0.068 -0.143,0.036 -0.287,0.067 -0.431,0.095 -0.145,0.026 -0.287,0.058 -0.431,0.094 -0.199,0.071 -0.4,0.144 -0.607,0.215 -0.207,0.072 -0.409,0.152 -0.606,0.243 -1.079,0.467 -1.991,1.092 -2.737,1.874 -0.746,0.781 -1.353,1.712 -1.82,2.79 -0.108,0.252 -0.198,0.517 -0.269,0.795 -0.072,0.279 -0.154,0.562 -0.244,0.849 -0.036,0.09 -0.053,0.167 -0.053,0.23 0,0.063 -0.009,0.13 -0.027,0.203 -0.036,0.125 -0.063,0.255 -0.081,0.39 -0.019,0.135 -0.045,0.274 -0.081,0.418 -0.018,0.09 -0.023,0.176 -0.013,0.256 0.009,0.081 -0.005,0.158 -0.041,0.229 -0.017,0.109 -0.017,0.221 0,0.337 0.018,0.117 0.018,0.229 0,0.338 -0.036,0.089 -0.054,0.229 -0.054,0.418 0,0.188 0.018,0.327 0.054,0.418 0.018,0.088 0.018,0.174 0,0.255 -0.017,0.081 -0.017,0.166 0,0.256 l 0,0.162 c 0.036,0.125 0.05,0.247 0.041,0.364 -0.01,0.117 0.004,0.23 0.04,0.337 0.035,0.09 0.054,0.184 0.054,0.283 0,0.099 0.018,0.193 0.054,0.283 0.09,0.305 0.162,0.607 0.216,0.903 0.054,0.297 0.135,0.589 0.242,0.877 0.144,0.305 0.279,0.611 0.405,0.917 0.125,0.305 0.278,0.592 0.458,0.862 0.539,0.862 1.159,1.582 1.86,2.157 0.701,0.575 1.555,1.069 2.562,1.483 0.232,0.09 0.48,0.161 0.741,0.215 0.26,0.055 0.516,0.117 0.768,0.189 0.09,0.036 0.176,0.055 0.256,0.055 0.081,0 0.167,0.008 0.257,0.026 l 0.808,0.081 c 0.036,0.018 0.086,0.018 0.148,0 0.064,-0.019 0.113,-0.019 0.149,0 1.276,0.036 2.381,-0.094 3.316,-0.391 C -1.331,9.827 -0.495,9.418 0.242,8.897 0.476,8.736 0.719,8.551 0.971,8.345 1.222,8.138 1.428,7.927 1.591,7.711 1.681,7.621 1.77,7.527 1.861,7.428 1.949,7.329 2.031,7.235 2.103,7.145 2.3,6.858 2.498,6.566 2.695,6.268 2.894,5.972 3.064,5.653 3.208,5.312 3.316,5.059 3.411,4.817 3.491,4.583 3.572,4.35 3.657,4.099 3.747,3.829 3.801,3.649 3.846,3.464 3.882,3.276 3.917,3.087 3.962,2.894 4.017,2.697 4.052,2.57 4.071,2.449 4.071,2.332 4.071,2.215 4.089,2.103 4.125,1.996 4.161,1.888 4.174,1.775 4.165,1.659 4.156,1.541 4.161,1.438 4.179,1.348 l 0,-0.216 z"
             style="fill:#b1391f;fill-opacity:1;fill-rule:nonzero;stroke:none"
             id="path4546"
             inkscape:connector-curvature="0" /></g><g
           id="g4548"
           transform="translate(390.1178,466.5402)"><path
             d="M 0,0 2.184,0 2.791,0 C 2.997,0 3.163,-0.045 3.289,-0.135 3.451,-0.225 3.559,-0.369 3.613,-0.566 3.666,-0.765 3.73,-0.962 3.801,-1.16 3.927,-1.502 4.039,-1.843 4.138,-2.184 4.237,-2.525 4.35,-2.876 4.476,-3.235 4.835,-4.35 5.19,-5.464 5.54,-6.579 c 0.351,-1.114 0.705,-2.229 1.065,-3.343 0.09,-0.306 0.184,-0.611 0.283,-0.917 0.099,-0.306 0.193,-0.611 0.283,-0.916 0.054,-0.162 0.108,-0.323 0.163,-0.486 0.053,-0.161 0.125,-0.306 0.215,-0.431 0.017,-0.036 0.04,-0.058 0.068,-0.067 0.026,-0.01 0.058,-0.031 0.094,-0.068 0.197,0 0.327,0.086 0.391,0.257 0.062,0.17 0.121,0.327 0.175,0.472 0.144,0.377 0.27,0.763 0.377,1.158 0.108,0.396 0.234,0.8 0.378,1.214 0.395,1.186 0.777,2.368 1.145,3.545 0.369,1.177 0.75,2.359 1.147,3.546 0.089,0.287 0.178,0.57 0.269,0.849 0.089,0.278 0.179,0.561 0.269,0.849 0.073,0.144 0.131,0.287 0.176,0.431 0.045,0.144 0.139,0.261 0.283,0.351 C 12.447,-0.045 12.595,0 12.766,0 l 0.526,0 1.806,0 0.539,0 c 0.18,0 0.324,-0.036 0.431,-0.109 0.18,-0.09 0.243,-0.255 0.189,-0.498 -0.054,-0.242 -0.108,-0.445 -0.161,-0.606 -0.163,-0.414 -0.311,-0.841 -0.446,-1.282 -0.135,-0.44 -0.274,-0.875 -0.418,-1.307 -0.054,-0.108 -0.094,-0.215 -0.12,-0.323 -0.028,-0.108 -0.06,-0.216 -0.095,-0.323 -0.145,-0.378 -0.274,-0.765 -0.391,-1.16 -0.117,-0.396 -0.247,-0.791 -0.391,-1.186 -0.485,-1.457 -0.971,-2.917 -1.456,-4.381 -0.485,-1.466 -0.971,-2.926 -1.455,-4.382 -0.163,-0.413 -0.307,-0.831 -0.432,-1.253 -0.126,-0.423 -0.261,-0.841 -0.404,-1.254 -0.09,-0.252 -0.18,-0.481 -0.27,-0.687 -0.09,-0.207 -0.269,-0.347 -0.539,-0.418 -0.145,-0.037 -0.306,-0.05 -0.486,-0.041 -0.18,0.009 -0.35,0.014 -0.512,0.014 l -1.941,0 c -0.198,0 -0.409,-0.005 -0.634,-0.014 -0.225,-0.009 -0.408,0.032 -0.552,0.122 -0.198,0.107 -0.329,0.273 -0.391,0.499 -0.063,0.224 -0.131,0.444 -0.202,0.66 -0.126,0.378 -0.247,0.759 -0.364,1.146 -0.118,0.386 -0.239,0.769 -0.365,1.146 -0.395,1.132 -0.772,2.273 -1.132,3.424 -0.36,1.149 -0.737,2.3 -1.132,3.45 -0.161,0.521 -0.319,1.039 -0.472,1.551 -0.152,0.512 -0.319,1.019 -0.499,1.523 -0.071,0.162 -0.126,0.323 -0.161,0.486 -0.036,0.161 -0.09,0.322 -0.162,0.485 -0.162,0.502 -0.32,1.001 -0.472,1.496 -0.153,0.494 -0.319,0.993 -0.498,1.496 -0.036,0.162 -0.081,0.32 -0.135,0.472 -0.054,0.153 -0.109,0.311 -0.163,0.472 -0.017,0.09 -0.03,0.18 -0.04,0.27 -0.009,0.09 0.004,0.17 0.04,0.242 0.054,0.125 0.172,0.206 0.352,0.243 0.035,0.017 0.075,0.022 0.12,0.013 C -0.077,-0.023 -0.036,-0.019 0,0"
             style="fill:#b1391f;fill-opacity:1;fill-rule:nonzero;stroke:none"
             id="path4550"
             inkscape:connector-curvature="0" /></g><g
           id="g4552"
           transform="translate(408.99,466.5402)"><path
             d="m 0,0 10.084,0 2.345,0 c 0.215,0 0.423,-0.01 0.62,-0.027 0.198,-0.018 0.341,-0.09 0.431,-0.215 0.036,-0.055 0.058,-0.118 0.068,-0.19 0.009,-0.072 0.031,-0.144 0.067,-0.215 l 0,-0.296 c 0.018,-0.127 0.023,-0.262 0.013,-0.405 -0.008,-0.144 -0.013,-0.279 -0.013,-0.405 0,-0.144 0.005,-0.283 0.013,-0.418 0.01,-0.135 0.005,-0.265 -0.013,-0.391 -0.017,-0.089 -0.026,-0.224 -0.026,-0.404 -0.055,-0.215 -0.145,-0.36 -0.27,-0.431 -0.107,-0.073 -0.242,-0.108 -0.405,-0.108 l -0.512,0 -1.86,0 -4.88,0 c -0.144,0 -0.31,0.004 -0.498,0.013 -0.189,0.009 -0.378,0.009 -0.566,0 C 4.408,-3.501 4.233,-3.518 4.071,-3.546 3.91,-3.573 3.792,-3.612 3.721,-3.667 3.595,-3.757 3.518,-3.887 3.492,-4.058 3.464,-4.229 3.451,-4.422 3.451,-4.637 l 0,-1.537 0,-0.782 C 3.487,-7.1 3.523,-7.222 3.559,-7.32 3.595,-7.419 3.658,-7.495 3.747,-7.55 3.856,-7.621 3.981,-7.662 4.125,-7.67 4.269,-7.68 4.422,-7.684 4.583,-7.684 l 1.456,0 4.637,0 c 0.126,0 0.283,0.004 0.472,0.014 0.19,0.008 0.373,0.008 0.553,0 0.18,-0.01 0.347,-0.023 0.499,-0.041 0.153,-0.019 0.264,-0.054 0.337,-0.107 0.09,-0.055 0.152,-0.163 0.189,-0.324 0.036,-0.162 0.058,-0.337 0.068,-0.526 0.008,-0.189 0.008,-0.382 0,-0.58 -0.01,-0.197 -0.015,-0.369 -0.015,-0.512 l 0,-0.378 c 0,-0.126 -0.017,-0.233 -0.053,-0.323 -0.037,-0.144 -0.108,-0.26 -0.216,-0.35 -0.091,-0.054 -0.211,-0.09 -0.364,-0.109 -0.153,-0.017 -0.323,-0.026 -0.512,-0.026 -0.189,0 -0.377,0.004 -0.566,0.013 -0.189,0.009 -0.347,0.013 -0.472,0.013 l -5.258,0 c -0.215,0 -0.422,0.005 -0.62,0.014 -0.197,0.009 -0.381,0 -0.553,-0.027 -0.171,-0.026 -0.314,-0.081 -0.431,-0.161 -0.117,-0.081 -0.202,-0.203 -0.255,-0.364 -0.019,-0.09 -0.028,-0.185 -0.028,-0.283 l 0,-0.284 0,-1.024 0,-1.51 c 0,-0.216 0.013,-0.409 0.041,-0.58 0.026,-0.171 0.103,-0.301 0.229,-0.39 0.054,-0.054 0.121,-0.086 0.202,-0.095 0.081,-0.01 0.166,-0.032 0.257,-0.068 l 0.268,0 c 0.09,-0.017 0.189,-0.022 0.298,-0.013 0.107,0.009 0.206,0.013 0.296,0.013 l 1.132,0 5.068,0 1.43,0 0.418,0 c 0.135,0 0.255,-0.026 0.364,-0.08 0.144,-0.054 0.242,-0.154 0.296,-0.297 0.036,-0.09 0.058,-0.198 0.067,-0.324 0.01,-0.125 0.014,-0.26 0.014,-0.404 l 0,-1.24 c 0,-0.215 -0.01,-0.418 -0.027,-0.607 -0.018,-0.189 -0.099,-0.328 -0.243,-0.418 -0.107,-0.09 -0.246,-0.134 -0.418,-0.134 l -0.552,0 -2.022,0 -7.98,0 -2.13,0 c -0.253,0 -0.472,0.013 -0.661,0.04 -0.189,0.027 -0.328,0.113 -0.418,0.256 -0.072,0.108 -0.107,0.247 -0.107,0.418 l 0,0.498 0,1.942 0,7.334 0,5.877 0,1.671 0,0.485 c 0,0.163 0.035,0.288 0.107,0.378 0.072,0.126 0.206,0.216 0.405,0.27 0.035,0.017 0.071,0.022 0.108,0.013 C -0.071,-0.023 -0.036,-0.019 0,0"
             style="fill:#b1391f;fill-opacity:1;fill-rule:nonzero;stroke:none"
             id="path4554"
             inkscape:connector-curvature="0" /></g><g
           id="g4556"
           transform="translate(394.6279,278.0056)"><path
             d="M 0,0 C 0.547,0.149 1.053,0.442 1.502,0.871 1.946,1.293 2.31,1.874 2.584,2.599 2.853,3.316 2.99,4.259 2.99,5.401 l 0,9.51 c 0,1.789 -0.382,3.174 -1.134,4.114 -0.766,0.979 -1.922,1.475 -3.437,1.475 -1.493,0 -2.648,-0.495 -3.439,-1.478 -0.73,-0.959 -1.101,-2.343 -1.101,-4.111 l 0,-9.51 c 0,-1.146 0.137,-2.089 0.406,-2.803 0.272,-0.722 0.637,-1.304 1.082,-1.727 0.449,-0.429 0.955,-0.722 1.501,-0.871 0.527,-0.145 1.049,-0.219 1.551,-0.219 0.521,0 1.053,0.074 1.581,0.219 m 0.94,18.27 c 0.559,-0.7 0.839,-1.82 0.839,-3.359 l 0,-9.51 c 0,-1.559 -0.28,-2.69 -0.839,-3.389 -0.581,-0.701 -1.421,-1.05 -2.521,-1.05 -1.12,0 -1.949,0.349 -2.49,1.05 -0.579,0.74 -0.869,1.87 -0.869,3.389 l 0,9.51 c 0,1.499 0.29,2.619 0.869,3.359 0.52,0.7 1.35,1.049 2.49,1.049 1.121,0 1.96,-0.349 2.521,-1.049 M -8.46,1.23 c 0.671,0.88 1.012,2.253 1.012,4.081 0,1.829 -0.341,3.203 -1.01,4.079 -0.218,0.296 -0.468,0.549 -0.746,0.757 0.278,0.214 0.527,0.462 0.744,0.741 0.671,0.881 1.012,2.255 1.012,4.083 0,1.828 -0.341,3.201 -1.009,4.077 -0.706,0.964 -1.813,1.452 -3.292,1.452 -1.498,0 -2.616,-0.488 -3.323,-1.453 -0.668,-0.92 -1.007,-2.291 -1.007,-4.076 0,-1.786 0.339,-3.158 1.008,-4.079 0.214,-0.291 0.464,-0.54 0.745,-0.745 -0.283,-0.2 -0.533,-0.454 -0.746,-0.758 -0.668,-0.92 -1.007,-2.292 -1.007,-4.078 0,-1.785 0.339,-3.157 1.008,-4.077 0.707,-0.964 1.825,-1.453 3.322,-1.453 1.478,0 2.585,0.489 3.289,1.449 m -3.289,-0.268 c -1.08,0 -1.87,0.33 -2.369,0.99 -0.501,0.68 -0.751,1.799 -0.751,3.359 0,1.56 0.25,2.69 0.751,3.39 0.499,0.66 1.289,0.989 2.369,0.989 1.08,0 1.86,-0.329 2.34,-0.989 0.499,-0.7 0.749,-1.83 0.749,-3.39 0,-1.56 -0.25,-2.679 -0.749,-3.359 -0.48,-0.66 -1.26,-0.99 -2.34,-0.99 m -3.12,14.009 c 0,1.559 0.25,2.679 0.751,3.359 0.499,0.66 1.289,0.989 2.369,0.989 1.08,0 1.86,-0.329 2.34,-0.989 0.499,-0.68 0.749,-1.8 0.749,-3.359 0,-1.56 -0.25,-2.681 -0.749,-3.361 -0.48,-0.659 -1.26,-0.989 -2.34,-0.989 -1.08,0 -1.87,0.33 -2.369,0.989 -0.501,0.68 -0.751,1.801 -0.751,3.361 m 27.85,-4.83 c 0,-10.784 -8.742,-19.526 -19.526,-19.526 -10.784,0 -19.526,8.742 -19.526,19.526 0,10.784 8.742,19.526 19.526,19.526 10.784,0 19.526,-8.742 19.526,-19.526"
             style="fill:#b1391f;fill-opacity:1;fill-rule:nonzero;stroke:none"
             id="path4558"
             inkscape:connector-curvature="0" /></g></g></g></g></svg>