M48
INCH,TZ
T1C0.020
T2C0.020
T3C0.025
T4C0.026
T5C0.030
T6C0.039
T7C0.040
T8C0.043
T9C0.051
T10C0.053
%
G90
G05
T2
X5709Y-27559
X6457Y-22480
X7008Y-9567
X8563Y-6988
X9154Y-9350
X9386Y-25779
X9543Y-25044
X9606Y-21063
X10394Y-28583
X10669Y-18228
X11417Y-10728
X11417Y-27402
X12244Y-32874
X13937Y-28858
X13937Y-38386
X13976Y-30512
X15118Y-13386
X15433Y-27047
X15551Y-27756
X15650Y-35335
X15735Y-9646
X15748Y-10591
X16417Y-11713
X17126Y-32441
X17780Y-32117
X18819Y-39094
X19331Y-35276
X19724Y-19291
X20472Y-18031
X20472Y-21142
X20536Y-23425
X21063Y-28937
X21063Y-29724
X21496Y-19843
X21732Y-28150
X22126Y-30906
X23191Y-15978
X24016Y-21654
X25827Y-15039
T3
X6175Y-30079
X6594Y-16831
X7480Y-24508
X7776Y-18307
X7874Y-11713
X8031Y-20079
X9350Y-5906
X9567Y-24488
X10669Y-30433
X10925Y-9547
X10925Y-12697
X11063Y-21693
X13622Y-25236
X14016Y-7402
X14173Y-37598
X14469Y-8268
X14469Y-12165
X15562Y-29325
X15748Y-31553
X15753Y-9055
X15849Y-30591
X16024Y-26496
X17126Y-15748
X17659Y-24546
X17802Y-36772
X18031Y-26028
X18133Y-16943
X18661Y-32835
X18996Y-5610
X19370Y-30000
X19587Y-36811
X24685Y-14016
X24803Y-16437
X24803Y-18209
X25069Y-5512
X25630Y-5512
X26211Y-5512
X27559Y-5512
X27835Y-15551
X28219Y-15935
X28219Y-16486
T4
X17020Y-5118
X17020Y-7087
X17020Y-9055
X17020Y-11024
X18020Y-5118
X18020Y-7087
X18020Y-9055
X18020Y-11024
T5
X12992Y-24213
X12992Y-36024
X14961Y-24213
X14961Y-36024
X20079Y-24213
X20079Y-36024
X22047Y-24213
X22047Y-36024
T7
X28051Y-10370
X28051Y-11370
X28051Y-12370
X28051Y-13370
X28051Y-14370
X29051Y-10370
X29051Y-11370
X29051Y-12370
X29051Y-13370
X29051Y-14370
T8
X23425Y-7087
X23425Y-9055
X25394Y-7087
X25394Y-9055
T9
X5404Y-12102
X5404Y-24512
X7017Y-13231
X7017Y-23383
X8629Y-14360
X8629Y-22254
X12630Y-12018
X14243Y-13147
X15856Y-14276
X19184Y-14276
X20796Y-13147
X22409Y-12018
X26410Y-22254
X28023Y-23383
X29635Y-24512
T10
X9547Y-17126
X12402Y-6398
T1
X7087Y-34488G85X7874Y-34488
G05
X7087Y-37717G85X7874Y-37717
G05
X7087Y-40000G85X7874Y-40000
G05
X7087Y-43228G85X7874Y-43228
G05
X12598Y-40000G85X13386Y-40000
G05
X12598Y-43228G85X13386Y-43228
G05
X21654Y-40000G85X22441Y-40000
G05
X21654Y-43228G85X22441Y-43228
G05
X27165Y-34488G85X27953Y-34488
G05
X27165Y-37717G85X27953Y-37717
G05
X27165Y-40000G85X27953Y-40000
G05
X27165Y-43228G85X27953Y-43228
G05
T6
X5630Y-36122G85X5630Y-36713
G05
X5630Y-41634G85X5630Y-42224
G05
X9331Y-36319G85X9331Y-36516
G05
X9331Y-41831G85X9331Y-42028
G05
X11142Y-41634G85X11142Y-42224
G05
X14843Y-41831G85X14843Y-42028
G05
X20197Y-41634G85X20197Y-42224
G05
X23898Y-41831G85X23898Y-42028
G05
X25709Y-36122G85X25709Y-36713
G05
X25709Y-41634G85X25709Y-42224
G05
X29409Y-36319G85X29409Y-36516
G05
X29409Y-41831G85X29409Y-42028
G05
T0
M30
