G04 #@! TF.FileFunction,Legend,Top*
%FSLAX46Y46*%
G04 Gerber Fmt 4.6, Leading zero omitted, Abs format (unit mm)*
G04 Created by KiCad (PCBNEW 4.0.2-stable) date 2017-12-28 3:27:39 PM*
%MOMM*%
G01*
G04 APERTURE LIST*
%ADD10C,0.100000*%
%ADD11C,0.300000*%
%ADD12C,0.150000*%
%ADD13C,0.304800*%
%ADD14C,0.152400*%
%ADD15C,2.098980*%
%ADD16C,2.350000*%
%ADD17C,2.600000*%
%ADD18R,1.300000X1.300000*%
%ADD19C,1.300000*%
%ADD20O,2.600000X4.100000*%
%ADD21O,2.100000X2.600000*%
%ADD22O,3.600000X1.600000*%
%ADD23R,1.827200X1.827200*%
%ADD24O,1.827200X1.827200*%
%ADD25C,1.624000*%
G04 APERTURE END LIST*
D10*
D11*
X52035714Y-15678571D02*
X52035714Y-14178571D01*
X52535714Y-15250000D01*
X53035714Y-14178571D01*
X53035714Y-15678571D01*
X54035714Y-14178571D02*
X54321428Y-14178571D01*
X54464286Y-14250000D01*
X54607143Y-14392857D01*
X54678571Y-14678571D01*
X54678571Y-15178571D01*
X54607143Y-15464286D01*
X54464286Y-15607143D01*
X54321428Y-15678571D01*
X54035714Y-15678571D01*
X53892857Y-15607143D01*
X53750000Y-15464286D01*
X53678571Y-15178571D01*
X53678571Y-14678571D01*
X53750000Y-14392857D01*
X53892857Y-14250000D01*
X54035714Y-14178571D01*
X55321429Y-15678571D02*
X55321429Y-14178571D01*
X55678572Y-14178571D01*
X55892857Y-14250000D01*
X56035715Y-14392857D01*
X56107143Y-14535714D01*
X56178572Y-14821429D01*
X56178572Y-15035714D01*
X56107143Y-15321429D01*
X56035715Y-15464286D01*
X55892857Y-15607143D01*
X55678572Y-15678571D01*
X55321429Y-15678571D01*
X56821429Y-14892857D02*
X57321429Y-14892857D01*
X57535715Y-15678571D02*
X56821429Y-15678571D01*
X56821429Y-14178571D01*
X57535715Y-14178571D01*
X35250000Y-14892857D02*
X34750000Y-14892857D01*
X34750000Y-15678571D02*
X34750000Y-14178571D01*
X35464286Y-14178571D01*
X36892857Y-15678571D02*
X36392857Y-14964286D01*
X36035714Y-15678571D02*
X36035714Y-14178571D01*
X36607142Y-14178571D01*
X36750000Y-14250000D01*
X36821428Y-14321429D01*
X36892857Y-14464286D01*
X36892857Y-14678571D01*
X36821428Y-14821429D01*
X36750000Y-14892857D01*
X36607142Y-14964286D01*
X36035714Y-14964286D01*
X37535714Y-14892857D02*
X38035714Y-14892857D01*
X38250000Y-15678571D02*
X37535714Y-15678571D01*
X37535714Y-14178571D01*
X38250000Y-14178571D01*
X39892857Y-15821429D02*
X39750000Y-15750000D01*
X39607143Y-15607143D01*
X39392857Y-15392857D01*
X39250000Y-15321429D01*
X39107143Y-15321429D01*
X39178571Y-15678571D02*
X39035714Y-15607143D01*
X38892857Y-15464286D01*
X38821428Y-15178571D01*
X38821428Y-14678571D01*
X38892857Y-14392857D01*
X39035714Y-14250000D01*
X39178571Y-14178571D01*
X39464285Y-14178571D01*
X39607143Y-14250000D01*
X39750000Y-14392857D01*
X39821428Y-14678571D01*
X39821428Y-15178571D01*
X39750000Y-15464286D01*
X39607143Y-15607143D01*
X39464285Y-15678571D01*
X39178571Y-15678571D01*
X29821429Y-57178571D02*
X29321429Y-56464286D01*
X28964286Y-57178571D02*
X28964286Y-55678571D01*
X29535714Y-55678571D01*
X29678572Y-55750000D01*
X29750000Y-55821429D01*
X29821429Y-55964286D01*
X29821429Y-56178571D01*
X29750000Y-56321429D01*
X29678572Y-56392857D01*
X29535714Y-56464286D01*
X28964286Y-56464286D01*
X30464286Y-56392857D02*
X30964286Y-56392857D01*
X31178572Y-57178571D02*
X30464286Y-57178571D01*
X30464286Y-55678571D01*
X31178572Y-55678571D01*
X31750000Y-57107143D02*
X31964286Y-57178571D01*
X32321429Y-57178571D01*
X32464286Y-57107143D01*
X32535715Y-57035714D01*
X32607143Y-56892857D01*
X32607143Y-56750000D01*
X32535715Y-56607143D01*
X32464286Y-56535714D01*
X32321429Y-56464286D01*
X32035715Y-56392857D01*
X31892857Y-56321429D01*
X31821429Y-56250000D01*
X31750000Y-56107143D01*
X31750000Y-55964286D01*
X31821429Y-55821429D01*
X31892857Y-55750000D01*
X32035715Y-55678571D01*
X32392857Y-55678571D01*
X32607143Y-55750000D01*
X54821429Y-57428571D02*
X54107143Y-57428571D01*
X54107143Y-55928571D01*
X55321429Y-56642857D02*
X55821429Y-56642857D01*
X56035715Y-57428571D02*
X55321429Y-57428571D01*
X55321429Y-55928571D01*
X56035715Y-55928571D01*
X56464286Y-55928571D02*
X56964286Y-57428571D01*
X57464286Y-55928571D01*
X57964286Y-56642857D02*
X58464286Y-56642857D01*
X58678572Y-57428571D02*
X57964286Y-57428571D01*
X57964286Y-55928571D01*
X58678572Y-55928571D01*
X60035715Y-57428571D02*
X59321429Y-57428571D01*
X59321429Y-55928571D01*
X61607143Y-56071429D02*
X61678572Y-56000000D01*
X61821429Y-55928571D01*
X62178572Y-55928571D01*
X62321429Y-56000000D01*
X62392858Y-56071429D01*
X62464286Y-56214286D01*
X62464286Y-56357143D01*
X62392858Y-56571429D01*
X61535715Y-57428571D01*
X62464286Y-57428571D01*
X68500000Y-98428571D02*
X68785714Y-98428571D01*
X68928572Y-98500000D01*
X69071429Y-98642857D01*
X69142857Y-98928571D01*
X69142857Y-99428571D01*
X69071429Y-99714286D01*
X68928572Y-99857143D01*
X68785714Y-99928571D01*
X68500000Y-99928571D01*
X68357143Y-99857143D01*
X68214286Y-99714286D01*
X68142857Y-99428571D01*
X68142857Y-98928571D01*
X68214286Y-98642857D01*
X68357143Y-98500000D01*
X68500000Y-98428571D01*
X69785715Y-98428571D02*
X69785715Y-99642857D01*
X69857143Y-99785714D01*
X69928572Y-99857143D01*
X70071429Y-99928571D01*
X70357143Y-99928571D01*
X70500001Y-99857143D01*
X70571429Y-99785714D01*
X70642858Y-99642857D01*
X70642858Y-98428571D01*
X71142858Y-98428571D02*
X72000001Y-98428571D01*
X71571430Y-99928571D02*
X71571430Y-98428571D01*
X54178572Y-99928571D02*
X54178572Y-98428571D01*
X54892858Y-99928571D02*
X54892858Y-98428571D01*
X55750001Y-99928571D01*
X55750001Y-98428571D01*
X57535715Y-98571429D02*
X57607144Y-98500000D01*
X57750001Y-98428571D01*
X58107144Y-98428571D01*
X58250001Y-98500000D01*
X58321430Y-98571429D01*
X58392858Y-98714286D01*
X58392858Y-98857143D01*
X58321430Y-99071429D01*
X57464287Y-99928571D01*
X58392858Y-99928571D01*
X30928572Y-100178571D02*
X30928572Y-98678571D01*
X31642858Y-100178571D02*
X31642858Y-98678571D01*
X32500001Y-100178571D01*
X32500001Y-98678571D01*
X35142858Y-100178571D02*
X34285715Y-100178571D01*
X34714287Y-100178571D02*
X34714287Y-98678571D01*
X34571430Y-98892857D01*
X34428572Y-99035714D01*
X34285715Y-99107143D01*
X16107144Y-99928571D02*
X15607144Y-99214286D01*
X15250001Y-99928571D02*
X15250001Y-98428571D01*
X15821429Y-98428571D01*
X15964287Y-98500000D01*
X16035715Y-98571429D01*
X16107144Y-98714286D01*
X16107144Y-98928571D01*
X16035715Y-99071429D01*
X15964287Y-99142857D01*
X15821429Y-99214286D01*
X15250001Y-99214286D01*
X16750001Y-99142857D02*
X17250001Y-99142857D01*
X17464287Y-99928571D02*
X16750001Y-99928571D01*
X16750001Y-98428571D01*
X17464287Y-98428571D01*
X18035715Y-99857143D02*
X18250001Y-99928571D01*
X18607144Y-99928571D01*
X18750001Y-99857143D01*
X18821430Y-99785714D01*
X18892858Y-99642857D01*
X18892858Y-99500000D01*
X18821430Y-99357143D01*
X18750001Y-99285714D01*
X18607144Y-99214286D01*
X18321430Y-99142857D01*
X18178572Y-99071429D01*
X18107144Y-99000000D01*
X18035715Y-98857143D01*
X18035715Y-98714286D01*
X18107144Y-98571429D01*
X18178572Y-98500000D01*
X18321430Y-98428571D01*
X18678572Y-98428571D01*
X18892858Y-98500000D01*
X21535715Y-99785714D02*
X21464286Y-99857143D01*
X21250000Y-99928571D01*
X21107143Y-99928571D01*
X20892858Y-99857143D01*
X20750000Y-99714286D01*
X20678572Y-99571429D01*
X20607143Y-99285714D01*
X20607143Y-99071429D01*
X20678572Y-98785714D01*
X20750000Y-98642857D01*
X20892858Y-98500000D01*
X21107143Y-98428571D01*
X21250000Y-98428571D01*
X21464286Y-98500000D01*
X21535715Y-98571429D01*
X21964286Y-98428571D02*
X22464286Y-99928571D01*
X22964286Y-98428571D01*
X21535715Y-83335714D02*
X21464286Y-83407143D01*
X21250000Y-83478571D01*
X21107143Y-83478571D01*
X20892858Y-83407143D01*
X20750000Y-83264286D01*
X20678572Y-83121429D01*
X20607143Y-82835714D01*
X20607143Y-82621429D01*
X20678572Y-82335714D01*
X20750000Y-82192857D01*
X20892858Y-82050000D01*
X21107143Y-81978571D01*
X21250000Y-81978571D01*
X21464286Y-82050000D01*
X21535715Y-82121429D01*
X21964286Y-81978571D02*
X22464286Y-83478571D01*
X22964286Y-81978571D01*
X25392857Y-83478571D02*
X24535714Y-83478571D01*
X24964286Y-83478571D02*
X24964286Y-81978571D01*
X24821429Y-82192857D01*
X24678571Y-82335714D01*
X24535714Y-82407143D01*
X22750000Y-85092857D02*
X22964286Y-85164286D01*
X23035714Y-85235714D01*
X23107143Y-85378571D01*
X23107143Y-85592857D01*
X23035714Y-85735714D01*
X22964286Y-85807143D01*
X22821428Y-85878571D01*
X22250000Y-85878571D01*
X22250000Y-84378571D01*
X22750000Y-84378571D01*
X22892857Y-84450000D01*
X22964286Y-84521429D01*
X23035714Y-84664286D01*
X23035714Y-84807143D01*
X22964286Y-84950000D01*
X22892857Y-85021429D01*
X22750000Y-85092857D01*
X22250000Y-85092857D01*
X23750000Y-85878571D02*
X23750000Y-84378571D01*
X65035715Y-83335714D02*
X64964286Y-83407143D01*
X64750000Y-83478571D01*
X64607143Y-83478571D01*
X64392858Y-83407143D01*
X64250000Y-83264286D01*
X64178572Y-83121429D01*
X64107143Y-82835714D01*
X64107143Y-82621429D01*
X64178572Y-82335714D01*
X64250000Y-82192857D01*
X64392858Y-82050000D01*
X64607143Y-81978571D01*
X64750000Y-81978571D01*
X64964286Y-82050000D01*
X65035715Y-82121429D01*
X65464286Y-81978571D02*
X65964286Y-83478571D01*
X66464286Y-81978571D01*
X68035714Y-82121429D02*
X68107143Y-82050000D01*
X68250000Y-81978571D01*
X68607143Y-81978571D01*
X68750000Y-82050000D01*
X68821429Y-82121429D01*
X68892857Y-82264286D01*
X68892857Y-82407143D01*
X68821429Y-82621429D01*
X67964286Y-83478571D01*
X68892857Y-83478571D01*
X64928571Y-84378571D02*
X64928571Y-85592857D01*
X64999999Y-85735714D01*
X65071428Y-85807143D01*
X65214285Y-85878571D01*
X65499999Y-85878571D01*
X65642857Y-85807143D01*
X65714285Y-85735714D01*
X65785714Y-85592857D01*
X65785714Y-84378571D01*
X66500000Y-85878571D02*
X66500000Y-84378571D01*
X67357143Y-85878571D01*
X67357143Y-84378571D01*
X68071429Y-85878571D02*
X68071429Y-84378571D01*
X38235714Y-51778571D02*
X38235714Y-50278571D01*
X38735714Y-51350000D01*
X39235714Y-50278571D01*
X39235714Y-51778571D01*
X41092857Y-51778571D02*
X41092857Y-50278571D01*
X42950000Y-51778571D02*
X42950000Y-50278571D01*
X43450000Y-51350000D01*
X43950000Y-50278571D01*
X43950000Y-51778571D01*
X46092857Y-50278571D02*
X46378571Y-50278571D01*
X46521429Y-50350000D01*
X46664286Y-50492857D01*
X46735714Y-50778571D01*
X46735714Y-51278571D01*
X46664286Y-51564286D01*
X46521429Y-51707143D01*
X46378571Y-51778571D01*
X46092857Y-51778571D01*
X45950000Y-51707143D01*
X45807143Y-51564286D01*
X45735714Y-51278571D01*
X45735714Y-50778571D01*
X45807143Y-50492857D01*
X45950000Y-50350000D01*
X46092857Y-50278571D01*
X48521429Y-51778571D02*
X48521429Y-50278571D01*
X50378572Y-51778571D02*
X50378572Y-50278571D01*
X50735715Y-50278571D01*
X50950000Y-50350000D01*
X51092858Y-50492857D01*
X51164286Y-50635714D01*
X51235715Y-50921429D01*
X51235715Y-51135714D01*
X51164286Y-51421429D01*
X51092858Y-51564286D01*
X50950000Y-51707143D01*
X50735715Y-51778571D01*
X50378572Y-51778571D01*
D12*
X17086050Y-29428247D02*
X15365321Y-31885703D01*
X15365321Y-31885703D02*
X12088713Y-29591398D01*
X21181810Y-32296129D02*
X19461081Y-34753586D01*
X19461081Y-34753586D02*
X16184473Y-32459280D01*
X16184473Y-32459280D02*
X17905202Y-30001824D01*
X23556841Y-37621468D02*
X20280233Y-35327162D01*
X20280233Y-35327162D02*
X22000962Y-32869706D01*
X13809442Y-27133942D02*
X25277571Y-35164012D01*
X23556841Y-37621468D02*
X29866182Y-28610795D01*
X12088713Y-29591398D02*
X18398054Y-20580725D01*
X30000000Y-20500000D02*
G75*
G03X30000000Y-20500000I-3000000J0D01*
G01*
X35500000Y-20500000D02*
G75*
G03X35500000Y-20500000I-8500000J0D01*
G01*
X64500000Y-15000000D02*
G75*
G03X56500000Y-18000000I-2500000J-5500000D01*
G01*
X67500000Y-18000000D02*
G75*
G03X59500000Y-15000000I-5500000J-2500000D01*
G01*
X64500000Y-26000000D02*
G75*
G03X67500000Y-18000000I-2500000J5500000D01*
G01*
X56500000Y-18000000D02*
G75*
G03X59500000Y-26000000I5500000J-2500000D01*
G01*
X64500000Y-26000000D02*
X59500000Y-26000000D01*
X66500000Y-20500000D02*
G75*
G03X66500000Y-20500000I-4500000J0D01*
G01*
X43200000Y-28000000D02*
X43000000Y-28000000D01*
X45700000Y-28000000D02*
X46000000Y-28000000D01*
X44100000Y-28000000D02*
X43200000Y-28000000D01*
X45700000Y-28000000D02*
X44800000Y-28000000D01*
X44100000Y-28500000D02*
X44100000Y-27500000D01*
X44800000Y-28500000D02*
X44800000Y-27500000D01*
X44800000Y-27500000D02*
X44100000Y-28000000D01*
X44100000Y-28000000D02*
X44800000Y-28500000D01*
X46000000Y-28000000D02*
G75*
G03X46000000Y-28000000I-1500000J0D01*
G01*
X43200000Y-23000000D02*
X43000000Y-23000000D01*
X45700000Y-23000000D02*
X46000000Y-23000000D01*
X44100000Y-23000000D02*
X43200000Y-23000000D01*
X45700000Y-23000000D02*
X44800000Y-23000000D01*
X44100000Y-23500000D02*
X44100000Y-22500000D01*
X44800000Y-23500000D02*
X44800000Y-22500000D01*
X44800000Y-22500000D02*
X44100000Y-23000000D01*
X44100000Y-23000000D02*
X44800000Y-23500000D01*
X46000000Y-23000000D02*
G75*
G03X46000000Y-23000000I-1500000J0D01*
G01*
X43200000Y-18000000D02*
X43000000Y-18000000D01*
X45700000Y-18000000D02*
X46000000Y-18000000D01*
X44100000Y-18000000D02*
X43200000Y-18000000D01*
X45700000Y-18000000D02*
X44800000Y-18000000D01*
X44100000Y-18500000D02*
X44100000Y-17500000D01*
X44800000Y-18500000D02*
X44800000Y-17500000D01*
X44800000Y-17500000D02*
X44100000Y-18000000D01*
X44100000Y-18000000D02*
X44800000Y-18500000D01*
X46000000Y-18000000D02*
G75*
G03X46000000Y-18000000I-1500000J0D01*
G01*
X43200000Y-13000000D02*
X43000000Y-13000000D01*
X45700000Y-13000000D02*
X46000000Y-13000000D01*
X44100000Y-13000000D02*
X43200000Y-13000000D01*
X45700000Y-13000000D02*
X44800000Y-13000000D01*
X44100000Y-13500000D02*
X44100000Y-12500000D01*
X44800000Y-13500000D02*
X44800000Y-12500000D01*
X44800000Y-12500000D02*
X44100000Y-13000000D01*
X44100000Y-13000000D02*
X44800000Y-13500000D01*
X46000000Y-13000000D02*
G75*
G03X46000000Y-13000000I-1500000J0D01*
G01*
X36913950Y-37571753D02*
X38634679Y-35114297D01*
X38634679Y-35114297D02*
X41911287Y-37408602D01*
X32818190Y-34703871D02*
X34538919Y-32246414D01*
X34538919Y-32246414D02*
X37815527Y-34540720D01*
X37815527Y-34540720D02*
X36094798Y-36998176D01*
X30443159Y-29378532D02*
X33719767Y-31672838D01*
X33719767Y-31672838D02*
X31999038Y-34130294D01*
X40190558Y-39866058D02*
X28722429Y-31835988D01*
X30443159Y-29378532D02*
X24133818Y-38389205D01*
X41911287Y-37408602D02*
X35601946Y-46419275D01*
X30000000Y-46500000D02*
G75*
G03X30000000Y-46500000I-3000000J0D01*
G01*
X35500000Y-46500000D02*
G75*
G03X35500000Y-46500000I-8500000J0D01*
G01*
X22000962Y-60130294D02*
X20280233Y-57672838D01*
X20280233Y-57672838D02*
X23556841Y-55378532D01*
X17905202Y-62998176D02*
X16184473Y-60540720D01*
X16184473Y-60540720D02*
X19461081Y-58246414D01*
X19461081Y-58246414D02*
X21181810Y-60703871D01*
X12088713Y-63408602D02*
X15365321Y-61114297D01*
X15365321Y-61114297D02*
X17086050Y-63571753D01*
X25277571Y-57835988D02*
X13809442Y-65866058D01*
X12088713Y-63408602D02*
X18398054Y-72419275D01*
X23556841Y-55378532D02*
X29866182Y-64389205D01*
X30000000Y-72500000D02*
G75*
G03X30000000Y-72500000I-3000000J0D01*
G01*
X35500000Y-72500000D02*
G75*
G03X35500000Y-72500000I-8500000J0D01*
G01*
X71913950Y-63571753D02*
X73634679Y-61114297D01*
X73634679Y-61114297D02*
X76911287Y-63408602D01*
X67818190Y-60703871D02*
X69538919Y-58246414D01*
X69538919Y-58246414D02*
X72815527Y-60540720D01*
X72815527Y-60540720D02*
X71094798Y-62998176D01*
X65443159Y-55378532D02*
X68719767Y-57672838D01*
X68719767Y-57672838D02*
X66999038Y-60130294D01*
X75190558Y-65866058D02*
X63722429Y-57835988D01*
X65443159Y-55378532D02*
X59133818Y-64389205D01*
X76911287Y-63408602D02*
X70601946Y-72419275D01*
X65000000Y-72500000D02*
G75*
G03X65000000Y-72500000I-3000000J0D01*
G01*
X70500000Y-72500000D02*
G75*
G03X70500000Y-72500000I-8500000J0D01*
G01*
X57000962Y-34130294D02*
X55280233Y-31672838D01*
X55280233Y-31672838D02*
X58556841Y-29378532D01*
X52905202Y-36998176D02*
X51184473Y-34540720D01*
X51184473Y-34540720D02*
X54461081Y-32246414D01*
X54461081Y-32246414D02*
X56181810Y-34703871D01*
X47088713Y-37408602D02*
X50365321Y-35114297D01*
X50365321Y-35114297D02*
X52086050Y-37571753D01*
X60277571Y-31835988D02*
X48809442Y-39866058D01*
X47088713Y-37408602D02*
X53398054Y-46419275D01*
X58556841Y-29378532D02*
X64866182Y-38389205D01*
X65000000Y-46500000D02*
G75*
G03X65000000Y-46500000I-3000000J0D01*
G01*
X70500000Y-46500000D02*
G75*
G03X70500000Y-46500000I-8500000J0D01*
G01*
X21915476Y-106500000D02*
G75*
G03X21915476Y-106500000I-2915476J0D01*
G01*
X24000000Y-111500000D02*
X14000000Y-111500000D01*
X14000000Y-111500000D02*
X14000000Y-100500000D01*
X14000000Y-100500000D02*
X24000000Y-100500000D01*
X24000000Y-100500000D02*
X24000000Y-111500000D01*
X21000000Y-106500000D02*
G75*
G03X21000000Y-106500000I-2000000J0D01*
G01*
X21915476Y-92500000D02*
G75*
G03X21915476Y-92500000I-2915476J0D01*
G01*
X24000000Y-97500000D02*
X14000000Y-97500000D01*
X14000000Y-97500000D02*
X14000000Y-86500000D01*
X14000000Y-86500000D02*
X24000000Y-86500000D01*
X24000000Y-86500000D02*
X24000000Y-97500000D01*
X21000000Y-92500000D02*
G75*
G03X21000000Y-92500000I-2000000J0D01*
G01*
X72915476Y-92500000D02*
G75*
G03X72915476Y-92500000I-2915476J0D01*
G01*
X75000000Y-97500000D02*
X65000000Y-97500000D01*
X65000000Y-97500000D02*
X65000000Y-86500000D01*
X65000000Y-86500000D02*
X75000000Y-86500000D01*
X75000000Y-86500000D02*
X75000000Y-97500000D01*
X72000000Y-92500000D02*
G75*
G03X72000000Y-92500000I-2000000J0D01*
G01*
X58915476Y-106500000D02*
G75*
G03X58915476Y-106500000I-2915476J0D01*
G01*
X61000000Y-111500000D02*
X51000000Y-111500000D01*
X51000000Y-111500000D02*
X51000000Y-100500000D01*
X51000000Y-100500000D02*
X61000000Y-100500000D01*
X61000000Y-100500000D02*
X61000000Y-111500000D01*
X58000000Y-106500000D02*
G75*
G03X58000000Y-106500000I-2000000J0D01*
G01*
X35915476Y-106500000D02*
G75*
G03X35915476Y-106500000I-2915476J0D01*
G01*
X38000000Y-111500000D02*
X28000000Y-111500000D01*
X28000000Y-111500000D02*
X28000000Y-100500000D01*
X28000000Y-100500000D02*
X38000000Y-100500000D01*
X38000000Y-100500000D02*
X38000000Y-111500000D01*
X35000000Y-106500000D02*
G75*
G03X35000000Y-106500000I-2000000J0D01*
G01*
X72915476Y-106500000D02*
G75*
G03X72915476Y-106500000I-2915476J0D01*
G01*
X75000000Y-111500000D02*
X65000000Y-111500000D01*
X65000000Y-111500000D02*
X65000000Y-100500000D01*
X65000000Y-100500000D02*
X75000000Y-100500000D01*
X75000000Y-100500000D02*
X75000000Y-111500000D01*
X72000000Y-106500000D02*
G75*
G03X72000000Y-106500000I-2000000J0D01*
G01*
D13*
X25843897Y-18671665D02*
X25385896Y-20211429D01*
X26676156Y-19254419D01*
X26931519Y-21293686D02*
X26931642Y-20407838D01*
X26218154Y-20794183D02*
X27092285Y-19545795D01*
X27567862Y-19878798D01*
X27645130Y-20021495D01*
X27662952Y-20122567D01*
X27639148Y-20283086D01*
X27514272Y-20461428D01*
X27371576Y-20538696D01*
X27270502Y-20556518D01*
X27109984Y-20532715D01*
X26634407Y-20199712D01*
X28120460Y-22126192D02*
X27407095Y-21626689D01*
X27763777Y-21876440D02*
X28637908Y-20628052D01*
X28394138Y-20723142D01*
X28191994Y-20758787D01*
X28031475Y-20734983D01*
D14*
X60916267Y-27078990D02*
X61032381Y-27117695D01*
X61225905Y-27117695D01*
X61303315Y-27078990D01*
X61342019Y-27040286D01*
X61380724Y-26962876D01*
X61380724Y-26885467D01*
X61342019Y-26808057D01*
X61303315Y-26769352D01*
X61225905Y-26730648D01*
X61071086Y-26691943D01*
X60993677Y-26653238D01*
X60954972Y-26614533D01*
X60916267Y-26537124D01*
X60916267Y-26459714D01*
X60954972Y-26382305D01*
X60993677Y-26343600D01*
X61071086Y-26304895D01*
X61264610Y-26304895D01*
X61380724Y-26343600D01*
X61651657Y-26304895D02*
X61845181Y-27117695D01*
X62000000Y-26537124D01*
X62154819Y-27117695D01*
X62348343Y-26304895D01*
X63083733Y-27117695D02*
X62619276Y-27117695D01*
X62851505Y-27117695D02*
X62851505Y-26304895D01*
X62774095Y-26421010D01*
X62696686Y-26498419D01*
X62619276Y-26537124D01*
D12*
X43900077Y-30867695D02*
X43900077Y-30054895D01*
X44093601Y-30054895D01*
X44209715Y-30093600D01*
X44287124Y-30171010D01*
X44325829Y-30248419D01*
X44364534Y-30403238D01*
X44364534Y-30519352D01*
X44325829Y-30674171D01*
X44287124Y-30751581D01*
X44209715Y-30828990D01*
X44093601Y-30867695D01*
X43900077Y-30867695D01*
X45061220Y-30325829D02*
X45061220Y-30867695D01*
X44867696Y-30016190D02*
X44674172Y-30596762D01*
X45177334Y-30596762D01*
X43900077Y-25867695D02*
X43900077Y-25054895D01*
X44093601Y-25054895D01*
X44209715Y-25093600D01*
X44287124Y-25171010D01*
X44325829Y-25248419D01*
X44364534Y-25403238D01*
X44364534Y-25519352D01*
X44325829Y-25674171D01*
X44287124Y-25751581D01*
X44209715Y-25828990D01*
X44093601Y-25867695D01*
X43900077Y-25867695D01*
X44635467Y-25054895D02*
X45138629Y-25054895D01*
X44867696Y-25364533D01*
X44983810Y-25364533D01*
X45061220Y-25403238D01*
X45099924Y-25441943D01*
X45138629Y-25519352D01*
X45138629Y-25712876D01*
X45099924Y-25790286D01*
X45061220Y-25828990D01*
X44983810Y-25867695D01*
X44751582Y-25867695D01*
X44674172Y-25828990D01*
X44635467Y-25790286D01*
X43900077Y-20867695D02*
X43900077Y-20054895D01*
X44093601Y-20054895D01*
X44209715Y-20093600D01*
X44287124Y-20171010D01*
X44325829Y-20248419D01*
X44364534Y-20403238D01*
X44364534Y-20519352D01*
X44325829Y-20674171D01*
X44287124Y-20751581D01*
X44209715Y-20828990D01*
X44093601Y-20867695D01*
X43900077Y-20867695D01*
X44674172Y-20132305D02*
X44712877Y-20093600D01*
X44790286Y-20054895D01*
X44983810Y-20054895D01*
X45061220Y-20093600D01*
X45099924Y-20132305D01*
X45138629Y-20209714D01*
X45138629Y-20287124D01*
X45099924Y-20403238D01*
X44635467Y-20867695D01*
X45138629Y-20867695D01*
X43900077Y-15867695D02*
X43900077Y-15054895D01*
X44093601Y-15054895D01*
X44209715Y-15093600D01*
X44287124Y-15171010D01*
X44325829Y-15248419D01*
X44364534Y-15403238D01*
X44364534Y-15519352D01*
X44325829Y-15674171D01*
X44287124Y-15751581D01*
X44209715Y-15828990D01*
X44093601Y-15867695D01*
X43900077Y-15867695D01*
X45138629Y-15867695D02*
X44674172Y-15867695D01*
X44906401Y-15867695D02*
X44906401Y-15054895D01*
X44828991Y-15171010D01*
X44751582Y-15248419D01*
X44674172Y-15287124D01*
D13*
X25843897Y-44671665D02*
X25385896Y-46211429D01*
X26676156Y-45254419D01*
X26931519Y-47293686D02*
X26931642Y-46407838D01*
X26218154Y-46794183D02*
X27092285Y-45545795D01*
X27567862Y-45878798D01*
X27645130Y-46021495D01*
X27662952Y-46122567D01*
X27639148Y-46283086D01*
X27514272Y-46461428D01*
X27371576Y-46538696D01*
X27270502Y-46556518D01*
X27109984Y-46532715D01*
X26634407Y-46199712D01*
X28197976Y-46497194D02*
X28299047Y-46479373D01*
X28459567Y-46503177D01*
X28756802Y-46711303D01*
X28834071Y-46854000D01*
X28851893Y-46955072D01*
X28828089Y-47115592D01*
X28744839Y-47234486D01*
X28560516Y-47371201D01*
X27347648Y-47585063D01*
X28120460Y-48126192D01*
X24886517Y-72961054D02*
X26176776Y-73918065D01*
X25718775Y-72378300D01*
X27722399Y-72835808D02*
X26890017Y-72532714D01*
X27009035Y-73335311D02*
X26134904Y-72086923D01*
X26610481Y-71753921D01*
X26770999Y-71730118D01*
X26872072Y-71747939D01*
X27014769Y-71825208D01*
X27139645Y-72003550D01*
X27163449Y-72164068D01*
X27145627Y-72265141D01*
X27068358Y-72407838D01*
X26592782Y-72740840D01*
X27264398Y-71296044D02*
X28037210Y-70754915D01*
X27954082Y-71521868D01*
X28132423Y-71396992D01*
X28292942Y-71373188D01*
X28394015Y-71391011D01*
X28536713Y-71468279D01*
X28744839Y-71765514D01*
X28768642Y-71926034D01*
X28750820Y-72027106D01*
X28673552Y-72169804D01*
X28316870Y-72419555D01*
X28156350Y-72443358D01*
X28055278Y-72425537D01*
X60843897Y-70671665D02*
X60385896Y-72211429D01*
X61676156Y-71254419D01*
X61931519Y-73293686D02*
X61931642Y-72407838D01*
X61218154Y-72794183D02*
X62092285Y-71545795D01*
X62567862Y-71878798D01*
X62645130Y-72021495D01*
X62662952Y-72122567D01*
X62639148Y-72283086D01*
X62514272Y-72461428D01*
X62371576Y-72538696D01*
X62270502Y-72556518D01*
X62109984Y-72532715D01*
X61634407Y-72199712D01*
X63584319Y-73210683D02*
X63001565Y-74042941D01*
X63620086Y-72526980D02*
X62698472Y-73210559D01*
X63471283Y-73751687D01*
X59886517Y-46961054D02*
X61176776Y-47918065D01*
X60718775Y-46378300D01*
X62722399Y-46835808D02*
X61890017Y-46532714D01*
X62009035Y-47335311D02*
X61134904Y-46086923D01*
X61610481Y-45753921D01*
X61770999Y-45730118D01*
X61872072Y-45747939D01*
X62014769Y-45825208D01*
X62139645Y-46003550D01*
X62163449Y-46164068D01*
X62145627Y-46265141D01*
X62068358Y-46407838D01*
X61592782Y-46740840D01*
X62918315Y-44838166D02*
X62680527Y-45004667D01*
X62603258Y-45147364D01*
X62585436Y-45248436D01*
X62591418Y-45510028D01*
X62698472Y-45789441D01*
X63031475Y-46265017D01*
X63174172Y-46342287D01*
X63275244Y-46360108D01*
X63435763Y-46336305D01*
X63673552Y-46169804D01*
X63750820Y-46027106D01*
X63768642Y-45926034D01*
X63744839Y-45765514D01*
X63536713Y-45468279D01*
X63394015Y-45391011D01*
X63292942Y-45373188D01*
X63132423Y-45396992D01*
X62894635Y-45563493D01*
X62817366Y-45706190D01*
X62799544Y-45807263D01*
X62823348Y-45967782D01*
D12*
X22250000Y-100928571D02*
X22250000Y-102000000D01*
X22178572Y-102214286D01*
X22035715Y-102357143D01*
X21821429Y-102428571D01*
X21678572Y-102428571D01*
X23750000Y-102428571D02*
X22892857Y-102428571D01*
X23321429Y-102428571D02*
X23321429Y-100928571D01*
X23178572Y-101142857D01*
X23035714Y-101285714D01*
X22892857Y-101357143D01*
X22000000Y-86928571D02*
X22000000Y-88000000D01*
X21928572Y-88214286D01*
X21785715Y-88357143D01*
X21571429Y-88428571D01*
X21428572Y-88428571D01*
X22642857Y-87071429D02*
X22714286Y-87000000D01*
X22857143Y-86928571D01*
X23214286Y-86928571D01*
X23357143Y-87000000D01*
X23428572Y-87071429D01*
X23500000Y-87214286D01*
X23500000Y-87357143D01*
X23428572Y-87571429D01*
X22571429Y-88428571D01*
X23500000Y-88428571D01*
X73000000Y-86928571D02*
X73000000Y-88000000D01*
X72928572Y-88214286D01*
X72785715Y-88357143D01*
X72571429Y-88428571D01*
X72428572Y-88428571D01*
X73571429Y-86928571D02*
X74500000Y-86928571D01*
X74000000Y-87500000D01*
X74214286Y-87500000D01*
X74357143Y-87571429D01*
X74428572Y-87642857D01*
X74500000Y-87785714D01*
X74500000Y-88142857D01*
X74428572Y-88285714D01*
X74357143Y-88357143D01*
X74214286Y-88428571D01*
X73785714Y-88428571D01*
X73642857Y-88357143D01*
X73571429Y-88285714D01*
X59000000Y-100928571D02*
X59000000Y-102000000D01*
X58928572Y-102214286D01*
X58785715Y-102357143D01*
X58571429Y-102428571D01*
X58428572Y-102428571D01*
X60357143Y-101428571D02*
X60357143Y-102428571D01*
X60000000Y-100857143D02*
X59642857Y-101928571D01*
X60571429Y-101928571D01*
X36250000Y-100928571D02*
X36250000Y-102000000D01*
X36178572Y-102214286D01*
X36035715Y-102357143D01*
X35821429Y-102428571D01*
X35678572Y-102428571D01*
X37678572Y-100928571D02*
X36964286Y-100928571D01*
X36892857Y-101642857D01*
X36964286Y-101571429D01*
X37107143Y-101500000D01*
X37464286Y-101500000D01*
X37607143Y-101571429D01*
X37678572Y-101642857D01*
X37750000Y-101785714D01*
X37750000Y-102142857D01*
X37678572Y-102285714D01*
X37607143Y-102357143D01*
X37464286Y-102428571D01*
X37107143Y-102428571D01*
X36964286Y-102357143D01*
X36892857Y-102285714D01*
X73000000Y-100928571D02*
X73000000Y-102000000D01*
X72928572Y-102214286D01*
X72785715Y-102357143D01*
X72571429Y-102428571D01*
X72428572Y-102428571D01*
X74357143Y-100928571D02*
X74071429Y-100928571D01*
X73928572Y-101000000D01*
X73857143Y-101071429D01*
X73714286Y-101285714D01*
X73642857Y-101571429D01*
X73642857Y-102142857D01*
X73714286Y-102285714D01*
X73785714Y-102357143D01*
X73928572Y-102428571D01*
X74214286Y-102428571D01*
X74357143Y-102357143D01*
X74428572Y-102285714D01*
X74500000Y-102142857D01*
X74500000Y-101785714D01*
X74428572Y-101642857D01*
X74357143Y-101571429D01*
X74214286Y-101500000D01*
X73928572Y-101500000D01*
X73785714Y-101571429D01*
X73714286Y-101642857D01*
X73642857Y-101785714D01*
%LPC*%
D15*
X17822777Y-33606433D03*
X21918537Y-36474315D03*
X13727017Y-30738551D03*
D16*
X59500000Y-18000000D03*
X64500000Y-18000000D03*
X64500000Y-23000000D03*
X59500000Y-23000000D03*
D17*
X24250000Y-43500000D03*
X31500000Y-16250000D03*
D18*
X45770000Y-28000000D03*
D19*
X43230000Y-28000000D03*
D18*
X45770000Y-23000000D03*
D19*
X43230000Y-23000000D03*
D18*
X45770000Y-18000000D03*
D19*
X43230000Y-18000000D03*
D18*
X45770000Y-13000000D03*
D19*
X43230000Y-13000000D03*
D15*
X36177223Y-33393567D03*
X32081463Y-30525685D03*
X40272983Y-36261449D03*
X17822777Y-59393567D03*
X13727017Y-62261449D03*
X21918537Y-56525685D03*
X71177223Y-59393567D03*
X67081463Y-56525685D03*
X75272983Y-62261449D03*
X52822777Y-33393567D03*
X48727017Y-36261449D03*
X56918537Y-30525685D03*
D20*
X14300000Y-106500000D03*
D21*
X23700000Y-106500000D03*
D22*
X19000000Y-101600000D03*
X19000000Y-109800000D03*
D20*
X14300000Y-92500000D03*
D21*
X23700000Y-92500000D03*
D22*
X19000000Y-87600000D03*
X19000000Y-95800000D03*
D20*
X65300000Y-92500000D03*
D21*
X74700000Y-92500000D03*
D22*
X70000000Y-87600000D03*
X70000000Y-95800000D03*
D20*
X51300000Y-106500000D03*
D21*
X60700000Y-106500000D03*
D22*
X56000000Y-101600000D03*
X56000000Y-109800000D03*
D20*
X28300000Y-106500000D03*
D21*
X37700000Y-106500000D03*
D22*
X33000000Y-101600000D03*
X33000000Y-109800000D03*
D20*
X65300000Y-106500000D03*
D21*
X74700000Y-106500000D03*
D22*
X70000000Y-101600000D03*
X70000000Y-109800000D03*
D23*
X71250000Y-36500000D03*
D24*
X73790000Y-36500000D03*
X71250000Y-33960000D03*
X73790000Y-33960000D03*
X71250000Y-31420000D03*
X73790000Y-31420000D03*
X71250000Y-28880000D03*
X73790000Y-28880000D03*
X71250000Y-26340000D03*
X73790000Y-26340000D03*
D25*
X51000000Y-61500000D03*
X56000000Y-61500000D03*
X38000000Y-61500000D03*
X33000000Y-61500000D03*
X38000000Y-91500000D03*
X33000000Y-91500000D03*
X51000000Y-91500000D03*
X56000000Y-91500000D03*
M02*
